<svg width="183" height="85" viewBox="0 0 183 85" fill="none" xmlns="http://www.w3.org/2000/svg">
<path d="M11 68H4V69H11V68Z" fill="#111111"/>
<path d="M11 66H4V67H11V66Z" fill="#111111"/>
<path d="M8 70H4V71H8V70Z" fill="#111111"/>
<path d="M9 70V72.5C9 73 8.64 73.23 8.4 73.5L8.12 73.74C7.88596 73.8984 7.61238 73.9885 7.33 74H3V64H13V69H14V63H2V75H7.33C7.65201 75.0005 7.97073 74.9351 8.26653 74.8079C8.56233 74.6806 8.82896 74.4942 9.05 74.26L14 70H9ZM10 71H11.32L10 72.35V71Z" fill="#111111"/>
<path d="M158 67H144V69H158V67Z" fill="#111111"/>
<path d="M158 63H144V65H158V63Z" fill="#111111"/>
<path d="M152 71H144V73H152V71Z" fill="#111111"/>
<path d="M154 71V76C154 77 153.28 77.46 152.8 78L152.24 78.48C151.772 78.7968 151.225 78.9769 150.66 79H142V59H162V69H164V57H140V81H150.66C151.304 81.001 151.941 80.8703 152.533 80.6158C153.125 80.3612 153.658 79.9883 154.1 79.52L164 71H154ZM156 73H158.64L156 75.7V73Z" fill="#111111"/>
<path d="M80.5 67.5H70V69H80.5V67.5Z" fill="#111111"/>
<path d="M80.5 64.5H70V66H80.5V64.5Z" fill="#111111"/>
<path d="M76 70.5H70V72H76V70.5Z" fill="#111111"/>
<path d="M77.5 70.5V74.25C77.5 75 76.96 75.345 76.6 75.75L76.18 76.11C75.8289 76.3476 75.4186 76.4827 74.995 76.5H68.5V61.5H83.5V69H85V60H67V78H74.995C75.478 78.0008 75.9561 77.9027 76.3998 77.7118C76.8435 77.5209 77.2434 77.2412 77.575 76.89L85 70.5H77.5ZM79 72H80.98L79 74.025V72Z" fill="#111111"/>
<path d="M14.5348 16V14.944H12.1828V5.12H11.2228C10.5348 6.256 9.78281 7.088 8.61481 7.728V9.104C10.1348 8.24 10.5188 7.552 10.9028 7.104V14.944H8.50281V16H14.5348ZM19.9816 16.208C22.1576 16.208 23.6776 14.592 23.6776 12.544C23.6776 10.528 22.3816 9.04 20.1896 9.04C18.8616 9.04 17.4856 9.824 17.0216 11.312C17.0216 11.248 17.0056 11.008 17.0056 10.96C17.0056 7.584 18.2376 6.208 19.9656 6.208C21.1176 6.208 21.8376 6.8 22.2216 7.872L23.4056 7.664C22.9416 6.032 21.7576 5.12 20.0936 5.12C17.2136 5.12 15.7416 7.568 15.7416 10.72V10.848C15.7416 14.368 17.5336 16.208 19.9816 16.208ZM19.9816 15.168C18.4296 15.168 17.3896 14.096 17.2136 12.496C17.2136 12.448 17.2136 12.4 17.2296 12.352C17.5496 11.184 18.5256 10.08 19.9816 10.08C21.5656 10.08 22.4296 11.168 22.4296 12.608V12.688C22.4296 14.208 21.3896 15.168 19.9816 15.168ZM28.9663 16.112C30.5503 16.112 31.9743 14.72 31.9743 12.048C31.9743 9.2 30.7583 7.968 28.9983 7.968C27.7343 7.968 26.9343 8.736 26.4543 9.504V8.112H25.2703V18.672H26.5023V14.96C26.9823 15.536 27.8143 16.112 28.9663 16.112ZM28.6303 15.2C27.4943 15.2 26.9183 14.496 26.5023 13.904V10.576C27.0623 9.472 27.7983 8.992 28.7103 8.992C30.0703 8.992 30.6783 9.968 30.6783 12.08C30.6783 14.352 29.8783 15.2 28.6303 15.2ZM33.6974 16L35.6974 13.056L35.8574 12.768L36.0334 13.056L38.0974 16H39.4734L36.5454 11.744L38.9934 8.112H37.7934L36.1454 10.528L35.9374 10.848L35.7294 10.528L34.0814 8.112H32.6734L35.2494 11.872L32.4814 16H33.6974Z" fill="#3D73D5"/>
<line x1="7.5" y1="20" x2="7.5" y2="53" stroke="#3D73D5" stroke-dasharray="2 2"/>
<path d="M83.8944 16V14.88H77.8144C81.7824 12.176 83.6544 10.432 83.6544 8.416C83.6544 6.448 82.3104 5.152 80.0544 5.152C77.8624 5.152 76.5504 6.4 76.1984 8.336L77.4304 8.576C77.6224 7.056 78.6144 6.24 80.0064 6.24C81.5904 6.24 82.3104 7.168 82.3104 8.336C82.3104 10.144 81.1744 11.28 76.1984 14.96V16H83.8944ZM91.7666 16V13.504H93.4786V12.4H91.7666V5.12H90.3586L85.1906 12.48V13.504H90.5186V16H91.7666ZM90.5186 6.576V12.4H86.3746L90.5186 6.576ZM98.9507 16.112C100.535 16.112 101.959 14.72 101.959 12.048C101.959 9.2 100.743 7.968 98.9827 7.968C97.7187 7.968 96.9187 8.736 96.4387 9.504V8.112H95.2547V18.672H96.4867V14.96C96.9667 15.536 97.7987 16.112 98.9507 16.112ZM98.6147 15.2C97.4787 15.2 96.9027 14.496 96.4867 13.904V10.576C97.0467 9.472 97.7827 8.992 98.6947 8.992C100.055 8.992 100.663 9.968 100.663 12.08C100.663 14.352 99.8627 15.2 98.6147 15.2ZM103.682 16L105.682 13.056L105.842 12.768L106.018 13.056L108.082 16H109.458L106.53 11.744L108.978 8.112H107.778L106.13 10.528L105.922 10.848L105.714 10.528L104.066 8.112H102.658L105.234 11.872L102.466 16H103.682Z" fill="#3D73D5"/>
<line x1="75.5" y1="20" x2="75.5" y2="53" stroke="#3D73D5" stroke-dasharray="2 2"/>
<path d="M153.006 16.192C155.534 16.192 156.926 14.832 156.926 13.056C156.926 11.648 155.982 10.688 154.478 10.384C155.79 10.064 156.526 9.136 156.526 7.888C156.526 6.288 155.294 5.136 152.942 5.136C151.182 5.136 149.806 6.016 149.246 7.68L150.446 7.92C150.75 6.88 151.646 6.224 152.974 6.224C154.35 6.224 155.198 6.88 155.198 8.016C155.198 9.248 154.35 9.904 152.702 9.904H151.47V10.992H152.702C154.574 10.992 155.582 11.824 155.582 13.04C155.582 14.208 154.75 15.136 152.974 15.136C151.31 15.136 150.478 14.544 150.11 13.216L148.862 13.456C149.358 15.344 150.782 16.192 153.006 16.192ZM166.223 16V14.88H160.143C164.111 12.176 165.983 10.432 165.983 8.416C165.983 6.448 164.639 5.152 162.383 5.152C160.191 5.152 158.879 6.4 158.527 8.336L159.759 8.576C159.951 7.056 160.943 6.24 162.335 6.24C163.919 6.24 164.639 7.168 164.639 8.336C164.639 10.144 163.503 11.28 158.527 14.96V16H166.223ZM171.951 16.112C173.535 16.112 174.959 14.72 174.959 12.048C174.959 9.2 173.743 7.968 171.983 7.968C170.719 7.968 169.919 8.736 169.439 9.504V8.112H168.255V18.672H169.487V14.96C169.967 15.536 170.799 16.112 171.951 16.112ZM171.615 15.2C170.479 15.2 169.903 14.496 169.487 13.904V10.576C170.047 9.472 170.783 8.992 171.695 8.992C173.055 8.992 173.663 9.968 173.663 12.08C173.663 14.352 172.863 15.2 171.615 15.2ZM176.682 16L178.682 13.056L178.842 12.768L179.018 13.056L181.082 16H182.458L179.53 11.744L181.978 8.112H180.778L179.13 10.528L178.922 10.848L178.714 10.528L177.066 8.112H175.658L178.234 11.872L175.466 16H176.682Z" fill="#3D73D5"/>
<line x1="148.5" y1="20" x2="148.5" y2="53" stroke="#3D73D5" stroke-dasharray="2 2"/>
</svg>
