<svg width="618" height="135" viewBox="0 0 618 135" fill="none" xmlns="http://www.w3.org/2000/svg">
<rect x="479" y="58.5" width="138" height="39" rx="19.5" fill="white"/>
<rect x="479" y="58.5" width="138" height="39" rx="19.5" stroke="#D4D4D4"/>
<g clip-path="url(#clip0_2862_30298)">
<path d="M508.5 77.5H503V72H502V77.5H496.5V78.5H502V84H503V78.5H508.5V77.5Z" fill="black"/>
</g>
<path d="M524.25 84H521.722V75.344H518.954V73.328H526.986V75.344H524.25V84ZM530.717 84.128C528.333 84.128 526.605 82.56 526.605 80.144C526.605 77.584 528.493 75.92 530.701 75.92C533.181 75.92 534.637 77.552 534.701 80.016C534.701 80.192 534.701 80.32 534.685 80.496H529.197C529.229 81.92 529.965 82.544 530.941 82.544C531.741 82.544 532.253 82.144 532.541 81.36L534.605 81.632C534.077 83.136 532.765 84.128 530.717 84.128ZM529.229 79.2H532.205C532.125 78.128 531.661 77.472 530.733 77.472C529.933 77.472 529.293 78.112 529.229 79.2ZM537.147 84H534.971L537.739 80L535.163 76.064H537.899L538.987 77.696L539.211 78.064L539.451 77.696L540.523 76.064H542.699L540.251 79.648L543.099 84H540.363L539.035 82L538.779 81.584L538.491 82L537.147 84ZM547.222 84.112C545.414 84.112 544.454 83.264 544.454 81.584V77.744H543.19V76.064H544.47L544.63 73.632H546.87V76.064H548.502V77.744H546.87V81.184C546.87 81.808 547.126 82.16 547.718 82.24C548.022 82.272 548.326 82.272 548.662 82.24V84.016C548.278 84.064 547.718 84.112 547.222 84.112ZM558.503 84.112C557.207 84.112 556.487 83.632 555.879 82.832L555.527 84H554.023V73.328H556.471V77.28C556.919 76.592 557.655 75.92 558.887 75.92C560.711 75.92 561.703 77.312 561.703 80.016C561.703 82.736 560.391 84.112 558.503 84.112ZM557.815 82.592C558.791 82.592 559.143 81.888 559.143 80.096C559.143 78.416 558.791 77.616 557.863 77.616C557.143 77.616 556.743 78.096 556.487 78.656V80.88C556.487 82.032 556.983 82.592 557.815 82.592ZM565.451 84.128C564.091 84.128 563.131 83.36 563.131 81.6V76.064H565.627V81.472C565.627 82.224 565.947 82.512 566.603 82.512C567.195 82.512 567.627 82.112 567.883 81.584V76.064H570.379V84H567.979L567.995 82.864C567.451 83.712 566.587 84.128 565.451 84.128ZM575.456 84.112C573.648 84.112 572.688 83.264 572.688 81.584V77.744H571.424V76.064H572.704L572.864 73.632H575.104V76.064H576.736V77.744H575.104V81.184C575.104 81.808 575.36 82.16 575.952 82.24C576.256 82.272 576.56 82.272 576.896 82.24V84.016C576.512 84.064 575.952 84.112 575.456 84.112ZM581.222 84.112C579.414 84.112 578.454 83.264 578.454 81.584V77.744H577.19V76.064H578.47L578.63 73.632H580.87V76.064H582.502V77.744H580.87V81.184C580.87 81.808 581.126 82.16 581.718 82.24C582.022 82.272 582.326 82.272 582.662 82.24V84.016C582.278 84.064 581.718 84.112 581.222 84.112ZM587.371 84.128C585.003 84.128 583.339 82.416 583.339 80.096C583.339 77.632 585.067 75.92 587.419 75.92C589.883 75.92 591.515 77.584 591.515 80.048C591.515 82.368 589.851 84.128 587.371 84.128ZM587.451 82.528C588.363 82.528 588.859 81.76 588.859 80.016C588.859 78.352 588.411 77.568 587.435 77.568C586.491 77.568 585.979 78.336 585.979 80.016C585.979 81.744 586.459 82.528 587.451 82.528ZM595.424 84H592.944V76.064H595.328V77.376C595.792 76.72 596.544 75.92 597.888 75.92C599.52 75.92 600.176 76.896 600.176 78.416V84H597.696V78.496C597.696 78 597.44 77.632 596.832 77.632C596.176 77.632 595.744 78.08 595.424 78.56V84Z" fill="#111111"/>
<path d="M5.908 20.16C2.964 20.16 1.028 17.952 1.028 14.64C1.028 11.296 2.964 9.12 5.844 9.12C8.788 9.12 10.708 11.184 10.708 14.624C10.708 17.888 8.708 20.16 5.908 20.16ZM5.892 18.16C7.22 18.16 7.892 16.976 7.892 14.64C7.892 12.4 7.364 11.12 5.876 11.12C4.436 11.12 3.844 12.416 3.844 14.672C3.844 17.088 4.596 18.16 5.892 18.16ZM14.6584 20H12.1784V12.064H14.5624V13.376C15.0264 12.72 15.7784 11.92 17.1224 11.92C18.7544 11.92 19.4104 12.896 19.4104 14.416V20H16.9304V14.496C16.9304 14 16.6744 13.632 16.0664 13.632C15.4104 13.632 14.9784 14.08 14.6584 14.56V20ZM25.1921 20.16C22.3601 20.16 21.1121 18.944 20.4881 17.328L22.5681 16.528C23.0001 17.568 23.6881 18.192 25.1441 18.192C26.2001 18.192 26.8721 17.76 26.8721 17.056C26.8721 16.08 25.7041 15.856 24.4081 15.536C22.7601 15.136 20.8721 14.576 20.8721 12.224C20.8721 10.416 22.4241 9.136 25.0001 9.136C27.2561 9.136 28.5681 10.128 29.1761 11.76L26.9521 12.432C26.6481 11.552 25.9441 11.152 24.9681 11.152C24.0881 11.152 23.4961 11.52 23.4961 12.144C23.4961 13.088 24.5361 13.264 26.0081 13.616C27.7841 14.032 29.4481 14.688 29.4481 16.912C29.4481 18.8 28.0561 20.16 25.1921 20.16ZM34.5451 20.128C32.1611 20.128 30.4331 18.56 30.4331 16.144C30.4331 13.584 32.3211 11.92 34.5291 11.92C37.0091 11.92 38.4651 13.552 38.5291 16.016C38.5291 16.192 38.5291 16.32 38.5131 16.496H33.0251C33.0571 17.92 33.7931 18.544 34.7691 18.544C35.5691 18.544 36.0811 18.144 36.3691 17.36L38.4331 17.632C37.9051 19.136 36.5931 20.128 34.5451 20.128ZM33.0571 15.2H36.0331C35.9531 14.128 35.4891 13.472 34.5611 13.472C33.7611 13.472 33.1211 14.112 33.0571 15.2ZM43.3368 20.144C41.0488 20.144 39.4488 18.624 39.4488 16.016C39.4488 13.76 40.9688 11.92 43.3688 11.92C45.2888 11.92 46.5688 12.944 46.8888 14.896L44.6808 15.104C44.5688 14.192 44.2328 13.568 43.4488 13.568C42.5528 13.568 42.0888 14.416 42.0888 16.032C42.0888 17.792 42.6168 18.56 43.4808 18.56C44.2648 18.56 44.6168 18.032 44.7608 17.136L46.9048 17.328C46.6648 19.136 45.4008 20.144 43.3368 20.144ZM51.762 20.128C49.394 20.128 47.73 18.416 47.73 16.096C47.73 13.632 49.458 11.92 51.81 11.92C54.274 11.92 55.906 13.584 55.906 16.048C55.906 18.368 54.242 20.128 51.762 20.128ZM51.842 18.528C52.754 18.528 53.25 17.76 53.25 16.016C53.25 14.352 52.802 13.568 51.826 13.568C50.882 13.568 50.37 14.336 50.37 16.016C50.37 17.744 50.85 18.528 51.842 18.528ZM59.8146 20H57.3346V12.064H59.7186V13.376C60.1826 12.72 60.9346 11.92 62.2786 11.92C63.9106 11.92 64.5666 12.896 64.5666 14.416V20H62.0866V14.496C62.0866 14 61.8306 13.632 61.2226 13.632C60.5666 13.632 60.1346 14.08 59.8146 14.56V20ZM68.8124 20.144C67.1004 20.144 65.9804 18.8 65.9804 16C65.9804 13.472 67.2444 11.92 69.1324 11.92C70.0764 11.92 70.7484 12.336 71.2124 12.88V9.328H73.6764V20H71.3084V18.864C70.6684 19.712 69.9964 20.144 68.8124 20.144ZM69.8524 18.496C70.5564 18.496 70.9564 18.048 71.2124 17.536V14.336C70.9404 13.936 70.5724 13.504 69.8684 13.504C68.9724 13.504 68.5564 14.144 68.5564 16.016C68.5564 17.936 69.0524 18.496 69.8524 18.496ZM77.489 20.096C76.017 20.096 75.041 19.264 75.041 17.92C75.041 16.16 76.625 15.28 79.393 15.008C79.697 14.976 80.017 14.944 80.353 14.928C80.353 14.848 80.337 14.608 80.337 14.544C80.289 13.92 79.921 13.536 79.057 13.536C78.129 13.536 77.681 13.856 77.521 14.528L75.249 14.32C75.633 12.736 76.961 11.92 79.297 11.92C81.969 11.92 82.737 13.072 82.737 14.784V18.448C82.737 18.912 82.769 19.696 82.913 20H80.545C80.449 19.84 80.417 19.424 80.417 18.976C79.729 19.68 78.897 20.096 77.489 20.096ZM78.609 18.56C79.425 18.56 80.017 18.08 80.353 17.568V16.176C80.049 16.192 79.761 16.224 79.505 16.272C78.289 16.48 77.601 16.944 77.601 17.696C77.601 18.288 77.985 18.56 78.609 18.56ZM87.1439 20H84.6319V12.064H86.9999V13.728C87.3679 12.784 88.3119 11.92 89.4799 11.92C89.7199 11.92 89.9279 11.936 90.0559 11.968V13.968C89.8959 13.936 89.5439 13.92 89.3359 13.92C88.3919 13.92 87.5919 14.4 87.1439 15.248V20ZM90.9495 22.752V20.944C91.1255 20.96 91.2695 20.96 91.4135 20.96C92.6775 20.96 93.2375 20.512 93.2375 19.744C93.2375 19.456 93.1575 19.12 93.0135 18.736L90.4215 12.064H93.0775L94.4375 16.032L94.7095 16.912L94.9815 16.048L96.3415 12.064H98.3575L95.2215 20.624C94.7735 21.856 93.9415 22.768 91.3975 22.768C91.2535 22.768 91.1095 22.752 90.9495 22.752Z" fill="#111111"/>
<path d="M3.314 43V34.656H0.64V33.662L8.172 33.648V37.456C8.62 36.742 9.46 35.972 10.748 35.972C12.148 35.972 12.652 36.896 12.652 38.03V43H11.56V38.114C11.56 37.274 11.14 36.882 10.44 36.882C9.474 36.882 8.788 37.456 8.214 38.282V43H7.122V34.656H4.476V43H3.314ZM15.8917 34.88H14.7017V33.648H15.8917V34.88ZM15.8497 43H14.7577V36.098H15.8497V43ZM20.1539 43.112C18.4039 43.112 17.3259 42.398 16.9899 41.138L17.9699 40.942C18.1939 41.754 18.9639 42.3 20.1539 42.3C21.2459 42.3 21.9179 41.81 21.9179 41.082C21.9179 40.256 20.9939 40.088 19.9719 39.864C18.5579 39.598 17.3679 39.234 17.3679 37.876C17.3679 36.742 18.3899 35.972 19.9299 35.972C21.4839 35.972 22.3799 36.658 22.7299 37.736L21.7639 37.946C21.4979 37.218 20.8679 36.798 19.9299 36.798C19.0059 36.798 18.3759 37.176 18.3759 37.806C18.3759 38.562 19.2019 38.702 20.3079 38.94C21.7219 39.22 22.9259 39.612 22.9259 40.984C22.9259 42.258 21.8339 43.112 20.1539 43.112ZM29.5543 43.098C28.3923 43.098 27.7203 42.524 27.7203 41.096V36.966H26.6003V36.098H27.7343L27.7903 34.292H28.7843V36.098H30.3383V36.966H28.7843V41.152C28.7843 41.88 29.1623 42.202 29.7503 42.216C30.0723 42.216 30.4783 42.174 30.7303 42.132V42.986C30.3523 43.056 29.9323 43.098 29.5543 43.098ZM33.0209 43H31.9289V33.662H32.9789V37.456C33.4269 36.742 34.2669 35.972 35.5549 35.972C36.9549 35.972 37.4589 36.896 37.4589 38.03V43H36.3669V38.114C36.3669 37.274 35.9469 36.882 35.2469 36.882C34.2809 36.882 33.5949 37.456 33.0209 38.282V43ZM42.1765 43.112C40.2865 43.112 39.0125 41.726 39.0125 39.668C39.0125 37.33 40.4265 35.972 42.2045 35.972C44.0105 35.972 45.0605 37.288 45.2005 39.206C45.2145 39.36 45.2005 39.514 45.2145 39.668H40.1185C40.1465 41.404 40.9305 42.286 42.2745 42.286C43.0305 42.286 43.7445 41.95 44.1365 40.928L45.0885 41.068C44.6125 42.398 43.5485 43.112 42.1765 43.112ZM40.1605 38.926H44.1085C43.9965 37.596 43.3105 36.798 42.2045 36.798C41.0985 36.798 40.2445 37.624 40.1605 38.926ZM47.7999 43H46.7219V36.098H47.7719V37.484C48.1779 36.798 49.0879 35.972 50.0819 35.972C51.0899 35.972 51.7339 36.546 51.8179 37.526C52.2939 36.77 53.1059 35.986 54.1979 35.986C54.9119 35.986 55.3879 36.252 55.6679 36.77C55.8779 37.092 56.0179 37.54 56.0179 38.1V43H54.9399V38.17C54.9399 37.274 54.5619 36.896 53.8899 36.896C53.0359 36.896 52.3219 37.596 51.8879 38.282V43H50.8239V38.156C50.8239 37.33 50.4739 36.868 49.8019 36.868C49.0039 36.868 48.4299 37.386 47.7999 38.268V43ZM60.7155 43.112C58.8255 43.112 57.5515 41.726 57.5515 39.668C57.5515 37.33 58.9655 35.972 60.7435 35.972C62.5495 35.972 63.5995 37.288 63.7395 39.206C63.7535 39.36 63.7395 39.514 63.7535 39.668H58.6575C58.6855 41.404 59.4695 42.286 60.8135 42.286C61.5695 42.286 62.2835 41.95 62.6755 40.928L63.6275 41.068C63.1515 42.398 62.0875 43.112 60.7155 43.112ZM58.6995 38.926H62.6475C62.5355 37.596 61.8495 36.798 60.7435 36.798C59.6375 36.798 58.7835 37.624 58.6995 38.926ZM69.6495 34.88H68.4595V33.648H69.6495V34.88ZM69.6075 43H68.5155V36.098H69.6075V43ZM73.9117 43.112C72.1617 43.112 71.0837 42.398 70.7477 41.138L71.7277 40.942C71.9517 41.754 72.7217 42.3 73.9117 42.3C75.0037 42.3 75.6757 41.81 75.6757 41.082C75.6757 40.256 74.7517 40.088 73.7297 39.864C72.3157 39.598 71.1257 39.234 71.1257 37.876C71.1257 36.742 72.1477 35.972 73.6877 35.972C75.2417 35.972 76.1377 36.658 76.4877 37.736L75.5217 37.946C75.2557 37.218 74.6257 36.798 73.6877 36.798C72.7637 36.798 72.1337 37.176 72.1337 37.806C72.1337 38.562 72.9597 38.702 74.0657 38.94C75.4797 39.22 76.6837 39.612 76.6837 40.984C76.6837 42.258 75.5917 43.112 73.9117 43.112ZM83.3121 43.098C82.1501 43.098 81.4781 42.524 81.4781 41.096V36.966H80.3581V36.098H81.4921L81.5481 34.292H82.5421V36.098H84.0961V36.966H82.5421V41.152C82.5421 41.88 82.9201 42.202 83.5081 42.216C83.8301 42.216 84.2361 42.174 84.4881 42.132V42.986C84.1101 43.056 83.6901 43.098 83.3121 43.098ZM86.7787 43H85.6867V33.662H86.7367V37.456C87.1847 36.742 88.0247 35.972 89.3127 35.972C90.7127 35.972 91.2167 36.896 91.2167 38.03V43H90.1247V38.114C90.1247 37.274 89.7047 36.882 89.0047 36.882C88.0387 36.882 87.3527 37.456 86.7787 38.282V43ZM95.9343 43.112C94.0443 43.112 92.7703 41.726 92.7703 39.668C92.7703 37.33 94.1843 35.972 95.9623 35.972C97.7683 35.972 98.8183 37.288 98.9583 39.206C98.9723 39.36 98.9583 39.514 98.9723 39.668H93.8763C93.9043 41.404 94.6883 42.286 96.0323 42.286C96.7883 42.286 97.5023 41.95 97.8943 40.928L98.8463 41.068C98.3703 42.398 97.3063 43.112 95.9343 43.112ZM93.9183 38.926H97.8663C97.7543 37.596 97.0683 36.798 95.9623 36.798C94.8563 36.798 94.0023 37.624 93.9183 38.926ZM105.638 43.098C104.476 43.098 103.804 42.524 103.804 41.096V36.966H102.684V36.098H103.818L103.874 34.292H104.868V36.098H106.422V36.966H104.868V41.152C104.868 41.88 105.246 42.202 105.834 42.216C106.156 42.216 106.562 42.174 106.814 42.132V42.986C106.436 43.056 106.016 43.098 105.638 43.098ZM110.659 43.112C108.769 43.112 107.495 41.726 107.495 39.668C107.495 37.33 108.909 35.972 110.687 35.972C112.493 35.972 113.543 37.288 113.683 39.206C113.697 39.36 113.683 39.514 113.697 39.668H108.601C108.629 41.404 109.413 42.286 110.757 42.286C111.513 42.286 112.227 41.95 112.619 40.928L113.571 41.068C113.095 42.398 112.031 43.112 110.659 43.112ZM108.643 38.926H112.591C112.479 37.596 111.793 36.798 110.687 36.798C109.581 36.798 108.727 37.624 108.643 38.926ZM115.264 43H114.2L116.622 39.388L114.368 36.098H115.6L117.042 38.212L117.224 38.492L117.406 38.212L118.848 36.098H119.898L117.756 39.276L120.318 43H119.114L117.308 40.424L117.154 40.172L117.014 40.424L115.264 43ZM123.289 43.098C122.127 43.098 121.455 42.524 121.455 41.096V36.966H120.335V36.098H121.469L121.525 34.292H122.519V36.098H124.073V36.966H122.519V41.152C122.519 41.88 122.897 42.202 123.485 42.216C123.807 42.216 124.213 42.174 124.465 42.132V42.986C124.087 43.056 123.667 43.098 123.289 43.098ZM130.542 43.084C129.324 43.084 128.344 42.44 128.344 41.18C128.344 39.682 129.716 38.94 131.606 38.716C132.166 38.646 132.628 38.646 133.174 38.632C133.174 38.394 133.174 38.156 133.146 37.988C133.062 37.232 132.614 36.826 131.452 36.826C130.332 36.826 129.744 37.134 129.52 38.016L128.512 37.904C128.764 36.644 129.842 35.972 131.48 35.972C133.44 35.972 134.196 36.784 134.196 38.52V41.656C134.196 42.09 134.238 42.566 134.35 43H133.314C133.23 42.762 133.174 42.188 133.188 41.838C132.642 42.594 131.83 43.084 130.542 43.084ZM130.864 42.286C132.18 42.286 132.88 41.488 133.174 40.774V39.346C132.684 39.346 132.18 39.346 131.746 39.402C130.248 39.598 129.478 40.2 129.478 41.068C129.478 41.866 129.94 42.286 130.864 42.286ZM137.365 43H136.273V36.098H137.309V37.47C137.785 36.784 138.639 35.972 139.871 35.972C141.159 35.972 141.789 36.7 141.789 38.114V43H140.697V38.1C140.697 37.274 140.333 36.882 139.549 36.882C138.667 36.882 137.939 37.442 137.365 38.268V43ZM145.975 43.112C144.309 43.112 143.343 41.824 143.343 39.57C143.343 37.526 144.407 35.972 146.171 35.972C147.221 35.972 147.879 36.574 148.201 37.036V33.662H149.251V43H148.229V41.95C147.683 42.706 146.983 43.112 145.975 43.112ZM146.269 42.286C147.305 42.286 147.893 41.656 148.187 40.886V38.072C147.837 37.414 147.361 36.826 146.339 36.826C145.093 36.826 144.477 37.806 144.477 39.57C144.477 41.488 145.121 42.286 146.269 42.286ZM155.769 34.88H154.579V33.648H155.769V34.88ZM155.727 43H154.635V36.098H155.727V43ZM160.283 43.112C158.589 43.112 157.315 41.824 157.315 39.514C157.315 37.512 158.477 35.972 160.227 35.972C161.697 35.972 162.621 36.77 162.929 38.464L161.907 38.59C161.739 37.456 161.193 36.84 160.241 36.84C159.135 36.84 158.463 37.82 158.463 39.542C158.463 41.446 159.275 42.3 160.311 42.3C161.221 42.3 161.753 41.81 161.963 40.662L162.915 40.76C162.677 42.314 161.655 43.112 160.283 43.112ZM166.93 43.112C165.152 43.112 163.836 41.698 163.836 39.514C163.836 37.358 165.236 35.972 166.93 35.972C168.82 35.972 170.052 37.4 170.052 39.528C170.052 41.698 168.638 43.112 166.93 43.112ZM166.916 42.3C168.05 42.3 168.904 41.376 168.904 39.514C168.904 37.722 168.064 36.826 166.916 36.826C165.824 36.826 164.984 37.75 164.984 39.528C164.984 41.264 165.754 42.3 166.916 42.3ZM172.706 43H171.614V36.098H172.65V37.47C173.126 36.784 173.98 35.972 175.212 35.972C176.5 35.972 177.13 36.7 177.13 38.114V43H176.038V38.1C176.038 37.274 175.674 36.882 174.89 36.882C174.008 36.882 173.28 37.442 172.706 38.268V43ZM184.865 43.112C183.171 43.112 181.897 41.824 181.897 39.514C181.897 37.512 183.059 35.972 184.809 35.972C186.279 35.972 187.203 36.77 187.511 38.464L186.489 38.59C186.321 37.456 185.775 36.84 184.823 36.84C183.717 36.84 183.045 37.82 183.045 39.542C183.045 41.446 183.857 42.3 184.893 42.3C185.803 42.3 186.335 41.81 186.545 40.662L187.497 40.76C187.259 42.314 186.237 43.112 184.865 43.112ZM191.512 43.112C189.734 43.112 188.418 41.698 188.418 39.514C188.418 37.358 189.818 35.972 191.512 35.972C193.402 35.972 194.634 37.4 194.634 39.528C194.634 41.698 193.22 43.112 191.512 43.112ZM191.498 42.3C192.632 42.3 193.486 41.376 193.486 39.514C193.486 37.722 192.646 36.826 191.498 36.826C190.406 36.826 189.566 37.75 189.566 39.528C189.566 41.264 190.336 42.3 191.498 42.3ZM197.316 43H196.224V33.662H197.316V43ZM201.999 43.112C200.221 43.112 198.905 41.698 198.905 39.514C198.905 37.358 200.305 35.972 201.999 35.972C203.889 35.972 205.121 37.4 205.121 39.528C205.121 41.698 203.707 43.112 201.999 43.112ZM201.985 42.3C203.119 42.3 203.973 41.376 203.973 39.514C203.973 37.722 203.133 36.826 201.985 36.826C200.893 36.826 200.053 37.75 200.053 39.528C200.053 41.264 200.823 42.3 201.985 42.3ZM207.775 43H206.683V36.098H207.719V37.582C208.167 36.77 208.979 35.972 209.959 35.972C210.085 35.972 210.169 35.972 210.281 35.986V36.98C210.197 36.966 210.057 36.966 209.973 36.966C209.161 36.966 208.349 37.526 207.775 38.492V43ZM211.98 43H210.454V41.474H211.98V43Z" fill="#595959"/>
<path d="M516.994 72.9249C517.036 73.1979 516.848 73.4529 516.575 73.4943L512.126 74.1698C511.853 74.2113 511.598 74.0236 511.557 73.7506C511.515 73.4775 511.703 73.2226 511.976 73.1812L515.931 72.5807L515.33 68.626C515.289 68.353 515.476 68.0981 515.749 68.0566C516.022 68.0152 516.277 68.2029 516.319 68.4759L516.994 72.9249ZM461.5 32.5L461.5 32L461.664 32L461.796 32.0974L461.5 32.5ZM396.5 32L461.5 32L461.5 33L396.5 33L396.5 32ZM461.796 32.0974L516.796 72.5974L516.204 73.4026L461.203 32.9026L461.796 32.0974Z" fill="black" fill-opacity="0.25"/>
<path d="M5.364 79.16C2.532 79.16 1.284 77.944 0.66 76.328L2.74 75.528C3.172 76.568 3.86 77.192 5.316 77.192C6.372 77.192 7.044 76.76 7.044 76.056C7.044 75.08 5.876 74.856 4.58 74.536C2.932 74.136 1.044 73.576 1.044 71.224C1.044 69.416 2.596 68.136 5.172 68.136C7.428 68.136 8.74 69.128 9.348 70.76L7.124 71.432C6.82 70.552 6.116 70.152 5.14 70.152C4.26 70.152 3.668 70.52 3.668 71.144C3.668 72.088 4.708 72.264 6.18 72.616C7.956 73.032 9.62 73.688 9.62 75.912C9.62 77.8 8.228 79.16 5.364 79.16ZM14.717 79.128C12.333 79.128 10.605 77.56 10.605 75.144C10.605 72.584 12.493 70.92 14.701 70.92C17.181 70.92 18.637 72.552 18.701 75.016C18.701 75.192 18.701 75.32 18.685 75.496H13.197C13.229 76.92 13.965 77.544 14.941 77.544C15.741 77.544 16.253 77.144 16.541 76.36L18.605 76.632C18.077 78.136 16.765 79.128 14.717 79.128ZM13.229 74.2H16.205C16.125 73.128 15.661 72.472 14.733 72.472C13.933 72.472 13.293 73.112 13.229 74.2ZM23.5086 79.144C21.2206 79.144 19.6206 77.624 19.6206 75.016C19.6206 72.76 21.1406 70.92 23.5406 70.92C25.4606 70.92 26.7406 71.944 27.0606 73.896L24.8526 74.104C24.7406 73.192 24.4046 72.568 23.6206 72.568C22.7246 72.568 22.2606 73.416 22.2606 75.032C22.2606 76.792 22.7886 77.56 23.6526 77.56C24.4366 77.56 24.7886 77.032 24.9326 76.136L27.0766 76.328C26.8366 78.136 25.5726 79.144 23.5086 79.144ZM31.9339 79.128C29.5659 79.128 27.9019 77.416 27.9019 75.096C27.9019 72.632 29.6299 70.92 31.9819 70.92C34.4459 70.92 36.0779 72.584 36.0779 75.048C36.0779 77.368 34.4139 79.128 31.9339 79.128ZM32.0139 77.528C32.9259 77.528 33.4219 76.76 33.4219 75.016C33.4219 73.352 32.9739 72.568 31.9979 72.568C31.0539 72.568 30.5419 73.336 30.5419 75.016C30.5419 76.744 31.0219 77.528 32.0139 77.528ZM39.9865 79H37.5065V71.064H39.8905V72.376C40.3545 71.72 41.1065 70.92 42.4505 70.92C44.0825 70.92 44.7385 71.896 44.7385 73.416V79H42.2585V73.496C42.2585 73 42.0025 72.632 41.3945 72.632C40.7385 72.632 40.3065 73.08 39.9865 73.56V79ZM48.9843 79.144C47.2723 79.144 46.1523 77.8 46.1523 75C46.1523 72.472 47.4163 70.92 49.3043 70.92C50.2483 70.92 50.9203 71.336 51.3843 71.88V68.328H53.8483V79H51.4803V77.864C50.8403 78.712 50.1683 79.144 48.9843 79.144ZM50.0243 77.496C50.7283 77.496 51.1283 77.048 51.3843 76.536V73.336C51.1123 72.936 50.7443 72.504 50.0403 72.504C49.1443 72.504 48.7283 73.144 48.7283 75.016C48.7283 76.936 49.2243 77.496 50.0243 77.496ZM57.6609 79.096C56.1889 79.096 55.2129 78.264 55.2129 76.92C55.2129 75.16 56.7969 74.28 59.5649 74.008C59.8689 73.976 60.1889 73.944 60.5249 73.928C60.5249 73.848 60.5089 73.608 60.5089 73.544C60.4609 72.92 60.0929 72.536 59.2289 72.536C58.3009 72.536 57.8529 72.856 57.6929 73.528L55.4209 73.32C55.8049 71.736 57.1329 70.92 59.4689 70.92C62.1409 70.92 62.9089 72.072 62.9089 73.784V77.448C62.9089 77.912 62.9409 78.696 63.0849 79H60.7169C60.6209 78.84 60.5889 78.424 60.5889 77.976C59.9009 78.68 59.0689 79.096 57.6609 79.096ZM58.7809 77.56C59.5969 77.56 60.1889 77.08 60.5249 76.568V75.176C60.2209 75.192 59.9329 75.224 59.6769 75.272C58.4609 75.48 57.7729 75.944 57.7729 76.696C57.7729 77.288 58.1569 77.56 58.7809 77.56ZM67.3158 79H64.8038V71.064H67.1718V72.728C67.5398 71.784 68.4838 70.92 69.6518 70.92C69.8918 70.92 70.0998 70.936 70.2278 70.968V72.968C70.0678 72.936 69.7158 72.92 69.5078 72.92C68.5638 72.92 67.7638 73.4 67.3158 74.248V79ZM71.1214 81.752V79.944C71.2974 79.96 71.4414 79.96 71.5854 79.96C72.8494 79.96 73.4094 79.512 73.4094 78.744C73.4094 78.456 73.3294 78.12 73.1854 77.736L70.5934 71.064H73.2494L74.6094 75.032L74.8814 75.912L75.1534 75.048L76.5134 71.064H78.5294L75.3934 79.624C74.9454 80.856 74.1134 81.768 71.5694 81.768C71.4254 81.768 71.2814 81.752 71.1214 81.752Z" fill="#111111"/>
<path d="M3.314 106V97.656H0.64V96.662L8.172 96.648V100.456C8.62 99.742 9.46 98.972 10.748 98.972C12.148 98.972 12.652 99.896 12.652 101.03V106H11.56V101.114C11.56 100.274 11.14 99.882 10.44 99.882C9.474 99.882 8.788 100.456 8.214 101.282V106H7.122V97.656H4.476V106H3.314ZM15.8917 97.88H14.7017V96.648H15.8917V97.88ZM15.8497 106H14.7577V99.098H15.8497V106ZM20.1539 106.112C18.4039 106.112 17.3259 105.398 16.9899 104.138L17.9699 103.942C18.1939 104.754 18.9639 105.3 20.1539 105.3C21.2459 105.3 21.9179 104.81 21.9179 104.082C21.9179 103.256 20.9939 103.088 19.9719 102.864C18.5579 102.598 17.3679 102.234 17.3679 100.876C17.3679 99.742 18.3899 98.972 19.9299 98.972C21.4839 98.972 22.3799 99.658 22.7299 100.736L21.7639 100.946C21.4979 100.218 20.8679 99.798 19.9299 99.798C19.0059 99.798 18.3759 100.176 18.3759 100.806C18.3759 101.562 19.2019 101.702 20.3079 101.94C21.7219 102.22 22.9259 102.612 22.9259 103.984C22.9259 105.258 21.8339 106.112 20.1539 106.112ZM29.5543 106.098C28.3923 106.098 27.7203 105.524 27.7203 104.096V99.966H26.6003V99.098H27.7343L27.7903 97.292H28.7843V99.098H30.3383V99.966H28.7843V104.152C28.7843 104.88 29.1623 105.202 29.7503 105.216C30.0723 105.216 30.4783 105.174 30.7303 105.132V105.986C30.3523 106.056 29.9323 106.098 29.5543 106.098ZM33.0209 106H31.9289V96.662H32.9789V100.456C33.4269 99.742 34.2669 98.972 35.5549 98.972C36.9549 98.972 37.4589 99.896 37.4589 101.03V106H36.3669V101.114C36.3669 100.274 35.9469 99.882 35.2469 99.882C34.2809 99.882 33.5949 100.456 33.0209 101.282V106ZM42.1765 106.112C40.2865 106.112 39.0125 104.726 39.0125 102.668C39.0125 100.33 40.4265 98.972 42.2045 98.972C44.0105 98.972 45.0605 100.288 45.2005 102.206C45.2145 102.36 45.2005 102.514 45.2145 102.668H40.1185C40.1465 104.404 40.9305 105.286 42.2745 105.286C43.0305 105.286 43.7445 104.95 44.1365 103.928L45.0885 104.068C44.6125 105.398 43.5485 106.112 42.1765 106.112ZM40.1605 101.926H44.1085C43.9965 100.596 43.3105 99.798 42.2045 99.798C41.0985 99.798 40.2445 100.624 40.1605 101.926ZM47.7999 106H46.7219V99.098H47.7719V100.484C48.1779 99.798 49.0879 98.972 50.0819 98.972C51.0899 98.972 51.7339 99.546 51.8179 100.526C52.2939 99.77 53.1059 98.986 54.1979 98.986C54.9119 98.986 55.3879 99.252 55.6679 99.77C55.8779 100.092 56.0179 100.54 56.0179 101.1V106H54.9399V101.17C54.9399 100.274 54.5619 99.896 53.8899 99.896C53.0359 99.896 52.3219 100.596 51.8879 101.282V106H50.8239V101.156C50.8239 100.33 50.4739 99.868 49.8019 99.868C49.0039 99.868 48.4299 100.386 47.7999 101.268V106ZM60.7155 106.112C58.8255 106.112 57.5515 104.726 57.5515 102.668C57.5515 100.33 58.9655 98.972 60.7435 98.972C62.5495 98.972 63.5995 100.288 63.7395 102.206C63.7535 102.36 63.7395 102.514 63.7535 102.668H58.6575C58.6855 104.404 59.4695 105.286 60.8135 105.286C61.5695 105.286 62.2835 104.95 62.6755 103.928L63.6275 104.068C63.1515 105.398 62.0875 106.112 60.7155 106.112ZM58.6995 101.926H62.6475C62.5355 100.596 61.8495 99.798 60.7435 99.798C59.6375 99.798 58.7835 100.624 58.6995 101.926ZM69.6495 97.88H68.4595V96.648H69.6495V97.88ZM69.6075 106H68.5155V99.098H69.6075V106ZM73.9117 106.112C72.1617 106.112 71.0837 105.398 70.7477 104.138L71.7277 103.942C71.9517 104.754 72.7217 105.3 73.9117 105.3C75.0037 105.3 75.6757 104.81 75.6757 104.082C75.6757 103.256 74.7517 103.088 73.7297 102.864C72.3157 102.598 71.1257 102.234 71.1257 100.876C71.1257 99.742 72.1477 98.972 73.6877 98.972C75.2417 98.972 76.1377 99.658 76.4877 100.736L75.5217 100.946C75.2557 100.218 74.6257 99.798 73.6877 99.798C72.7637 99.798 72.1337 100.176 72.1337 100.806C72.1337 101.562 72.9597 101.702 74.0657 101.94C75.4797 102.22 76.6837 102.612 76.6837 103.984C76.6837 105.258 75.5917 106.112 73.9117 106.112ZM83.3121 106.098C82.1501 106.098 81.4781 105.524 81.4781 104.096V99.966H80.3581V99.098H81.4921L81.5481 97.292H82.5421V99.098H84.0961V99.966H82.5421V104.152C82.5421 104.88 82.9201 105.202 83.5081 105.216C83.8301 105.216 84.2361 105.174 84.4881 105.132V105.986C84.1101 106.056 83.6901 106.098 83.3121 106.098ZM86.7787 106H85.6867V96.662H86.7367V100.456C87.1847 99.742 88.0247 98.972 89.3127 98.972C90.7127 98.972 91.2167 99.896 91.2167 101.03V106H90.1247V101.114C90.1247 100.274 89.7047 99.882 89.0047 99.882C88.0387 99.882 87.3527 100.456 86.7787 101.282V106ZM95.9343 106.112C94.0443 106.112 92.7703 104.726 92.7703 102.668C92.7703 100.33 94.1843 98.972 95.9623 98.972C97.7683 98.972 98.8183 100.288 98.9583 102.206C98.9723 102.36 98.9583 102.514 98.9723 102.668H93.8763C93.9043 104.404 94.6883 105.286 96.0323 105.286C96.7883 105.286 97.5023 104.95 97.8943 103.928L98.8463 104.068C98.3703 105.398 97.3063 106.112 95.9343 106.112ZM93.9183 101.926H97.8663C97.7543 100.596 97.0683 99.798 95.9623 99.798C94.8563 99.798 94.0023 100.624 93.9183 101.926ZM108.648 96.648V97.88H107.458V96.648H108.648ZM104.896 99.924V106H103.818V99.924H102.6V99.098H103.818C103.818 99 103.818 98.51 103.818 98.412C103.818 97.054 104.546 96.396 105.988 96.396C106.212 96.396 106.674 96.438 106.94 96.48V97.334C106.646 97.306 106.24 97.278 106.072 97.278C105.218 97.278 104.896 97.684 104.896 98.44C104.896 98.762 104.896 99.056 104.896 99.098H106.688V99.924H104.896ZM108.606 99.098V106H107.514V99.098H108.606ZM111.84 106H110.748V96.662H111.84V106ZM115.08 106H113.988V96.662H115.08V106ZM122.989 106.112C121.211 106.112 119.895 104.698 119.895 102.514C119.895 100.358 121.295 98.972 122.989 98.972C124.879 98.972 126.111 100.4 126.111 102.528C126.111 104.698 124.697 106.112 122.989 106.112ZM122.975 105.3C124.109 105.3 124.963 104.376 124.963 102.514C124.963 100.722 124.123 99.826 122.975 99.826C121.883 99.826 121.043 100.75 121.043 102.528C121.043 104.264 121.813 105.3 122.975 105.3ZM128.863 106H127.785V99.924H126.567V99.098H127.785C127.785 99 127.785 98.51 127.785 98.412C127.785 97.054 128.513 96.396 129.955 96.396C130.221 96.396 130.683 96.438 130.949 96.48V97.348C130.655 97.306 130.221 97.278 130.039 97.278C129.199 97.278 128.863 97.67 128.863 98.44C128.863 98.762 128.863 99.056 128.863 99.098H130.543V99.924H128.863V106ZM136.687 106.098C135.525 106.098 134.853 105.524 134.853 104.096V99.966H133.733V99.098H134.867L134.923 97.292H135.917V99.098H137.471V99.966H135.917V104.152C135.917 104.88 136.295 105.202 136.883 105.216C137.205 105.216 137.611 105.174 137.863 105.132V105.986C137.485 106.056 137.065 106.098 136.687 106.098ZM140.154 106H139.062V96.662H140.112V100.456C140.56 99.742 141.4 98.972 142.688 98.972C144.088 98.972 144.592 99.896 144.592 101.03V106H143.5V101.114C143.5 100.274 143.08 99.882 142.38 99.882C141.414 99.882 140.728 100.456 140.154 101.282V106ZM149.309 106.112C147.419 106.112 146.145 104.726 146.145 102.668C146.145 100.33 147.559 98.972 149.337 98.972C151.143 98.972 152.193 100.288 152.333 102.206C152.347 102.36 152.333 102.514 152.347 102.668H147.251C147.279 104.404 148.063 105.286 149.407 105.286C150.163 105.286 150.877 104.95 151.269 103.928L152.221 104.068C151.745 105.398 150.681 106.112 149.309 106.112ZM147.293 101.926H151.241C151.129 100.596 150.443 99.798 149.337 99.798C148.231 99.798 147.377 100.624 147.293 101.926ZM160.259 106.098C159.223 106.098 158.481 105.636 158.033 104.852L157.683 106H157.081V96.662H158.117V100.414C158.467 99.658 159.349 98.972 160.343 98.972C161.995 98.972 162.961 100.218 162.961 102.528C162.961 104.908 161.827 106.098 160.259 106.098ZM160.049 105.314C161.225 105.314 161.841 104.488 161.841 102.556C161.841 100.75 161.253 99.84 160.091 99.84C159.083 99.84 158.509 100.582 158.131 101.38V103.046C158.131 104.488 158.943 105.314 160.049 105.314ZM166.646 106.112C165.4 106.112 164.518 105.468 164.518 103.732V99.098H165.61V103.76C165.61 104.852 166.016 105.286 166.982 105.286C167.752 105.286 168.424 104.838 168.886 103.998V99.098H169.964V106H168.956V104.824C168.41 105.706 167.57 106.112 166.646 106.112ZM173.984 106.098C172.822 106.098 172.15 105.524 172.15 104.096V99.966H171.03V99.098H172.164L172.22 97.292H173.214V99.098H174.768V99.966H173.214V104.152C173.214 104.88 173.592 105.202 174.18 105.216C174.502 105.216 174.908 105.174 175.16 105.132V105.986C174.782 106.056 174.362 106.098 173.984 106.098ZM178.291 106.098C177.129 106.098 176.457 105.524 176.457 104.096V99.966H175.337V99.098H176.471L176.527 97.292H177.521V99.098H179.075V99.966H177.521V104.152C177.521 104.88 177.899 105.202 178.487 105.216C178.809 105.216 179.215 105.174 179.467 105.132V105.986C179.089 106.056 178.669 106.098 178.291 106.098ZM183.227 106.112C181.449 106.112 180.133 104.698 180.133 102.514C180.133 100.358 181.533 98.972 183.227 98.972C185.117 98.972 186.349 100.4 186.349 102.528C186.349 104.698 184.935 106.112 183.227 106.112ZM183.213 105.3C184.347 105.3 185.201 104.376 185.201 102.514C185.201 100.722 184.361 99.826 183.213 99.826C182.121 99.826 181.281 100.75 181.281 102.528C181.281 104.264 182.051 105.3 183.213 105.3ZM189.003 106H187.911V99.098H188.947V100.47C189.423 99.784 190.277 98.972 191.509 98.972C192.797 98.972 193.427 99.7 193.427 101.114V106H192.335V101.1C192.335 100.274 191.971 99.882 191.187 99.882C190.305 99.882 189.577 100.442 189.003 101.268V106ZM196.941 106H195.415V104.474H196.941V106Z" fill="#595959"/>
<path d="M484.012 91.0001C484.288 91.0068 484.507 91.236 484.5 91.512L484.391 96.0107C484.385 96.2868 484.155 96.5052 483.879 96.4985C483.603 96.4919 483.385 96.2627 483.392 95.9866L483.488 91.9878L479.489 91.8912C479.213 91.8845 478.995 91.6553 479.001 91.3793C479.008 91.1032 479.237 90.8848 479.513 90.8915L484.012 91.0001ZM473.5 101.505L473.845 101.867L473.7 102.005L473.5 102.005L473.5 101.505ZM218.5 101.005L473.5 101.005L473.5 102.005L218.5 102.005L218.5 101.005ZM473.155 101.143L483.655 91.138L484.345 91.862L473.845 101.867L473.155 101.143Z" fill="black" fill-opacity="0.25"/>
<line x1="338.5" y1="32.5" x2="218.5" y2="32.5" stroke="black" stroke-opacity="0.25"/>
<g clip-path="url(#clip1_2862_30298)">
<path d="M336.52 11.3612L331.757 8.61143L336.52 5.8616L335.654 5.36164L330.891 8.11146L326.127 5.36164L325.261 5.8616L330.025 8.61143L325.261 11.3612L326.127 11.8612L330.891 9.11139L335.654 11.8612L336.52 11.3612Z" fill="#111111"/>
</g>
<path d="M344.531 22.4853L342.342 21.2214L349.838 16.8937L347.441 15.5098L349.187 14.5018L356.143 18.5176L354.397 19.5255L352.028 18.1576L344.531 22.4853ZM350.021 25.7825C347.956 24.5906 347.818 22.9427 349.91 21.7347C352.127 20.4548 355.203 20.5668 357.115 21.6707C359.263 22.9107 359.111 24.4546 357.032 25.7185C356.88 25.8065 356.769 25.8705 356.603 25.9505L351.85 23.2066C350.644 23.9346 350.741 24.6146 351.587 25.1025C352.279 25.5025 353.069 25.5585 353.998 25.3105L355.55 26.4784C353.79 26.9664 351.794 26.8064 350.021 25.7825ZM353 22.5747L355.577 24.0626C356.436 23.4866 356.603 22.9267 355.799 22.4627C355.106 22.0627 353.998 22.0627 353 22.5747ZM355.7 28.9333L353.816 27.8453L359.677 27.2294L360.855 23.9736L363.224 25.3415L362.753 26.7014L362.629 26.9974L363.155 26.9334L365.497 26.6534L367.381 27.7414L362.158 28.3093L360.855 31.9091L358.485 30.5412L359.067 28.8773L359.206 28.5413L358.596 28.6053L355.7 28.9333ZM364.328 34.0263C362.763 33.1224 362.666 32.2184 364.121 31.3785L367.446 29.4586L366.352 28.8267L367.807 27.9867L368.915 28.6267L371.16 27.4907L373.1 28.6107L370.994 29.8266L372.407 30.6425L370.952 31.4825L369.539 30.6665L366.559 32.3864C366.019 32.6984 365.936 33.0024 366.379 33.3384C366.615 33.5064 366.878 33.6583 367.197 33.8103L365.659 34.6983C365.285 34.5303 364.758 34.2743 364.328 34.0263ZM374.098 39.6663C372.976 39.0184 372.768 38.4184 372.934 37.7145L371.618 38.1224L370.315 37.3705L379.558 32.0348L381.678 33.2587L378.255 35.2346C379.239 35.1146 380.458 35.1466 381.525 35.7626C383.105 36.6745 382.759 37.8664 380.417 39.2184C378.061 40.5783 375.733 40.6103 374.098 39.6663ZM374.819 38.5624C375.664 39.0504 376.578 38.8744 378.13 37.9784C379.585 37.1385 379.973 36.5625 379.17 36.0986C378.546 35.7386 377.784 35.7786 377.077 35.9306L375.151 37.0425C374.154 37.6185 374.098 38.1464 374.819 38.5624ZM380.102 43.1484C378.924 42.4685 378.758 41.6045 380.282 40.7246L385.077 37.9567L387.238 39.2047L382.555 41.9085C381.903 42.2845 381.931 42.5884 382.499 42.9164C383.012 43.2124 383.733 43.2284 384.411 43.0924L389.192 40.3326L391.354 41.5805L384.481 45.5483L382.402 44.3483L383.4 43.7884C382.194 43.9404 381.086 43.7164 380.102 43.1484ZM388.781 48.1426C387.215 47.2386 387.118 46.3347 388.573 45.4948L391.898 43.5749L390.804 42.9429L392.259 42.103L393.367 42.7429L395.612 41.607L397.552 42.7269L395.446 43.9429L396.859 44.7588L395.404 45.5988L393.991 44.7828L391.012 46.5027C390.471 46.8147 390.388 47.1187 390.831 47.4546C391.067 47.6226 391.33 47.7746 391.649 47.9266L390.111 48.8145C389.737 48.6466 389.21 48.3906 388.781 48.1426ZM393.774 51.0252C392.208 50.1213 392.111 49.2173 393.566 48.3774L396.892 46.4575L395.797 45.8255L397.252 44.9856L398.361 45.6256L400.605 44.4896L402.545 45.6096L400.439 46.8255L401.852 47.6414L400.397 48.4814L398.984 47.6654L396.005 49.3853C395.464 49.6973 395.381 50.0013 395.825 50.3373C396.06 50.5052 396.324 50.6572 396.642 50.8092L395.104 51.6972C394.73 51.5292 394.204 51.2732 393.774 51.0252ZM399.086 54.1078C397.035 52.9239 397.077 51.236 399.086 50.0761C401.22 48.8442 404.199 48.8522 406.236 50.0281C408.37 51.26 408.342 52.9079 406.208 54.1398C404.199 55.2997 401.234 55.3477 399.086 54.1078ZM400.541 53.3479C401.331 53.8038 402.425 53.6679 403.936 52.7959C405.377 51.964 405.668 51.348 404.823 50.86C404.005 50.3881 402.897 50.5161 401.442 51.356C399.945 52.2199 399.682 52.8519 400.541 53.3479ZM406.171 58.0699L404.023 56.83L410.896 52.8622L412.961 54.0541L411.824 54.7101C412.794 54.6141 414.138 54.5901 415.302 55.2621C416.716 56.078 416.439 56.894 415.122 57.6539L410.286 60.4457L408.138 59.2058L412.905 56.454C413.335 56.206 413.432 55.894 412.905 55.59C412.337 55.2621 411.575 55.2701 410.882 55.3501L406.171 58.0699Z" fill="#111111"/>
<path d="M310.289 69.7878C317.86 65.4168 330.136 65.4168 337.707 69.7878L407.711 110.201C415.282 114.572 415.282 121.658 407.711 126.029C400.139 130.4 387.864 130.4 380.293 126.029L310.289 85.6163C302.718 81.2454 302.718 74.1587 310.289 69.7878Z" fill="white"/>
<path d="M310.289 69.7878C317.86 65.4168 330.136 65.4168 337.707 69.7878L407.711 110.201C415.282 114.572 415.282 121.658 407.711 126.029C400.139 130.4 387.864 130.4 380.293 126.029L310.289 85.6163C302.718 81.2454 302.718 74.1587 310.289 69.7878Z" stroke="#D4D4D4"/>
<defs>
<clipPath id="clip0_2862_30298">
<rect width="16" height="16" fill="white" transform="translate(494.5 70)"/>
</clipPath>
<clipPath id="clip1_2862_30298">
<rect width="16" height="16" fill="white" transform="matrix(0.866044 0.499967 -0.866044 0.499967 330.891 0.611816)"/>
</clipPath>
</defs>
</svg>
