<svg width="458" height="208" viewBox="0 0 458 208" fill="none" xmlns="http://www.w3.org/2000/svg">
<path d="M203.54 16.176C200.836 16.176 199.172 14.256 199.172 10.688C199.172 7.232 200.836 5.12 203.796 5.12C205.78 5.12 207.06 6.16 207.636 8.224L206.34 8.544C206.004 7.216 205.076 6.272 203.7 6.272C201.652 6.272 200.596 7.904 200.596 10.64C200.596 13.664 201.764 15.104 203.636 15.104C205.236 15.104 206.388 14.048 206.388 12.416C206.388 12.16 206.372 11.936 206.372 11.936H203.732V10.848H207.732V16.016H206.916L206.564 14.816C205.844 15.776 204.916 16.176 203.54 16.176ZM211.151 16H209.903V8.112H211.087V9.808C211.599 8.88 212.527 7.968 213.647 7.968C213.791 7.968 213.887 7.968 214.015 7.984V9.12C213.919 9.104 213.759 9.104 213.663 9.104C212.735 9.104 211.807 9.744 211.151 10.848V16ZM217.151 16.096C215.759 16.096 214.639 15.36 214.639 13.92C214.639 12.208 216.207 11.36 218.367 11.104C219.007 11.024 219.535 11.024 220.159 11.008C220.159 10.736 220.159 10.464 220.127 10.272C220.031 9.408 219.519 8.944 218.191 8.944C216.911 8.944 216.239 9.296 215.983 10.304L214.831 10.176C215.118 8.736 216.351 7.968 218.223 7.968C220.463 7.968 221.327 8.896 221.327 10.88V14.464C221.327 14.96 221.375 15.504 221.503 16H220.319C220.223 15.728 220.159 15.072 220.175 14.672C219.551 15.536 218.623 16.096 217.151 16.096ZM217.519 15.184C219.023 15.184 219.823 14.272 220.159 13.456V11.824C219.599 11.824 219.023 11.824 218.527 11.888C216.815 12.112 215.935 12.8 215.935 13.792C215.935 14.704 216.463 15.184 217.519 15.184ZM222.982 18.768L222.95 17.76C224.71 17.76 225.718 16.608 225.046 14.848L222.454 8.112H223.798L225.75 13.264L226.07 14.272L226.39 13.264L228.214 8.112H229.318L226.31 16.56C225.83 17.952 224.918 18.768 222.982 18.768ZM240.136 16H234.104V14.944H236.504V7.104C236.12 7.552 235.736 8.24 234.216 9.104V7.728C235.384 7.088 236.136 6.256 236.824 5.12H237.784V14.944H240.136V16ZM245.407 16.192C242.847 16.192 241.343 14.016 241.343 10.672C241.343 7.28 242.831 5.136 245.391 5.136C247.855 5.136 249.391 7.296 249.391 10.72C249.391 14.032 247.855 16.192 245.407 16.192ZM245.407 15.152C247.071 15.152 248.047 13.584 248.047 10.688C248.047 7.872 247.119 6.208 245.391 6.208C243.551 6.208 242.687 7.728 242.687 10.672C242.687 13.488 243.695 15.152 245.407 15.152ZM254.735 16.192C252.175 16.192 250.671 14.016 250.671 10.672C250.671 7.28 252.159 5.136 254.719 5.136C257.183 5.136 258.719 7.296 258.719 10.72C258.719 14.032 257.183 16.192 254.735 16.192ZM254.735 15.152C256.399 15.152 257.375 13.584 257.375 10.688C257.375 7.872 256.447 6.208 254.719 6.208C252.879 6.208 252.015 7.728 252.015 10.672C252.015 13.488 253.023 15.152 254.735 15.152Z" fill="black"/>
<g clip-path="url(#clip0_2805_5870)">
<rect x="179" y="27.9993" width="100" height="100" fill="white"/>
<path d="M279 28V128H179L279 28Z" fill="#737373"/>
</g>
<path d="M183.944 152.176C181.384 152.176 179.672 150.208 179.672 146.736C179.672 143.104 181.592 141.12 184.008 141.12C186.04 141.12 187.432 142.192 187.944 144.544L186.664 144.816C186.248 143.008 185.384 142.304 184.024 142.304C182.264 142.304 181.096 143.84 181.096 146.736C181.096 149.632 182.328 151.088 183.992 151.088C185.512 151.088 186.376 150.112 186.696 148.432L187.912 148.672C187.4 151.072 186.024 152.176 183.944 152.176ZM192.394 152.128C190.362 152.128 188.858 150.512 188.858 148.016C188.858 145.552 190.458 143.968 192.394 143.968C194.554 143.968 195.962 145.6 195.962 148.032C195.962 150.512 194.346 152.128 192.394 152.128ZM192.378 151.2C193.674 151.2 194.65 150.144 194.65 148.016C194.65 145.968 193.69 144.944 192.378 144.944C191.13 144.944 190.17 146 190.17 148.032C190.17 150.016 191.05 151.2 192.378 151.2ZM198.995 152H197.747V144.112H198.931V145.68C199.475 144.896 200.451 143.968 201.859 143.968C203.331 143.968 204.051 144.8 204.051 146.416V152H202.803V146.4C202.803 145.456 202.387 145.008 201.491 145.008C200.483 145.008 199.651 145.648 198.995 146.592V152ZM208.627 152.112C207.299 152.112 206.531 151.456 206.531 149.824V145.104H205.251V144.112H206.547L206.611 142.048H207.747V144.112H209.523V145.104H207.747V149.888C207.747 150.72 208.179 151.088 208.851 151.104C209.219 151.104 209.683 151.056 209.971 151.008V151.984C209.539 152.064 209.059 152.112 208.627 152.112ZM212.589 152H211.341V144.112H212.525V145.808C213.037 144.88 213.965 143.968 215.085 143.968C215.229 143.968 215.325 143.968 215.453 143.984V145.12C215.357 145.104 215.197 145.104 215.101 145.104C214.173 145.104 213.245 145.744 212.589 146.848V152ZM218.588 152.096C217.196 152.096 216.076 151.36 216.076 149.92C216.076 148.208 217.644 147.36 219.804 147.104C220.444 147.024 220.972 147.024 221.596 147.008C221.596 146.736 221.596 146.464 221.564 146.272C221.468 145.408 220.956 144.944 219.628 144.944C218.348 144.944 217.676 145.296 217.42 146.304L216.268 146.176C216.556 144.736 217.788 143.968 219.66 143.968C221.9 143.968 222.764 144.896 222.764 146.88V150.464C222.764 150.96 222.812 151.504 222.94 152H221.756C221.66 151.728 221.596 151.072 221.612 150.672C220.988 151.536 220.06 152.096 218.588 152.096ZM218.956 151.184C220.46 151.184 221.26 150.272 221.596 149.456V147.824C221.036 147.824 220.46 147.824 219.964 147.888C218.252 148.112 217.372 148.8 217.372 149.792C217.372 150.704 217.9 151.184 218.956 151.184ZM227.634 152.128C225.634 152.128 224.402 151.312 224.018 149.872L225.138 149.648C225.394 150.576 226.274 151.2 227.634 151.2C228.882 151.2 229.65 150.64 229.65 149.808C229.65 148.864 228.594 148.672 227.426 148.416C225.81 148.112 224.45 147.696 224.45 146.144C224.45 144.848 225.618 143.968 227.378 143.968C229.154 143.968 230.178 144.752 230.578 145.984L229.474 146.224C229.17 145.392 228.45 144.912 227.378 144.912C226.322 144.912 225.602 145.344 225.602 146.064C225.602 146.928 226.546 147.088 227.81 147.36C229.426 147.68 230.802 148.128 230.802 149.696C230.802 151.152 229.554 152.128 227.634 152.128ZM234.689 152.112C233.361 152.112 232.593 151.456 232.593 149.824V145.104H231.313V144.112H232.609L232.673 142.048H233.809V144.112H235.585V145.104H233.809V149.888C233.809 150.72 234.241 151.088 234.913 151.104C235.281 151.104 235.745 151.056 236.033 151.008V151.984C235.601 152.064 235.121 152.112 234.689 152.112ZM242.339 152H241.091V144.112H242.275V145.808C242.787 144.88 243.715 143.968 244.835 143.968C244.979 143.968 245.075 143.968 245.203 143.984V145.12C245.107 145.104 244.947 145.104 244.851 145.104C243.923 145.104 242.995 145.744 242.339 146.848V152ZM248.338 152.096C246.946 152.096 245.826 151.36 245.826 149.92C245.826 148.208 247.394 147.36 249.554 147.104C250.194 147.024 250.722 147.024 251.346 147.008C251.346 146.736 251.346 146.464 251.314 146.272C251.218 145.408 250.706 144.944 249.378 144.944C248.098 144.944 247.426 145.296 247.17 146.304L246.018 146.176C246.306 144.736 247.538 143.968 249.41 143.968C251.65 143.968 252.514 144.896 252.514 146.88V150.464C252.514 150.96 252.562 151.504 252.69 152H251.506C251.41 151.728 251.346 151.072 251.362 150.672C250.738 151.536 249.81 152.096 248.338 152.096ZM248.706 151.184C250.21 151.184 251.01 150.272 251.346 149.456V147.824C250.786 147.824 250.21 147.824 249.714 147.888C248.002 148.112 247.122 148.8 247.122 149.792C247.122 150.704 247.65 151.184 248.706 151.184ZM257.096 152.112C255.768 152.112 255 151.456 255 149.824V145.104H253.72V144.112H255.016L255.08 142.048H256.216V144.112H257.992V145.104H256.216V149.888C256.216 150.72 256.648 151.088 257.32 151.104C257.688 151.104 258.152 151.056 258.44 151.008V151.984C258.008 152.064 257.528 152.112 257.096 152.112ZM261.137 142.72H259.777V141.312H261.137V142.72ZM261.089 152H259.841V144.112H261.089V152ZM266.441 152.128C264.409 152.128 262.905 150.512 262.905 148.016C262.905 145.552 264.505 143.968 266.441 143.968C268.601 143.968 270.009 145.6 270.009 148.032C270.009 150.512 268.393 152.128 266.441 152.128ZM266.424 151.2C267.721 151.2 268.697 150.144 268.697 148.016C268.697 145.968 267.737 144.944 266.424 144.944C265.177 144.944 264.217 146 264.217 148.032C264.217 150.016 265.097 151.2 266.424 151.2ZM274.786 145.12L273.394 147.648L272.338 146.88L274.306 144.752L271.458 144.208L271.874 142.976L274.482 144.192L274.098 141.328H275.474L275.09 144.192L277.682 142.976L278.098 144.208L275.266 144.752L277.218 146.88L276.194 147.648L274.786 145.12Z" fill="#595959"/>
<path d="M213.92 179H212.516V176.192H206.522V175.04L212.336 166.76H213.92V174.95H215.846V176.192H213.92V179ZM212.516 168.398L207.854 174.95H212.516V168.398ZM219.698 179H217.736V177.038H219.698V179ZM229 166.994V167.984C225.76 171.89 224.698 175.796 224.698 178.55C224.698 178.73 224.698 178.928 224.716 179H223.006C223.006 178.874 223.006 178.748 223.024 178.604C223.15 175.994 224.698 171.674 227.524 168.29H220.918L221.08 166.994H229ZM236.033 179H234.629V176.192H228.635V175.04L234.449 166.76H236.033V174.95H237.959V176.192H236.033V179ZM234.629 168.398L229.967 174.95H234.629V168.398ZM241.811 172.088H239.849V170.126H241.811V172.088ZM241.811 179H239.849V177.02H241.811V179ZM251.118 179H244.332V177.812H247.032V168.992C246.6 169.496 246.168 170.27 244.458 171.242V169.694C245.772 168.974 246.618 168.038 247.392 166.76H248.472V177.812H251.118V179Z" fill="black"/>
<path d="M3.668 197.98L2.45 200.192L1.526 199.52L3.248 197.658L0.756 197.182L1.12 196.104L3.402 197.168L3.066 194.662H4.27L3.934 197.168L6.202 196.104L6.566 197.182L4.088 197.658L5.796 199.52L4.9 200.192L3.668 197.98ZM9.86869 204V195.656H7.19469V194.662L14.7267 194.648V198.456C15.1747 197.742 16.0147 196.972 17.3027 196.972C18.7027 196.972 19.2067 197.896 19.2067 199.03V204H18.1147V199.114C18.1147 198.274 17.6947 197.882 16.9947 197.882C16.0287 197.882 15.3427 198.456 14.7687 199.282V204H13.6767V195.656H11.0307V204H9.86869ZM23.9304 204.112C22.0404 204.112 20.7664 202.726 20.7664 200.668C20.7664 198.33 22.1804 196.972 23.9584 196.972C25.7644 196.972 26.8144 198.288 26.9544 200.206C26.9684 200.36 26.9544 200.514 26.9684 200.668H21.8724C21.9004 202.404 22.6844 203.286 24.0284 203.286C24.7844 203.286 25.4984 202.95 25.8904 201.928L26.8424 202.068C26.3664 203.398 25.3024 204.112 23.9304 204.112ZM21.9144 199.926H25.8624C25.7504 198.596 25.0644 197.798 23.9584 197.798C22.8524 197.798 21.9984 198.624 21.9144 199.926ZM32.7943 204H31.7023V197.098H32.7383V198.47C33.2143 197.784 34.0683 196.972 35.3003 196.972C36.5883 196.972 37.2183 197.7 37.2183 199.114V204H36.1263V199.1C36.1263 198.274 35.7623 197.882 34.9783 197.882C34.0963 197.882 33.3683 198.442 32.7943 199.268V204ZM41.3902 204.112C40.1442 204.112 39.2622 203.468 39.2622 201.732V197.098H40.3542V201.76C40.3542 202.852 40.7602 203.286 41.7262 203.286C42.4962 203.286 43.1682 202.838 43.6302 201.998V197.098H44.7082V204H43.7002V202.824C43.1542 203.706 42.3142 204.112 41.3902 204.112ZM47.8741 204H46.7961V197.098H47.8461V198.484C48.2521 197.798 49.1621 196.972 50.1561 196.972C51.1641 196.972 51.8081 197.546 51.8921 198.526C52.3681 197.77 53.1801 196.986 54.2721 196.986C54.9861 196.986 55.4621 197.252 55.7421 197.77C55.9521 198.092 56.0921 198.54 56.0921 199.1V204H55.0141V199.17C55.0141 198.274 54.6361 197.896 53.9641 197.896C53.1101 197.896 52.3961 198.596 51.9621 199.282V204H50.8981V199.156C50.8981 198.33 50.5481 197.868 49.8761 197.868C49.0781 197.868 48.5041 198.386 47.8741 199.268V204ZM61.3218 204.098C60.2858 204.098 59.5438 203.636 59.0958 202.852L58.7458 204H58.1438V194.662H59.1798V198.414C59.5298 197.658 60.4118 196.972 61.4058 196.972C63.0578 196.972 64.0238 198.218 64.0238 200.528C64.0238 202.908 62.8898 204.098 61.3218 204.098ZM61.1118 203.314C62.2878 203.314 62.9038 202.488 62.9038 200.556C62.9038 198.75 62.3158 197.84 61.1538 197.84C60.1458 197.84 59.5718 198.582 59.1938 199.38V201.046C59.1938 202.488 60.0058 203.314 61.1118 203.314ZM68.2546 204.112C66.3646 204.112 65.0906 202.726 65.0906 200.668C65.0906 198.33 66.5046 196.972 68.2826 196.972C70.0886 196.972 71.1386 198.288 71.2786 200.206C71.2926 200.36 71.2786 200.514 71.2926 200.668H66.1966C66.2246 202.404 67.0086 203.286 68.3526 203.286C69.1086 203.286 69.8226 202.95 70.2146 201.928L71.1666 202.068C70.6906 203.398 69.6266 204.112 68.2546 204.112ZM66.2386 199.926H70.1866C70.0746 198.596 69.3886 197.798 68.2826 197.798C67.1766 197.798 66.3226 198.624 66.2386 199.926ZM73.892 204H72.8V197.098H73.836V198.582C74.284 197.77 75.096 196.972 76.076 196.972C76.202 196.972 76.286 196.972 76.398 196.986V197.98C76.314 197.966 76.174 197.966 76.09 197.966C75.278 197.966 74.466 198.526 73.892 199.492V204ZM81.808 204H80.716V197.098H81.752V198.582C82.2 197.77 83.012 196.972 83.992 196.972C84.118 196.972 84.202 196.972 84.314 196.986V197.98C84.23 197.966 84.09 197.966 84.006 197.966C83.194 197.966 82.382 198.526 81.808 199.492V204ZM87.9147 204.112C86.0248 204.112 84.7508 202.726 84.7508 200.668C84.7508 198.33 86.1648 196.972 87.9428 196.972C89.7488 196.972 90.7988 198.288 90.9388 200.206C90.9528 200.36 90.9388 200.514 90.9528 200.668H85.8568C85.8848 202.404 86.6688 203.286 88.0128 203.286C88.7688 203.286 89.4828 202.95 89.8748 201.928L90.8268 202.068C90.3508 203.398 89.2868 204.112 87.9147 204.112ZM85.8988 199.926H89.8468C89.7348 198.596 89.0488 197.798 87.9428 197.798C86.8368 197.798 85.9828 198.624 85.8988 199.926ZM93.6502 197.924V204H92.5722V197.924H91.3542V197.098H92.5722C92.5722 197 92.5722 196.51 92.5722 196.412C92.5722 195.054 93.3002 194.41 94.7422 194.41C94.9662 194.41 95.4282 194.452 95.6942 194.494V195.348C95.4002 195.306 94.9942 195.292 94.8262 195.292C93.9722 195.292 93.6502 195.684 93.6502 196.44C93.6502 196.734 93.6502 197.056 93.6502 197.098H95.4422V197.924H93.6502ZM97.3602 194.662V204H96.2682V194.662H97.3602ZM102.12 204.112C100.23 204.112 98.9558 202.726 98.9558 200.668C98.9558 198.33 100.37 196.972 102.148 196.972C103.954 196.972 105.004 198.288 105.144 200.206C105.158 200.36 105.144 200.514 105.158 200.668H100.062C100.09 202.404 100.874 203.286 102.218 203.286C102.974 203.286 103.688 202.95 104.08 201.928L105.032 202.068C104.556 203.398 103.492 204.112 102.12 204.112ZM100.104 199.926H104.052C103.94 198.596 103.254 197.798 102.148 197.798C101.042 197.798 100.188 198.624 100.104 199.926ZM109.101 204.112C107.407 204.112 106.133 202.824 106.133 200.514C106.133 198.512 107.295 196.972 109.045 196.972C110.515 196.972 111.439 197.77 111.747 199.464L110.725 199.59C110.557 198.456 110.011 197.84 109.059 197.84C107.953 197.84 107.281 198.82 107.281 200.542C107.281 202.446 108.093 203.3 109.129 203.3C110.039 203.3 110.571 202.81 110.781 201.662L111.733 201.76C111.495 203.314 110.473 204.112 109.101 204.112ZM115.119 204.098C113.957 204.098 113.285 203.524 113.285 202.096V197.966H112.165V197.098H113.299L113.355 195.292H114.349V197.098H115.903V197.966H114.349V202.152C114.349 202.88 114.727 203.202 115.315 203.216C115.637 203.216 116.043 203.174 116.295 203.132V203.986C115.917 204.056 115.497 204.098 115.119 204.098ZM119.677 204.112C117.927 204.112 116.849 203.398 116.513 202.138L117.493 201.942C117.717 202.754 118.487 203.3 119.677 203.3C120.769 203.3 121.441 202.81 121.441 202.082C121.441 201.256 120.517 201.088 119.495 200.864C118.081 200.598 116.891 200.234 116.891 198.876C116.891 197.742 117.913 196.972 119.453 196.972C121.007 196.972 121.903 197.658 122.253 198.736L121.287 198.946C121.021 198.218 120.391 197.798 119.453 197.798C118.529 197.798 117.899 198.176 117.899 198.806C117.899 199.562 118.725 199.702 119.831 199.94C121.245 200.22 122.449 200.612 122.449 201.984C122.449 203.258 121.357 204.112 119.677 204.112ZM129.078 204.098C127.916 204.098 127.244 203.524 127.244 202.096V197.966H126.124V197.098H127.258L127.314 195.292H128.308V197.098H129.862V197.966H128.308V202.152C128.308 202.88 128.686 203.202 129.274 203.216C129.596 203.216 130.002 203.174 130.254 203.132V203.986C129.876 204.056 129.456 204.098 129.078 204.098ZM132.544 204H131.452V194.662H132.502V198.456C132.95 197.742 133.79 196.972 135.078 196.972C136.478 196.972 136.982 197.896 136.982 199.03V204H135.89V199.114C135.89 198.274 135.47 197.882 134.77 197.882C133.804 197.882 133.118 198.456 132.544 199.282V204ZM141.7 204.112C139.81 204.112 138.536 202.726 138.536 200.668C138.536 198.33 139.95 196.972 141.728 196.972C143.534 196.972 144.584 198.288 144.724 200.206C144.738 200.36 144.724 200.514 144.738 200.668H139.642C139.67 202.404 140.454 203.286 141.798 203.286C142.554 203.286 143.268 202.95 143.66 201.928L144.612 202.068C144.136 203.398 143.072 204.112 141.7 204.112ZM139.684 199.926H143.632C143.52 198.596 142.834 197.798 141.728 197.798C140.622 197.798 139.768 198.624 139.684 199.926ZM151.908 204.112C150.214 204.112 148.94 202.824 148.94 200.514C148.94 198.512 150.102 196.972 151.852 196.972C153.322 196.972 154.246 197.77 154.554 199.464L153.532 199.59C153.364 198.456 152.818 197.84 151.866 197.84C150.76 197.84 150.088 198.82 150.088 200.542C150.088 202.446 150.9 203.3 151.936 203.3C152.846 203.3 153.378 202.81 153.588 201.662L154.54 201.76C154.302 203.314 153.28 204.112 151.908 204.112ZM158.555 204.112C156.777 204.112 155.461 202.698 155.461 200.514C155.461 198.358 156.861 196.972 158.555 196.972C160.445 196.972 161.677 198.4 161.677 200.528C161.677 202.698 160.263 204.112 158.555 204.112ZM158.541 203.3C159.675 203.3 160.529 202.376 160.529 200.514C160.529 198.722 159.689 197.826 158.541 197.826C157.449 197.826 156.609 198.75 156.609 200.528C156.609 202.264 157.379 203.3 158.541 203.3ZM164.331 204H163.239V197.098H164.275V198.47C164.751 197.784 165.605 196.972 166.837 196.972C168.125 196.972 168.755 197.7 168.755 199.114V204H167.663V199.1C167.663 198.274 167.299 197.882 166.515 197.882C165.633 197.882 164.905 198.442 164.331 199.268V204ZM172.759 204.098C171.597 204.098 170.925 203.524 170.925 202.096V197.966H169.805V197.098H170.939L170.995 195.292H171.989V197.098H173.543V197.966H171.989V202.152C171.989 202.88 172.367 203.202 172.955 203.216C173.277 203.216 173.683 203.174 173.935 203.132V203.986C173.557 204.056 173.137 204.098 172.759 204.098ZM176.226 204H175.134V197.098H176.17V198.582C176.618 197.77 177.43 196.972 178.41 196.972C178.536 196.972 178.62 196.972 178.732 196.986V197.98C178.648 197.966 178.508 197.966 178.424 197.966C177.612 197.966 176.8 198.526 176.226 199.492V204ZM181.475 204.084C180.257 204.084 179.277 203.44 179.277 202.18C179.277 200.682 180.649 199.94 182.539 199.716C183.099 199.646 183.561 199.646 184.107 199.632C184.107 199.394 184.107 199.156 184.079 198.988C183.995 198.232 183.547 197.826 182.385 197.826C181.265 197.826 180.677 198.134 180.453 199.016L179.445 198.904C179.697 197.644 180.775 196.972 182.413 196.972C184.373 196.972 185.129 197.784 185.129 199.52V202.656C185.129 203.09 185.171 203.566 185.283 204H184.247C184.163 203.762 184.107 203.188 184.121 202.838C183.575 203.594 182.763 204.084 181.475 204.084ZM181.797 203.286C183.113 203.286 183.813 202.488 184.107 201.774V200.346C183.617 200.346 183.113 200.346 182.679 200.402C181.181 200.598 180.411 201.2 180.411 202.068C180.411 202.866 180.873 203.286 181.797 203.286ZM189.39 204.112C187.64 204.112 186.562 203.398 186.226 202.138L187.206 201.942C187.43 202.754 188.2 203.3 189.39 203.3C190.482 203.3 191.154 202.81 191.154 202.082C191.154 201.256 190.23 201.088 189.208 200.864C187.794 200.598 186.604 200.234 186.604 198.876C186.604 197.742 187.626 196.972 189.166 196.972C190.72 196.972 191.616 197.658 191.966 198.736L191 198.946C190.734 198.218 190.104 197.798 189.166 197.798C188.242 197.798 187.612 198.176 187.612 198.806C187.612 199.562 188.438 199.702 189.544 199.94C190.958 200.22 192.162 200.612 192.162 201.984C192.162 203.258 191.07 204.112 189.39 204.112ZM195.564 204.098C194.402 204.098 193.73 203.524 193.73 202.096V197.966H192.61V197.098H193.744L193.8 195.292H194.794V197.098H196.348V197.966H194.794V202.152C194.794 202.88 195.172 203.202 195.76 203.216C196.082 203.216 196.488 203.174 196.74 203.132V203.986C196.362 204.056 195.942 204.098 195.564 204.098ZM202.257 204H201.165V197.098H202.201V198.582C202.649 197.77 203.461 196.972 204.441 196.972C204.567 196.972 204.651 196.972 204.763 196.986V197.98C204.679 197.966 204.539 197.966 204.455 197.966C203.643 197.966 202.831 198.526 202.257 199.492V204ZM207.507 204.084C206.289 204.084 205.309 203.44 205.309 202.18C205.309 200.682 206.681 199.94 208.571 199.716C209.131 199.646 209.593 199.646 210.139 199.632C210.139 199.394 210.139 199.156 210.111 198.988C210.027 198.232 209.579 197.826 208.417 197.826C207.297 197.826 206.709 198.134 206.485 199.016L205.477 198.904C205.729 197.644 206.807 196.972 208.445 196.972C210.405 196.972 211.161 197.784 211.161 199.52V202.656C211.161 203.09 211.203 203.566 211.315 204H210.279C210.195 203.762 210.139 203.188 210.153 202.838C209.607 203.594 208.795 204.084 207.507 204.084ZM207.829 203.286C209.145 203.286 209.845 202.488 210.139 201.774V200.346C209.649 200.346 209.145 200.346 208.711 200.402C207.213 200.598 206.443 201.2 206.443 202.068C206.443 202.866 206.905 203.286 207.829 203.286ZM215.17 204.098C214.008 204.098 213.336 203.524 213.336 202.096V197.966H212.216V197.098H213.35L213.406 195.292H214.4V197.098H215.954V197.966H214.4V202.152C214.4 202.88 214.778 203.202 215.366 203.216C215.688 203.216 216.094 203.174 216.346 203.132V203.986C215.968 204.056 215.548 204.098 215.17 204.098ZM218.706 195.88H217.516V194.648H218.706V195.88ZM218.664 204H217.572V197.098H218.664V204ZM223.346 204.112C221.568 204.112 220.252 202.698 220.252 200.514C220.252 198.358 221.652 196.972 223.346 196.972C225.236 196.972 226.468 198.4 226.468 200.528C226.468 202.698 225.054 204.112 223.346 204.112ZM223.332 203.3C224.466 203.3 225.32 202.376 225.32 200.514C225.32 198.722 224.48 197.826 223.332 197.826C222.24 197.826 221.4 198.75 221.4 200.528C221.4 202.264 222.17 203.3 223.332 203.3ZM232.909 204.084C231.691 204.084 230.711 203.44 230.711 202.18C230.711 200.682 232.083 199.94 233.973 199.716C234.533 199.646 234.995 199.646 235.541 199.632C235.541 199.394 235.541 199.156 235.513 198.988C235.429 198.232 234.981 197.826 233.819 197.826C232.699 197.826 232.111 198.134 231.887 199.016L230.879 198.904C231.131 197.644 232.209 196.972 233.847 196.972C235.807 196.972 236.563 197.784 236.563 199.52V202.656C236.563 203.09 236.605 203.566 236.717 204H235.681C235.597 203.762 235.541 203.188 235.555 202.838C235.009 203.594 234.197 204.084 232.909 204.084ZM233.231 203.286C234.547 203.286 235.247 202.488 235.541 201.774V200.346C235.051 200.346 234.547 200.346 234.113 200.402C232.615 200.598 231.845 201.2 231.845 202.068C231.845 202.866 232.307 203.286 233.231 203.286ZM241.202 206.604C239.074 206.604 237.954 206.016 237.954 204.952C237.954 204.266 238.458 203.748 239.298 203.538C238.598 203.342 238.318 202.95 238.318 202.418C238.318 201.83 238.794 201.41 239.41 201.242C238.738 200.892 238.402 200.178 238.402 199.338C238.402 197.924 239.592 196.972 240.978 196.972C241.496 196.972 242 197.084 242.42 197.308C242.588 196.552 242.966 196.076 244.142 196.09C244.184 196.09 244.268 196.09 244.31 196.09L244.324 197C244.24 196.986 244.17 196.972 244.086 196.972C243.386 196.958 243.092 197.252 242.98 197.756C243.344 198.078 243.61 198.624 243.61 199.338C243.61 200.71 242.658 201.704 241.09 201.704C240.642 201.704 240.194 201.606 240.082 201.578C239.718 201.578 239.326 201.844 239.326 202.264C239.326 202.88 240.194 202.88 241.594 202.922C243.792 202.964 244.576 203.426 244.576 204.56C244.576 205.764 243.442 206.604 241.202 206.604ZM241.034 200.976C242.014 200.976 242.588 200.388 242.588 199.352C242.588 198.512 242.07 197.756 241.034 197.756C240.012 197.756 239.48 198.47 239.48 199.338C239.48 200.416 240.096 200.976 241.034 200.976ZM241.118 205.876C242.658 205.876 243.54 205.4 243.54 204.7C243.54 204 243.022 203.846 239.914 203.776C239.368 203.93 238.948 204.21 238.948 204.826C238.948 205.484 239.578 205.876 241.118 205.876ZM247.169 204.084C245.951 204.084 244.971 203.44 244.971 202.18C244.971 200.682 246.343 199.94 248.233 199.716C248.793 199.646 249.255 199.646 249.801 199.632C249.801 199.394 249.801 199.156 249.773 198.988C249.689 198.232 249.241 197.826 248.079 197.826C246.959 197.826 246.371 198.134 246.147 199.016L245.139 198.904C245.391 197.644 246.469 196.972 248.107 196.972C250.067 196.972 250.823 197.784 250.823 199.52V202.656C250.823 203.09 250.865 203.566 250.977 204H249.941C249.857 203.762 249.801 203.188 249.815 202.838C249.269 203.594 248.457 204.084 247.169 204.084ZM247.491 203.286C248.807 203.286 249.507 202.488 249.801 201.774V200.346C249.311 200.346 248.807 200.346 248.373 200.402C246.875 200.598 246.105 201.2 246.105 202.068C246.105 202.866 246.567 203.286 247.491 203.286ZM254.062 195.88H252.872V194.648H254.062V195.88ZM254.02 204H252.928V197.098H254.02V204ZM257.232 204H256.14V197.098H257.176V198.47C257.652 197.784 258.506 196.972 259.738 196.972C261.026 196.972 261.656 197.7 261.656 199.114V204H260.564V199.1C260.564 198.274 260.2 197.882 259.416 197.882C258.534 197.882 257.806 198.442 257.232 199.268V204ZM265.912 204.112C264.162 204.112 263.084 203.398 262.748 202.138L263.728 201.942C263.952 202.754 264.722 203.3 265.912 203.3C267.004 203.3 267.676 202.81 267.676 202.082C267.676 201.256 266.752 201.088 265.73 200.864C264.316 200.598 263.126 200.234 263.126 198.876C263.126 197.742 264.148 196.972 265.688 196.972C267.242 196.972 268.138 197.658 268.488 198.736L267.522 198.946C267.256 198.218 266.626 197.798 265.688 197.798C264.764 197.798 264.134 198.176 264.134 198.806C264.134 199.562 264.96 199.702 266.066 199.94C267.48 200.22 268.684 200.612 268.684 201.984C268.684 203.258 267.592 204.112 265.912 204.112ZM272.086 204.098C270.924 204.098 270.252 203.524 270.252 202.096V197.966H269.132V197.098H270.266L270.322 195.292H271.316V197.098H272.87V197.966H271.316V202.152C271.316 202.88 271.694 203.202 272.282 203.216C272.604 203.216 273.01 203.174 273.262 203.132V203.986C272.884 204.056 272.464 204.098 272.086 204.098ZM279.619 204.098C278.457 204.098 277.785 203.524 277.785 202.096V197.966H276.665V197.098H277.799L277.855 195.292H278.849V197.098H280.403V197.966H278.849V202.152C278.849 202.88 279.227 203.202 279.815 203.216C280.137 203.216 280.543 203.174 280.795 203.132V203.986C280.417 204.056 279.997 204.098 279.619 204.098ZM283.085 204H281.993V194.662H283.043V198.456C283.491 197.742 284.331 196.972 285.619 196.972C287.019 196.972 287.523 197.896 287.523 199.03V204H286.431V199.114C286.431 198.274 286.011 197.882 285.311 197.882C284.345 197.882 283.659 198.456 283.085 199.282V204ZM292.241 204.112C290.351 204.112 289.077 202.726 289.077 200.668C289.077 198.33 290.491 196.972 292.269 196.972C294.075 196.972 295.125 198.288 295.265 200.206C295.279 200.36 295.265 200.514 295.279 200.668H290.183C290.211 202.404 290.995 203.286 292.339 203.286C293.095 203.286 293.809 202.95 294.201 201.928L295.153 202.068C294.677 203.398 293.613 204.112 292.241 204.112ZM290.225 199.926H294.173C294.061 198.596 293.375 197.798 292.269 197.798C291.163 197.798 290.309 198.624 290.225 199.926ZM301.945 204.098C300.783 204.098 300.111 203.524 300.111 202.096V197.966H298.991V197.098H300.125L300.181 195.292H301.175V197.098H302.729V197.966H301.175V202.152C301.175 202.88 301.553 203.202 302.141 203.216C302.463 203.216 302.869 203.174 303.121 203.132V203.986C302.743 204.056 302.323 204.098 301.945 204.098ZM305.972 204.084C304.754 204.084 303.774 203.44 303.774 202.18C303.774 200.682 305.146 199.94 307.036 199.716C307.596 199.646 308.058 199.646 308.604 199.632C308.604 199.394 308.604 199.156 308.576 198.988C308.492 198.232 308.044 197.826 306.882 197.826C305.762 197.826 305.174 198.134 304.95 199.016L303.942 198.904C304.194 197.644 305.272 196.972 306.91 196.972C308.87 196.972 309.626 197.784 309.626 199.52V202.656C309.626 203.09 309.668 203.566 309.78 204H308.744C308.66 203.762 308.604 203.188 308.618 202.838C308.072 203.594 307.26 204.084 305.972 204.084ZM306.294 203.286C307.61 203.286 308.31 202.488 308.604 201.774V200.346C308.114 200.346 307.61 200.346 307.176 200.402C305.678 200.598 304.908 201.2 304.908 202.068C304.908 202.866 305.37 203.286 306.294 203.286ZM312.794 204H311.702V197.098H312.738V198.582C313.186 197.77 313.998 196.972 314.978 196.972C315.104 196.972 315.188 196.972 315.3 196.986V197.98C315.216 197.966 315.076 197.966 314.992 197.966C314.18 197.966 313.368 198.526 312.794 199.492V204ZM318.817 206.604C316.689 206.604 315.569 206.016 315.569 204.952C315.569 204.266 316.073 203.748 316.913 203.538C316.213 203.342 315.933 202.95 315.933 202.418C315.933 201.83 316.409 201.41 317.025 201.242C316.353 200.892 316.017 200.178 316.017 199.338C316.017 197.924 317.207 196.972 318.593 196.972C319.111 196.972 319.615 197.084 320.035 197.308C320.203 196.552 320.581 196.076 321.757 196.09C321.799 196.09 321.883 196.09 321.925 196.09L321.939 197C321.855 196.986 321.785 196.972 321.701 196.972C321.001 196.958 320.707 197.252 320.595 197.756C320.959 198.078 321.225 198.624 321.225 199.338C321.225 200.71 320.273 201.704 318.705 201.704C318.257 201.704 317.809 201.606 317.697 201.578C317.333 201.578 316.941 201.844 316.941 202.264C316.941 202.88 317.809 202.88 319.209 202.922C321.407 202.964 322.191 203.426 322.191 204.56C322.191 205.764 321.057 206.604 318.817 206.604ZM318.649 200.976C319.629 200.976 320.203 200.388 320.203 199.352C320.203 198.512 319.685 197.756 318.649 197.756C317.627 197.756 317.095 198.47 317.095 199.338C317.095 200.416 317.711 200.976 318.649 200.976ZM318.733 205.876C320.273 205.876 321.155 205.4 321.155 204.7C321.155 204 320.637 203.846 317.529 203.776C316.983 203.93 316.563 204.21 316.563 204.826C316.563 205.484 317.193 205.876 318.733 205.876ZM325.778 204.112C323.888 204.112 322.614 202.726 322.614 200.668C322.614 198.33 324.028 196.972 325.806 196.972C327.612 196.972 328.662 198.288 328.802 200.206C328.816 200.36 328.802 200.514 328.816 200.668H323.72C323.748 202.404 324.532 203.286 325.876 203.286C326.632 203.286 327.346 202.95 327.738 201.928L328.69 202.068C328.214 203.398 327.15 204.112 325.778 204.112ZM323.762 199.926H327.71C327.598 198.596 326.912 197.798 325.806 197.798C324.7 197.798 323.846 198.624 323.762 199.926ZM332.255 204.098C331.093 204.098 330.421 203.524 330.421 202.096V197.966H329.301V197.098H330.435L330.491 195.292H331.485V197.098H333.039V197.966H331.485V202.152C331.485 202.88 331.863 203.202 332.451 203.216C332.773 203.216 333.179 203.174 333.431 203.132V203.986C333.053 204.056 332.633 204.098 332.255 204.098ZM341.035 204.098C339.999 204.098 339.257 203.636 338.809 202.852L338.459 204H337.857V194.662H338.893V198.414C339.243 197.658 340.125 196.972 341.119 196.972C342.771 196.972 343.737 198.218 343.737 200.528C343.737 202.908 342.603 204.098 341.035 204.098ZM340.825 203.314C342.001 203.314 342.617 202.488 342.617 200.556C342.617 198.75 342.029 197.84 340.867 197.84C339.859 197.84 339.285 198.582 338.907 199.38V201.046C338.907 202.488 339.719 203.314 340.825 203.314ZM346.973 204.084C345.755 204.084 344.775 203.44 344.775 202.18C344.775 200.682 346.147 199.94 348.037 199.716C348.597 199.646 349.059 199.646 349.605 199.632C349.605 199.394 349.605 199.156 349.577 198.988C349.493 198.232 349.045 197.826 347.883 197.826C346.763 197.826 346.175 198.134 345.951 199.016L344.943 198.904C345.195 197.644 346.273 196.972 347.911 196.972C349.871 196.972 350.627 197.784 350.627 199.52V202.656C350.627 203.09 350.669 203.566 350.781 204H349.745C349.661 203.762 349.605 203.188 349.619 202.838C349.073 203.594 348.261 204.084 346.973 204.084ZM347.295 203.286C348.611 203.286 349.311 202.488 349.605 201.774V200.346C349.115 200.346 348.611 200.346 348.177 200.402C346.679 200.598 345.909 201.2 345.909 202.068C345.909 202.866 346.371 203.286 347.295 203.286ZM355.14 204.112C353.446 204.112 352.172 202.824 352.172 200.514C352.172 198.512 353.334 196.972 355.084 196.972C356.554 196.972 357.478 197.77 357.786 199.464L356.764 199.59C356.596 198.456 356.05 197.84 355.098 197.84C353.992 197.84 353.32 198.82 353.32 200.542C353.32 202.446 354.132 203.3 355.168 203.3C356.078 203.3 356.61 202.81 356.82 201.662L357.772 201.76C357.534 203.314 356.512 204.112 355.14 204.112ZM360.304 204H359.226V194.662H360.304V200.066L360.29 200.738L360.682 200.248L363.538 197.098H364.672L362.586 199.394L364.882 204H363.706L361.844 200.22L360.304 201.872V204ZM368.774 206.604C366.646 206.604 365.526 206.016 365.526 204.952C365.526 204.266 366.03 203.748 366.87 203.538C366.17 203.342 365.89 202.95 365.89 202.418C365.89 201.83 366.366 201.41 366.982 201.242C366.31 200.892 365.974 200.178 365.974 199.338C365.974 197.924 367.164 196.972 368.55 196.972C369.068 196.972 369.572 197.084 369.992 197.308C370.16 196.552 370.538 196.076 371.714 196.09C371.756 196.09 371.84 196.09 371.882 196.09L371.896 197C371.812 196.986 371.742 196.972 371.658 196.972C370.958 196.958 370.664 197.252 370.552 197.756C370.916 198.078 371.182 198.624 371.182 199.338C371.182 200.71 370.23 201.704 368.662 201.704C368.214 201.704 367.766 201.606 367.654 201.578C367.29 201.578 366.898 201.844 366.898 202.264C366.898 202.88 367.766 202.88 369.166 202.922C371.364 202.964 372.148 203.426 372.148 204.56C372.148 205.764 371.014 206.604 368.774 206.604ZM368.606 200.976C369.586 200.976 370.16 200.388 370.16 199.352C370.16 198.512 369.642 197.756 368.606 197.756C367.584 197.756 367.052 198.47 367.052 199.338C367.052 200.416 367.668 200.976 368.606 200.976ZM368.69 205.876C370.23 205.876 371.112 205.4 371.112 204.7C371.112 204 370.594 203.846 367.486 203.776C366.94 203.93 366.52 204.21 366.52 204.826C366.52 205.484 367.15 205.876 368.69 205.876ZM374.181 204H373.089V197.098H374.125V198.582C374.573 197.77 375.385 196.972 376.365 196.972C376.491 196.972 376.575 196.972 376.687 196.986V197.98C376.603 197.966 376.463 197.966 376.379 197.966C375.567 197.966 374.755 198.526 374.181 199.492V204ZM380.341 204.112C378.563 204.112 377.247 202.698 377.247 200.514C377.247 198.358 378.647 196.972 380.341 196.972C382.231 196.972 383.463 198.4 383.463 200.528C383.463 202.698 382.049 204.112 380.341 204.112ZM380.327 203.3C381.461 203.3 382.315 202.376 382.315 200.514C382.315 198.722 381.475 197.826 380.327 197.826C379.235 197.826 378.395 198.75 378.395 200.528C378.395 202.264 379.165 203.3 380.327 203.3ZM387.125 204.112C385.879 204.112 384.997 203.468 384.997 201.732V197.098H386.089V201.76C386.089 202.852 386.495 203.286 387.461 203.286C388.231 203.286 388.903 202.838 389.365 201.998V197.098H390.443V204H389.435V202.824C388.889 203.706 388.049 204.112 387.125 204.112ZM393.622 204H392.53V197.098H393.566V198.47C394.042 197.784 394.896 196.972 396.128 196.972C397.416 196.972 398.046 197.7 398.046 199.114V204H396.954V199.1C396.954 198.274 396.59 197.882 395.806 197.882C394.924 197.882 394.196 198.442 393.622 199.268V204ZM402.232 204.112C400.566 204.112 399.6 202.824 399.6 200.57C399.6 198.526 400.664 196.972 402.428 196.972C403.478 196.972 404.136 197.574 404.458 198.036V194.662H405.508V204H404.486V202.95C403.94 203.706 403.24 204.112 402.232 204.112ZM402.526 203.286C403.562 203.286 404.15 202.656 404.444 201.886V199.072C404.094 198.414 403.618 197.826 402.596 197.826C401.35 197.826 400.734 198.806 400.734 200.57C400.734 202.488 401.378 203.286 402.526 203.286ZM413.426 206.604C411.298 206.604 410.178 206.016 410.178 204.952C410.178 204.266 410.682 203.748 411.522 203.538C410.822 203.342 410.542 202.95 410.542 202.418C410.542 201.83 411.018 201.41 411.634 201.242C410.962 200.892 410.626 200.178 410.626 199.338C410.626 197.924 411.816 196.972 413.202 196.972C413.72 196.972 414.224 197.084 414.644 197.308C414.812 196.552 415.19 196.076 416.366 196.09C416.408 196.09 416.492 196.09 416.534 196.09L416.548 197C416.464 196.986 416.394 196.972 416.31 196.972C415.61 196.958 415.316 197.252 415.204 197.756C415.568 198.078 415.834 198.624 415.834 199.338C415.834 200.71 414.882 201.704 413.314 201.704C412.866 201.704 412.418 201.606 412.306 201.578C411.942 201.578 411.55 201.844 411.55 202.264C411.55 202.88 412.418 202.88 413.818 202.922C416.016 202.964 416.8 203.426 416.8 204.56C416.8 205.764 415.666 206.604 413.426 206.604ZM413.258 200.976C414.238 200.976 414.812 200.388 414.812 199.352C414.812 198.512 414.294 197.756 413.258 197.756C412.236 197.756 411.704 198.47 411.704 199.338C411.704 200.416 412.32 200.976 413.258 200.976ZM413.342 205.876C414.882 205.876 415.764 205.4 415.764 204.7C415.764 204 415.246 203.846 412.138 203.776C411.592 203.93 411.172 204.21 411.172 204.826C411.172 205.484 411.802 205.876 413.342 205.876ZM418.833 204H417.741V197.098H418.777V198.582C419.225 197.77 420.037 196.972 421.017 196.972C421.143 196.972 421.227 196.972 421.339 196.986V197.98C421.255 197.966 421.115 197.966 421.031 197.966C420.219 197.966 419.407 198.526 418.833 199.492V204ZM424.083 204.084C422.865 204.084 421.885 203.44 421.885 202.18C421.885 200.682 423.257 199.94 425.147 199.716C425.707 199.646 426.169 199.646 426.715 199.632C426.715 199.394 426.715 199.156 426.687 198.988C426.603 198.232 426.155 197.826 424.993 197.826C423.873 197.826 423.285 198.134 423.061 199.016L422.053 198.904C422.305 197.644 423.383 196.972 425.021 196.972C426.981 196.972 427.737 197.784 427.737 199.52V202.656C427.737 203.09 427.779 203.566 427.891 204H426.855C426.771 203.762 426.715 203.188 426.729 202.838C426.183 203.594 425.371 204.084 424.083 204.084ZM424.405 203.286C425.721 203.286 426.421 202.488 426.715 201.774V200.346C426.225 200.346 425.721 200.346 425.287 200.402C423.789 200.598 423.019 201.2 423.019 202.068C423.019 202.866 423.481 203.286 424.405 203.286ZM429.185 206.422L429.157 205.54C430.697 205.54 431.579 204.532 430.991 202.992L428.723 197.098H429.899L431.607 201.606L431.887 202.488L432.167 201.606L433.763 197.098H434.729L432.097 204.49C431.677 205.708 430.879 206.422 429.185 206.422ZM441.389 194.662V195.432C438.869 198.47 438.043 201.508 438.043 203.65C438.043 203.79 438.043 203.944 438.057 204H436.727C436.727 203.902 436.727 203.804 436.741 203.692C436.839 201.662 438.043 198.302 440.241 195.67H435.103L435.229 194.662H441.389ZM445.553 204.168C443.314 204.168 441.998 202.264 441.998 199.338C441.998 196.37 443.3 194.494 445.54 194.494C447.696 194.494 449.04 196.384 449.04 199.38C449.04 202.278 447.696 204.168 445.553 204.168ZM445.553 203.258C447.01 203.258 447.864 201.886 447.864 199.352C447.864 196.888 447.052 195.432 445.54 195.432C443.93 195.432 443.174 196.762 443.174 199.338C443.174 201.802 444.056 203.258 445.553 203.258ZM453.716 204.168C451.476 204.168 450.16 202.264 450.16 199.338C450.16 196.37 451.462 194.494 453.702 194.494C455.858 194.494 457.202 196.384 457.202 199.38C457.202 202.278 455.858 204.168 453.716 204.168ZM453.716 203.258C455.172 203.258 456.026 201.886 456.026 199.352C456.026 196.888 455.214 195.432 453.702 195.432C452.092 195.432 451.336 196.762 451.336 199.338C451.336 201.802 452.218 203.258 453.716 203.258Z" fill="#595959"/>
<defs>
<clipPath id="clip0_2805_5870">
<rect width="100" height="100" fill="white" transform="translate(179 28)"/>
</clipPath>
</defs>
</svg>
