<svg width="518" height="452" viewBox="0 0 518 452" fill="none" xmlns="http://www.w3.org/2000/svg">
<rect width="518" height="452" fill="#F0F0F0"/>
<path d="M234.994 58V45.994H239.026C240.466 45.994 241.708 46.408 242.608 47.236C243.796 48.298 244.39 50.026 244.39 51.97C244.39 55.39 242.356 58 239.224 58H234.994ZM236.488 47.272V56.776H238.936C241.24 56.776 242.878 55.012 242.878 52.006C242.878 49.09 241.294 47.272 238.936 47.272H236.488ZM249.906 58.144C247.476 58.144 245.838 56.362 245.838 53.716C245.838 50.71 247.656 48.964 249.942 48.964C252.264 48.964 253.614 50.656 253.794 53.122C253.812 53.32 253.794 53.518 253.812 53.716H247.26C247.296 55.948 248.304 57.082 250.032 57.082C251.004 57.082 251.922 56.65 252.426 55.336L253.65 55.516C253.038 57.226 251.67 58.144 249.906 58.144ZM247.314 52.762H252.39C252.246 51.052 251.364 50.026 249.942 50.026C248.52 50.026 247.422 51.088 247.314 52.762ZM259.044 58H257.622L254.436 49.126H255.912L257.91 54.85C258.108 55.408 258.378 56.236 258.432 56.488C258.522 56.254 258.774 55.39 258.99 54.868L261.06 49.126H262.284L259.044 58ZM265.137 47.56H263.607V45.976H265.137V47.56ZM265.083 58H263.679V49.126H265.083V58ZM270.941 58.144C268.763 58.144 267.125 56.488 267.125 53.518C267.125 50.944 268.619 48.964 270.869 48.964C272.759 48.964 273.947 49.99 274.343 52.168L273.029 52.33C272.813 50.872 272.111 50.08 270.887 50.08C269.465 50.08 268.601 51.34 268.601 53.554C268.601 56.002 269.645 57.1 270.977 57.1C272.147 57.1 272.831 56.47 273.101 54.994L274.325 55.12C274.019 57.118 272.705 58.144 270.941 58.144ZM279.596 58.144C277.166 58.144 275.528 56.362 275.528 53.716C275.528 50.71 277.346 48.964 279.632 48.964C281.954 48.964 283.304 50.656 283.484 53.122C283.502 53.32 283.484 53.518 283.502 53.716H276.95C276.986 55.948 277.994 57.082 279.722 57.082C280.694 57.082 281.612 56.65 282.116 55.336L283.34 55.516C282.728 57.226 281.36 58.144 279.596 58.144ZM277.004 52.762H282.08C281.936 51.052 281.054 50.026 279.632 50.026C278.21 50.026 277.112 51.088 277.004 52.762Z" fill="#595959"/>
<path d="M218.16 91H209.32V77.66H212.62V88.48H218.16V91ZM222.731 80.02H219.571V77.4H222.731V80.02ZM222.711 91H219.591V81.08H222.711V91ZM229.398 94.52C226.178 94.52 224.118 93.96 224.118 92.3C224.118 91.12 225.078 90.58 226.338 90.32C225.118 90.02 224.638 89.38 224.638 88.62C224.638 87.76 225.298 87.02 226.738 86.72C225.338 86.24 224.878 85.28 224.878 84.1C224.878 82.04 226.798 80.88 229.178 80.88C229.758 80.88 230.938 81.02 231.558 81.34C231.818 79.94 232.878 79.54 234.198 79.54C234.338 79.54 234.598 79.58 234.658 79.6V81.8C234.438 81.66 234.138 81.6 233.838 81.6C233.378 81.6 233.038 81.76 232.858 82.12C233.318 82.46 233.718 83.22 233.718 84.14C233.718 86.14 232.198 87.28 229.318 87.28C228.958 87.28 228.318 87.2 228.158 87.18C227.838 87.16 227.438 87.38 227.438 87.82C227.438 88.4 228.278 88.4 230.278 88.46C233.718 88.58 234.818 89.42 234.818 91.3C234.818 93.32 233.238 94.52 229.398 94.52ZM229.338 85.68C230.338 85.68 230.858 85.1 230.858 84.1C230.858 83.22 230.298 82.6 229.338 82.6C228.398 82.6 227.818 83.2 227.818 84.1C227.818 85.14 228.418 85.68 229.338 85.68ZM229.038 92.8C230.998 92.8 232.098 92.52 232.098 91.74C232.098 90.96 231.318 90.88 227.498 90.72C226.938 90.86 226.538 91.2 226.538 91.78C226.538 92.52 227.458 92.8 229.038 92.8ZM239.117 91H235.997V77.66H239.097V82.48C239.837 81.6 240.737 80.9 242.297 80.9C244.217 80.9 245.097 82.24 245.097 83.88V91H241.957V84.24C241.957 83.48 241.577 83.08 240.897 83.08C240.077 83.08 239.517 83.72 239.117 84.28V91ZM251.402 91.14C249.142 91.14 247.942 90.08 247.942 87.98V83.18H246.362V81.08H247.962L248.162 78.04H250.962V81.08H253.002V83.18H250.962V87.48C250.962 88.26 251.282 88.7 252.022 88.8C252.402 88.84 252.782 88.84 253.202 88.8V91.02C252.722 91.08 252.022 91.14 251.402 91.14ZM263.003 91H259.903V81.08H262.883V82.74C263.443 81.9 264.363 80.9 265.943 80.9C267.283 80.9 268.183 81.5 268.523 82.8C269.123 81.94 270.023 80.9 271.643 80.9C272.983 80.9 273.783 81.42 274.143 82.4C274.323 82.84 274.383 83.4 274.383 84V91H271.283V84.46C271.283 83.52 271.023 83.06 270.303 83.06C269.523 83.06 269.023 83.7 268.703 84.24V91H265.583V84.46C265.583 83.54 265.323 83.06 264.623 83.06C263.863 83.06 263.423 83.56 263.003 84.24V91ZM281.179 91.16C278.219 91.16 276.139 89.02 276.139 86.12C276.139 83.04 278.299 80.9 281.239 80.9C284.319 80.9 286.359 82.98 286.359 86.06C286.359 88.96 284.279 91.16 281.179 91.16ZM281.279 89.16C282.419 89.16 283.039 88.2 283.039 86.02C283.039 83.94 282.479 82.96 281.259 82.96C280.079 82.96 279.439 83.92 279.439 86.02C279.439 88.18 280.039 89.16 281.279 89.16ZM291.125 91.18C288.985 91.18 287.585 89.5 287.585 86C287.585 82.84 289.165 80.9 291.525 80.9C292.705 80.9 293.545 81.42 294.125 82.1V77.66H297.205V91H294.245V89.58C293.445 90.64 292.605 91.18 291.125 91.18ZM292.425 89.12C293.305 89.12 293.805 88.56 294.125 87.92V83.92C293.785 83.42 293.325 82.88 292.445 82.88C291.325 82.88 290.805 83.68 290.805 86.02C290.805 88.42 291.425 89.12 292.425 89.12ZM304.131 91.16C301.151 91.16 298.991 89.2 298.991 86.18C298.991 82.98 301.351 80.9 304.111 80.9C307.211 80.9 309.031 82.94 309.111 86.02C309.111 86.24 309.111 86.4 309.091 86.62H302.231C302.271 88.4 303.191 89.18 304.411 89.18C305.411 89.18 306.051 88.68 306.411 87.7L308.991 88.04C308.331 89.92 306.691 91.16 304.131 91.16ZM302.271 85H305.991C305.891 83.66 305.311 82.84 304.151 82.84C303.151 82.84 302.351 83.64 302.271 85Z" fill="#111111"/>
<path d="M96.734 142H94.424V132.662H98.372C100.64 132.662 101.83 133.572 101.83 135.532C101.83 137.17 100.682 138.318 98.624 138.318H96.734V142ZM96.734 134.412V136.68H98.19C98.988 136.68 99.492 136.302 99.492 135.56C99.492 134.818 98.988 134.412 98.218 134.412H96.734ZM105.015 142H102.817V135.056H104.889V136.512C105.211 135.686 106.037 134.93 107.059 134.93C107.269 134.93 107.451 134.944 107.563 134.972V136.722C107.423 136.694 107.115 136.68 106.933 136.68C106.107 136.68 105.407 137.1 105.015 137.842V142ZM110.716 134.314H108.504V132.48H110.716V134.314ZM110.702 142H108.518V135.056H110.702V142ZM114.571 142H112.401V135.056H114.487V136.218C114.879 135.63 115.523 134.93 116.629 134.93C117.567 134.93 118.197 135.35 118.435 136.26C118.855 135.658 119.485 134.93 120.619 134.93C121.557 134.93 122.117 135.294 122.369 135.98C122.495 136.288 122.537 136.68 122.537 137.1V142H120.367V137.422C120.367 136.764 120.185 136.442 119.681 136.442C119.135 136.442 118.785 136.89 118.561 137.268V142H116.377V137.422C116.377 136.778 116.195 136.442 115.705 136.442C115.173 136.442 114.865 136.792 114.571 137.268V142ZM125.852 142.084C124.564 142.084 123.71 141.356 123.71 140.18C123.71 138.64 125.096 137.87 127.518 137.632C127.784 137.604 128.064 137.576 128.358 137.562C128.358 137.492 128.344 137.282 128.344 137.226C128.302 136.68 127.98 136.344 127.224 136.344C126.412 136.344 126.02 136.624 125.88 137.212L123.892 137.03C124.228 135.644 125.39 134.93 127.434 134.93C129.772 134.93 130.444 135.938 130.444 137.436V140.642C130.444 141.048 130.472 141.734 130.598 142H128.526C128.442 141.86 128.414 141.496 128.414 141.104C127.812 141.72 127.084 142.084 125.852 142.084ZM126.832 140.74C127.546 140.74 128.064 140.32 128.358 139.872V138.654C128.092 138.668 127.84 138.696 127.616 138.738C126.552 138.92 125.95 139.326 125.95 139.984C125.95 140.502 126.286 140.74 126.832 140.74ZM134.3 142H132.102V135.056H134.174V136.512C134.496 135.686 135.322 134.93 136.344 134.93C136.554 134.93 136.736 134.944 136.848 134.972V136.722C136.708 136.694 136.4 136.68 136.218 136.68C135.392 136.68 134.692 137.1 134.3 137.842V142ZM137.63 144.408V142.826C137.784 142.84 137.91 142.84 138.036 142.84C139.142 142.84 139.632 142.448 139.632 141.776C139.632 141.524 139.562 141.23 139.436 140.894L137.168 135.056H139.492L140.682 138.528L140.92 139.298L141.158 138.542L142.348 135.056H144.112L141.368 142.546C140.976 143.624 140.248 144.422 138.022 144.422C137.896 144.422 137.77 144.408 137.63 144.408Z" fill="#111111"/>
<rect width="100" height="100" transform="translate(69 150)" fill="black"/>
<path d="M228.756 142.14C226.278 142.14 225.186 141.076 224.64 139.662L226.46 138.962C226.838 139.872 227.44 140.418 228.714 140.418C229.638 140.418 230.226 140.04 230.226 139.424C230.226 138.57 229.204 138.374 228.07 138.094C226.628 137.744 224.976 137.254 224.976 135.196C224.976 133.614 226.334 132.494 228.588 132.494C230.562 132.494 231.71 133.362 232.242 134.79L230.296 135.378C230.03 134.608 229.414 134.258 228.56 134.258C227.79 134.258 227.272 134.58 227.272 135.126C227.272 135.952 228.182 136.106 229.47 136.414C231.024 136.778 232.48 137.352 232.48 139.298C232.48 140.95 231.262 142.14 228.756 142.14ZM236.94 142.112C234.854 142.112 233.342 140.74 233.342 138.626C233.342 136.386 234.994 134.93 236.926 134.93C239.096 134.93 240.37 136.358 240.426 138.514C240.426 138.668 240.426 138.78 240.412 138.934H235.61C235.638 140.18 236.282 140.726 237.136 140.726C237.836 140.726 238.284 140.376 238.536 139.69L240.342 139.928C239.88 141.244 238.732 142.112 236.94 142.112ZM235.638 137.8H238.242C238.172 136.862 237.766 136.288 236.954 136.288C236.254 136.288 235.694 136.848 235.638 137.8ZM244.633 142.126C242.631 142.126 241.231 140.796 241.231 138.514C241.231 136.54 242.561 134.93 244.661 134.93C246.341 134.93 247.461 135.826 247.741 137.534L245.809 137.716C245.711 136.918 245.417 136.372 244.731 136.372C243.947 136.372 243.541 137.114 243.541 138.528C243.541 140.068 244.003 140.74 244.759 140.74C245.445 140.74 245.753 140.278 245.879 139.494L247.755 139.662C247.545 141.244 246.439 142.126 244.633 142.126ZM252.005 142.112C249.933 142.112 248.477 140.614 248.477 138.584C248.477 136.428 249.989 134.93 252.047 134.93C254.203 134.93 255.631 136.386 255.631 138.542C255.631 140.572 254.175 142.112 252.005 142.112ZM252.075 140.712C252.873 140.712 253.307 140.04 253.307 138.514C253.307 137.058 252.915 136.372 252.061 136.372C251.235 136.372 250.787 137.044 250.787 138.514C250.787 140.026 251.207 140.712 252.075 140.712ZM259.051 142H256.881V135.056H258.967V136.204C259.373 135.63 260.031 134.93 261.207 134.93C262.635 134.93 263.209 135.784 263.209 137.114V142H261.039V137.184C261.039 136.75 260.815 136.428 260.283 136.428C259.709 136.428 259.331 136.82 259.051 137.24V142ZM266.924 142.126C265.426 142.126 264.446 140.95 264.446 138.5C264.446 136.288 265.552 134.93 267.204 134.93C268.03 134.93 268.618 135.294 269.024 135.77V132.662H271.18V142H269.108V141.006C268.548 141.748 267.96 142.126 266.924 142.126ZM267.834 140.684C268.45 140.684 268.8 140.292 269.024 139.844V137.044C268.786 136.694 268.464 136.316 267.848 136.316C267.064 136.316 266.7 136.876 266.7 138.514C266.7 140.194 267.134 140.684 267.834 140.684ZM274.516 142.084C273.228 142.084 272.374 141.356 272.374 140.18C272.374 138.64 273.76 137.87 276.182 137.632C276.448 137.604 276.728 137.576 277.022 137.562C277.022 137.492 277.008 137.282 277.008 137.226C276.966 136.68 276.644 136.344 275.888 136.344C275.076 136.344 274.684 136.624 274.544 137.212L272.556 137.03C272.892 135.644 274.054 134.93 276.098 134.93C278.436 134.93 279.108 135.938 279.108 137.436V140.642C279.108 141.048 279.136 141.734 279.262 142H277.19C277.106 141.86 277.078 141.496 277.078 141.104C276.476 141.72 275.748 142.084 274.516 142.084ZM275.496 140.74C276.21 140.74 276.728 140.32 277.022 139.872V138.654C276.756 138.668 276.504 138.696 276.28 138.738C275.216 138.92 274.614 139.326 274.614 139.984C274.614 140.502 274.95 140.74 275.496 140.74ZM282.964 142H280.766V135.056H282.838V136.512C283.16 135.686 283.986 134.93 285.008 134.93C285.218 134.93 285.4 134.944 285.512 134.972V136.722C285.372 136.694 285.064 136.68 284.882 136.68C284.056 136.68 283.356 137.1 282.964 137.842V142ZM286.294 144.408V142.826C286.448 142.84 286.574 142.84 286.7 142.84C287.806 142.84 288.296 142.448 288.296 141.776C288.296 141.524 288.226 141.23 288.1 140.894L285.832 135.056H288.156L289.346 138.528L289.584 139.298L289.822 138.542L291.012 135.056H292.776L290.032 142.546C289.64 143.624 288.912 144.422 286.686 144.422C286.56 144.422 286.434 144.408 286.294 144.408Z" fill="#111111"/>
<rect width="100" height="100" transform="translate(209 150)" fill="white"/>
<path d="M392.508 142.14C390.1 142.14 388.462 140.32 388.462 137.492C388.462 134.3 390.072 132.508 392.564 132.508C394.706 132.508 395.91 133.726 396.274 135.77L394.076 136.12C393.908 134.958 393.558 134.272 392.578 134.272C391.542 134.272 390.94 135.238 390.94 137.38C390.94 139.368 391.472 140.404 392.634 140.404C393.614 140.404 394.09 139.788 394.272 138.542L396.372 138.892C395.924 141.048 394.622 142.14 392.508 142.14ZM400.348 142.098C398.766 142.098 397.926 141.356 397.926 139.886V136.526H396.82V135.056H397.94L398.08 132.928H400.04V135.056H401.468V136.526H400.04V139.536C400.04 140.082 400.264 140.39 400.782 140.46C401.048 140.488 401.314 140.488 401.608 140.46V142.014C401.272 142.056 400.782 142.098 400.348 142.098ZM404.506 142.084C403.218 142.084 402.364 141.356 402.364 140.18C402.364 138.64 403.75 137.87 406.172 137.632C406.438 137.604 406.718 137.576 407.012 137.562C407.012 137.492 406.998 137.282 406.998 137.226C406.956 136.68 406.634 136.344 405.878 136.344C405.066 136.344 404.674 136.624 404.534 137.212L402.546 137.03C402.882 135.644 404.044 134.93 406.088 134.93C408.426 134.93 409.098 135.938 409.098 137.436V140.642C409.098 141.048 409.126 141.734 409.252 142H407.18C407.096 141.86 407.068 141.496 407.068 141.104C406.466 141.72 405.738 142.084 404.506 142.084ZM405.486 140.74C406.2 140.74 406.718 140.32 407.012 139.872V138.654C406.746 138.668 406.494 138.696 406.27 138.738C405.206 138.92 404.604 139.326 404.604 139.984C404.604 140.502 404.94 140.74 405.486 140.74Z" fill="#111111"/>
<rect width="100" height="100" transform="translate(349 150)" fill="#166DFC"/>
<path d="M156.348 304H154.402L157.454 294.662H159.862L163.04 304H160.604L159.89 301.872H156.978L156.348 304ZM158.35 297.168L157.426 300.276H159.372L158.35 297.168ZM166.785 304.126C164.783 304.126 163.383 302.796 163.383 300.514C163.383 298.54 164.713 296.93 166.813 296.93C168.493 296.93 169.613 297.826 169.893 299.534L167.961 299.716C167.863 298.918 167.569 298.372 166.883 298.372C166.099 298.372 165.693 299.114 165.693 300.528C165.693 302.068 166.155 302.74 166.911 302.74C167.597 302.74 167.905 302.278 168.031 301.494L169.907 301.662C169.697 303.244 168.591 304.126 166.785 304.126ZM174.031 304.126C172.029 304.126 170.629 302.796 170.629 300.514C170.629 298.54 171.959 296.93 174.059 296.93C175.739 296.93 176.859 297.826 177.139 299.534L175.207 299.716C175.109 298.918 174.815 298.372 174.129 298.372C173.345 298.372 172.939 299.114 172.939 300.528C172.939 302.068 173.401 302.74 174.157 302.74C174.843 302.74 175.151 302.278 175.277 301.494L177.153 301.662C176.943 303.244 175.837 304.126 174.031 304.126ZM181.473 304.112C179.387 304.112 177.875 302.74 177.875 300.626C177.875 298.386 179.527 296.93 181.459 296.93C183.629 296.93 184.903 298.358 184.959 300.514C184.959 300.668 184.959 300.78 184.945 300.934H180.143C180.171 302.18 180.815 302.726 181.669 302.726C182.369 302.726 182.817 302.376 183.069 301.69L184.875 301.928C184.413 303.244 183.265 304.112 181.473 304.112ZM180.171 299.8H182.775C182.705 298.862 182.299 298.288 181.487 298.288C180.787 298.288 180.227 298.848 180.171 299.8ZM188.927 304.112C187.009 304.112 185.819 303.454 185.469 302.096L187.219 301.774C187.373 302.404 187.933 302.726 188.969 302.726C189.739 302.726 190.285 302.488 190.285 302.012C190.285 301.494 189.725 301.396 188.885 301.284C186.799 301.032 185.791 300.64 185.791 299.184C185.791 297.812 186.967 296.93 188.801 296.93C190.425 296.93 191.559 297.588 191.881 298.722L190.187 299.058C190.019 298.526 189.543 298.274 188.815 298.274C188.115 298.274 187.681 298.47 187.681 298.918C187.681 299.38 188.157 299.464 189.221 299.618C191.167 299.856 192.147 300.36 192.147 301.816C192.147 303.174 190.943 304.112 188.927 304.112ZM196.037 304.112C194.119 304.112 192.929 303.454 192.579 302.096L194.329 301.774C194.483 302.404 195.043 302.726 196.079 302.726C196.849 302.726 197.395 302.488 197.395 302.012C197.395 301.494 196.835 301.396 195.995 301.284C193.909 301.032 192.901 300.64 192.901 299.184C192.901 297.812 194.077 296.93 195.911 296.93C197.535 296.93 198.669 297.588 198.991 298.722L197.297 299.058C197.129 298.526 196.653 298.274 195.925 298.274C195.225 298.274 194.791 298.47 194.791 298.918C194.791 299.38 195.267 299.464 196.331 299.618C198.277 299.856 199.257 300.36 199.257 301.816C199.257 303.174 198.053 304.112 196.037 304.112ZM202.614 296.314H200.402V294.48H202.614V296.314ZM202.6 304H200.416V297.056H202.6V304ZM208.219 304.098C207.085 304.098 206.455 303.678 205.923 302.978L205.615 304H204.299V294.662H206.441V298.12C206.833 297.518 207.477 296.93 208.555 296.93C210.151 296.93 211.019 298.148 211.019 300.514C211.019 302.894 209.871 304.098 208.219 304.098ZM207.617 302.768C208.471 302.768 208.779 302.152 208.779 300.584C208.779 299.114 208.471 298.414 207.659 298.414C207.029 298.414 206.679 298.834 206.455 299.324V301.27C206.455 302.278 206.889 302.768 207.617 302.768ZM214.481 304H212.297V294.662H214.481V304ZM219.358 304.112C217.272 304.112 215.76 302.74 215.76 300.626C215.76 298.386 217.412 296.93 219.344 296.93C221.514 296.93 222.788 298.358 222.844 300.514C222.844 300.668 222.844 300.78 222.83 300.934H218.028C218.056 302.18 218.7 302.726 219.554 302.726C220.254 302.726 220.702 302.376 220.954 301.69L222.76 301.928C222.298 303.244 221.15 304.112 219.358 304.112ZM218.056 299.8H220.66C220.59 298.862 220.184 298.288 219.372 298.288C218.672 298.288 218.112 298.848 218.056 299.8Z" fill="#111111"/>
<rect width="100" height="100" transform="translate(139 312)" fill="#595959"/>
<path d="M301.424 304V294.662H304.98C306.254 294.662 307.346 295.054 308.088 295.782C308.97 296.622 309.404 297.896 309.404 299.338C309.404 301.984 307.696 304 305.05 304H301.424ZM303.734 296.44V302.236H304.854C306.086 302.236 307.01 301.144 307.01 299.296C307.01 297.602 306.184 296.44 304.854 296.44H303.734ZM312.903 296.314H310.691V294.48H312.903V296.314ZM312.889 304H310.705V297.056H312.889V304ZM317.318 304.112C315.4 304.112 314.21 303.454 313.86 302.096L315.61 301.774C315.764 302.404 316.324 302.726 317.36 302.726C318.13 302.726 318.676 302.488 318.676 302.012C318.676 301.494 318.116 301.396 317.276 301.284C315.19 301.032 314.182 300.64 314.182 299.184C314.182 297.812 315.358 296.93 317.192 296.93C318.816 296.93 319.95 297.588 320.272 298.722L318.578 299.058C318.41 298.526 317.934 298.274 317.206 298.274C316.506 298.274 316.072 298.47 316.072 298.918C316.072 299.38 316.548 299.464 317.612 299.618C319.558 299.856 320.538 300.36 320.538 301.816C320.538 303.174 319.334 304.112 317.318 304.112ZM323.445 304.084C322.157 304.084 321.303 303.356 321.303 302.18C321.303 300.64 322.689 299.87 325.111 299.632C325.377 299.604 325.657 299.576 325.951 299.562C325.951 299.492 325.937 299.282 325.937 299.226C325.895 298.68 325.573 298.344 324.817 298.344C324.005 298.344 323.613 298.624 323.473 299.212L321.485 299.03C321.821 297.644 322.983 296.93 325.027 296.93C327.365 296.93 328.037 297.938 328.037 299.436V302.642C328.037 303.048 328.065 303.734 328.191 304H326.119C326.035 303.86 326.007 303.496 326.007 303.104C325.405 303.72 324.677 304.084 323.445 304.084ZM324.425 302.74C325.139 302.74 325.657 302.32 325.951 301.872V300.654C325.685 300.668 325.433 300.696 325.209 300.738C324.145 300.92 323.543 301.326 323.543 301.984C323.543 302.502 323.879 302.74 324.425 302.74ZM333.615 304.098C332.481 304.098 331.851 303.678 331.319 302.978L331.011 304H329.695V294.662H331.837V298.12C332.229 297.518 332.873 296.93 333.951 296.93C335.547 296.93 336.415 298.148 336.415 300.514C336.415 302.894 335.267 304.098 333.615 304.098ZM333.013 302.768C333.867 302.768 334.175 302.152 334.175 300.584C334.175 299.114 333.867 298.414 333.055 298.414C332.425 298.414 332.075 298.834 331.851 299.324V301.27C331.851 302.278 332.285 302.768 333.013 302.768ZM339.878 304H337.694V294.662H339.878V304ZM344.754 304.112C342.668 304.112 341.156 302.74 341.156 300.626C341.156 298.386 342.808 296.93 344.74 296.93C346.91 296.93 348.184 298.358 348.24 300.514C348.24 300.668 348.24 300.78 348.226 300.934H343.424C343.452 302.18 344.096 302.726 344.95 302.726C345.65 302.726 346.098 302.376 346.35 301.69L348.156 301.928C347.694 303.244 346.546 304.112 344.754 304.112ZM343.452 299.8H346.056C345.986 298.862 345.58 298.288 344.768 298.288C344.068 298.288 343.508 298.848 343.452 299.8ZM351.537 304.126C350.039 304.126 349.059 302.95 349.059 300.5C349.059 298.288 350.165 296.93 351.817 296.93C352.643 296.93 353.231 297.294 353.637 297.77V294.662H355.793V304H353.721V303.006C353.161 303.748 352.573 304.126 351.537 304.126ZM352.447 302.684C353.063 302.684 353.413 302.292 353.637 301.844V299.044C353.399 298.694 353.077 298.316 352.461 298.316C351.677 298.316 351.313 298.876 351.313 300.514C351.313 302.194 351.747 302.684 352.447 302.684Z" fill="#111111"/>
<rect width="100" height="100" transform="translate(279 312)" fill="black" fill-opacity="0.05"/>
</svg>
