<svg width="566" height="244" viewBox="0 0 566 244" fill="none" xmlns="http://www.w3.org/2000/svg">
<rect x="1" y="0.5" width="564" height="99" stroke="black" stroke-opacity="0.1"/>
<path d="M159.692 34.692C156.644 34.692 154.388 32.268 154.388 28.524C154.388 24.828 156.788 22.452 159.692 22.452C162.932 22.452 165.044 24.9 165.044 28.548C165.044 32.268 162.62 34.692 159.692 34.692ZM159.668 33.3C161.612 33.3 163.076 31.716 163.076 28.524C163.076 25.452 161.636 23.916 159.668 23.916C157.796 23.916 156.356 25.5 156.356 28.548C156.356 31.524 157.676 33.3 159.668 33.3ZM169.594 34.5H167.722V22.668H169.498V25.02C170.314 23.844 171.778 22.452 173.89 22.452C176.098 22.452 177.178 23.7 177.178 26.124V34.5H175.306V26.1C175.306 24.684 174.682 24.012 173.338 24.012C171.826 24.012 170.578 24.972 169.594 26.388V34.5ZM184.258 28.212H178.93V26.484H184.258V28.212ZM188.234 34.5H186.242V18.492H191.906C195.386 18.492 197.114 20.22 197.114 23.052C197.114 25.812 195.194 27.588 192.122 27.588H188.234V34.5ZM188.234 20.196V25.956H191.93C193.898 25.956 195.098 24.9 195.098 23.124C195.098 21.324 193.898 20.196 192.074 20.196H188.234ZM200.602 34.5H198.73V22.668H200.506V25.212C201.274 23.82 202.666 22.452 204.346 22.452C204.562 22.452 204.706 22.452 204.898 22.476V24.18C204.754 24.156 204.514 24.156 204.37 24.156C202.978 24.156 201.586 25.116 200.602 26.772V34.5ZM208.761 20.58H206.721V18.468H208.761V20.58ZM208.689 34.5H206.817V22.668H208.689V34.5ZM214.171 34.5H212.323V22.668H214.123V25.044C214.819 23.868 216.379 22.452 218.083 22.452C219.811 22.452 220.915 23.436 221.059 25.116C221.875 23.82 223.267 22.476 225.139 22.476C226.363 22.476 227.179 22.932 227.659 23.82C228.019 24.372 228.259 25.14 228.259 26.1V34.5H226.411V26.22C226.411 24.684 225.763 24.036 224.611 24.036C223.147 24.036 221.923 25.236 221.179 26.412V34.5H219.355V26.196C219.355 24.78 218.755 23.988 217.603 23.988C216.235 23.988 215.251 24.876 214.171 26.388V34.5ZM234.609 34.644C232.521 34.644 230.841 33.54 230.841 31.38C230.841 28.812 233.193 27.54 236.433 27.156C237.393 27.036 238.185 27.036 239.121 27.012C239.121 26.604 239.121 26.196 239.073 25.908C238.929 24.612 238.161 23.916 236.169 23.916C234.249 23.916 233.241 24.444 232.857 25.956L231.129 25.764C231.561 23.604 233.409 22.452 236.217 22.452C239.577 22.452 240.873 23.844 240.873 26.82V32.196C240.873 32.94 240.945 33.756 241.137 34.5H239.361C239.217 34.092 239.121 33.108 239.145 32.508C238.209 33.804 236.817 34.644 234.609 34.644ZM235.161 33.276C237.417 33.276 238.617 31.908 239.121 30.684V28.236C238.281 28.236 237.417 28.236 236.673 28.332C234.105 28.668 232.785 29.7 232.785 31.188C232.785 32.556 233.577 33.276 235.161 33.276ZM246.305 34.5H244.433V22.668H246.209V25.212C246.977 23.82 248.369 22.452 250.049 22.452C250.265 22.452 250.409 22.452 250.601 22.476V24.18C250.457 24.156 250.217 24.156 250.073 24.156C248.681 24.156 247.289 25.116 246.305 26.772V34.5ZM251.723 38.652L251.675 37.14C254.315 37.14 255.827 35.412 254.819 32.772L250.931 22.668H252.947L255.875 30.396L256.355 31.908L256.835 30.396L259.571 22.668H261.227L256.715 35.34C255.995 37.428 254.627 38.652 251.723 38.652ZM272.055 28.212H266.727V26.484H272.055V28.212ZM283.122 34.692C280.122 34.692 278.274 33.468 277.698 31.308L279.378 30.972C279.762 32.364 281.082 33.3 283.122 33.3C284.994 33.3 286.146 32.46 286.146 31.212C286.146 29.796 284.562 29.508 282.81 29.124C280.386 28.668 278.346 28.044 278.346 25.716C278.346 23.772 280.098 22.452 282.738 22.452C285.402 22.452 286.938 23.628 287.538 25.476L285.882 25.836C285.426 24.588 284.346 23.868 282.738 23.868C281.154 23.868 280.074 24.516 280.074 25.596C280.074 26.892 281.49 27.132 283.386 27.54C285.81 28.02 287.874 28.692 287.874 31.044C287.874 33.228 286.002 34.692 283.122 34.692ZM293.994 34.692C291.858 34.692 290.346 33.588 290.346 30.612V22.668H292.218V30.66C292.218 32.532 292.914 33.276 294.57 33.276C295.89 33.276 297.042 32.508 297.834 31.068V22.668H299.682V34.5H297.954V32.484C297.018 33.996 295.578 34.692 293.994 34.692ZM308.709 34.668C306.933 34.668 305.661 33.876 304.893 32.532L304.293 34.5H303.261V18.492H305.037V24.924C305.637 23.628 307.149 22.452 308.853 22.452C311.685 22.452 313.341 24.588 313.341 28.548C313.341 32.628 311.397 34.668 308.709 34.668ZM308.349 33.324C310.365 33.324 311.421 31.908 311.421 28.596C311.421 25.5 310.413 23.94 308.421 23.94C306.693 23.94 305.709 25.212 305.061 26.58V29.436C305.061 31.908 306.453 33.324 308.349 33.324ZM319.37 34.668C317.378 34.668 316.226 33.684 316.226 31.236V24.156H314.306V22.668H316.25L316.346 19.572H318.05V22.668H320.714V24.156H318.05V31.332C318.05 32.58 318.698 33.132 319.706 33.156C320.258 33.156 320.954 33.084 321.386 33.012V34.476C320.738 34.596 320.018 34.668 319.37 34.668ZM325.361 34.5H323.489V18.492H325.361V34.5ZM333.531 34.692C330.291 34.692 328.107 32.316 328.107 28.788C328.107 24.78 330.531 22.452 333.579 22.452C336.675 22.452 338.475 24.708 338.715 27.996C338.739 28.26 338.715 28.524 338.739 28.788H330.003C330.051 31.764 331.395 33.276 333.699 33.276C334.995 33.276 336.219 32.7 336.891 30.948L338.523 31.188C337.707 33.468 335.883 34.692 333.531 34.692ZM330.075 27.516H336.843C336.651 25.236 335.475 23.868 333.579 23.868C331.683 23.868 330.219 25.284 330.075 27.516ZM350.383 28.212H345.055V26.484H350.383V28.212ZM359.578 34.5H357.706V18.492H359.506V24.996C360.274 23.772 361.714 22.452 363.922 22.452C366.322 22.452 367.186 24.036 367.186 25.98V34.5H365.314V26.124C365.314 24.684 364.594 24.012 363.394 24.012C361.738 24.012 360.562 24.996 359.578 26.412V34.5ZM375.13 34.692C372.082 34.692 369.826 32.268 369.826 28.524C369.826 24.828 372.226 22.452 375.13 22.452C378.37 22.452 380.482 24.9 380.482 28.548C380.482 32.268 378.058 34.692 375.13 34.692ZM375.105 33.3C377.05 33.3 378.514 31.716 378.514 28.524C378.514 25.452 377.074 23.916 375.105 23.916C373.234 23.916 371.794 25.5 371.794 28.548C371.794 31.524 373.114 33.3 375.105 33.3ZM387.551 34.5H385.655L381.407 22.668H383.375L386.039 30.3C386.303 31.044 386.663 32.148 386.735 32.484C386.855 32.172 387.191 31.02 387.479 30.324L390.239 22.668H391.871L387.551 34.5ZM398.219 34.692C394.979 34.692 392.795 32.316 392.795 28.788C392.795 24.78 395.219 22.452 398.267 22.452C401.363 22.452 403.163 24.708 403.403 27.996C403.427 28.26 403.403 28.524 403.427 28.788H394.691C394.739 31.764 396.083 33.276 398.387 33.276C399.683 33.276 400.907 32.7 401.579 30.948L403.211 31.188C402.395 33.468 400.571 34.692 398.219 34.692ZM394.763 27.516H401.531C401.339 25.236 400.163 23.868 398.267 23.868C396.371 23.868 394.907 25.284 394.763 27.516ZM407.883 34.5H406.011V22.668H407.787V25.212C408.555 23.82 409.947 22.452 411.627 22.452C411.843 22.452 411.987 22.452 412.179 22.476V24.18C412.035 24.156 411.795 24.156 411.651 24.156C410.259 24.156 408.867 25.116 407.883 26.772V34.5Z" fill="#111111"/>
<path d="M160.1 84.5H156.82V71.16H163.22C166.14 71.16 167.84 72.7 167.84 75.02C167.84 76.76 167.06 77.86 165.44 78.46L167.94 84.5H164.44L162.3 79.06H160.1V84.5ZM160.1 73.6V76.74H162.4C163.72 76.74 164.42 76.16 164.42 75.14C164.42 74.2 163.76 73.6 162.56 73.6H160.1ZM174.05 84.66C171.09 84.66 169.01 82.52 169.01 79.62C169.01 76.54 171.17 74.4 174.11 74.4C177.19 74.4 179.23 76.48 179.23 79.56C179.23 82.46 177.15 84.66 174.05 84.66ZM174.15 82.66C175.29 82.66 175.91 81.7 175.91 79.52C175.91 77.44 175.35 76.46 174.13 76.46C172.95 76.46 172.31 77.42 172.31 79.52C172.31 81.68 172.91 82.66 174.15 82.66ZM184.156 84.5H181.036V71.16H184.156V84.5ZM191.123 84.66C188.143 84.66 185.983 82.7 185.983 79.68C185.983 76.48 188.343 74.4 191.103 74.4C194.203 74.4 196.023 76.44 196.103 79.52C196.103 79.74 196.103 79.9 196.083 80.12H189.223C189.263 81.9 190.183 82.68 191.403 82.68C192.403 82.68 193.043 82.18 193.403 81.2L195.983 81.54C195.323 83.42 193.683 84.66 191.123 84.66ZM189.263 78.5H192.983C192.883 77.16 192.303 76.34 191.143 76.34C190.143 76.34 189.343 77.14 189.263 78.5Z" fill="#0F7180"/>
<path d="M244.38 84.5H241.84V71.16H246.24L248.86 79.4L251.38 71.16H255.8V84.5H252.72V74.26L249.62 84.5H247.52L244.38 74.26V84.5ZM262.742 84.66C259.782 84.66 257.702 82.52 257.702 79.62C257.702 76.54 259.862 74.4 262.802 74.4C265.882 74.4 267.922 76.48 267.922 79.56C267.922 82.46 265.842 84.66 262.742 84.66ZM262.842 82.66C263.982 82.66 264.602 81.7 264.602 79.52C264.602 77.44 264.042 76.46 262.822 76.46C261.642 76.46 261.002 77.42 261.002 79.52C261.002 81.68 261.602 82.66 262.842 82.66ZM272.687 84.68C270.547 84.68 269.147 83 269.147 79.5C269.147 76.34 270.727 74.4 273.087 74.4C274.267 74.4 275.107 74.92 275.687 75.6V71.16H278.767V84.5H275.807V83.08C275.007 84.14 274.167 84.68 272.687 84.68ZM273.987 82.62C274.867 82.62 275.367 82.06 275.687 81.42V77.42C275.347 76.92 274.887 76.38 274.007 76.38C272.887 76.38 272.367 77.18 272.367 79.52C272.367 81.92 272.987 82.62 273.987 82.62ZM284.293 73.52H281.133V70.9H284.293V73.52ZM284.273 84.5H281.153V74.58H284.273V84.5ZM296.52 70.9V73.52H293.34V70.9H296.52ZM290.3 76.68V84.5H287.12V76.68H285.56V74.58H287.12C287.12 74.52 287.12 73.8 287.12 73.64C287.14 71.7 288.08 70.62 290.72 70.62C291.2 70.62 291.84 70.66 292.6 70.8V72.8C292.24 72.76 291.86 72.76 291.62 72.76C290.48 72.76 290.28 73.16 290.28 73.94C290.28 74.22 290.28 74.42 290.28 74.58H292.38V76.68H290.3ZM296.5 74.58V84.5H293.36V74.58H296.5ZM303.467 84.66C300.487 84.66 298.327 82.7 298.327 79.68C298.327 76.48 300.687 74.4 303.447 74.4C306.547 74.4 308.367 76.44 308.447 79.52C308.447 79.74 308.447 79.9 308.427 80.12H301.567C301.607 81.9 302.527 82.68 303.747 82.68C304.747 82.68 305.387 82.18 305.747 81.2L308.327 81.54C307.667 83.42 306.027 84.66 303.467 84.66ZM301.607 78.5H305.327C305.227 77.16 304.647 76.34 303.487 76.34C302.487 76.34 301.687 77.14 301.607 78.5ZM313.336 84.5H310.196V74.58H313.156V76.66C313.616 75.48 314.796 74.4 316.256 74.4C316.556 74.4 316.816 74.42 316.976 74.46V76.96C316.776 76.92 316.336 76.9 316.076 76.9C314.896 76.9 313.896 77.5 313.336 78.56V84.5Z" fill="#B623A1"/>
<path d="M366.58 84.7C363.04 84.7 361.48 83.18 360.7 81.16L363.3 80.16C363.84 81.46 364.7 82.24 366.52 82.24C367.84 82.24 368.68 81.7 368.68 80.82C368.68 79.6 367.22 79.32 365.6 78.92C363.54 78.42 361.18 77.72 361.18 74.78C361.18 72.52 363.12 70.92 366.34 70.92C369.16 70.92 370.8 72.16 371.56 74.2L368.78 75.04C368.4 73.94 367.52 73.44 366.3 73.44C365.2 73.44 364.46 73.9 364.46 74.68C364.46 75.86 365.76 76.08 367.6 76.52C369.82 77.04 371.9 77.86 371.9 80.64C371.9 83 370.16 84.7 366.58 84.7ZM377.535 84.64C375.275 84.64 374.075 83.58 374.075 81.48V76.68H372.495V74.58H374.095L374.295 71.54H377.095V74.58H379.135V76.68H377.095V80.98C377.095 81.76 377.415 82.2 378.155 82.3C378.535 82.34 378.915 82.34 379.335 82.3V84.52C378.855 84.58 378.155 84.64 377.535 84.64ZM383.475 84.62C381.635 84.62 380.415 83.58 380.415 81.9C380.415 79.7 382.395 78.6 385.855 78.26C386.235 78.22 386.635 78.18 387.055 78.16C387.055 78.06 387.035 77.76 387.035 77.68C386.975 76.9 386.515 76.42 385.435 76.42C384.275 76.42 383.715 76.82 383.515 77.66L380.675 77.4C381.155 75.42 382.815 74.4 385.735 74.4C389.075 74.4 390.035 75.84 390.035 77.98V82.56C390.035 83.14 390.075 84.12 390.255 84.5H387.295C387.175 84.3 387.135 83.78 387.135 83.22C386.275 84.1 385.235 84.62 383.475 84.62ZM384.875 82.7C385.895 82.7 386.635 82.1 387.055 81.46V79.72C386.675 79.74 386.315 79.78 385.995 79.84C384.475 80.1 383.615 80.68 383.615 81.62C383.615 82.36 384.095 82.7 384.875 82.7ZM396.226 84.64C393.966 84.64 392.766 83.58 392.766 81.48V76.68H391.186V74.58H392.786L392.986 71.54H395.786V74.58H397.826V76.68H395.786V80.98C395.786 81.76 396.106 82.2 396.846 82.3C397.226 82.34 397.606 82.34 398.026 82.3V84.52C397.546 84.58 396.846 84.64 396.226 84.64ZM404.013 84.66C401.033 84.66 398.873 82.7 398.873 79.68C398.873 76.48 401.233 74.4 403.993 74.4C407.093 74.4 408.913 76.44 408.993 79.52C408.993 79.74 408.993 79.9 408.973 80.12H402.113C402.153 81.9 403.073 82.68 404.293 82.68C405.293 82.68 405.933 82.18 406.293 81.2L408.873 81.54C408.213 83.42 406.573 84.66 404.013 84.66ZM402.153 78.5H405.873C405.773 77.16 405.193 76.34 404.033 76.34C403.033 76.34 402.233 77.14 402.153 78.5Z" fill="#285115"/>
<path d="M3.72 146H1.424V136.662H5.904C7.948 136.662 9.138 137.74 9.138 139.364C9.138 140.582 8.592 141.352 7.458 141.772L9.208 146H6.758L5.26 142.192H3.72V146ZM3.72 138.37V140.568H5.33C6.254 140.568 6.744 140.162 6.744 139.448C6.744 138.79 6.282 138.37 5.442 138.37H3.72ZM13.4851 146.112C11.4131 146.112 9.95711 144.614 9.95711 142.584C9.95711 140.428 11.4691 138.93 13.5271 138.93C15.6831 138.93 17.1111 140.386 17.1111 142.542C17.1111 144.572 15.6551 146.112 13.4851 146.112ZM13.5551 144.712C14.3531 144.712 14.7871 144.04 14.7871 142.514C14.7871 141.058 14.3951 140.372 13.5411 140.372C12.7151 140.372 12.2671 141.044 12.2671 142.514C12.2671 144.026 12.6871 144.712 13.5551 144.712ZM20.5592 146H18.3752V136.662H20.5592V146ZM25.436 146.112C23.35 146.112 21.838 144.74 21.838 142.626C21.838 140.386 23.49 138.93 25.422 138.93C27.592 138.93 28.866 140.358 28.922 142.514C28.922 142.668 28.922 142.78 28.908 142.934H24.106C24.134 144.18 24.778 144.726 25.632 144.726C26.332 144.726 26.78 144.376 27.032 143.69L28.838 143.928C28.376 145.244 27.228 146.112 25.436 146.112ZM24.134 141.8H26.738C26.668 140.862 26.262 140.288 25.45 140.288C24.75 140.288 24.19 140.848 24.134 141.8ZM35.6412 142.332H32.5332V141.324H35.6412V142.332ZM41.2013 146H40.0393V136.662H41.2013V146ZM45.359 146.098C44.197 146.098 43.525 145.524 43.525 144.096V139.966H42.405V139.098H43.539L43.595 137.292H44.589V139.098H46.143V139.966H44.589V144.152C44.589 144.88 44.967 145.202 45.555 145.216C45.877 145.216 46.283 145.174 46.535 145.132V145.986C46.157 146.056 45.737 146.098 45.359 146.098ZM49.9176 146.112C48.1676 146.112 47.0896 145.398 46.7536 144.138L47.7336 143.942C47.9576 144.754 48.7276 145.3 49.9176 145.3C51.0096 145.3 51.6816 144.81 51.6816 144.082C51.6816 143.256 50.7576 143.088 49.7356 142.864C48.3216 142.598 47.1316 142.234 47.1316 140.876C47.1316 139.742 48.1536 138.972 49.6936 138.972C51.2476 138.972 52.1436 139.658 52.4936 140.736L51.5276 140.946C51.2616 140.218 50.6316 139.798 49.6936 139.798C48.7696 139.798 48.1396 140.176 48.1396 140.806C48.1396 141.562 48.9656 141.702 50.0716 141.94C51.4856 142.22 52.6896 142.612 52.6896 143.984C52.6896 145.258 51.5976 146.112 49.9176 146.112ZM60.6199 146.098C59.6119 146.098 58.8839 145.594 58.4639 145.09V148.338H57.3859V139.098H58.4219V140.316C58.8419 139.644 59.5419 138.972 60.6479 138.972C62.1879 138.972 63.2519 140.05 63.2519 142.542C63.2519 144.88 62.0059 146.098 60.6199 146.098ZM60.3259 145.3C61.4179 145.3 62.1179 144.558 62.1179 142.57C62.1179 140.722 61.5859 139.868 60.3959 139.868C59.5979 139.868 58.9539 140.288 58.4639 141.254V144.166C58.8279 144.684 59.3319 145.3 60.3259 145.3ZM66.9371 146.112C65.6911 146.112 64.8091 145.468 64.8091 143.732V139.098H65.9011V143.76C65.9011 144.852 66.3071 145.286 67.2731 145.286C68.0431 145.286 68.7151 144.838 69.1771 143.998V139.098H70.2551V146H69.2471V144.824C68.7011 145.706 67.8611 146.112 66.9371 146.112ZM73.435 146H72.343V139.098H73.379V140.582C73.827 139.77 74.639 138.972 75.619 138.972C75.745 138.972 75.829 138.972 75.941 138.986V139.98C75.857 139.966 75.717 139.966 75.633 139.966C74.821 139.966 74.009 140.526 73.435 141.492V146ZM80.2664 146.098C79.2584 146.098 78.5304 145.594 78.1104 145.09V148.338H77.0324V139.098H78.0684V140.316C78.4884 139.644 79.1884 138.972 80.2944 138.972C81.8344 138.972 82.8984 140.05 82.8984 142.542C82.8984 144.88 81.6524 146.098 80.2664 146.098ZM79.9724 145.3C81.0644 145.3 81.7644 144.558 81.7644 142.57C81.7644 140.722 81.2324 139.868 80.0424 139.868C79.2444 139.868 78.6004 140.288 78.1104 141.254V144.166C78.4744 144.684 78.9784 145.3 79.9724 145.3ZM87.0456 146.112C85.2676 146.112 83.9516 144.698 83.9516 142.514C83.9516 140.358 85.3516 138.972 87.0456 138.972C88.9356 138.972 90.1676 140.4 90.1676 142.528C90.1676 144.698 88.7536 146.112 87.0456 146.112ZM87.0316 145.3C88.1656 145.3 89.0196 144.376 89.0196 142.514C89.0196 140.722 88.1796 139.826 87.0316 139.826C85.9396 139.826 85.0996 140.75 85.0996 142.528C85.0996 144.264 85.8696 145.3 87.0316 145.3ZM93.9137 146.112C92.1637 146.112 91.0857 145.398 90.7497 144.138L91.7297 143.942C91.9537 144.754 92.7237 145.3 93.9137 145.3C95.0057 145.3 95.6777 144.81 95.6777 144.082C95.6777 143.256 94.7537 143.088 93.7317 142.864C92.3177 142.598 91.1277 142.234 91.1277 140.876C91.1277 139.742 92.1497 138.972 93.6897 138.972C95.2437 138.972 96.1397 139.658 96.4897 140.736L95.5237 140.946C95.2577 140.218 94.6277 139.798 93.6897 139.798C92.7657 139.798 92.1357 140.176 92.1357 140.806C92.1357 141.562 92.9617 141.702 94.0677 141.94C95.4817 142.22 96.6857 142.612 96.6857 143.984C96.6857 145.258 95.5937 146.112 93.9137 146.112ZM100.801 146.112C98.9115 146.112 97.6375 144.726 97.6375 142.668C97.6375 140.33 99.0515 138.972 100.829 138.972C102.635 138.972 103.685 140.288 103.825 142.206C103.839 142.36 103.825 142.514 103.839 142.668H98.7435C98.7715 144.404 99.5555 145.286 100.899 145.286C101.655 145.286 102.369 144.95 102.761 143.928L103.713 144.068C103.237 145.398 102.173 146.112 100.801 146.112ZM98.7855 141.926H102.733C102.621 140.596 101.935 139.798 100.829 139.798C99.7235 139.798 98.8695 140.624 98.7855 141.926ZM110.617 146H109.693L107.607 139.098H108.713L110.085 143.816L110.239 144.446L110.407 143.816L111.723 139.098H112.619L114.033 143.858L114.187 144.474L114.369 143.886L115.713 139.098H116.651L114.593 146H113.669L112.269 141.324L112.101 140.694L111.961 141.296L110.617 146ZM118.923 137.88H117.733V136.648H118.923V137.88ZM118.881 146H117.789V139.098H118.881V146ZM122.933 146.098C121.771 146.098 121.099 145.524 121.099 144.096V139.966H119.979V139.098H121.113L121.169 137.292H122.163V139.098H123.717V139.966H122.163V144.152C122.163 144.88 122.541 145.202 123.129 145.216C123.451 145.216 123.857 145.174 124.109 145.132V145.986C123.731 146.056 123.311 146.098 122.933 146.098ZM126.4 146H125.308V136.662H126.358V140.456C126.806 139.742 127.646 138.972 128.934 138.972C130.334 138.972 130.838 139.896 130.838 141.03V146H129.746V141.114C129.746 140.274 129.326 139.882 128.626 139.882C127.66 139.882 126.974 140.456 126.4 141.282V146ZM134.071 137.88H132.881V136.648H134.071V137.88ZM134.029 146H132.937V139.098H134.029V146ZM137.242 146H136.15V139.098H137.186V140.47C137.662 139.784 138.516 138.972 139.748 138.972C141.036 138.972 141.666 139.7 141.666 141.114V146H140.574V141.1C140.574 140.274 140.21 139.882 139.426 139.882C138.544 139.882 137.816 140.442 137.242 141.268V146ZM148.896 146.098C147.734 146.098 147.062 145.524 147.062 144.096V139.966H145.942V139.098H147.076L147.132 137.292H148.126V139.098H149.68V139.966H148.126V144.152C148.126 144.88 148.504 145.202 149.092 145.216C149.414 145.216 149.82 145.174 150.072 145.132V145.986C149.694 146.056 149.274 146.098 148.896 146.098ZM152.363 146H151.271V136.662H152.321V140.456C152.769 139.742 153.609 138.972 154.897 138.972C156.297 138.972 156.801 139.896 156.801 141.03V146H155.709V141.114C155.709 140.274 155.289 139.882 154.589 139.882C153.623 139.882 152.937 140.456 152.363 141.282V146ZM161.518 146.112C159.628 146.112 158.354 144.726 158.354 142.668C158.354 140.33 159.768 138.972 161.546 138.972C163.352 138.972 164.402 140.288 164.542 142.206C164.556 142.36 164.542 142.514 164.556 142.668H159.46C159.488 144.404 160.272 145.286 161.616 145.286C162.372 145.286 163.086 144.95 163.478 143.928L164.43 144.068C163.954 145.398 162.89 146.112 161.518 146.112ZM159.502 141.926H163.45C163.338 140.596 162.652 139.798 161.546 139.798C160.44 139.798 159.586 140.624 159.502 141.926ZM171.39 146.112C170.144 146.112 169.262 145.468 169.262 143.732V139.098H170.354V143.76C170.354 144.852 170.76 145.286 171.726 145.286C172.496 145.286 173.168 144.838 173.63 143.998V139.098H174.708V146H173.7V144.824C173.154 145.706 172.314 146.112 171.39 146.112ZM177.958 137.88H176.768V136.648H177.958V137.88ZM177.916 146H176.824V139.098H177.916V146ZM181.478 146H179.952V144.474H181.478V146Z" fill="#0F545F"/>
<path d="M3.216 193H1.438V183.662H4.518L6.352 189.43L8.116 183.662H11.21V193H9.054V185.832L6.884 193H5.414L3.216 185.832V193ZM16.0691 193.112C13.9971 193.112 12.5411 191.614 12.5411 189.584C12.5411 187.428 14.0531 185.93 16.1111 185.93C18.2671 185.93 19.6951 187.386 19.6951 189.542C19.6951 191.572 18.2391 193.112 16.0691 193.112ZM16.1391 191.712C16.9371 191.712 17.3711 191.04 17.3711 189.514C17.3711 188.058 16.9791 187.372 16.1251 187.372C15.2991 187.372 14.8511 188.044 14.8511 189.514C14.8511 191.026 15.2711 191.712 16.1391 191.712ZM23.0311 193.126C21.5331 193.126 20.5531 191.95 20.5531 189.5C20.5531 187.288 21.6591 185.93 23.3111 185.93C24.1371 185.93 24.7251 186.294 25.1311 186.77V183.662H27.2871V193H25.2151V192.006C24.6551 192.748 24.0671 193.126 23.0311 193.126ZM23.9411 191.684C24.5571 191.684 24.9071 191.292 25.1311 190.844V188.044C24.8931 187.694 24.5711 187.316 23.9551 187.316C23.1711 187.316 22.8071 187.876 22.8071 189.514C22.8071 191.194 23.2411 191.684 23.9411 191.684ZM31.1552 185.314H28.9432V183.48H31.1552V185.314ZM31.1412 193H28.9572V186.056H31.1412V193ZM39.714 183.48V185.314H37.488V183.48H39.714ZM35.36 187.526V193H33.134V187.526H32.042V186.056H33.134C33.134 186.014 33.134 185.51 33.134 185.398C33.148 184.04 33.806 183.284 35.654 183.284C35.99 183.284 36.438 183.312 36.97 183.41V184.81C36.718 184.782 36.452 184.782 36.284 184.782C35.486 184.782 35.346 185.062 35.346 185.608C35.346 185.804 35.346 185.944 35.346 186.056H36.816V187.526H35.36ZM39.7 186.056V193H37.502V186.056H39.7ZM44.5766 193.112C42.4906 193.112 40.9786 191.74 40.9786 189.626C40.9786 187.386 42.6306 185.93 44.5626 185.93C46.7326 185.93 48.0066 187.358 48.0626 189.514C48.0626 189.668 48.0626 189.78 48.0486 189.934H43.2466C43.2746 191.18 43.9186 191.726 44.7726 191.726C45.4726 191.726 45.9206 191.376 46.1726 190.69L47.9786 190.928C47.5166 192.244 46.3686 193.112 44.5766 193.112ZM43.2746 188.8H45.8786C45.8086 187.862 45.4026 187.288 44.5906 187.288C43.8906 187.288 43.3306 187.848 43.2746 188.8ZM51.4853 193H49.2873V186.056H51.3593V187.512C51.6813 186.686 52.5073 185.93 53.5293 185.93C53.7393 185.93 53.9213 185.944 54.0333 185.972V187.722C53.8933 187.694 53.5853 187.68 53.4033 187.68C52.5773 187.68 51.8773 188.1 51.4853 188.842V193ZM60.5702 183.662H62.0542C60.8922 185.426 60.2902 187.246 60.2902 189.444C60.2902 191.978 61.1722 193.868 62.0542 195.338H60.5842C59.3942 193.742 58.4702 191.824 58.4702 189.416C58.4702 187.358 59.1702 185.398 60.5702 183.662ZM66.9879 193.14C64.4119 193.14 62.7179 191.208 62.7179 188.31C62.7179 185.384 64.4119 183.48 66.9319 183.48C69.5079 183.48 71.1879 185.286 71.1879 188.296C71.1879 191.152 69.4379 193.14 66.9879 193.14ZM66.9739 191.39C68.1359 191.39 68.7239 190.354 68.7239 188.31C68.7239 186.35 68.2619 185.23 66.9599 185.23C65.6999 185.23 65.1819 186.364 65.1819 188.338C65.1819 190.452 65.8399 191.39 66.9739 191.39ZM76.5484 193.098C75.6384 193.098 75.1344 192.72 74.6584 192.3V195.24H72.4884V186.056H74.5464V187.218C74.9804 186.602 75.5544 185.93 76.7304 185.93C78.2284 185.93 79.1944 187.022 79.1944 189.514C79.1944 191.824 78.0604 193.098 76.5484 193.098ZM75.8204 191.782C76.5484 191.782 76.9404 191.334 76.9404 189.612C76.9404 187.96 76.6044 187.442 75.8344 187.442C75.2884 187.442 74.9104 187.778 74.6444 188.324V191.082C74.8964 191.376 75.2044 191.782 75.8204 191.782ZM83.2448 193.098C81.6628 193.098 80.8228 192.356 80.8228 190.886V187.526H79.7168V186.056H80.8368L80.9768 183.928H82.9368V186.056H84.3648V187.526H82.9368V190.536C82.9368 191.082 83.1608 191.39 83.6788 191.46C83.9448 191.488 84.2108 191.488 84.5048 191.46V193.014C84.1688 193.056 83.6788 193.098 83.2448 193.098ZM87.7157 185.314H85.5037V183.48H87.7157V185.314ZM87.7017 193H85.5177V186.056H87.7017V193ZM92.5085 193.112C90.4365 193.112 88.9805 191.614 88.9805 189.584C88.9805 187.428 90.4925 185.93 92.5505 185.93C94.7065 185.93 96.1345 187.386 96.1345 189.542C96.1345 191.572 94.6785 193.112 92.5085 193.112ZM92.5785 191.712C93.3765 191.712 93.8105 191.04 93.8105 189.514C93.8105 188.058 93.4185 187.372 92.5645 187.372C91.7385 187.372 91.2905 188.044 91.2905 189.514C91.2905 191.026 91.7105 191.712 92.5785 191.712ZM99.5546 193H97.3846V186.056H99.4706V187.204C99.8766 186.63 100.535 185.93 101.711 185.93C103.139 185.93 103.713 186.784 103.713 188.114V193H101.543V188.184C101.543 187.75 101.319 187.428 100.787 187.428C100.213 187.428 99.8346 187.82 99.5546 188.24V193ZM107.022 193.084C105.734 193.084 104.88 192.356 104.88 191.18C104.88 189.64 106.266 188.87 108.688 188.632C108.954 188.604 109.234 188.576 109.528 188.562C109.528 188.492 109.514 188.282 109.514 188.226C109.472 187.68 109.15 187.344 108.394 187.344C107.582 187.344 107.19 187.624 107.05 188.212L105.062 188.03C105.398 186.644 106.56 185.93 108.604 185.93C110.942 185.93 111.614 186.938 111.614 188.436V191.642C111.614 192.048 111.642 192.734 111.768 193H109.696C109.612 192.86 109.584 192.496 109.584 192.104C108.982 192.72 108.254 193.084 107.022 193.084ZM108.002 191.74C108.716 191.74 109.234 191.32 109.528 190.872V189.654C109.262 189.668 109.01 189.696 108.786 189.738C107.722 189.92 107.12 190.326 107.12 190.984C107.12 191.502 107.456 191.74 108.002 191.74ZM115.456 193H113.272V183.662H115.456V193ZM116.51 183.662H117.98C119.142 185.244 120.094 187.05 120.094 189.486C120.094 191.558 119.394 193.602 117.994 195.338H116.51C117.686 193.546 118.274 191.614 118.274 189.458C118.274 186.952 117.42 185.146 116.51 183.662ZM127.079 189.332H123.971V188.324H127.079V189.332ZM131.393 193H130.343L133.367 183.662H134.711L137.749 193H136.503L135.621 190.256H132.275L131.393 193ZM133.927 184.964L132.555 189.332H135.341L133.927 184.964ZM144.618 193H143.512L141.034 186.098H142.182L143.736 190.55C143.89 190.984 144.1 191.628 144.142 191.824C144.212 191.642 144.408 190.97 144.576 190.564L146.186 186.098H147.138L144.618 193ZM149.71 193.084C148.492 193.084 147.512 192.44 147.512 191.18C147.512 189.682 148.884 188.94 150.774 188.716C151.334 188.646 151.796 188.646 152.342 188.632C152.342 188.394 152.342 188.156 152.314 187.988C152.23 187.232 151.782 186.826 150.62 186.826C149.5 186.826 148.912 187.134 148.688 188.016L147.68 187.904C147.932 186.644 149.01 185.972 150.648 185.972C152.608 185.972 153.364 186.784 153.364 188.52V191.656C153.364 192.09 153.406 192.566 153.518 193H152.482C152.398 192.762 152.342 192.188 152.356 191.838C151.81 192.594 150.998 193.084 149.71 193.084ZM150.032 192.286C151.348 192.286 152.048 191.488 152.342 190.774V189.346C151.852 189.346 151.348 189.346 150.914 189.402C149.416 189.598 148.646 190.2 148.646 191.068C148.646 191.866 149.108 192.286 150.032 192.286ZM156.533 193H155.441V186.098H156.477V187.582C156.925 186.77 157.737 185.972 158.717 185.972C158.843 185.972 158.927 185.972 159.039 185.986V186.98C158.955 186.966 158.815 186.966 158.731 186.966C157.919 186.966 157.107 187.526 156.533 188.492V193ZM161.292 184.88H160.102V183.648H161.292V184.88ZM161.25 193H160.158V186.098H161.25V193ZM165.022 193.084C163.804 193.084 162.824 192.44 162.824 191.18C162.824 189.682 164.196 188.94 166.086 188.716C166.646 188.646 167.108 188.646 167.654 188.632C167.654 188.394 167.654 188.156 167.626 187.988C167.542 187.232 167.094 186.826 165.932 186.826C164.812 186.826 164.224 187.134 164 188.016L162.992 187.904C163.244 186.644 164.322 185.972 165.96 185.972C167.92 185.972 168.676 186.784 168.676 188.52V191.656C168.676 192.09 168.718 192.566 168.83 193H167.794C167.71 192.762 167.654 192.188 167.668 191.838C167.122 192.594 166.31 193.084 165.022 193.084ZM165.344 192.286C166.66 192.286 167.36 191.488 167.654 190.774V189.346C167.164 189.346 166.66 189.346 166.226 189.402C164.728 189.598 163.958 190.2 163.958 191.068C163.958 191.866 164.42 192.286 165.344 192.286ZM171.845 193H170.753V186.098H171.789V187.47C172.265 186.784 173.119 185.972 174.351 185.972C175.639 185.972 176.269 186.7 176.269 188.114V193H175.177V188.1C175.177 187.274 174.813 186.882 174.029 186.882C173.147 186.882 172.419 187.442 171.845 188.268V193ZM180.273 193.098C179.111 193.098 178.439 192.524 178.439 191.096V186.966H177.319V186.098H178.453L178.509 184.292H179.503V186.098H181.057V186.966H179.503V191.152C179.503 191.88 179.881 192.202 180.469 192.216C180.791 192.216 181.197 192.174 181.449 192.132V192.986C181.071 193.056 180.651 193.098 180.273 193.098ZM183.205 194.75H182.463L183.303 193H182.715V191.446H184.227V192.846L183.205 194.75ZM191.906 193.112C190.212 193.112 188.938 191.824 188.938 189.514C188.938 187.512 190.1 185.972 191.85 185.972C193.32 185.972 194.244 186.77 194.552 188.464L193.53 188.59C193.362 187.456 192.816 186.84 191.864 186.84C190.758 186.84 190.086 187.82 190.086 189.542C190.086 191.446 190.898 192.3 191.934 192.3C192.844 192.3 193.376 191.81 193.586 190.662L194.538 190.76C194.3 192.314 193.278 193.112 191.906 193.112ZM197.083 193H195.991V183.662H197.041V187.456C197.489 186.742 198.329 185.972 199.617 185.972C201.017 185.972 201.521 186.896 201.521 188.03V193H200.429V188.114C200.429 187.274 200.009 186.882 199.309 186.882C198.343 186.882 197.657 187.456 197.083 188.282V193ZM205.245 193.084C204.027 193.084 203.047 192.44 203.047 191.18C203.047 189.682 204.419 188.94 206.309 188.716C206.869 188.646 207.331 188.646 207.877 188.632C207.877 188.394 207.877 188.156 207.849 187.988C207.765 187.232 207.317 186.826 206.155 186.826C205.035 186.826 204.447 187.134 204.223 188.016L203.215 187.904C203.467 186.644 204.545 185.972 206.183 185.972C208.143 185.972 208.899 186.784 208.899 188.52V191.656C208.899 192.09 208.941 192.566 209.053 193H208.017C207.933 192.762 207.877 192.188 207.891 191.838C207.345 192.594 206.533 193.084 205.245 193.084ZM205.567 192.286C206.883 192.286 207.583 191.488 207.877 190.774V189.346C207.387 189.346 206.883 189.346 206.449 189.402C204.951 189.598 204.181 190.2 204.181 191.068C204.181 191.866 204.643 192.286 205.567 192.286ZM212.068 193H210.976V186.098H212.012V187.47C212.488 186.784 213.342 185.972 214.574 185.972C215.862 185.972 216.492 186.7 216.492 188.114V193H215.4V188.1C215.4 187.274 215.036 186.882 214.252 186.882C213.37 186.882 212.642 187.442 212.068 188.268V193ZM221.057 195.604C218.929 195.604 217.809 195.016 217.809 193.952C217.809 193.266 218.313 192.748 219.153 192.538C218.453 192.342 218.173 191.95 218.173 191.418C218.173 190.83 218.649 190.41 219.265 190.242C218.593 189.892 218.257 189.178 218.257 188.338C218.257 186.924 219.447 185.972 220.833 185.972C221.351 185.972 221.855 186.084 222.275 186.308C222.443 185.552 222.821 185.076 223.997 185.09C224.039 185.09 224.123 185.09 224.165 185.09L224.179 186C224.095 185.986 224.025 185.972 223.941 185.972C223.241 185.958 222.947 186.252 222.835 186.756C223.199 187.078 223.465 187.624 223.465 188.338C223.465 189.71 222.513 190.704 220.945 190.704C220.497 190.704 220.049 190.606 219.937 190.578C219.573 190.578 219.181 190.844 219.181 191.264C219.181 191.88 220.049 191.88 221.449 191.922C223.647 191.964 224.431 192.426 224.431 193.56C224.431 194.764 223.297 195.604 221.057 195.604ZM220.889 189.976C221.869 189.976 222.443 189.388 222.443 188.352C222.443 187.512 221.925 186.756 220.889 186.756C219.867 186.756 219.335 187.47 219.335 188.338C219.335 189.416 219.951 189.976 220.889 189.976ZM220.973 194.876C222.513 194.876 223.395 194.4 223.395 193.7C223.395 193 222.877 192.846 219.769 192.776C219.223 192.93 218.803 193.21 218.803 193.826C218.803 194.484 219.433 194.876 220.973 194.876ZM228.018 193.112C226.128 193.112 224.854 191.726 224.854 189.668C224.854 187.33 226.268 185.972 228.046 185.972C229.852 185.972 230.902 187.288 231.042 189.206C231.056 189.36 231.042 189.514 231.056 189.668H225.96C225.988 191.404 226.772 192.286 228.116 192.286C228.872 192.286 229.586 191.95 229.978 190.928L230.93 191.068C230.454 192.398 229.39 193.112 228.018 193.112ZM226.002 188.926H229.95C229.838 187.596 229.152 186.798 228.046 186.798C226.94 186.798 226.086 187.624 226.002 188.926ZM232.998 194.75H232.256L233.096 193H232.508V191.446H234.02V192.846L232.998 194.75ZM241.825 193.112C240.047 193.112 238.731 191.698 238.731 189.514C238.731 187.358 240.131 185.972 241.825 185.972C243.715 185.972 244.947 187.4 244.947 189.528C244.947 191.698 243.533 193.112 241.825 193.112ZM241.811 192.3C242.945 192.3 243.799 191.376 243.799 189.514C243.799 187.722 242.959 186.826 241.811 186.826C240.719 186.826 239.879 187.75 239.879 189.528C239.879 191.264 240.649 192.3 241.811 192.3ZM247.601 193H246.509V186.098H247.545V187.582C247.993 186.77 248.805 185.972 249.785 185.972C249.911 185.972 249.995 185.972 250.107 185.986V186.98C250.023 186.966 249.883 186.966 249.799 186.966C248.987 186.966 248.175 187.526 247.601 188.492V193ZM256.609 193.112C254.859 193.112 253.781 192.398 253.445 191.138L254.425 190.942C254.649 191.754 255.419 192.3 256.609 192.3C257.701 192.3 258.373 191.81 258.373 191.082C258.373 190.256 257.449 190.088 256.427 189.864C255.013 189.598 253.823 189.234 253.823 187.876C253.823 186.742 254.845 185.972 256.385 185.972C257.939 185.972 258.835 186.658 259.185 187.736L258.219 187.946C257.953 187.218 257.323 186.798 256.385 186.798C255.461 186.798 254.831 187.176 254.831 187.806C254.831 188.562 255.657 188.702 256.763 188.94C258.177 189.22 259.381 189.612 259.381 190.984C259.381 192.258 258.289 193.112 256.609 193.112ZM262.951 193.112C261.705 193.112 260.823 192.468 260.823 190.732V186.098H261.915V190.76C261.915 191.852 262.321 192.286 263.287 192.286C264.057 192.286 264.729 191.838 265.191 190.998V186.098H266.269V193H265.261V191.824C264.715 192.706 263.875 193.112 262.951 193.112ZM271.535 193.098C270.499 193.098 269.757 192.636 269.309 191.852L268.959 193H268.357V183.662H269.393V187.414C269.743 186.658 270.625 185.972 271.619 185.972C273.271 185.972 274.237 187.218 274.237 189.528C274.237 191.908 273.103 193.098 271.535 193.098ZM271.325 192.314C272.501 192.314 273.117 191.488 273.117 189.556C273.117 187.75 272.529 186.84 271.367 186.84C270.359 186.84 269.785 187.582 269.407 188.38V190.046C269.407 191.488 270.219 192.314 271.325 192.314ZM278.005 193.112C276.255 193.112 275.177 192.398 274.841 191.138L275.821 190.942C276.045 191.754 276.815 192.3 278.005 192.3C279.097 192.3 279.769 191.81 279.769 191.082C279.769 190.256 278.845 190.088 277.823 189.864C276.409 189.598 275.219 189.234 275.219 187.876C275.219 186.742 276.241 185.972 277.781 185.972C279.335 185.972 280.231 186.658 280.581 187.736L279.615 187.946C279.349 187.218 278.719 186.798 277.781 186.798C276.857 186.798 276.227 187.176 276.227 187.806C276.227 188.562 277.053 188.702 278.159 188.94C279.573 189.22 280.777 189.612 280.777 190.984C280.777 192.258 279.685 193.112 278.005 193.112ZM284.893 193.112C283.003 193.112 281.729 191.726 281.729 189.668C281.729 187.33 283.143 185.972 284.921 185.972C286.727 185.972 287.777 187.288 287.917 189.206C287.931 189.36 287.917 189.514 287.931 189.668H282.835C282.863 191.404 283.647 192.286 284.991 192.286C285.747 192.286 286.461 191.95 286.853 190.928L287.805 191.068C287.329 192.398 286.265 193.112 284.893 193.112ZM282.877 188.926H286.825C286.713 187.596 286.027 186.798 284.921 186.798C283.815 186.798 282.961 187.624 282.877 188.926ZM291.371 193.098C290.209 193.098 289.537 192.524 289.537 191.096V186.966H288.417V186.098H289.551L289.607 184.292H290.601V186.098H292.155V186.966H290.601V191.152C290.601 191.88 290.979 192.202 291.567 192.216C291.889 192.216 292.295 192.174 292.547 192.132V192.986C292.169 193.056 291.749 193.098 291.371 193.098ZM299.534 193.112C297.756 193.112 296.44 191.698 296.44 189.514C296.44 187.358 297.84 185.972 299.534 185.972C301.424 185.972 302.656 187.4 302.656 189.528C302.656 191.698 301.242 193.112 299.534 193.112ZM299.52 192.3C300.654 192.3 301.508 191.376 301.508 189.514C301.508 187.722 300.668 186.826 299.52 186.826C298.428 186.826 297.588 187.75 297.588 189.528C297.588 191.264 298.358 192.3 299.52 192.3ZM305.408 193H304.33V186.924H303.112V186.098H304.33C304.33 186 304.33 185.51 304.33 185.412C304.33 184.054 305.058 183.396 306.5 183.396C306.766 183.396 307.228 183.438 307.494 183.48V184.348C307.2 184.306 306.766 184.278 306.584 184.278C305.744 184.278 305.408 184.67 305.408 185.44C305.408 185.762 305.408 186.056 305.408 186.098H307.088V186.924H305.408V193ZM313.232 193.098C312.07 193.098 311.398 192.524 311.398 191.096V186.966H310.278V186.098H311.412L311.468 184.292H312.462V186.098H314.016V186.966H312.462V191.152C312.462 191.88 312.84 192.202 313.428 192.216C313.75 192.216 314.156 192.174 314.408 192.132V192.986C314.03 193.056 313.61 193.098 313.232 193.098ZM316.699 193H315.607V183.662H316.657V187.456C317.105 186.742 317.945 185.972 319.233 185.972C320.633 185.972 321.137 186.896 321.137 188.03V193H320.045V188.114C320.045 187.274 319.625 186.882 318.925 186.882C317.959 186.882 317.273 187.456 316.699 188.282V193ZM325.854 193.112C323.964 193.112 322.69 191.726 322.69 189.668C322.69 187.33 324.104 185.972 325.882 185.972C327.688 185.972 328.738 187.288 328.878 189.206C328.892 189.36 328.878 189.514 328.892 189.668H323.796C323.824 191.404 324.608 192.286 325.952 192.286C326.708 192.286 327.422 191.95 327.814 190.928L328.766 191.068C328.29 192.398 327.226 193.112 325.854 193.112ZM323.838 188.926H327.786C327.674 187.596 326.988 186.798 325.882 186.798C324.776 186.798 323.922 187.624 323.838 188.926ZM334.718 193H333.626V186.098H334.662V187.582C335.11 186.77 335.922 185.972 336.902 185.972C337.028 185.972 337.112 185.972 337.224 185.986V186.98C337.14 186.966 337 186.966 336.916 186.966C336.104 186.966 335.292 187.526 334.718 188.492V193ZM340.878 193.112C339.1 193.112 337.784 191.698 337.784 189.514C337.784 187.358 339.184 185.972 340.878 185.972C342.768 185.972 344 187.4 344 189.528C344 191.698 342.586 193.112 340.878 193.112ZM340.864 192.3C341.998 192.3 342.852 191.376 342.852 189.514C342.852 187.722 342.012 186.826 340.864 186.826C339.772 186.826 338.932 187.75 338.932 189.528C338.932 191.264 339.702 192.3 340.864 192.3ZM346.682 193H345.59V183.662H346.682V193ZM351.448 193.112C349.558 193.112 348.284 191.726 348.284 189.668C348.284 187.33 349.698 185.972 351.476 185.972C353.282 185.972 354.332 187.288 354.472 189.206C354.486 189.36 354.472 189.514 354.486 189.668H349.39C349.418 191.404 350.202 192.286 351.546 192.286C352.302 192.286 353.016 191.95 353.408 190.928L354.36 191.068C353.884 192.398 352.82 193.112 351.448 193.112ZM349.432 188.926H353.38C353.268 187.596 352.582 186.798 351.476 186.798C350.37 186.798 349.516 187.624 349.432 188.926Z" fill="#881B79"/>
<path d="M4.756 240.14C2.278 240.14 1.186 239.076 0.64 237.662L2.46 236.962C2.838 237.872 3.44 238.418 4.714 238.418C5.638 238.418 6.226 238.04 6.226 237.424C6.226 236.57 5.204 236.374 4.07 236.094C2.628 235.744 0.976 235.254 0.976 233.196C0.976 231.614 2.334 230.494 4.588 230.494C6.562 230.494 7.71 231.362 8.242 232.79L6.296 233.378C6.03 232.608 5.414 232.258 4.56 232.258C3.79 232.258 3.272 232.58 3.272 233.126C3.272 233.952 4.182 234.106 5.47 234.414C7.024 234.778 8.48 235.352 8.48 237.298C8.48 238.95 7.262 240.14 4.756 240.14ZM12.4245 240.098C10.8425 240.098 10.0025 239.356 10.0025 237.886V234.526H8.8965V233.056H10.0165L10.1565 230.928H12.1165V233.056H13.5445V234.526H12.1165V237.536C12.1165 238.082 12.3405 238.39 12.8585 238.46C13.1245 238.488 13.3905 238.488 13.6845 238.46V240.014C13.3485 240.056 12.8585 240.098 12.4245 240.098ZM16.5822 240.084C15.2942 240.084 14.4402 239.356 14.4402 238.18C14.4402 236.64 15.8262 235.87 18.2482 235.632C18.5142 235.604 18.7942 235.576 19.0882 235.562C19.0882 235.492 19.0742 235.282 19.0742 235.226C19.0322 234.68 18.7102 234.344 17.9542 234.344C17.1422 234.344 16.7502 234.624 16.6102 235.212L14.6222 235.03C14.9582 233.644 16.1202 232.93 18.1642 232.93C20.5022 232.93 21.1742 233.938 21.1742 235.436V238.642C21.1742 239.048 21.2022 239.734 21.3282 240H19.2562C19.1722 239.86 19.1442 239.496 19.1442 239.104C18.5422 239.72 17.8142 240.084 16.5822 240.084ZM17.5622 238.74C18.2762 238.74 18.7942 238.32 19.0882 237.872V236.654C18.8222 236.668 18.5702 236.696 18.3462 236.738C17.2822 236.92 16.6802 237.326 16.6802 237.984C16.6802 238.502 17.0162 238.74 17.5622 238.74ZM25.5085 240.098C23.9265 240.098 23.0865 239.356 23.0865 237.886V234.526H21.9805V233.056H23.1005L23.2405 230.928H25.2005V233.056H26.6285V234.526H25.2005V237.536C25.2005 238.082 25.4245 238.39 25.9425 238.46C26.2085 238.488 26.4745 238.488 26.7685 238.46V240.014C26.4325 240.056 25.9425 240.098 25.5085 240.098ZM30.9594 240.112C28.8734 240.112 27.3614 238.74 27.3614 236.626C27.3614 234.386 29.0134 232.93 30.9454 232.93C33.1154 232.93 34.3894 234.358 34.4454 236.514C34.4454 236.668 34.4454 236.78 34.4314 236.934H29.6294C29.6574 238.18 30.3014 238.726 31.1554 238.726C31.8554 238.726 32.3034 238.376 32.5554 237.69L34.3614 237.928C33.8994 239.244 32.7514 240.112 30.9594 240.112ZM29.6574 235.8H32.2614C32.1914 234.862 31.7854 234.288 30.9734 234.288C30.2734 234.288 29.7134 234.848 29.6574 235.8ZM41.2518 230.662H42.7358C41.5738 232.426 40.9718 234.246 40.9718 236.444C40.9718 238.978 41.8538 240.868 42.7358 242.338H41.2658C40.0758 240.742 39.1518 238.824 39.1518 236.416C39.1518 234.358 39.8518 232.398 41.2518 230.662ZM47.6695 240.14C45.0935 240.14 43.3995 238.208 43.3995 235.31C43.3995 232.384 45.0935 230.48 47.6135 230.48C50.1895 230.48 51.8695 232.286 51.8695 235.296C51.8695 238.152 50.1195 240.14 47.6695 240.14ZM47.6555 238.39C48.8175 238.39 49.4055 237.354 49.4055 235.31C49.4055 233.35 48.9435 232.23 47.6415 232.23C46.3815 232.23 45.8635 233.364 45.8635 235.338C45.8635 237.452 46.5215 238.39 47.6555 238.39ZM57.2301 240.098C56.3201 240.098 55.8161 239.72 55.3401 239.3V242.24H53.1701V233.056H55.2281V234.218C55.6621 233.602 56.2361 232.93 57.4121 232.93C58.9101 232.93 59.8761 234.022 59.8761 236.514C59.8761 238.824 58.7421 240.098 57.2301 240.098ZM56.5021 238.782C57.2301 238.782 57.6221 238.334 57.6221 236.612C57.6221 234.96 57.2861 234.442 56.5161 234.442C55.9701 234.442 55.5921 234.778 55.3261 235.324V238.082C55.5781 238.376 55.8861 238.782 56.5021 238.782ZM63.9265 240.098C62.3445 240.098 61.5045 239.356 61.5045 237.886V234.526H60.3985V233.056H61.5185L61.6585 230.928H63.6185V233.056H65.0465V234.526H63.6185V237.536C63.6185 238.082 63.8425 238.39 64.3605 238.46C64.6265 238.488 64.8925 238.488 65.1865 238.46V240.014C64.8505 240.056 64.3605 240.098 63.9265 240.098ZM68.3974 232.314H66.1854V230.48H68.3974V232.314ZM68.3834 240H66.1994V233.056H68.3834V240ZM73.1902 240.112C71.1182 240.112 69.6622 238.614 69.6622 236.584C69.6622 234.428 71.1742 232.93 73.2322 232.93C75.3882 232.93 76.8162 234.386 76.8162 236.542C76.8162 238.572 75.3602 240.112 73.1902 240.112ZM73.2602 238.712C74.0582 238.712 74.4922 238.04 74.4922 236.514C74.4922 235.058 74.1002 234.372 73.2462 234.372C72.4202 234.372 71.9722 235.044 71.9722 236.514C71.9722 238.026 72.3922 238.712 73.2602 238.712ZM80.2362 240H78.0662V233.056H80.1522V234.204C80.5582 233.63 81.2162 232.93 82.3922 232.93C83.8202 232.93 84.3942 233.784 84.3942 235.114V240H82.2242V235.184C82.2242 234.75 82.0002 234.428 81.4682 234.428C80.8942 234.428 80.5162 234.82 80.2362 235.24V240ZM87.7033 240.084C86.4153 240.084 85.5613 239.356 85.5613 238.18C85.5613 236.64 86.9473 235.87 89.3693 235.632C89.6353 235.604 89.9153 235.576 90.2093 235.562C90.2093 235.492 90.1953 235.282 90.1953 235.226C90.1533 234.68 89.8313 234.344 89.0753 234.344C88.2633 234.344 87.8713 234.624 87.7313 235.212L85.7433 235.03C86.0793 233.644 87.2413 232.93 89.2853 232.93C91.6233 232.93 92.2953 233.938 92.2953 235.436V238.642C92.2953 239.048 92.3233 239.734 92.4493 240H90.3773C90.2933 239.86 90.2653 239.496 90.2653 239.104C89.6633 239.72 88.9353 240.084 87.7033 240.084ZM88.6833 238.74C89.3973 238.74 89.9153 238.32 90.2093 237.872V236.654C89.9433 236.668 89.6913 236.696 89.4673 236.738C88.4033 236.92 87.8013 237.326 87.8013 237.984C87.8013 238.502 88.1373 238.74 88.6833 238.74ZM96.1373 240H93.9533V230.662H96.1373V240ZM97.1921 230.662H98.6621C99.8241 232.244 100.776 234.05 100.776 236.486C100.776 238.558 100.076 240.602 98.6761 242.338H97.1921C98.3681 240.546 98.9561 238.614 98.9561 236.458C98.9561 233.952 98.1021 232.146 97.1921 230.662ZM107.76 236.332H104.652V235.324H107.76V236.332ZM113.32 240H112.158V230.662H113.32V240ZM117.478 240.098C116.316 240.098 115.644 239.524 115.644 238.096V233.966H114.524V233.098H115.658L115.714 231.292H116.708V233.098H118.262V233.966H116.708V238.152C116.708 238.88 117.086 239.202 117.674 239.216C117.996 239.216 118.402 239.174 118.654 239.132V239.986C118.276 240.056 117.856 240.098 117.478 240.098ZM122.037 240.112C120.287 240.112 119.209 239.398 118.873 238.138L119.853 237.942C120.077 238.754 120.847 239.3 122.037 239.3C123.129 239.3 123.801 238.81 123.801 238.082C123.801 237.256 122.877 237.088 121.855 236.864C120.441 236.598 119.251 236.234 119.251 234.876C119.251 233.742 120.273 232.972 121.813 232.972C123.367 232.972 124.263 233.658 124.613 234.736L123.647 234.946C123.381 234.218 122.751 233.798 121.813 233.798C120.889 233.798 120.259 234.176 120.259 234.806C120.259 235.562 121.085 235.702 122.191 235.94C123.605 236.22 124.809 236.612 124.809 237.984C124.809 239.258 123.717 240.112 122.037 240.112ZM131.689 240.112C129.939 240.112 128.861 239.398 128.525 238.138L129.505 237.942C129.729 238.754 130.499 239.3 131.689 239.3C132.781 239.3 133.453 238.81 133.453 238.082C133.453 237.256 132.529 237.088 131.507 236.864C130.093 236.598 128.903 236.234 128.903 234.876C128.903 233.742 129.925 232.972 131.465 232.972C133.019 232.972 133.915 233.658 134.265 234.736L133.299 234.946C133.033 234.218 132.403 233.798 131.465 233.798C130.541 233.798 129.911 234.176 129.911 234.806C129.911 235.562 130.737 235.702 131.843 235.94C133.257 236.22 134.461 236.612 134.461 237.984C134.461 239.258 133.369 240.112 131.689 240.112ZM137.863 240.098C136.701 240.098 136.029 239.524 136.029 238.096V233.966H134.909V233.098H136.043L136.099 231.292H137.093V233.098H138.647V233.966H137.093V238.152C137.093 238.88 137.471 239.202 138.059 239.216C138.381 239.216 138.787 239.174 139.039 239.132V239.986C138.661 240.056 138.241 240.098 137.863 240.098ZM141.89 240.084C140.672 240.084 139.692 239.44 139.692 238.18C139.692 236.682 141.064 235.94 142.954 235.716C143.514 235.646 143.976 235.646 144.522 235.632C144.522 235.394 144.522 235.156 144.494 234.988C144.41 234.232 143.962 233.826 142.8 233.826C141.68 233.826 141.092 234.134 140.868 235.016L139.86 234.904C140.111 233.644 141.19 232.972 142.828 232.972C144.788 232.972 145.544 233.784 145.544 235.52V238.656C145.544 239.09 145.586 239.566 145.698 240H144.662C144.578 239.762 144.522 239.188 144.536 238.838C143.99 239.594 143.178 240.084 141.89 240.084ZM142.212 239.286C143.528 239.286 144.228 238.488 144.522 237.774V236.346C144.032 236.346 143.528 236.346 143.094 236.402C141.596 236.598 140.826 237.2 140.826 238.068C140.826 238.866 141.288 239.286 142.212 239.286ZM149.552 240.098C148.39 240.098 147.718 239.524 147.718 238.096V233.966H146.598V233.098H147.732L147.788 231.292H148.782V233.098H150.336V233.966H148.782V238.152C148.782 238.88 149.16 239.202 149.748 239.216C150.07 239.216 150.476 239.174 150.728 239.132V239.986C150.35 240.056 149.93 240.098 149.552 240.098ZM154.573 240.112C152.683 240.112 151.409 238.726 151.409 236.668C151.409 234.33 152.823 232.972 154.601 232.972C156.407 232.972 157.457 234.288 157.597 236.206C157.611 236.36 157.597 236.514 157.611 236.668H152.515C152.543 238.404 153.327 239.286 154.671 239.286C155.427 239.286 156.141 238.95 156.533 237.928L157.485 238.068C157.009 239.398 155.945 240.112 154.573 240.112ZM152.557 235.926H156.505C156.393 234.596 155.707 233.798 154.601 233.798C153.495 233.798 152.641 234.624 152.557 235.926ZM164.389 240H163.465L161.379 233.098H162.485L163.857 237.816L164.011 238.446L164.179 237.816L165.495 233.098H166.391L167.805 237.858L167.959 238.474L168.141 237.886L169.485 233.098H170.423L168.365 240H167.441L166.041 235.324L165.873 234.694L165.733 235.296L164.389 240ZM172.694 231.88H171.504V230.648H172.694V231.88ZM172.652 240H171.56V233.098H172.652V240ZM176.705 240.098C175.543 240.098 174.871 239.524 174.871 238.096V233.966H173.751V233.098H174.885L174.941 231.292H175.935V233.098H177.489V233.966H175.935V238.152C175.935 238.88 176.313 239.202 176.901 239.216C177.223 239.216 177.629 239.174 177.881 239.132V239.986C177.503 240.056 177.083 240.098 176.705 240.098ZM180.171 240H179.079V230.662H180.129V234.456C180.577 233.742 181.417 232.972 182.705 232.972C184.105 232.972 184.609 233.896 184.609 235.03V240H183.517V235.114C183.517 234.274 183.097 233.882 182.397 233.882C181.431 233.882 180.745 234.456 180.171 235.282V240ZM187.843 231.88H186.653V230.648H187.843V231.88ZM187.801 240H186.709V233.098H187.801V240ZM191.013 240H189.921V233.098H190.957V234.47C191.433 233.784 192.287 232.972 193.519 232.972C194.807 232.972 195.437 233.7 195.437 235.114V240H194.345V235.1C194.345 234.274 193.981 233.882 193.197 233.882C192.315 233.882 191.587 234.442 191.013 235.268V240ZM202.668 240.098C201.506 240.098 200.834 239.524 200.834 238.096V233.966H199.714V233.098H200.848L200.904 231.292H201.898V233.098H203.452V233.966H201.898V238.152C201.898 238.88 202.276 239.202 202.864 239.216C203.186 239.216 203.592 239.174 203.844 239.132V239.986C203.466 240.056 203.046 240.098 202.668 240.098ZM206.134 240H205.042V230.662H206.092V234.456C206.54 233.742 207.38 232.972 208.668 232.972C210.068 232.972 210.572 233.896 210.572 235.03V240H209.48V235.114C209.48 234.274 209.06 233.882 208.36 233.882C207.394 233.882 206.708 234.456 206.134 235.282V240ZM215.29 240.112C213.4 240.112 212.126 238.726 212.126 236.668C212.126 234.33 213.54 232.972 215.318 232.972C217.124 232.972 218.174 234.288 218.314 236.206C218.328 236.36 218.314 236.514 218.328 236.668H213.232C213.26 238.404 214.044 239.286 215.388 239.286C216.144 239.286 216.858 238.95 217.25 237.928L218.202 238.068C217.726 239.398 216.662 240.112 215.29 240.112ZM213.274 235.926H217.222C217.11 234.596 216.424 233.798 215.318 233.798C214.212 233.798 213.358 234.624 213.274 235.926ZM224.714 240.084C223.496 240.084 222.516 239.44 222.516 238.18C222.516 236.682 223.888 235.94 225.778 235.716C226.338 235.646 226.8 235.646 227.346 235.632C227.346 235.394 227.346 235.156 227.318 234.988C227.234 234.232 226.786 233.826 225.624 233.826C224.504 233.826 223.916 234.134 223.692 235.016L222.684 234.904C222.936 233.644 224.014 232.972 225.652 232.972C227.612 232.972 228.368 233.784 228.368 235.52V238.656C228.368 239.09 228.41 239.566 228.522 240H227.486C227.402 239.762 227.346 239.188 227.36 238.838C226.814 239.594 226.002 240.084 224.714 240.084ZM225.036 239.286C226.352 239.286 227.052 238.488 227.346 237.774V236.346C226.856 236.346 226.352 236.346 225.918 236.402C224.42 236.598 223.65 237.2 223.65 238.068C223.65 238.866 224.112 239.286 225.036 239.286ZM233.679 240.098C232.671 240.098 231.943 239.594 231.523 239.09V242.338H230.445V233.098H231.481V234.316C231.901 233.644 232.601 232.972 233.707 232.972C235.247 232.972 236.311 234.05 236.311 236.542C236.311 238.88 235.065 240.098 233.679 240.098ZM233.385 239.3C234.477 239.3 235.177 238.558 235.177 236.57C235.177 234.722 234.645 233.868 233.455 233.868C232.657 233.868 232.013 234.288 231.523 235.254V238.166C231.887 238.684 232.391 239.3 233.385 239.3ZM241.13 240.098C240.122 240.098 239.394 239.594 238.974 239.09V242.338H237.896V233.098H238.932V234.316C239.352 233.644 240.052 232.972 241.158 232.972C242.698 232.972 243.762 234.05 243.762 236.542C243.762 238.88 242.516 240.098 241.13 240.098ZM240.836 239.3C241.928 239.3 242.628 238.558 242.628 236.57C242.628 234.722 242.096 233.868 240.906 233.868C240.108 233.868 239.464 234.288 238.974 235.254V238.166C239.338 238.684 239.842 239.3 240.836 239.3ZM246.789 240H245.263V238.474H246.789V240ZM253.558 230.662H254.272C253.11 232.468 252.564 234.344 252.564 236.5C252.564 238.572 253.138 240.476 254.286 242.338H253.572C252.228 240.574 251.542 238.586 251.542 236.486C251.542 234.484 252.214 232.496 253.558 230.662ZM255.834 240H254.784L257.808 230.662H259.152L262.19 240H260.944L260.062 237.256H256.716L255.834 240ZM258.368 231.964L256.996 236.332H259.782L258.368 231.964ZM265.707 240.112C264.013 240.112 262.739 238.824 262.739 236.514C262.739 234.512 263.901 232.972 265.651 232.972C267.121 232.972 268.045 233.77 268.353 235.464L267.331 235.59C267.163 234.456 266.617 233.84 265.665 233.84C264.559 233.84 263.887 234.82 263.887 236.542C263.887 238.446 264.699 239.3 265.735 239.3C266.645 239.3 267.177 238.81 267.387 237.662L268.339 237.76C268.101 239.314 267.079 240.112 265.707 240.112ZM271.724 240.098C270.562 240.098 269.89 239.524 269.89 238.096V233.966H268.77V233.098H269.904L269.96 231.292H270.954V233.098H272.508V233.966H270.954V238.152C270.954 238.88 271.332 239.202 271.92 239.216C272.242 239.216 272.648 239.174 272.9 239.132V239.986C272.522 240.056 272.102 240.098 271.724 240.098ZM275.261 231.88H274.071V230.648H275.261V231.88ZM275.219 240H274.127V233.098H275.219V240ZM279.901 240H278.795L276.317 233.098H277.465L279.019 237.55C279.173 237.984 279.383 238.628 279.425 238.824C279.495 238.642 279.691 237.97 279.859 237.564L281.469 233.098H282.421L279.901 240ZM286.124 240.112C284.234 240.112 282.96 238.726 282.96 236.668C282.96 234.33 284.374 232.972 286.152 232.972C287.958 232.972 289.008 234.288 289.148 236.206C289.162 236.36 289.148 236.514 289.162 236.668H284.066C284.094 238.404 284.878 239.286 286.222 239.286C286.978 239.286 287.692 238.95 288.084 237.928L289.036 238.068C288.56 239.398 287.496 240.112 286.124 240.112ZM284.108 235.926H288.056C287.944 234.596 287.258 233.798 286.152 233.798C285.046 233.798 284.192 234.624 284.108 235.926ZM291.103 241.75H290.361L291.201 240H290.613V238.446H292.125V239.846L291.103 241.75ZM297.48 240V230.662H300.616C301.736 230.662 302.702 230.984 303.402 231.628C304.326 232.454 304.788 233.798 304.788 235.31C304.788 237.97 303.206 240 300.77 240H297.48ZM298.642 231.656V239.048H300.546C302.338 239.048 303.612 237.676 303.612 235.338C303.612 233.07 302.38 231.656 300.546 231.656H298.642ZM307.595 231.88H306.405V230.648H307.595V231.88ZM307.553 240H306.461V233.098H307.553V240ZM311.857 240.112C310.107 240.112 309.029 239.398 308.693 238.138L309.673 237.942C309.897 238.754 310.667 239.3 311.857 239.3C312.949 239.3 313.621 238.81 313.621 238.082C313.621 237.256 312.697 237.088 311.675 236.864C310.261 236.598 309.071 236.234 309.071 234.876C309.071 233.742 310.093 232.972 311.633 232.972C313.187 232.972 314.083 233.658 314.433 234.736L313.467 234.946C313.201 234.218 312.571 233.798 311.633 233.798C310.709 233.798 310.079 234.176 310.079 234.806C310.079 235.562 310.905 235.702 312.011 235.94C313.425 236.22 314.629 236.612 314.629 237.984C314.629 239.258 313.537 240.112 311.857 240.112ZM317.751 240.084C316.533 240.084 315.553 239.44 315.553 238.18C315.553 236.682 316.925 235.94 318.815 235.716C319.375 235.646 319.837 235.646 320.383 235.632C320.383 235.394 320.383 235.156 320.355 234.988C320.271 234.232 319.823 233.826 318.661 233.826C317.541 233.826 316.953 234.134 316.729 235.016L315.721 234.904C315.973 233.644 317.051 232.972 318.689 232.972C320.649 232.972 321.405 233.784 321.405 235.52V238.656C321.405 239.09 321.447 239.566 321.559 240H320.523C320.439 239.762 320.383 239.188 320.397 238.838C319.851 239.594 319.039 240.084 317.751 240.084ZM318.073 239.286C319.389 239.286 320.089 238.488 320.383 237.774V236.346C319.893 236.346 319.389 236.346 318.955 236.402C317.457 236.598 316.687 237.2 316.687 238.068C316.687 238.866 317.149 239.286 318.073 239.286ZM326.66 240.098C325.624 240.098 324.882 239.636 324.434 238.852L324.084 240H323.482V230.662H324.518V234.414C324.868 233.658 325.75 232.972 326.744 232.972C328.396 232.972 329.362 234.218 329.362 236.528C329.362 238.908 328.228 240.098 326.66 240.098ZM326.45 239.314C327.626 239.314 328.242 238.488 328.242 236.556C328.242 234.75 327.654 233.84 326.492 233.84C325.484 233.84 324.91 234.582 324.532 235.38V237.046C324.532 238.488 325.344 239.314 326.45 239.314ZM332.066 240H330.974V230.662H332.066V240ZM336.833 240.112C334.943 240.112 333.669 238.726 333.669 236.668C333.669 234.33 335.083 232.972 336.861 232.972C338.667 232.972 339.717 234.288 339.857 236.206C339.871 236.36 339.857 236.514 339.871 236.668H334.775C334.803 238.404 335.587 239.286 336.931 239.286C337.687 239.286 338.401 238.95 338.793 237.928L339.745 238.068C339.269 239.398 338.205 240.112 336.833 240.112ZM334.817 235.926H338.765C338.653 234.596 337.967 233.798 336.861 233.798C335.755 233.798 334.901 234.624 334.817 235.926ZM343.492 240.112C341.826 240.112 340.86 238.824 340.86 236.57C340.86 234.526 341.924 232.972 343.688 232.972C344.738 232.972 345.396 233.574 345.718 234.036V230.662H346.768V240H345.746V238.95C345.2 239.706 344.5 240.112 343.492 240.112ZM343.786 239.286C344.822 239.286 345.41 238.656 345.704 237.886V235.072C345.354 234.414 344.878 233.826 343.856 233.826C342.61 233.826 341.994 234.806 341.994 236.57C341.994 238.488 342.638 239.286 343.786 239.286ZM349.332 241.75H348.59L349.43 240H348.842V238.446H350.354V239.846L349.332 241.75ZM356.871 240H355.709V230.662H356.871V234.526H361.211V230.662H362.373V240H361.211V235.562H356.871V240ZM367.141 240.112C365.363 240.112 364.047 238.698 364.047 236.514C364.047 234.358 365.447 232.972 367.141 232.972C369.031 232.972 370.263 234.4 370.263 236.528C370.263 238.698 368.849 240.112 367.141 240.112ZM367.127 239.3C368.261 239.3 369.115 238.376 369.115 236.514C369.115 234.722 368.275 233.826 367.127 233.826C366.035 233.826 365.195 234.75 365.195 236.528C365.195 238.264 365.965 239.3 367.127 239.3ZM374.387 240H373.281L370.803 233.098H371.951L373.505 237.55C373.659 237.984 373.869 238.628 373.911 238.824C373.981 238.642 374.177 237.97 374.345 237.564L375.955 233.098H376.907L374.387 240ZM380.61 240.112C378.72 240.112 377.446 238.726 377.446 236.668C377.446 234.33 378.86 232.972 380.638 232.972C382.444 232.972 383.494 234.288 383.634 236.206C383.648 236.36 383.634 236.514 383.648 236.668H378.552C378.58 238.404 379.364 239.286 380.708 239.286C381.464 239.286 382.178 238.95 382.57 237.928L383.522 238.068C383.046 239.398 381.982 240.112 380.61 240.112ZM378.594 235.926H382.542C382.43 234.596 381.744 233.798 380.638 233.798C379.532 233.798 378.678 234.624 378.594 235.926ZM386.247 240H385.155V233.098H386.191V234.582C386.639 233.77 387.451 232.972 388.431 232.972C388.557 232.972 388.641 232.972 388.753 232.986V233.98C388.669 233.966 388.529 233.966 388.445 233.966C387.633 233.966 386.821 234.526 386.247 235.492V240ZM389.243 230.662H389.957C391.301 232.426 391.987 234.4 391.987 236.514C391.987 238.516 391.315 240.504 389.971 242.338H389.257C390.433 240.532 390.965 238.656 390.965 236.5C390.965 234.428 390.405 232.524 389.243 230.662ZM395.033 240H393.507V238.474H395.033V240ZM401.438 240H400.402V230.662H401.872L405.946 237.396C406.044 237.536 406.268 238.04 406.268 238.04C406.254 237.774 406.254 237.242 406.254 236.864V230.662H407.29V240H406.156L401.816 232.804C401.718 232.65 401.424 232.104 401.424 232.104C401.438 232.608 401.438 232.874 401.438 233.14V240ZM412.053 240.112C410.275 240.112 408.959 238.698 408.959 236.514C408.959 234.358 410.359 232.972 412.053 232.972C413.943 232.972 415.175 234.4 415.175 236.528C415.175 238.698 413.761 240.112 412.053 240.112ZM412.039 239.3C413.173 239.3 414.027 238.376 414.027 236.514C414.027 234.722 413.187 233.826 412.039 233.826C410.947 233.826 410.107 234.75 410.107 236.528C410.107 238.264 410.877 239.3 412.039 239.3ZM418.67 240.098C417.508 240.098 416.836 239.524 416.836 238.096V233.966H415.716V233.098H416.85L416.906 231.292H417.9V233.098H419.454V233.966H417.9V238.152C417.9 238.88 418.278 239.202 418.866 239.216C419.188 239.216 419.594 239.174 419.846 239.132V239.986C419.468 240.056 419.048 240.098 418.67 240.098ZM425.923 240.084C424.705 240.084 423.725 239.44 423.725 238.18C423.725 236.682 425.097 235.94 426.987 235.716C427.547 235.646 428.009 235.646 428.555 235.632C428.555 235.394 428.555 235.156 428.527 234.988C428.443 234.232 427.995 233.826 426.833 233.826C425.713 233.826 425.125 234.134 424.901 235.016L423.893 234.904C424.145 233.644 425.223 232.972 426.861 232.972C428.821 232.972 429.577 233.784 429.577 235.52V238.656C429.577 239.09 429.619 239.566 429.731 240H428.695C428.611 239.762 428.555 239.188 428.569 238.838C428.023 239.594 427.211 240.084 425.923 240.084ZM426.245 239.286C427.561 239.286 428.261 238.488 428.555 237.774V236.346C428.065 236.346 427.561 236.346 427.127 236.402C425.629 236.598 424.859 237.2 424.859 238.068C424.859 238.866 425.321 239.286 426.245 239.286ZM432.774 240H431.682V230.662H432.774V240ZM436.014 240H434.922V230.662H436.014V240ZM443.293 240.098C442.131 240.098 441.459 239.524 441.459 238.096V233.966H440.339V233.098H441.473L441.529 231.292H442.523V233.098H444.077V233.966H442.523V238.152C442.523 238.88 442.901 239.202 443.489 239.216C443.811 239.216 444.217 239.174 444.469 239.132V239.986C444.091 240.056 443.671 240.098 443.293 240.098ZM448.229 240.112C446.451 240.112 445.135 238.698 445.135 236.514C445.135 234.358 446.535 232.972 448.229 232.972C450.119 232.972 451.351 234.4 451.351 236.528C451.351 238.698 449.937 240.112 448.229 240.112ZM448.215 239.3C449.349 239.3 450.203 238.376 450.203 236.514C450.203 234.722 449.363 233.826 448.215 233.826C447.123 233.826 446.283 234.75 446.283 236.528C446.283 238.264 447.053 239.3 448.215 239.3ZM453.991 240H452.913V230.662H453.991V236.066L453.977 236.738L454.369 236.248L457.225 233.098H458.359L456.273 235.394L458.569 240H457.393L455.531 236.22L453.991 237.872V240ZM462.409 240.112C460.519 240.112 459.245 238.726 459.245 236.668C459.245 234.33 460.659 232.972 462.437 232.972C464.243 232.972 465.293 234.288 465.433 236.206C465.447 236.36 465.433 236.514 465.447 236.668H460.351C460.379 238.404 461.163 239.286 462.507 239.286C463.263 239.286 463.977 238.95 464.369 237.928L465.321 238.068C464.845 239.398 463.781 240.112 462.409 240.112ZM460.393 235.926H464.341C464.229 234.596 463.543 233.798 462.437 233.798C461.331 233.798 460.477 234.624 460.393 235.926ZM468.046 240H466.954V233.098H467.99V234.47C468.466 233.784 469.32 232.972 470.552 232.972C471.84 232.972 472.47 233.7 472.47 235.114V240H471.378V235.1C471.378 234.274 471.014 233.882 470.23 233.882C469.348 233.882 468.62 234.442 468.046 235.268V240ZM476.726 240.112C474.976 240.112 473.898 239.398 473.562 238.138L474.542 237.942C474.766 238.754 475.536 239.3 476.726 239.3C477.818 239.3 478.49 238.81 478.49 238.082C478.49 237.256 477.566 237.088 476.544 236.864C475.13 236.598 473.94 236.234 473.94 234.876C473.94 233.742 474.962 232.972 476.502 232.972C478.056 232.972 478.952 233.658 479.302 234.736L478.336 234.946C478.07 234.218 477.44 233.798 476.502 233.798C475.578 233.798 474.948 234.176 474.948 234.806C474.948 235.562 475.774 235.702 476.88 235.94C478.294 236.22 479.498 236.612 479.498 237.984C479.498 239.258 478.406 240.112 476.726 240.112ZM486.379 240.112C484.629 240.112 483.551 239.398 483.215 238.138L484.195 237.942C484.419 238.754 485.189 239.3 486.379 239.3C487.471 239.3 488.143 238.81 488.143 238.082C488.143 237.256 487.219 237.088 486.197 236.864C484.783 236.598 483.593 236.234 483.593 234.876C483.593 233.742 484.615 232.972 486.155 232.972C487.709 232.972 488.605 233.658 488.955 234.736L487.989 234.946C487.723 234.218 487.093 233.798 486.155 233.798C485.231 233.798 484.601 234.176 484.601 234.806C484.601 235.562 485.427 235.702 486.533 235.94C487.947 236.22 489.151 236.612 489.151 237.984C489.151 239.258 488.059 240.112 486.379 240.112ZM492.72 240.112C491.474 240.112 490.592 239.468 490.592 237.732V233.098H491.684V237.76C491.684 238.852 492.09 239.286 493.056 239.286C493.826 239.286 494.498 238.838 494.96 237.998V233.098H496.038V240H495.03V238.824C494.484 239.706 493.644 240.112 492.72 240.112ZM501.36 240.098C500.352 240.098 499.624 239.594 499.204 239.09V242.338H498.126V233.098H499.162V234.316C499.582 233.644 500.282 232.972 501.388 232.972C502.928 232.972 503.992 234.05 503.992 236.542C503.992 238.88 502.746 240.098 501.36 240.098ZM501.066 239.3C502.158 239.3 502.858 238.558 502.858 236.57C502.858 234.722 502.326 233.868 501.136 233.868C500.338 233.868 499.694 234.288 499.204 235.254V238.166C499.568 238.684 500.072 239.3 501.066 239.3ZM508.811 240.098C507.803 240.098 507.075 239.594 506.655 239.09V242.338H505.577V233.098H506.613V234.316C507.033 233.644 507.733 232.972 508.839 232.972C510.379 232.972 511.443 234.05 511.443 236.542C511.443 238.88 510.197 240.098 508.811 240.098ZM508.517 239.3C509.609 239.3 510.309 238.558 510.309 236.57C510.309 234.722 509.777 233.868 508.587 233.868C507.789 233.868 507.145 234.288 506.655 235.254V238.166C507.019 238.684 507.523 239.3 508.517 239.3ZM515.591 240.112C513.813 240.112 512.497 238.698 512.497 236.514C512.497 234.358 513.897 232.972 515.591 232.972C517.481 232.972 518.713 234.4 518.713 236.528C518.713 238.698 517.299 240.112 515.591 240.112ZM515.577 239.3C516.711 239.3 517.565 238.376 517.565 236.514C517.565 234.722 516.725 233.826 515.577 233.826C514.485 233.826 513.645 234.75 513.645 236.528C513.645 238.264 514.415 239.3 515.577 239.3ZM521.367 240H520.275V233.098H521.311V234.582C521.759 233.77 522.571 232.972 523.551 232.972C523.677 232.972 523.761 232.972 523.873 232.986V233.98C523.789 233.966 523.649 233.966 523.565 233.966C522.753 233.966 521.941 234.526 521.367 235.492V240ZM527.156 240.098C525.994 240.098 525.322 239.524 525.322 238.096V233.966H524.202V233.098H525.336L525.392 231.292H526.386V233.098H527.94V233.966H526.386V238.152C526.386 238.88 526.764 239.202 527.352 239.216C527.674 239.216 528.08 239.174 528.332 239.132V239.986C527.954 240.056 527.534 240.098 527.156 240.098ZM534.941 240.112C533.191 240.112 532.113 239.398 531.777 238.138L532.757 237.942C532.981 238.754 533.751 239.3 534.941 239.3C536.033 239.3 536.705 238.81 536.705 238.082C536.705 237.256 535.781 237.088 534.759 236.864C533.345 236.598 532.155 236.234 532.155 234.876C532.155 233.742 533.177 232.972 534.717 232.972C536.271 232.972 537.167 233.658 537.517 234.736L536.551 234.946C536.285 234.218 535.655 233.798 534.717 233.798C533.793 233.798 533.163 234.176 533.163 234.806C533.163 235.562 533.989 235.702 535.095 235.94C536.509 236.22 537.713 236.612 537.713 237.984C537.713 239.258 536.621 240.112 534.941 240.112ZM541.115 240.098C539.953 240.098 539.281 239.524 539.281 238.096V233.966H538.161V233.098H539.295L539.351 231.292H540.345V233.098H541.899V233.966H540.345V238.152C540.345 238.88 540.723 239.202 541.311 239.216C541.633 239.216 542.039 239.174 542.291 239.132V239.986C541.913 240.056 541.493 240.098 541.115 240.098ZM545.141 240.084C543.923 240.084 542.943 239.44 542.943 238.18C542.943 236.682 544.315 235.94 546.205 235.716C546.765 235.646 547.227 235.646 547.773 235.632C547.773 235.394 547.773 235.156 547.745 234.988C547.661 234.232 547.213 233.826 546.051 233.826C544.931 233.826 544.343 234.134 544.119 235.016L543.111 234.904C543.363 233.644 544.441 232.972 546.079 232.972C548.039 232.972 548.795 233.784 548.795 235.52V238.656C548.795 239.09 548.837 239.566 548.949 240H547.913C547.829 239.762 547.773 239.188 547.787 238.838C547.241 239.594 546.429 240.084 545.141 240.084ZM545.463 239.286C546.779 239.286 547.479 238.488 547.773 237.774V236.346C547.283 236.346 546.779 236.346 546.345 236.402C544.847 236.598 544.077 237.2 544.077 238.068C544.077 238.866 544.539 239.286 545.463 239.286ZM552.804 240.098C551.642 240.098 550.97 239.524 550.97 238.096V233.966H549.85V233.098H550.984L551.04 231.292H552.034V233.098H553.588V233.966H552.034V238.152C552.034 238.88 552.412 239.202 553 239.216C553.322 239.216 553.728 239.174 553.98 239.132V239.986C553.602 240.056 553.182 240.098 552.804 240.098ZM557.825 240.112C555.935 240.112 554.661 238.726 554.661 236.668C554.661 234.33 556.075 232.972 557.853 232.972C559.659 232.972 560.709 234.288 560.849 236.206C560.863 236.36 560.849 236.514 560.863 236.668H555.767C555.795 238.404 556.579 239.286 557.923 239.286C558.679 239.286 559.393 238.95 559.785 237.928L560.737 238.068C560.261 239.398 559.197 240.112 557.825 240.112ZM555.809 235.926H559.757C559.645 234.596 558.959 233.798 557.853 233.798C556.747 233.798 555.893 234.624 555.809 235.926ZM563.812 240H562.286V238.474H563.812V240Z" fill="#285115"/>
</svg>
