<svg width="402" height="330" viewBox="0 0 402 330" fill="none" xmlns="http://www.w3.org/2000/svg">
<rect width="402" height="330" fill="white"/>
<path d="M31.6464 306.354C31.8417 306.549 32.1583 306.549 32.3536 306.354L35.5355 303.172C35.7308 302.976 35.7308 302.66 35.5355 302.464C35.3403 302.269 35.0237 302.269 34.8284 302.464L32 305.293L29.1716 302.464C28.9763 302.269 28.6597 302.269 28.4645 302.464C28.2692 302.66 28.2692 302.976 28.4645 303.172L31.6464 306.354ZM32.3535 23.6465C32.1583 23.4512 31.8417 23.4512 31.6464 23.6465L28.4645 26.8284C28.2692 27.0237 28.2692 27.3403 28.4645 27.5355C28.6597 27.7308 28.9763 27.7308 29.1716 27.5355L32 24.7071L34.8284 27.5355C35.0237 27.7308 35.3403 27.7308 35.5355 27.5355C35.7308 27.3403 35.7308 27.0237 35.5355 26.8284L32.3535 23.6465ZM32.5 306L32.5 24L31.5 24L31.5 306L32.5 306Z" fill="#595959"/>
<path d="M52.544 171H51.216V161.464H48.16V160.328H55.6V161.464H52.544V171ZM58.7843 171.128C56.7523 171.128 55.2483 169.512 55.2483 167.016C55.2483 164.552 56.8483 162.968 58.7843 162.968C60.9443 162.968 62.3523 164.6 62.3523 167.032C62.3523 169.512 60.7363 171.128 58.7843 171.128ZM58.7682 170.2C60.0643 170.2 61.0403 169.144 61.0403 167.016C61.0403 164.968 60.0803 163.944 58.7682 163.944C57.5203 163.944 56.5603 165 56.5603 167.032C56.5603 169.016 57.4403 170.2 58.7682 170.2ZM65.3855 171H64.1375V163.112H65.3215V164.68C65.8655 163.896 66.8415 162.968 68.2495 162.968C69.7215 162.968 70.4415 163.8 70.4415 165.416V171H69.1935V165.4C69.1935 164.456 68.7775 164.008 67.8815 164.008C66.8735 164.008 66.0415 164.648 65.3855 165.592V171ZM75.8334 171.128C73.6734 171.128 72.2174 169.544 72.2174 167.192C72.2174 164.52 73.8334 162.968 75.8654 162.968C77.9294 162.968 79.1294 164.472 79.2894 166.664C79.3054 166.84 79.2894 167.016 79.3054 167.192H73.4814C73.5134 169.176 74.4094 170.184 75.9454 170.184C76.8094 170.184 77.6254 169.8 78.0734 168.632L79.1614 168.792C78.6174 170.312 77.4014 171.128 75.8334 171.128ZM73.5294 166.344H78.0414C77.9134 164.824 77.1294 163.912 75.8654 163.912C74.6014 163.912 73.6254 164.856 73.5294 166.344ZM83.5241 171.128C81.5241 171.128 80.2921 170.312 79.9081 168.872L81.0281 168.648C81.2841 169.576 82.1641 170.2 83.5241 170.2C84.7721 170.2 85.5401 169.64 85.5401 168.808C85.5401 167.864 84.4841 167.672 83.3161 167.416C81.7001 167.112 80.3401 166.696 80.3401 165.144C80.3401 163.848 81.5081 162.968 83.2681 162.968C85.0441 162.968 86.0681 163.752 86.4681 164.984L85.3641 165.224C85.0601 164.392 84.3401 163.912 83.2681 163.912C82.2121 163.912 81.4921 164.344 81.4921 165.064C81.4921 165.928 82.4361 166.088 83.7001 166.36C85.3161 166.68 86.6921 167.128 86.6921 168.696C86.6921 170.152 85.4441 171.128 83.5241 171.128Z" fill="#595959"/>
<rect width="50" height="50" transform="translate(112 24)" fill="#1366B3"/>
<rect width="50" height="50" transform="translate(112 82)" fill="#166DFC"/>
<rect width="50" height="50" transform="translate(112 140)" fill="#5784C5"/>
<rect width="50" height="50" transform="translate(112 198)" fill="#84A4D6"/>
<rect width="50" height="50" transform="translate(112 256)" fill="#ACC5E7"/>
<path d="M186.354 48.6464C186.158 48.4512 185.842 48.4512 185.646 48.6464L182.464 51.8284C182.269 52.0237 182.269 52.3403 182.464 52.5355C182.66 52.7308 182.976 52.7308 183.172 52.5355L186 49.7071L188.828 52.5355C189.024 52.7308 189.34 52.7308 189.536 52.5355C189.731 52.3403 189.731 52.0237 189.536 51.8284L186.354 48.6464ZM186.5 149L186.5 49L185.5 49L185.5 149L186.5 149Z" fill="#595959"/>
<path d="M206.544 105H205.216V95.464H202.16V94.328H209.6V95.464H206.544V105ZM212.137 95.72H210.777V94.312H212.137V95.72ZM212.089 105H210.841V97.112H212.089V105ZM215.761 105H214.513V97.112H215.697V98.68C216.241 97.896 217.217 96.968 218.625 96.968C220.097 96.968 220.817 97.8 220.817 99.416V105H219.569V99.4C219.569 98.456 219.153 98.008 218.257 98.008C217.249 98.008 216.417 98.648 215.761 99.592V105ZM225.392 105.112C224.064 105.112 223.296 104.456 223.296 102.824V98.104H222.016V97.112H223.312L223.376 95.048H224.512V97.112H226.288V98.104H224.512V102.888C224.512 103.72 224.944 104.088 225.616 104.104C225.984 104.104 226.448 104.056 226.736 104.008V104.984C226.304 105.064 225.824 105.112 225.392 105.112ZM230.602 105.128C228.602 105.128 227.37 104.312 226.986 102.872L228.106 102.648C228.362 103.576 229.242 104.2 230.602 104.2C231.85 104.2 232.618 103.64 232.618 102.808C232.618 101.864 231.562 101.672 230.394 101.416C228.778 101.112 227.418 100.696 227.418 99.144C227.418 97.848 228.586 96.968 230.346 96.968C232.122 96.968 233.146 97.752 233.546 98.984L232.442 99.224C232.138 98.392 231.418 97.912 230.346 97.912C229.29 97.912 228.57 98.344 228.57 99.064C228.57 99.928 229.514 100.088 230.778 100.36C232.394 100.68 233.77 101.128 233.77 102.696C233.77 104.152 232.522 105.128 230.602 105.128Z" fill="#595959"/>
<path d="M186 165H253" stroke="#595959" stroke-dasharray="6 6"/>
<path d="M185.646 281.354C185.842 281.549 186.158 281.549 186.354 281.354L189.536 278.172C189.731 277.976 189.731 277.66 189.536 277.464C189.34 277.269 189.024 277.269 188.828 277.464L186 280.293L183.172 277.464C182.976 277.269 182.66 277.269 182.464 277.464C182.269 277.66 182.269 277.976 182.464 278.172L185.646 281.354ZM185.5 181V281H186.5V181H185.5Z" fill="#595959"/>
<path d="M206.592 237.176C204.272 237.176 202.896 236.248 202.192 234.472L203.328 234.024C203.824 235.32 204.736 236.088 206.608 236.088C208.176 236.088 209.152 235.432 209.152 234.216C209.152 232.888 207.92 232.504 206.16 232.04C204.192 231.544 202.704 230.84 202.704 228.952C202.704 227.224 204.208 226.12 206.272 226.12C208.272 226.12 209.664 227.08 210.176 228.744L208.944 229.128C208.624 227.928 207.6 227.224 206.256 227.224C204.912 227.224 204.032 227.896 204.032 228.808C204.032 229.992 204.816 230.392 207.008 230.968C209.248 231.56 210.464 232.312 210.464 234.104C210.464 235.992 209.024 237.176 206.592 237.176ZM213.214 237H211.966V226.328H213.166V230.664C213.678 229.848 214.638 228.968 216.11 228.968C217.71 228.968 218.286 230.024 218.286 231.32V237H217.038V231.416C217.038 230.456 216.558 230.008 215.758 230.008C214.654 230.008 213.87 230.664 213.214 231.608V237ZM222.541 237.096C221.149 237.096 220.029 236.36 220.029 234.92C220.029 233.208 221.597 232.36 223.757 232.104C224.397 232.024 224.925 232.024 225.549 232.008C225.549 231.736 225.549 231.464 225.517 231.272C225.421 230.408 224.909 229.944 223.581 229.944C222.301 229.944 221.629 230.296 221.373 231.304L220.221 231.176C220.509 229.736 221.741 228.968 223.613 228.968C225.853 228.968 226.717 229.896 226.717 231.88V235.464C226.717 235.96 226.765 236.504 226.893 237H225.709C225.613 236.728 225.549 236.072 225.565 235.672C224.941 236.536 224.013 237.096 222.541 237.096ZM222.909 236.184C224.413 236.184 225.213 235.272 225.549 234.456V232.824C224.989 232.824 224.413 232.824 223.917 232.888C222.205 233.112 221.325 233.8 221.325 234.792C221.325 235.704 221.853 236.184 222.909 236.184ZM231.507 237.128C229.603 237.128 228.499 235.656 228.499 233.08C228.499 230.744 229.715 228.968 231.731 228.968C232.931 228.968 233.683 229.656 234.051 230.184V226.328H235.251V237H234.083V235.8C233.459 236.664 232.659 237.128 231.507 237.128ZM231.843 236.184C233.027 236.184 233.699 235.464 234.035 234.584V231.368C233.635 230.616 233.091 229.944 231.923 229.944C230.499 229.944 229.795 231.064 229.795 233.08C229.795 235.272 230.531 236.184 231.843 236.184ZM240.708 237.128C238.548 237.128 237.092 235.544 237.092 233.192C237.092 230.52 238.708 228.968 240.74 228.968C242.804 228.968 244.004 230.472 244.164 232.664C244.18 232.84 244.164 233.016 244.18 233.192H238.356C238.388 235.176 239.284 236.184 240.82 236.184C241.684 236.184 242.5 235.8 242.948 234.632L244.036 234.792C243.492 236.312 242.276 237.128 240.708 237.128ZM238.404 232.344H242.916C242.788 230.824 242.004 229.912 240.74 229.912C239.476 229.912 238.5 230.856 238.404 232.344ZM248.399 237.128C246.399 237.128 245.167 236.312 244.783 234.872L245.903 234.648C246.159 235.576 247.039 236.2 248.399 236.2C249.647 236.2 250.415 235.64 250.415 234.808C250.415 233.864 249.359 233.672 248.191 233.416C246.575 233.112 245.215 232.696 245.215 231.144C245.215 229.848 246.383 228.968 248.143 228.968C249.919 228.968 250.943 229.752 251.343 230.984L250.239 231.224C249.935 230.392 249.215 229.912 248.143 229.912C247.087 229.912 246.367 230.344 246.367 231.064C246.367 231.928 247.311 232.088 248.575 232.36C250.191 232.68 251.567 233.128 251.567 234.696C251.567 236.152 250.319 237.128 248.399 237.128Z" fill="#595959"/>
<rect width="50" height="50" transform="translate(277 140)" fill="#5784C5"/>
<path d="M339.944 171.176C337.384 171.176 335.672 169.208 335.672 165.736C335.672 162.104 337.592 160.12 340.008 160.12C342.04 160.12 343.432 161.192 343.944 163.544L342.664 163.816C342.248 162.008 341.384 161.304 340.024 161.304C338.264 161.304 337.096 162.84 337.096 165.736C337.096 168.632 338.328 170.088 339.992 170.088C341.512 170.088 342.376 169.112 342.696 167.432L343.912 167.672C343.4 170.072 342.024 171.176 339.944 171.176ZM348.394 171.128C346.362 171.128 344.858 169.512 344.858 167.016C344.858 164.552 346.458 162.968 348.394 162.968C350.554 162.968 351.962 164.6 351.962 167.032C351.962 169.512 350.346 171.128 348.394 171.128ZM348.378 170.2C349.674 170.2 350.65 169.144 350.65 167.016C350.65 164.968 349.69 163.944 348.378 163.944C347.13 163.944 346.17 165 346.17 167.032C346.17 169.016 347.05 170.2 348.378 170.2ZM355.027 171H353.779V160.328H355.027V171ZM360.378 171.128C358.346 171.128 356.842 169.512 356.842 167.016C356.842 164.552 358.442 162.968 360.378 162.968C362.538 162.968 363.946 164.6 363.946 167.032C363.946 169.512 362.33 171.128 360.378 171.128ZM360.362 170.2C361.658 170.2 362.634 169.144 362.634 167.016C362.634 164.968 361.674 163.944 360.362 163.944C359.114 163.944 358.154 165 358.154 167.032C358.154 169.016 359.034 170.2 360.362 170.2ZM366.979 171H365.731V163.112H366.915V164.808C367.427 163.88 368.355 162.968 369.475 162.968C369.619 162.968 369.715 162.968 369.843 162.984V164.12C369.747 164.104 369.587 164.104 369.491 164.104C368.563 164.104 367.635 164.744 366.979 165.848V171Z" fill="#111111"/>
</svg>
