<svg width="110" height="81" viewBox="0 0 110 81" fill="none" xmlns="http://www.w3.org/2000/svg">
<rect x="47" width="28" height="28" rx="14" fill="#94538C"/>
<path d="M64.8319 20V18.88H58.7519C62.7199 16.176 64.5919 14.432 64.5919 12.416C64.5919 10.448 63.2479 9.152 60.9919 9.152C58.7999 9.152 57.4879 10.4 57.1359 12.336L58.3679 12.576C58.5599 11.056 59.5519 10.24 60.9439 10.24C62.5279 10.24 63.2479 11.168 63.2479 12.336C63.2479 14.144 62.1119 15.28 57.1359 18.96V20H64.8319Z" fill="#FCFCFC"/>
<line x1="61.5" y1="28" x2="61.5" y2="56" stroke="#94538C" stroke-dasharray="2 2"/>
<rect x="82" width="28" height="28" rx="14" fill="#94538C"/>
<path d="M95.9439 20.192C98.4719 20.192 99.8639 18.832 99.8639 17.056C99.8639 15.648 98.9199 14.688 97.4159 14.384C98.7279 14.064 99.4639 13.136 99.4639 11.888C99.4639 10.288 98.2319 9.136 95.8799 9.136C94.1199 9.136 92.7439 10.016 92.1839 11.68L93.3839 11.92C93.6879 10.88 94.5839 10.224 95.9119 10.224C97.2879 10.224 98.1359 10.88 98.1359 12.016C98.1359 13.248 97.2879 13.904 95.6399 13.904H94.4079V14.992H95.6399C97.5119 14.992 98.5199 15.824 98.5199 17.04C98.5199 18.208 97.6879 19.136 95.9119 19.136C94.2479 19.136 93.4159 18.544 93.0479 17.216L91.7999 17.456C92.2959 19.344 93.7199 20.192 95.9439 20.192Z" fill="#FCFCFC"/>
<line x1="96.5" y1="28" x2="96.5" y2="56" stroke="#94538C" stroke-dasharray="2 2"/>
<path d="M51 58C51 56.8954 51.8954 56 53 56H69C70.1046 56 71 56.8954 71 58V74C71 75.1046 70.1046 76 69 76H53C51.8954 76 51 75.1046 51 74V58Z" fill="#111111"/>
<path d="M58.3125 70.45L54.125 66.2625L55.0125 65.375L58.3125 68.6875L66.625 60.375L67.5125 61.2625L58.3125 70.45Z" fill="white"/>
<path d="M53 57H69V55H53V57ZM70 58V74H72V58H70ZM69 75H53V77H69V75ZM52 74V58H50V74H52ZM53 75C52.4477 75 52 74.5523 52 74H50C50 75.6569 51.3431 77 53 77V75ZM70 74C70 74.5523 69.5523 75 69 75V77C70.6569 77 72 75.6569 72 74H70ZM69 57C69.5523 57 70 57.4477 70 58H72C72 56.3431 70.6569 55 69 55V57ZM53 55C51.3431 55 50 56.3431 50 58H52C52 57.4477 52.4477 57 53 57V55Z" fill="#111111"/>
<path d="M89 57H105V55H89V57ZM106 58V74H108V58H106ZM105 75H89V77H105V75ZM88 74V58H86V74H88ZM89 75C88.4477 75 88 74.5523 88 74H86C86 75.6569 87.3431 77 89 77V75ZM106 74C106 74.5523 105.552 75 105 75V77C106.657 77 108 75.6569 108 74H106ZM105 57C105.552 57 106 57.4477 106 58H108C108 56.3431 106.657 55 105 55V57ZM89 55C87.3431 55 86 56.3431 86 58H88C88 57.4477 88.4477 57 89 57V55Z" fill="#E9E9E9"/>
<rect y="53" width="28" height="28" rx="14" fill="#94538C"/>
<path d="M17.2926 73V71.944H14.9406V62.12H13.9806C13.2926 63.256 12.5406 64.088 11.3726 64.728V66.104C12.8926 65.24 13.2766 64.552 13.6606 64.104V71.944H11.2606V73H17.2926Z" fill="#FCFCFC"/>
<line x1="32" y1="66.5" x2="54" y2="66.5" stroke="#94538C" stroke-dasharray="2 2"/>
</svg>
