<svg width="89" height="72" viewBox="0 0 89 72" fill="none" xmlns="http://www.w3.org/2000/svg">
<path d="M0 7C0 5.89543 0.895431 5 2 5H12C13.1046 5 14 5.89543 14 7V17C14 18.1046 13.1046 19 12 19H2C0.89543 19 0 18.1046 0 17V7Z" fill="white"/>
<path d="M2.5 11.625V12.375H11.5V11.625H2.5Z" fill="#111111"/>
<path d="M2 6H12V4H2V6ZM13 7V17H15V7H13ZM12 18H2V20H12V18ZM1 17V7H-1V17H1ZM2 18C1.44772 18 1 17.5523 1 17H-1C-1 18.6569 0.343146 20 2 20V18ZM13 17C13 17.5523 12.5523 18 12 18V20C13.6569 20 15 18.6569 15 17H13ZM12 6C12.5523 6 13 6.44772 13 7H15C15 5.34315 13.6569 4 12 4V6ZM2 4C0.343146 4 -1 5.34315 -1 7H1C1 6.44772 1.44772 6 2 6V4Z" fill="#E9E9E9"/>
<path d="M27.152 18.16C29.568 18.16 31.056 16.912 31.568 14.448L29.168 14.048C28.96 15.472 28.416 16.176 27.296 16.176C25.968 16.176 25.36 14.992 25.36 12.72C25.36 10.272 26.048 9.168 27.232 9.168C28.352 9.168 28.752 9.952 28.944 11.28L31.456 10.88C31.04 8.544 29.664 7.152 27.216 7.152C24.368 7.152 22.528 9.2 22.528 12.848C22.528 16.08 24.4 18.16 27.152 18.16ZM34.7546 18.096C36.1626 18.096 36.9946 17.68 37.6826 16.976C37.6826 17.424 37.7146 17.84 37.8106 18H40.1786C40.0346 17.696 40.0026 16.912 40.0026 16.448V12.784C40.0026 11.072 39.2346 9.92 36.5626 9.92C34.2266 9.92 32.8986 10.736 32.5146 12.32L34.7866 12.528C34.9466 11.856 35.3946 11.536 36.3226 11.536C37.1866 11.536 37.5546 11.92 37.6026 12.544C37.6026 12.608 37.6186 12.848 37.6186 12.928C37.2826 12.944 36.9626 12.976 36.6586 13.008C33.8906 13.28 32.3066 14.16 32.3066 15.92C32.3066 17.264 33.2826 18.096 34.7546 18.096ZM35.8746 16.56C35.2506 16.56 34.8666 16.288 34.8666 15.696C34.8666 14.944 35.5546 14.48 36.7706 14.272C37.0266 14.224 37.3146 14.192 37.6186 14.176V15.568C37.2826 16.08 36.6906 16.56 35.8746 16.56ZM44.9561 18.112C45.4521 18.112 46.0121 18.064 46.3961 18.016V16.24C46.0601 16.272 45.7561 16.272 45.4521 16.24C44.8601 16.16 44.6041 15.808 44.6041 15.184V11.744H46.2361V10.064H44.6041V7.632H42.3641L42.2041 10.064H40.9241V11.744H42.1881V15.584C42.1881 17.264 43.1481 18.112 44.9561 18.112ZM51.1858 18.128C53.2338 18.128 54.5458 17.136 55.0738 15.632L53.0098 15.36C52.7218 16.144 52.2098 16.544 51.4098 16.544C50.4338 16.544 49.6978 15.92 49.6658 14.496H55.1538C55.1698 14.32 55.1698 14.192 55.1698 14.016C55.1058 11.552 53.6498 9.92 51.1698 9.92C48.9618 9.92 47.0738 11.584 47.0738 14.144C47.0738 16.56 48.8018 18.128 51.1858 18.128ZM49.6978 13.2C49.7618 12.112 50.4018 11.472 51.2018 11.472C52.1298 11.472 52.5938 12.128 52.6738 13.2H49.6978ZM59.9774 20.816C63.0494 20.816 64.3134 19.856 64.3134 18.24C64.3134 16.736 63.4334 16.064 60.6814 15.968C59.0814 15.92 58.4094 15.92 58.4094 15.456C58.4094 15.104 58.7294 14.928 58.9854 14.944C59.1134 14.96 59.6254 15.024 59.9134 15.024C62.2174 15.024 63.4334 14.112 63.4334 12.512C63.4334 11.776 63.1134 11.168 62.7454 10.896C62.8894 10.608 63.1614 10.48 63.5294 10.48C63.7694 10.48 64.0094 10.528 64.1854 10.64V8.88C64.1374 8.864 63.9294 8.832 63.8174 8.832C62.7614 8.832 61.9134 9.152 61.7054 10.272C61.2094 10.016 60.2654 9.904 59.8014 9.904C57.8974 9.904 56.3614 10.832 56.3614 12.48C56.3614 13.424 56.7294 14.192 57.8494 14.576C56.6974 14.816 56.1694 15.408 56.1694 16.096C56.1694 16.704 56.5534 17.216 57.5294 17.456C56.5214 17.664 55.7534 18.096 55.7534 19.04C55.7534 20.368 57.4014 20.816 59.9774 20.816ZM59.9294 13.744C59.1934 13.744 58.7134 13.312 58.7134 12.48C58.7134 11.76 59.1774 11.28 59.9294 11.28C60.6974 11.28 61.1454 11.776 61.1454 12.48C61.1454 13.28 60.7294 13.744 59.9294 13.744ZM59.6894 19.44C58.4254 19.44 57.6894 19.216 57.6894 18.624C57.6894 18.16 58.0094 17.888 58.4574 17.776C61.5134 17.904 62.1374 17.968 62.1374 18.592C62.1374 19.216 61.2574 19.44 59.6894 19.44ZM68.8089 18.128C71.2889 18.128 72.9529 16.368 72.9529 14.048C72.9529 11.584 71.3209 9.92 68.8569 9.92C66.5049 9.92 64.7769 11.632 64.7769 14.096C64.7769 16.416 66.4409 18.128 68.8089 18.128ZM68.8889 16.528C67.8969 16.528 67.4169 15.744 67.4169 14.016C67.4169 12.336 67.9289 11.568 68.8729 11.568C69.8489 11.568 70.2969 12.352 70.2969 14.016C70.2969 15.76 69.8009 16.528 68.8889 16.528ZM76.9095 18V13.248C77.3575 12.4 78.1575 11.92 79.1015 11.92C79.3095 11.92 79.6615 11.936 79.8215 11.968V9.968C79.6935 9.936 79.4855 9.92 79.2455 9.92C78.0775 9.92 77.1335 10.784 76.7655 11.728V10.064H74.3975V18H76.9095ZM80.7151 20.752C80.8751 20.752 81.0191 20.768 81.1631 20.768C83.7071 20.768 84.5391 19.856 84.9871 18.624L88.1231 10.064H86.1071L84.7471 14.048L84.4751 14.912L84.2031 14.032L82.8431 10.064H80.1871L82.7791 16.736C82.9231 17.12 83.0031 17.456 83.0031 17.744C83.0031 18.512 82.4431 18.96 81.1791 18.96C81.0351 18.96 80.8911 18.96 80.7151 18.944V20.752Z" fill="black"/>
<path d="M12 30H22V28H12V30ZM23 31V41H25V31H23ZM22 42H12V44H22V42ZM11 41V31H9V41H11ZM12 42C11.4477 42 11 41.5523 11 41H9C9 42.6569 10.3431 44 12 44V42ZM23 41C23 41.5523 22.5523 42 22 42V44C23.6569 44 25 42.6569 25 41H23ZM22 30C22.5523 30 23 30.4477 23 31H25C25 29.3431 23.6569 28 22 28V30ZM12 28C10.3431 28 9 29.3431 9 31H11C11 30.4477 11.4477 30 12 30V28Z" fill="#E9E9E9"/>
<path d="M37.04 42.208C39.6 42.208 41.424 39.952 41.424 36.672C41.424 33.2 39.632 31.12 37.04 31.12C34.512 31.12 32.672 33.216 32.672 36.672C32.672 40.128 34.448 42.208 37.04 42.208ZM37.04 41.12C35.392 41.12 34.064 39.648 34.064 36.672C34.064 33.984 35.072 32.24 37.04 32.24C39.04 32.24 40.032 33.904 40.032 36.672C40.032 39.424 38.896 41.12 37.04 41.12ZM46.9898 42.112C48.5738 42.112 49.9978 40.72 49.9978 38.048C49.9978 35.2 48.7818 33.968 47.0218 33.968C45.7578 33.968 44.9578 34.736 44.4778 35.504V34.112H43.2938V44.672H44.5258V40.96C45.0058 41.536 45.8378 42.112 46.9898 42.112ZM46.6538 41.2C45.5178 41.2 44.9418 40.496 44.5258 39.904V36.576C45.0858 35.472 45.8218 34.992 46.7338 34.992C48.0938 34.992 48.7018 35.968 48.7018 38.08C48.7018 40.352 47.9018 41.2 46.6538 41.2ZM54.0174 42.112C54.4494 42.112 54.9294 42.064 55.3614 41.984V41.008C55.0734 41.056 54.6094 41.104 54.2414 41.104C53.5694 41.088 53.1374 40.72 53.1374 39.888V35.104H54.9134V34.112H53.1374V32.048H52.0014L51.9374 34.112H50.6414V35.104H51.9214V39.824C51.9214 41.456 52.6894 42.112 54.0174 42.112ZM58.0593 32.72V31.312H56.6993V32.72H58.0593ZM58.0113 42V34.112H56.7633V42H58.0113ZM63.3624 42.128C65.3144 42.128 66.9304 40.512 66.9304 38.032C66.9304 35.6 65.5224 33.968 63.3624 33.968C61.4264 33.968 59.8264 35.552 59.8264 38.016C59.8264 40.512 61.3304 42.128 63.3624 42.128ZM63.3464 41.2C62.0184 41.2 61.1384 40.016 61.1384 38.032C61.1384 36 62.0984 34.944 63.3464 34.944C64.6584 34.944 65.6184 35.968 65.6184 38.016C65.6184 40.144 64.6424 41.2 63.3464 41.2ZM69.9636 42V36.592C70.6196 35.648 71.4516 35.008 72.4596 35.008C73.3556 35.008 73.7716 35.456 73.7716 36.4V42H75.0196V36.416C75.0196 34.8 74.2996 33.968 72.8276 33.968C71.4196 33.968 70.4436 34.896 69.8996 35.68V34.112H68.7156V42H69.9636ZM87.027 42V40.944H84.675V31.12H83.715C83.027 32.256 82.275 33.088 81.107 33.728V35.104C82.627 34.24 83.011 33.552 83.395 33.104V40.944H80.995V42H87.027Z" fill="black"/>
<path d="M10 55C10 53.8954 10.8954 53 12 53H22C23.1046 53 24 53.8954 24 55V65C24 66.1046 23.1046 67 22 67H12C10.8954 67 10 66.1046 10 65V55Z" fill="white"/>
<path d="M15.3875 62.67L12.875 60.1575L13.4075 59.625L15.3875 61.6125L20.375 56.625L20.9075 57.1575L15.3875 62.67Z" fill="#111111"/>
<path d="M12 54H22V52H12V54ZM23 55V65H25V55H23ZM22 66H12V68H22V66ZM11 65V55H9V65H11ZM12 66C11.4477 66 11 65.5523 11 65H9C9 66.6569 10.3431 68 12 68V66ZM23 65C23 65.5523 22.5523 66 22 66V68C23.6569 68 25 66.6569 25 65H23ZM22 54C22.5523 54 23 54.4477 23 55H25C25 53.3431 23.6569 52 22 52V54ZM12 52C10.3431 52 9 53.3431 9 55H11C11 54.4477 11.4477 54 12 54V52Z" fill="#E9E9E9"/>
<path d="M37.04 66.208C39.6 66.208 41.424 63.952 41.424 60.672C41.424 57.2 39.632 55.12 37.04 55.12C34.512 55.12 32.672 57.216 32.672 60.672C32.672 64.128 34.448 66.208 37.04 66.208ZM37.04 65.12C35.392 65.12 34.064 63.648 34.064 60.672C34.064 57.984 35.072 56.24 37.04 56.24C39.04 56.24 40.032 57.904 40.032 60.672C40.032 63.424 38.896 65.12 37.04 65.12ZM46.9898 66.112C48.5738 66.112 49.9978 64.72 49.9978 62.048C49.9978 59.2 48.7818 57.968 47.0218 57.968C45.7578 57.968 44.9578 58.736 44.4778 59.504V58.112H43.2938V68.672H44.5258V64.96C45.0058 65.536 45.8378 66.112 46.9898 66.112ZM46.6538 65.2C45.5178 65.2 44.9418 64.496 44.5258 63.904V60.576C45.0858 59.472 45.8218 58.992 46.7338 58.992C48.0938 58.992 48.7018 59.968 48.7018 62.08C48.7018 64.352 47.9018 65.2 46.6538 65.2ZM54.0174 66.112C54.4494 66.112 54.9294 66.064 55.3614 65.984V65.008C55.0734 65.056 54.6094 65.104 54.2414 65.104C53.5694 65.088 53.1374 64.72 53.1374 63.888V59.104H54.9134V58.112H53.1374V56.048H52.0014L51.9374 58.112H50.6414V59.104H51.9214V63.824C51.9214 65.456 52.6894 66.112 54.0174 66.112ZM58.0593 56.72V55.312H56.6993V56.72H58.0593ZM58.0113 66V58.112H56.7633V66H58.0113ZM63.3624 66.128C65.3144 66.128 66.9304 64.512 66.9304 62.032C66.9304 59.6 65.5224 57.968 63.3624 57.968C61.4264 57.968 59.8264 59.552 59.8264 62.016C59.8264 64.512 61.3304 66.128 63.3624 66.128ZM63.3464 65.2C62.0184 65.2 61.1384 64.016 61.1384 62.032C61.1384 60 62.0984 58.944 63.3464 58.944C64.6584 58.944 65.6184 59.968 65.6184 62.016C65.6184 64.144 64.6424 65.2 63.3464 65.2ZM69.9636 66V60.592C70.6196 59.648 71.4516 59.008 72.4596 59.008C73.3556 59.008 73.7716 59.456 73.7716 60.4V66H75.0196V60.416C75.0196 58.8 74.2996 57.968 72.8276 57.968C71.4196 57.968 70.4436 58.896 69.8996 59.68V58.112H68.7156V66H69.9636ZM87.027 66V64.944H84.675V55.12H83.715C83.027 56.256 82.275 57.088 81.107 57.728V59.104C82.627 58.24 83.011 57.552 83.395 57.104V64.944H80.995V66H87.027Z" fill="black"/>
</svg>
