<svg width="640" height="322" viewBox="0 0 640 322" fill="none" xmlns="http://www.w3.org/2000/svg">
    <path fill="#fff" d="M112 51h471v68H112z"/>
    <path d="M114.656 91v-5.072h4.96V91h1.328V80.328h-1.328v4.416h-4.96v-4.416h-1.328V91h1.328zm11.834.128c1.568 0 2.784-.816 3.328-2.336l-1.088-.16c-.448 1.168-1.264 1.552-2.128 1.552-1.536 0-2.432-1.008-2.464-2.992h5.824c-.016-.176 0-.352-.016-.528-.16-2.192-1.36-3.696-3.424-3.696-2.032 0-3.648 1.552-3.648 4.224 0 2.352 1.456 3.936 3.616 3.936zm-2.304-4.784c.096-1.488 1.072-2.432 2.336-2.432 1.264 0 2.048.912 2.176 2.432h-4.512zm9.386 4.752c1.472 0 2.4-.56 3.024-1.424-.016.4.048 1.056.144 1.328h1.184a6.289 6.289 0 0 1-.176-1.536V85.88c0-1.984-.864-2.912-3.104-2.912-1.872 0-3.104.768-3.392 2.208l1.152.128c.256-1.008.928-1.36 2.208-1.36 1.328 0 1.84.464 1.936 1.328.032.192.032.464.032.736-.624.016-1.152.016-1.792.096-2.16.256-3.728 1.104-3.728 2.816 0 1.44 1.12 2.176 2.512 2.176zm.368-.912c-1.056 0-1.584-.48-1.584-1.392 0-.992.88-1.68 2.592-1.904.496-.064 1.072-.064 1.632-.064v1.632c-.336.816-1.136 1.728-2.64 1.728zm8.598.944c1.152 0 1.952-.464 2.576-1.328V91h1.168V80.328h-1.2v3.856c-.368-.528-1.12-1.216-2.32-1.216-2.016 0-3.232 1.776-3.232 4.112 0 2.576 1.104 4.048 3.008 4.048zm.336-.944c-1.312 0-2.048-.912-2.048-3.104 0-2.016.704-3.136 2.128-3.136 1.168 0 1.712.672 2.112 1.424v3.216c-.336.88-1.008 1.6-2.192 1.6zm8.866.944c1.568 0 2.784-.816 3.328-2.336l-1.088-.16c-.448 1.168-1.264 1.552-2.128 1.552-1.536 0-2.432-1.008-2.464-2.992h5.824c-.016-.176 0-.352-.016-.528-.16-2.192-1.36-3.696-3.424-3.696-2.032 0-3.648 1.552-3.648 4.224 0 2.352 1.456 3.936 3.616 3.936zm-2.304-4.784c.096-1.488 1.072-2.432 2.336-2.432 1.264 0 2.048.912 2.176 2.432h-4.512zM158.182 91v-5.152c.656-1.104 1.584-1.744 2.512-1.744.096 0 .256 0 .352.016v-1.136c-.128-.016-.224-.016-.368-.016-1.12 0-2.048.912-2.56 1.84v-1.696h-1.184V91h1.248zm10.007.112c.432 0 .912-.048 1.344-.128v-.976a7.697 7.697 0 0 1-1.12.096c-.672-.016-1.104-.384-1.104-1.216v-4.784h1.776v-.992h-1.776v-2.064h-1.136l-.064 2.064h-1.296v.992h1.28v4.72c0 1.632.768 2.288 2.096 2.288zm5.738.016c1.568 0 2.784-.816 3.328-2.336l-1.088-.16c-.448 1.168-1.264 1.552-2.128 1.552-1.536 0-2.432-1.008-2.464-2.992h5.824c-.016-.176 0-.352-.016-.528-.16-2.192-1.36-3.696-3.424-3.696-2.032 0-3.648 1.552-3.648 4.224 0 2.352 1.456 3.936 3.616 3.936zm-2.304-4.784c.096-1.488 1.072-2.432 2.336-2.432 1.264 0 2.048.912 2.176 2.432h-4.512zM179.19 91l2-2.944.16-.288.176.288L183.59 91h1.376l-2.928-4.256 2.448-3.632h-1.2l-1.648 2.416-.208.32-.208-.32-1.648-2.416h-1.408l2.576 3.76L177.974 91h1.216zm9.171.112c.432 0 .912-.048 1.344-.128v-.976a7.697 7.697 0 0 1-1.12.096c-.672-.016-1.104-.384-1.104-1.216v-4.784h1.776v-.992h-1.776v-2.064h-1.136l-.064 2.064h-1.296v.992h1.28v4.72c0 1.632.768 2.288 2.096 2.288zm7.73-9.392v-1.408h-1.36v1.408h1.36zm-.048 9.28v-7.888h-1.248V91h1.248zm4.631.112c.432 0 .912-.048 1.344-.128v-.976a7.697 7.697 0 0 1-1.12.096c-.672-.016-1.104-.384-1.104-1.216v-4.784h1.776v-.992h-1.776v-2.064h-1.136l-.064 2.064h-1.296v.992h1.28v4.72c0 1.632.768 2.288 2.096 2.288zm5.737.016c1.569 0 2.785-.816 3.329-2.336l-1.088-.16c-.448 1.168-1.264 1.552-2.128 1.552-1.536 0-2.432-1.008-2.464-2.992h5.824c-.016-.176 0-.352-.016-.528-.16-2.192-1.36-3.696-3.424-3.696-2.032 0-3.648 1.552-3.648 4.224 0 2.352 1.456 3.936 3.615 3.936zm-2.303-4.784c.096-1.488 1.072-2.432 2.336-2.432 1.264 0 2.048.912 2.176 2.432h-4.512zm8.73 4.656v-5.408c.72-1.008 1.376-1.6 2.288-1.6.768 0 1.168.528 1.168 1.472V91h1.216v-5.392c.496-.784 1.312-1.584 2.288-1.584.768 0 1.2.432 1.2 1.456V91h1.232v-5.6c0-.64-.16-1.152-.4-1.52-.32-.592-.864-.896-1.68-.896-1.248 0-2.176.896-2.72 1.76-.096-1.12-.832-1.776-1.984-1.776-1.136 0-2.176.944-2.64 1.728v-1.584h-1.2V91h1.232zm18.353.128c1.952 0 3.568-1.616 3.568-4.096 0-2.432-1.408-4.064-3.568-4.064-1.936 0-3.536 1.584-3.536 4.048 0 2.496 1.504 4.112 3.536 4.112zm-.017-.928c-1.327 0-2.207-1.184-2.207-3.168 0-2.032.96-3.088 2.207-3.088 1.313 0 2.273 1.024 2.273 3.072 0 2.128-.976 3.184-2.273 3.184zm6.618.8v-5.408c.656-.944 1.488-1.584 2.496-1.584.896 0 1.312.448 1.312 1.392V91h1.248v-5.584c0-1.616-.72-2.448-2.192-2.448-1.408 0-2.384.928-2.928 1.712v-1.568h-1.184V91h1.248zm10.448.128c1.568 0 2.784-.816 3.328-2.336l-1.088-.16c-.448 1.168-1.264 1.552-2.128 1.552-1.536 0-2.432-1.008-2.464-2.992h5.824c-.016-.176 0-.352-.016-.528-.16-2.192-1.36-3.696-3.424-3.696-2.032 0-3.648 1.552-3.648 4.224 0 2.352 1.456 3.936 3.616 3.936zm-2.304-4.784c.096-1.488 1.072-2.432 2.336-2.432 1.264 0 2.048.912 2.176 2.432h-4.512z" fill="#111"/>
    <g clip-path="url(#eju3i6tpca)">
        <path d="m579.62 87-.71.71-3.91-3.96-3.91 3.92-.71-.67 4.62-4.67 4.62 4.67z" fill="#111"/>
    </g>
    <path fill="#fff" d="M112 119h471v64H112z"/>
    <path d="M119.6 135v-1.152h-4.944v-9.52h-1.328V135h6.272zm3.872.128c1.952 0 3.568-1.616 3.568-4.096 0-2.432-1.408-4.064-3.568-4.064-1.936 0-3.536 1.584-3.536 4.048 0 2.496 1.504 4.112 3.536 4.112zm-.016-.928c-1.328 0-2.208-1.184-2.208-3.168 0-2.032.96-3.088 2.208-3.088 1.312 0 2.272 1.024 2.272 3.072 0 2.128-.976 3.184-2.272 3.184zm6.617.8v-5.152c.656-1.104 1.584-1.744 2.512-1.744.096 0 .256 0 .352.016v-1.136c-.128-.016-.224-.016-.368-.016-1.12 0-2.048.912-2.56 1.84v-1.696h-1.184V135h1.248zm6.979.128c1.568 0 2.784-.816 3.328-2.336l-1.088-.16c-.448 1.168-1.264 1.552-2.128 1.552-1.536 0-2.432-1.008-2.464-2.992h5.824c-.016-.176 0-.352-.016-.528-.16-2.192-1.36-3.696-3.424-3.696-2.032 0-3.648 1.552-3.648 4.224 0 2.352 1.456 3.936 3.616 3.936zm-2.304-4.784c.096-1.488 1.072-2.432 2.336-2.432 1.264 0 2.048.912 2.176 2.432h-4.512zm8.731 4.656v-5.408c.72-1.008 1.376-1.6 2.288-1.6.768 0 1.168.528 1.168 1.472V135h1.216v-5.392c.496-.784 1.312-1.584 2.288-1.584.768 0 1.2.432 1.2 1.456V135h1.232v-5.6c0-.64-.16-1.152-.4-1.52-.32-.592-.864-.896-1.68-.896-1.248 0-2.176.896-2.72 1.76-.096-1.12-.832-1.776-1.984-1.776-1.136 0-2.176.944-2.64 1.728v-1.584h-1.2V135h1.232zm16.752-9.28v-1.408h-1.36v1.408h1.36zm-.048 9.28v-7.888h-1.248V135h1.248zm6.119.112c1.584 0 3.008-1.392 3.008-4.064 0-2.848-1.216-4.08-2.976-4.08-1.264 0-2.064.768-2.544 1.536v-1.392h-1.184v10.56h1.232v-3.712a3.181 3.181 0 0 0 2.464 1.152zm-.336-.912c-1.136 0-1.712-.704-2.128-1.296v-3.328c.56-1.104 1.296-1.584 2.208-1.584 1.36 0 1.968.976 1.968 3.088 0 2.272-.8 3.12-2.048 3.12zm7.652.928c1.92 0 3.168-.976 3.168-2.432 0-1.568-1.376-2.016-2.992-2.336-1.264-.272-2.208-.432-2.208-1.296 0-.72.72-1.152 1.776-1.152 1.072 0 1.792.48 2.096 1.312l1.104-.24c-.4-1.232-1.424-2.016-3.2-2.016-1.76 0-2.928.88-2.928 2.176 0 1.552 1.36 1.968 2.976 2.272 1.168.256 2.224.448 2.224 1.392 0 .832-.768 1.392-2.016 1.392-1.36 0-2.24-.624-2.496-1.552l-1.12.224c.384 1.44 1.616 2.256 3.616 2.256zm7.248 0c1.056 0 2.016-.464 2.64-1.472V135h1.152v-7.888h-1.232v5.6c-.528.96-1.296 1.472-2.176 1.472-1.104 0-1.568-.496-1.568-1.744v-5.328h-1.248v5.296c0 1.984 1.008 2.72 2.432 2.72zm7.41-.128v-5.408c.72-1.008 1.376-1.6 2.288-1.6.768 0 1.168.528 1.168 1.472V135h1.216v-5.392c.496-.784 1.312-1.584 2.288-1.584.768 0 1.2.432 1.2 1.456V135h1.232v-5.6c0-.64-.16-1.152-.4-1.52-.32-.592-.864-.896-1.68-.896-1.248 0-2.176.896-2.72 1.76-.096-1.12-.832-1.776-1.984-1.776-1.136 0-2.176.944-2.64 1.728v-1.584h-1.2V135h1.232zm17.84.128c1.152 0 1.952-.464 2.576-1.328v1.2h1.168v-10.672h-1.2v3.856c-.368-.528-1.12-1.216-2.32-1.216-2.016 0-3.232 1.776-3.232 4.112 0 2.576 1.104 4.048 3.008 4.048zm.336-.944c-1.312 0-2.048-.912-2.048-3.104 0-2.016.704-3.136 2.128-3.136 1.168 0 1.712.672 2.112 1.424v3.216c-.336.88-1.008 1.6-2.192 1.6zm8.77.944c1.952 0 3.568-1.616 3.568-4.096 0-2.432-1.408-4.064-3.568-4.064-1.936 0-3.536 1.584-3.536 4.048 0 2.496 1.504 4.112 3.536 4.112zm-.016-.928c-1.328 0-2.208-1.184-2.208-3.168 0-2.032.96-3.088 2.208-3.088 1.312 0 2.272 1.024 2.272 3.072 0 2.128-.976 3.184-2.272 3.184zm6.649.8v-10.672h-1.248V135h1.248zm5.351.128c1.952 0 3.568-1.616 3.568-4.096 0-2.432-1.408-4.064-3.568-4.064-1.936 0-3.536 1.584-3.536 4.048 0 2.496 1.504 4.112 3.536 4.112zm-.016-.928c-1.328 0-2.208-1.184-2.208-3.168 0-2.032.96-3.088 2.208-3.088 1.312 0 2.272 1.024 2.272 3.072 0 2.128-.976 3.184-2.272 3.184zm6.617.8v-5.152c.656-1.104 1.584-1.744 2.512-1.744.096 0 .256 0 .352.016v-1.136c-.128-.016-.224-.016-.368-.016-1.12 0-2.048.912-2.56 1.84v-1.696h-1.184V135h1.248zm10.295.128c1.92 0 3.168-.976 3.168-2.432 0-1.568-1.376-2.016-2.992-2.336-1.264-.272-2.208-.432-2.208-1.296 0-.72.72-1.152 1.776-1.152 1.072 0 1.792.48 2.096 1.312l1.104-.24c-.4-1.232-1.424-2.016-3.2-2.016-1.76 0-2.928.88-2.928 2.176 0 1.552 1.36 1.968 2.976 2.272 1.168.256 2.224.448 2.224 1.392 0 .832-.768 1.392-2.016 1.392-1.36 0-2.24-.624-2.496-1.552l-1.12.224c.384 1.44 1.616 2.256 3.616 2.256zm6.176-9.408v-1.408h-1.36v1.408h1.36zm-.048 9.28v-7.888h-1.248V135h1.248zm4.631.112c.432 0 .912-.048 1.344-.128v-.976a7.697 7.697 0 0 1-1.12.096c-.672-.016-1.104-.384-1.104-1.216v-4.784h1.776v-.992h-1.776v-2.064h-1.136l-.064 2.064h-1.296v.992h1.28v4.72c0 1.632.768 2.288 2.096 2.288zm8.29-.016c1.472 0 2.4-.56 3.024-1.424-.016.4.048 1.056.144 1.328h1.184a6.289 6.289 0 0 1-.176-1.536v-3.584c0-1.984-.864-2.912-3.104-2.912-1.872 0-3.105.768-3.392 2.208l1.152.128c.256-1.008.928-1.36 2.208-1.36 1.328 0 1.84.464 1.936 1.328.032.192.032.464.032.736-.624.016-1.152.016-1.792.096-2.16.256-3.728 1.104-3.728 2.816 0 1.44 1.12 2.176 2.512 2.176zm.368-.912c-1.056 0-1.584-.48-1.584-1.392 0-.992.88-1.68 2.592-1.904.496-.064 1.072-.064 1.632-.064v1.632c-.336.816-1.136 1.728-2.64 1.728zm7.413.816v-5.408c.72-1.008 1.376-1.6 2.288-1.6.768 0 1.168.528 1.168 1.472V135h1.216v-5.392c.496-.784 1.312-1.584 2.288-1.584.768 0 1.2.432 1.2 1.456V135h1.232v-5.6c0-.64-.16-1.152-.4-1.52-.32-.592-.864-.896-1.68-.896-1.248 0-2.176.896-2.72 1.76-.096-1.12-.832-1.776-1.984-1.776-1.136 0-2.176.944-2.64 1.728v-1.584h-1.2V135h1.232zm14.761.128c1.568 0 2.784-.816 3.328-2.336l-1.088-.16c-.448 1.168-1.264 1.552-2.128 1.552-1.536 0-2.432-1.008-2.464-2.992h5.824c-.016-.176 0-.352-.016-.528-.16-2.192-1.36-3.696-3.424-3.696-2.032 0-3.648 1.552-3.648 4.224 0 2.352 1.456 3.936 3.616 3.936zm-2.304-4.784c.096-1.488 1.072-2.432 2.336-2.432 1.264 0 2.048.912 2.176 2.432h-4.512zm9.707 4.768c.432 0 .912-.048 1.344-.128v-.976a7.697 7.697 0 0 1-1.12.096c-.672-.016-1.104-.384-1.104-1.216v-4.784h1.776v-.992h-1.776v-2.064h-1.136l-.064 2.064h-1.296v.992H291v4.72c0 1.632.768 2.288 2.096 2.288zm3.35 1.888 1.168-2.176v-1.6h-1.728V135h.672l-.96 2h.848zm9.944-1.872c1.568 0 2.736-.912 3.008-2.688l-1.088-.112c-.24 1.312-.848 1.872-1.888 1.872-1.184 0-2.112-.976-2.112-3.152 0-1.968.768-3.088 2.032-3.088 1.088 0 1.712.704 1.904 2l1.168-.144c-.352-1.936-1.408-2.848-3.088-2.848-2 0-3.328 1.76-3.328 4.048 0 2.64 1.456 4.112 3.392 4.112zm7.597 0c1.952 0 3.568-1.616 3.568-4.096 0-2.432-1.408-4.064-3.568-4.064-1.936 0-3.536 1.584-3.536 4.048 0 2.496 1.504 4.112 3.536 4.112zm-.016-.928c-1.328 0-2.208-1.184-2.208-3.168 0-2.032.96-3.088 2.208-3.088 1.312 0 2.272 1.024 2.272 3.072 0 2.128-.976 3.184-2.272 3.184zm6.618.8v-5.408c.656-.944 1.488-1.584 2.496-1.584.896 0 1.312.448 1.312 1.392v5.6h1.248v-5.584c0-1.616-.72-2.448-2.192-2.448-1.408 0-2.384.928-2.928 1.712v-1.568h-1.184V135h1.248zm9.92.128c1.92 0 3.168-.976 3.168-2.432 0-1.568-1.376-2.016-2.992-2.336-1.264-.272-2.208-.432-2.208-1.296 0-.72.72-1.152 1.776-1.152 1.072 0 1.792.48 2.096 1.312l1.104-.24c-.4-1.232-1.424-2.016-3.2-2.016-1.76 0-2.928.88-2.928 2.176 0 1.552 1.36 1.968 2.976 2.272 1.168.256 2.224.448 2.224 1.392 0 .832-.768 1.392-2.016 1.392-1.36 0-2.24-.624-2.496-1.552l-1.12.224c.384 1.44 1.616 2.256 3.616 2.256zm7.871 0c1.568 0 2.784-.816 3.328-2.336l-1.088-.16c-.448 1.168-1.264 1.552-2.128 1.552-1.536 0-2.432-1.008-2.464-2.992h5.824c-.016-.176 0-.352-.016-.528-.16-2.192-1.36-3.696-3.424-3.696-2.032 0-3.648 1.552-3.648 4.224 0 2.352 1.456 3.936 3.616 3.936zm-2.304-4.784c.096-1.488 1.072-2.432 2.336-2.432 1.264 0 2.048.912 2.176 2.432h-4.512zm10.283 4.784c1.568 0 2.736-.912 3.008-2.688l-1.088-.112c-.24 1.312-.848 1.872-1.888 1.872-1.184 0-2.112-.976-2.112-3.152 0-1.968.768-3.088 2.032-3.088 1.088 0 1.712.704 1.904 2l1.168-.144c-.352-1.936-1.408-2.848-3.088-2.848-2 0-3.328 1.76-3.328 4.048 0 2.64 1.456 4.112 3.392 4.112zm6.877-.016c.432 0 .912-.048 1.344-.128v-.976a7.697 7.697 0 0 1-1.12.096c-.672-.016-1.104-.384-1.104-1.216v-4.784h1.776v-.992h-1.776v-2.064h-1.136l-.064 2.064h-1.296v.992h1.28v4.72c0 1.632.768 2.288 2.096 2.288zm5.738.016c1.568 0 2.784-.816 3.328-2.336l-1.088-.16c-.448 1.168-1.264 1.552-2.128 1.552-1.536 0-2.432-1.008-2.464-2.992h5.824c-.016-.176 0-.352-.016-.528-.16-2.192-1.36-3.696-3.424-3.696-2.032 0-3.648 1.552-3.648 4.224 0 2.352 1.456 3.936 3.616 3.936zm-2.304-4.784c.096-1.488 1.072-2.432 2.336-2.432 1.264 0 2.048.912 2.176 2.432h-4.512zm9.707 4.768c.432 0 .912-.048 1.344-.128v-.976a7.697 7.697 0 0 1-1.12.096c-.672-.016-1.104-.384-1.104-1.216v-4.784h1.776v-.992h-1.776v-2.064h-1.136l-.064 2.064h-1.296v.992h1.28v4.72c0 1.632.768 2.288 2.096 2.288zm5.114.016c1.056 0 2.016-.464 2.64-1.472V135h1.152v-7.888h-1.232v5.6c-.528.96-1.296 1.472-2.176 1.472-1.104 0-1.568-.496-1.568-1.744v-5.328h-1.248v5.296c0 1.984 1.008 2.72 2.432 2.72zm7.426-.128v-5.152c.656-1.104 1.584-1.744 2.512-1.744.096 0 .256 0 .352.016v-1.136c-.128-.016-.224-.016-.368-.016-1.12 0-2.048.912-2.56 1.84v-1.696h-1.184V135h1.248zm9.687.096c1.472 0 2.4-.56 3.024-1.424-.016.4.048 1.056.144 1.328h1.184a6.289 6.289 0 0 1-.176-1.536v-3.584c0-1.984-.864-2.912-3.104-2.912-1.872 0-3.104.768-3.392 2.208l1.152.128c.256-1.008.928-1.36 2.208-1.36 1.328 0 1.84.464 1.936 1.328.032.192.032.464.032.736-.624.016-1.152.016-1.792.096-2.16.256-3.728 1.104-3.728 2.816 0 1.44 1.12 2.176 2.512 2.176zm.368-.912c-1.056 0-1.584-.48-1.584-1.392 0-.992.88-1.68 2.592-1.904.496-.064 1.072-.064 1.632-.064v1.632c-.336.816-1.136 1.728-2.64 1.728zm8.597.944c1.152 0 1.952-.464 2.576-1.328v1.2h1.168v-10.672h-1.2v3.856c-.368-.528-1.12-1.216-2.32-1.216-2.016 0-3.232 1.776-3.232 4.112 0 2.576 1.104 4.048 3.008 4.048zm.336-.944c-1.312 0-2.048-.912-2.048-3.104 0-2.016.704-3.136 2.128-3.136 1.168 0 1.712.672 2.112 1.424v3.216c-.336.88-1.008 1.6-2.192 1.6zm7.17-8.464v-1.408h-1.36v1.408h1.36zm-.048 9.28v-7.888h-1.248V135h1.248zm6.119.112c1.584 0 3.008-1.392 3.008-4.064 0-2.848-1.216-4.08-2.976-4.08-1.264 0-2.064.768-2.544 1.536v-1.392h-1.184v10.56h1.232v-3.712a3.181 3.181 0 0 0 2.464 1.152zm-.336-.912c-1.136 0-1.712-.704-2.128-1.296v-3.328c.56-1.104 1.296-1.584 2.208-1.584 1.36 0 1.968.976 1.968 3.088 0 2.272-.8 3.12-2.048 3.12zm6.484-8.48v-1.408h-1.36v1.408h1.36zm-.048 9.28v-7.888h-1.248V135h1.248zm4.919.128c1.92 0 3.168-.976 3.168-2.432 0-1.568-1.376-2.016-2.992-2.336-1.264-.272-2.208-.432-2.208-1.296 0-.72.72-1.152 1.776-1.152 1.072 0 1.792.48 2.096 1.312l1.104-.24c-.4-1.232-1.424-2.016-3.2-2.016-1.76 0-2.928.88-2.928 2.176 0 1.552 1.36 1.968 2.976 2.272 1.168.256 2.224.448 2.224 1.392 0 .832-.768 1.392-2.016 1.392-1.36 0-2.24-.624-2.496-1.552l-1.12.224c.384 1.44 1.616 2.256 3.616 2.256zm7.632 0c1.568 0 2.736-.912 3.008-2.688l-1.088-.112c-.24 1.312-.848 1.872-1.888 1.872-1.184 0-2.112-.976-2.112-3.152 0-1.968.768-3.088 2.032-3.088 1.088 0 1.712.704 1.904 2l1.168-.144c-.352-1.936-1.408-2.848-3.088-2.848-2 0-3.328 1.76-3.328 4.048 0 2.64 1.456 4.112 3.392 4.112zm5.997-9.408v-1.408h-1.36v1.408h1.36zm-.048 9.28v-7.888h-1.248V135h1.248zm3.671 0v-5.408c.656-.944 1.488-1.584 2.496-1.584.896 0 1.312.448 1.312 1.392v5.6h1.248v-5.584c0-1.616-.72-2.448-2.192-2.448-1.408 0-2.384.928-2.928 1.712v-1.568h-1.184V135h1.248zm10.274 2.976c2.56 0 3.856-.96 3.856-2.336 0-1.296-.896-1.824-3.408-1.872-1.6-.048-2.592-.048-2.592-.752 0-.48.448-.784.864-.784.128.032.64.144 1.151.144 1.793 0 2.881-1.136 2.881-2.704 0-.816-.304-1.44-.72-1.808.128-.576.464-.912 1.264-.896.096 0 .176.016.272.032l-.016-1.04h-.192c-1.344-.016-1.776.528-1.968 1.392-.48-.256-1.056-.384-1.648-.384-1.584 0-2.944 1.088-2.944 2.704 0 .96.384 1.776 1.152 2.176-.704.192-1.248.672-1.248 1.344 0 .608.32 1.056 1.12 1.28-.96.24-1.536.832-1.536 1.616 0 1.216 1.28 1.888 3.712 1.888zm-.192-6.432c-1.072 0-1.776-.64-1.776-1.872 0-.992.608-1.808 1.776-1.808 1.184 0 1.776.864 1.776 1.824 0 1.184-.656 1.856-1.776 1.856zm.096 5.6c-1.76 0-2.48-.448-2.48-1.2 0-.704.48-1.024 1.104-1.2 3.552.08 4.144.256 4.144 1.056s-1.008 1.344-2.768 1.344zm11.738-2.016c1.568 0 2.784-.816 3.328-2.336l-1.088-.16c-.448 1.168-1.264 1.552-2.128 1.552-1.536 0-2.432-1.008-2.464-2.992h5.824c-.016-.176 0-.352-.016-.528-.16-2.192-1.36-3.696-3.424-3.696-2.032 0-3.648 1.552-3.648 4.224 0 2.352 1.456 3.936 3.616 3.936zm-2.304-4.784c.096-1.488 1.072-2.432 2.336-2.432 1.264 0 2.048.912 2.176 2.432h-4.512zm8.779 4.656v-10.672h-1.248V135h1.248zm3.751-9.28v-1.408h-1.36v1.408h1.36zm-.048 9.28v-7.888h-1.248V135h1.248zm4.631.112c.432 0 .912-.048 1.344-.128v-.976a7.697 7.697 0 0 1-1.12.096c-.672-.016-1.104-.384-1.104-1.216v-4.784h1.776v-.992h-1.776v-2.064h-1.136l-.064 2.064h-1.296v.992h1.28v4.72c0 1.632.768 2.288 2.096 2.288zm4.659-.112v-1.744h-1.744V135h1.744zm9.752.176c2.08 0 3.456-1.104 3.968-3.504l-1.216-.24c-.32 1.68-1.184 2.656-2.704 2.656-1.664 0-2.896-1.456-2.896-4.352 0-2.896 1.168-4.432 2.928-4.432 1.36 0 2.224.704 2.64 2.512l1.28-.272c-.512-2.352-1.904-3.424-3.936-3.424-2.416 0-4.336 1.984-4.336 5.616 0 3.472 1.712 5.44 4.272 5.44zm6.77-.176v-5.152c.656-1.104 1.584-1.744 2.512-1.744.096 0 .256 0 .352.016v-1.136c-.128-.016-.224-.016-.368-.016-1.12 0-2.048.912-2.56 1.84v-1.696h-1.184V135h1.248zm5.999.096c1.472 0 2.4-.56 3.024-1.424-.016.4.048 1.056.144 1.328h1.184a6.289 6.289 0 0 1-.176-1.536v-3.584c0-1.984-.864-2.912-3.104-2.912-1.872 0-3.104.768-3.392 2.208l1.152.128c.256-1.008.928-1.36 2.208-1.36 1.328 0 1.84.464 1.936 1.328.032.192.032.464.032.736-.624.016-1.152.016-1.792.096-2.16.256-3.728 1.104-3.728 2.816 0 1.44 1.12 2.176 2.512 2.176zm.368-.912c-1.056 0-1.584-.48-1.584-1.392 0-.992.88-1.68 2.592-1.904.496-.064 1.072-.064 1.632-.064v1.632c-.336.816-1.136 1.728-2.64 1.728zm8.678.944c1.92 0 3.168-.976 3.168-2.432 0-1.568-1.376-2.016-2.992-2.336-1.264-.272-2.208-.432-2.208-1.296 0-.72.72-1.152 1.776-1.152 1.072 0 1.792.48 2.096 1.312l1.104-.24c-.4-1.232-1.424-2.016-3.2-2.016-1.76 0-2.928.88-2.928 2.176 0 1.552 1.36 1.968 2.976 2.272 1.168.256 2.224.448 2.224 1.392 0 .832-.768 1.392-2.016 1.392-1.36 0-2.24-.624-2.496-1.552l-1.12.224c.384 1.44 1.616 2.256 3.616 2.256zm9.863-9.408v-1.408h-1.392v1.408h1.392zm-2.32 12.16c1.344 0 2.256-.672 2.256-2.48v-8.288h-1.248v7.92c0 1.072-.112 1.808-1.168 1.808-.384 0-.688-.016-1.024-.048v.976a7.24 7.24 0 0 0 1.184.112zm7.08-2.752c1.056 0 2.016-.464 2.64-1.472V135h1.152v-7.888h-1.232v5.6c-.528.96-1.296 1.472-2.176 1.472-1.104 0-1.568-.496-1.568-1.744v-5.328h-1.248v5.296c0 1.984 1.008 2.72 2.432 2.72zm8.674 0c1.92 0 3.168-.976 3.168-2.432 0-1.568-1.376-2.016-2.992-2.336-1.264-.272-2.208-.432-2.208-1.296 0-.72.72-1.152 1.776-1.152 1.072 0 1.792.48 2.096 1.312l1.104-.24c-.4-1.232-1.424-2.016-3.2-2.016-1.76 0-2.928.88-2.928 2.176 0 1.552 1.36 1.968 2.976 2.272 1.168.256 2.224.448 2.224 1.392 0 .832-.768 1.392-2.016 1.392-1.36 0-2.24-.624-2.496-1.552l-1.12.224c.384 1.44 1.616 2.256 3.616 2.256zm7.056-.016c.432 0 .912-.048 1.344-.128v-.976a7.71 7.71 0 0 1-1.12.096c-.672-.016-1.104-.384-1.104-1.216v-4.784h1.776v-.992h-1.776v-2.064h-1.136l-.064 2.064h-1.296v.992h1.28v4.72c0 1.632.768 2.288 2.096 2.288zm5.641.016c1.952 0 3.568-1.616 3.568-4.096 0-2.432-1.408-4.064-3.568-4.064-1.936 0-3.536 1.584-3.536 4.048 0 2.496 1.504 4.112 3.536 4.112zm-.016-.928c-1.328 0-2.208-1.184-2.208-3.168 0-2.032.96-3.088 2.208-3.088 1.312 0 2.272 1.024 2.272 3.072 0 2.128-.976 3.184-2.272 3.184zm-432.122 20.928c1.568 0 2.784-.816 3.328-2.336l-1.088-.16c-.448 1.168-1.264 1.552-2.128 1.552-1.536 0-2.432-1.008-2.464-2.992h5.824c-.016-.176 0-.352-.016-.528-.16-2.192-1.36-3.696-3.424-3.696-2.032 0-3.648 1.552-3.648 4.224 0 2.352 1.456 3.936 3.616 3.936zm-2.304-4.784c.096-1.488 1.072-2.432 2.336-2.432 1.264 0 2.048.912 2.176 2.432h-4.512zm9.995 4.784c1.92 0 3.168-.976 3.168-2.432 0-1.568-1.376-2.016-2.992-2.336-1.264-.272-2.208-.432-2.208-1.296 0-.72.72-1.152 1.776-1.152 1.072 0 1.792.48 2.096 1.312l1.104-.24c-.4-1.232-1.424-2.016-3.2-2.016-1.76 0-2.928.88-2.928 2.176 0 1.552 1.36 1.968 2.976 2.272 1.168.256 2.224.448 2.224 1.392 0 .832-.768 1.392-2.016 1.392-1.36 0-2.24-.624-2.496-1.552l-1.12.224c.384 1.44 1.616 2.256 3.616 2.256zm7.056-.016c.432 0 .912-.048 1.344-.128v-.976a7.71 7.71 0 0 1-1.12.096c-.672-.016-1.104-.384-1.104-1.216v-4.784h1.776v-.992h-1.776v-2.064h-1.136l-.064 2.064h-1.296v.992h1.28v4.72c0 1.632.768 2.288 2.096 2.288zm3.35 1.888 1.168-2.176v-1.6h-1.728V155h.672l-.96 2h.848zm9.944-1.872c1.568 0 2.736-.912 3.008-2.688l-1.088-.112c-.24 1.312-.848 1.872-1.888 1.872-1.184 0-2.112-.976-2.112-3.152 0-1.968.768-3.088 2.032-3.088 1.088 0 1.712.704 1.904 2l1.168-.144c-.352-1.936-1.408-2.848-3.088-2.848-2 0-3.328 1.76-3.328 4.048 0 2.64 1.456 4.112 3.392 4.112zm7.597 0c1.952 0 3.568-1.616 3.568-4.096 0-2.432-1.408-4.064-3.568-4.064-1.936 0-3.536 1.584-3.536 4.048 0 2.496 1.504 4.112 3.536 4.112zm-.016-.928c-1.328 0-2.208-1.184-2.208-3.168 0-2.032.96-3.088 2.208-3.088 1.312 0 2.272 1.024 2.272 3.072 0 2.128-.976 3.184-2.272 3.184zm6.602.8v-5.408c.72-1.008 1.376-1.6 2.288-1.6.768 0 1.168.528 1.168 1.472V155h1.216v-5.392c.496-.784 1.312-1.584 2.288-1.584.768 0 1.2.432 1.2 1.456V155h1.232v-5.6c0-.64-.16-1.152-.4-1.52-.32-.592-.864-.896-1.68-.896-1.248 0-2.176.896-2.72 1.76-.096-1.12-.832-1.776-1.984-1.776-1.136 0-2.176.944-2.64 1.728v-1.584h-1.2V155h1.232zm12.968 0v-5.408c.72-1.008 1.376-1.6 2.288-1.6.768 0 1.168.528 1.168 1.472V155h1.216v-5.392c.496-.784 1.312-1.584 2.288-1.584.768 0 1.2.432 1.2 1.456V155h1.232v-5.6c0-.64-.16-1.152-.4-1.52-.32-.592-.864-.896-1.68-.896-1.248 0-2.176.896-2.72 1.76-.096-1.12-.832-1.776-1.984-1.776-1.136 0-2.176.944-2.64 1.728v-1.584h-1.2V155h1.232zm14.665.128c1.952 0 3.568-1.616 3.568-4.096 0-2.432-1.408-4.064-3.568-4.064-1.936 0-3.536 1.584-3.536 4.048 0 2.496 1.504 4.112 3.536 4.112zm-.016-.928c-1.328 0-2.208-1.184-2.208-3.168 0-2.032.96-3.088 2.208-3.088 1.312 0 2.272 1.024 2.272 3.072 0 2.128-.976 3.184-2.272 3.184zm7.785.928c1.152 0 1.952-.464 2.576-1.328v1.2h1.168v-10.672h-1.2v3.856c-.368-.528-1.12-1.216-2.32-1.216-2.016 0-3.232 1.776-3.232 4.112 0 2.576 1.104 4.048 3.008 4.048zm.336-.944c-1.312 0-2.048-.912-2.048-3.104 0-2.016.704-3.136 2.128-3.136 1.168 0 1.712.672 2.112 1.424v3.216c-.336.88-1.008 1.6-2.192 1.6zm8.77.944c1.952 0 3.568-1.616 3.568-4.096 0-2.432-1.408-4.064-3.568-4.064-1.936 0-3.536 1.584-3.536 4.048 0 2.496 1.504 4.112 3.536 4.112zm-.016-.928c-1.328 0-2.208-1.184-2.208-3.168 0-2.032.96-3.088 2.208-3.088 1.312 0 2.272 1.024 2.272 3.072 0 2.128-.976 3.184-2.272 3.184zm10.385-8.48v-1.408h-1.36v1.408h1.36zm-.048 9.28v-7.888h-1.248V155h1.248zm4.839.128c1.152 0 1.952-.464 2.576-1.328v1.2h1.168v-10.672h-1.2v3.856c-.368-.528-1.12-1.216-2.32-1.216-2.016 0-3.232 1.776-3.232 4.112 0 2.576 1.104 4.048 3.008 4.048zm.336-.944c-1.312 0-2.048-.912-2.048-3.104 0-2.016.704-3.136 2.128-3.136 1.168 0 1.712.672 2.112 1.424v3.216c-.336.88-1.008 1.6-2.192 1.6zm10.809.816v-10.672h-1.248V155h1.248zm4.311.096c1.472 0 2.4-.56 3.024-1.424-.016.4.048 1.056.144 1.328h1.184a6.289 6.289 0 0 1-.176-1.536v-3.584c0-1.984-.864-2.912-3.104-2.912-1.872 0-3.104.768-3.392 2.208l1.152.128c.256-1.008.928-1.36 2.208-1.36 1.328 0 1.84.464 1.936 1.328.032.192.032.464.032.736-.624.016-1.152.016-1.792.096-2.16.256-3.728 1.104-3.728 2.816 0 1.44 1.12 2.176 2.512 2.176zm.368-.912c-1.056 0-1.584-.48-1.584-1.392 0-.992.88-1.68 2.592-1.904.496-.064 1.072-.064 1.632-.064v1.632c-.336.816-1.136 1.728-2.64 1.728zm9.11.944c1.952 0 3.568-1.616 3.568-4.096 0-2.432-1.408-4.064-3.568-4.064-1.936 0-3.536 1.584-3.536 4.048 0 2.496 1.504 4.112 3.536 4.112zm-.016-.928c-1.328 0-2.208-1.184-2.208-3.168 0-2.032.96-3.088 2.208-3.088 1.312 0 2.272 1.024 2.272 3.072 0 2.128-.976 3.184-2.272 3.184zm6.617.8v-5.152c.656-1.104 1.584-1.744 2.512-1.744.096 0 .256 0 .352.016v-1.136c-.128-.016-.224-.016-.368-.016-1.12 0-2.048.912-2.56 1.84v-1.696h-1.184V155h1.248zm6.979.128c1.568 0 2.784-.816 3.328-2.336l-1.088-.16c-.448 1.168-1.264 1.552-2.128 1.552-1.536 0-2.432-1.008-2.464-2.992h5.824c-.016-.176 0-.352-.016-.528-.16-2.192-1.36-3.696-3.424-3.696-2.032 0-3.648 1.552-3.648 4.224 0 2.352 1.456 3.936 3.616 3.936zm-2.304-4.784c.096-1.488 1.072-2.432 2.336-2.432 1.264 0 2.048.912 2.176 2.432h-4.512zm10.523 4.784c1.568 0 2.784-.816 3.328-2.336l-1.088-.16c-.448 1.168-1.264 1.552-2.128 1.552-1.536 0-2.432-1.008-2.464-2.992h5.824c-.016-.176 0-.352-.016-.528-.16-2.192-1.36-3.696-3.424-3.696-2.032 0-3.648 1.552-3.648 4.224 0 2.352 1.456 3.936 3.616 3.936zm-2.304-4.784c.096-1.488 1.072-2.432 2.336-2.432 1.264 0 2.048.912 2.176 2.432h-4.512zm9.707 4.768c.432 0 .912-.048 1.344-.128v-.976a7.697 7.697 0 0 1-1.12.096c-.672-.016-1.104-.384-1.104-1.216v-4.784h1.776v-.992h-1.776v-2.064h-1.136l-.064 2.064h-1.296v.992h1.28v4.72c0 1.632.768 2.288 2.096 2.288zm9.425.016c1.568 0 2.784-.816 3.328-2.336l-1.088-.16c-.448 1.168-1.264 1.552-2.128 1.552-1.536 0-2.432-1.008-2.464-2.992h5.824c-.016-.176 0-.352-.016-.528-.16-2.192-1.36-3.696-3.424-3.696-2.032 0-3.648 1.552-3.648 4.224 0 2.352 1.456 3.936 3.616 3.936zm-2.304-4.784c.096-1.488 1.072-2.432 2.336-2.432 1.264 0 2.048.912 2.176 2.432h-4.512zm9.899 4.784c1.056 0 2.016-.464 2.64-1.472V155h1.152v-7.888h-1.232v5.6c-.528.96-1.296 1.472-2.176 1.472-1.104 0-1.568-.496-1.568-1.744v-5.328h-1.248v5.296c0 1.984 1.008 2.72 2.432 2.72zm6.674 1.872 1.168-2.176v-1.6h-1.728V155h.672l-.96 2h.848zm9.368-1.888c.432 0 .912-.048 1.344-.128v-.976a7.697 7.697 0 0 1-1.12.096c-.672-.016-1.104-.384-1.104-1.216v-4.784h1.776v-.992h-1.776v-2.064h-1.136l-.064 2.064h-1.296v.992h1.28v4.72c0 1.632.768 2.288 2.096 2.288zm4.042-9.392v-1.408h-1.36v1.408h1.36zm-.048 9.28v-7.888h-1.248V155h1.248zm3.671 0v-5.408c.656-.944 1.488-1.584 2.496-1.584.896 0 1.312.448 1.312 1.392v5.6h1.248v-5.584c0-1.616-.72-2.448-2.192-2.448-1.408 0-2.384.928-2.928 1.712v-1.568h-1.184V155h1.248zm10.208.128c1.568 0 2.736-.912 3.008-2.688l-1.088-.112c-.24 1.312-.848 1.872-1.888 1.872-1.184 0-2.112-.976-2.112-3.152 0-1.968.768-3.088 2.032-3.088 1.088 0 1.712.704 1.904 2l1.168-.144c-.352-1.936-1.408-2.848-3.088-2.848-2 0-3.328 1.76-3.328 4.048 0 2.64 1.456 4.112 3.392 4.112zm5.997-9.408v-1.408h-1.36v1.408h1.36zm-.048 9.28v-7.888h-1.248V155h1.248zm4.839.128c1.152 0 1.952-.464 2.576-1.328v1.2h1.168v-10.672h-1.2v3.856c-.368-.528-1.12-1.216-2.32-1.216-2.016 0-3.232 1.776-3.232 4.112 0 2.576 1.104 4.048 3.008 4.048zm.336-.944c-1.312 0-2.048-.912-2.048-3.104 0-2.016.704-3.136 2.128-3.136 1.168 0 1.712.672 2.112 1.424v3.216c-.336.88-1.008 1.6-2.192 1.6zm8.242.944c1.056 0 2.016-.464 2.64-1.472V155h1.152v-7.888h-1.232v5.6c-.528.96-1.296 1.472-2.176 1.472-1.104 0-1.568-.496-1.568-1.744v-5.328h-1.248v5.296c0 1.984 1.008 2.72 2.432 2.72zm7.426-.128v-5.408c.656-.944 1.488-1.584 2.496-1.584.896 0 1.312.448 1.312 1.392v5.6h1.248v-5.584c0-1.616-.72-2.448-2.192-2.448-1.408 0-2.384.928-2.928 1.712v-1.568h-1.184V155h1.248zm9.632.112c.432 0 .912-.048 1.344-.128v-.976a7.697 7.697 0 0 1-1.12.096c-.672-.016-1.104-.384-1.104-1.216v-4.784h1.776v-.992h-1.776v-2.064h-1.136l-.064 2.064h-1.296v.992h1.28v4.72c0 1.632.768 2.288 2.096 2.288zm9.425.016c1.569 0 2.785-.816 3.329-2.336l-1.088-.16c-.448 1.168-1.264 1.552-2.128 1.552-1.536 0-2.432-1.008-2.464-2.992h5.824c-.016-.176 0-.352-.016-.528-.16-2.192-1.36-3.696-3.424-3.696-2.032 0-3.648 1.552-3.648 4.224 0 2.352 1.456 3.936 3.615 3.936zm-2.303-4.784c.096-1.488 1.072-2.432 2.336-2.432 1.264 0 2.048.912 2.176 2.432h-4.512zm8.778 4.656v-10.672h-1.248V155h1.248zm5.447.128c1.568 0 2.784-.816 3.328-2.336l-1.088-.16c-.448 1.168-1.264 1.552-2.128 1.552-1.536 0-2.432-1.008-2.464-2.992h5.824c-.016-.176 0-.352-.016-.528-.16-2.192-1.36-3.696-3.424-3.696-2.032 0-3.648 1.552-3.648 4.224 0 2.352 1.456 3.936 3.616 3.936zm-2.304-4.784c.096-1.488 1.072-2.432 2.336-2.432 1.264 0 2.048.912 2.176 2.432h-4.512zm8.827-4.624v-1.408h-1.36v1.408h1.36zm-.048 9.28v-7.888h-1.248V155h1.248zm3.783 0v-6.944h1.92v-.944h-1.92v-.752c0-.88.384-1.328 1.344-1.328.208 0 .704.032 1.04.08v-.992a9.067 9.067 0 0 0-1.136-.096c-1.648 0-2.48.752-2.48 2.304v.784h-1.392v.944h1.392V155h1.232zm5.914.128c1.568 0 2.784-.816 3.328-2.336l-1.088-.16c-.448 1.168-1.264 1.552-2.128 1.552-1.536 0-2.432-1.008-2.464-2.992h5.824c-.016-.176 0-.352-.016-.528-.16-2.192-1.36-3.696-3.424-3.696-2.032 0-3.648 1.552-3.648 4.224 0 2.352 1.456 3.936 3.616 3.936zm-2.304-4.784c.096-1.488 1.072-2.432 2.336-2.432 1.264 0 2.048.912 2.176 2.432h-4.512zm8.747 4.656v-5.408c.656-.944 1.488-1.584 2.496-1.584.896 0 1.312.448 1.312 1.392v5.6h1.248v-5.584c0-1.616-.72-2.448-2.192-2.448-1.408 0-2.384.928-2.928 1.712v-1.568h-1.184V155h1.248zm9.84.128c1.152 0 1.952-.464 2.576-1.328v1.2h1.168v-10.672h-1.2v3.856c-.368-.528-1.12-1.216-2.32-1.216-2.016 0-3.232 1.776-3.232 4.112 0 2.576 1.104 4.048 3.008 4.048zm.336-.944c-1.312 0-2.048-.912-2.048-3.104 0-2.016.704-3.136 2.128-3.136 1.168 0 1.712.672 2.112 1.424v3.216c-.336.88-1.008 1.6-2.192 1.6zm10.809.816v-10.672h-1.248V155h1.248zm4.311.096c1.472 0 2.4-.56 3.024-1.424-.016.4.048 1.056.144 1.328h1.184a6.289 6.289 0 0 1-.176-1.536v-3.584c0-1.984-.864-2.912-3.104-2.912-1.872 0-3.104.768-3.392 2.208l1.152.128c.256-1.008.928-1.36 2.208-1.36 1.328 0 1.84.464 1.936 1.328.032.192.032.464.032.736-.624.016-1.152.016-1.792.096-2.16.256-3.728 1.104-3.728 2.816 0 1.44 1.12 2.176 2.512 2.176zm.368-.912c-1.056 0-1.584-.48-1.584-1.392 0-.992.88-1.68 2.592-1.904.496-.064 1.072-.064 1.632-.064v1.632c-.336.816-1.136 1.728-2.64 1.728zm8.966.944c1.568 0 2.736-.912 3.008-2.688l-1.088-.112c-.24 1.312-.848 1.872-1.888 1.872-1.184 0-2.112-.976-2.112-3.152 0-1.968.768-3.088 2.032-3.088 1.088 0 1.712.704 1.904 2l1.168-.144c-.352-1.936-1.408-2.848-3.088-2.848-2 0-3.328 1.76-3.328 4.048 0 2.64 1.456 4.112 3.392 4.112zm7.069 0c1.056 0 2.016-.464 2.64-1.472V155h1.152v-7.888h-1.232v5.6c-.528.96-1.296 1.472-2.176 1.472-1.104 0-1.568-.496-1.568-1.744v-5.328h-1.248v5.296c0 1.984 1.008 2.72 2.432 2.72zm8.674 0c1.92 0 3.168-.976 3.168-2.432 0-1.568-1.376-2.016-2.992-2.336-1.264-.272-2.208-.432-2.208-1.296 0-.72.72-1.152 1.776-1.152 1.072 0 1.792.48 2.096 1.312l1.104-.24c-.4-1.232-1.424-2.016-3.2-2.016-1.76 0-2.928.88-2.928 2.176 0 1.552 1.36 1.968 2.976 2.272 1.168.256 2.224.448 2.224 1.392 0 .832-.768 1.392-2.016 1.392-1.36 0-2.24-.624-2.496-1.552l-1.12.224c.384 1.44 1.616 2.256 3.616 2.256zm6.496-.128v-1.744h-1.744V155h1.744z" fill="#111"/>
    <path fill="#D4D4D4" d="M112 183h471v1H112z"/>
    <path fill="#fff" d="M112 184h471v68H112z"/>
    <path d="M114.656 224v-5.072h4.96V224h1.328v-10.672h-1.328v4.416h-4.96v-4.416h-1.328V224h1.328zm11.834.128c1.568 0 2.784-.816 3.328-2.336l-1.088-.16c-.448 1.168-1.264 1.552-2.128 1.552-1.536 0-2.432-1.008-2.464-2.992h5.824c-.016-.176 0-.352-.016-.528-.16-2.192-1.36-3.696-3.424-3.696-2.032 0-3.648 1.552-3.648 4.224 0 2.352 1.456 3.936 3.616 3.936zm-2.304-4.784c.096-1.488 1.072-2.432 2.336-2.432 1.264 0 2.048.912 2.176 2.432h-4.512zm9.386 4.752c1.472 0 2.4-.56 3.024-1.424-.016.4.048 1.056.144 1.328h1.184a6.289 6.289 0 0 1-.176-1.536v-3.584c0-1.984-.864-2.912-3.104-2.912-1.872 0-3.104.768-3.392 2.208l1.152.128c.256-1.008.928-1.36 2.208-1.36 1.328 0 1.84.464 1.936 1.328.032.192.032.464.032.736-.624.016-1.152.016-1.792.096-2.16.256-3.728 1.104-3.728 2.816 0 1.44 1.12 2.176 2.512 2.176zm.368-.912c-1.056 0-1.584-.48-1.584-1.392 0-.992.88-1.68 2.592-1.904.496-.064 1.072-.064 1.632-.064v1.632c-.336.816-1.136 1.728-2.64 1.728zm8.598.944c1.152 0 1.952-.464 2.576-1.328v1.2h1.168v-10.672h-1.2v3.856c-.368-.528-1.12-1.216-2.32-1.216-2.016 0-3.232 1.776-3.232 4.112 0 2.576 1.104 4.048 3.008 4.048zm.336-.944c-1.312 0-2.048-.912-2.048-3.104 0-2.016.704-3.136 2.128-3.136 1.168 0 1.712.672 2.112 1.424v3.216c-.336.88-1.008 1.6-2.192 1.6zm8.866.944c1.568 0 2.784-.816 3.328-2.336l-1.088-.16c-.448 1.168-1.264 1.552-2.128 1.552-1.536 0-2.432-1.008-2.464-2.992h5.824c-.016-.176 0-.352-.016-.528-.16-2.192-1.36-3.696-3.424-3.696-2.032 0-3.648 1.552-3.648 4.224 0 2.352 1.456 3.936 3.616 3.936zm-2.304-4.784c.096-1.488 1.072-2.432 2.336-2.432 1.264 0 2.048.912 2.176 2.432h-4.512zm8.746 4.656v-5.152c.656-1.104 1.584-1.744 2.512-1.744.096 0 .256 0 .352.016v-1.136c-.128-.016-.224-.016-.368-.016-1.12 0-2.048.912-2.56 1.84v-1.696h-1.184V224h1.248zm10.007.112c.432 0 .912-.048 1.344-.128v-.976a7.697 7.697 0 0 1-1.12.096c-.672-.016-1.104-.384-1.104-1.216v-4.784h1.776v-.992h-1.776v-2.064h-1.136l-.064 2.064h-1.296v.992h1.28v4.72c0 1.632.768 2.288 2.096 2.288zm5.738.016c1.568 0 2.784-.816 3.328-2.336l-1.088-.16c-.448 1.168-1.264 1.552-2.128 1.552-1.536 0-2.432-1.008-2.464-2.992h5.824c-.016-.176 0-.352-.016-.528-.16-2.192-1.36-3.696-3.424-3.696-2.032 0-3.648 1.552-3.648 4.224 0 2.352 1.456 3.936 3.616 3.936zm-2.304-4.784c.096-1.488 1.072-2.432 2.336-2.432 1.264 0 2.048.912 2.176 2.432h-4.512zM179.19 224l2-2.944.16-.288.176.288L183.59 224h1.376l-2.928-4.256 2.448-3.632h-1.2l-1.648 2.416-.208.32-.208-.32-1.648-2.416h-1.408l2.576 3.76-2.768 4.128h1.216zm9.171.112c.432 0 .912-.048 1.344-.128v-.976a7.697 7.697 0 0 1-1.12.096c-.672-.016-1.104-.384-1.104-1.216v-4.784h1.776v-.992h-1.776v-2.064h-1.136l-.064 2.064h-1.296v.992h1.28v4.72c0 1.632.768 2.288 2.096 2.288zm7.73-9.392v-1.408h-1.36v1.408h1.36zm-.048 9.28v-7.888h-1.248V224h1.248zm4.631.112c.432 0 .912-.048 1.344-.128v-.976a7.697 7.697 0 0 1-1.12.096c-.672-.016-1.104-.384-1.104-1.216v-4.784h1.776v-.992h-1.776v-2.064h-1.136l-.064 2.064h-1.296v.992h1.28v4.72c0 1.632.768 2.288 2.096 2.288zm5.737.016c1.569 0 2.785-.816 3.329-2.336l-1.088-.16c-.448 1.168-1.264 1.552-2.128 1.552-1.536 0-2.432-1.008-2.464-2.992h5.824c-.016-.176 0-.352-.016-.528-.16-2.192-1.36-3.696-3.424-3.696-2.032 0-3.648 1.552-3.648 4.224 0 2.352 1.456 3.936 3.615 3.936zm-2.303-4.784c.096-1.488 1.072-2.432 2.336-2.432 1.264 0 2.048.912 2.176 2.432h-4.512zm8.73 4.656v-5.408c.72-1.008 1.376-1.6 2.288-1.6.768 0 1.168.528 1.168 1.472V224h1.216v-5.392c.496-.784 1.312-1.584 2.288-1.584.768 0 1.2.432 1.2 1.456V224h1.232v-5.6c0-.64-.16-1.152-.4-1.52-.32-.592-.864-.896-1.68-.896-1.248 0-2.176.896-2.72 1.76-.096-1.12-.832-1.776-1.984-1.776-1.136 0-2.176.944-2.64 1.728v-1.584h-1.2V224h1.232zm17.633.112c.432 0 .912-.048 1.344-.128v-.976a7.71 7.71 0 0 1-1.12.096c-.672-.016-1.104-.384-1.104-1.216v-4.784h1.776v-.992h-1.776v-2.064h-1.136l-.064 2.064h-1.296v.992h1.28v4.72c0 1.632.768 2.288 2.096 2.288zm5.049-.112 1.536-5.376.16-.688.192.72 1.6 5.344h1.056l2.352-7.888h-1.072l-1.536 5.472-.208.672-.176-.704-1.616-5.44h-1.024l-1.504 5.392-.192.72-.176-.72-1.568-5.392h-1.264l2.384 7.888h1.056zm11.092.128c1.952 0 3.568-1.616 3.568-4.096 0-2.432-1.408-4.064-3.568-4.064-1.936 0-3.536 1.584-3.536 4.048 0 2.496 1.504 4.112 3.536 4.112zm-.016-.928c-1.328 0-2.208-1.184-2.208-3.168 0-2.032.96-3.088 2.208-3.088 1.312 0 2.272 1.024 2.272 3.072 0 2.128-.976 3.184-2.272 3.184z" fill="#111"/>
    <g clip-path="url(#gaqa0jxsib)">
        <path d="m570.38 216 .71-.71 3.91 3.96 3.91-3.92.71.71-4.62 4.63-4.62-4.67z" fill="#666"/>
    </g>
    <path fill="#D4D4D4" d="M112 252h471v1H112z"/>
    <path fill="#fff" d="M112 253h471v68H112z"/>
    <path d="M114.656 293v-5.072h4.96V293h1.328v-10.672h-1.328v4.416h-4.96v-4.416h-1.328V293h1.328zm11.834.128c1.568 0 2.784-.816 3.328-2.336l-1.088-.16c-.448 1.168-1.264 1.552-2.128 1.552-1.536 0-2.432-1.008-2.464-2.992h5.824c-.016-.176 0-.352-.016-.528-.16-2.192-1.36-3.696-3.424-3.696-2.032 0-3.648 1.552-3.648 4.224 0 2.352 1.456 3.936 3.616 3.936zm-2.304-4.784c.096-1.488 1.072-2.432 2.336-2.432 1.264 0 2.048.912 2.176 2.432h-4.512zm9.386 4.752c1.472 0 2.4-.56 3.024-1.424-.016.4.048 1.056.144 1.328h1.184a6.289 6.289 0 0 1-.176-1.536v-3.584c0-1.984-.864-2.912-3.104-2.912-1.872 0-3.104.768-3.392 2.208l1.152.128c.256-1.008.928-1.36 2.208-1.36 1.328 0 1.84.464 1.936 1.328.032.192.032.464.032.736-.624.016-1.152.016-1.792.096-2.16.256-3.728 1.104-3.728 2.816 0 1.44 1.12 2.176 2.512 2.176zm.368-.912c-1.056 0-1.584-.48-1.584-1.392 0-.992.88-1.68 2.592-1.904.496-.064 1.072-.064 1.632-.064v1.632c-.336.816-1.136 1.728-2.64 1.728zm8.598.944c1.152 0 1.952-.464 2.576-1.328v1.2h1.168v-10.672h-1.2v3.856c-.368-.528-1.12-1.216-2.32-1.216-2.016 0-3.232 1.776-3.232 4.112 0 2.576 1.104 4.048 3.008 4.048zm.336-.944c-1.312 0-2.048-.912-2.048-3.104 0-2.016.704-3.136 2.128-3.136 1.168 0 1.712.672 2.112 1.424v3.216c-.336.88-1.008 1.6-2.192 1.6zm8.866.944c1.568 0 2.784-.816 3.328-2.336l-1.088-.16c-.448 1.168-1.264 1.552-2.128 1.552-1.536 0-2.432-1.008-2.464-2.992h5.824c-.016-.176 0-.352-.016-.528-.16-2.192-1.36-3.696-3.424-3.696-2.032 0-3.648 1.552-3.648 4.224 0 2.352 1.456 3.936 3.616 3.936zm-2.304-4.784c.096-1.488 1.072-2.432 2.336-2.432 1.264 0 2.048.912 2.176 2.432h-4.512zm8.746 4.656v-5.152c.656-1.104 1.584-1.744 2.512-1.744.096 0 .256 0 .352.016v-1.136c-.128-.016-.224-.016-.368-.016-1.12 0-2.048.912-2.56 1.84v-1.696h-1.184V293h1.248zm10.007.112c.432 0 .912-.048 1.344-.128v-.976a7.697 7.697 0 0 1-1.12.096c-.672-.016-1.104-.384-1.104-1.216v-4.784h1.776v-.992h-1.776v-2.064h-1.136l-.064 2.064h-1.296v.992h1.28v4.72c0 1.632.768 2.288 2.096 2.288zm5.738.016c1.568 0 2.784-.816 3.328-2.336l-1.088-.16c-.448 1.168-1.264 1.552-2.128 1.552-1.536 0-2.432-1.008-2.464-2.992h5.824c-.016-.176 0-.352-.016-.528-.16-2.192-1.36-3.696-3.424-3.696-2.032 0-3.648 1.552-3.648 4.224 0 2.352 1.456 3.936 3.616 3.936zm-2.304-4.784c.096-1.488 1.072-2.432 2.336-2.432 1.264 0 2.048.912 2.176 2.432h-4.512zM179.19 293l2-2.944.16-.288.176.288L183.59 293h1.376l-2.928-4.256 2.448-3.632h-1.2l-1.648 2.416-.208.32-.208-.32-1.648-2.416h-1.408l2.576 3.76-2.768 4.128h1.216zm9.171.112c.432 0 .912-.048 1.344-.128v-.976a7.697 7.697 0 0 1-1.12.096c-.672-.016-1.104-.384-1.104-1.216v-4.784h1.776v-.992h-1.776v-2.064h-1.136l-.064 2.064h-1.296v.992h1.28v4.72c0 1.632.768 2.288 2.096 2.288zm7.73-9.392v-1.408h-1.36v1.408h1.36zm-.048 9.28v-7.888h-1.248V293h1.248zm4.631.112c.432 0 .912-.048 1.344-.128v-.976a7.697 7.697 0 0 1-1.12.096c-.672-.016-1.104-.384-1.104-1.216v-4.784h1.776v-.992h-1.776v-2.064h-1.136l-.064 2.064h-1.296v.992h1.28v4.72c0 1.632.768 2.288 2.096 2.288zm5.737.016c1.569 0 2.785-.816 3.329-2.336l-1.088-.16c-.448 1.168-1.264 1.552-2.128 1.552-1.536 0-2.432-1.008-2.464-2.992h5.824c-.016-.176 0-.352-.016-.528-.16-2.192-1.36-3.696-3.424-3.696-2.032 0-3.648 1.552-3.648 4.224 0 2.352 1.456 3.936 3.615 3.936zm-2.303-4.784c.096-1.488 1.072-2.432 2.336-2.432 1.264 0 2.048.912 2.176 2.432h-4.512zm8.73 4.656v-5.408c.72-1.008 1.376-1.6 2.288-1.6.768 0 1.168.528 1.168 1.472V293h1.216v-5.392c.496-.784 1.312-1.584 2.288-1.584.768 0 1.2.432 1.2 1.456V293h1.232v-5.6c0-.64-.16-1.152-.4-1.52-.32-.592-.864-.896-1.68-.896-1.248 0-2.176.896-2.72 1.76-.096-1.12-.832-1.776-1.984-1.776-1.136 0-2.176.944-2.64 1.728v-1.584h-1.2V293h1.232zm17.633.112c.432 0 .912-.048 1.344-.128v-.976a7.71 7.71 0 0 1-1.12.096c-.672-.016-1.104-.384-1.104-1.216v-4.784h1.776v-.992h-1.776v-2.064h-1.136l-.064 2.064h-1.296v.992h1.28v4.72c0 1.632.768 2.288 2.096 2.288zm3.961-.112v-5.392c.656-.944 1.44-1.6 2.544-1.6.8 0 1.28.448 1.28 1.408V293h1.248v-5.68c0-1.296-.576-2.352-2.176-2.352-1.472 0-2.432.88-2.944 1.696v-4.336h-1.2V293h1.248zm8.688 0v-5.152c.656-1.104 1.584-1.744 2.512-1.744.096 0 .256 0 .352.016v-1.136c-.128-.016-.224-.016-.368-.016-1.12 0-2.048.912-2.56 1.84v-1.696h-1.184V293h1.248zm6.979.128c1.568 0 2.784-.816 3.328-2.336l-1.088-.16c-.448 1.168-1.264 1.552-2.128 1.552-1.536 0-2.432-1.008-2.464-2.992h5.824c-.016-.176 0-.352-.016-.528-.16-2.192-1.36-3.696-3.424-3.696-2.032 0-3.648 1.552-3.648 4.224 0 2.352 1.456 3.936 3.616 3.936zm-2.304-4.784c.096-1.488 1.072-2.432 2.336-2.432 1.264 0 2.048.912 2.176 2.432h-4.512zm10.523 4.784c1.568 0 2.784-.816 3.328-2.336l-1.088-.16c-.448 1.168-1.264 1.552-2.128 1.552-1.536 0-2.432-1.008-2.464-2.992h5.824c-.016-.176 0-.352-.016-.528-.16-2.192-1.36-3.696-3.424-3.696-2.032 0-3.648 1.552-3.648 4.224 0 2.352 1.456 3.936 3.616 3.936zm-2.304-4.784c.096-1.488 1.072-2.432 2.336-2.432 1.264 0 2.048.912 2.176 2.432h-4.512z" fill="#111"/>
    <g clip-path="url(#rdgjub1gzc)">
        <path d="m570.38 285 .71-.71 3.91 3.96 3.91-3.92.71.71-4.62 4.63-4.62-4.67z" fill="#666"/>
    </g>
    <path fill="#D4D4D4" d="M112 321h471v1H112z"/>
    <rect x="181" width="28" height="28" rx="14" fill="#94538C"/>
    <path d="M198.293 20v-1.056h-2.352V9.12h-.96c-.688 1.136-1.44 1.968-2.608 2.608v1.376c1.52-.864 1.904-1.552 2.288-2v7.84h-2.4V20h6.032z" fill="#FCFCFC"/>
    <path stroke="#94538C" stroke-dasharray="2 2" d="M195.5 28v44"/>
    <rect x="348" width="28" height="28" rx="14" fill="#94538C"/>
    <path d="M365.832 20v-1.12h-6.08c3.968-2.704 5.84-4.448 5.84-6.464 0-1.968-1.344-3.264-3.6-3.264-2.192 0-3.504 1.248-3.856 3.184l1.232.24c.192-1.52 1.184-2.336 2.576-2.336 1.584 0 2.304.928 2.304 2.096 0 1.808-1.136 2.944-6.112 6.624V20h7.696z" fill="#FCFCFC"/>
    <path stroke="#94538C" stroke-dasharray="2 2" d="M362.5 28v79M583 84.5h14"/>
    <rect x="597" y="71" width="28" height="28" rx="14" fill="#94538C"/>
    <path d="M610.944 91.192c2.528 0 3.92-1.36 3.92-3.136 0-1.408-.944-2.368-2.448-2.672 1.312-.32 2.048-1.248 2.048-2.496 0-1.6-1.232-2.752-3.584-2.752-1.76 0-3.136.88-3.696 2.544l1.2.24c.304-1.04 1.2-1.696 2.528-1.696 1.376 0 2.224.656 2.224 1.792 0 1.232-.848 1.888-2.496 1.888h-1.232v1.088h1.232c1.872 0 2.88.832 2.88 2.048 0 1.168-.832 2.096-2.608 2.096-1.664 0-2.496-.592-2.864-1.92l-1.248.24c.496 1.888 1.92 2.736 4.144 2.736z" fill="#FCFCFC"/>
    <path stroke="#94538C" stroke-dasharray="2 2" d="M583 183.5h29"/>
    <rect x="612" y="170" width="28" height="28" rx="14" fill="#94538C"/>
    <path d="M628.376 190v-2.496h1.712V186.4h-1.712v-7.28h-1.408l-5.168 7.36v1.024h5.328V190h1.248zm-1.248-9.424v5.824h-4.144l4.144-5.824z" fill="#FCFCFC"/>
    <path stroke="#94538C" stroke-dasharray="2 2" d="M570 307.5h42"/>
    <rect x="612" y="294" width="28" height="28" rx="14" fill="#94538C"/>
    <path d="M625.96 314.192c2.016 0 3.872-1.376 3.872-3.776 0-2.128-1.36-3.632-3.584-3.632-1.184 0-2.24.656-2.688 1.28l.24-3.584h5.216l.112-1.152h-6.32l-.352 5.776 1.056.24c.544-.864 1.296-1.52 2.56-1.52 1.632 0 2.48 1.2 2.48 2.608 0 1.648-1.072 2.72-2.64 2.72-1.424 0-2.352-.608-2.848-1.872l-1.072.384c.544 1.6 2 2.528 3.968 2.528z" fill="#FCFCFC"/>
    <path d="M107 54H94v127h13M107 186H94v67h13" stroke="#94538C"/>
    <path d="m3.053 83 .756-2.352h2.868L7.433 83h1.068l-2.604-8.004H4.745L2.153 83h.9zm2.172-6.888 1.212 3.744H4.05l1.176-3.744zm6.29 6.984c1.176 0 2.052-.684 2.256-2.016l-.816-.084c-.18.984-.636 1.404-1.416 1.404-.888 0-1.584-.732-1.584-2.364 0-1.476.576-2.316 1.524-2.316.816 0 1.284.528 1.428 1.5l.876-.108c-.264-1.452-1.056-2.136-2.316-2.136-1.5 0-2.496 1.32-2.496 3.036 0 1.98 1.092 3.084 2.544 3.084zm5.59 0c1.176 0 2.052-.684 2.256-2.016l-.816-.084c-.18.984-.636 1.404-1.416 1.404-.888 0-1.584-.732-1.584-2.364 0-1.476.576-2.316 1.524-2.316.816 0 1.284.528 1.428 1.5l.876-.108c-.264-1.452-1.056-2.136-2.316-2.136-1.5 0-2.496 1.32-2.496 3.036 0 1.98 1.092 3.084 2.544 3.084zm5.698 0c1.464 0 2.676-1.212 2.676-3.072 0-1.824-1.056-3.048-2.676-3.048-1.452 0-2.652 1.188-2.652 3.036 0 1.872 1.128 3.084 2.652 3.084zm-.012-.696c-.996 0-1.656-.888-1.656-2.376 0-1.524.72-2.316 1.656-2.316.984 0 1.704.768 1.704 2.304 0 1.596-.732 2.388-1.704 2.388zm4.963.6v-3.864c.492-.828 1.188-1.308 1.884-1.308.072 0 .192 0 .264.012v-.852c-.096-.012-.168-.012-.276-.012-.84 0-1.536.684-1.92 1.38v-1.272h-.888V83h.936zm4.778.096c.864 0 1.464-.348 1.932-.996v.9h.876v-8.004h-.9v2.892a2.094 2.094 0 0 0-1.74-.912c-1.512 0-2.424 1.332-2.424 3.084 0 1.932.828 3.036 2.256 3.036zm.252-.708c-.984 0-1.536-.684-1.536-2.328 0-1.512.528-2.352 1.596-2.352.876 0 1.284.504 1.584 1.068v2.412c-.252.66-.756 1.2-1.644 1.2zm5.378-6.348v-1.056h-1.02v1.056h1.02zM38.126 83v-5.916h-.936V83h.936zm4.013.096c1.464 0 2.676-1.212 2.676-3.072 0-1.824-1.056-3.048-2.676-3.048-1.452 0-2.652 1.188-2.652 3.036 0 1.872 1.128 3.084 2.652 3.084zm-.012-.696c-.996 0-1.656-.888-1.656-2.376 0-1.524.72-2.316 1.656-2.316.984 0 1.704.768 1.704 2.304 0 1.596-.732 2.388-1.704 2.388zm4.963.6v-4.056c.492-.708 1.116-1.188 1.872-1.188.672 0 .984.336.984 1.044V83h.936v-4.188c0-1.212-.54-1.836-1.644-1.836-1.056 0-1.788.696-2.196 1.284v-1.176h-.888V83h.936zm9.33-6.96v-1.056H55.4v1.056h1.02zM56.382 83v-5.916h-.936V83h.936zm3.474.084c.324 0 .684-.036 1.008-.096v-.732a5.773 5.773 0 0 1-.84.072c-.504-.012-.828-.288-.828-.912v-3.588h1.332v-.744h-1.332v-1.548h-.852l-.048 1.548h-.972v.744h.96v3.54c0 1.224.576 1.716 1.572 1.716zm4.303.012c1.176 0 2.088-.612 2.496-1.752l-.816-.12c-.336.876-.948 1.164-1.596 1.164-1.152 0-1.824-.756-1.848-2.244h4.368c-.012-.132 0-.264-.012-.396-.12-1.644-1.02-2.772-2.568-2.772-1.524 0-2.736 1.164-2.736 3.168 0 1.764 1.092 2.952 2.712 2.952zm-1.728-3.588c.072-1.116.804-1.824 1.752-1.824s1.536.684 1.632 1.824h-3.384zM68.98 83v-4.056c.54-.756 1.032-1.2 1.716-1.2.576 0 .876.396.876 1.104V83h.912v-4.044c.372-.588.984-1.188 1.716-1.188.576 0 .9.324.9 1.092V83h.924v-4.2c0-.48-.12-.864-.3-1.14-.24-.444-.648-.672-1.26-.672-.936 0-1.632.672-2.04 1.32-.072-.84-.624-1.332-1.488-1.332-.852 0-1.632.708-1.98 1.296v-1.188h-.9V83h.924zM19.021 97v-1.512h-3.756v-1.872h2.688v-1.428h-2.688V90.52h3.72v-1.524h-5.664V97h5.7zm2.033 0 1.008-1.5.216-.312.192.312.996 1.5h2.052l-2.136-3.264 1.836-2.688h-1.632l-.804 1.224-.18.276-.168-.276-.816-1.224h-2.052L21.498 94l-2.076 3h1.632zm8.695.084c1.296 0 2.268-1.092 2.268-3.072 0-2.136-.828-3.072-2.112-3.072-1.008 0-1.5.576-1.872 1.104v-.996h-1.764v7.872h1.86V96.4c.408.36.84.684 1.62.684zm-.624-1.128c-.528 0-.792-.348-1.008-.6v-2.364c.228-.468.552-.756 1.02-.756.66 0 .948.444.948 1.86 0 1.476-.336 1.86-.96 1.86zm5.416 1.116c1.056 0 1.68-.312 2.196-.84 0 .336.024.648.096.768h1.776c-.108-.228-.132-.816-.132-1.164v-2.748c0-1.284-.576-2.148-2.58-2.148-1.752 0-2.748.612-3.036 1.8l1.704.156c.12-.504.456-.744 1.152-.744.648 0 .924.288.96.756 0 .048.012.228.012.288-.252.012-.492.036-.72.06-2.076.204-3.264.864-3.264 2.184 0 1.008.732 1.632 1.836 1.632zm.84-1.152c-.468 0-.756-.204-.756-.648 0-.564.516-.912 1.428-1.068.192-.036.408-.06.636-.072v1.044c-.252.384-.696.744-1.308.744zM41.746 97v-4.08c.24-.36.564-.696 1.056-.696.456 0 .648.276.648.648V97h1.86v-4.188c0-1.14-.492-1.872-1.716-1.872-1.008 0-1.572.6-1.92 1.092v-.984h-1.788V97h1.86zm6.748.108c.888 0 1.392-.324 1.872-.96V97h1.776v-8.004h-1.848v2.664a1.977 1.977 0 0 0-1.56-.72c-1.416 0-2.364 1.164-2.364 3.06 0 2.1.84 3.108 2.124 3.108zm.78-1.236c-.6 0-.972-.42-.972-1.86 0-1.404.312-1.884.984-1.884.528 0 .804.324 1.008.624v2.4c-.192.384-.492.72-1.02.72zm7.023 1.224c1.537 0 2.52-.744 2.917-1.872l-1.548-.204c-.216.588-.6.888-1.2.888-.733 0-1.285-.468-1.309-1.536h4.117c.011-.132.011-.228.011-.36-.047-1.848-1.14-3.072-3-3.072-1.655 0-3.071 1.248-3.071 3.168 0 1.812 1.296 2.988 3.084 2.988zM55.182 93.4c.047-.816.527-1.296 1.127-1.296.697 0 1.044.492 1.105 1.296H55.18zm6.93 3.708c.887 0 1.391-.324 1.871-.96V97h1.776v-8.004h-1.848v2.664a1.977 1.977 0 0 0-1.56-.72c-1.416 0-2.364 1.164-2.364 3.06 0 2.1.84 3.108 2.124 3.108zm.78-1.236c-.6 0-.973-.42-.973-1.86 0-1.404.312-1.884.984-1.884.528 0 .804.324 1.008.624v2.4c-.192.384-.492.72-1.02.72zM3.553 213l.756-2.352h2.868L7.933 213h1.068l-2.604-8.004H5.245L2.653 213h.9zm2.172-6.888 1.212 3.744H4.55l1.176-3.744zm6.29 6.984c1.176 0 2.052-.684 2.256-2.016l-.816-.084c-.18.984-.636 1.404-1.416 1.404-.888 0-1.584-.732-1.584-2.364 0-1.476.576-2.316 1.524-2.316.816 0 1.284.528 1.428 1.5l.876-.108c-.264-1.452-1.056-2.136-2.316-2.136-1.5 0-2.496 1.32-2.496 3.036 0 1.98 1.092 3.084 2.544 3.084zm5.59 0c1.176 0 2.052-.684 2.256-2.016l-.816-.084c-.18.984-.636 1.404-1.416 1.404-.888 0-1.584-.732-1.584-2.364 0-1.476.576-2.316 1.524-2.316.816 0 1.284.528 1.428 1.5l.876-.108c-.264-1.452-1.056-2.136-2.316-2.136-1.5 0-2.496 1.32-2.496 3.036 0 1.98 1.092 3.084 2.544 3.084zm5.698 0c1.464 0 2.676-1.212 2.676-3.072 0-1.824-1.056-3.048-2.676-3.048-1.452 0-2.652 1.188-2.652 3.036 0 1.872 1.128 3.084 2.652 3.084zm-.012-.696c-.996 0-1.656-.888-1.656-2.376 0-1.524.72-2.316 1.656-2.316.984 0 1.704.768 1.704 2.304 0 1.596-.732 2.388-1.704 2.388zm4.963.6v-3.864c.492-.828 1.188-1.308 1.884-1.308.072 0 .192 0 .264.012v-.852c-.096-.012-.168-.012-.276-.012-.84 0-1.536.684-1.92 1.38v-1.272h-.888V213h.936zm4.778.096c.864 0 1.464-.348 1.932-.996v.9h.876v-8.004h-.9v2.892a2.094 2.094 0 0 0-1.74-.912c-1.512 0-2.424 1.332-2.424 3.084 0 1.932.828 3.036 2.256 3.036zm.252-.708c-.984 0-1.536-.684-1.536-2.328 0-1.512.528-2.352 1.596-2.352.876 0 1.284.504 1.584 1.068v2.412c-.252.66-.756 1.2-1.644 1.2zm5.378-6.348v-1.056h-1.02v1.056h1.02zm-.036 6.96v-5.916h-.936V213h.936zm4.013.096c1.464 0 2.676-1.212 2.676-3.072 0-1.824-1.056-3.048-2.676-3.048-1.452 0-2.652 1.188-2.652 3.036 0 1.872 1.128 3.084 2.652 3.084zm-.012-.696c-.996 0-1.656-.888-1.656-2.376 0-1.524.72-2.316 1.656-2.316.984 0 1.704.768 1.704 2.304 0 1.596-.732 2.388-1.704 2.388zm4.963.6v-4.056c.492-.708 1.116-1.188 1.872-1.188.672 0 .984.336.984 1.044v4.2h.936v-4.188c0-1.212-.54-1.836-1.644-1.836-1.056 0-1.788.696-2.196 1.284v-1.176h-.888V213h.936zm9.33-6.96v-1.056H55.9v1.056h1.02zm-.037 6.96v-5.916h-.936V213h.936zm3.474.084c.324 0 .684-.036 1.008-.096v-.732a5.773 5.773 0 0 1-.84.072c-.504-.012-.828-.288-.828-.912v-3.588h1.332v-.744h-1.332v-1.548h-.852l-.048 1.548h-.972v.744h.96v3.54c0 1.224.576 1.716 1.572 1.716zm4.303.012c1.176 0 2.088-.612 2.496-1.752l-.816-.12c-.336.876-.948 1.164-1.596 1.164-1.152 0-1.824-.756-1.848-2.244h4.368c-.012-.132 0-.264-.012-.396-.12-1.644-1.02-2.772-2.568-2.772-1.524 0-2.736 1.164-2.736 3.168 0 1.764 1.092 2.952 2.712 2.952zm-1.728-3.588c.072-1.116.804-1.824 1.752-1.824s1.536.684 1.632 1.824h-3.384zM69.48 213v-4.056c.54-.756 1.032-1.2 1.716-1.2.576 0 .876.396.876 1.104V213h.912v-4.044c.372-.588.984-1.188 1.716-1.188.576 0 .9.324.9 1.092V213h.924v-4.2c0-.48-.12-.864-.3-1.14-.24-.444-.648-.672-1.26-.672-.936 0-1.632.672-2.04 1.32-.072-.84-.624-1.332-1.488-1.332-.852 0-1.632.708-1.98 1.296v-1.188h-.9V213h.924zm-52.786 14.12c1.812 0 2.928-.936 3.312-2.784l-1.8-.3c-.156 1.068-.564 1.596-1.404 1.596-.996 0-1.452-.888-1.452-2.592 0-1.836.516-2.664 1.404-2.664.84 0 1.14.588 1.284 1.584l1.884-.3c-.312-1.752-1.344-2.796-3.18-2.796-2.136 0-3.516 1.536-3.516 4.272 0 2.424 1.404 3.984 3.468 3.984zm6.973-.024c1.86 0 3.108-1.32 3.108-3.06 0-1.848-1.224-3.096-3.072-3.096-1.764 0-3.06 1.284-3.06 3.132 0 1.74 1.248 3.024 3.024 3.024zm.06-1.2c-.744 0-1.104-.588-1.104-1.884 0-1.26.384-1.836 1.092-1.836.732 0 1.068.588 1.068 1.836 0 1.308-.372 1.884-1.056 1.884zM29.731 227v-8.004h-1.872V227h1.872zm3.328 0v-8.004h-1.872V227h1.872zm2.884.072c1.056 0 1.68-.312 2.196-.84 0 .336.024.648.096.768h1.776c-.108-.228-.132-.816-.132-1.164v-2.748c0-1.284-.576-2.148-2.58-2.148-1.752 0-2.748.612-3.036 1.8l1.704.156c.12-.504.456-.744 1.152-.744.648 0 .924.288.96.756 0 .048.012.228.012.288-.252.012-.492.036-.72.06-2.076.204-3.264.864-3.264 2.184 0 1.008.732 1.632 1.836 1.632zm.84-1.152c-.468 0-.756-.204-.756-.648 0-.564.516-.912 1.428-1.068.192-.036.408-.06.636-.072v1.044c-.252.384-.696.744-1.308.744zm7.997 1.164c1.296 0 2.268-1.092 2.268-3.072 0-2.136-.828-3.072-2.112-3.072-1.008 0-1.5.576-1.872 1.104v-.996H41.3v7.872h1.86v-2.52c.408.36.84.684 1.62.684zm-.624-1.128c-.528 0-.792-.348-1.008-.6v-2.364c.228-.468.552-.756 1.02-.756.66 0 .948.444.948 1.86 0 1.476-.336 1.86-.96 1.86zm6.363 1.14c1.728 0 2.76-.804 2.76-1.968 0-1.248-.84-1.68-2.508-1.884-.912-.132-1.32-.204-1.32-.6 0-.384.372-.552.972-.552.624 0 1.032.216 1.176.672l1.452-.288c-.276-.972-1.248-1.536-2.64-1.536-1.572 0-2.58.756-2.58 1.932 0 1.248.864 1.584 2.652 1.8.72.096 1.2.18 1.2.624 0 .408-.468.612-1.128.612-.888 0-1.368-.276-1.5-.816l-1.5.276c.3 1.164 1.32 1.728 2.964 1.728zm6.478 0c1.536 0 2.52-.744 2.916-1.872l-1.548-.204c-.216.588-.6.888-1.2.888-.732 0-1.284-.468-1.308-1.536h4.116c.012-.132.012-.228.012-.36-.048-1.848-1.14-3.072-3-3.072-1.656 0-3.072 1.248-3.072 3.168 0 1.812 1.296 2.988 3.084 2.988zM55.88 223.4c.048-.816.528-1.296 1.128-1.296.696 0 1.044.492 1.104 1.296H55.88zm6.93 3.708c.888 0 1.392-.324 1.872-.96V227h1.775v-8.004h-1.847v2.664a1.977 1.977 0 0 0-1.56-.72c-1.416 0-2.364 1.164-2.364 3.06 0 2.1.84 3.108 2.123 3.108zm.78-1.236c-.6 0-.973-.42-.973-1.86 0-1.404.313-1.884.984-1.884.529 0 .804.324 1.009.624v2.4c-.193.384-.493.72-1.02.72z" fill="#94538C"/>
    <defs>
        <clipPath id="eju3i6tpca">
            <path fill="#fff" transform="translate(567 77)" d="M0 0h16v16H0z"/>
        </clipPath>
        <clipPath id="gaqa0jxsib">
            <path fill="#fff" transform="translate(567 210)" d="M0 0h16v16H0z"/>
        </clipPath>
        <clipPath id="rdgjub1gzc">
            <path fill="#fff" transform="translate(567 279)" d="M0 0h16v16H0z"/>
        </clipPath>
    </defs>
</svg>
