<svg width="481" height="226" viewBox="0 0 481 226" fill="none" xmlns="http://www.w3.org/2000/svg">
<rect x="81.5" y="82.5" width="399" height="47" rx="1.5" fill="white"/>
<path d="M95.168 100V99.172H90.992V96.244H94.028V95.428H90.992V92.86H95.06V91.996H89.996V100H95.168ZM97.1638 100V95.944C97.7038 95.188 98.1958 94.744 98.8798 94.744C99.4558 94.744 99.7558 95.14 99.7558 95.848V100H100.668V95.956C101.04 95.368 101.652 94.768 102.384 94.768C102.96 94.768 103.284 95.092 103.284 95.86V100H104.208V95.8C104.208 95.32 104.088 94.936 103.908 94.66C103.668 94.216 103.26 93.988 102.648 93.988C101.712 93.988 101.016 94.66 100.608 95.308C100.536 94.468 99.9838 93.976 99.1198 93.976C98.2678 93.976 97.4878 94.684 97.1398 95.272V94.084H96.2398V100H97.1638ZM107.382 100.072C108.486 100.072 109.182 99.652 109.65 99.004C109.638 99.304 109.686 99.796 109.758 100H110.646C110.55 99.628 110.514 99.22 110.514 98.848V96.16C110.514 94.672 109.866 93.976 108.186 93.976C106.782 93.976 105.858 94.552 105.642 95.632L106.506 95.728C106.698 94.972 107.202 94.708 108.162 94.708C109.158 94.708 109.542 95.056 109.614 95.704C109.638 95.848 109.638 96.052 109.638 96.256C109.17 96.268 108.774 96.268 108.294 96.328C106.674 96.52 105.498 97.156 105.498 98.44C105.498 99.52 106.338 100.072 107.382 100.072ZM107.658 99.388C106.866 99.388 106.47 99.028 106.47 98.344C106.47 97.6 107.13 97.084 108.414 96.916C108.786 96.868 109.218 96.868 109.638 96.868V98.092C109.386 98.704 108.786 99.388 107.658 99.388ZM113.291 93.04V91.984H112.271V93.04H113.291ZM113.255 100V94.084H112.319V100H113.255ZM116.032 100V91.996H115.096V100H116.032Z" fill="#666666"/>
<path d="M90.856 118.208C91.752 118.208 92.36 117.968 92.808 117.536C93.336 117.008 93.608 116.208 93.608 114.96V107.328H92.28V115.072C92.28 116.576 91.784 117.088 90.6 117.088C89.688 117.088 89.352 117.008 89.016 116.928V118.032C89.352 118.112 90.008 118.208 90.856 118.208ZM98.0255 118.096C99.4975 118.096 100.426 117.536 101.05 116.672C101.034 117.072 101.098 117.728 101.194 118H102.378C102.25 117.504 102.202 116.96 102.202 116.464V112.88C102.202 110.896 101.338 109.968 99.0975 109.968C97.2255 109.968 95.9935 110.736 95.7055 112.176L96.8575 112.304C97.1135 111.296 97.7855 110.944 99.0655 110.944C100.394 110.944 100.906 111.408 101.002 112.272C101.034 112.464 101.034 112.736 101.034 113.008C100.41 113.024 99.8815 113.024 99.2415 113.104C97.0815 113.36 95.5135 114.208 95.5135 115.92C95.5135 117.36 96.6335 118.096 98.0255 118.096ZM98.3935 117.184C97.3375 117.184 96.8095 116.704 96.8095 115.792C96.8095 114.8 97.6895 114.112 99.4015 113.888C99.8975 113.824 100.474 113.824 101.034 113.824V115.456C100.698 116.272 99.8975 117.184 98.3935 117.184ZM105.823 118V112.592C106.479 111.648 107.311 111.008 108.319 111.008C109.215 111.008 109.631 111.456 109.631 112.4V118H110.879V112.416C110.879 110.8 110.159 109.968 108.687 109.968C107.279 109.968 106.303 110.896 105.759 111.68V110.112H104.575V118H105.823ZM116.271 118.128C117.839 118.128 119.055 117.312 119.599 115.792L118.511 115.632C118.063 116.8 117.247 117.184 116.383 117.184C114.847 117.184 113.951 116.176 113.919 114.192H119.743C119.727 114.016 119.743 113.84 119.727 113.664C119.567 111.472 118.367 109.968 116.303 109.968C114.271 109.968 112.655 111.52 112.655 114.192C112.655 116.544 114.111 118.128 116.271 118.128ZM113.967 113.344C114.063 111.856 115.039 110.912 116.303 110.912C117.567 110.912 118.351 111.824 118.479 113.344H113.967ZM126.25 119.52C127.77 119.52 129.018 119.152 130.186 118.544L129.85 117.728C129.098 118.128 128.074 118.64 126.25 118.64C123.546 118.64 121.722 116.896 121.722 113.968C121.722 111.264 123.802 109.264 126.314 109.264C128.778 109.264 130.57 110.928 130.57 113.216C130.57 115.136 129.738 116.176 128.874 116.176C128.554 116.176 128.33 115.984 128.33 115.68C128.33 115.392 128.378 115.104 128.41 114.8L128.874 111.152H128.154L127.802 112C127.45 111.376 126.778 111.056 126.122 111.056C124.426 111.056 123.322 112.624 123.322 114.432C123.322 116.224 124.314 117.072 125.466 117.072C126.554 117.072 127.082 116.576 127.514 115.888C127.53 116.72 128.122 117.056 128.698 117.056C130.33 117.056 131.434 115.36 131.434 113.216C131.434 110.448 129.274 108.416 126.346 108.416C123.258 108.416 120.762 110.784 120.762 113.968C120.762 116.992 122.746 119.52 126.25 119.52ZM125.594 116.256C124.746 116.256 124.346 115.552 124.346 114.528C124.346 112.976 125.098 111.92 126.17 111.92C126.682 111.92 127.098 112.208 127.402 112.72C127.61 113.04 127.61 113.152 127.53 113.936C127.418 115.28 126.65 116.256 125.594 116.256ZM134.338 118V112.592C135.058 111.584 135.714 110.992 136.626 110.992C137.394 110.992 137.794 111.52 137.794 112.464V118H139.01V112.608C139.506 111.824 140.322 111.024 141.298 111.024C142.066 111.024 142.498 111.456 142.498 112.48V118H143.73V112.4C143.73 111.76 143.57 111.248 143.33 110.88C143.01 110.288 142.466 109.984 141.65 109.984C140.402 109.984 139.474 110.88 138.93 111.744C138.834 110.624 138.098 109.968 136.946 109.968C135.81 109.968 134.77 110.912 134.306 111.696V110.112H133.106V118H134.338ZM147.963 118.096C149.435 118.096 150.363 117.536 150.987 116.672C150.971 117.072 151.035 117.728 151.131 118H152.315C152.187 117.504 152.139 116.96 152.139 116.464V112.88C152.139 110.896 151.275 109.968 149.035 109.968C147.163 109.968 145.931 110.736 145.643 112.176L146.795 112.304C147.051 111.296 147.723 110.944 149.003 110.944C150.331 110.944 150.843 111.408 150.939 112.272C150.971 112.464 150.971 112.736 150.971 113.008C150.347 113.024 149.819 113.024 149.179 113.104C147.019 113.36 145.451 114.208 145.451 115.92C145.451 117.36 146.571 118.096 147.963 118.096ZM148.331 117.184C147.275 117.184 146.747 116.704 146.747 115.792C146.747 114.8 147.627 114.112 149.339 113.888C149.835 113.824 150.411 113.824 150.971 113.824V115.456C150.635 116.272 149.835 117.184 148.331 117.184ZM155.841 108.72V107.312H154.481V108.72H155.841ZM155.793 118V110.112H154.545V118H155.793ZM159.496 118V107.328H158.248V118H159.496ZM163.567 118V116.256H161.823V118H163.567ZM168.672 118.128C170.24 118.128 171.408 117.216 171.68 115.44L170.592 115.328C170.352 116.64 169.744 117.2 168.704 117.2C167.52 117.2 166.592 116.224 166.592 114.048C166.592 112.08 167.36 110.96 168.624 110.96C169.712 110.96 170.336 111.664 170.528 112.96L171.696 112.816C171.344 110.88 170.288 109.968 168.608 109.968C166.608 109.968 165.28 111.728 165.28 114.016C165.28 116.656 166.736 118.128 168.672 118.128ZM176.269 118.128C178.221 118.128 179.837 116.512 179.837 114.032C179.837 111.6 178.429 109.968 176.269 109.968C174.333 109.968 172.733 111.552 172.733 114.016C172.733 116.512 174.237 118.128 176.269 118.128ZM176.253 117.2C174.925 117.2 174.045 116.016 174.045 114.032C174.045 112 175.005 110.944 176.253 110.944C177.565 110.944 178.525 111.968 178.525 114.016C178.525 116.144 177.549 117.2 176.253 117.2ZM182.854 118V112.592C183.574 111.584 184.23 110.992 185.142 110.992C185.91 110.992 186.31 111.52 186.31 112.464V118H187.526V112.608C188.022 111.824 188.838 111.024 189.814 111.024C190.582 111.024 191.014 111.456 191.014 112.48V118H192.246V112.4C192.246 111.76 192.086 111.248 191.846 110.88C191.526 110.288 190.982 109.984 190.166 109.984C188.918 109.984 187.99 110.88 187.446 111.744C187.35 110.624 186.614 109.968 185.462 109.968C184.326 109.968 183.286 110.912 182.822 111.696V110.112H181.622V118H182.854Z" fill="#111111"/>
<path d="M437 106C437 94.9543 445.954 86 457 86V86C468.046 86 477 94.9543 477 106V106C477 117.046 468.046 126 457 126V126C445.954 126 437 117.046 437 106V106Z" fill="white"/>
<path d="M450 101V111H464V101H450ZM462.19 102L457 106.32L451.81 102H462.19ZM451 110V102.63L457 107.63L463 102.63V110H451Z" fill="#666666"/>
<rect x="81.5" y="82.5" width="399" height="47" rx="1.5" stroke="#E9E9E9"/>
<rect x="81.5" y="152.5" width="399" height="47" rx="1.5" fill="white"/>
<path d="M85 176C85 164.954 93.9543 156 105 156V156C116.046 156 125 164.954 125 176V176C125 187.046 116.046 196 105 196V196C93.9543 196 85 187.046 85 176V176Z" fill="white"/>
<path d="M107.27 169H102.73C102.273 169.005 101.836 169.189 101.512 169.512C101.189 169.836 101.005 170.273 101 170.73V181.27C101.005 181.727 101.189 182.164 101.512 182.488C101.836 182.811 102.273 182.995 102.73 183H107.27C107.727 182.995 108.164 182.811 108.488 182.488C108.811 182.164 108.995 181.727 109 181.27V170.73C108.995 170.273 108.811 169.836 108.488 169.512C108.164 169.189 107.727 169.005 107.27 169V169ZM108 181.27C108 181.464 107.923 181.649 107.786 181.786C107.649 181.923 107.464 182 107.27 182H102.73C102.536 182 102.351 181.923 102.214 181.786C102.077 181.649 102 181.464 102 181.27V180H108V181.27ZM108 179H102V170.73C102 170.536 102.077 170.351 102.214 170.214C102.351 170.077 102.536 170 102.73 170H107.27C107.464 170 107.649 170.077 107.786 170.214C107.923 170.351 108 170.536 108 170.73V179ZM105.5 180.5H104.5V181.5H105.5V180.5ZM103.5 172H106.5V171H103.5V172Z" fill="#666666"/>
<path d="M130.992 170V166.544H132.936C134.472 166.544 135.432 165.656 135.432 164.276C135.432 162.86 134.568 161.996 132.828 161.996H129.996V170H130.992ZM130.992 162.848H132.912C133.824 162.848 134.424 163.412 134.424 164.312C134.424 165.2 133.824 165.728 132.84 165.728H130.992V162.848ZM137.305 170V165.956C137.797 165.248 138.385 164.756 139.213 164.756C139.813 164.756 140.173 165.092 140.173 165.812V170H141.109V165.74C141.109 164.768 140.677 163.976 139.477 163.976C138.373 163.976 137.653 164.636 137.269 165.248V161.996H136.369V170H137.305ZM145.08 170.096C146.544 170.096 147.756 168.884 147.756 167.024C147.756 165.2 146.7 163.976 145.08 163.976C143.628 163.976 142.428 165.164 142.428 167.012C142.428 168.884 143.556 170.096 145.08 170.096ZM145.068 169.4C144.072 169.4 143.412 168.512 143.412 167.024C143.412 165.5 144.132 164.708 145.068 164.708C146.052 164.708 146.772 165.476 146.772 167.012C146.772 168.608 146.04 169.4 145.068 169.4ZM150.031 170V165.944C150.523 165.236 151.147 164.756 151.903 164.756C152.575 164.756 152.887 165.092 152.887 165.8V170H153.823V165.812C153.823 164.6 153.283 163.976 152.179 163.976C151.123 163.976 150.391 164.672 149.983 165.26V164.084H149.095V170H150.031ZM157.867 170.096C159.043 170.096 159.955 169.484 160.363 168.344L159.547 168.224C159.211 169.1 158.599 169.388 157.951 169.388C156.799 169.388 156.127 168.632 156.103 167.144H160.471C160.459 167.012 160.471 166.88 160.459 166.748C160.339 165.104 159.439 163.976 157.891 163.976C156.367 163.976 155.155 165.14 155.155 167.144C155.155 168.908 156.247 170.096 157.867 170.096ZM156.139 166.508C156.211 165.392 156.943 164.684 157.891 164.684C158.839 164.684 159.427 165.368 159.523 166.508H156.139Z" fill="#666666"/>
<path d="M136.152 188V186.944H133.8V177.12H132.84C132.152 178.256 131.4 179.088 130.232 179.728V181.104C131.752 180.24 132.136 179.552 132.52 179.104V186.944H130.12V188H136.152ZM145.215 188V186.88H139.135C143.103 184.176 144.975 182.432 144.975 180.416C144.975 178.448 143.631 177.152 141.375 177.152C139.183 177.152 137.871 178.4 137.519 180.336L138.751 180.576C138.943 179.056 139.935 178.24 141.327 178.24C142.911 178.24 143.631 179.168 143.631 180.336C143.631 182.144 142.495 183.28 137.519 186.96V188H145.215ZM150.655 188.192C153.183 188.192 154.575 186.832 154.575 185.056C154.575 183.648 153.631 182.688 152.127 182.384C153.439 182.064 154.175 181.136 154.175 179.888C154.175 178.288 152.943 177.136 150.591 177.136C148.831 177.136 147.455 178.016 146.895 179.68L148.095 179.92C148.399 178.88 149.295 178.224 150.623 178.224C151.999 178.224 152.847 178.88 152.847 180.016C152.847 181.248 151.999 181.904 150.351 181.904H149.119V182.992H150.351C152.223 182.992 153.231 183.824 153.231 185.04C153.231 186.208 152.399 187.136 150.623 187.136C148.959 187.136 148.127 186.544 147.759 185.216L146.511 185.456C147.007 187.344 148.431 188.192 150.655 188.192ZM158.927 183.808V182.656H155.375V183.808H158.927ZM165.962 188V185.504H167.674V184.4H165.962V177.12H164.554L159.386 184.48V185.504H164.714V188H165.962ZM164.714 178.576V184.4H160.57L164.714 178.576ZM172.874 188.192C174.89 188.192 176.746 186.816 176.746 184.416C176.746 182.288 175.386 180.784 173.162 180.784C171.978 180.784 170.922 181.44 170.474 182.064L170.714 178.48H175.93L176.042 177.328H169.722L169.37 183.104L170.426 183.344C170.97 182.48 171.722 181.824 172.986 181.824C174.618 181.824 175.466 183.024 175.466 184.432C175.466 186.08 174.394 187.152 172.826 187.152C171.402 187.152 170.474 186.544 169.978 185.28L168.906 185.664C169.45 187.264 170.906 188.192 172.874 188.192ZM182.458 188.208C184.634 188.208 186.154 186.592 186.154 184.544C186.154 182.528 184.858 181.04 182.666 181.04C181.338 181.04 179.962 181.824 179.498 183.312C179.498 183.248 179.482 183.008 179.482 182.96C179.482 179.584 180.714 178.208 182.442 178.208C183.594 178.208 184.314 178.8 184.698 179.872L185.882 179.664C185.418 178.032 184.234 177.12 182.57 177.12C179.69 177.12 178.218 179.568 178.218 182.72V182.848C178.218 186.368 180.01 188.208 182.458 188.208ZM182.458 187.168C180.906 187.168 179.866 186.096 179.69 184.496C179.69 184.448 179.69 184.4 179.706 184.352C180.026 183.184 181.002 182.08 182.458 182.08C184.042 182.08 184.906 183.168 184.906 184.608V184.688C184.906 186.208 183.866 187.168 182.458 187.168ZM190.099 183.808V182.656H186.547V183.808H190.099ZM197.726 177.328H190.686L190.542 178.48H196.414C193.902 181.488 192.526 185.328 192.414 187.648C192.398 187.776 192.398 187.888 192.398 188H193.918C193.902 187.936 193.902 187.76 193.902 187.6C193.902 185.152 194.846 181.68 197.726 178.208V177.328ZM202.464 188.192C204.928 188.192 206.304 186.928 206.304 185.2C206.304 183.584 205.216 182.848 203.712 182.272C204.944 181.776 205.84 181.04 205.84 179.776C205.84 178.192 204.528 177.136 202.4 177.136C200.288 177.136 198.992 178.384 198.992 179.872C198.992 181.12 199.712 181.888 201.04 182.464C199.664 183.008 198.576 183.824 198.576 185.28C198.576 187.024 200.096 188.192 202.464 188.192ZM202.576 181.856L202.064 181.648C200.88 181.2 200.24 180.72 200.24 179.84C200.24 178.784 201.152 178.16 202.4 178.16C203.904 178.16 204.688 178.768 204.688 179.824C204.688 180.752 203.856 181.376 202.576 181.856ZM202.464 187.2C200.736 187.2 199.76 186.432 199.76 185.264C199.76 183.984 200.752 183.44 202.112 182.944L202.704 183.168C204.304 183.728 205.056 184.24 205.056 185.264C205.056 186.512 204.096 187.2 202.464 187.2ZM210.859 184.304C211.979 184.304 213.243 183.6 213.787 182.624C213.787 182.736 213.787 182.864 213.787 183.04C213.723 185.632 212.619 187.136 211.051 187.136C209.723 187.136 209.083 186.688 208.715 185.728L207.531 185.936C208.043 187.472 209.211 188.192 211.003 188.192C213.547 188.192 215.083 185.888 215.083 182.272C215.083 182.256 215.083 182.24 215.083 182.224C215.083 179.328 213.723 177.136 211.051 177.136C208.635 177.136 207.339 178.976 207.339 180.816C207.339 183.168 208.875 184.304 210.859 184.304ZM210.987 183.248C209.451 183.248 208.619 182.448 208.619 180.848C208.619 180.816 208.619 180.768 208.619 180.736C208.619 179.456 209.371 178.192 211.067 178.192C212.587 178.192 213.563 179.248 213.675 181.264C213.675 181.328 213.675 181.472 213.675 181.52C213.083 182.608 211.963 183.248 210.987 183.248ZM220.516 188.192C222.965 188.192 224.501 186.032 224.501 182.72C224.501 179.296 222.965 177.136 220.501 177.136C217.941 177.136 216.453 179.28 216.453 182.672C216.453 186.016 217.957 188.192 220.516 188.192ZM220.516 187.152C218.805 187.152 217.797 185.488 217.797 182.672C217.797 179.728 218.661 178.208 220.501 178.208C222.229 178.208 223.157 179.872 223.157 182.688C223.157 185.584 222.181 187.152 220.516 187.152Z" fill="#111111"/>
<rect x="81.5" y="152.5" width="399" height="47" rx="1.5" stroke="#E9E9E9"/>
<path d="M82.992 216V212.196H86.712V216H87.708V207.996H86.712V211.308H82.992V207.996H81.996V216H82.992ZM91.8672 216.096C93.0432 216.096 93.9552 215.484 94.3632 214.344L93.5472 214.224C93.2112 215.1 92.5992 215.388 91.9512 215.388C90.7992 215.388 90.1272 214.632 90.1032 213.144H94.4712C94.4592 213.012 94.4712 212.88 94.4592 212.748C94.3392 211.104 93.4392 209.976 91.8912 209.976C90.3672 209.976 89.1552 211.14 89.1552 213.144C89.1552 214.908 90.2472 216.096 91.8672 216.096ZM90.1392 212.508C90.2112 211.392 90.9432 210.684 91.8912 210.684C92.8392 210.684 93.4272 211.368 93.5232 212.508H90.1392ZM96.7233 216V207.996H95.7873V216H96.7233ZM101.313 216.084C102.501 216.084 103.569 215.04 103.569 213.036C103.569 210.9 102.657 209.976 101.337 209.976C100.389 209.976 99.7886 210.552 99.4286 211.128V210.084H98.5406V218.004H99.4646V215.22C99.8246 215.652 100.449 216.084 101.313 216.084ZM101.061 215.4C100.209 215.4 99.7766 214.872 99.4646 214.428V211.932C99.8846 211.104 100.437 210.744 101.121 210.744C102.141 210.744 102.597 211.476 102.597 213.06C102.597 214.764 101.997 215.4 101.061 215.4ZM107.195 216.096C108.371 216.096 109.283 215.484 109.691 214.344L108.875 214.224C108.539 215.1 107.927 215.388 107.279 215.388C106.127 215.388 105.455 214.632 105.431 213.144H109.799C109.787 213.012 109.799 212.88 109.787 212.748C109.667 211.104 108.767 209.976 107.219 209.976C105.695 209.976 104.483 211.14 104.483 213.144C104.483 214.908 105.575 216.096 107.195 216.096ZM105.467 212.508C105.539 211.392 106.271 210.684 107.219 210.684C108.167 210.684 108.755 211.368 108.851 212.508H105.467ZM112.027 216V212.136C112.519 211.308 113.215 210.828 113.911 210.828C113.983 210.828 114.103 210.828 114.175 210.84V209.988C114.079 209.976 114.007 209.976 113.899 209.976C113.059 209.976 112.363 210.66 111.979 211.356V210.084H111.091V216H112.027ZM119.533 216.084C119.857 216.084 120.217 216.048 120.541 215.988V215.256C120.325 215.292 119.977 215.328 119.701 215.328C119.197 215.316 118.873 215.04 118.873 214.416V210.828H120.205V210.084H118.873V208.536H118.021L117.973 210.084H117.001V210.828H117.961V214.368C117.961 215.592 118.537 216.084 119.533 216.084ZM123.836 216.096C125.012 216.096 125.924 215.484 126.332 214.344L125.516 214.224C125.18 215.1 124.568 215.388 123.92 215.388C122.768 215.388 122.096 214.632 122.072 213.144H126.44C126.428 213.012 126.44 212.88 126.428 212.748C126.308 211.104 125.408 209.976 123.86 209.976C122.336 209.976 121.124 211.14 121.124 213.144C121.124 214.908 122.216 216.096 123.836 216.096ZM122.108 212.508C122.18 211.392 122.912 210.684 123.86 210.684C124.808 210.684 125.396 211.368 125.492 212.508H122.108ZM127.783 216L129.283 213.792L129.403 213.576L129.535 213.792L131.083 216H132.115L129.919 212.808L131.755 210.084H130.855L129.619 211.896L129.463 212.136L129.307 211.896L128.071 210.084H127.015L128.947 212.904L126.871 216H127.783ZM134.661 216.084C134.985 216.084 135.345 216.048 135.669 215.988V215.256C135.453 215.292 135.105 215.328 134.829 215.328C134.325 215.316 134.001 215.04 134.001 214.416V210.828H135.333V210.084H134.001V208.536H133.149L133.101 210.084H132.129V210.828H133.089V214.368C133.089 215.592 133.665 216.084 134.661 216.084Z" fill="#666666"/>
<rect y="100" width="28" height="28" rx="14" fill="#94538C"/>
<path d="M17.2926 120V118.944H14.9406V109.12H13.9806C13.2926 110.256 12.5406 111.088 11.3726 111.728V113.104C12.8926 112.24 13.2766 111.552 13.6606 111.104V118.944H11.2606V120H17.2926Z" fill="#FCFCFC"/>
<line x1="32" y1="113.5" x2="89" y2="113.5" stroke="#94538C" stroke-dasharray="2 2"/>
<rect y="162" width="28" height="28" rx="14" fill="#94538C"/>
<path d="M13.9599 182.192C15.9759 182.192 17.8319 180.816 17.8319 178.416C17.8319 176.288 16.4719 174.784 14.2479 174.784C13.0639 174.784 12.0079 175.44 11.5599 176.064L11.7999 172.48H17.0159L17.1279 171.328H10.8079L10.4559 177.104L11.5119 177.344C12.0559 176.48 12.8079 175.824 14.0719 175.824C15.7039 175.824 16.5519 177.024 16.5519 178.432C16.5519 180.08 15.4799 181.152 13.9119 181.152C12.4879 181.152 11.5599 180.544 11.0639 179.28L9.99194 179.664C10.5359 181.264 11.9919 182.192 13.9599 182.192Z" fill="#FCFCFC"/>
<line x1="32" y1="175.5" x2="89" y2="175.5" stroke="#94538C" stroke-dasharray="2 2"/>
<rect y="198" width="28" height="28" rx="14" fill="#94538C"/>
<path d="M14.3956 218.208C16.5716 218.208 18.0916 216.592 18.0916 214.544C18.0916 212.528 16.7956 211.04 14.6036 211.04C13.2756 211.04 11.8996 211.824 11.4356 213.312C11.4356 213.248 11.4196 213.008 11.4196 212.96C11.4196 209.584 12.6516 208.208 14.3796 208.208C15.5316 208.208 16.2516 208.8 16.6356 209.872L17.8196 209.664C17.3556 208.032 16.1716 207.12 14.5076 207.12C11.6276 207.12 10.1556 209.568 10.1556 212.72V212.848C10.1556 216.368 11.9476 218.208 14.3956 218.208ZM14.3956 217.168C12.8436 217.168 11.8036 216.096 11.6276 214.496C11.6276 214.448 11.6276 214.4 11.6436 214.352C11.9636 213.184 12.9396 212.08 14.3956 212.08C15.9796 212.08 16.8436 213.168 16.8436 214.608V214.688C16.8436 216.208 15.8036 217.168 14.3956 217.168Z" fill="#FCFCFC"/>
<line x1="32" y1="211.5" x2="73" y2="211.5" stroke="#94538C" stroke-dasharray="2 2"/>
<rect x="115" width="28" height="28" rx="14" fill="#94538C"/>
<path d="M132.832 20V18.88H126.752C130.72 16.176 132.592 14.432 132.592 12.416C132.592 10.448 131.248 9.152 128.992 9.152C126.8 9.152 125.488 10.4 125.136 12.336L126.368 12.576C126.56 11.056 127.552 10.24 128.944 10.24C130.528 10.24 131.248 11.168 131.248 12.336C131.248 14.144 130.112 15.28 125.136 18.96V20H132.832Z" fill="#FCFCFC"/>
<line x1="129.5" y1="28" x2="129.5" y2="90" stroke="#94538C" stroke-dasharray="2 2"/>
<rect x="443" y="12" width="28" height="28" rx="14" fill="#94538C"/>
<path d="M459.376 32V29.504H461.088V28.4H459.376V21.12H457.968L452.8 28.48V29.504H458.128V32H459.376ZM458.128 22.576V28.4H453.984L458.128 22.576Z" fill="#FCFCFC"/>
<line x1="457.5" y1="40" x2="457.5" y2="102" stroke="#94538C" stroke-dasharray="2 2"/>
<rect x="302" y="22" width="28" height="28" rx="14" fill="#94538C"/>
<path d="M315.944 42.192C318.472 42.192 319.864 40.832 319.864 39.056C319.864 37.648 318.92 36.688 317.416 36.384C318.728 36.064 319.464 35.136 319.464 33.888C319.464 32.288 318.232 31.136 315.88 31.136C314.12 31.136 312.744 32.016 312.184 33.68L313.384 33.92C313.688 32.88 314.584 32.224 315.912 32.224C317.288 32.224 318.136 32.88 318.136 34.016C318.136 35.248 317.288 35.904 315.64 35.904H314.408V36.992H315.64C317.512 36.992 318.52 37.824 318.52 39.04C318.52 40.208 317.688 41.136 315.912 41.136C314.248 41.136 313.416 40.544 313.048 39.216L311.8 39.456C312.296 41.344 313.72 42.192 315.944 42.192Z" fill="#FCFCFC"/>
<line x1="316.5" y1="50" x2="316.5" y2="82" stroke="#94538C" stroke-dasharray="2 2"/>
</svg>
