<svg width="238" height="79" viewBox="0 0 238 79" fill="none" xmlns="http://www.w3.org/2000/svg">
<rect x="54" width="28" height="28" rx="14" fill="#94538C"/>
<path d="M71.8319 20V18.88H65.7519C69.7199 16.176 71.5919 14.432 71.5919 12.416C71.5919 10.448 70.2479 9.152 67.9919 9.152C65.7999 9.152 64.4879 10.4 64.1359 12.336L65.3679 12.576C65.5599 11.056 66.5519 10.24 67.9439 10.24C69.5279 10.24 70.2479 11.168 70.2479 12.336C70.2479 14.144 69.1119 15.28 64.1359 18.96V20H71.8319Z" fill="#FCFCFC"/>
<line x1="68.5" y1="28" x2="68.5" y2="45" stroke="#94538C" stroke-dasharray="2 2"/>
<rect x="106" width="28" height="28" rx="14" fill="#94538C"/>
<path d="M123.832 20V18.88H117.752C121.72 16.176 123.592 14.432 123.592 12.416C123.592 10.448 122.248 9.152 119.992 9.152C117.8 9.152 116.488 10.4 116.136 12.336L117.368 12.576C117.56 11.056 118.552 10.24 119.944 10.24C121.528 10.24 122.248 11.168 122.248 12.336C122.248 14.144 121.112 15.28 116.136 18.96V20H123.832Z" fill="#FCFCFC"/>
<line x1="120.5" y1="28" x2="120.5" y2="45" stroke="#94538C" stroke-dasharray="2 2"/>
<path d="M52 63C52 54.1634 59.1634 47 68 47C76.8366 47 84 54.1634 84 63C84 71.8366 76.8366 79 68 79C59.1634 79 52 71.8366 52 63Z" fill="#111111"/>
<path d="M74 62.5H68.5V57H67.5V62.5H62V63.5H67.5V69H68.5V63.5H74V62.5Z" fill="white"/>
<path d="M99 63C99 54.1634 106.163 47 115 47H222C230.837 47 238 54.1634 238 63C238 71.8366 230.837 79 222 79H115C106.163 79 99 71.8366 99 63Z" fill="#111111"/>
<path d="M129 62.5H123.5V57H122.5V62.5H117V63.5H122.5V69H123.5V63.5H129V62.5Z" fill="white"/>
<path d="M144.75 69V60.344H147.486V58.328H139.454V60.344H142.222V69H144.75ZM151.217 69.128C153.265 69.128 154.577 68.136 155.105 66.632L153.041 66.36C152.753 67.144 152.241 67.544 151.441 67.544C150.465 67.544 149.729 66.92 149.697 65.496H155.185C155.201 65.32 155.201 65.192 155.201 65.016C155.137 62.552 153.681 60.92 151.201 60.92C148.993 60.92 147.105 62.584 147.105 65.144C147.105 67.56 148.833 69.128 151.217 69.128ZM149.729 64.2C149.793 63.112 150.433 62.472 151.233 62.472C152.161 62.472 152.625 63.128 152.705 64.2H149.729ZM157.647 69L158.991 67L159.279 66.584L159.535 67L160.863 69H163.599L160.751 64.648L163.199 61.064H161.023L159.951 62.696L159.711 63.064L159.487 62.696L158.399 61.064H155.663L158.239 65L155.471 69H157.647ZM167.722 69.112C168.218 69.112 168.778 69.064 169.162 69.016V67.24C168.826 67.272 168.522 67.272 168.218 67.24C167.626 67.16 167.37 66.808 167.37 66.184V62.744H169.002V61.064H167.37V58.632H165.13L164.97 61.064H163.69V62.744H164.954V66.584C164.954 68.264 165.914 69.112 167.722 69.112ZM179.003 69.112C180.891 69.112 182.203 67.736 182.203 65.016C182.203 62.312 181.211 60.92 179.387 60.92C178.155 60.92 177.419 61.592 176.971 62.28V58.328H174.523V69H176.027L176.379 67.832C176.987 68.632 177.707 69.112 179.003 69.112ZM178.315 67.592C177.483 67.592 176.987 67.032 176.987 65.88V63.656C177.243 63.096 177.643 62.616 178.363 62.616C179.291 62.616 179.643 63.416 179.643 65.096C179.643 66.888 179.291 67.592 178.315 67.592ZM185.951 69.128C187.087 69.128 187.951 68.712 188.495 67.864L188.479 69H190.879V61.064H188.383V66.584C188.127 67.112 187.695 67.512 187.103 67.512C186.447 67.512 186.127 67.224 186.127 66.472V61.064H183.631V66.6C183.631 68.36 184.591 69.128 185.951 69.128ZM195.956 69.112C196.452 69.112 197.012 69.064 197.396 69.016V67.24C197.06 67.272 196.756 67.272 196.452 67.24C195.86 67.16 195.604 66.808 195.604 66.184V62.744H197.236V61.064H195.604V58.632H193.364L193.204 61.064H191.924V62.744H193.188V66.584C193.188 68.264 194.148 69.112 195.956 69.112ZM201.722 69.112C202.218 69.112 202.778 69.064 203.162 69.016V67.24C202.826 67.272 202.522 67.272 202.218 67.24C201.626 67.16 201.37 66.808 201.37 66.184V62.744H203.002V61.064H201.37V58.632H199.13L198.97 61.064H197.69V62.744H198.954V66.584C198.954 68.264 199.914 69.112 201.722 69.112ZM207.871 69.128C210.351 69.128 212.015 67.368 212.015 65.048C212.015 62.584 210.383 60.92 207.919 60.92C205.567 60.92 203.839 62.632 203.839 65.096C203.839 67.416 205.503 69.128 207.871 69.128ZM207.951 67.528C206.959 67.528 206.479 66.744 206.479 65.016C206.479 63.336 206.991 62.568 207.935 62.568C208.911 62.568 209.359 63.352 209.359 65.016C209.359 66.76 208.863 67.528 207.951 67.528ZM215.924 69V63.56C216.244 63.08 216.676 62.632 217.332 62.632C217.94 62.632 218.196 63 218.196 63.496V69H220.676V63.416C220.676 61.896 220.02 60.92 218.388 60.92C217.044 60.92 216.292 61.72 215.828 62.376V61.064H213.444V69H215.924Z" fill="white"/>
<rect x="155" width="28" height="28" rx="14" fill="#94538C"/>
<path d="M168.944 20.192C171.472 20.192 172.864 18.832 172.864 17.056C172.864 15.648 171.92 14.688 170.416 14.384C171.728 14.064 172.464 13.136 172.464 11.888C172.464 10.288 171.232 9.136 168.88 9.136C167.12 9.136 165.744 10.016 165.184 11.68L166.384 11.92C166.688 10.88 167.584 10.224 168.912 10.224C170.288 10.224 171.136 10.88 171.136 12.016C171.136 13.248 170.288 13.904 168.64 13.904H167.408V14.992H168.64C170.512 14.992 171.52 15.824 171.52 17.04C171.52 18.208 170.688 19.136 168.912 19.136C167.248 19.136 166.416 18.544 166.048 17.216L164.8 17.456C165.296 19.344 166.72 20.192 168.944 20.192Z" fill="#FCFCFC"/>
<line x1="169.5" y1="28" x2="169.5" y2="57" stroke="#94538C" stroke-dasharray="2 2"/>
<rect y="49" width="28" height="28" rx="14" fill="#94538C"/>
<path d="M17.2926 69V67.944H14.9406V58.12H13.9806C13.2926 59.256 12.5406 60.088 11.3726 60.728V62.104C12.8926 61.24 13.2766 60.552 13.6606 60.104V67.944H11.2606V69H17.2926Z" fill="#FCFCFC"/>
<line x1="32" y1="62.5" x2="60" y2="62.5" stroke="#94538C" stroke-dasharray="2 2"/>
</svg>
