<svg width="595" height="119" viewBox="0 0 595 119" fill="none" xmlns="http://www.w3.org/2000/svg">
<g filter="url(#filter0_d_1239_16632)">
<path d="M2 3C2 1.89543 2.89543 1 4 1H135C136.105 1 137 1.89543 137 3V114C137 115.105 136.105 116 135 116H4C2.89543 116 2 115.105 2 114V3Z" fill="white"/>
<rect width="135" height="85" transform="translate(2 1)" fill="#333333"/>
<path d="M11.088 105.144C12.464 105.144 13.424 104.696 14.08 103.848L14.496 105H15.84V99.544H11.296V101.416H13.36C13.344 101.496 13.328 101.64 13.296 101.8C13.152 102.648 12.432 103.16 11.456 103.16C10.016 103.16 9.312 101.976 9.312 99.64C9.312 97.352 9.984 96.12 11.408 96.12C12.528 96.12 13.072 97.032 13.264 98.088L15.776 97.544C15.264 95.48 13.968 94.12 11.472 94.12C8.304 94.12 6.528 96.264 6.528 99.848C6.528 103.176 8.368 105.144 11.088 105.144ZM20.1751 105V100.248C20.6231 99.4 21.4231 98.92 22.3671 98.92C22.5751 98.92 22.9271 98.936 23.0871 98.968V96.968C22.9591 96.936 22.7511 96.92 22.5111 96.92C21.3431 96.92 20.3991 97.784 20.0311 98.728V97.064H17.6631V105H20.1751ZM26.0359 105.096C27.4439 105.096 28.2759 104.68 28.9639 103.976C28.9639 104.424 28.9959 104.84 29.0919 105H31.4599C31.3159 104.696 31.2839 103.912 31.2839 103.448V99.784C31.2839 98.072 30.5159 96.92 27.8439 96.92C25.5079 96.92 24.1799 97.736 23.7959 99.32L26.0679 99.528C26.2279 98.856 26.6759 98.536 27.6039 98.536C28.4679 98.536 28.8359 98.92 28.8839 99.544C28.8839 99.608 28.8999 99.848 28.8999 99.928C28.5639 99.944 28.2439 99.976 27.9399 100.008C25.1719 100.28 23.5879 101.16 23.5879 102.92C23.5879 104.264 24.5639 105.096 26.0359 105.096ZM27.1559 103.56C26.5319 103.56 26.1479 103.288 26.1479 102.696C26.1479 101.944 26.8359 101.48 28.0519 101.272C28.3079 101.224 28.5959 101.192 28.8999 101.176V102.568C28.5639 103.08 27.9719 103.56 27.1559 103.56ZM32.6058 107.752C32.7658 107.752 32.9098 107.768 33.0538 107.768C35.5978 107.768 36.4298 106.856 36.8778 105.624L40.0138 97.064H37.9978L36.6378 101.048L36.3658 101.912L36.0938 101.032L34.7338 97.064H32.0777L34.6698 103.736C34.8138 104.12 34.8938 104.456 34.8938 104.744C34.8938 105.512 34.3338 105.96 33.0698 105.96C32.9258 105.96 32.7818 105.96 32.6058 105.944V107.752ZM44.0034 101.64V99.608H40.1794V101.64H44.0034ZM45.3841 105H49.5281C52.5521 105 54.5041 102.696 54.5041 99.672C54.5041 98.024 54.0081 96.568 53.0001 95.608C52.1521 94.776 50.9041 94.328 49.4481 94.328H45.3841V105ZM48.0241 96.36H49.3041C50.8241 96.36 51.7681 97.688 51.7681 99.624C51.7681 101.736 50.7121 102.984 49.3041 102.984H48.0241V96.36ZM57.8484 105.096C59.2564 105.096 60.0884 104.68 60.7764 103.976C60.7764 104.424 60.8084 104.84 60.9044 105H63.2724C63.1284 104.696 63.0964 103.912 63.0964 103.448V99.784C63.0964 98.072 62.3284 96.92 59.6564 96.92C57.3204 96.92 55.9924 97.736 55.6084 99.32L57.8804 99.528C58.0404 98.856 58.4884 98.536 59.4164 98.536C60.2804 98.536 60.6484 98.92 60.6964 99.544C60.6964 99.608 60.7124 99.848 60.7124 99.928C60.3764 99.944 60.0564 99.976 59.7524 100.008C56.9844 100.28 55.4004 101.16 55.4004 102.92C55.4004 104.264 56.3764 105.096 57.8484 105.096ZM58.9684 103.56C58.3444 103.56 57.9604 103.288 57.9604 102.696C57.9604 101.944 58.6484 101.48 59.8644 101.272C60.1204 101.224 60.4084 101.192 60.7124 101.176V102.568C60.3764 103.08 59.7844 103.56 58.9684 103.56ZM67.5033 105V100.248C67.9513 99.4 68.7513 98.92 69.6953 98.92C69.9033 98.92 70.2553 98.936 70.4153 98.968V96.968C70.2873 96.936 70.0793 96.92 69.8393 96.92C68.6713 96.92 67.7273 97.784 67.3593 98.728V97.064H64.9913V105H67.5033ZM73.9709 105V102.744L75.0909 101.512L76.7709 105H79.4109L76.7549 99.768L79.1389 97.064H76.8669L74.3869 99.912L73.9389 100.472L73.9709 99.752V94.328H71.5069V105H73.9709ZM83.9201 105.128C85.9681 105.128 87.2801 104.136 87.8081 102.632L85.7441 102.36C85.4561 103.144 84.9441 103.544 84.1441 103.544C83.1681 103.544 82.4321 102.92 82.4001 101.496H87.8881C87.9041 101.32 87.9041 101.192 87.9041 101.016C87.8401 98.552 86.3841 96.92 83.9041 96.92C81.6961 96.92 79.8081 98.584 79.8081 101.144C79.8081 103.56 81.5361 105.128 83.9201 105.128ZM82.4321 100.2C82.4961 99.112 83.1361 98.472 83.9361 98.472C84.8641 98.472 85.3281 99.128 85.4081 100.2H82.4321ZM91.8158 105V100.248C92.2638 99.4 93.0638 98.92 94.0078 98.92C94.2158 98.92 94.5678 98.936 94.7278 98.968V96.968C94.5998 96.936 94.3918 96.92 94.1518 96.92C92.9838 96.92 92.0398 97.784 91.6718 98.728V97.064H89.3038V105H91.8158Z" fill="#111111"/>
</g>
<g filter="url(#filter1_d_1239_16632)">
<path d="M154 3C154 1.89543 154.895 1 156 1H287C288.105 1 289 1.89543 289 3V114C289 115.105 288.105 116 287 116H156C154.895 116 154 115.105 154 114V3Z" fill="white"/>
<rect width="135" height="85" transform="translate(154 1)" fill="#666666"/>
<path d="M163.088 105.144C164.464 105.144 165.424 104.696 166.08 103.848L166.496 105H167.84V99.544H163.296V101.416H165.36C165.344 101.496 165.328 101.64 165.296 101.8C165.152 102.648 164.432 103.16 163.456 103.16C162.016 103.16 161.312 101.976 161.312 99.64C161.312 97.352 161.984 96.12 163.408 96.12C164.528 96.12 165.072 97.032 165.264 98.088L167.776 97.544C167.264 95.48 165.968 94.12 163.472 94.12C160.304 94.12 158.528 96.264 158.528 99.848C158.528 103.176 160.368 105.144 163.088 105.144ZM172.175 105V100.248C172.623 99.4 173.423 98.92 174.367 98.92C174.575 98.92 174.927 98.936 175.087 98.968V96.968C174.959 96.936 174.751 96.92 174.511 96.92C173.343 96.92 172.399 97.784 172.031 98.728V97.064H169.663V105H172.175ZM178.036 105.096C179.444 105.096 180.276 104.68 180.964 103.976C180.964 104.424 180.996 104.84 181.092 105H183.46C183.316 104.696 183.284 103.912 183.284 103.448V99.784C183.284 98.072 182.516 96.92 179.844 96.92C177.508 96.92 176.18 97.736 175.796 99.32L178.068 99.528C178.228 98.856 178.676 98.536 179.604 98.536C180.468 98.536 180.836 98.92 180.884 99.544C180.884 99.608 180.9 99.848 180.9 99.928C180.564 99.944 180.244 99.976 179.94 100.008C177.172 100.28 175.588 101.16 175.588 102.92C175.588 104.264 176.564 105.096 178.036 105.096ZM179.156 103.56C178.532 103.56 178.148 103.288 178.148 102.696C178.148 101.944 178.836 101.48 180.052 101.272C180.308 101.224 180.596 101.192 180.9 101.176V102.568C180.564 103.08 179.972 103.56 179.156 103.56ZM184.606 107.752C184.766 107.752 184.91 107.768 185.054 107.768C187.598 107.768 188.43 106.856 188.878 105.624L192.014 97.064H189.998L188.638 101.048L188.366 101.912L188.094 101.032L186.734 97.064H184.078L186.67 103.736C186.814 104.12 186.894 104.456 186.894 104.744C186.894 105.512 186.334 105.96 185.07 105.96C184.926 105.96 184.782 105.96 184.606 105.944V107.752ZM196.003 101.64V99.608H192.179V101.64H196.003ZM197.384 105H201.528C204.552 105 206.504 102.696 206.504 99.672C206.504 98.024 206.008 96.568 205 95.608C204.152 94.776 202.904 94.328 201.448 94.328H197.384V105ZM200.024 96.36H201.304C202.824 96.36 203.768 97.688 203.768 99.624C203.768 101.736 202.712 102.984 201.304 102.984H200.024V96.36ZM209.848 105.096C211.256 105.096 212.088 104.68 212.776 103.976C212.776 104.424 212.808 104.84 212.904 105H215.272C215.128 104.696 215.096 103.912 215.096 103.448V99.784C215.096 98.072 214.328 96.92 211.656 96.92C209.32 96.92 207.992 97.736 207.608 99.32L209.88 99.528C210.04 98.856 210.488 98.536 211.416 98.536C212.28 98.536 212.648 98.92 212.696 99.544C212.696 99.608 212.712 99.848 212.712 99.928C212.376 99.944 212.056 99.976 211.752 100.008C208.984 100.28 207.4 101.16 207.4 102.92C207.4 104.264 208.376 105.096 209.848 105.096ZM210.968 103.56C210.344 103.56 209.96 103.288 209.96 102.696C209.96 101.944 210.648 101.48 211.864 101.272C212.12 101.224 212.408 101.192 212.712 101.176V102.568C212.376 103.08 211.784 103.56 210.968 103.56ZM219.503 105V100.248C219.951 99.4 220.751 98.92 221.695 98.92C221.903 98.92 222.255 98.936 222.415 98.968V96.968C222.287 96.936 222.079 96.92 221.839 96.92C220.671 96.92 219.727 97.784 219.359 98.728V97.064H216.991V105H219.503ZM225.971 105V102.744L227.091 101.512L228.771 105H231.411L228.755 99.768L231.139 97.064H228.867L226.387 99.912L225.939 100.472L225.971 99.752V94.328H223.507V105H225.971Z" fill="#111111"/>
</g>
<g filter="url(#filter2_d_1239_16632)">
<path d="M306 3C306 1.89543 306.895 1 308 1H439C440.105 1 441 1.89543 441 3V114C441 115.105 440.105 116 439 116H308C306.895 116 306 115.105 306 114V3Z" fill="white"/>
<rect width="135" height="85" transform="translate(306 1)" fill="#D5D5D5"/>
<path d="M315.088 105.144C316.464 105.144 317.424 104.696 318.08 103.848L318.496 105H319.84V99.544H315.296V101.416H317.36C317.344 101.496 317.328 101.64 317.296 101.8C317.152 102.648 316.432 103.16 315.456 103.16C314.016 103.16 313.312 101.976 313.312 99.64C313.312 97.352 313.984 96.12 315.408 96.12C316.528 96.12 317.072 97.032 317.264 98.088L319.776 97.544C319.264 95.48 317.968 94.12 315.472 94.12C312.304 94.12 310.528 96.264 310.528 99.848C310.528 103.176 312.368 105.144 315.088 105.144ZM324.175 105V100.248C324.623 99.4 325.423 98.92 326.367 98.92C326.575 98.92 326.927 98.936 327.087 98.968V96.968C326.959 96.936 326.751 96.92 326.511 96.92C325.343 96.92 324.399 97.784 324.031 98.728V97.064H321.663V105H324.175ZM330.036 105.096C331.444 105.096 332.276 104.68 332.964 103.976C332.964 104.424 332.996 104.84 333.092 105H335.46C335.316 104.696 335.284 103.912 335.284 103.448V99.784C335.284 98.072 334.516 96.92 331.844 96.92C329.508 96.92 328.18 97.736 327.796 99.32L330.068 99.528C330.228 98.856 330.676 98.536 331.604 98.536C332.468 98.536 332.836 98.92 332.884 99.544C332.884 99.608 332.9 99.848 332.9 99.928C332.564 99.944 332.244 99.976 331.94 100.008C329.172 100.28 327.588 101.16 327.588 102.92C327.588 104.264 328.564 105.096 330.036 105.096ZM331.156 103.56C330.532 103.56 330.148 103.288 330.148 102.696C330.148 101.944 330.836 101.48 332.052 101.272C332.308 101.224 332.596 101.192 332.9 101.176V102.568C332.564 103.08 331.972 103.56 331.156 103.56ZM336.606 107.752C336.766 107.752 336.91 107.768 337.054 107.768C339.598 107.768 340.43 106.856 340.878 105.624L344.014 97.064H341.998L340.638 101.048L340.366 101.912L340.094 101.032L338.734 97.064H336.078L338.67 103.736C338.814 104.12 338.894 104.456 338.894 104.744C338.894 105.512 338.334 105.96 337.07 105.96C336.926 105.96 336.782 105.96 336.606 105.944V107.752ZM348.003 101.64V99.608H344.179V101.64H348.003ZM351.784 105V94.328H349.288V105H351.784ZM356.238 96.216V94.12H353.71V96.216H356.238ZM356.222 105V97.064H353.726V105H356.222ZM361.571 107.816C364.643 107.816 365.907 106.856 365.907 105.24C365.907 103.736 365.027 103.064 362.275 102.968C360.675 102.92 360.003 102.92 360.003 102.456C360.003 102.104 360.323 101.928 360.579 101.944C360.707 101.96 361.219 102.024 361.507 102.024C363.811 102.024 365.027 101.112 365.027 99.512C365.027 98.776 364.707 98.168 364.339 97.896C364.483 97.608 364.755 97.48 365.123 97.48C365.363 97.48 365.603 97.528 365.779 97.64V95.88C365.731 95.864 365.523 95.832 365.411 95.832C364.355 95.832 363.507 96.152 363.299 97.272C362.803 97.016 361.859 96.904 361.395 96.904C359.491 96.904 357.955 97.832 357.955 99.48C357.955 100.424 358.323 101.192 359.443 101.576C358.291 101.816 357.763 102.408 357.763 103.096C357.763 103.704 358.147 104.216 359.123 104.456C358.115 104.664 357.347 105.096 357.347 106.04C357.347 107.368 358.995 107.816 361.571 107.816ZM361.523 100.744C360.787 100.744 360.307 100.312 360.307 99.48C360.307 98.76 360.771 98.28 361.523 98.28C362.291 98.28 362.739 98.776 362.739 99.48C362.739 100.28 362.323 100.744 361.523 100.744ZM361.283 106.44C360.019 106.44 359.283 106.216 359.283 105.624C359.283 105.16 359.603 104.888 360.051 104.776C363.107 104.904 363.731 104.968 363.731 105.592C363.731 106.216 362.851 106.44 361.283 106.44ZM369.347 105V99.624C369.667 99.176 370.115 98.664 370.771 98.664C371.315 98.664 371.619 98.984 371.619 99.592V105H374.131V99.304C374.131 97.992 373.427 96.92 371.891 96.92C370.643 96.92 369.923 97.48 369.331 98.184V94.328H366.851V105H369.347ZM379.175 105.112C379.671 105.112 380.231 105.064 380.615 105.016V103.24C380.279 103.272 379.975 103.272 379.671 103.24C379.079 103.16 378.823 102.808 378.823 102.184V98.744H380.455V97.064H378.823V94.632H376.583L376.423 97.064H375.143V98.744H376.407V102.584C376.407 104.264 377.367 105.112 379.175 105.112Z" fill="#111111"/>
</g>
<g filter="url(#filter3_d_1239_16632)">
<path d="M458 3C458 1.89543 458.895 1 460 1H591C592.105 1 593 1.89543 593 3V114C593 115.105 592.105 116 591 116H460C458.895 116 458 115.105 458 114V3Z" fill="white"/>
<rect width="135" height="85" transform="translate(458 1)" fill="#E9E9E9"/>
<path d="M467.088 105.144C468.464 105.144 469.424 104.696 470.08 103.848L470.496 105H471.84V99.544H467.296V101.416H469.36C469.344 101.496 469.328 101.64 469.296 101.8C469.152 102.648 468.432 103.16 467.456 103.16C466.016 103.16 465.312 101.976 465.312 99.64C465.312 97.352 465.984 96.12 467.408 96.12C468.528 96.12 469.072 97.032 469.264 98.088L471.776 97.544C471.264 95.48 469.968 94.12 467.472 94.12C464.304 94.12 462.528 96.264 462.528 99.848C462.528 103.176 464.368 105.144 467.088 105.144ZM476.175 105V100.248C476.623 99.4 477.423 98.92 478.367 98.92C478.575 98.92 478.927 98.936 479.087 98.968V96.968C478.959 96.936 478.751 96.92 478.511 96.92C477.343 96.92 476.399 97.784 476.031 98.728V97.064H473.663V105H476.175ZM482.036 105.096C483.444 105.096 484.276 104.68 484.964 103.976C484.964 104.424 484.996 104.84 485.092 105H487.46C487.316 104.696 487.284 103.912 487.284 103.448V99.784C487.284 98.072 486.516 96.92 483.844 96.92C481.508 96.92 480.18 97.736 479.796 99.32L482.068 99.528C482.228 98.856 482.676 98.536 483.604 98.536C484.468 98.536 484.836 98.92 484.884 99.544C484.884 99.608 484.9 99.848 484.9 99.928C484.564 99.944 484.244 99.976 483.94 100.008C481.172 100.28 479.588 101.16 479.588 102.92C479.588 104.264 480.564 105.096 482.036 105.096ZM483.156 103.56C482.532 103.56 482.148 103.288 482.148 102.696C482.148 101.944 482.836 101.48 484.052 101.272C484.308 101.224 484.596 101.192 484.9 101.176V102.568C484.564 103.08 483.972 103.56 483.156 103.56ZM488.606 107.752C488.766 107.752 488.91 107.768 489.054 107.768C491.598 107.768 492.43 106.856 492.878 105.624L496.014 97.064H493.998L492.638 101.048L492.366 101.912L492.094 101.032L490.734 97.064H488.078L490.67 103.736C490.814 104.12 490.894 104.456 490.894 104.744C490.894 105.512 490.334 105.96 489.07 105.96C488.926 105.96 488.782 105.96 488.606 105.944V107.752ZM500.003 101.64V99.608H496.179V101.64H500.003ZM503.784 105V94.328H501.288V105H503.784ZM508.238 96.216V94.12H505.71V96.216H508.238ZM508.222 105V97.064H505.726V105H508.222ZM513.571 107.816C516.643 107.816 517.907 106.856 517.907 105.24C517.907 103.736 517.027 103.064 514.275 102.968C512.675 102.92 512.003 102.92 512.003 102.456C512.003 102.104 512.323 101.928 512.579 101.944C512.707 101.96 513.219 102.024 513.507 102.024C515.811 102.024 517.027 101.112 517.027 99.512C517.027 98.776 516.707 98.168 516.339 97.896C516.483 97.608 516.755 97.48 517.123 97.48C517.363 97.48 517.603 97.528 517.779 97.64V95.88C517.731 95.864 517.523 95.832 517.411 95.832C516.355 95.832 515.507 96.152 515.299 97.272C514.803 97.016 513.859 96.904 513.395 96.904C511.491 96.904 509.955 97.832 509.955 99.48C509.955 100.424 510.323 101.192 511.443 101.576C510.291 101.816 509.763 102.408 509.763 103.096C509.763 103.704 510.147 104.216 511.123 104.456C510.115 104.664 509.347 105.096 509.347 106.04C509.347 107.368 510.995 107.816 513.571 107.816ZM513.523 100.744C512.787 100.744 512.307 100.312 512.307 99.48C512.307 98.76 512.771 98.28 513.523 98.28C514.291 98.28 514.739 98.776 514.739 99.48C514.739 100.28 514.323 100.744 513.523 100.744ZM513.283 106.44C512.019 106.44 511.283 106.216 511.283 105.624C511.283 105.16 511.603 104.888 512.051 104.776C515.107 104.904 515.731 104.968 515.731 105.592C515.731 106.216 514.851 106.44 513.283 106.44ZM521.347 105V99.624C521.667 99.176 522.115 98.664 522.771 98.664C523.315 98.664 523.619 98.984 523.619 99.592V105H526.131V99.304C526.131 97.992 525.427 96.92 523.891 96.92C522.643 96.92 521.923 97.48 521.331 98.184V94.328H518.851V105H521.347ZM531.175 105.112C531.671 105.112 532.231 105.064 532.615 105.016V103.24C532.279 103.272 531.975 103.272 531.671 103.24C531.079 103.16 530.823 102.808 530.823 102.184V98.744H532.455V97.064H530.823V94.632H528.583L528.423 97.064H527.143V98.744H528.407V102.584C528.407 104.264 529.367 105.112 531.175 105.112ZM537.405 105.128C539.453 105.128 540.765 104.136 541.293 102.632L539.229 102.36C538.941 103.144 538.429 103.544 537.629 103.544C536.653 103.544 535.917 102.92 535.885 101.496H541.373C541.389 101.32 541.389 101.192 541.389 101.016C541.325 98.552 539.869 96.92 537.389 96.92C535.181 96.92 533.293 98.584 533.293 101.144C533.293 103.56 535.021 105.128 537.405 105.128ZM535.917 100.2C535.981 99.112 536.621 98.472 537.421 98.472C538.349 98.472 538.813 99.128 538.893 100.2H535.917ZM545.3 105V100.248C545.748 99.4 546.548 98.92 547.492 98.92C547.7 98.92 548.052 98.936 548.212 98.968V96.968C548.084 96.936 547.876 96.92 547.636 96.92C546.468 96.92 545.524 97.784 545.156 98.728V97.064H542.788V105H545.3Z" fill="#111111"/>
</g>
<defs>
<filter id="filter0_d_1239_16632" x="0" y="0" width="139" height="119" filterUnits="userSpaceOnUse" color-interpolation-filters="sRGB">
<feFlood flood-opacity="0" result="BackgroundImageFix"/>
<feColorMatrix in="SourceAlpha" type="matrix" values="0 0 0 0 0 0 0 0 0 0 0 0 0 0 0 0 0 0 127 0" result="hardAlpha"/>
<feOffset dy="1"/>
<feGaussianBlur stdDeviation="1"/>
<feComposite in2="hardAlpha" operator="out"/>
<feColorMatrix type="matrix" values="0 0 0 0 0.4 0 0 0 0 0.4 0 0 0 0 0.4 0 0 0 0.25 0"/>
<feBlend mode="normal" in2="BackgroundImageFix" result="effect1_dropShadow_1239_16632"/>
<feBlend mode="normal" in="SourceGraphic" in2="effect1_dropShadow_1239_16632" result="shape"/>
</filter>
<filter id="filter1_d_1239_16632" x="152" y="0" width="139" height="119" filterUnits="userSpaceOnUse" color-interpolation-filters="sRGB">
<feFlood flood-opacity="0" result="BackgroundImageFix"/>
<feColorMatrix in="SourceAlpha" type="matrix" values="0 0 0 0 0 0 0 0 0 0 0 0 0 0 0 0 0 0 127 0" result="hardAlpha"/>
<feOffset dy="1"/>
<feGaussianBlur stdDeviation="1"/>
<feComposite in2="hardAlpha" operator="out"/>
<feColorMatrix type="matrix" values="0 0 0 0 0.4 0 0 0 0 0.4 0 0 0 0 0.4 0 0 0 0.25 0"/>
<feBlend mode="normal" in2="BackgroundImageFix" result="effect1_dropShadow_1239_16632"/>
<feBlend mode="normal" in="SourceGraphic" in2="effect1_dropShadow_1239_16632" result="shape"/>
</filter>
<filter id="filter2_d_1239_16632" x="304" y="0" width="139" height="119" filterUnits="userSpaceOnUse" color-interpolation-filters="sRGB">
<feFlood flood-opacity="0" result="BackgroundImageFix"/>
<feColorMatrix in="SourceAlpha" type="matrix" values="0 0 0 0 0 0 0 0 0 0 0 0 0 0 0 0 0 0 127 0" result="hardAlpha"/>
<feOffset dy="1"/>
<feGaussianBlur stdDeviation="1"/>
<feComposite in2="hardAlpha" operator="out"/>
<feColorMatrix type="matrix" values="0 0 0 0 0.4 0 0 0 0 0.4 0 0 0 0 0.4 0 0 0 0.25 0"/>
<feBlend mode="normal" in2="BackgroundImageFix" result="effect1_dropShadow_1239_16632"/>
<feBlend mode="normal" in="SourceGraphic" in2="effect1_dropShadow_1239_16632" result="shape"/>
</filter>
<filter id="filter3_d_1239_16632" x="456" y="0" width="139" height="119" filterUnits="userSpaceOnUse" color-interpolation-filters="sRGB">
<feFlood flood-opacity="0" result="BackgroundImageFix"/>
<feColorMatrix in="SourceAlpha" type="matrix" values="0 0 0 0 0 0 0 0 0 0 0 0 0 0 0 0 0 0 127 0" result="hardAlpha"/>
<feOffset dy="1"/>
<feGaussianBlur stdDeviation="1"/>
<feComposite in2="hardAlpha" operator="out"/>
<feColorMatrix type="matrix" values="0 0 0 0 0.4 0 0 0 0 0.4 0 0 0 0 0.4 0 0 0 0.25 0"/>
<feBlend mode="normal" in2="BackgroundImageFix" result="effect1_dropShadow_1239_16632"/>
<feBlend mode="normal" in="SourceGraphic" in2="effect1_dropShadow_1239_16632" result="shape"/>
</filter>
</defs>
</svg>
