<svg width="166" height="78" viewBox="0 0 166 78" fill="none" xmlns="http://www.w3.org/2000/svg">
<rect y="50" width="28" height="28" rx="14" fill="#94538C"/>
<path d="M17.2926 70V68.944H14.9406V59.12H13.9806C13.2926 60.256 12.5406 61.088 11.3726 61.728V63.104C12.8926 62.24 13.2766 61.552 13.6606 61.104V68.944H11.2606V70H17.2926Z" fill="#FCFCFC"/>
<line x1="32" y1="63.5" x2="89" y2="63.5" stroke="#94538C" stroke-dasharray="2 2"/>
<rect x="85.5" y="53.5" width="19" height="19" rx="9.5" fill="white"/>
<rect x="90" y="58" width="10" height="10" rx="5" fill="#111111"/>
<rect x="85.5" y="53.5" width="19" height="19" rx="9.5" stroke="#111111"/>
<rect x="80" width="28" height="28" rx="14" fill="#94538C"/>
<path d="M97.8319 20V18.88H91.7519C95.7199 16.176 97.5919 14.432 97.5919 12.416C97.5919 10.448 96.2479 9.152 93.9919 9.152C91.7999 9.152 90.4879 10.4 90.1359 12.336L91.3679 12.576C91.5599 11.056 92.5519 10.24 93.9439 10.24C95.5279 10.24 96.2479 11.168 96.2479 12.336C96.2479 14.144 95.1119 15.28 90.1359 18.96V20H97.8319Z" fill="#FCFCFC"/>
<line x1="94.5" y1="28" x2="94.5" y2="60" stroke="#94538C" stroke-dasharray="2 2"/>
<line x1="102" y1="63.5" x2="134" y2="63.5" stroke="#94538C" stroke-dasharray="2 2"/>
<rect x="138" y="50" width="28" height="28" rx="14" fill="#94538C"/>
<path d="M151.944 70.192C154.472 70.192 155.864 68.832 155.864 67.056C155.864 65.648 154.92 64.688 153.416 64.384C154.728 64.064 155.464 63.136 155.464 61.888C155.464 60.288 154.232 59.136 151.88 59.136C150.12 59.136 148.744 60.016 148.184 61.68L149.384 61.92C149.688 60.88 150.584 60.224 151.912 60.224C153.288 60.224 154.136 60.88 154.136 62.016C154.136 63.248 153.288 63.904 151.64 63.904H150.408V64.992H151.64C153.512 64.992 154.52 65.824 154.52 67.04C154.52 68.208 153.688 69.136 151.912 69.136C150.248 69.136 149.416 68.544 149.048 67.216L147.8 67.456C148.296 69.344 149.72 70.192 151.944 70.192Z" fill="#FCFCFC"/>
</svg>
