<svg width="246" height="189" viewBox="0 0 246 189" fill="none" xmlns="http://www.w3.org/2000/svg">
    <rect y="61" width="28" height="28" rx="14" fill="#94538C"/>
    <path d="M17.293 81v-1.056H14.94V70.12h-.96c-.688 1.136-1.44 1.968-2.608 2.608v1.376c1.52-.864 1.904-1.552 2.288-2v7.84h-2.4V81h6.032z" fill="#FCFCFC"/>
    <path stroke="#94538C" stroke-dasharray="2 2" d="M32 74.5h57"/>
    <rect x="97" width="28" height="28" rx="14" fill="#94538C"/>
    <path d="M114.832 20v-1.12h-6.08c3.968-2.704 5.84-4.448 5.84-6.464 0-1.968-1.344-3.264-3.6-3.264-2.192 0-3.504 1.248-3.856 3.184l1.232.24c.192-1.52 1.184-2.336 2.576-2.336 1.584 0 2.304.928 2.304 2.096 0 1.808-1.136 2.944-6.112 6.624V20h7.696z" fill="#FCFCFC"/>
    <path stroke="#94538C" stroke-dasharray="2 2" d="M111.5 28v20"/>
    <rect x="89.5" y="56.5" width="156" height="132.001" rx="1.5" fill="#fff"/>
    <path fill="#F0F0F0" d="M97 64h141v117.001H97z"/>
    <path d="M160.148 120.621c2.148 0 3.192-1.02 3.192-2.436 0-1.668-1.248-2.16-2.58-2.472-1.104-.264-1.884-.396-1.884-1.104 0-.468.444-.744 1.104-.744.732 0 1.26.3 1.488.96l1.668-.504c-.456-1.224-1.44-1.968-3.132-1.968-1.932 0-3.096.96-3.096 2.316 0 1.764 1.416 2.184 2.652 2.484.972.24 1.848.408 1.848 1.14 0 .528-.504.852-1.296.852-1.092 0-1.608-.468-1.932-1.248l-1.56.6c.468 1.212 1.404 2.124 3.528 2.124zm6.034-.12v-8.004h-1.872v8.004h1.872zm4.12.096c1.86 0 3.108-1.32 3.108-3.06 0-1.848-1.224-3.096-3.072-3.096-1.764 0-3.06 1.284-3.06 3.132 0 1.74 1.248 3.024 3.024 3.024zm.06-1.2c-.744 0-1.104-.588-1.104-1.884 0-1.26.384-1.836 1.092-1.836.732 0 1.068.588 1.068 1.836 0 1.308-.372 1.884-1.056 1.884zm6.507 1.188c.372 0 .792-.036 1.08-.072v-1.332c-.252.024-.48.024-.708 0-.444-.06-.636-.324-.636-.792v-2.58h1.224v-1.26h-1.224v-1.824h-1.68l-.12 1.824h-.96v1.26h.948v2.88c0 1.26.72 1.896 2.076 1.896z" fill="#111"/>
    <path d="M120.964 126.165c-.768 1.048-1.152 2.184-1.152 3.328 0 1.2.392 2.336 1.16 3.344h.408c-.656-1.064-.984-2.152-.984-3.336 0-1.232.312-2.304.976-3.336h-.408zm2.973 5.424c1.216 0 1.936-.592 1.936-1.536 0-.896-.608-1.272-1.728-1.568-1.096-.288-1.488-.488-1.488-1.08 0-.456.44-.792 1.112-.792.672 0 1.184.352 1.344.952l.616-.192c-.256-.832-.952-1.312-1.952-1.312-1.032 0-1.784.552-1.784 1.416 0 .944.744 1.296 1.728 1.544.88.232 1.496.424 1.496 1.088 0 .608-.488.936-1.272.936-.936 0-1.392-.384-1.64-1.032l-.568.224c.352.888 1.04 1.352 2.2 1.352zm4.011-.088.768-2.688.08-.344.096.36.8 2.672h.528l1.176-3.944h-.536l-.768 2.736-.104.336-.088-.352-.808-2.72h-.512l-.752 2.696-.096.36-.088-.36-.784-2.696h-.632l1.192 3.944h.528zm4.971.048c.736 0 1.2-.28 1.512-.712-.008.2.024.528.072.664h.592a3.144 3.144 0 0 1-.088-.768v-1.792c0-.992-.432-1.456-1.552-1.456-.936 0-1.552.384-1.696 1.104l.576.064c.128-.504.464-.68 1.104-.68.664 0 .92.232.968.664.016.096.016.232.016.368-.312.008-.576.008-.896.048-1.08.128-1.864.552-1.864 1.408 0 .72.56 1.088 1.256 1.088zm.184-.456c-.528 0-.792-.24-.792-.696 0-.496.44-.84 1.296-.952.248-.032.536-.032.816-.032v.816c-.168.408-.568.864-1.32.864zm4.939.464c.792 0 1.504-.696 1.504-2.032 0-1.424-.608-2.04-1.488-2.04-.632 0-1.032.384-1.272.768v-.696h-.592v5.28h.616v-1.856c.24.288.656.576 1.232.576zm-.168-.456c-.568 0-.856-.352-1.064-.648v-1.664c.28-.552.648-.792 1.104-.792.68 0 .984.488.984 1.544 0 1.136-.4 1.56-1.024 1.56zm5.589.4.768-2.688.08-.344.096.36.8 2.672h.528l1.176-3.944h-.536l-.768 2.736-.104.336-.088-.352-.808-2.72h-.512l-.752 2.696-.096.36-.088-.36-.784-2.696h-.632l1.192 3.944h.528zm4.746-4.64v-.704h-.68v.704h.68zm-.024 4.64v-3.944h-.624v3.944h.624zm2.316.056c.216 0 .456-.024.672-.064v-.488a3.849 3.849 0 0 1-.56.048c-.336-.008-.552-.192-.552-.608v-2.392h.888v-.496h-.888v-1.032h-.568l-.032 1.032h-.648v.496h.64v2.36c0 .816.384 1.144 1.048 1.144zm1.981-.056v-2.696c.328-.472.72-.8 1.272-.8.4 0 .64.224.64.704v2.792h.624v-2.84c0-.648-.288-1.176-1.088-1.176-.736 0-1.216.44-1.472.848v-2.168h-.6v5.336h.624zm6.203 0v-5.336h-.624v5.336h.624zm2.676.064c.976 0 1.784-.808 1.784-2.048 0-1.216-.704-2.032-1.784-2.032-.968 0-1.768.792-1.768 2.024 0 1.248.752 2.056 1.768 2.056zm-.008-.464c-.664 0-1.104-.592-1.104-1.584 0-1.016.48-1.544 1.104-1.544.656 0 1.136.512 1.136 1.536 0 1.064-.488 1.592-1.136 1.592zm4.077.464c.784 0 1.368-.456 1.504-1.344l-.544-.056c-.12.656-.424.936-.944.936-.592 0-1.056-.488-1.056-1.576 0-.984.384-1.544 1.016-1.544.544 0 .856.352.952 1l.584-.072c-.176-.968-.704-1.424-1.544-1.424-1 0-1.664.88-1.664 2.024 0 1.32.728 2.056 1.696 2.056zm3.278-.016c.736 0 1.2-.28 1.512-.712-.008.2.024.528.072.664h.592a3.144 3.144 0 0 1-.088-.768v-1.792c0-.992-.432-1.456-1.552-1.456-.936 0-1.552.384-1.696 1.104l.576.064c.128-.504.464-.68 1.104-.68.664 0 .92.232.968.664.016.096.016.232.016.368-.312.008-.576.008-.896.048-1.08.128-1.864.552-1.864 1.408 0 .72.56 1.088 1.256 1.088zm.184-.456c-.528 0-.792-.24-.792-.696 0-.496.44-.84 1.296-.952.248-.032.536-.032.816-.032v.816c-.168.408-.568.864-1.32.864zm3.731.408v-5.336h-.624v5.336h.624zm4.447.064c.784 0 1.368-.456 1.504-1.344l-.544-.056c-.12.656-.424.936-.944.936-.592 0-1.056-.488-1.056-1.576 0-.984.384-1.544 1.016-1.544.544 0 .856.352.952 1l.584-.072c-.176-.968-.704-1.424-1.544-1.424-1 0-1.664.88-1.664 2.024 0 1.32.728 2.056 1.696 2.056zm3.799 0c.976 0 1.784-.808 1.784-2.048 0-1.216-.704-2.032-1.784-2.032-.968 0-1.768.792-1.768 2.024 0 1.248.752 2.056 1.768 2.056zm-.008-.464c-.664 0-1.104-.592-1.104-1.584 0-1.016.48-1.544 1.104-1.544.656 0 1.136.512 1.136 1.536 0 1.064-.488 1.592-1.136 1.592zm3.3.4v-2.704c.36-.504.688-.8 1.144-.8.384 0 .584.264.584.736v2.768h.608v-2.696c.248-.392.656-.792 1.144-.792.384 0 .6.216.6.728v2.76h.616v-2.8c0-.32-.08-.576-.2-.76-.16-.296-.432-.448-.84-.448-.624 0-1.088.448-1.36.88-.048-.56-.416-.888-.992-.888-.568 0-1.088.472-1.32.864v-.792h-.6v3.944h.616zm7.717.056c.792 0 1.504-.696 1.504-2.032 0-1.424-.608-2.04-1.488-2.04-.632 0-1.032.384-1.272.768v-.696h-.592v5.28h.616v-1.856c.24.288.656.576 1.232.576zm-.168-.456c-.568 0-.856-.352-1.064-.648v-1.664c.28-.552.648-.792 1.104-.792.68 0 .984.488.984 1.544 0 1.136-.4 1.56-1.024 1.56zm4.042.464c.976 0 1.784-.808 1.784-2.048 0-1.216-.704-2.032-1.784-2.032-.968 0-1.768.792-1.768 2.024 0 1.248.752 2.056 1.768 2.056zm-.009-.464c-.663 0-1.103-.592-1.103-1.584 0-1.016.48-1.544 1.103-1.544.657 0 1.137.512 1.137 1.536 0 1.064-.488 1.592-1.137 1.592zm3.309.4v-2.704c.328-.472.744-.792 1.248-.792.448 0 .656.224.656.696v2.8h.624v-2.792c0-.808-.36-1.224-1.096-1.224-.704 0-1.192.464-1.464.856v-.784h-.592v3.944h.624zm5.224.064c.784 0 1.392-.408 1.664-1.168l-.544-.08c-.224.584-.632.776-1.064.776-.768 0-1.216-.504-1.232-1.496h2.912c-.008-.088 0-.176-.008-.264-.08-1.096-.68-1.848-1.712-1.848-1.016 0-1.824.776-1.824 2.112 0 1.176.728 1.968 1.808 1.968zm-1.152-2.392c.048-.744.536-1.216 1.168-1.216.632 0 1.024.456 1.088 1.216h-2.256zm4.373 2.328v-2.704c.328-.472.744-.792 1.248-.792.448 0 .656.224.656.696v2.8h.624v-2.792c0-.808-.36-1.224-1.096-1.224-.704 0-1.192.464-1.464.856v-.784h-.592v3.944h.624zm4.816.056c.216 0 .456-.024.672-.064v-.488a3.849 3.849 0 0 1-.56.048c-.336-.008-.552-.192-.552-.608v-2.392h.888v-.496h-.888v-1.032h-.568l-.032 1.032h-.648v.496h.64v2.36c0 .816.384 1.144 1.048 1.144zm1.013-5.392c.664 1.064.984 2.152.984 3.336 0 1.232-.304 2.304-.976 3.336h.408c.768-1.048 1.152-2.184 1.152-3.328 0-1.208-.392-2.336-1.16-3.344h-.408z" fill="#666"/>
    <rect x="89.5" y="56.5" width="156" height="132.001" rx="1.5" stroke="#D4D4D4"/>
    <path d="M106.207 56.5 111 51.707l4.793 4.793h-.086l-4.353-4.354-.354-.353-.354.353-4.353 4.354h-.086z" stroke="#D4D4D4"/>
    <path d="m111 52.5-4.5 4.5h9l-4.5-4.5z" fill="#fff"/>
</svg>
