<svg width="474" height="117" viewBox="0 0 474 117" fill="none" xmlns="http://www.w3.org/2000/svg">
<rect x="126.5" y="49.5" width="119" height="63.001" rx="1.5" fill="white"/>
<rect width="104" height="48.001" transform="translate(134 57)" fill="#F0F0F0"/>
<path d="M164.508 79.0005V72.5085H166.56V70.9965H160.536V72.5085H162.612V79.0005H164.508ZM169.38 79.0965C171.24 79.0965 172.488 77.7765 172.488 76.0365C172.488 74.1885 171.264 72.9405 169.416 72.9405C167.652 72.9405 166.356 74.2245 166.356 76.0725C166.356 77.8125 167.604 79.0965 169.38 79.0965ZM169.44 77.8965C168.696 77.8965 168.336 77.3085 168.336 76.0125C168.336 74.7525 168.72 74.1765 169.428 74.1765C170.16 74.1765 170.496 74.7645 170.496 76.0125C170.496 77.3205 170.124 77.8965 169.44 77.8965ZM177.052 79.0845C178.348 79.0845 179.32 77.9925 179.32 76.0125C179.32 73.8765 178.492 72.9405 177.208 72.9405C176.2 72.9405 175.708 73.5165 175.336 74.0445V73.0485H173.572V80.9205H175.432V78.4005C175.84 78.7605 176.272 79.0845 177.052 79.0845ZM176.428 77.9565C175.9 77.9565 175.636 77.6085 175.42 77.3565V74.9925C175.648 74.5245 175.972 74.2365 176.44 74.2365C177.1 74.2365 177.388 74.6805 177.388 76.0965C177.388 77.5725 177.052 77.9565 176.428 77.9565ZM182.803 76.4805V74.9565H179.935V76.4805H182.803ZM186.695 79.1205C188.843 79.1205 189.887 78.1005 189.887 76.6845C189.887 75.0165 188.639 74.5245 187.307 74.2125C186.203 73.9485 185.423 73.8165 185.423 73.1085C185.423 72.6405 185.867 72.3645 186.527 72.3645C187.259 72.3645 187.787 72.6645 188.015 73.3245L189.683 72.8205C189.227 71.5965 188.243 70.8525 186.551 70.8525C184.619 70.8525 183.455 71.8125 183.455 73.1685C183.455 74.9325 184.871 75.3525 186.107 75.6525C187.079 75.8925 187.955 76.0605 187.955 76.7925C187.955 77.3205 187.451 77.6445 186.659 77.6445C185.567 77.6445 185.051 77.1765 184.727 76.3965L183.167 76.9965C183.635 78.2085 184.571 79.1205 186.695 79.1205ZM193.268 79.0845C193.64 79.0845 194.06 79.0485 194.348 79.0125V77.6805C194.096 77.7045 193.868 77.7045 193.64 77.6805C193.196 77.6205 193.004 77.3565 193.004 76.8885V74.3085H194.228V73.0485H193.004V71.2245H191.324L191.204 73.0485H190.244V74.3085H191.192V77.1885C191.192 78.4485 191.912 79.0845 193.268 79.0845ZM196.832 79.0725C197.888 79.0725 198.512 78.7605 199.028 78.2325C199.028 78.5685 199.052 78.8805 199.124 79.0005H200.9C200.792 78.7725 200.768 78.1845 200.768 77.8365V75.0885C200.768 73.8045 200.192 72.9405 198.188 72.9405C196.436 72.9405 195.44 73.5525 195.152 74.7405L196.856 74.8965C196.976 74.3925 197.312 74.1525 198.008 74.1525C198.656 74.1525 198.932 74.4405 198.968 74.9085C198.968 74.9565 198.98 75.1365 198.98 75.1965C198.728 75.2085 198.488 75.2325 198.26 75.2565C196.184 75.4605 194.996 76.1205 194.996 77.4405C194.996 78.4485 195.728 79.0725 196.832 79.0725ZM197.672 77.9205C197.204 77.9205 196.916 77.7165 196.916 77.2725C196.916 76.7085 197.432 76.3605 198.344 76.2045C198.536 76.1685 198.752 76.1445 198.98 76.1325V77.1765C198.728 77.5605 198.284 77.9205 197.672 77.9205ZM204.073 79.0005V75.4365C204.409 74.8005 205.009 74.4405 205.717 74.4405C205.873 74.4405 206.137 74.4525 206.257 74.4765V72.9765C206.161 72.9525 206.005 72.9405 205.825 72.9405C204.949 72.9405 204.241 73.5885 203.965 74.2965V73.0485H202.189V79.0005H204.073ZM209.592 79.0845C209.964 79.0845 210.384 79.0485 210.672 79.0125V77.6805C210.42 77.7045 210.192 77.7045 209.964 77.6805C209.52 77.6205 209.328 77.3565 209.328 76.8885V74.3085H210.552V73.0485H209.328V71.2245H207.648L207.528 73.0485H206.568V74.3085H207.516V77.1885C207.516 78.4485 208.236 79.0845 209.592 79.0845Z" fill="#111111"/>
<path d="M139.464 84.6645C138.696 85.7125 138.312 86.8485 138.312 87.9925C138.312 89.1925 138.704 90.3285 139.472 91.3365H139.88C139.224 90.2725 138.896 89.1845 138.896 88.0005C138.896 86.7685 139.208 85.6965 139.872 84.6645H139.464ZM142.437 90.0885C143.653 90.0885 144.373 89.4965 144.373 88.5525C144.373 87.6565 143.765 87.2805 142.645 86.9845C141.549 86.6965 141.157 86.4965 141.157 85.9045C141.157 85.4485 141.597 85.1125 142.269 85.1125C142.941 85.1125 143.453 85.4645 143.613 86.0645L144.229 85.8725C143.973 85.0405 143.277 84.5605 142.277 84.5605C141.245 84.5605 140.493 85.1125 140.493 85.9765C140.493 86.9205 141.237 87.2725 142.221 87.5205C143.101 87.7525 143.717 87.9445 143.717 88.6085C143.717 89.2165 143.229 89.5445 142.445 89.5445C141.509 89.5445 141.053 89.1605 140.805 88.5125L140.237 88.7365C140.589 89.6245 141.277 90.0885 142.437 90.0885ZM146.448 90.0005L147.216 87.3125L147.296 86.9685L147.392 87.3285L148.192 90.0005H148.72L149.896 86.0565H149.36L148.592 88.7925L148.488 89.1285L148.4 88.7765L147.592 86.0565H147.08L146.328 88.7525L146.232 89.1125L146.144 88.7525L145.36 86.0565H144.728L145.92 90.0005H146.448ZM151.419 90.0485C152.155 90.0485 152.619 89.7685 152.931 89.3365C152.923 89.5365 152.955 89.8645 153.003 90.0005H153.595C153.531 89.7525 153.507 89.4805 153.507 89.2325V87.4405C153.507 86.4485 153.075 85.9845 151.955 85.9845C151.019 85.9845 150.403 86.3685 150.259 87.0885L150.835 87.1525C150.963 86.6485 151.299 86.4725 151.939 86.4725C152.603 86.4725 152.859 86.7045 152.907 87.1365C152.923 87.2325 152.923 87.3685 152.923 87.5045C152.611 87.5125 152.347 87.5125 152.027 87.5525C150.947 87.6805 150.163 88.1045 150.163 88.9605C150.163 89.6805 150.723 90.0485 151.419 90.0485ZM151.603 89.5925C151.075 89.5925 150.811 89.3525 150.811 88.8965C150.811 88.4005 151.251 88.0565 152.107 87.9445C152.355 87.9125 152.643 87.9125 152.923 87.9125V88.7285C152.755 89.1365 152.355 89.5925 151.603 89.5925ZM156.542 90.0565C157.334 90.0565 158.046 89.3605 158.046 88.0245C158.046 86.6005 157.438 85.9845 156.558 85.9845C155.926 85.9845 155.526 86.3685 155.286 86.7525V86.0565H154.694V91.3365H155.31V89.4805C155.55 89.7685 155.966 90.0565 156.542 90.0565ZM156.374 89.6005C155.806 89.6005 155.518 89.2485 155.31 88.9525V87.2885C155.59 86.7365 155.958 86.4965 156.414 86.4965C157.094 86.4965 157.398 86.9845 157.398 88.0405C157.398 89.1765 156.998 89.6005 156.374 89.6005ZM161.963 90.0005L162.731 87.3125L162.811 86.9685L162.907 87.3285L163.707 90.0005H164.235L165.411 86.0565H164.875L164.107 88.7925L164.003 89.1285L163.915 88.7765L163.107 86.0565H162.595L161.843 88.7525L161.747 89.1125L161.659 88.7525L160.875 86.0565H160.243L161.435 90.0005H161.963ZM166.709 85.3605V84.6565H166.029V85.3605H166.709ZM166.685 90.0005V86.0565H166.061V90.0005H166.685ZM169.001 90.0565C169.217 90.0565 169.457 90.0325 169.673 89.9925V89.5045C169.529 89.5285 169.297 89.5525 169.113 89.5525C168.777 89.5445 168.561 89.3605 168.561 88.9445V86.5525H169.449V86.0565H168.561V85.0245H167.993L167.961 86.0565H167.313V86.5525H167.953V88.9125C167.953 89.7285 168.337 90.0565 169.001 90.0565ZM170.982 90.0005V87.3045C171.31 86.8325 171.702 86.5045 172.254 86.5045C172.654 86.5045 172.894 86.7285 172.894 87.2085V90.0005H173.518V87.1605C173.518 86.5125 173.23 85.9845 172.43 85.9845C171.694 85.9845 171.214 86.4245 170.958 86.8325V84.6645H170.358V90.0005H170.982ZM177.185 90.0005V84.6645H176.561V90.0005H177.185ZM179.861 90.0645C180.837 90.0645 181.645 89.2565 181.645 88.0165C181.645 86.8005 180.941 85.9845 179.861 85.9845C178.893 85.9845 178.093 86.7765 178.093 88.0085C178.093 89.2565 178.845 90.0645 179.861 90.0645ZM179.853 89.6005C179.189 89.6005 178.749 89.0085 178.749 88.0165C178.749 87.0005 179.229 86.4725 179.853 86.4725C180.509 86.4725 180.989 86.9845 180.989 88.0085C180.989 89.0725 180.501 89.6005 179.853 89.6005ZM183.93 90.0645C184.714 90.0645 185.298 89.6085 185.434 88.7205L184.89 88.6645C184.77 89.3205 184.466 89.6005 183.946 89.6005C183.354 89.6005 182.89 89.1125 182.89 88.0245C182.89 87.0405 183.274 86.4805 183.906 86.4805C184.45 86.4805 184.762 86.8325 184.858 87.4805L185.442 87.4085C185.266 86.4405 184.738 85.9845 183.898 85.9845C182.898 85.9845 182.234 86.8645 182.234 88.0085C182.234 89.3285 182.962 90.0645 183.93 90.0645ZM187.208 90.0485C187.944 90.0485 188.408 89.7685 188.72 89.3365C188.712 89.5365 188.744 89.8645 188.792 90.0005H189.384C189.32 89.7525 189.296 89.4805 189.296 89.2325V87.4405C189.296 86.4485 188.864 85.9845 187.744 85.9845C186.808 85.9845 186.192 86.3685 186.048 87.0885L186.624 87.1525C186.752 86.6485 187.088 86.4725 187.728 86.4725C188.392 86.4725 188.648 86.7045 188.696 87.1365C188.712 87.2325 188.712 87.3685 188.712 87.5045C188.4 87.5125 188.136 87.5125 187.816 87.5525C186.736 87.6805 185.952 88.1045 185.952 88.9605C185.952 89.6805 186.512 90.0485 187.208 90.0485ZM187.392 89.5925C186.864 89.5925 186.6 89.3525 186.6 88.8965C186.6 88.4005 187.04 88.0565 187.896 87.9445C188.144 87.9125 188.432 87.9125 188.712 87.9125V88.7285C188.544 89.1365 188.144 89.5925 187.392 89.5925ZM191.123 90.0005V84.6645H190.499V90.0005H191.123ZM195.57 90.0645C196.354 90.0645 196.938 89.6085 197.074 88.7205L196.53 88.6645C196.41 89.3205 196.106 89.6005 195.586 89.6005C194.994 89.6005 194.53 89.1125 194.53 88.0245C194.53 87.0405 194.914 86.4805 195.546 86.4805C196.09 86.4805 196.402 86.8325 196.498 87.4805L197.082 87.4085C196.906 86.4405 196.378 85.9845 195.538 85.9845C194.538 85.9845 193.874 86.8645 193.874 88.0085C193.874 89.3285 194.602 90.0645 195.57 90.0645ZM199.369 90.0645C200.345 90.0645 201.153 89.2565 201.153 88.0165C201.153 86.8005 200.449 85.9845 199.369 85.9845C198.401 85.9845 197.601 86.7765 197.601 88.0085C197.601 89.2565 198.353 90.0645 199.369 90.0645ZM199.361 89.6005C198.697 89.6005 198.257 89.0085 198.257 88.0165C198.257 87.0005 198.737 86.4725 199.361 86.4725C200.017 86.4725 200.497 86.9845 200.497 88.0085C200.497 89.0725 200.009 89.6005 199.361 89.6005ZM202.661 90.0005V87.2965C203.021 86.7925 203.349 86.4965 203.805 86.4965C204.189 86.4965 204.389 86.7605 204.389 87.2325V90.0005H204.997V87.3045C205.245 86.9125 205.653 86.5125 206.141 86.5125C206.525 86.5125 206.741 86.7285 206.741 87.2405V90.0005H207.357V87.2005C207.357 86.8805 207.277 86.6245 207.157 86.4405C206.997 86.1445 206.725 85.9925 206.317 85.9925C205.693 85.9925 205.229 86.4405 204.957 86.8725C204.909 86.3125 204.541 85.9845 203.965 85.9845C203.397 85.9845 202.877 86.4565 202.645 86.8485V86.0565H202.045V90.0005H202.661ZM210.378 90.0565C211.17 90.0565 211.882 89.3605 211.882 88.0245C211.882 86.6005 211.274 85.9845 210.394 85.9845C209.762 85.9845 209.362 86.3685 209.122 86.7525V86.0565H208.53V91.3365H209.146V89.4805C209.386 89.7685 209.802 90.0565 210.378 90.0565ZM210.21 89.6005C209.642 89.6005 209.354 89.2485 209.146 88.9525V87.2885C209.426 86.7365 209.794 86.4965 210.25 86.4965C210.93 86.4965 211.234 86.9845 211.234 88.0405C211.234 89.1765 210.834 89.6005 210.21 89.6005ZM214.252 90.0645C215.228 90.0645 216.036 89.2565 216.036 88.0165C216.036 86.8005 215.332 85.9845 214.252 85.9845C213.284 85.9845 212.484 86.7765 212.484 88.0085C212.484 89.2565 213.236 90.0645 214.252 90.0645ZM214.243 89.6005C213.58 89.6005 213.14 89.0085 213.14 88.0165C213.14 87.0005 213.62 86.4725 214.243 86.4725C214.9 86.4725 215.38 86.9845 215.38 88.0085C215.38 89.0725 214.892 89.6005 214.243 89.6005ZM217.552 90.0005V87.2965C217.88 86.8245 218.296 86.5045 218.8 86.5045C219.248 86.5045 219.456 86.7285 219.456 87.2005V90.0005H220.08V87.2085C220.08 86.4005 219.72 85.9845 218.984 85.9845C218.28 85.9845 217.792 86.4485 217.52 86.8405V86.0565H216.928V90.0005H217.552ZM222.776 90.0645C223.56 90.0645 224.168 89.6565 224.44 88.8965L223.896 88.8165C223.672 89.4005 223.264 89.5925 222.832 89.5925C222.064 89.5925 221.616 89.0885 221.6 88.0965H224.512C224.504 88.0085 224.512 87.9205 224.504 87.8325C224.424 86.7365 223.824 85.9845 222.792 85.9845C221.776 85.9845 220.968 86.7605 220.968 88.0965C220.968 89.2725 221.696 90.0645 222.776 90.0645ZM221.624 87.6725C221.672 86.9285 222.16 86.4565 222.792 86.4565C223.424 86.4565 223.816 86.9125 223.88 87.6725H221.624ZM225.997 90.0005V87.2965C226.325 86.8245 226.741 86.5045 227.245 86.5045C227.693 86.5045 227.901 86.7285 227.901 87.2005V90.0005H228.525V87.2085C228.525 86.4005 228.165 85.9845 227.429 85.9845C226.725 85.9845 226.237 86.4485 225.965 86.8405V86.0565H225.373V90.0005H225.997ZM230.813 90.0565C231.029 90.0565 231.269 90.0325 231.485 89.9925V89.5045C231.341 89.5285 231.109 89.5525 230.925 89.5525C230.589 89.5445 230.373 89.3605 230.373 88.9445V86.5525H231.261V86.0565H230.373V85.0245H229.805L229.773 86.0565H229.125V86.5525H229.765V88.9125C229.765 89.7285 230.149 90.0565 230.813 90.0565ZM231.826 84.6645C232.49 85.7285 232.81 86.8165 232.81 88.0005C232.81 89.2325 232.506 90.3045 231.834 91.3365H232.242C233.01 90.2885 233.394 89.1525 233.394 88.0085C233.394 86.8005 233.002 85.6725 232.234 84.6645H231.826Z" fill="#666666"/>
<rect x="126.5" y="49.5" width="119" height="63.001" rx="1.5" stroke="#D4D4D4"/>
<path d="M181.207 49.5L186 44.7071L190.793 49.5H190.707L186.354 45.1464L186 44.7929L185.646 45.1464L181.293 49.5H181.207Z" stroke="#D4D4D4"/>
<path d="M186 45.5L181.5 50H190.5L186 45.5Z" fill="white"/>
<rect x="264.5" y="53.5" width="119" height="63.001" rx="1.5" fill="white"/>
<rect width="104" height="48.001" transform="translate(272 61)" fill="#F0F0F0"/>
<path d="M302.508 83.0005V76.5085H304.56V74.9965H298.536V76.5085H300.612V83.0005H302.508ZM307.38 83.0965C309.24 83.0965 310.488 81.7765 310.488 80.0365C310.488 78.1885 309.264 76.9405 307.416 76.9405C305.652 76.9405 304.356 78.2245 304.356 80.0725C304.356 81.8125 305.604 83.0965 307.38 83.0965ZM307.44 81.8965C306.696 81.8965 306.336 81.3085 306.336 80.0125C306.336 78.7525 306.72 78.1765 307.428 78.1765C308.16 78.1765 308.496 78.7645 308.496 80.0125C308.496 81.3205 308.124 81.8965 307.44 81.8965ZM315.052 83.0845C316.348 83.0845 317.32 81.9925 317.32 80.0125C317.32 77.8765 316.492 76.9405 315.208 76.9405C314.2 76.9405 313.708 77.5165 313.336 78.0445V77.0485H311.572V84.9205H313.432V82.4005C313.84 82.7605 314.272 83.0845 315.052 83.0845ZM314.428 81.9565C313.9 81.9565 313.636 81.6085 313.42 81.3565V78.9925C313.648 78.5245 313.972 78.2365 314.44 78.2365C315.1 78.2365 315.388 78.6805 315.388 80.0965C315.388 81.5725 315.052 81.9565 314.428 81.9565ZM320.803 80.4805V78.9565H317.935V80.4805H320.803ZM324.695 83.1205C326.843 83.1205 327.887 82.1005 327.887 80.6845C327.887 79.0165 326.639 78.5245 325.307 78.2125C324.203 77.9485 323.423 77.8165 323.423 77.1085C323.423 76.6405 323.867 76.3645 324.527 76.3645C325.259 76.3645 325.787 76.6645 326.015 77.3245L327.683 76.8205C327.227 75.5965 326.243 74.8525 324.551 74.8525C322.619 74.8525 321.455 75.8125 321.455 77.1685C321.455 78.9325 322.871 79.3525 324.107 79.6525C325.079 79.8925 325.955 80.0605 325.955 80.7925C325.955 81.3205 325.451 81.6445 324.659 81.6445C323.567 81.6445 323.051 81.1765 322.727 80.3965L321.167 80.9965C321.635 82.2085 322.571 83.1205 324.695 83.1205ZM331.268 83.0845C331.64 83.0845 332.06 83.0485 332.348 83.0125V81.6805C332.096 81.7045 331.868 81.7045 331.64 81.6805C331.196 81.6205 331.004 81.3565 331.004 80.8885V78.3085H332.228V77.0485H331.004V75.2245H329.324L329.204 77.0485H328.244V78.3085H329.192V81.1885C329.192 82.4485 329.912 83.0845 331.268 83.0845ZM334.832 83.0725C335.888 83.0725 336.512 82.7605 337.028 82.2325C337.028 82.5685 337.052 82.8805 337.124 83.0005H338.9C338.792 82.7725 338.768 82.1845 338.768 81.8365V79.0885C338.768 77.8045 338.192 76.9405 336.188 76.9405C334.436 76.9405 333.44 77.5525 333.152 78.7405L334.856 78.8965C334.976 78.3925 335.312 78.1525 336.008 78.1525C336.656 78.1525 336.932 78.4405 336.968 78.9085C336.968 78.9565 336.98 79.1365 336.98 79.1965C336.728 79.2085 336.488 79.2325 336.26 79.2565C334.184 79.4605 332.996 80.1205 332.996 81.4405C332.996 82.4485 333.728 83.0725 334.832 83.0725ZM335.672 81.9205C335.204 81.9205 334.916 81.7165 334.916 81.2725C334.916 80.7085 335.432 80.3605 336.344 80.2045C336.536 80.1685 336.752 80.1445 336.98 80.1325V81.1765C336.728 81.5605 336.284 81.9205 335.672 81.9205ZM342.073 83.0005V79.4365C342.409 78.8005 343.009 78.4405 343.717 78.4405C343.873 78.4405 344.137 78.4525 344.257 78.4765V76.9765C344.161 76.9525 344.005 76.9405 343.825 76.9405C342.949 76.9405 342.241 77.5885 341.965 78.2965V77.0485H340.189V83.0005H342.073ZM347.592 83.0845C347.964 83.0845 348.384 83.0485 348.672 83.0125V81.6805C348.42 81.7045 348.192 81.7045 347.964 81.6805C347.52 81.6205 347.328 81.3565 347.328 80.8885V78.3085H348.552V77.0485H347.328V75.2245H345.648L345.528 77.0485H344.568V78.3085H345.516V81.1885C345.516 82.4485 346.236 83.0845 347.592 83.0845Z" fill="#111111"/>
<path d="M277.464 88.6645C276.696 89.7125 276.312 90.8485 276.312 91.9925C276.312 93.1925 276.704 94.3285 277.472 95.3365H277.88C277.224 94.2725 276.896 93.1845 276.896 92.0005C276.896 90.7685 277.208 89.6965 277.872 88.6645H277.464ZM280.437 94.0885C281.653 94.0885 282.373 93.4965 282.373 92.5525C282.373 91.6565 281.765 91.2805 280.645 90.9845C279.549 90.6965 279.157 90.4965 279.157 89.9045C279.157 89.4485 279.597 89.1125 280.269 89.1125C280.941 89.1125 281.453 89.4645 281.613 90.0645L282.229 89.8725C281.973 89.0405 281.277 88.5605 280.277 88.5605C279.245 88.5605 278.493 89.1125 278.493 89.9765C278.493 90.9205 279.237 91.2725 280.221 91.5205C281.101 91.7525 281.717 91.9445 281.717 92.6085C281.717 93.2165 281.229 93.5445 280.445 93.5445C279.509 93.5445 279.053 93.1605 278.805 92.5125L278.237 92.7365C278.589 93.6245 279.277 94.0885 280.437 94.0885ZM284.448 94.0005L285.216 91.3125L285.296 90.9685L285.392 91.3285L286.192 94.0005H286.72L287.896 90.0565H287.36L286.592 92.7925L286.488 93.1285L286.4 92.7765L285.592 90.0565H285.08L284.328 92.7525L284.232 93.1125L284.144 92.7525L283.36 90.0565H282.728L283.92 94.0005H284.448ZM289.419 94.0485C290.155 94.0485 290.619 93.7685 290.931 93.3365C290.923 93.5365 290.955 93.8645 291.003 94.0005H291.595C291.531 93.7525 291.507 93.4805 291.507 93.2325V91.4405C291.507 90.4485 291.075 89.9845 289.955 89.9845C289.019 89.9845 288.403 90.3685 288.259 91.0885L288.835 91.1525C288.963 90.6485 289.299 90.4725 289.939 90.4725C290.603 90.4725 290.859 90.7045 290.907 91.1365C290.923 91.2325 290.923 91.3685 290.923 91.5045C290.611 91.5125 290.347 91.5125 290.027 91.5525C288.947 91.6805 288.163 92.1045 288.163 92.9605C288.163 93.6805 288.723 94.0485 289.419 94.0485ZM289.603 93.5925C289.075 93.5925 288.811 93.3525 288.811 92.8965C288.811 92.4005 289.251 92.0565 290.107 91.9445C290.355 91.9125 290.643 91.9125 290.923 91.9125V92.7285C290.755 93.1365 290.355 93.5925 289.603 93.5925ZM294.542 94.0565C295.334 94.0565 296.046 93.3605 296.046 92.0245C296.046 90.6005 295.438 89.9845 294.558 89.9845C293.926 89.9845 293.526 90.3685 293.286 90.7525V90.0565H292.694V95.3365H293.31V93.4805C293.55 93.7685 293.966 94.0565 294.542 94.0565ZM294.374 93.6005C293.806 93.6005 293.518 93.2485 293.31 92.9525V91.2885C293.59 90.7365 293.958 90.4965 294.414 90.4965C295.094 90.4965 295.398 90.9845 295.398 92.0405C295.398 93.1765 294.998 93.6005 294.374 93.6005ZM299.963 94.0005L300.731 91.3125L300.811 90.9685L300.907 91.3285L301.707 94.0005H302.235L303.411 90.0565H302.875L302.107 92.7925L302.003 93.1285L301.915 92.7765L301.107 90.0565H300.595L299.843 92.7525L299.747 93.1125L299.659 92.7525L298.875 90.0565H298.243L299.435 94.0005H299.963ZM304.709 89.3605V88.6565H304.029V89.3605H304.709ZM304.685 94.0005V90.0565H304.061V94.0005H304.685ZM307.001 94.0565C307.217 94.0565 307.457 94.0325 307.673 93.9925V93.5045C307.529 93.5285 307.297 93.5525 307.113 93.5525C306.777 93.5445 306.561 93.3605 306.561 92.9445V90.5525H307.449V90.0565H306.561V89.0245H305.993L305.961 90.0565H305.313V90.5525H305.953V92.9125C305.953 93.7285 306.337 94.0565 307.001 94.0565ZM308.982 94.0005V91.3045C309.31 90.8325 309.702 90.5045 310.254 90.5045C310.654 90.5045 310.894 90.7285 310.894 91.2085V94.0005H311.518V91.1605C311.518 90.5125 311.23 89.9845 310.43 89.9845C309.694 89.9845 309.214 90.4245 308.958 90.8325V88.6645H308.358V94.0005H308.982ZM315.185 94.0005V88.6645H314.561V94.0005H315.185ZM317.861 94.0645C318.837 94.0645 319.645 93.2565 319.645 92.0165C319.645 90.8005 318.941 89.9845 317.861 89.9845C316.893 89.9845 316.093 90.7765 316.093 92.0085C316.093 93.2565 316.845 94.0645 317.861 94.0645ZM317.853 93.6005C317.189 93.6005 316.749 93.0085 316.749 92.0165C316.749 91.0005 317.229 90.4725 317.853 90.4725C318.509 90.4725 318.989 90.9845 318.989 92.0085C318.989 93.0725 318.501 93.6005 317.853 93.6005ZM321.93 94.0645C322.714 94.0645 323.298 93.6085 323.434 92.7205L322.89 92.6645C322.77 93.3205 322.466 93.6005 321.946 93.6005C321.354 93.6005 320.89 93.1125 320.89 92.0245C320.89 91.0405 321.274 90.4805 321.906 90.4805C322.45 90.4805 322.762 90.8325 322.858 91.4805L323.442 91.4085C323.266 90.4405 322.738 89.9845 321.898 89.9845C320.898 89.9845 320.234 90.8645 320.234 92.0085C320.234 93.3285 320.962 94.0645 321.93 94.0645ZM325.208 94.0485C325.944 94.0485 326.408 93.7685 326.72 93.3365C326.712 93.5365 326.744 93.8645 326.792 94.0005H327.384C327.32 93.7525 327.296 93.4805 327.296 93.2325V91.4405C327.296 90.4485 326.864 89.9845 325.744 89.9845C324.808 89.9845 324.192 90.3685 324.048 91.0885L324.624 91.1525C324.752 90.6485 325.088 90.4725 325.728 90.4725C326.392 90.4725 326.648 90.7045 326.696 91.1365C326.712 91.2325 326.712 91.3685 326.712 91.5045C326.4 91.5125 326.136 91.5125 325.816 91.5525C324.736 91.6805 323.952 92.1045 323.952 92.9605C323.952 93.6805 324.512 94.0485 325.208 94.0485ZM325.392 93.5925C324.864 93.5925 324.6 93.3525 324.6 92.8965C324.6 92.4005 325.04 92.0565 325.896 91.9445C326.144 91.9125 326.432 91.9125 326.712 91.9125V92.7285C326.544 93.1365 326.144 93.5925 325.392 93.5925ZM329.123 94.0005V88.6645H328.499V94.0005H329.123ZM333.57 94.0645C334.354 94.0645 334.938 93.6085 335.074 92.7205L334.53 92.6645C334.41 93.3205 334.106 93.6005 333.586 93.6005C332.994 93.6005 332.53 93.1125 332.53 92.0245C332.53 91.0405 332.914 90.4805 333.546 90.4805C334.09 90.4805 334.402 90.8325 334.498 91.4805L335.082 91.4085C334.906 90.4405 334.378 89.9845 333.538 89.9845C332.538 89.9845 331.874 90.8645 331.874 92.0085C331.874 93.3285 332.602 94.0645 333.57 94.0645ZM337.369 94.0645C338.345 94.0645 339.153 93.2565 339.153 92.0165C339.153 90.8005 338.449 89.9845 337.369 89.9845C336.401 89.9845 335.601 90.7765 335.601 92.0085C335.601 93.2565 336.353 94.0645 337.369 94.0645ZM337.361 93.6005C336.697 93.6005 336.257 93.0085 336.257 92.0165C336.257 91.0005 336.737 90.4725 337.361 90.4725C338.017 90.4725 338.497 90.9845 338.497 92.0085C338.497 93.0725 338.009 93.6005 337.361 93.6005ZM340.661 94.0005V91.2965C341.021 90.7925 341.349 90.4965 341.805 90.4965C342.189 90.4965 342.389 90.7605 342.389 91.2325V94.0005H342.997V91.3045C343.245 90.9125 343.653 90.5125 344.141 90.5125C344.525 90.5125 344.741 90.7285 344.741 91.2405V94.0005H345.357V91.2005C345.357 90.8805 345.277 90.6245 345.157 90.4405C344.997 90.1445 344.725 89.9925 344.317 89.9925C343.693 89.9925 343.229 90.4405 342.957 90.8725C342.909 90.3125 342.541 89.9845 341.965 89.9845C341.397 89.9845 340.877 90.4565 340.645 90.8485V90.0565H340.045V94.0005H340.661ZM348.378 94.0565C349.17 94.0565 349.882 93.3605 349.882 92.0245C349.882 90.6005 349.274 89.9845 348.394 89.9845C347.762 89.9845 347.362 90.3685 347.122 90.7525V90.0565H346.53V95.3365H347.146V93.4805C347.386 93.7685 347.802 94.0565 348.378 94.0565ZM348.21 93.6005C347.642 93.6005 347.354 93.2485 347.146 92.9525V91.2885C347.426 90.7365 347.794 90.4965 348.25 90.4965C348.93 90.4965 349.234 90.9845 349.234 92.0405C349.234 93.1765 348.834 93.6005 348.21 93.6005ZM352.252 94.0645C353.228 94.0645 354.036 93.2565 354.036 92.0165C354.036 90.8005 353.332 89.9845 352.252 89.9845C351.284 89.9845 350.484 90.7765 350.484 92.0085C350.484 93.2565 351.236 94.0645 352.252 94.0645ZM352.243 93.6005C351.58 93.6005 351.14 93.0085 351.14 92.0165C351.14 91.0005 351.62 90.4725 352.243 90.4725C352.9 90.4725 353.38 90.9845 353.38 92.0085C353.38 93.0725 352.892 93.6005 352.243 93.6005ZM355.552 94.0005V91.2965C355.88 90.8245 356.296 90.5045 356.8 90.5045C357.248 90.5045 357.456 90.7285 357.456 91.2005V94.0005H358.08V91.2085C358.08 90.4005 357.72 89.9845 356.984 89.9845C356.28 89.9845 355.792 90.4485 355.52 90.8405V90.0565H354.928V94.0005H355.552ZM360.776 94.0645C361.56 94.0645 362.168 93.6565 362.44 92.8965L361.896 92.8165C361.672 93.4005 361.264 93.5925 360.832 93.5925C360.064 93.5925 359.616 93.0885 359.6 92.0965H362.512C362.504 92.0085 362.512 91.9205 362.504 91.8325C362.424 90.7365 361.824 89.9845 360.792 89.9845C359.776 89.9845 358.968 90.7605 358.968 92.0965C358.968 93.2725 359.696 94.0645 360.776 94.0645ZM359.624 91.6725C359.672 90.9285 360.16 90.4565 360.792 90.4565C361.424 90.4565 361.816 90.9125 361.88 91.6725H359.624ZM363.997 94.0005V91.2965C364.325 90.8245 364.741 90.5045 365.245 90.5045C365.693 90.5045 365.901 90.7285 365.901 91.2005V94.0005H366.525V91.2085C366.525 90.4005 366.165 89.9845 365.429 89.9845C364.725 89.9845 364.237 90.4485 363.965 90.8405V90.0565H363.373V94.0005H363.997ZM368.813 94.0565C369.029 94.0565 369.269 94.0325 369.485 93.9925V93.5045C369.341 93.5285 369.109 93.5525 368.925 93.5525C368.589 93.5445 368.373 93.3605 368.373 92.9445V90.5525H369.261V90.0565H368.373V89.0245H367.805L367.773 90.0565H367.125V90.5525H367.765V92.9125C367.765 93.7285 368.149 94.0565 368.813 94.0565ZM369.826 88.6645C370.49 89.7285 370.81 90.8165 370.81 92.0005C370.81 93.2325 370.506 94.3045 369.834 95.3365H370.242C371.01 94.2885 371.394 93.1525 371.394 92.0085C371.394 90.8005 371.002 89.6725 370.234 88.6645H369.826Z" fill="#666666"/>
<rect x="264.5" y="53.5" width="119" height="63.001" rx="1.5" stroke="#D4D4D4"/>
<path d="M319.207 53.5L324 48.7071L328.793 53.5H328.707L324.354 49.1464L324 48.7929L323.646 49.1464L319.293 53.5H319.207Z" stroke="#D4D4D4"/>
<path d="M324 49.5L319.5 54H328.5L324 49.5Z" fill="white"/>
<rect x="166" width="40" height="40" rx="20" fill="#494949"/>
<g clip-path="url(#clip0_2185_22431)">
<path d="M192 19.5H186.5V14H185.5V19.5H180V20.5H185.5V26H186.5V20.5H192V19.5Z" fill="white"/>
</g>
<rect x="304" width="40" height="40" rx="20" fill="#494949"/>
<g clip-path="url(#clip1_2185_22431)">
<path d="M330 19.5H324.5V14H323.5V19.5H318V20.5H323.5V26H324.5V20.5H330V19.5Z" fill="white"/>
</g>
<line x1="332" y1="44.5" x2="396" y2="44.5" stroke="#94538C" stroke-dasharray="2 2"/>
<path d="M404.597 51.128C406.549 51.128 408.165 49.512 408.165 47.032C408.165 44.6 406.757 42.968 404.597 42.968C402.661 42.968 401.061 44.552 401.061 47.016C401.061 49.512 402.565 51.128 404.597 51.128ZM404.581 50.2C403.253 50.2 402.373 49.016 402.373 47.032C402.373 45 403.333 43.944 404.581 43.944C405.893 43.944 406.853 44.968 406.853 47.016C406.853 49.144 405.877 50.2 404.581 50.2ZM415.55 44.056H417.47V43.112H415.55C415.55 43.064 415.55 42.712 415.55 42.344C415.55 41.464 415.934 41.016 416.894 41.016C417.102 41.016 417.598 41.048 417.934 41.096V40.104C417.63 40.056 417.102 40.008 416.798 40.008C415.15 40.008 414.318 40.76 414.318 42.312C414.318 42.424 414.318 43 414.318 43.112H411.326C411.326 43.064 411.326 42.712 411.326 42.344C411.326 41.464 411.71 41.016 412.654 41.016C412.878 41.016 413.358 41.048 413.71 41.096V40.104C413.406 40.056 412.878 40.008 412.574 40.008C410.91 40.008 410.078 40.76 410.078 42.312C410.078 42.424 410.078 43 410.078 43.112H408.686V44.056H410.078V51H411.326V44.056H414.318V51H415.55V44.056ZM421.102 51.128C423.022 51.128 424.27 50.152 424.27 48.696C424.27 47.128 422.894 46.68 421.278 46.36C420.014 46.088 419.07 45.928 419.07 45.064C419.07 44.344 419.79 43.912 420.846 43.912C421.918 43.912 422.638 44.392 422.942 45.224L424.046 44.984C423.646 43.752 422.622 42.968 420.846 42.968C419.086 42.968 417.918 43.848 417.918 45.144C417.918 46.696 419.278 47.112 420.894 47.416C422.062 47.672 423.118 47.864 423.118 48.808C423.118 49.64 422.35 50.2 421.102 50.2C419.742 50.2 418.862 49.576 418.606 48.648L417.486 48.872C417.87 50.312 419.102 51.128 421.102 51.128ZM428.974 51.128C430.542 51.128 431.758 50.312 432.302 48.792L431.214 48.632C430.766 49.8 429.95 50.184 429.086 50.184C427.55 50.184 426.654 49.176 426.622 47.192H432.446C432.43 47.016 432.446 46.84 432.43 46.664C432.27 44.472 431.07 42.968 429.006 42.968C426.974 42.968 425.358 44.52 425.358 47.192C425.358 49.544 426.814 51.128 428.974 51.128ZM426.67 46.344C426.766 44.856 427.742 43.912 429.006 43.912C430.27 43.912 431.054 44.824 431.182 46.344H426.67ZM436.377 51.112C436.809 51.112 437.289 51.064 437.721 50.984V50.008C437.433 50.056 436.969 50.104 436.601 50.104C435.929 50.088 435.497 49.72 435.497 48.888V44.104H437.273V43.112H435.497V41.048H434.361L434.297 43.112H433.001V44.104H434.281V48.824C434.281 50.456 435.049 51.112 436.377 51.112ZM440.739 44.856V43.112H438.995V44.856H440.739ZM440.739 51V49.24H438.995V51H440.739ZM450.251 51.192C452.699 51.192 454.235 49.032 454.235 45.72C454.235 42.296 452.699 40.136 450.235 40.136C447.675 40.136 446.187 42.28 446.187 45.672C446.187 49.016 447.691 51.192 450.251 51.192ZM450.251 50.152C448.539 50.152 447.531 48.488 447.531 45.672C447.531 42.728 448.395 41.208 450.235 41.208C451.963 41.208 452.891 42.872 452.891 45.688C452.891 48.584 451.915 50.152 450.251 50.152ZM459.499 51.192C461.515 51.192 463.371 49.816 463.371 47.416C463.371 45.288 462.011 43.784 459.787 43.784C458.603 43.784 457.547 44.44 457.099 45.064L457.339 41.48H462.555L462.667 40.328H456.347L455.995 46.104L457.051 46.344C457.595 45.48 458.347 44.824 459.611 44.824C461.243 44.824 462.091 46.024 462.091 47.432C462.091 49.08 461.019 50.152 459.451 50.152C458.027 50.152 457.099 49.544 456.603 48.28L455.531 48.664C456.075 50.264 457.531 51.192 459.499 51.192ZM468.907 51.192C471.355 51.192 472.891 49.032 472.891 45.72C472.891 42.296 471.355 40.136 468.891 40.136C466.331 40.136 464.843 42.28 464.843 45.672C464.843 49.016 466.347 51.192 468.907 51.192ZM468.907 50.152C467.195 50.152 466.187 48.488 466.187 45.672C466.187 42.728 467.051 41.208 468.891 41.208C470.619 41.208 471.547 42.872 471.547 45.688C471.547 48.584 470.571 50.152 468.907 50.152Z" fill="#94538C"/>
<path d="M4.15925 50.128C6.11125 50.128 7.72725 48.512 7.72725 46.032C7.72725 43.6 6.31925 41.968 4.15925 41.968C2.22325 41.968 0.62325 43.552 0.62325 46.016C0.62325 48.512 2.12725 50.128 4.15925 50.128ZM4.14325 49.2C2.81525 49.2 1.93525 48.016 1.93525 46.032C1.93525 44 2.89525 42.944 4.14325 42.944C5.45525 42.944 6.41525 43.968 6.41525 46.016C6.41525 48.144 5.43925 49.2 4.14325 49.2ZM15.1125 43.056H17.0325V42.112H15.1125C15.1125 42.064 15.1125 41.712 15.1125 41.344C15.1125 40.464 15.4965 40.016 16.4565 40.016C16.6645 40.016 17.1605 40.048 17.4965 40.096V39.104C17.1925 39.056 16.6645 39.008 16.3605 39.008C14.7125 39.008 13.8805 39.76 13.8805 41.312C13.8805 41.424 13.8805 42 13.8805 42.112H10.8885C10.8885 42.064 10.8885 41.712 10.8885 41.344C10.8885 40.464 11.2725 40.016 12.2165 40.016C12.4405 40.016 12.9205 40.048 13.2725 40.096V39.104C12.9685 39.056 12.4405 39.008 12.1365 39.008C10.4725 39.008 9.6405 39.76 9.6405 41.312C9.6405 41.424 9.6405 42 9.6405 42.112H8.2485V43.056H9.6405V50H10.8885V43.056H13.8805V50H15.1125V43.056ZM20.6648 50.128C22.5848 50.128 23.8328 49.152 23.8328 47.696C23.8328 46.128 22.4568 45.68 20.8408 45.36C19.5768 45.088 18.6328 44.928 18.6328 44.064C18.6328 43.344 19.3528 42.912 20.4088 42.912C21.4808 42.912 22.2008 43.392 22.5048 44.224L23.6088 43.984C23.2088 42.752 22.1848 41.968 20.4088 41.968C18.6488 41.968 17.4808 42.848 17.4808 44.144C17.4808 45.696 18.8408 46.112 20.4568 46.416C21.6248 46.672 22.6808 46.864 22.6808 47.808C22.6808 48.64 21.9128 49.2 20.6648 49.2C19.3048 49.2 18.4248 48.576 18.1688 47.648L17.0488 47.872C17.4328 49.312 18.6648 50.128 20.6648 50.128ZM28.5365 50.128C30.1045 50.128 31.3205 49.312 31.8645 47.792L30.7765 47.632C30.3285 48.8 29.5125 49.184 28.6485 49.184C27.1125 49.184 26.2165 48.176 26.1845 46.192H32.0085C31.9925 46.016 32.0085 45.84 31.9925 45.664C31.8325 43.472 30.6325 41.968 28.5685 41.968C26.5365 41.968 24.9205 43.52 24.9205 46.192C24.9205 48.544 26.3765 50.128 28.5365 50.128ZM26.2325 45.344C26.3285 43.856 27.3045 42.912 28.5685 42.912C29.8325 42.912 30.6165 43.824 30.7445 45.344H26.2325ZM35.9393 50.112C36.3713 50.112 36.8513 50.064 37.2833 49.984V49.008C36.9953 49.056 36.5312 49.104 36.1633 49.104C35.4913 49.088 35.0593 48.72 35.0593 47.888V43.104H36.8353V42.112H35.0593V40.048H33.9233L33.8593 42.112H32.5633V43.104H33.8433V47.824C33.8433 49.456 34.6113 50.112 35.9393 50.112ZM40.3011 43.856V42.112H38.5571V43.856H40.3011ZM40.3011 50V48.24H38.5571V50H40.3011ZM48.7254 50.128C49.8774 50.128 50.6774 49.664 51.3014 48.8V50H52.4694V39.328H51.2694V43.184C50.9014 42.656 50.1494 41.968 48.9494 41.968C46.9334 41.968 45.7174 43.744 45.7174 46.08C45.7174 48.656 46.8214 50.128 48.7254 50.128ZM49.0614 49.184C47.7494 49.184 47.0134 48.272 47.0134 46.08C47.0134 44.064 47.7174 42.944 49.1414 42.944C50.3094 42.944 50.8534 43.616 51.2534 44.368V47.584C50.9174 48.464 50.2454 49.184 49.0614 49.184ZM57.9271 50.128C59.4951 50.128 60.7111 49.312 61.2551 47.792L60.1671 47.632C59.7191 48.8 58.9031 49.184 58.0391 49.184C56.5031 49.184 55.6071 48.176 55.5751 46.192H61.3991C61.3831 46.016 61.3991 45.84 61.3831 45.664C61.2231 43.472 60.0231 41.968 57.9591 41.968C55.9271 41.968 54.3111 43.52 54.3111 46.192C54.3111 48.544 55.7671 50.128 57.9271 50.128ZM55.6231 45.344C55.7191 43.856 56.6951 42.912 57.9591 42.912C59.2231 42.912 60.0071 43.824 60.1351 45.344H55.6231ZM64.4819 50V43.056H66.4019V42.112H64.4819C64.4819 42.064 64.4819 41.728 64.4819 41.36C64.4819 40.48 64.8659 40.032 65.8259 40.032C66.0339 40.032 66.5299 40.064 66.8659 40.112V39.12C66.5619 39.072 66.0339 39.024 65.7299 39.024C64.0819 39.024 63.2499 39.776 63.2499 41.328C63.2499 41.44 63.2499 42 63.2499 42.112H61.8579V43.056H63.2499V50H64.4819ZM69.4161 50.096C70.8881 50.096 71.8161 49.536 72.4401 48.672C72.4241 49.072 72.4881 49.728 72.5841 50H73.7681C73.6401 49.504 73.5921 48.96 73.5921 48.464V44.88C73.5921 42.896 72.7281 41.968 70.4881 41.968C68.6161 41.968 67.3841 42.736 67.0961 44.176L68.2481 44.304C68.5041 43.296 69.1761 42.944 70.4561 42.944C71.7841 42.944 72.2961 43.408 72.3921 44.272C72.4241 44.464 72.4241 44.736 72.4241 45.008C71.8001 45.024 71.2721 45.024 70.6321 45.104C68.4721 45.36 66.9041 46.208 66.9041 47.92C66.9041 49.36 68.0241 50.096 69.4161 50.096ZM69.7841 49.184C68.7281 49.184 68.2001 48.704 68.2001 47.792C68.2001 46.8 69.0801 46.112 70.7921 45.888C71.2881 45.824 71.8641 45.824 72.4241 45.824V47.456C72.0881 48.272 71.2881 49.184 69.7841 49.184ZM78.3656 50.128C79.4216 50.128 80.3816 49.664 81.0056 48.656V50H82.1576V42.112H80.9256V47.712C80.3976 48.672 79.6296 49.184 78.7496 49.184C77.6456 49.184 77.1816 48.688 77.1816 47.44V42.112H75.9336V47.408C75.9336 49.392 76.9416 50.128 78.3656 50.128ZM85.8238 50V39.328H84.5758V50H85.8238ZM90.4549 50.112C90.8869 50.112 91.3669 50.064 91.7989 49.984V49.008C91.5109 49.056 91.0469 49.104 90.6789 49.104C90.0069 49.088 89.5749 48.72 89.5749 47.888V43.104H91.3509V42.112H89.5749V40.048H88.4389L88.3749 42.112H87.0789V43.104H88.3589V47.824C88.3589 49.456 89.1269 50.112 90.4549 50.112Z" fill="#94538C"/>
<line x1="96" y1="43.5" x2="180" y2="43.5" stroke="#94538C" stroke-dasharray="2 2"/>
<g filter="url(#filter0_d_2185_22431)" fill="white">
<path d="M194.27 30.28C193.99 29.92 193.64 29.19 193.03 28.28C192.68 27.78 191.82 26.83 191.56 26.34C191.373 26.0423 191.318 25.6797 191.41 25.34C191.567 24.6943 192.18 24.2659 192.84 24.34C193.351 24.4427 193.82 24.693 194.19 25.06C194.448 25.3032 194.686 25.5675 194.9 25.85C195.06 26.05 195.1 26.13 195.28 26.36C195.46 26.59 195.58 26.82 195.49 26.48C195.42 25.98 195.3 25.14 195.13 24.39C195 23.82 194.97 23.73 194.85 23.3C194.73 22.87 194.66 22.51 194.53 22.02C194.411 21.5386 194.318 21.0513 194.25 20.56C194.124 19.9318 194.216 19.2793 194.51 18.71C194.859 18.3814 195.372 18.2947 195.81 18.49C196.251 18.8154 196.579 19.2697 196.75 19.79C197.012 20.4304 197.187 21.1031 197.27 21.79C197.43 22.79 197.74 24.25 197.75 24.55C197.75 24.18 197.68 23.4 197.75 23.05C197.819 22.6852 198.073 22.3824 198.42 22.25C198.718 22.1587 199.033 22.1381 199.34 22.19C199.65 22.2549 199.925 22.4332 200.11 22.69C200.342 23.2734 200.47 23.8926 200.49 24.52C200.517 23.9706 200.611 23.4266 200.77 22.9C200.937 22.6646 201.181 22.4948 201.46 22.42C201.791 22.3596 202.129 22.3596 202.46 22.42C202.731 22.5107 202.968 22.6816 203.14 22.91C203.352 23.4404 203.48 24.0004 203.52 24.57C203.52 24.71 203.59 24.18 203.81 23.83C203.924 23.4906 204.211 23.238 204.562 23.1673C204.913 23.0966 205.275 23.2186 205.512 23.4873C205.749 23.756 205.824 24.1306 205.71 24.47C205.71 25.12 205.71 25.09 205.71 25.53C205.71 25.97 205.71 26.36 205.71 26.73C205.674 27.3152 205.593 27.8969 205.47 28.47C205.296 28.9772 205.054 29.4582 204.75 29.9C204.264 30.44 203.863 31.0502 203.56 31.71C203.485 32.0379 203.451 32.3738 203.46 32.71C203.459 33.0207 203.499 33.3301 203.58 33.63C203.171 33.6733 202.759 33.6733 202.35 33.63C201.96 33.57 201.48 32.79 201.35 32.55C201.286 32.4212 201.154 32.3398 201.01 32.3398C200.866 32.3398 200.734 32.4212 200.67 32.55C200.45 32.93 199.96 33.62 199.62 33.66C198.95 33.74 197.57 33.66 196.48 33.66C196.48 33.66 196.66 32.66 196.25 32.3C195.84 31.94 195.42 31.52 195.11 31.24L194.27 30.28Z"/>
<path fill-rule="evenodd" clip-rule="evenodd" d="M194.27 30.28C193.99 29.92 193.64 29.19 193.03 28.28C192.68 27.78 191.82 26.83 191.56 26.34C191.373 26.0423 191.318 25.6797 191.41 25.34C191.567 24.6943 192.18 24.2659 192.84 24.34C193.351 24.4427 193.82 24.693 194.19 25.06C194.448 25.3032 194.686 25.5675 194.9 25.85C195.06 26.05 195.1 26.13 195.28 26.36C195.46 26.59 195.58 26.82 195.49 26.48C195.42 25.98 195.3 25.14 195.13 24.39C195 23.82 194.97 23.73 194.85 23.3C194.73 22.87 194.66 22.51 194.53 22.02C194.411 21.5386 194.318 21.0513 194.25 20.56C194.124 19.9318 194.216 19.2793 194.51 18.71C194.859 18.3814 195.372 18.2947 195.81 18.49C196.251 18.8154 196.579 19.2697 196.75 19.79C197.012 20.4304 197.187 21.1031 197.27 21.79C197.43 22.79 197.74 24.25 197.75 24.55C197.75 24.18 197.68 23.4 197.75 23.05C197.819 22.6852 198.073 22.3824 198.42 22.25C198.718 22.1587 199.033 22.1381 199.34 22.19C199.65 22.2549 199.925 22.4332 200.11 22.69C200.342 23.2734 200.47 23.8926 200.49 24.52C200.517 23.9706 200.611 23.4266 200.77 22.9C200.937 22.6646 201.181 22.4948 201.46 22.42C201.791 22.3596 202.129 22.3596 202.46 22.42C202.731 22.5107 202.968 22.6816 203.14 22.91C203.352 23.4404 203.48 24.0004 203.52 24.57C203.52 24.71 203.59 24.18 203.81 23.83C203.924 23.4906 204.211 23.238 204.562 23.1673C204.913 23.0966 205.275 23.2186 205.512 23.4873C205.749 23.756 205.824 24.1306 205.71 24.47C205.71 25.12 205.71 25.09 205.71 25.53C205.71 25.97 205.71 26.36 205.71 26.73C205.674 27.3152 205.593 27.8969 205.47 28.47C205.296 28.9772 205.054 29.4582 204.75 29.9C204.264 30.44 203.863 31.0502 203.56 31.71C203.485 32.0379 203.451 32.3738 203.46 32.71C203.459 33.0207 203.499 33.3301 203.58 33.63C203.171 33.6733 202.759 33.6733 202.35 33.63C201.96 33.57 201.48 32.79 201.35 32.55C201.286 32.4212 201.154 32.3398 201.01 32.3398C200.866 32.3398 200.734 32.4212 200.67 32.55C200.45 32.93 199.96 33.62 199.62 33.66C198.95 33.74 197.57 33.66 196.48 33.66C196.48 33.66 196.66 32.66 196.25 32.3C195.84 31.94 195.42 31.52 195.11 31.24L194.27 30.28Z" stroke="black" stroke-width="0.75" stroke-linecap="round" stroke-linejoin="round"/>
<path d="M202.75 30.8259V27.3741C202.75 27.1675 202.582 27 202.375 27C202.168 27 202 27.1675 202 27.3741V30.8259C202 31.0325 202.168 31.2 202.375 31.2C202.582 31.2 202.75 31.0325 202.75 30.8259Z" fill="#000001"/>
<path d="M200.77 30.8246L200.75 27.3711C200.749 27.1649 200.58 26.9988 200.373 27C200.166 27.0012 199.999 27.1693 200 27.3754L200.02 30.8289C200.021 31.035 200.19 31.2012 200.397 31.2C200.604 31.1988 200.771 31.0307 200.77 30.8246Z" fill="#000001"/>
<path d="M198 27.379L198.02 30.8254C198.021 31.0335 198.19 31.2012 198.397 31.2C198.604 31.1988 198.771 31.0291 198.77 30.821L198.75 27.3746C198.749 27.1665 198.58 26.9988 198.373 27C198.166 27.0012 197.999 27.1709 198 27.379Z" fill="#000001" />
</g>
<g filter="url(#filter1_d_2185_22431)" fill="white">
<path d="M333.27 30.28C332.99 29.92 332.64 29.19 332.03 28.28C331.68 27.78 330.82 26.83 330.56 26.34C330.373 26.0423 330.318 25.6797 330.41 25.34C330.567 24.6943 331.18 24.2659 331.84 24.34C332.351 24.4427 332.82 24.693 333.19 25.06C333.448 25.3032 333.686 25.5675 333.9 25.85C334.06 26.05 334.1 26.13 334.28 26.36C334.46 26.59 334.58 26.82 334.49 26.48C334.42 25.98 334.3 25.14 334.13 24.39C334 23.82 333.97 23.73 333.85 23.3C333.73 22.87 333.66 22.51 333.53 22.02C333.411 21.5386 333.318 21.0513 333.25 20.56C333.124 19.9318 333.216 19.2793 333.51 18.71C333.859 18.3814 334.372 18.2947 334.81 18.49C335.251 18.8154 335.579 19.2697 335.75 19.79C336.012 20.4304 336.187 21.1031 336.27 21.79C336.43 22.79 336.74 24.25 336.75 24.55C336.75 24.18 336.68 23.4 336.75 23.05C336.819 22.6852 337.073 22.3824 337.42 22.25C337.718 22.1587 338.033 22.1381 338.34 22.19C338.65 22.2549 338.925 22.4332 339.11 22.69C339.342 23.2734 339.47 23.8926 339.49 24.52C339.517 23.9706 339.611 23.4266 339.77 22.9C339.937 22.6646 340.181 22.4948 340.46 22.42C340.791 22.3596 341.129 22.3596 341.46 22.42C341.731 22.5107 341.968 22.6816 342.14 22.91C342.352 23.4404 342.48 24.0004 342.52 24.57C342.52 24.71 342.59 24.18 342.81 23.83C342.924 23.4906 343.211 23.238 343.562 23.1673C343.913 23.0966 344.275 23.2186 344.512 23.4873C344.749 23.756 344.824 24.1306 344.71 24.47C344.71 25.12 344.71 25.09 344.71 25.53C344.71 25.97 344.71 26.36 344.71 26.73C344.674 27.3152 344.593 27.8969 344.47 28.47C344.296 28.9772 344.054 29.4582 343.75 29.9C343.264 30.44 342.863 31.0502 342.56 31.71C342.485 32.0379 342.451 32.3738 342.46 32.71C342.459 33.0207 342.499 33.3301 342.58 33.63C342.171 33.6733 341.759 33.6733 341.35 33.63C340.96 33.57 340.48 32.79 340.35 32.55C340.286 32.4212 340.154 32.3398 340.01 32.3398C339.866 32.3398 339.734 32.4212 339.67 32.55C339.45 32.93 338.96 33.62 338.62 33.66C337.95 33.74 336.57 33.66 335.48 33.66C335.48 33.66 335.66 32.66 335.25 32.3C334.84 31.94 334.42 31.52 334.11 31.24L333.27 30.28Z"/>
<path fill-rule="evenodd" clip-rule="evenodd" d="M333.27 30.28C332.99 29.92 332.64 29.19 332.03 28.28C331.68 27.78 330.82 26.83 330.56 26.34C330.373 26.0423 330.318 25.6797 330.41 25.34C330.567 24.6943 331.18 24.2659 331.84 24.34C332.351 24.4427 332.82 24.693 333.19 25.06C333.448 25.3032 333.686 25.5675 333.9 25.85C334.06 26.05 334.1 26.13 334.28 26.36C334.46 26.59 334.58 26.82 334.49 26.48C334.42 25.98 334.3 25.14 334.13 24.39C334 23.82 333.97 23.73 333.85 23.3C333.73 22.87 333.66 22.51 333.53 22.02C333.411 21.5386 333.318 21.0513 333.25 20.56C333.124 19.9318 333.216 19.2793 333.51 18.71C333.859 18.3814 334.372 18.2947 334.81 18.49C335.251 18.8154 335.579 19.2697 335.75 19.79C336.012 20.4304 336.187 21.1031 336.27 21.79C336.43 22.79 336.74 24.25 336.75 24.55C336.75 24.18 336.68 23.4 336.75 23.05C336.819 22.6852 337.073 22.3824 337.42 22.25C337.718 22.1587 338.033 22.1381 338.34 22.19C338.65 22.2549 338.925 22.4332 339.11 22.69C339.342 23.2734 339.47 23.8926 339.49 24.52C339.517 23.9706 339.611 23.4266 339.77 22.9C339.937 22.6646 340.181 22.4948 340.46 22.42C340.791 22.3596 341.129 22.3596 341.46 22.42C341.731 22.5107 341.968 22.6816 342.14 22.91C342.352 23.4404 342.48 24.0004 342.52 24.57C342.52 24.71 342.59 24.18 342.81 23.83C342.924 23.4906 343.211 23.238 343.562 23.1673C343.913 23.0966 344.275 23.2186 344.512 23.4873C344.749 23.756 344.824 24.1306 344.71 24.47C344.71 25.12 344.71 25.09 344.71 25.53C344.71 25.97 344.71 26.36 344.71 26.73C344.674 27.3152 344.593 27.8969 344.47 28.47C344.296 28.9772 344.054 29.4582 343.75 29.9C343.264 30.44 342.863 31.0502 342.56 31.71C342.485 32.0379 342.451 32.3738 342.46 32.71C342.459 33.0207 342.499 33.3301 342.58 33.63C342.171 33.6733 341.759 33.6733 341.35 33.63C340.96 33.57 340.48 32.79 340.35 32.55C340.286 32.4212 340.154 32.3398 340.01 32.3398C339.866 32.3398 339.734 32.4212 339.67 32.55C339.45 32.93 338.96 33.62 338.62 33.66C337.95 33.74 336.57 33.66 335.48 33.66C335.48 33.66 335.66 32.66 335.25 32.3C334.84 31.94 334.42 31.52 334.11 31.24L333.27 30.28Z" stroke="black" stroke-width="0.75" stroke-linecap="round" stroke-linejoin="round"/>
<path d="M341.75 30.8259V27.3741C341.75 27.1675 341.582 27 341.375 27C341.168 27 341 27.1675 341 27.3741V30.8259C341 31.0325 341.168 31.2 341.375 31.2C341.582 31.2 341.75 31.0325 341.75 30.8259Z" fill="#000001"/>
<path d="M339.77 30.8246L339.75 27.3711C339.749 27.1649 339.58 26.9988 339.373 27C339.166 27.0012 338.999 27.1693 339 27.3754L339.02 30.8289C339.021 31.035 339.19 31.2012 339.397 31.2C339.604 31.1988 339.771 31.0307 339.77 30.8246Z"  fill="#000001"/>
<path d="M337 27.379L337.02 30.8254C337.021 31.0335 337.19 31.2012 337.397 31.2C337.604 31.1988 337.771 31.0291 337.77 30.821L337.75 27.3746C337.749 27.1665 337.58 26.9988 337.373 27C337.166 27.0012 336.999 27.1709 337 27.379Z"  fill="#000001"/>
</g>
<defs>
<filter id="filter0_d_2185_22431" x="190.191" y="18.0118" width="16.7461" height="17.8588" filterUnits="userSpaceOnUse" color-interpolation-filters="sRGB">
<feFlood flood-opacity="0" result="BackgroundImageFix"/>
<feColorMatrix in="SourceAlpha" type="matrix" values="0 0 0 0 0 0 0 0 0 0 0 0 0 0 0 0 0 0 127 0" result="hardAlpha"/>
<feOffset dy="1"/>
<feGaussianBlur stdDeviation="0.4"/>
<feColorMatrix type="matrix" values="0 0 0 0 0 0 0 0 0 0 0 0 0 0 0 0 0 0 0.5 0"/>
<feBlend mode="normal" in2="BackgroundImageFix" result="effect1_dropShadow_2185_22431"/>
<feBlend mode="normal" in="SourceGraphic" in2="effect1_dropShadow_2185_22431" result="shape"/>
</filter>
<filter id="filter1_d_2185_22431" x="329.191" y="18.0118" width="16.7461" height="17.8588" filterUnits="userSpaceOnUse" color-interpolation-filters="sRGB">
<feFlood flood-opacity="0" result="BackgroundImageFix"/>
<feColorMatrix in="SourceAlpha" type="matrix" values="0 0 0 0 0 0 0 0 0 0 0 0 0 0 0 0 0 0 127 0" result="hardAlpha"/>
<feOffset dy="1"/>
<feGaussianBlur stdDeviation="0.4"/>
<feColorMatrix type="matrix" values="0 0 0 0 0 0 0 0 0 0 0 0 0 0 0 0 0 0 0.5 0"/>
<feBlend mode="normal" in2="BackgroundImageFix" result="effect1_dropShadow_2185_22431"/>
<feBlend mode="normal" in="SourceGraphic" in2="effect1_dropShadow_2185_22431" result="shape"/>
</filter>
<clipPath id="clip0_2185_22431">
<rect width="16" height="16" fill="white" transform="translate(178 12)"/>
</clipPath>
<clipPath id="clip1_2185_22431">
<rect width="16" height="16" fill="white" transform="translate(316 12)"/>
</clipPath>
</defs>
</svg>
