<svg width="616" height="96" viewBox="0 0 616 96" fill="none" xmlns="http://www.w3.org/2000/svg">
    <g clip-path="url(#uutvq5ov7a)">
        <path d="M101.1 16.002h-6.272V5.33h1.328v9.52h4.944v1.152zm2.6-9.28h-1.36V5.314h1.36v1.408zm-.048 9.28h-1.248V8.114h1.248v7.888zm3.671 0h-1.248V8.114h1.184v1.568c.544-.784 1.52-1.712 2.928-1.712 1.472 0 2.192.832 2.192 2.448v5.584h-1.248v-5.6c0-.944-.416-1.392-1.312-1.392-1.008 0-1.84.64-2.496 1.584v5.408zm8.656 0h-1.232V5.33h1.232v6.176l-.016.768.448-.56 3.264-3.6h1.296l-2.384 2.624 2.624 5.264h-1.344l-2.128-4.32-1.76 1.888v2.432zm16.392 0h-6.032v-1.056h2.4v-7.84c-.384.448-.768 1.136-2.288 2V7.73c1.168-.64 1.92-1.472 2.608-2.608h.96v9.824h2.352v1.056z" fill="#111"/>
    </g>
    <g clip-path="url(#ayp4cybfeb)">
        <path d="M165.1 16.002h-6.272V5.33h1.328v9.52h4.944v1.152zm2.6-9.28h-1.36V5.314h1.36v1.408zm-.048 9.28h-1.248V8.114h1.248v7.888zm3.671 0h-1.248V8.114h1.184v1.568c.544-.784 1.52-1.712 2.928-1.712 1.472 0 2.192.832 2.192 2.448v5.584h-1.248v-5.6c0-.944-.416-1.392-1.312-1.392-1.008 0-1.84.64-2.496 1.584v5.408zm8.656 0h-1.232V5.33h1.232v6.176l-.016.768.448-.56 3.264-3.6h1.296l-2.384 2.624 2.624 5.264h-1.344l-2.128-4.32-1.76 1.888v2.432zm17.736 0h-7.696v-1.04c4.976-3.68 6.112-4.816 6.112-6.624 0-1.168-.72-2.096-2.304-2.096-1.392 0-2.384.816-2.576 2.336l-1.232-.24c.352-1.936 1.664-3.184 3.856-3.184 2.256 0 3.6 1.296 3.6 3.264 0 2.016-1.872 3.76-5.84 6.464h6.08v1.12z" fill="#111"/>
    </g>
    <g clip-path="url(#d89t4yggjc)">
        <path d="M231.1 16.002h-6.272V5.33h1.328v9.52h4.944v1.152zm2.6-9.28h-1.36V5.314h1.36v1.408zm-.048 9.28h-1.248V8.114h1.248v7.888zm3.671 0h-1.248V8.114h1.184v1.568c.544-.784 1.52-1.712 2.928-1.712 1.472 0 2.192.832 2.192 2.448v5.584h-1.248v-5.6c0-.944-.416-1.392-1.312-1.392-1.008 0-1.84.64-2.496 1.584v5.408zm8.656 0h-1.232V5.33h1.232v6.176l-.016.768.448-.56 3.264-3.6h1.296l-2.384 2.624 2.624 5.264h-1.344l-2.128-4.32-1.76 1.888v2.432zm13.848.192c-2.224 0-3.648-.848-4.144-2.736l1.248-.24c.368 1.328 1.2 1.92 2.864 1.92 1.776 0 2.608-.928 2.608-2.096 0-1.216-1.008-2.048-2.88-2.048h-1.232V9.906h1.232c1.648 0 2.496-.656 2.496-1.888 0-1.136-.848-1.792-2.224-1.792-1.328 0-2.224.656-2.528 1.696l-1.2-.24c.56-1.664 1.936-2.544 3.696-2.544 2.352 0 3.584 1.152 3.584 2.752 0 1.248-.736 2.176-2.048 2.496 1.504.304 2.448 1.264 2.448 2.672 0 1.776-1.392 3.136-3.92 3.136z" fill="#111"/>
    </g>
    <path d="M297.1 16.002h-6.272V5.33h1.328v9.52h4.944v1.152zm2.6-9.28h-1.36V5.314h1.36v1.408zm-.048 9.28h-1.248V8.114h1.248v7.888zm3.671 0h-1.248V8.114h1.184v1.568c.544-.784 1.52-1.712 2.928-1.712 1.472 0 2.192.832 2.192 2.448v5.584h-1.248v-5.6c0-.944-.416-1.392-1.312-1.392-1.008 0-1.84.64-2.496 1.584v5.408zm8.656 0h-1.232V5.33h1.232v6.176l-.016.768.448-.56 3.264-3.6h1.296l-2.384 2.624 2.624 5.264h-1.344l-2.128-4.32-1.76 1.888v2.432zm16.28 0h-1.248v-2.496h-5.328v-1.024l5.168-7.36h1.408v7.28h1.712v1.104h-1.712v2.496zm-1.248-9.424-4.144 5.824h4.144V6.578z" fill="#111"/>
    <path d="m338.88 10.002.71-.71 3.91 3.96 3.91-3.92.71.71-4.62 4.63-4.62-4.67z" fill="#000"/>
    <g clip-path="url(#lqookx9bjd)">
        <path d="M383.1 16.002h-6.272V5.33h1.328v9.52h4.944v1.152zm2.6-9.28h-1.36V5.314h1.36v1.408zm-.048 9.28h-1.248V8.114h1.248v7.888zm3.671 0h-1.248V8.114h1.184v1.568c.544-.784 1.52-1.712 2.928-1.712 1.472 0 2.192.832 2.192 2.448v5.584h-1.248v-5.6c0-.944-.416-1.392-1.312-1.392-1.008 0-1.84.64-2.496 1.584v5.408zm8.656 0h-1.232V5.33h1.232v6.176l-.016.768.448-.56 3.264-3.6h1.296l-2.384 2.624 2.624 5.264h-1.344l-2.128-4.32-1.76 1.888v2.432zm13.864.192c-1.968 0-3.424-.928-3.968-2.528l1.072-.384c.496 1.264 1.424 1.872 2.848 1.872 1.568 0 2.64-1.072 2.64-2.72 0-1.408-.848-2.608-2.48-2.608-1.264 0-2.016.656-2.56 1.52l-1.056-.24.352-5.776h6.32l-.112 1.152h-5.216l-.24 3.584c.448-.624 1.504-1.28 2.688-1.28 2.224 0 3.584 1.504 3.584 3.632 0 2.4-1.856 3.776-3.872 3.776z" fill="#111"/>
    </g>
    <g clip-path="url(#jh2gmspafe)">
        <path d="M449.1 16.002h-6.272V5.33h1.328v9.52h4.944v1.152zm2.6-9.28h-1.36V5.314h1.36v1.408zm-.048 9.28h-1.248V8.114h1.248v7.888zm3.671 0h-1.248V8.114h1.184v1.568c.544-.784 1.52-1.712 2.928-1.712 1.472 0 2.192.832 2.192 2.448v5.584h-1.248v-5.6c0-.944-.416-1.392-1.312-1.392-1.008 0-1.84.64-2.496 1.584v5.408zm8.656 0h-1.232V5.33h1.232v6.176l-.016.768.448-.56 3.264-3.6h1.296l-2.384 2.624 2.624 5.264h-1.344l-2.128-4.32-1.76 1.888v2.432zm14.12.208c-2.448 0-4.24-1.84-4.24-5.36v-.128c0-3.152 1.472-5.6 4.352-5.6 1.664 0 2.848.912 3.312 2.544l-1.184.208c-.384-1.072-1.104-1.664-2.256-1.664-1.728 0-2.96 1.376-2.96 4.752 0 .048.016.288.016.352.464-1.488 1.84-2.272 3.168-2.272 2.192 0 3.488 1.488 3.488 3.504 0 2.048-1.52 3.664-3.696 3.664zm0-1.04c1.408 0 2.448-.96 2.448-2.48v-.08c0-1.44-.864-2.528-2.448-2.528-1.456 0-2.432 1.104-2.752 2.272-.016.048-.016.096-.016.144.176 1.6 1.216 2.672 2.768 2.672z" fill="#111"/>
    </g>
    <g clip-path="url(#5ejkm1zg2f)">
        <path d="M514.628 16.002h-7.072V5.33h2.64v8.656h4.432v2.016zm3.657-8.784h-2.528V5.122h2.528v2.096zm-.016 8.784h-2.496V8.066h2.496v7.936zm4.405 0h-2.48V8.066h2.384v1.312c.464-.656 1.216-1.456 2.56-1.456 1.632 0 2.288.976 2.288 2.496v5.584h-2.48v-5.504c0-.496-.256-.864-.864-.864-.656 0-1.088.448-1.408.928v5.44zm9.094 0h-2.464V5.33h2.464v5.424l-.032.72.448-.56 2.48-2.848h2.272l-2.384 2.704 2.656 5.232h-2.64l-1.68-3.488-1.12 1.232v2.256zM549.787 5.33l-.032 1.6c-2.192 3.168-3.152 5.488-3.168 8.544 0 .192.016.416.032.528h-2.88c0-.208.016-.416.032-.624.224-2.352 1.664-5.36 3.776-8.08h-5.472l.256-1.968h7.456z" fill="#111"/>
    </g>
    <g clip-path="url(#v91yevbwxg)">
        <path d="M582.1 16.002h-6.272V5.33h1.328v9.52h4.944v1.152zm2.6-9.28h-1.36V5.314h1.36v1.408zm-.048 9.28h-1.248V8.114h1.248v7.888zm3.671 0h-1.248V8.114h1.184v1.568c.544-.784 1.52-1.712 2.928-1.712 1.472 0 2.192.832 2.192 2.448v5.584h-1.248v-5.6c0-.944-.416-1.392-1.312-1.392-1.008 0-1.84.64-2.496 1.584v5.408zm8.656 0h-1.232V5.33h1.232v6.176l-.016.768.448-.56 3.264-3.6h1.296l-2.384 2.624 2.624 5.264h-1.344l-2.128-4.32-1.76 1.888v2.432zm13.688.192c-2.368 0-3.888-1.168-3.888-2.912 0-1.456 1.088-2.272 2.464-2.816-1.328-.576-2.048-1.344-2.048-2.592 0-1.488 1.296-2.736 3.408-2.736 2.128 0 3.44 1.056 3.44 2.64 0 1.264-.896 2-2.128 2.496 1.504.576 2.592 1.312 2.592 2.928 0 1.728-1.376 2.992-3.84 2.992zm.112-6.336c1.28-.48 2.112-1.104 2.112-2.032 0-1.056-.784-1.664-2.288-1.664-1.248 0-2.16.624-2.16 1.68 0 .88.64 1.36 1.824 1.808l.512.208zm-.112 5.344c1.632 0 2.592-.688 2.592-1.936 0-1.024-.752-1.536-2.352-2.096l-.592-.224c-1.36.496-2.352 1.04-2.352 2.32 0 1.168.976 1.936 2.704 1.936z" fill="#111"/>
    </g>
    <rect x=".5" y=".002" width="24" height="24" rx="12" fill="#94538C"/>
    <path d="M16.663 18.002H8.707v-2.196h2.646V9.092c-.522.378-1.368.9-2.376 1.314V8.102c1.206-.396 2.304-1.386 3.042-2.304h2.106v10.008h2.538v2.196z" fill="#fff"/>
    <path d="M24.5 12.002h53" stroke="#94538C" stroke-width="1.5" stroke-dasharray="3 4"/>
    <path fill-rule="evenodd" clip-rule="evenodd" d="m80.419 14.782 3.081-2.78-3.081-2.78a.896.896 0 0 0-1.176 0 .7.7 0 0 0 0 1.06l1.075.97H77.5v1.5h2.818l-1.075.97a.7.7 0 0 0 0 1.06.896.896 0 0 0 1.176 0zM346.28 23.052l-2.78-3.081-2.78 3.08a.896.896 0 0 0 0 1.176.699.699 0 0 0 1.06 0l.97-1.074v2.818h1.5v-2.818l.97 1.074a.699.699 0 0 0 1.06 0 .896.896 0 0 0 0-1.175z" fill="#94538C"/>
    <path d="M343.5 25.97v46" stroke="#94538C" stroke-width="1.5" stroke-dasharray="3 4"/>
    <rect x="331.5" y="71.971" width="24" height="24" rx="12" fill="#94538C"/>
    <path d="M347.998 89.97h-9.054v-1.907c4.77-3.582 6.066-4.698 6.066-6.426 0-.954-.576-1.638-1.638-1.638-1.098 0-1.8.738-1.962 2.232l-2.484-.45c.45-2.808 2.34-4.032 4.752-4.032 2.52 0 4.194 1.458 4.194 3.78 0 2.412-2.07 3.924-5.436 6.228h5.562v2.214z" fill="#fff"/>
    <path fill-rule="evenodd" clip-rule="evenodd" d="M532.78 29.08 530 25.997l-2.78 3.081a.896.896 0 0 0 0 1.176.699.699 0 0 0 1.06 0l.97-1.075v2.818h1.5V29.18l.97 1.075a.699.699 0 0 0 1.06 0 .896.896 0 0 0 0-1.176z" fill="#94538C"/>
    <path d="M530 31.998v40" stroke="#94538C" stroke-width="1.5" stroke-dasharray="3 4"/>
    <rect x="518" y="71.998" width="24" height="24" rx="12" fill="#94538C"/>
    <path d="M530.038 90.214c-2.718 0-4.626-1.17-5.022-3.402l2.538-.522c.252 1.224 1.062 1.782 2.322 1.782 1.44 0 2.088-.648 2.088-1.584 0-1.134-.846-1.62-2.25-1.62H528.4V82.78h1.278c1.314 0 1.98-.522 1.98-1.44 0-.864-.594-1.422-1.8-1.422-1.116 0-1.944.504-2.196 1.53l-2.286-.468c.576-2.196 2.484-3.204 4.752-3.204 2.664 0 4.284 1.422 4.284 3.204 0 1.386-.72 2.376-1.962 2.736 1.53.378 2.358 1.386 2.358 2.88 0 2.178-1.71 3.618-4.77 3.618z" fill="#fff"/>
    <defs>
        <clipPath id="uutvq5ov7a">
            <path fill="#fff" transform="translate(93.5 .002)" d="M0 0h40v28H0z"/>
        </clipPath>
        <clipPath id="ayp4cybfeb">
            <path fill="#fff" transform="translate(157.5 .002)" d="M0 0h42v28H0z"/>
        </clipPath>
        <clipPath id="d89t4yggjc">
            <path fill="#fff" transform="translate(223.5 .002)" d="M0 0h42v28H0z"/>
        </clipPath>
        <clipPath id="lqookx9bjd">
            <path fill="#fff" transform="translate(375.5 .002)" d="M0 0h42v28H0z"/>
        </clipPath>
        <clipPath id="jh2gmspafe">
            <path fill="#fff" transform="translate(441.5 .002)" d="M0 0h41v28H0z"/>
        </clipPath>
        <clipPath id="5ejkm1zg2f">
            <path fill="#fff" transform="translate(506.5 .002)" d="M0 0h44v28H0z"/>
        </clipPath>
        <clipPath id="v91yevbwxg">
            <path fill="#fff" transform="translate(574.5 .002)" d="M0 0h41v28H0z"/>
        </clipPath>
    </defs>
</svg>
