<svg width="680" height="288" viewBox="0 0 680 288" fill="none" xmlns="http://www.w3.org/2000/svg">
<rect width="680" height="288" fill="#F0F0F0"/>
<g filter="url(#filter0_d_1804_627)">
<rect x="258" y="86" width="150" height="160" rx="2" fill="white" shape-rendering="crispEdges"/>
<path d="M275.248 118L276.256 114.864H280.08L281.088 118H282.512L279.04 107.328H277.504L274.048 118H275.248ZM278.144 108.816L279.76 113.808H276.576L278.144 108.816ZM287.443 118.112C289.027 118.112 290.451 116.72 290.451 114.048C290.451 111.2 289.235 109.968 287.475 109.968C286.211 109.968 285.411 110.736 284.931 111.504V110.112H283.747V120.672H284.979V116.96C285.459 117.536 286.291 118.112 287.443 118.112ZM287.107 117.2C285.971 117.2 285.395 116.496 284.979 115.904V112.576C285.539 111.472 286.275 110.992 287.187 110.992C288.547 110.992 289.155 111.968 289.155 114.08C289.155 116.352 288.355 117.2 287.107 117.2ZM295.959 118.112C297.543 118.112 298.967 116.72 298.967 114.048C298.967 111.2 297.751 109.968 295.991 109.968C294.727 109.968 293.927 110.736 293.447 111.504V110.112H292.263V120.672H293.495V116.96C293.975 117.536 294.807 118.112 295.959 118.112ZM295.623 117.2C294.487 117.2 293.911 116.496 293.495 115.904V112.576C294.055 111.472 294.791 110.992 295.703 110.992C297.063 110.992 297.671 111.968 297.671 114.08C297.671 116.352 296.871 117.2 295.623 117.2ZM302.058 118V107.328H300.81V118H302.058ZM307.505 118.128C309.073 118.128 310.289 117.312 310.833 115.792L309.745 115.632C309.297 116.8 308.481 117.184 307.617 117.184C306.081 117.184 305.185 116.176 305.153 114.192H310.977C310.961 114.016 310.977 113.84 310.961 113.664C310.801 111.472 309.601 109.968 307.537 109.968C305.505 109.968 303.889 111.52 303.889 114.192C303.889 116.544 305.345 118.128 307.505 118.128ZM305.201 113.344C305.297 111.856 306.273 110.912 307.537 110.912C308.801 110.912 309.585 111.824 309.713 113.344H305.201ZM315.196 118.128C317.116 118.128 318.364 117.152 318.364 115.696C318.364 114.128 316.988 113.68 315.372 113.36C314.108 113.088 313.164 112.928 313.164 112.064C313.164 111.344 313.884 110.912 314.94 110.912C316.012 110.912 316.732 111.392 317.036 112.224L318.14 111.984C317.74 110.752 316.716 109.968 314.94 109.968C313.18 109.968 312.012 110.848 312.012 112.144C312.012 113.696 313.372 114.112 314.988 114.416C316.156 114.672 317.212 114.864 317.212 115.808C317.212 116.64 316.444 117.2 315.196 117.2C313.836 117.2 312.956 116.576 312.7 115.648L311.58 115.872C311.964 117.312 313.196 118.128 315.196 118.128Z" fill="black"/>
<path d="M275.328 154H279.248C282 154 283.024 152.672 283.024 150.96C283.024 149.312 281.92 148.544 280.8 148.352C282.048 147.952 282.624 147.152 282.624 145.856C282.624 144.48 281.632 143.328 279.568 143.328H275.328V154ZM276.656 148.976H279.296C280.88 148.976 281.68 149.776 281.68 150.96C281.68 152.224 281.072 152.928 279.504 152.928H276.656V148.976ZM276.656 144.464H279.296C280.624 144.464 281.312 145.088 281.312 146.144C281.312 147.312 280.496 147.92 279.184 147.92H276.656V144.464ZM286.744 154.096C288.216 154.096 289.144 153.536 289.768 152.672C289.752 153.072 289.816 153.728 289.912 154H291.096C290.968 153.504 290.92 152.96 290.92 152.464V148.88C290.92 146.896 290.056 145.968 287.816 145.968C285.944 145.968 284.712 146.736 284.424 148.176L285.576 148.304C285.832 147.296 286.504 146.944 287.784 146.944C289.112 146.944 289.624 147.408 289.72 148.272C289.752 148.464 289.752 148.736 289.752 149.008C289.128 149.024 288.6 149.024 287.96 149.104C285.8 149.36 284.232 150.208 284.232 151.92C284.232 153.36 285.352 154.096 286.744 154.096ZM287.112 153.184C286.056 153.184 285.528 152.704 285.528 151.792C285.528 150.8 286.408 150.112 288.12 149.888C288.616 149.824 289.192 149.824 289.752 149.824V151.456C289.416 152.272 288.616 153.184 287.112 153.184ZM294.542 154V148.592C295.198 147.648 296.03 147.008 297.038 147.008C297.934 147.008 298.35 147.456 298.35 148.4V154H299.598V148.416C299.598 146.8 298.878 145.968 297.406 145.968C295.998 145.968 295.022 146.896 294.478 147.68V146.112H293.294V154H294.542ZM303.854 154.096C305.326 154.096 306.254 153.536 306.878 152.672C306.862 153.072 306.926 153.728 307.022 154H308.206C308.078 153.504 308.03 152.96 308.03 152.464V148.88C308.03 146.896 307.166 145.968 304.926 145.968C303.054 145.968 301.822 146.736 301.534 148.176L302.686 148.304C302.942 147.296 303.614 146.944 304.894 146.944C306.222 146.944 306.734 147.408 306.83 148.272C306.862 148.464 306.862 148.736 306.862 149.008C306.238 149.024 305.71 149.024 305.07 149.104C302.91 149.36 301.342 150.208 301.342 151.92C301.342 153.36 302.462 154.096 303.854 154.096ZM304.222 153.184C303.166 153.184 302.638 152.704 302.638 151.792C302.638 150.8 303.518 150.112 305.23 149.888C305.726 149.824 306.302 149.824 306.862 149.824V151.456C306.526 152.272 305.726 153.184 304.222 153.184ZM311.651 154V148.592C312.307 147.648 313.139 147.008 314.147 147.008C315.043 147.008 315.459 147.456 315.459 148.4V154H316.707V148.416C316.707 146.8 315.987 145.968 314.515 145.968C313.107 145.968 312.131 146.896 311.587 147.68V146.112H310.403V154H311.651ZM320.963 154.096C322.435 154.096 323.363 153.536 323.987 152.672C323.971 153.072 324.035 153.728 324.131 154H325.315C325.187 153.504 325.139 152.96 325.139 152.464V148.88C325.139 146.896 324.275 145.968 322.035 145.968C320.163 145.968 318.931 146.736 318.643 148.176L319.795 148.304C320.051 147.296 320.723 146.944 322.003 146.944C323.331 146.944 323.843 147.408 323.939 148.272C323.971 148.464 323.971 148.736 323.971 149.008C323.347 149.024 322.819 149.024 322.179 149.104C320.019 149.36 318.451 150.208 318.451 151.92C318.451 153.36 319.571 154.096 320.963 154.096ZM321.331 153.184C320.275 153.184 319.747 152.704 319.747 151.792C319.747 150.8 320.627 150.112 322.339 149.888C322.835 149.824 323.411 149.824 323.971 149.824V151.456C323.635 152.272 322.835 153.184 321.331 153.184ZM330.009 154.128C331.929 154.128 333.177 153.152 333.177 151.696C333.177 150.128 331.801 149.68 330.185 149.36C328.921 149.088 327.977 148.928 327.977 148.064C327.977 147.344 328.697 146.912 329.753 146.912C330.825 146.912 331.545 147.392 331.849 148.224L332.953 147.984C332.553 146.752 331.529 145.968 329.753 145.968C327.993 145.968 326.825 146.848 326.825 148.144C326.825 149.696 328.185 150.112 329.801 150.416C330.969 150.672 332.025 150.864 332.025 151.808C332.025 152.64 331.257 153.2 330.009 153.2C328.649 153.2 327.769 152.576 327.513 151.648L326.393 151.872C326.777 153.312 328.009 154.128 330.009 154.128Z" fill="#111111"/>
<path d="M279.04 190.208C281.6 190.208 283.424 187.952 283.424 184.672C283.424 181.2 281.632 179.12 279.04 179.12C276.512 179.12 274.672 181.216 274.672 184.672C274.672 188.128 276.448 190.208 279.04 190.208ZM279.04 189.12C277.392 189.12 276.064 187.648 276.064 184.672C276.064 181.984 277.072 180.24 279.04 180.24C281.04 180.24 282.032 181.904 282.032 184.672C282.032 187.424 280.896 189.12 279.04 189.12ZM286.542 190V184.848C287.198 183.744 288.126 183.104 289.054 183.104C289.15 183.104 289.31 183.104 289.406 183.12V181.984C289.278 181.968 289.182 181.968 289.038 181.968C287.918 181.968 286.99 182.88 286.478 183.808V182.112H285.294V190H286.542ZM292.541 190.096C294.013 190.096 294.941 189.536 295.565 188.672C295.549 189.072 295.613 189.728 295.709 190H296.893C296.765 189.504 296.717 188.96 296.717 188.464V184.88C296.717 182.896 295.853 181.968 293.613 181.968C291.741 181.968 290.509 182.736 290.221 184.176L291.373 184.304C291.629 183.296 292.301 182.944 293.581 182.944C294.909 182.944 295.421 183.408 295.517 184.272C295.549 184.464 295.549 184.736 295.549 185.008C294.925 185.024 294.397 185.024 293.757 185.104C291.597 185.36 290.029 186.208 290.029 187.92C290.029 189.36 291.149 190.096 292.541 190.096ZM292.909 189.184C291.853 189.184 291.325 188.704 291.325 187.792C291.325 186.8 292.205 186.112 293.917 185.888C294.413 185.824 294.989 185.824 295.549 185.824V187.456C295.213 188.272 294.413 189.184 292.909 189.184ZM300.339 190V184.592C300.995 183.648 301.827 183.008 302.835 183.008C303.731 183.008 304.147 183.456 304.147 184.4V190H305.395V184.416C305.395 182.8 304.675 181.968 303.203 181.968C301.795 181.968 300.819 182.896 300.275 183.68V182.112H299.091V190H300.339ZM310.612 192.976C313.172 192.976 314.468 192.016 314.468 190.64C314.468 189.344 313.572 188.816 311.06 188.768C309.46 188.72 308.468 188.72 308.468 188.016C308.468 187.536 308.916 187.232 309.332 187.232C309.46 187.264 309.972 187.376 310.484 187.376C312.276 187.376 313.364 186.24 313.364 184.672C313.364 183.856 313.06 183.232 312.644 182.864C312.772 182.288 313.108 181.952 313.908 181.968C314.004 181.968 314.084 181.984 314.18 182L314.164 180.96C314.116 180.96 314.02 180.96 313.972 180.96C312.628 180.944 312.196 181.488 312.004 182.352C311.524 182.096 310.948 181.968 310.356 181.968C308.772 181.968 307.412 183.056 307.412 184.672C307.412 185.632 307.796 186.448 308.564 186.848C307.86 187.04 307.316 187.52 307.316 188.192C307.316 188.8 307.636 189.248 308.436 189.472C307.476 189.712 306.9 190.304 306.9 191.088C306.9 192.304 308.18 192.976 310.612 192.976ZM310.42 186.544C309.348 186.544 308.644 185.904 308.644 184.672C308.644 183.68 309.252 182.864 310.42 182.864C311.604 182.864 312.196 183.728 312.196 184.688C312.196 185.872 311.54 186.544 310.42 186.544ZM310.516 192.144C308.756 192.144 308.036 191.696 308.036 190.944C308.036 190.24 308.516 189.92 309.14 189.744C312.692 189.824 313.284 190 313.284 190.8C313.284 191.6 312.276 192.144 310.516 192.144ZM318.568 190.128C320.136 190.128 321.352 189.312 321.896 187.792L320.808 187.632C320.36 188.8 319.544 189.184 318.68 189.184C317.144 189.184 316.248 188.176 316.216 186.192H322.04C322.024 186.016 322.04 185.84 322.024 185.664C321.864 183.472 320.664 181.968 318.6 181.968C316.568 181.968 314.952 183.52 314.952 186.192C314.952 188.544 316.408 190.128 318.568 190.128ZM316.264 185.344C316.36 183.856 317.336 182.912 318.6 182.912C319.864 182.912 320.648 183.824 320.776 185.344H316.264ZM326.259 190.128C328.179 190.128 329.427 189.152 329.427 187.696C329.427 186.128 328.051 185.68 326.435 185.36C325.171 185.088 324.227 184.928 324.227 184.064C324.227 183.344 324.947 182.912 326.003 182.912C327.075 182.912 327.795 183.392 328.099 184.224L329.203 183.984C328.803 182.752 327.779 181.968 326.003 181.968C324.243 181.968 323.075 182.848 323.075 184.144C323.075 185.696 324.435 186.112 326.051 186.416C327.219 186.672 328.275 186.864 328.275 187.808C328.275 188.64 327.507 189.2 326.259 189.2C324.899 189.2 324.019 188.576 323.763 187.648L322.643 187.872C323.027 189.312 324.259 190.128 326.259 190.128Z" fill="#111111"/>
<path d="M276.656 226V221.392H279.248C281.296 221.392 282.576 220.208 282.576 218.368C282.576 216.48 281.424 215.328 279.104 215.328H275.328V226H276.656ZM276.656 216.464H279.216C280.432 216.464 281.232 217.216 281.232 218.416C281.232 219.6 280.432 220.304 279.12 220.304H276.656V216.464ZM286.521 226.128C288.089 226.128 289.305 225.312 289.849 223.792L288.761 223.632C288.313 224.8 287.497 225.184 286.633 225.184C285.097 225.184 284.201 224.176 284.169 222.192H289.993C289.977 222.016 289.993 221.84 289.977 221.664C289.817 219.472 288.617 217.968 286.553 217.968C284.521 217.968 282.905 219.52 282.905 222.192C282.905 224.544 284.361 226.128 286.521 226.128ZM284.217 221.344C284.313 219.856 285.289 218.912 286.553 218.912C287.817 218.912 288.601 219.824 288.729 221.344H284.217ZM293.604 226.096C295.076 226.096 296.004 225.536 296.628 224.672C296.612 225.072 296.676 225.728 296.772 226H297.956C297.828 225.504 297.78 224.96 297.78 224.464V220.88C297.78 218.896 296.916 217.968 294.676 217.968C292.804 217.968 291.572 218.736 291.284 220.176L292.436 220.304C292.692 219.296 293.364 218.944 294.644 218.944C295.972 218.944 296.484 219.408 296.58 220.272C296.612 220.464 296.612 220.736 296.612 221.008C295.988 221.024 295.46 221.024 294.82 221.104C292.66 221.36 291.092 222.208 291.092 223.92C291.092 225.36 292.212 226.096 293.604 226.096ZM293.972 225.184C292.916 225.184 292.388 224.704 292.388 223.792C292.388 222.8 293.268 222.112 294.98 221.888C295.476 221.824 296.052 221.824 296.612 221.824V223.456C296.276 224.272 295.476 225.184 293.972 225.184ZM301.401 226V220.848C302.057 219.744 302.985 219.104 303.913 219.104C304.009 219.104 304.169 219.104 304.265 219.12V217.984C304.137 217.968 304.041 217.968 303.897 217.968C302.777 217.968 301.849 218.88 301.337 219.808V218.112H300.153V226H301.401ZM308.149 226.128C310.069 226.128 311.317 225.152 311.317 223.696C311.317 222.128 309.941 221.68 308.325 221.36C307.061 221.088 306.117 220.928 306.117 220.064C306.117 219.344 306.837 218.912 307.893 218.912C308.965 218.912 309.685 219.392 309.989 220.224L311.093 219.984C310.693 218.752 309.669 217.968 307.893 217.968C306.133 217.968 304.965 218.848 304.965 220.144C304.965 221.696 306.325 222.112 307.941 222.416C309.109 222.672 310.165 222.864 310.165 223.808C310.165 224.64 309.397 225.2 308.149 225.2C306.789 225.2 305.909 224.576 305.653 223.648L304.533 223.872C304.917 225.312 306.149 226.128 308.149 226.128Z" fill="#111111"/>
<rect x="258.5" y="86.5" width="149" height="159" rx="1.5" stroke="#D4D4D4" shape-rendering="crispEdges"/>
</g>
<g filter="url(#filter1_d_1804_627)">
<rect x="20" y="91" width="112" height="109.001" rx="2" fill="white" shape-rendering="crispEdges"/>
<rect width="96" height="93.001" transform="translate(28 99)" fill="#F0F0F0"/>
<path d="M68.648 143.62C70.796 143.62 71.84 142.6 71.84 141.184C71.84 139.516 70.592 139.024 69.26 138.712C68.156 138.448 67.376 138.316 67.376 137.608C67.376 137.14 67.82 136.864 68.48 136.864C69.212 136.864 69.74 137.164 69.968 137.824L71.636 137.32C71.18 136.096 70.196 135.352 68.504 135.352C66.572 135.352 65.408 136.312 65.408 137.668C65.408 139.432 66.824 139.852 68.06 140.152C69.032 140.392 69.908 140.56 69.908 141.292C69.908 141.82 69.404 142.144 68.612 142.144C67.52 142.144 67.004 141.676 66.68 140.896L65.12 141.496C65.588 142.708 66.524 143.62 68.648 143.62ZM74.6818 143.5V135.496H72.8098V143.5H74.6818ZM78.802 143.596C80.662 143.596 81.91 142.276 81.91 140.536C81.91 138.688 80.686 137.44 78.838 137.44C77.074 137.44 75.778 138.724 75.778 140.572C75.778 142.312 77.026 143.596 78.802 143.596ZM78.862 142.396C78.118 142.396 77.758 141.808 77.758 140.512C77.758 139.252 78.142 138.676 78.85 138.676C79.582 138.676 79.918 139.264 79.918 140.512C79.918 141.82 79.546 142.396 78.862 142.396ZM85.3694 143.584C85.7414 143.584 86.1614 143.548 86.4494 143.512V142.18C86.1974 142.204 85.9694 142.204 85.7414 142.18C85.2974 142.12 85.1054 141.856 85.1054 141.388V138.808H86.3294V137.548H85.1054V135.724H83.4254L83.3054 137.548H82.3454V138.808H83.2934V141.688C83.2934 142.948 84.0134 143.584 85.3694 143.584Z" fill="black"/>
<path d="M29.464 149.164C28.696 150.212 28.312 151.348 28.312 152.492C28.312 153.692 28.704 154.828 29.472 155.836H29.88C29.224 154.772 28.896 153.684 28.896 152.5C28.896 151.268 29.208 150.196 29.872 149.164H29.464ZM32.4366 154.588C33.6526 154.588 34.3726 153.996 34.3726 153.052C34.3726 152.156 33.7646 151.78 32.6446 151.484C31.5486 151.196 31.1566 150.996 31.1566 150.404C31.1566 149.948 31.5966 149.612 32.2686 149.612C32.9406 149.612 33.4526 149.964 33.6126 150.564L34.2286 150.372C33.9726 149.54 33.2766 149.06 32.2766 149.06C31.2446 149.06 30.4926 149.612 30.4926 150.476C30.4926 151.42 31.2366 151.772 32.2206 152.02C33.1006 152.252 33.7166 152.444 33.7166 153.108C33.7166 153.716 33.2286 154.044 32.4446 154.044C31.5086 154.044 31.0526 153.66 30.8046 153.012L30.2366 153.236C30.5886 154.124 31.2766 154.588 32.4366 154.588ZM36.4477 154.5L37.2157 151.812L37.2957 151.468L37.3917 151.828L38.1917 154.5H38.7197L39.8957 150.556H39.3597L38.5917 153.292L38.4877 153.628L38.3997 153.276L37.5917 150.556H37.0797L36.3277 153.252L36.2317 153.612L36.1437 153.252L35.3597 150.556H34.7277L35.9197 154.5H36.4477ZM41.419 154.548C42.155 154.548 42.619 154.268 42.931 153.836C42.923 154.036 42.955 154.364 43.003 154.5H43.595C43.531 154.252 43.507 153.98 43.507 153.732V151.94C43.507 150.948 43.075 150.484 41.955 150.484C41.019 150.484 40.403 150.868 40.259 151.588L40.835 151.652C40.963 151.148 41.299 150.972 41.939 150.972C42.603 150.972 42.859 151.204 42.907 151.636C42.923 151.732 42.923 151.868 42.923 152.004C42.611 152.012 42.347 152.012 42.027 152.052C40.947 152.18 40.163 152.604 40.163 153.46C40.163 154.18 40.723 154.548 41.419 154.548ZM41.603 154.092C41.075 154.092 40.811 153.852 40.811 153.396C40.811 152.9 41.251 152.556 42.107 152.444C42.355 152.412 42.643 152.412 42.923 152.412V153.228C42.755 153.636 42.355 154.092 41.603 154.092ZM46.5418 154.556C47.3338 154.556 48.0458 153.86 48.0458 152.524C48.0458 151.1 47.4378 150.484 46.5578 150.484C45.9258 150.484 45.5258 150.868 45.2858 151.252V150.556H44.6938V155.836H45.3098V153.98C45.5498 154.268 45.9658 154.556 46.5418 154.556ZM46.3738 154.1C45.8058 154.1 45.5178 153.748 45.3098 153.452V151.788C45.5898 151.236 45.9578 150.996 46.4138 150.996C47.0938 150.996 47.3978 151.484 47.3978 152.54C47.3978 153.676 46.9978 154.1 46.3738 154.1ZM51.9633 154.5L52.7313 151.812L52.8113 151.468L52.9073 151.828L53.7073 154.5H54.2353L55.4113 150.556H54.8753L54.1073 153.292L54.0033 153.628L53.9153 153.276L53.1073 150.556H52.5953L51.8433 153.252L51.7473 153.612L51.6593 153.252L50.8753 150.556H50.2433L51.4353 154.5H51.9633ZM56.7093 149.86V149.156H56.0293V149.86H56.7093ZM56.6853 154.5V150.556H56.0613V154.5H56.6853ZM59.0009 154.556C59.2169 154.556 59.4569 154.532 59.6729 154.492V154.004C59.5289 154.028 59.2969 154.052 59.1129 154.052C58.7769 154.044 58.5609 153.86 58.5609 153.444V151.052H59.4489V150.556H58.5609V149.524H57.9929L57.9609 150.556H57.3129V151.052H57.9529V153.412C57.9529 154.228 58.3369 154.556 59.0009 154.556ZM60.9818 154.5V151.804C61.3098 151.332 61.7018 151.004 62.2538 151.004C62.6538 151.004 62.8938 151.228 62.8938 151.708V154.5H63.5178V151.66C63.5178 151.012 63.2298 150.484 62.4298 150.484C61.6938 150.484 61.2138 150.924 60.9578 151.332V149.164H60.3578V154.5H60.9818ZM67.1853 154.5V149.164H66.5613V154.5H67.1853ZM69.8609 154.564C70.8369 154.564 71.6449 153.756 71.6449 152.516C71.6449 151.3 70.9409 150.484 69.8609 150.484C68.8929 150.484 68.0929 151.276 68.0929 152.508C68.0929 153.756 68.8449 154.564 69.8609 154.564ZM69.8529 154.1C69.1889 154.1 68.7489 153.508 68.7489 152.516C68.7489 151.5 69.2289 150.972 69.8529 150.972C70.5089 150.972 70.9889 151.484 70.9889 152.508C70.9889 153.572 70.5009 154.1 69.8529 154.1ZM73.9295 154.564C74.7135 154.564 75.2975 154.108 75.4335 153.22L74.8895 153.164C74.7695 153.82 74.4655 154.1 73.9455 154.1C73.3535 154.1 72.8895 153.612 72.8895 152.524C72.8895 151.54 73.2735 150.98 73.9055 150.98C74.4495 150.98 74.7615 151.332 74.8575 151.98L75.4415 151.908C75.2655 150.94 74.7375 150.484 73.8975 150.484C72.8975 150.484 72.2335 151.364 72.2335 152.508C72.2335 153.828 72.9615 154.564 73.9295 154.564ZM77.2081 154.548C77.9441 154.548 78.4081 154.268 78.7201 153.836C78.7121 154.036 78.7441 154.364 78.7921 154.5H79.3841C79.3201 154.252 79.2961 153.98 79.2961 153.732V151.94C79.2961 150.948 78.8641 150.484 77.7441 150.484C76.8081 150.484 76.1921 150.868 76.0481 151.588L76.6241 151.652C76.7521 151.148 77.0881 150.972 77.7281 150.972C78.3921 150.972 78.6481 151.204 78.6961 151.636C78.7121 151.732 78.7121 151.868 78.7121 152.004C78.4001 152.012 78.1361 152.012 77.8161 152.052C76.7361 152.18 75.9521 152.604 75.9521 153.46C75.9521 154.18 76.5121 154.548 77.2081 154.548ZM77.3921 154.092C76.8641 154.092 76.6001 153.852 76.6001 153.396C76.6001 152.9 77.0401 152.556 77.8961 152.444C78.1441 152.412 78.4321 152.412 78.7121 152.412V153.228C78.5441 153.636 78.1441 154.092 77.3921 154.092ZM81.1228 154.5V149.164H80.4988V154.5H81.1228ZM85.5701 154.564C86.3541 154.564 86.9381 154.108 87.0741 153.22L86.5301 153.164C86.4101 153.82 86.1061 154.1 85.5861 154.1C84.9941 154.1 84.5301 153.612 84.5301 152.524C84.5301 151.54 84.9141 150.98 85.5461 150.98C86.0901 150.98 86.4021 151.332 86.4981 151.98L87.0821 151.908C86.9061 150.94 86.3781 150.484 85.5381 150.484C84.5381 150.484 83.8741 151.364 83.8741 152.508C83.8741 153.828 84.6021 154.564 85.5701 154.564ZM89.3687 154.564C90.3447 154.564 91.1527 153.756 91.1527 152.516C91.1527 151.3 90.4487 150.484 89.3687 150.484C88.4007 150.484 87.6007 151.276 87.6007 152.508C87.6007 153.756 88.3527 154.564 89.3687 154.564ZM89.3607 154.1C88.6967 154.1 88.2567 153.508 88.2567 152.516C88.2567 151.5 88.7367 150.972 89.3607 150.972C90.0167 150.972 90.4967 151.484 90.4967 152.508C90.4967 153.572 90.0087 154.1 89.3607 154.1ZM92.6613 154.5V151.796C93.0213 151.292 93.3493 150.996 93.8053 150.996C94.1893 150.996 94.3893 151.26 94.3893 151.732V154.5H94.9973V151.804C95.2453 151.412 95.6533 151.012 96.1413 151.012C96.5253 151.012 96.7413 151.228 96.7413 151.74V154.5H97.3573V151.7C97.3573 151.38 97.2773 151.124 97.1573 150.94C96.9973 150.644 96.7253 150.492 96.3173 150.492C95.6933 150.492 95.2293 150.94 94.9573 151.372C94.9093 150.812 94.5413 150.484 93.9653 150.484C93.3973 150.484 92.8773 150.956 92.6453 151.348V150.556H92.0453V154.5H92.6613ZM100.378 154.556C101.17 154.556 101.882 153.86 101.882 152.524C101.882 151.1 101.274 150.484 100.394 150.484C99.7617 150.484 99.3617 150.868 99.1217 151.252V150.556H98.5297V155.836H99.1457V153.98C99.3857 154.268 99.8017 154.556 100.378 154.556ZM100.21 154.1C99.6417 154.1 99.3537 153.748 99.1457 153.452V151.788C99.4257 151.236 99.7937 150.996 100.25 150.996C100.93 150.996 101.234 151.484 101.234 152.54C101.234 153.676 100.834 154.1 100.21 154.1ZM104.252 154.564C105.228 154.564 106.036 153.756 106.036 152.516C106.036 151.3 105.332 150.484 104.252 150.484C103.284 150.484 102.484 151.276 102.484 152.508C102.484 153.756 103.236 154.564 104.252 154.564ZM104.243 154.1C103.58 154.1 103.14 153.508 103.14 152.516C103.14 151.5 103.62 150.972 104.243 150.972C104.9 150.972 105.38 151.484 105.38 152.508C105.38 153.572 104.892 154.1 104.243 154.1ZM107.552 154.5V151.796C107.88 151.324 108.296 151.004 108.8 151.004C109.248 151.004 109.456 151.228 109.456 151.7V154.5H110.08V151.708C110.08 150.9 109.72 150.484 108.984 150.484C108.28 150.484 107.792 150.948 107.52 151.34V150.556H106.928V154.5H107.552ZM112.776 154.564C113.56 154.564 114.168 154.156 114.44 153.396L113.896 153.316C113.672 153.9 113.264 154.092 112.832 154.092C112.064 154.092 111.616 153.588 111.6 152.596H114.512C114.504 152.508 114.512 152.42 114.504 152.332C114.424 151.236 113.824 150.484 112.792 150.484C111.776 150.484 110.968 151.26 110.968 152.596C110.968 153.772 111.696 154.564 112.776 154.564ZM111.624 152.172C111.672 151.428 112.16 150.956 112.792 150.956C113.424 150.956 113.816 151.412 113.88 152.172H111.624ZM115.997 154.5V151.796C116.325 151.324 116.741 151.004 117.245 151.004C117.693 151.004 117.901 151.228 117.901 151.7V154.5H118.525V151.708C118.525 150.9 118.165 150.484 117.429 150.484C116.725 150.484 116.237 150.948 115.965 151.34V150.556H115.373V154.5H115.997ZM120.813 154.556C121.029 154.556 121.269 154.532 121.485 154.492V154.004C121.341 154.028 121.109 154.052 120.925 154.052C120.589 154.044 120.373 153.86 120.373 153.444V151.052H121.261V150.556H120.373V149.524H119.805L119.773 150.556H119.125V151.052H119.765V153.412C119.765 154.228 120.149 154.556 120.813 154.556ZM121.826 149.164C122.49 150.228 122.81 151.316 122.81 152.5C122.81 153.732 122.506 154.804 121.834 155.836H122.242C123.01 154.788 123.394 153.652 123.394 152.508C123.394 151.3 123.002 150.172 122.234 149.164H121.826Z" fill="#666666"/>
<rect x="20.5" y="91.5" width="111" height="108.001" rx="1.5" stroke="#D4D4D4" shape-rendering="crispEdges"/>
</g>
<rect x="183" y="132" width="28" height="28" rx="14" fill="#94538C"/>
<path d="M196.944 152.192C199.472 152.192 200.864 150.832 200.864 149.056C200.864 147.648 199.92 146.688 198.416 146.384C199.728 146.064 200.464 145.136 200.464 143.888C200.464 142.288 199.232 141.136 196.88 141.136C195.12 141.136 193.744 142.016 193.184 143.68L194.384 143.92C194.688 142.88 195.584 142.224 196.912 142.224C198.288 142.224 199.136 142.88 199.136 144.016C199.136 145.248 198.288 145.904 196.64 145.904H195.408V146.992H196.64C198.512 146.992 199.52 147.824 199.52 149.04C199.52 150.208 198.688 151.136 196.912 151.136C195.248 151.136 194.416 150.544 194.048 149.216L192.8 149.456C193.296 151.344 194.72 152.192 196.944 152.192Z" fill="white"/>
<line x1="211" y1="145.5" x2="276" y2="145.5" stroke="#94538C" stroke-dasharray="2 2"/>
<rect x="258.5" y="38.5" width="96" height="39" rx="19.5" fill="white"/>
<g clip-path="url(#clip0_1804_627)">
<path d="M288 54H276V55H288V54ZM288 61H276V62H288V61ZM284.4 57.5H276V58.5H284.4V57.5Z" fill="#111111"/>
</g>
<path d="M301.346 64V55.808L303.858 64H305.538L308.018 55.808V64H310.482V53.328H306.946L304.93 59.92L302.834 53.328H299.314V64H301.346ZM316.115 64.128C318.163 64.128 319.475 63.136 320.003 61.632L317.939 61.36C317.651 62.144 317.139 62.544 316.339 62.544C315.363 62.544 314.627 61.92 314.595 60.496H320.083C320.099 60.32 320.099 60.192 320.099 60.016C320.035 57.552 318.579 55.92 316.099 55.92C313.891 55.92 312.003 57.584 312.003 60.144C312.003 62.56 313.731 64.128 316.115 64.128ZM314.627 59.2C314.691 58.112 315.331 57.472 316.131 57.472C317.059 57.472 317.523 58.128 317.603 59.2H314.627ZM323.963 64V58.56C324.283 58.08 324.715 57.632 325.371 57.632C325.979 57.632 326.235 58 326.235 58.496V64H328.715V58.416C328.715 56.896 328.059 55.92 326.427 55.92C325.083 55.92 324.331 56.72 323.867 57.376V56.064H321.483V64H323.963ZM332.881 64.128C334.017 64.128 334.881 63.712 335.425 62.864L335.409 64H337.809V56.064H335.313V61.584C335.057 62.112 334.625 62.512 334.033 62.512C333.377 62.512 333.057 62.224 333.057 61.472V56.064H330.561V61.6C330.561 63.36 331.521 64.128 332.881 64.128Z" fill="#111111"/>
<rect x="258.5" y="38.5" width="96" height="39" rx="19.5" stroke="#D4D4D4"/>
<line x1="408" y1="219.5" x2="473" y2="219.5" stroke="#94538C" stroke-dasharray="2 2"/>
<rect x="473" y="206" width="28" height="28" rx="14" fill="#94538C"/>
<path d="M490.832 226V224.88H484.752C488.72 222.176 490.592 220.432 490.592 218.416C490.592 216.448 489.248 215.152 486.992 215.152C484.8 215.152 483.488 216.4 483.136 218.336L484.368 218.576C484.56 217.056 485.552 216.24 486.944 216.24C488.528 216.24 489.248 217.168 489.248 218.336C489.248 220.144 488.112 221.28 483.136 224.96V226H490.832Z" fill="white"/>
<rect x="177" y="48" width="28" height="28" rx="14" fill="#94538C"/>
<path d="M194.293 68V66.944H191.941V57.12H190.981C190.293 58.256 189.541 59.088 188.373 59.728V61.104C189.893 60.24 190.277 59.552 190.661 59.104V66.944H188.261V68H194.293Z" fill="white"/>
<line x1="205" y1="61.5" x2="270" y2="61.5" stroke="#94538C" stroke-dasharray="2 2"/>
<defs>
<filter id="filter0_d_1804_627" x="254" y="84" width="158" height="168" filterUnits="userSpaceOnUse" color-interpolation-filters="sRGB">
<feFlood flood-opacity="0" result="BackgroundImageFix"/>
<feColorMatrix in="SourceAlpha" type="matrix" values="0 0 0 0 0 0 0 0 0 0 0 0 0 0 0 0 0 0 127 0" result="hardAlpha"/>
<feOffset dy="2"/>
<feGaussianBlur stdDeviation="2"/>
<feComposite in2="hardAlpha" operator="out"/>
<feColorMatrix type="matrix" values="0 0 0 0 0.4 0 0 0 0 0.4 0 0 0 0 0.4 0 0 0 0.25 0"/>
<feBlend mode="normal" in2="BackgroundImageFix" result="effect1_dropShadow_1804_627"/>
<feBlend mode="normal" in="SourceGraphic" in2="effect1_dropShadow_1804_627" result="shape"/>
</filter>
<filter id="filter1_d_1804_627" x="16" y="89" width="120" height="117.001" filterUnits="userSpaceOnUse" color-interpolation-filters="sRGB">
<feFlood flood-opacity="0" result="BackgroundImageFix"/>
<feColorMatrix in="SourceAlpha" type="matrix" values="0 0 0 0 0 0 0 0 0 0 0 0 0 0 0 0 0 0 127 0" result="hardAlpha"/>
<feOffset dy="2"/>
<feGaussianBlur stdDeviation="2"/>
<feComposite in2="hardAlpha" operator="out"/>
<feColorMatrix type="matrix" values="0 0 0 0 0.4 0 0 0 0 0.4 0 0 0 0 0.4 0 0 0 0.25 0"/>
<feBlend mode="normal" in2="BackgroundImageFix" result="effect1_dropShadow_1804_627"/>
<feBlend mode="normal" in="SourceGraphic" in2="effect1_dropShadow_1804_627" result="shape"/>
</filter>
<clipPath id="clip0_1804_627">
<rect width="16" height="16" fill="white" transform="translate(274 50)"/>
</clipPath>
</defs>
</svg>
