<svg width="573" height="145" viewBox="0 0 573 145" fill="none" xmlns="http://www.w3.org/2000/svg">
<rect x="140.5" y="59.5" width="119" height="63.001" rx="1.5" fill="white"/>
<rect width="104" height="48.001" transform="translate(148 67)" fill="#F0F0F0"/>
<path d="M178.508 89.0005V82.5085H180.56V80.9965H174.536V82.5085H176.612V89.0005H178.508ZM183.38 89.0965C185.24 89.0965 186.488 87.7765 186.488 86.0365C186.488 84.1885 185.264 82.9405 183.416 82.9405C181.652 82.9405 180.356 84.2245 180.356 86.0725C180.356 87.8125 181.604 89.0965 183.38 89.0965ZM183.44 87.8965C182.696 87.8965 182.336 87.3085 182.336 86.0125C182.336 84.7525 182.72 84.1765 183.428 84.1765C184.16 84.1765 184.496 84.7645 184.496 86.0125C184.496 87.3205 184.124 87.8965 183.44 87.8965ZM191.052 89.0845C192.348 89.0845 193.32 87.9925 193.32 86.0125C193.32 83.8765 192.492 82.9405 191.208 82.9405C190.2 82.9405 189.708 83.5165 189.336 84.0445V83.0485H187.572V90.9205H189.432V88.4005C189.84 88.7605 190.272 89.0845 191.052 89.0845ZM190.428 87.9565C189.9 87.9565 189.636 87.6085 189.42 87.3565V84.9925C189.648 84.5245 189.972 84.2365 190.44 84.2365C191.1 84.2365 191.388 84.6805 191.388 86.0965C191.388 87.5725 191.052 87.9565 190.428 87.9565ZM196.803 86.4805V84.9565H193.935V86.4805H196.803ZM200.695 89.1205C202.843 89.1205 203.887 88.1005 203.887 86.6845C203.887 85.0165 202.639 84.5245 201.307 84.2125C200.203 83.9485 199.423 83.8165 199.423 83.1085C199.423 82.6405 199.867 82.3645 200.527 82.3645C201.259 82.3645 201.787 82.6645 202.015 83.3245L203.683 82.8205C203.227 81.5965 202.243 80.8525 200.551 80.8525C198.619 80.8525 197.455 81.8125 197.455 83.1685C197.455 84.9325 198.871 85.3525 200.107 85.6525C201.079 85.8925 201.955 86.0605 201.955 86.7925C201.955 87.3205 201.451 87.6445 200.659 87.6445C199.567 87.6445 199.051 87.1765 198.727 86.3965L197.167 86.9965C197.635 88.2085 198.571 89.1205 200.695 89.1205ZM207.268 89.0845C207.64 89.0845 208.06 89.0485 208.348 89.0125V87.6805C208.096 87.7045 207.868 87.7045 207.64 87.6805C207.196 87.6205 207.004 87.3565 207.004 86.8885V84.3085H208.228V83.0485H207.004V81.2245H205.324L205.204 83.0485H204.244V84.3085H205.192V87.1885C205.192 88.4485 205.912 89.0845 207.268 89.0845ZM210.832 89.0725C211.888 89.0725 212.512 88.7605 213.028 88.2325C213.028 88.5685 213.052 88.8805 213.124 89.0005H214.9C214.792 88.7725 214.768 88.1845 214.768 87.8365V85.0885C214.768 83.8045 214.192 82.9405 212.188 82.9405C210.436 82.9405 209.44 83.5525 209.152 84.7405L210.856 84.8965C210.976 84.3925 211.312 84.1525 212.008 84.1525C212.656 84.1525 212.932 84.4405 212.968 84.9085C212.968 84.9565 212.98 85.1365 212.98 85.1965C212.728 85.2085 212.488 85.2325 212.26 85.2565C210.184 85.4605 208.996 86.1205 208.996 87.4405C208.996 88.4485 209.728 89.0725 210.832 89.0725ZM211.672 87.9205C211.204 87.9205 210.916 87.7165 210.916 87.2725C210.916 86.7085 211.432 86.3605 212.344 86.2045C212.536 86.1685 212.752 86.1445 212.98 86.1325V87.1765C212.728 87.5605 212.284 87.9205 211.672 87.9205ZM218.073 89.0005V85.4365C218.409 84.8005 219.009 84.4405 219.717 84.4405C219.873 84.4405 220.137 84.4525 220.257 84.4765V82.9765C220.161 82.9525 220.005 82.9405 219.825 82.9405C218.949 82.9405 218.241 83.5885 217.965 84.2965V83.0485H216.189V89.0005H218.073ZM223.592 89.0845C223.964 89.0845 224.384 89.0485 224.672 89.0125V87.6805C224.42 87.7045 224.192 87.7045 223.964 87.6805C223.52 87.6205 223.328 87.3565 223.328 86.8885V84.3085H224.552V83.0485H223.328V81.2245H221.648L221.528 83.0485H220.568V84.3085H221.516V87.1885C221.516 88.4485 222.236 89.0845 223.592 89.0845Z" fill="#111111"/>
<path d="M153.464 94.6645C152.696 95.7125 152.312 96.8485 152.312 97.9925C152.312 99.1925 152.704 100.328 153.472 101.336H153.88C153.224 100.272 152.896 99.1845 152.896 98.0005C152.896 96.7685 153.208 95.6965 153.872 94.6645H153.464ZM156.437 100.088C157.653 100.088 158.373 99.4965 158.373 98.5525C158.373 97.6565 157.765 97.2805 156.645 96.9845C155.549 96.6965 155.157 96.4965 155.157 95.9045C155.157 95.4485 155.597 95.1125 156.269 95.1125C156.941 95.1125 157.453 95.4645 157.613 96.0645L158.229 95.8725C157.973 95.0405 157.277 94.5605 156.277 94.5605C155.245 94.5605 154.493 95.1125 154.493 95.9765C154.493 96.9205 155.237 97.2725 156.221 97.5205C157.101 97.7525 157.717 97.9445 157.717 98.6085C157.717 99.2165 157.229 99.5445 156.445 99.5445C155.509 99.5445 155.053 99.1605 154.805 98.5125L154.237 98.7365C154.589 99.6245 155.277 100.088 156.437 100.088ZM160.448 100L161.216 97.3125L161.296 96.9685L161.392 97.3285L162.192 100H162.72L163.896 96.0565H163.36L162.592 98.7925L162.488 99.1285L162.4 98.7765L161.592 96.0565H161.08L160.328 98.7525L160.232 99.1125L160.144 98.7525L159.36 96.0565H158.728L159.92 100H160.448ZM165.419 100.048C166.155 100.048 166.619 99.7685 166.931 99.3365C166.923 99.5365 166.955 99.8645 167.003 100H167.595C167.531 99.7525 167.507 99.4805 167.507 99.2325V97.4405C167.507 96.4485 167.075 95.9845 165.955 95.9845C165.019 95.9845 164.403 96.3685 164.259 97.0885L164.835 97.1525C164.963 96.6485 165.299 96.4725 165.939 96.4725C166.603 96.4725 166.859 96.7045 166.907 97.1365C166.923 97.2325 166.923 97.3685 166.923 97.5045C166.611 97.5125 166.347 97.5125 166.027 97.5525C164.947 97.6805 164.163 98.1045 164.163 98.9605C164.163 99.6805 164.723 100.048 165.419 100.048ZM165.603 99.5925C165.075 99.5925 164.811 99.3525 164.811 98.8965C164.811 98.4005 165.251 98.0565 166.107 97.9445C166.355 97.9125 166.643 97.9125 166.923 97.9125V98.7285C166.755 99.1365 166.355 99.5925 165.603 99.5925ZM170.542 100.056C171.334 100.056 172.046 99.3605 172.046 98.0245C172.046 96.6005 171.438 95.9845 170.558 95.9845C169.926 95.9845 169.526 96.3685 169.286 96.7525V96.0565H168.694V101.336H169.31V99.4805C169.55 99.7685 169.966 100.056 170.542 100.056ZM170.374 99.6005C169.806 99.6005 169.518 99.2485 169.31 98.9525V97.2885C169.59 96.7365 169.958 96.4965 170.414 96.4965C171.094 96.4965 171.398 96.9845 171.398 98.0405C171.398 99.1765 170.998 99.6005 170.374 99.6005ZM175.963 100L176.731 97.3125L176.811 96.9685L176.907 97.3285L177.707 100H178.235L179.411 96.0565H178.875L178.107 98.7925L178.003 99.1285L177.915 98.7765L177.107 96.0565H176.595L175.843 98.7525L175.747 99.1125L175.659 98.7525L174.875 96.0565H174.243L175.435 100H175.963ZM180.709 95.3605V94.6565H180.029V95.3605H180.709ZM180.685 100V96.0565H180.061V100H180.685ZM183.001 100.056C183.217 100.056 183.457 100.032 183.673 99.9925V99.5045C183.529 99.5285 183.297 99.5525 183.113 99.5525C182.777 99.5445 182.561 99.3605 182.561 98.9445V96.5525H183.449V96.0565H182.561V95.0245H181.993L181.961 96.0565H181.313V96.5525H181.953V98.9125C181.953 99.7285 182.337 100.056 183.001 100.056ZM184.982 100V97.3045C185.31 96.8325 185.702 96.5045 186.254 96.5045C186.654 96.5045 186.894 96.7285 186.894 97.2085V100H187.518V97.1605C187.518 96.5125 187.23 95.9845 186.43 95.9845C185.694 95.9845 185.214 96.4245 184.958 96.8325V94.6645H184.358V100H184.982ZM191.185 100V94.6645H190.561V100H191.185ZM193.861 100.064C194.837 100.064 195.645 99.2565 195.645 98.0165C195.645 96.8005 194.941 95.9845 193.861 95.9845C192.893 95.9845 192.093 96.7765 192.093 98.0085C192.093 99.2565 192.845 100.064 193.861 100.064ZM193.853 99.6005C193.189 99.6005 192.749 99.0085 192.749 98.0165C192.749 97.0005 193.229 96.4725 193.853 96.4725C194.509 96.4725 194.989 96.9845 194.989 98.0085C194.989 99.0725 194.501 99.6005 193.853 99.6005ZM197.93 100.064C198.714 100.064 199.298 99.6085 199.434 98.7205L198.89 98.6645C198.77 99.3205 198.466 99.6005 197.946 99.6005C197.354 99.6005 196.89 99.1125 196.89 98.0245C196.89 97.0405 197.274 96.4805 197.906 96.4805C198.45 96.4805 198.762 96.8325 198.858 97.4805L199.442 97.4085C199.266 96.4405 198.738 95.9845 197.898 95.9845C196.898 95.9845 196.234 96.8645 196.234 98.0085C196.234 99.3285 196.962 100.064 197.93 100.064ZM201.208 100.048C201.944 100.048 202.408 99.7685 202.72 99.3365C202.712 99.5365 202.744 99.8645 202.792 100H203.384C203.32 99.7525 203.296 99.4805 203.296 99.2325V97.4405C203.296 96.4485 202.864 95.9845 201.744 95.9845C200.808 95.9845 200.192 96.3685 200.048 97.0885L200.624 97.1525C200.752 96.6485 201.088 96.4725 201.728 96.4725C202.392 96.4725 202.648 96.7045 202.696 97.1365C202.712 97.2325 202.712 97.3685 202.712 97.5045C202.4 97.5125 202.136 97.5125 201.816 97.5525C200.736 97.6805 199.952 98.1045 199.952 98.9605C199.952 99.6805 200.512 100.048 201.208 100.048ZM201.392 99.5925C200.864 99.5925 200.6 99.3525 200.6 98.8965C200.6 98.4005 201.04 98.0565 201.896 97.9445C202.144 97.9125 202.432 97.9125 202.712 97.9125V98.7285C202.544 99.1365 202.144 99.5925 201.392 99.5925ZM205.123 100V94.6645H204.499V100H205.123ZM209.57 100.064C210.354 100.064 210.938 99.6085 211.074 98.7205L210.53 98.6645C210.41 99.3205 210.106 99.6005 209.586 99.6005C208.994 99.6005 208.53 99.1125 208.53 98.0245C208.53 97.0405 208.914 96.4805 209.546 96.4805C210.09 96.4805 210.402 96.8325 210.498 97.4805L211.082 97.4085C210.906 96.4405 210.378 95.9845 209.538 95.9845C208.538 95.9845 207.874 96.8645 207.874 98.0085C207.874 99.3285 208.602 100.064 209.57 100.064ZM213.369 100.064C214.345 100.064 215.153 99.2565 215.153 98.0165C215.153 96.8005 214.449 95.9845 213.369 95.9845C212.401 95.9845 211.601 96.7765 211.601 98.0085C211.601 99.2565 212.353 100.064 213.369 100.064ZM213.361 99.6005C212.697 99.6005 212.257 99.0085 212.257 98.0165C212.257 97.0005 212.737 96.4725 213.361 96.4725C214.017 96.4725 214.497 96.9845 214.497 98.0085C214.497 99.0725 214.009 99.6005 213.361 99.6005ZM216.661 100V97.2965C217.021 96.7925 217.349 96.4965 217.805 96.4965C218.189 96.4965 218.389 96.7605 218.389 97.2325V100H218.997V97.3045C219.245 96.9125 219.653 96.5125 220.141 96.5125C220.525 96.5125 220.741 96.7285 220.741 97.2405V100H221.357V97.2005C221.357 96.8805 221.277 96.6245 221.157 96.4405C220.997 96.1445 220.725 95.9925 220.317 95.9925C219.693 95.9925 219.229 96.4405 218.957 96.8725C218.909 96.3125 218.541 95.9845 217.965 95.9845C217.397 95.9845 216.877 96.4565 216.645 96.8485V96.0565H216.045V100H216.661ZM224.378 100.056C225.17 100.056 225.882 99.3605 225.882 98.0245C225.882 96.6005 225.274 95.9845 224.394 95.9845C223.762 95.9845 223.362 96.3685 223.122 96.7525V96.0565H222.53V101.336H223.146V99.4805C223.386 99.7685 223.802 100.056 224.378 100.056ZM224.21 99.6005C223.642 99.6005 223.354 99.2485 223.146 98.9525V97.2885C223.426 96.7365 223.794 96.4965 224.25 96.4965C224.93 96.4965 225.234 96.9845 225.234 98.0405C225.234 99.1765 224.834 99.6005 224.21 99.6005ZM228.252 100.064C229.228 100.064 230.036 99.2565 230.036 98.0165C230.036 96.8005 229.332 95.9845 228.252 95.9845C227.284 95.9845 226.484 96.7765 226.484 98.0085C226.484 99.2565 227.236 100.064 228.252 100.064ZM228.243 99.6005C227.58 99.6005 227.14 99.0085 227.14 98.0165C227.14 97.0005 227.62 96.4725 228.243 96.4725C228.9 96.4725 229.38 96.9845 229.38 98.0085C229.38 99.0725 228.892 99.6005 228.243 99.6005ZM231.552 100V97.2965C231.88 96.8245 232.296 96.5045 232.8 96.5045C233.248 96.5045 233.456 96.7285 233.456 97.2005V100H234.08V97.2085C234.08 96.4005 233.72 95.9845 232.984 95.9845C232.28 95.9845 231.792 96.4485 231.52 96.8405V96.0565H230.928V100H231.552ZM236.776 100.064C237.56 100.064 238.168 99.6565 238.44 98.8965L237.896 98.8165C237.672 99.4005 237.264 99.5925 236.832 99.5925C236.064 99.5925 235.616 99.0885 235.6 98.0965H238.512C238.504 98.0085 238.512 97.9205 238.504 97.8325C238.424 96.7365 237.824 95.9845 236.792 95.9845C235.776 95.9845 234.968 96.7605 234.968 98.0965C234.968 99.2725 235.696 100.064 236.776 100.064ZM235.624 97.6725C235.672 96.9285 236.16 96.4565 236.792 96.4565C237.424 96.4565 237.816 96.9125 237.88 97.6725H235.624ZM239.997 100V97.2965C240.325 96.8245 240.741 96.5045 241.245 96.5045C241.693 96.5045 241.901 96.7285 241.901 97.2005V100H242.525V97.2085C242.525 96.4005 242.165 95.9845 241.429 95.9845C240.725 95.9845 240.237 96.4485 239.965 96.8405V96.0565H239.373V100H239.997ZM244.813 100.056C245.029 100.056 245.269 100.032 245.485 99.9925V99.5045C245.341 99.5285 245.109 99.5525 244.925 99.5525C244.589 99.5445 244.373 99.3605 244.373 98.9445V96.5525H245.261V96.0565H244.373V95.0245H243.805L243.773 96.0565H243.125V96.5525H243.765V98.9125C243.765 99.7285 244.149 100.056 244.813 100.056ZM245.826 94.6645C246.49 95.7285 246.81 96.8165 246.81 98.0005C246.81 99.2325 246.506 100.304 245.834 101.336H246.242C247.01 100.288 247.394 99.1525 247.394 98.0085C247.394 96.8005 247.002 95.6725 246.234 94.6645H245.826Z" fill="#666666"/>
<rect x="140.5" y="59.5" width="119" height="63.001" rx="1.5" stroke="#D4D4D4"/>
<path d="M195.207 59.5L200 54.7071L204.793 59.5H204.707L200.354 55.1464L200 54.7929L199.646 55.1464L195.293 59.5H195.207Z" stroke="#D4D4D4"/>
<path d="M200 55.5L195.5 60H204.5L200 55.5Z" fill="white"/>
<rect x="435.5" y="0.5" width="119" height="63.001" rx="1.5" fill="white"/>
<rect width="104" height="48.001" transform="translate(443 8)" fill="#F0F0F0"/>
<path d="M473.508 30.0005V23.5085H475.56V21.9965H469.536V23.5085H471.612V30.0005H473.508ZM478.38 30.0965C480.24 30.0965 481.488 28.7765 481.488 27.0365C481.488 25.1885 480.264 23.9405 478.416 23.9405C476.652 23.9405 475.356 25.2245 475.356 27.0725C475.356 28.8125 476.604 30.0965 478.38 30.0965ZM478.44 28.8965C477.696 28.8965 477.336 28.3085 477.336 27.0125C477.336 25.7525 477.72 25.1765 478.428 25.1765C479.16 25.1765 479.496 25.7645 479.496 27.0125C479.496 28.3205 479.124 28.8965 478.44 28.8965ZM486.052 30.0845C487.348 30.0845 488.32 28.9925 488.32 27.0125C488.32 24.8765 487.492 23.9405 486.208 23.9405C485.2 23.9405 484.708 24.5165 484.336 25.0445V24.0485H482.572V31.9205H484.432V29.4005C484.84 29.7605 485.272 30.0845 486.052 30.0845ZM485.428 28.9565C484.9 28.9565 484.636 28.6085 484.42 28.3565V25.9925C484.648 25.5245 484.972 25.2365 485.44 25.2365C486.1 25.2365 486.388 25.6805 486.388 27.0965C486.388 28.5725 486.052 28.9565 485.428 28.9565ZM491.803 27.4805V25.9565H488.935V27.4805H491.803ZM495.695 30.1205C497.843 30.1205 498.887 29.1005 498.887 27.6845C498.887 26.0165 497.639 25.5245 496.307 25.2125C495.203 24.9485 494.423 24.8165 494.423 24.1085C494.423 23.6405 494.867 23.3645 495.527 23.3645C496.259 23.3645 496.787 23.6645 497.015 24.3245L498.683 23.8205C498.227 22.5965 497.243 21.8525 495.551 21.8525C493.619 21.8525 492.455 22.8125 492.455 24.1685C492.455 25.9325 493.871 26.3525 495.107 26.6525C496.079 26.8925 496.955 27.0605 496.955 27.7925C496.955 28.3205 496.451 28.6445 495.659 28.6445C494.567 28.6445 494.051 28.1765 493.727 27.3965L492.167 27.9965C492.635 29.2085 493.571 30.1205 495.695 30.1205ZM502.268 30.0845C502.64 30.0845 503.06 30.0485 503.348 30.0125V28.6805C503.096 28.7045 502.868 28.7045 502.64 28.6805C502.196 28.6205 502.004 28.3565 502.004 27.8885V25.3085H503.228V24.0485H502.004V22.2245H500.324L500.204 24.0485H499.244V25.3085H500.192V28.1885C500.192 29.4485 500.912 30.0845 502.268 30.0845ZM505.832 30.0725C506.888 30.0725 507.512 29.7605 508.028 29.2325C508.028 29.5685 508.052 29.8805 508.124 30.0005H509.9C509.792 29.7725 509.768 29.1845 509.768 28.8365V26.0885C509.768 24.8045 509.192 23.9405 507.188 23.9405C505.436 23.9405 504.44 24.5525 504.152 25.7405L505.856 25.8965C505.976 25.3925 506.312 25.1525 507.008 25.1525C507.656 25.1525 507.932 25.4405 507.968 25.9085C507.968 25.9565 507.98 26.1365 507.98 26.1965C507.728 26.2085 507.488 26.2325 507.26 26.2565C505.184 26.4605 503.996 27.1205 503.996 28.4405C503.996 29.4485 504.728 30.0725 505.832 30.0725ZM506.672 28.9205C506.204 28.9205 505.916 28.7165 505.916 28.2725C505.916 27.7085 506.432 27.3605 507.344 27.2045C507.536 27.1685 507.752 27.1445 507.98 27.1325V28.1765C507.728 28.5605 507.284 28.9205 506.672 28.9205ZM513.073 30.0005V26.4365C513.409 25.8005 514.009 25.4405 514.717 25.4405C514.873 25.4405 515.137 25.4525 515.257 25.4765V23.9765C515.161 23.9525 515.005 23.9405 514.825 23.9405C513.949 23.9405 513.241 24.5885 512.965 25.2965V24.0485H511.189V30.0005H513.073ZM518.592 30.0845C518.964 30.0845 519.384 30.0485 519.672 30.0125V28.6805C519.42 28.7045 519.192 28.7045 518.964 28.6805C518.52 28.6205 518.328 28.3565 518.328 27.8885V25.3085H519.552V24.0485H518.328V22.2245H516.648L516.528 24.0485H515.568V25.3085H516.516V28.1885C516.516 29.4485 517.236 30.0845 518.592 30.0845Z" fill="#111111"/>
<path d="M448.464 35.6645C447.696 36.7125 447.312 37.8485 447.312 38.9925C447.312 40.1925 447.704 41.3285 448.472 42.3365H448.88C448.224 41.2725 447.896 40.1845 447.896 39.0005C447.896 37.7685 448.208 36.6965 448.872 35.6645H448.464ZM451.437 41.0885C452.653 41.0885 453.373 40.4965 453.373 39.5525C453.373 38.6565 452.765 38.2805 451.645 37.9845C450.549 37.6965 450.157 37.4965 450.157 36.9045C450.157 36.4485 450.597 36.1125 451.269 36.1125C451.941 36.1125 452.453 36.4645 452.613 37.0645L453.229 36.8725C452.973 36.0405 452.277 35.5605 451.277 35.5605C450.245 35.5605 449.493 36.1125 449.493 36.9765C449.493 37.9205 450.237 38.2725 451.221 38.5205C452.101 38.7525 452.717 38.9445 452.717 39.6085C452.717 40.2165 452.229 40.5445 451.445 40.5445C450.509 40.5445 450.053 40.1605 449.805 39.5125L449.237 39.7365C449.589 40.6245 450.277 41.0885 451.437 41.0885ZM455.448 41.0005L456.216 38.3125L456.296 37.9685L456.392 38.3285L457.192 41.0005H457.72L458.896 37.0565H458.36L457.592 39.7925L457.488 40.1285L457.4 39.7765L456.592 37.0565H456.08L455.328 39.7525L455.232 40.1125L455.144 39.7525L454.36 37.0565H453.728L454.92 41.0005H455.448ZM460.419 41.0485C461.155 41.0485 461.619 40.7685 461.931 40.3365C461.923 40.5365 461.955 40.8645 462.003 41.0005H462.595C462.531 40.7525 462.507 40.4805 462.507 40.2325V38.4405C462.507 37.4485 462.075 36.9845 460.955 36.9845C460.019 36.9845 459.403 37.3685 459.259 38.0885L459.835 38.1525C459.963 37.6485 460.299 37.4725 460.939 37.4725C461.603 37.4725 461.859 37.7045 461.907 38.1365C461.923 38.2325 461.923 38.3685 461.923 38.5045C461.611 38.5125 461.347 38.5125 461.027 38.5525C459.947 38.6805 459.163 39.1045 459.163 39.9605C459.163 40.6805 459.723 41.0485 460.419 41.0485ZM460.603 40.5925C460.075 40.5925 459.811 40.3525 459.811 39.8965C459.811 39.4005 460.251 39.0565 461.107 38.9445C461.355 38.9125 461.643 38.9125 461.923 38.9125V39.7285C461.755 40.1365 461.355 40.5925 460.603 40.5925ZM465.542 41.0565C466.334 41.0565 467.046 40.3605 467.046 39.0245C467.046 37.6005 466.438 36.9845 465.558 36.9845C464.926 36.9845 464.526 37.3685 464.286 37.7525V37.0565H463.694V42.3365H464.31V40.4805C464.55 40.7685 464.966 41.0565 465.542 41.0565ZM465.374 40.6005C464.806 40.6005 464.518 40.2485 464.31 39.9525V38.2885C464.59 37.7365 464.958 37.4965 465.414 37.4965C466.094 37.4965 466.398 37.9845 466.398 39.0405C466.398 40.1765 465.998 40.6005 465.374 40.6005ZM470.963 41.0005L471.731 38.3125L471.811 37.9685L471.907 38.3285L472.707 41.0005H473.235L474.411 37.0565H473.875L473.107 39.7925L473.003 40.1285L472.915 39.7765L472.107 37.0565H471.595L470.843 39.7525L470.747 40.1125L470.659 39.7525L469.875 37.0565H469.243L470.435 41.0005H470.963ZM475.709 36.3605V35.6565H475.029V36.3605H475.709ZM475.685 41.0005V37.0565H475.061V41.0005H475.685ZM478.001 41.0565C478.217 41.0565 478.457 41.0325 478.673 40.9925V40.5045C478.529 40.5285 478.297 40.5525 478.113 40.5525C477.777 40.5445 477.561 40.3605 477.561 39.9445V37.5525H478.449V37.0565H477.561V36.0245H476.993L476.961 37.0565H476.313V37.5525H476.953V39.9125C476.953 40.7285 477.337 41.0565 478.001 41.0565ZM479.982 41.0005V38.3045C480.31 37.8325 480.702 37.5045 481.254 37.5045C481.654 37.5045 481.894 37.7285 481.894 38.2085V41.0005H482.518V38.1605C482.518 37.5125 482.23 36.9845 481.43 36.9845C480.694 36.9845 480.214 37.4245 479.958 37.8325V35.6645H479.358V41.0005H479.982ZM486.185 41.0005V35.6645H485.561V41.0005H486.185ZM488.861 41.0645C489.837 41.0645 490.645 40.2565 490.645 39.0165C490.645 37.8005 489.941 36.9845 488.861 36.9845C487.893 36.9845 487.093 37.7765 487.093 39.0085C487.093 40.2565 487.845 41.0645 488.861 41.0645ZM488.853 40.6005C488.189 40.6005 487.749 40.0085 487.749 39.0165C487.749 38.0005 488.229 37.4725 488.853 37.4725C489.509 37.4725 489.989 37.9845 489.989 39.0085C489.989 40.0725 489.501 40.6005 488.853 40.6005ZM492.93 41.0645C493.714 41.0645 494.298 40.6085 494.434 39.7205L493.89 39.6645C493.77 40.3205 493.466 40.6005 492.946 40.6005C492.354 40.6005 491.89 40.1125 491.89 39.0245C491.89 38.0405 492.274 37.4805 492.906 37.4805C493.45 37.4805 493.762 37.8325 493.858 38.4805L494.442 38.4085C494.266 37.4405 493.738 36.9845 492.898 36.9845C491.898 36.9845 491.234 37.8645 491.234 39.0085C491.234 40.3285 491.962 41.0645 492.93 41.0645ZM496.208 41.0485C496.944 41.0485 497.408 40.7685 497.72 40.3365C497.712 40.5365 497.744 40.8645 497.792 41.0005H498.384C498.32 40.7525 498.296 40.4805 498.296 40.2325V38.4405C498.296 37.4485 497.864 36.9845 496.744 36.9845C495.808 36.9845 495.192 37.3685 495.048 38.0885L495.624 38.1525C495.752 37.6485 496.088 37.4725 496.728 37.4725C497.392 37.4725 497.648 37.7045 497.696 38.1365C497.712 38.2325 497.712 38.3685 497.712 38.5045C497.4 38.5125 497.136 38.5125 496.816 38.5525C495.736 38.6805 494.952 39.1045 494.952 39.9605C494.952 40.6805 495.512 41.0485 496.208 41.0485ZM496.392 40.5925C495.864 40.5925 495.6 40.3525 495.6 39.8965C495.6 39.4005 496.04 39.0565 496.896 38.9445C497.144 38.9125 497.432 38.9125 497.712 38.9125V39.7285C497.544 40.1365 497.144 40.5925 496.392 40.5925ZM500.123 41.0005V35.6645H499.499V41.0005H500.123ZM504.57 41.0645C505.354 41.0645 505.938 40.6085 506.074 39.7205L505.53 39.6645C505.41 40.3205 505.106 40.6005 504.586 40.6005C503.994 40.6005 503.53 40.1125 503.53 39.0245C503.53 38.0405 503.914 37.4805 504.546 37.4805C505.09 37.4805 505.402 37.8325 505.498 38.4805L506.082 38.4085C505.906 37.4405 505.378 36.9845 504.538 36.9845C503.538 36.9845 502.874 37.8645 502.874 39.0085C502.874 40.3285 503.602 41.0645 504.57 41.0645ZM508.369 41.0645C509.345 41.0645 510.153 40.2565 510.153 39.0165C510.153 37.8005 509.449 36.9845 508.369 36.9845C507.401 36.9845 506.601 37.7765 506.601 39.0085C506.601 40.2565 507.353 41.0645 508.369 41.0645ZM508.361 40.6005C507.697 40.6005 507.257 40.0085 507.257 39.0165C507.257 38.0005 507.737 37.4725 508.361 37.4725C509.017 37.4725 509.497 37.9845 509.497 39.0085C509.497 40.0725 509.009 40.6005 508.361 40.6005ZM511.661 41.0005V38.2965C512.021 37.7925 512.349 37.4965 512.805 37.4965C513.189 37.4965 513.389 37.7605 513.389 38.2325V41.0005H513.997V38.3045C514.245 37.9125 514.653 37.5125 515.141 37.5125C515.525 37.5125 515.741 37.7285 515.741 38.2405V41.0005H516.357V38.2005C516.357 37.8805 516.277 37.6245 516.157 37.4405C515.997 37.1445 515.725 36.9925 515.317 36.9925C514.693 36.9925 514.229 37.4405 513.957 37.8725C513.909 37.3125 513.541 36.9845 512.965 36.9845C512.397 36.9845 511.877 37.4565 511.645 37.8485V37.0565H511.045V41.0005H511.661ZM519.378 41.0565C520.17 41.0565 520.882 40.3605 520.882 39.0245C520.882 37.6005 520.274 36.9845 519.394 36.9845C518.762 36.9845 518.362 37.3685 518.122 37.7525V37.0565H517.53V42.3365H518.146V40.4805C518.386 40.7685 518.802 41.0565 519.378 41.0565ZM519.21 40.6005C518.642 40.6005 518.354 40.2485 518.146 39.9525V38.2885C518.426 37.7365 518.794 37.4965 519.25 37.4965C519.93 37.4965 520.234 37.9845 520.234 39.0405C520.234 40.1765 519.834 40.6005 519.21 40.6005ZM523.252 41.0645C524.228 41.0645 525.036 40.2565 525.036 39.0165C525.036 37.8005 524.332 36.9845 523.252 36.9845C522.284 36.9845 521.484 37.7765 521.484 39.0085C521.484 40.2565 522.236 41.0645 523.252 41.0645ZM523.243 40.6005C522.58 40.6005 522.14 40.0085 522.14 39.0165C522.14 38.0005 522.62 37.4725 523.243 37.4725C523.9 37.4725 524.38 37.9845 524.38 39.0085C524.38 40.0725 523.892 40.6005 523.243 40.6005ZM526.552 41.0005V38.2965C526.88 37.8245 527.296 37.5045 527.8 37.5045C528.248 37.5045 528.456 37.7285 528.456 38.2005V41.0005H529.08V38.2085C529.08 37.4005 528.72 36.9845 527.984 36.9845C527.28 36.9845 526.792 37.4485 526.52 37.8405V37.0565H525.928V41.0005H526.552ZM531.776 41.0645C532.56 41.0645 533.168 40.6565 533.44 39.8965L532.896 39.8165C532.672 40.4005 532.264 40.5925 531.832 40.5925C531.064 40.5925 530.616 40.0885 530.6 39.0965H533.512C533.504 39.0085 533.512 38.9205 533.504 38.8325C533.424 37.7365 532.824 36.9845 531.792 36.9845C530.776 36.9845 529.968 37.7605 529.968 39.0965C529.968 40.2725 530.696 41.0645 531.776 41.0645ZM530.624 38.6725C530.672 37.9285 531.16 37.4565 531.792 37.4565C532.424 37.4565 532.816 37.9125 532.88 38.6725H530.624ZM534.997 41.0005V38.2965C535.325 37.8245 535.741 37.5045 536.245 37.5045C536.693 37.5045 536.901 37.7285 536.901 38.2005V41.0005H537.525V38.2085C537.525 37.4005 537.165 36.9845 536.429 36.9845C535.725 36.9845 535.237 37.4485 534.965 37.8405V37.0565H534.373V41.0005H534.997ZM539.813 41.0565C540.029 41.0565 540.269 41.0325 540.485 40.9925V40.5045C540.341 40.5285 540.109 40.5525 539.925 40.5525C539.589 40.5445 539.373 40.3605 539.373 39.9445V37.5525H540.261V37.0565H539.373V36.0245H538.805L538.773 37.0565H538.125V37.5525H538.765V39.9125C538.765 40.7285 539.149 41.0565 539.813 41.0565ZM540.826 35.6645C541.49 36.7285 541.81 37.8165 541.81 39.0005C541.81 40.2325 541.506 41.3045 540.834 42.3365H541.242C542.01 41.2885 542.394 40.1525 542.394 39.0085C542.394 37.8005 542.002 36.6725 541.234 35.6645H540.826Z" fill="#666666"/>
<rect x="435.5" y="0.5" width="119" height="63.001" rx="1.5" stroke="#D4D4D4"/>
<path d="M499.793 63.5L495 68.2929L490.207 63.5H490.293L494.646 67.8536L495 68.2071L495.354 67.8536L499.707 63.5H499.793Z" stroke="#D4D4D4"/>
<path d="M495 67.5L499.5 63H490.5L495 67.5Z" fill="white"/>
<rect x="180" y="10" width="40" height="40" rx="20" fill="#494949"/>
<g clip-path="url(#clip0_2310_22998)">
<path d="M206 29.5H200.5V24H199.5V29.5H194V30.5H199.5V36H200.5V30.5H206V29.5Z" fill="white"/>
</g>
<rect x="475" y="73" width="40" height="40" rx="20" fill="#494949"/>
<g clip-path="url(#clip1_2310_22998)">
<path d="M501 92.5H495.5V87H494.5V92.5H489V93.5H494.5V99H495.5V93.5H501V92.5Z" fill="white"/>
</g>
<path d="M8.59119 141V139.896H3.02319V135.992H7.07119V134.904H3.02319V131.48H8.44719V130.328H1.69519V141H8.59119ZM12.2644 141.128C13.4164 141.128 14.2164 140.664 14.8404 139.8V141H16.0084V130.328H14.8084V134.184C14.4404 133.656 13.6884 132.968 12.4884 132.968C10.4724 132.968 9.25644 134.744 9.25644 137.08C9.25644 139.656 10.3604 141.128 12.2644 141.128ZM12.6004 140.184C11.2884 140.184 10.5524 139.272 10.5524 137.08C10.5524 135.064 11.2564 133.944 12.6804 133.944C13.8484 133.944 14.3924 134.616 14.7924 135.368V138.584C14.4564 139.464 13.7844 140.184 12.6004 140.184ZM21.3702 143.976C23.9302 143.976 25.2262 143.016 25.2262 141.64C25.2262 140.344 24.3302 139.816 21.8182 139.768C20.2182 139.72 19.2262 139.72 19.2262 139.016C19.2262 138.536 19.6742 138.232 20.0902 138.232C20.2182 138.264 20.7302 138.376 21.2422 138.376C23.0342 138.376 24.1222 137.24 24.1222 135.672C24.1222 134.856 23.8182 134.232 23.4022 133.864C23.5302 133.288 23.8662 132.952 24.6662 132.968C24.7622 132.968 24.8422 132.984 24.9382 133L24.9222 131.96C24.8742 131.96 24.7782 131.96 24.7302 131.96C23.3862 131.944 22.9542 132.488 22.7622 133.352C22.2822 133.096 21.7062 132.968 21.1142 132.968C19.5302 132.968 18.1702 134.056 18.1702 135.672C18.1702 136.632 18.5542 137.448 19.3222 137.848C18.6182 138.04 18.0742 138.52 18.0742 139.192C18.0742 139.8 18.3942 140.248 19.1942 140.472C18.2342 140.712 17.6582 141.304 17.6582 142.088C17.6582 143.304 18.9382 143.976 21.3702 143.976ZM21.1782 137.544C20.1062 137.544 19.4022 136.904 19.4022 135.672C19.4022 134.68 20.0102 133.864 21.1782 133.864C22.3622 133.864 22.9542 134.728 22.9542 135.688C22.9542 136.872 22.2982 137.544 21.1782 137.544ZM21.2742 143.144C19.5142 143.144 18.7942 142.696 18.7942 141.944C18.7942 141.24 19.2742 140.92 19.8982 140.744C23.4502 140.824 24.0422 141 24.0422 141.8C24.0422 142.6 23.0342 143.144 21.2742 143.144ZM29.3256 141.128C30.8936 141.128 32.1096 140.312 32.6536 138.792L31.5656 138.632C31.1176 139.8 30.3016 140.184 29.4376 140.184C27.9016 140.184 27.0056 139.176 26.9736 137.192H32.7976C32.7816 137.016 32.7976 136.84 32.7816 136.664C32.6216 134.472 31.4216 132.968 29.3576 132.968C27.3256 132.968 25.7096 134.52 25.7096 137.192C25.7096 139.544 27.1656 141.128 29.3256 141.128ZM27.0216 136.344C27.1176 134.856 28.0936 133.912 29.3576 133.912C30.6216 133.912 31.4056 134.824 31.5336 136.344H27.0216ZM41.1358 141.128C43.0878 141.128 44.7038 139.512 44.7038 137.032C44.7038 134.6 43.2958 132.968 41.1358 132.968C39.1998 132.968 37.5998 134.552 37.5998 137.016C37.5998 139.512 39.1038 141.128 41.1358 141.128ZM41.1198 140.2C39.7918 140.2 38.9118 139.016 38.9118 137.032C38.9118 135 39.8718 133.944 41.1198 133.944C42.4318 133.944 43.3918 134.968 43.3918 137.016C43.3918 139.144 42.4158 140.2 41.1198 140.2ZM47.8491 141V134.056H49.7691V133.112H47.8491C47.8491 133.064 47.8491 132.728 47.8491 132.36C47.8491 131.48 48.2331 131.032 49.1931 131.032C49.4011 131.032 49.8971 131.064 50.2331 131.112V130.12C49.9291 130.072 49.4011 130.024 49.0971 130.024C47.4491 130.024 46.6171 130.776 46.6171 132.328C46.6171 132.44 46.6171 133 46.6171 133.112H45.2251V134.056H46.6171V141H47.8491ZM56.9188 141L58.4548 135.624L58.6148 134.936L58.8068 135.656L60.4068 141H61.4628L63.8148 133.112H62.7428L61.2068 138.584L60.9988 139.256L60.8228 138.552L59.2068 133.112H58.1828L56.6788 138.504L56.4868 139.224L56.3108 138.504L54.7428 133.112H53.4788L55.8628 141H56.9188ZM66.4108 131.72V130.312H65.0508V131.72H66.4108ZM66.3628 141V133.112H65.1148V141H66.3628ZM70.0339 141V135.592C70.6899 134.648 71.5219 134.008 72.5299 134.008C73.4259 134.008 73.8419 134.456 73.8419 135.4V141H75.0899V135.416C75.0899 133.8 74.3699 132.968 72.8979 132.968C71.4899 132.968 70.5139 133.896 69.9699 134.68V133.112H68.7859V141H70.0339ZM79.8738 141.128C81.0258 141.128 81.8258 140.664 82.4498 139.8V141H83.6178V130.328H82.4178V134.184C82.0498 133.656 81.2978 132.968 80.0978 132.968C78.0818 132.968 76.8658 134.744 76.8658 137.08C76.8658 139.656 77.9698 141.128 79.8738 141.128ZM80.2098 140.184C78.8978 140.184 78.1618 139.272 78.1618 137.08C78.1618 135.064 78.8658 133.944 80.2898 133.944C81.4578 133.944 82.0018 134.616 82.4018 135.368V138.584C82.0658 139.464 81.3938 140.184 80.2098 140.184ZM88.9796 141.128C90.9316 141.128 92.5476 139.512 92.5476 137.032C92.5476 134.6 91.1396 132.968 88.9796 132.968C87.0436 132.968 85.4436 134.552 85.4436 137.016C85.4436 139.512 86.9476 141.128 88.9796 141.128ZM88.9636 140.2C87.6356 140.2 86.7556 139.016 86.7556 137.032C86.7556 135 87.7156 133.944 88.9636 133.944C90.2756 133.944 91.2356 134.968 91.2356 137.016C91.2356 139.144 90.2596 140.2 88.9636 140.2ZM96.6688 141L98.2048 135.624L98.3648 134.936L98.5568 135.656L100.157 141H101.213L103.565 133.112H102.493L100.957 138.584L100.749 139.256L100.573 138.552L98.9568 133.112H97.9328L96.4288 138.504L96.2368 139.224L96.0608 138.504L94.4928 133.112H93.2288L95.6128 141H96.6688Z" fill="#94538C"/>
<line x1="108" y1="134.5" x2="573" y2="134.5" stroke="#94538C" stroke-dasharray="2 2"/>
<g filter="url(#filter0_d_2310_22998)" fill="white">
<path d="M204.27 45.28C203.99 44.92 203.64 44.19 203.03 43.28C202.68 42.78 201.82 41.83 201.56 41.34C201.373 41.0423 201.318 40.6797 201.41 40.34C201.567 39.6943 202.18 39.2659 202.84 39.34C203.351 39.4427 203.82 39.693 204.19 40.06C204.448 40.3032 204.686 40.5675 204.9 40.85C205.06 41.05 205.1 41.13 205.28 41.36C205.46 41.59 205.58 41.82 205.49 41.48C205.42 40.98 205.3 40.14 205.13 39.39C205 38.82 204.97 38.73 204.85 38.3C204.73 37.87 204.66 37.51 204.53 37.02C204.411 36.5386 204.318 36.0513 204.25 35.56C204.124 34.9318 204.216 34.2793 204.51 33.71C204.859 33.3814 205.372 33.2947 205.81 33.49C206.251 33.8154 206.579 34.2697 206.75 34.79C207.012 35.4304 207.187 36.1031 207.27 36.79C207.43 37.79 207.74 39.25 207.75 39.55C207.75 39.18 207.68 38.4 207.75 38.05C207.819 37.6852 208.073 37.3824 208.42 37.25C208.718 37.1587 209.033 37.1381 209.34 37.19C209.65 37.2549 209.925 37.4332 210.11 37.69C210.342 38.2734 210.47 38.8926 210.49 39.52C210.517 38.9706 210.611 38.4266 210.77 37.9C210.937 37.6646 211.181 37.4948 211.46 37.42C211.791 37.3596 212.129 37.3596 212.46 37.42C212.731 37.5107 212.968 37.6816 213.14 37.91C213.352 38.4404 213.48 39.0004 213.52 39.57C213.52 39.71 213.59 39.18 213.81 38.83C213.924 38.4906 214.211 38.238 214.562 38.1673C214.913 38.0966 215.275 38.2186 215.512 38.4873C215.749 38.756 215.824 39.1306 215.71 39.47C215.71 40.12 215.71 40.09 215.71 40.53C215.71 40.97 215.71 41.36 215.71 41.73C215.674 42.3152 215.593 42.8969 215.47 43.47C215.296 43.9772 215.054 44.4582 214.75 44.9C214.264 45.44 213.863 46.0502 213.56 46.71C213.485 47.0379 213.451 47.3738 213.46 47.71C213.459 48.0207 213.499 48.3301 213.58 48.63C213.171 48.6733 212.759 48.6733 212.35 48.63C211.96 48.57 211.48 47.79 211.35 47.55C211.286 47.4212 211.154 47.3398 211.01 47.3398C210.866 47.3398 210.734 47.4212 210.67 47.55C210.45 47.93 209.96 48.62 209.62 48.66C208.95 48.74 207.57 48.66 206.48 48.66C206.48 48.66 206.66 47.66 206.25 47.3C205.84 46.9401 205.42 46.52 205.11 46.24L204.27 45.28Z"/>
<path fill-rule="evenodd" clip-rule="evenodd" d="M204.27 45.28C203.99 44.92 203.64 44.19 203.03 43.28C202.68 42.78 201.82 41.83 201.56 41.34C201.373 41.0423 201.318 40.6797 201.41 40.34C201.567 39.6943 202.18 39.2659 202.84 39.34C203.351 39.4427 203.82 39.693 204.19 40.06C204.448 40.3032 204.686 40.5675 204.9 40.85C205.06 41.05 205.1 41.13 205.28 41.36C205.46 41.59 205.58 41.82 205.49 41.48C205.42 40.98 205.3 40.14 205.13 39.39C205 38.82 204.97 38.73 204.85 38.3C204.73 37.87 204.66 37.51 204.53 37.02C204.411 36.5386 204.318 36.0513 204.25 35.56C204.124 34.9318 204.216 34.2793 204.51 33.71C204.859 33.3814 205.372 33.2947 205.81 33.49C206.251 33.8154 206.579 34.2697 206.75 34.79C207.012 35.4304 207.187 36.1031 207.27 36.79C207.43 37.79 207.74 39.25 207.75 39.55C207.75 39.18 207.68 38.4 207.75 38.05C207.819 37.6852 208.073 37.3824 208.42 37.25C208.718 37.1587 209.033 37.1381 209.34 37.19C209.65 37.2549 209.925 37.4332 210.11 37.69C210.342 38.2734 210.47 38.8926 210.49 39.52C210.517 38.9706 210.611 38.4266 210.77 37.9C210.937 37.6646 211.181 37.4948 211.46 37.42C211.791 37.3596 212.129 37.3596 212.46 37.42C212.731 37.5107 212.968 37.6816 213.14 37.91C213.352 38.4404 213.48 39.0004 213.52 39.57C213.52 39.71 213.59 39.18 213.81 38.83C213.924 38.4906 214.211 38.238 214.562 38.1673C214.913 38.0966 215.275 38.2186 215.512 38.4873C215.749 38.756 215.824 39.1306 215.71 39.47C215.71 40.12 215.71 40.09 215.71 40.53C215.71 40.97 215.71 41.36 215.71 41.73C215.674 42.3152 215.593 42.8969 215.47 43.47C215.296 43.9772 215.054 44.4582 214.75 44.9C214.264 45.44 213.863 46.0502 213.56 46.71C213.485 47.0379 213.451 47.3738 213.46 47.71C213.459 48.0207 213.499 48.3301 213.58 48.63C213.171 48.6733 212.759 48.6733 212.35 48.63C211.96 48.57 211.48 47.79 211.35 47.55C211.286 47.4212 211.154 47.3398 211.01 47.3398C210.866 47.3398 210.734 47.4212 210.67 47.55C210.45 47.93 209.96 48.62 209.62 48.66C208.95 48.74 207.57 48.66 206.48 48.66C206.48 48.66 206.66 47.66 206.25 47.3C205.84 46.94 205.42 46.52 205.11 46.24L204.27 45.28Z" stroke="black" stroke-width="0.75" stroke-linecap="round" stroke-linejoin="round"/>
<path d="M212.75 45.8259V42.3741C212.75 42.1675 212.582 42 212.375 42C212.168 42 212 42.1675 212 42.3741V45.8259C212 46.0325 212.168 46.2 212.375 46.2C212.582 46.2 212.75 46.0325 212.75 45.8259Z" fill="#000001"/>
<path d="M210.77 45.8246L210.75 42.3711C210.749 42.1649 210.58 41.9988 210.373 42C210.166 42.0012 209.999 42.1693 210 42.3754L210.02 45.8289C210.021 46.035 210.19 46.2012 210.397 46.2C210.604 46.1988 210.771 46.0307 210.77 45.8246Z" fill="#000001"/>
<path d="M208 42.379L208.02 45.8254C208.021 46.0335 208.19 46.2012 208.397 46.2C208.604 46.1988 208.771 46.0291 208.77 45.821L208.75 42.3746C208.749 42.1665 208.58 41.9988 208.373 42C208.166 42.0012 207.999 42.1709 208 42.379Z" fill="#000001"/>
</g>
<g filter="url(#filter1_d_2310_22998)" fill="white">
<path d="M491.27 113.28C490.99 112.92 490.64 112.19 490.03 111.28C489.68 110.78 488.82 109.83 488.56 109.34C488.373 109.042 488.318 108.68 488.41 108.34C488.567 107.694 489.18 107.266 489.84 107.34C490.351 107.443 490.82 107.693 491.19 108.06C491.448 108.303 491.686 108.567 491.9 108.85C492.06 109.05 492.1 109.13 492.28 109.36C492.46 109.59 492.58 109.82 492.49 109.48C492.42 108.98 492.3 108.14 492.13 107.39C492 106.82 491.97 106.73 491.85 106.3C491.73 105.87 491.66 105.51 491.53 105.02C491.411 104.539 491.318 104.051 491.25 103.56C491.124 102.932 491.216 102.279 491.51 101.71C491.859 101.381 492.372 101.295 492.81 101.49C493.251 101.815 493.579 102.27 493.75 102.79C494.012 103.43 494.187 104.103 494.27 104.79C494.43 105.79 494.74 107.25 494.75 107.55C494.75 107.18 494.68 106.4 494.75 106.05C494.819 105.685 495.073 105.382 495.42 105.25C495.718 105.159 496.033 105.138 496.34 105.19C496.65 105.255 496.925 105.433 497.11 105.69C497.342 106.273 497.47 106.893 497.49 107.52C497.517 106.971 497.611 106.427 497.77 105.9C497.937 105.665 498.181 105.495 498.46 105.42C498.791 105.36 499.129 105.36 499.46 105.42C499.731 105.511 499.968 105.682 500.14 105.91C500.352 106.44 500.48 107 500.52 107.57C500.52 107.71 500.59 107.18 500.81 106.83C500.924 106.491 501.211 106.238 501.562 106.167C501.913 106.097 502.275 106.219 502.512 106.487C502.749 106.756 502.824 107.131 502.71 107.47C502.71 108.12 502.71 108.09 502.71 108.53C502.71 108.97 502.71 109.36 502.71 109.73C502.674 110.315 502.593 110.897 502.47 111.47C502.296 111.977 502.054 112.458 501.75 112.9C501.264 113.44 500.863 114.05 500.56 114.71C500.485 115.038 500.451 115.374 500.46 115.71C500.459 116.021 500.499 116.33 500.58 116.63C500.171 116.673 499.759 116.673 499.35 116.63C498.96 116.57 498.48 115.79 498.35 115.55C498.286 115.421 498.154 115.34 498.01 115.34C497.866 115.34 497.734 115.421 497.67 115.55C497.45 115.93 496.96 116.62 496.62 116.66C495.95 116.74 494.57 116.66 493.48 116.66C493.48 116.66 493.66 115.66 493.25 115.3C492.84 114.94 492.42 114.52 492.11 114.24L491.27 113.28Z"/>
<path fill-rule="evenodd" clip-rule="evenodd" d="M491.27 113.28C490.99 112.92 490.64 112.19 490.03 111.28C489.68 110.78 488.82 109.83 488.56 109.34C488.373 109.042 488.318 108.68 488.41 108.34C488.567 107.694 489.18 107.266 489.84 107.34C490.351 107.443 490.82 107.693 491.19 108.06C491.448 108.303 491.686 108.567 491.9 108.85C492.06 109.05 492.1 109.13 492.28 109.36C492.46 109.59 492.58 109.82 492.49 109.48C492.42 108.98 492.3 108.14 492.13 107.39C492 106.82 491.97 106.73 491.85 106.3C491.73 105.87 491.66 105.51 491.53 105.02C491.411 104.539 491.318 104.051 491.25 103.56C491.124 102.932 491.216 102.279 491.51 101.71C491.859 101.381 492.372 101.295 492.81 101.49C493.251 101.815 493.579 102.27 493.75 102.79C494.012 103.43 494.187 104.103 494.27 104.79C494.43 105.79 494.74 107.25 494.75 107.55C494.75 107.18 494.68 106.4 494.75 106.05C494.819 105.685 495.073 105.382 495.42 105.25C495.718 105.159 496.033 105.138 496.34 105.19C496.65 105.255 496.925 105.433 497.11 105.69C497.342 106.273 497.47 106.893 497.49 107.52C497.517 106.971 497.611 106.427 497.77 105.9C497.937 105.665 498.181 105.495 498.46 105.42C498.791 105.36 499.129 105.36 499.46 105.42C499.731 105.511 499.968 105.682 500.14 105.91C500.352 106.44 500.48 107 500.52 107.57C500.52 107.71 500.59 107.18 500.81 106.83C500.924 106.491 501.211 106.238 501.562 106.167C501.913 106.097 502.275 106.219 502.512 106.487C502.749 106.756 502.824 107.131 502.71 107.47C502.71 108.12 502.71 108.09 502.71 108.53C502.71 108.97 502.71 109.36 502.71 109.73C502.674 110.315 502.593 110.897 502.47 111.47C502.296 111.977 502.054 112.458 501.75 112.9C501.264 113.44 500.863 114.05 500.56 114.71C500.485 115.038 500.451 115.374 500.46 115.71C500.459 116.021 500.499 116.33 500.58 116.63C500.171 116.673 499.759 116.673 499.35 116.63C498.96 116.57 498.48 115.79 498.35 115.55C498.286 115.421 498.154 115.34 498.01 115.34C497.866 115.34 497.734 115.421 497.67 115.55C497.45 115.93 496.96 116.62 496.62 116.66C495.95 116.74 494.57 116.66 493.48 116.66C493.48 116.66 493.66 115.66 493.25 115.3C492.84 114.94 492.42 114.52 492.11 114.24L491.27 113.28Z" stroke="black" stroke-width="0.75" stroke-linecap="round" stroke-linejoin="round"/>
<path d="M499.75 113.826V110.374C499.75 110.167 499.582 110 499.375 110C499.168 110 499 110.167 499 110.374V113.826C499 114.033 499.168 114.2 499.375 114.2C499.582 114.2 499.75 114.033 499.75 113.826Z" fill="#000001"/>
<path d="M497.77 113.825L497.75 110.371C497.749 110.165 497.58 109.999 497.373 110C497.166 110.001 496.999 110.169 497 110.375L497.02 113.829C497.021 114.035 497.19 114.201 497.397 114.2C497.604 114.199 497.771 114.031 497.77 113.825Z" fill="#000001"/>
<path d="M495 110.379L495.02 113.825C495.021 114.033 495.19 114.201 495.397 114.2C495.604 114.199 495.771 114.029 495.77 113.821L495.75 110.375C495.749 110.167 495.58 109.999 495.373 110C495.166 110.001 494.999 110.171 495 110.379Z" fill="#000001"/>
</g>
<defs>
<filter id="filter0_d_2310_22998" x="200.191" y="33.0118" width="16.7461" height="17.8588" filterUnits="userSpaceOnUse" color-interpolation-filters="sRGB">
<feFlood flood-opacity="0" result="BackgroundImageFix"/>
<feColorMatrix in="SourceAlpha" type="matrix" values="0 0 0 0 0 0 0 0 0 0 0 0 0 0 0 0 0 0 127 0" result="hardAlpha"/>
<feOffset dy="1"/>
<feGaussianBlur stdDeviation="0.4"/>
<feColorMatrix type="matrix" values="0 0 0 0 0 0 0 0 0 0 0 0 0 0 0 0 0 0 0.5 0"/>
<feBlend mode="normal" in2="BackgroundImageFix" result="effect1_dropShadow_2310_22998"/>
<feBlend mode="normal" in="SourceGraphic" in2="effect1_dropShadow_2310_22998" result="shape"/>
</filter>
<filter id="filter1_d_2310_22998" x="487.191" y="101.012" width="16.7461" height="17.8588" filterUnits="userSpaceOnUse" color-interpolation-filters="sRGB">
<feFlood flood-opacity="0" result="BackgroundImageFix"/>
<feColorMatrix in="SourceAlpha" type="matrix" values="0 0 0 0 0 0 0 0 0 0 0 0 0 0 0 0 0 0 127 0" result="hardAlpha"/>
<feOffset dy="1"/>
<feGaussianBlur stdDeviation="0.4"/>
<feColorMatrix type="matrix" values="0 0 0 0 0 0 0 0 0 0 0 0 0 0 0 0 0 0 0.5 0"/>
<feBlend mode="normal" in2="BackgroundImageFix" result="effect1_dropShadow_2310_22998"/>
<feBlend mode="normal" in="SourceGraphic" in2="effect1_dropShadow_2310_22998" result="shape"/>
</filter>
<clipPath id="clip0_2310_22998">
<rect width="16" height="16" fill="white" transform="translate(192 22)"/>
</clipPath>
<clipPath id="clip1_2310_22998">
<rect width="16" height="16" fill="white" transform="translate(487 85)"/>
</clipPath>
</defs>
</svg>
