<svg width="573" height="145" viewBox="0 0 573 145" fill="none" xmlns="http://www.w3.org/2000/svg">
    <rect x="140.5" y="59.5" width="119" height="63.001" rx="1.5" fill="#fff"/>
    <path fill="#F0F0F0" d="M148 67h104v48.001H148z"/>
    <path d="M178.508 89v-6.492h2.052v-1.511h-6.024v1.511h2.076v6.493h1.896zm4.872.097c1.86 0 3.108-1.32 3.108-3.06 0-1.849-1.224-3.097-3.072-3.097-1.764 0-3.06 1.285-3.06 3.133 0 1.74 1.248 3.024 3.024 3.024zm.06-1.2c-.744 0-1.104-.589-1.104-1.885 0-1.26.384-1.835 1.092-1.835.732 0 1.068.587 1.068 1.835 0 1.308-.372 1.885-1.056 1.885zm7.612 1.188c1.296 0 2.268-1.092 2.268-3.072 0-2.137-.828-3.073-2.112-3.073-1.008 0-1.5.576-1.872 1.105v-.996h-1.764v7.871h1.86V88.4c.408.36.84.684 1.62.684zm-.624-1.128c-.528 0-.792-.348-1.008-.6v-2.364c.228-.468.552-.756 1.02-.756.66 0 .948.444.948 1.86 0 1.476-.336 1.86-.96 1.86zm6.375-1.476v-1.524h-2.868v1.524h2.868zm3.892 2.64c2.148 0 3.192-1.02 3.192-2.436 0-1.669-1.248-2.16-2.58-2.472-1.104-.264-1.884-.396-1.884-1.104 0-.468.444-.744 1.104-.744.732 0 1.26.3 1.488.96l1.668-.505c-.456-1.223-1.44-1.967-3.132-1.967-1.932 0-3.096.96-3.096 2.316 0 1.764 1.416 2.184 2.652 2.484.972.24 1.848.407 1.848 1.14 0 .527-.504.851-1.296.851-1.092 0-1.608-.468-1.932-1.248l-1.56.6c.468 1.213 1.404 2.125 3.528 2.125zm6.573-.036c.372 0 .792-.036 1.08-.072V87.68c-.252.024-.48.024-.708 0-.444-.06-.636-.324-.636-.792v-2.58h1.224v-1.26h-1.224v-1.823h-1.68l-.12 1.824h-.96v1.26h.948v2.88c0 1.26.72 1.896 2.076 1.896zm3.564-.012c1.056 0 1.68-.313 2.196-.84 0 .335.024.647.096.767h1.776c-.108-.228-.132-.816-.132-1.163v-2.749c0-1.283-.576-2.147-2.58-2.147-1.752 0-2.748.611-3.036 1.8l1.704.156c.12-.505.456-.745 1.152-.745.648 0 .924.288.96.757 0 .047.012.227.012.287-.252.013-.492.037-.72.06-2.076.204-3.264.865-3.264 2.184 0 1.008.732 1.633 1.836 1.633zm.84-1.152c-.468 0-.756-.205-.756-.649 0-.564.516-.912 1.428-1.068.192-.035.408-.06.636-.072v1.044c-.252.385-.696.745-1.308.745zm6.401 1.08v-3.565a1.81 1.81 0 0 1 1.644-.996c.156 0 .42.013.54.037v-1.5a1.993 1.993 0 0 0-.432-.037c-.876 0-1.584.648-1.86 1.356v-1.248h-1.776v5.953h1.884zm5.519.084c.372 0 .792-.036 1.08-.072V87.68c-.252.024-.48.024-.708 0-.444-.06-.636-.324-.636-.792v-2.58h1.224v-1.26h-1.224v-1.823h-1.68l-.12 1.824h-.96v1.26h.948v2.88c0 1.26.72 1.896 2.076 1.896z" fill="#111"/>
    <path d="M153.464 94.665c-.768 1.047-1.152 2.183-1.152 3.328 0 1.2.392 2.335 1.16 3.343h.408c-.656-1.064-.984-2.151-.984-3.335 0-1.233.312-2.305.976-3.337h-.408zm2.973 5.423c1.216 0 1.936-.591 1.936-1.535 0-.897-.608-1.272-1.728-1.569-1.096-.287-1.488-.487-1.488-1.08 0-.456.44-.791 1.112-.791.672 0 1.184.352 1.344.951l.616-.191c-.256-.833-.952-1.313-1.952-1.313-1.032 0-1.784.552-1.784 1.416 0 .945.744 1.296 1.728 1.544.88.233 1.496.425 1.496 1.089 0 .608-.488.936-1.272.936-.936 0-1.392-.385-1.64-1.032l-.568.224c.352.888 1.04 1.351 2.2 1.351zm4.011-.088.768-2.688.08-.343.096.36.8 2.671h.528l1.176-3.944h-.536l-.768 2.737-.104.335-.088-.352-.808-2.72h-.512l-.752 2.697-.096.36-.088-.36-.784-2.697h-.632L159.92 100h.528zm4.971.048c.736 0 1.2-.28 1.512-.712-.008.2.024.529.072.664h.592a3.138 3.138 0 0 1-.088-.767V97.44c0-.992-.432-1.456-1.552-1.456-.936 0-1.552.385-1.696 1.105l.576.064c.128-.505.464-.68 1.104-.68.664 0 .92.231.968.663.016.097.016.233.016.368-.312.008-.576.008-.896.048-1.08.128-1.864.552-1.864 1.408 0 .72.56 1.088 1.256 1.088zm.184-.456c-.528 0-.792-.24-.792-.695 0-.497.44-.84 1.296-.953.248-.032.536-.032.816-.032v.816c-.168.409-.568.865-1.32.865zm4.939.464c.792 0 1.504-.695 1.504-2.031 0-1.425-.608-2.04-1.488-2.04-.632 0-1.032.383-1.272.767v-.695h-.592v5.279h.616v-1.855c.24.288.656.575 1.232.575zm-.168-.456c-.568 0-.856-.351-1.064-.647v-1.665c.28-.551.648-.791 1.104-.791.68 0 .984.487.984 1.543 0 1.136-.4 1.56-1.024 1.56zm5.589.4.768-2.688.08-.343.096.36.8 2.671h.528l1.176-3.944h-.536l-.768 2.737-.104.335-.088-.352-.808-2.72h-.512l-.752 2.697-.096.36-.088-.36-.784-2.697h-.632l1.192 3.944h.528zm4.746-4.64v-.704h-.68v.704h.68zm-.024 4.64v-3.944h-.624V100h.624zm2.316.056c.216 0 .456-.024.672-.063v-.489a3.849 3.849 0 0 1-.56.048c-.336-.008-.552-.192-.552-.608v-2.392h.888v-.496h-.888v-1.031h-.568l-.032 1.031h-.648v.496h.64v2.36c0 .816.384 1.144 1.048 1.144zm1.981-.056v-2.695c.328-.473.72-.8 1.272-.8.4 0 .64.224.64.704V100h.624v-2.84c0-.647-.288-1.175-1.088-1.175-.736 0-1.216.44-1.472.847v-2.167h-.6V100h.624zm6.203 0v-5.335h-.624V100h.624zm2.676.064c.976 0 1.784-.807 1.784-2.047 0-1.216-.704-2.032-1.784-2.032-.968 0-1.768.791-1.768 2.023 0 1.249.752 2.056 1.768 2.056zm-.008-.463c-.664 0-1.104-.593-1.104-1.585 0-1.016.48-1.544 1.104-1.544.656 0 1.136.513 1.136 1.537 0 1.064-.488 1.591-1.136 1.591zm4.077.463c.784 0 1.368-.455 1.504-1.343l-.544-.056c-.12.655-.424.935-.944.935-.592 0-1.056-.487-1.056-1.575 0-.985.384-1.544 1.016-1.544.544 0 .856.352.952 1l.584-.072c-.176-.969-.704-1.425-1.544-1.425-1 0-1.664.88-1.664 2.025 0 1.32.728 2.055 1.696 2.055zm3.278-.016c.736 0 1.2-.28 1.512-.712-.008.2.024.529.072.664h.592a3.138 3.138 0 0 1-.088-.767V97.44c0-.992-.432-1.456-1.552-1.456-.936 0-1.552.385-1.696 1.105l.576.064c.128-.505.464-.68 1.104-.68.664 0 .92.231.968.663.016.097.016.233.016.368-.312.008-.576.008-.896.048-1.08.128-1.864.552-1.864 1.408 0 .72.56 1.088 1.256 1.088zm.184-.456c-.528 0-.792-.24-.792-.695 0-.497.44-.84 1.296-.953.248-.032.536-.032.816-.032v.816c-.168.409-.568.865-1.32.865zm3.731.408v-5.335h-.624V100h.624zm4.447.064c.784 0 1.368-.455 1.504-1.343l-.544-.056c-.12.655-.424.935-.944.935-.592 0-1.056-.487-1.056-1.575 0-.985.384-1.544 1.016-1.544.544 0 .856.352.952 1l.584-.072c-.176-.969-.704-1.425-1.544-1.425-1 0-1.664.88-1.664 2.025 0 1.32.728 2.055 1.696 2.055zm3.799 0c.976 0 1.784-.807 1.784-2.047 0-1.216-.704-2.032-1.784-2.032-.968 0-1.768.791-1.768 2.023 0 1.249.752 2.056 1.768 2.056zm-.008-.463c-.664 0-1.104-.593-1.104-1.585 0-1.016.48-1.544 1.104-1.544.656 0 1.136.513 1.136 1.537 0 1.064-.488 1.591-1.136 1.591zm3.3.399v-2.704c.36-.504.688-.8 1.144-.8.384 0 .584.264.584.737V100h.608v-2.695c.248-.393.656-.793 1.144-.793.384 0 .6.216.6.728V100h.616v-2.8c0-.32-.08-.576-.2-.76-.16-.296-.432-.447-.84-.447-.624 0-1.088.448-1.36.88-.048-.56-.416-.889-.992-.889-.568 0-1.088.473-1.32.865v-.793h-.6V100h.616zm7.717.056c.792 0 1.504-.695 1.504-2.031 0-1.425-.608-2.04-1.488-2.04-.632 0-1.032.383-1.272.767v-.695h-.592v5.279h.616v-1.855c.24.288.656.575 1.232.575zm-.168-.456c-.568 0-.856-.351-1.064-.647v-1.665c.28-.551.648-.791 1.104-.791.68 0 .984.487.984 1.543 0 1.136-.4 1.56-1.024 1.56zm4.042.464c.976 0 1.784-.807 1.784-2.047 0-1.216-.704-2.032-1.784-2.032-.968 0-1.768.791-1.768 2.023 0 1.249.752 2.056 1.768 2.056zm-.009-.463c-.663 0-1.103-.593-1.103-1.585 0-1.016.48-1.544 1.103-1.544.657 0 1.137.513 1.137 1.537 0 1.064-.488 1.591-1.137 1.591zm3.309.399v-2.704c.328-.472.744-.792 1.248-.792.448 0 .656.224.656.697V100h.624v-2.791c0-.809-.36-1.225-1.096-1.225-.704 0-1.192.465-1.464.857v-.784h-.592V100h.624zm5.224.064c.784 0 1.392-.407 1.664-1.167l-.544-.08c-.224.584-.632.776-1.064.776-.768 0-1.216-.505-1.232-1.496h2.912c-.008-.088 0-.176-.008-.264-.08-1.096-.68-1.849-1.712-1.849-1.016 0-1.824.776-1.824 2.113 0 1.175.728 1.967 1.808 1.967zm-1.152-2.391c.048-.745.536-1.216 1.168-1.216.632 0 1.024.456 1.088 1.216h-2.256zm4.373 2.327v-2.704c.328-.472.744-.792 1.248-.792.448 0 .656.224.656.697V100h.624v-2.791c0-.809-.36-1.225-1.096-1.225-.704 0-1.192.465-1.464.857v-.784h-.592V100h.624zm4.816.056c.216 0 .456-.024.672-.063v-.489a3.849 3.849 0 0 1-.56.048c-.336-.008-.552-.192-.552-.608v-2.392h.888v-.496h-.888v-1.031h-.568l-.032 1.031h-.648v.496h.64v2.36c0 .816.384 1.144 1.048 1.144zm1.013-5.391c.664 1.063.984 2.151.984 3.335 0 1.233-.304 2.304-.976 3.336h.408c.768-1.048 1.152-2.183 1.152-3.328 0-1.207-.392-2.335-1.16-3.343h-.408z" fill="#666"/>
    <rect x="140.5" y="59.5" width="119" height="63.001" rx="1.5" stroke="#D4D4D4"/>
    <path d="M195.207 59.5 200 54.707l4.793 4.793h-.086l-4.353-4.354-.354-.353-.354.353-4.353 4.354h-.086z" stroke="#D4D4D4"/>
    <path d="m200 55.5-4.5 4.5h9l-4.5-4.5z" fill="#fff"/>
    <rect x="435.5" y=".5" width="119" height="63.001" rx="1.5" fill="#fff"/>
    <path fill="#F0F0F0" d="M443 8h104v48.001H443z"/>
    <path d="M473.508 30V23.51h2.052v-1.512h-6.024v1.512h2.076V30h1.896zm4.872.096c1.86 0 3.108-1.32 3.108-3.06 0-1.848-1.224-3.096-3.072-3.096-1.764 0-3.06 1.284-3.06 3.133 0 1.74 1.248 3.023 3.024 3.023zm.06-1.2c-.744 0-1.104-.588-1.104-1.884 0-1.26.384-1.835 1.092-1.835.732 0 1.068.588 1.068 1.835 0 1.308-.372 1.884-1.056 1.884zm7.612 1.188c1.296 0 2.268-1.091 2.268-3.072 0-2.136-.828-3.072-2.112-3.072-1.008 0-1.5.576-1.872 1.104v-.995h-1.764v7.872h1.86V29.4c.408.36.84.683 1.62.683zm-.624-1.128c-.528 0-.792-.348-1.008-.6v-2.364c.228-.468.552-.756 1.02-.756.66 0 .948.444.948 1.86 0 1.477-.336 1.86-.96 1.86zm6.375-1.476v-1.524h-2.868v1.524h2.868zm3.892 2.64c2.148 0 3.192-1.02 3.192-2.436 0-1.668-1.248-2.16-2.58-2.472-1.104-.264-1.884-.395-1.884-1.104 0-.468.444-.744 1.104-.744.732 0 1.26.3 1.488.96l1.668-.504c-.456-1.224-1.44-1.968-3.132-1.968-1.932 0-3.096.96-3.096 2.317 0 1.764 1.416 2.183 2.652 2.483.972.24 1.848.409 1.848 1.14 0 .528-.504.852-1.296.852-1.092 0-1.608-.467-1.932-1.247l-1.56.6c.468 1.212 1.404 2.123 3.528 2.123zm6.573-.036c.372 0 .792-.035 1.08-.072V28.68c-.252.024-.48.024-.708 0-.444-.06-.636-.323-.636-.791v-2.58h1.224v-1.26h-1.224v-1.825h-1.68l-.12 1.825h-.96v1.26h.948v2.88c0 1.26.72 1.895 2.076 1.895zm3.564-.011c1.056 0 1.68-.313 2.196-.84 0 .335.024.648.096.767h1.776c-.108-.227-.132-.816-.132-1.163v-2.748c0-1.284-.576-2.148-2.58-2.148-1.752 0-2.748.611-3.036 1.8l1.704.155c.12-.504.456-.744 1.152-.744.648 0 .924.288.96.756 0 .048.012.229.012.288-.252.012-.492.037-.72.06-2.076.204-3.264.864-3.264 2.184 0 1.008.732 1.633 1.836 1.633zm.84-1.152c-.468 0-.756-.204-.756-.648 0-.564.516-.913 1.428-1.069.192-.035.408-.06.636-.072v1.044c-.252.385-.696.745-1.308.745zm6.401 1.08v-3.565a1.81 1.81 0 0 1 1.644-.995c.156 0 .42.012.54.036v-1.5a1.993 1.993 0 0 0-.432-.037c-.876 0-1.584.648-1.86 1.357v-1.248h-1.776V30h1.884zm5.519.083c.372 0 .792-.035 1.08-.072V28.68c-.252.024-.48.024-.708 0-.444-.06-.636-.323-.636-.791v-2.58h1.224v-1.26h-1.224v-1.825h-1.68l-.12 1.825h-.96v1.26h.948v2.88c0 1.26.72 1.895 2.076 1.895z" fill="#111"/>
    <path d="M448.464 35.664c-.768 1.048-1.152 2.184-1.152 3.328 0 1.2.392 2.337 1.16 3.345h.408c-.656-1.065-.984-2.153-.984-3.337 0-1.231.312-2.303.976-3.336h-.408zm2.973 5.425c1.216 0 1.936-.593 1.936-1.536 0-.896-.608-1.272-1.728-1.569-1.096-.288-1.488-.488-1.488-1.08 0-.456.44-.792 1.112-.792.672 0 1.184.352 1.344.953l.616-.192c-.256-.832-.952-1.313-1.952-1.313-1.032 0-1.784.552-1.784 1.416 0 .944.744 1.297 1.728 1.544.88.232 1.496.424 1.496 1.088 0 .609-.488.937-1.272.937-.936 0-1.392-.385-1.64-1.032l-.568.224c.352.887 1.04 1.352 2.2 1.352zm4.011-.088.768-2.688.08-.345.096.36.8 2.672h.528l1.176-3.944h-.536l-.768 2.736-.104.337-.088-.352-.808-2.72h-.512l-.752 2.695-.096.36-.088-.36-.784-2.696h-.632l1.192 3.945h.528zm4.971.047c.736 0 1.2-.28 1.512-.712-.008.2.024.529.072.665h.592a3.144 3.144 0 0 1-.088-.768V38.44c0-.992-.432-1.457-1.552-1.457-.936 0-1.552.384-1.696 1.105l.576.064c.128-.505.464-.68 1.104-.68.664 0 .92.232.968.663.016.096.016.232.016.368-.312.009-.576.009-.896.049-1.08.128-1.864.552-1.864 1.408 0 .72.56 1.087 1.256 1.087zm.184-.456c-.528 0-.792-.24-.792-.695 0-.496.44-.84 1.296-.953.248-.032.536-.032.816-.032v.816c-.168.408-.568.864-1.32.864zm4.939.465c.792 0 1.504-.697 1.504-2.032 0-1.425-.608-2.04-1.488-2.04-.632 0-1.032.383-1.272.767v-.696h-.592v5.28h.616v-1.855c.24.288.656.575 1.232.575zm-.168-.457c-.568 0-.856-.352-1.064-.648V38.29c.28-.553.648-.793 1.104-.793.68 0 .984.488.984 1.544 0 1.136-.4 1.56-1.024 1.56zm5.589.4.768-2.688.08-.343.096.36.8 2.672h.528l1.176-3.944h-.536l-.768 2.735-.104.337-.088-.352-.808-2.72h-.512l-.752 2.695-.096.36-.088-.36-.784-2.696h-.632l1.192 3.945h.528zm4.746-4.64v-.703h-.68v.704h.68zm-.024 4.64v-3.944h-.624v3.945h.624zm2.316.056c.216 0 .456-.023.672-.063v-.489a3.849 3.849 0 0 1-.56.049c-.336-.008-.552-.192-.552-.608v-2.392h.888v-.496h-.888v-1.032h-.568l-.032 1.032h-.648v.495h.64v2.36c0 .816.384 1.145 1.048 1.145zm1.981-.055v-2.697c.328-.471.72-.8 1.272-.8.4 0 .64.224.64.705V41h.624v-2.84c0-.647-.288-1.175-1.088-1.175-.736 0-1.216.44-1.472.848v-2.169h-.6v5.337h.624zm6.203 0v-5.337h-.624v5.337h.624zm2.676.064c.976 0 1.784-.808 1.784-2.048 0-1.217-.704-2.033-1.784-2.033-.968 0-1.768.792-1.768 2.024 0 1.248.752 2.056 1.768 2.056zm-.008-.465c-.664 0-1.104-.592-1.104-1.584 0-1.015.48-1.544 1.104-1.544.656 0 1.136.512 1.136 1.536 0 1.064-.488 1.592-1.136 1.592zm4.077.465c.784 0 1.368-.456 1.504-1.344l-.544-.056c-.12.656-.424.935-.944.935-.592 0-1.056-.488-1.056-1.575 0-.984.384-1.544 1.016-1.544.544 0 .856.352.952 1l.584-.073c-.176-.968-.704-1.424-1.544-1.424-1 0-1.664.88-1.664 2.024 0 1.32.728 2.056 1.696 2.056zm3.278-.017c.736 0 1.2-.28 1.512-.712-.008.2.024.529.072.665h.592a3.144 3.144 0 0 1-.088-.768V38.44c0-.992-.432-1.457-1.552-1.457-.936 0-1.552.384-1.696 1.105l.576.064c.128-.505.464-.68 1.104-.68.664 0 .92.232.968.663.016.096.016.232.016.368-.312.009-.576.009-.896.049-1.08.128-1.864.552-1.864 1.408 0 .72.56 1.087 1.256 1.087zm.184-.456c-.528 0-.792-.24-.792-.695 0-.496.44-.84 1.296-.953.248-.032.536-.032.816-.032v.816c-.168.408-.568.864-1.32.864zm3.731.409v-5.337h-.624v5.337h.624zm4.447.064c.784 0 1.368-.456 1.504-1.344l-.544-.056c-.12.656-.424.935-.944.935-.592 0-1.056-.488-1.056-1.575 0-.984.384-1.544 1.016-1.544.544 0 .856.352.952 1l.584-.073c-.176-.968-.704-1.424-1.544-1.424-1 0-1.664.88-1.664 2.024 0 1.32.728 2.056 1.696 2.056zm3.799 0c.976 0 1.784-.808 1.784-2.048 0-1.217-.704-2.033-1.784-2.033-.968 0-1.768.792-1.768 2.024 0 1.248.752 2.056 1.768 2.056zm-.008-.465c-.664 0-1.104-.592-1.104-1.584 0-1.015.48-1.544 1.104-1.544.656 0 1.136.512 1.136 1.536 0 1.064-.488 1.592-1.136 1.592zm3.3.4v-2.703c.36-.505.688-.8 1.144-.8.384 0 .584.264.584.736V41h.608v-2.697c.248-.392.656-.791 1.144-.791.384 0 .6.215.6.727V41h.616v-2.8c0-.32-.08-.576-.2-.76-.16-.295-.432-.447-.84-.447-.624 0-1.088.447-1.36.88-.048-.56-.416-.889-.992-.889-.568 0-1.088.472-1.32.864v-.791h-.6V41h.616zm7.717.056c.792 0 1.504-.695 1.504-2.031 0-1.425-.608-2.04-1.488-2.04-.632 0-1.032.383-1.272.767v-.696h-.592v5.28h.616v-1.855c.24.288.656.575 1.232.575zm-.168-.456c-.568 0-.856-.352-1.064-.648V38.29c.28-.553.648-.793 1.104-.793.68 0 .984.488.984 1.544 0 1.136-.4 1.56-1.024 1.56zm4.042.465c.976 0 1.784-.808 1.784-2.048 0-1.217-.704-2.033-1.784-2.033-.968 0-1.768.792-1.768 2.024 0 1.248.752 2.056 1.768 2.056zm-.009-.465c-.663 0-1.103-.592-1.103-1.584 0-1.015.48-1.544 1.103-1.544.657 0 1.137.512 1.137 1.536 0 1.064-.488 1.592-1.137 1.592zm3.309.4v-2.703c.328-.472.744-.792 1.248-.792.448 0 .656.223.656.695V41h.624V38.21c0-.809-.36-1.225-1.096-1.225-.704 0-1.192.465-1.464.856v-.784h-.592v3.945h.624zm5.224.065c.784 0 1.392-.408 1.664-1.168l-.544-.08c-.224.584-.632.776-1.064.776-.768 0-1.216-.505-1.232-1.497h2.912c-.008-.087 0-.175-.008-.263-.08-1.096-.68-1.849-1.712-1.849-1.016 0-1.824.776-1.824 2.112 0 1.177.728 1.969 1.808 1.969zm-1.152-2.392c.048-.745.536-1.217 1.168-1.217.632 0 1.024.456 1.088 1.216h-2.256zM534.997 41v-2.704c.328-.472.744-.792 1.248-.792.448 0 .656.223.656.695V41h.624V38.21c0-.809-.36-1.225-1.096-1.225-.704 0-1.192.465-1.464.856v-.784h-.592v3.945h.624zm4.816.056c.216 0 .456-.025.672-.065v-.487a3.849 3.849 0 0 1-.56.047c-.336-.008-.552-.191-.552-.608v-2.392h.888v-.495h-.888v-1.032h-.568l-.032 1.032h-.648v.495h.64v2.36c0 .816.384 1.145 1.048 1.145zm1.013-5.393c.664 1.064.984 2.152.984 3.337 0 1.232-.304 2.303-.976 3.336h.408c.768-1.049 1.152-2.184 1.152-3.329 0-1.208-.392-2.336-1.16-3.344h-.408z" fill="#666"/>
    <rect x="435.5" y=".5" width="119" height="63.001" rx="1.5" stroke="#D4D4D4"/>
    <path d="M499.793 63.5 495 68.293l-4.793-4.793h.086l4.353 4.354.354.353.354-.353 4.353-4.354h.086z" stroke="#D4D4D4"/>
    <path d="m495 67.5 4.5-4.5h-9l4.5 4.5z" fill="#fff"/>
    <rect x="180" y="10" width="40" height="40" rx="20" fill="#494949"/>
    <g clip-path="url(#j5i42qgxra)">
        <path d="M206 29.5h-5.5V24h-1v5.5H194v1h5.5V36h1v-5.5h5.5v-1z" fill="#fff"/>
    </g>
    <rect x="475" y="73" width="40" height="40" rx="20" fill="#494949"/>
    <g clip-path="url(#5or03tclgb)">
        <path d="M501 92.5h-5.5V87h-1v5.5H489v1h5.5V99h1v-5.5h5.5v-1z" fill="#fff"/>
    </g>
    <path d="M8.591 141v-1.104H3.023v-3.904h4.048v-1.088H3.023v-3.424h5.424v-1.152H1.695V141h6.896zm3.673.128c1.152 0 1.952-.464 2.576-1.328v1.2h1.168v-10.672h-1.2v3.856c-.368-.528-1.12-1.216-2.32-1.216-2.016 0-3.232 1.776-3.232 4.112 0 2.576 1.104 4.048 3.008 4.048zm.336-.944c-1.312 0-2.048-.912-2.048-3.104 0-2.016.704-3.136 2.128-3.136 1.168 0 1.712.672 2.112 1.424v3.216c-.336.88-1.008 1.6-2.192 1.6zm8.77 3.792c2.56 0 3.856-.96 3.856-2.336 0-1.296-.896-1.824-3.408-1.872-1.6-.048-2.592-.048-2.592-.752 0-.48.448-.784.864-.784.128.032.64.144 1.152.144 1.792 0 2.88-1.136 2.88-2.704 0-.816-.304-1.44-.72-1.808.128-.576.464-.912 1.264-.896.096 0 .176.016.272.032l-.016-1.04h-.192c-1.344-.016-1.776.528-1.968 1.392-.48-.256-1.056-.384-1.648-.384-1.584 0-2.944 1.088-2.944 2.704 0 .96.384 1.776 1.152 2.176-.704.192-1.248.672-1.248 1.344 0 .608.32 1.056 1.12 1.28-.96.24-1.536.832-1.536 1.616 0 1.216 1.28 1.888 3.712 1.888zm-.192-6.432c-1.072 0-1.776-.64-1.776-1.872 0-.992.608-1.808 1.776-1.808 1.184 0 1.776.864 1.776 1.824 0 1.184-.656 1.856-1.776 1.856zm.096 5.6c-1.76 0-2.48-.448-2.48-1.2 0-.704.48-1.024 1.104-1.2 3.552.08 4.144.256 4.144 1.056s-1.008 1.344-2.768 1.344zm8.052-2.016c1.568 0 2.784-.816 3.328-2.336l-1.088-.16c-.448 1.168-1.264 1.552-2.128 1.552-1.536 0-2.432-1.008-2.464-2.992h5.824c-.016-.176 0-.352-.016-.528-.16-2.192-1.36-3.696-3.424-3.696-2.032 0-3.648 1.552-3.648 4.224 0 2.352 1.456 3.936 3.616 3.936zm-2.304-4.784c.096-1.488 1.072-2.432 2.336-2.432 1.264 0 2.048.912 2.176 2.432h-4.512zm14.114 4.784c1.952 0 3.568-1.616 3.568-4.096 0-2.432-1.408-4.064-3.568-4.064-1.936 0-3.536 1.584-3.536 4.048 0 2.496 1.504 4.112 3.536 4.112zm-.016-.928c-1.328 0-2.208-1.184-2.208-3.168 0-2.032.96-3.088 2.208-3.088 1.312 0 2.272 1.024 2.272 3.072 0 2.128-.976 3.184-2.272 3.184zm6.73.8v-6.944h1.92v-.944h-1.92v-.752c0-.88.383-1.328 1.343-1.328.208 0 .704.032 1.04.08v-.992a9.067 9.067 0 0 0-1.136-.096c-1.648 0-2.48.752-2.48 2.304v.784h-1.392v.944h1.392V141h1.232zm9.069 0 1.536-5.376.16-.688.192.72 1.6 5.344h1.056l2.352-7.888h-1.072l-1.536 5.472-.208.672-.176-.704-1.616-5.44h-1.024l-1.504 5.392-.192.72-.176-.72-1.568-5.392h-1.264L55.863 141h1.056zm9.492-9.28v-1.408h-1.36v1.408h1.36zm-.048 9.28v-7.888h-1.248V141h1.248zm3.67 0v-5.408c.657-.944 1.489-1.584 2.497-1.584.896 0 1.312.448 1.312 1.392v5.6h1.248v-5.584c0-1.616-.72-2.448-2.192-2.448-1.408 0-2.384.928-2.928 1.712v-1.568h-1.184V141h1.248zm9.84.128c1.153 0 1.953-.464 2.577-1.328v1.2h1.168v-10.672h-1.2v3.856c-.368-.528-1.12-1.216-2.32-1.216-2.016 0-3.232 1.776-3.232 4.112 0 2.576 1.104 4.048 3.008 4.048zm.337-.944c-1.312 0-2.048-.912-2.048-3.104 0-2.016.704-3.136 2.128-3.136 1.168 0 1.712.672 2.112 1.424v3.216c-.336.88-1.008 1.6-2.192 1.6zm8.77.944c1.952 0 3.568-1.616 3.568-4.096 0-2.432-1.408-4.064-3.568-4.064-1.936 0-3.536 1.584-3.536 4.048 0 2.496 1.504 4.112 3.536 4.112zm-.016-.928c-1.328 0-2.208-1.184-2.208-3.168 0-2.032.96-3.088 2.208-3.088 1.312 0 2.272 1.024 2.272 3.072 0 2.128-.976 3.184-2.272 3.184zm7.705.8 1.536-5.376.16-.688.192.72 1.6 5.344h1.056l2.352-7.888h-1.072l-1.536 5.472-.208.672-.176-.704-1.616-5.44h-1.024l-1.504 5.392-.192.72-.176-.72-1.568-5.392h-1.264L95.613 141h1.056z" fill="#94538C"/>
    <path stroke="#94538C" stroke-dasharray="2 2" d="M108 134.5h465"/>
    <g filter="url(#5v60krgjfc)">
        <path d="M204.27 45.28c-.28-.36-.63-1.09-1.24-2-.35-.5-1.21-1.45-1.47-1.94a1.26 1.26 0 0 1-.15-1 1.32 1.32 0 0 1 1.43-1c.511.103.98.353 1.35.72.258.243.496.508.71.79.16.2.2.28.38.51.18.23.3.46.21.12-.07-.5-.19-1.34-.36-2.09-.13-.57-.16-.66-.28-1.09-.12-.43-.19-.79-.32-1.28a14.19 14.19 0 0 1-.28-1.46 2.823 2.823 0 0 1 .26-1.85 1.19 1.19 0 0 1 1.3-.22c.441.325.769.78.94 1.3.262.64.437 1.313.52 2 .16 1 .47 2.46.48 2.76 0-.37-.07-1.15 0-1.5a1.07 1.07 0 0 1 .67-.8c.298-.091.613-.112.92-.06.31.065.585.243.77.5.232.583.36 1.203.38 1.83a6.75 6.75 0 0 1 .28-1.62 1.24 1.24 0 0 1 .69-.48c.331-.06.669-.06 1 0 .271.09.508.262.68.49.212.53.34 1.09.38 1.66 0 .14.07-.39.29-.74a1.002 1.002 0 1 1 1.9.64v2.26a11.724 11.724 0 0 1-.24 1.74 5.899 5.899 0 0 1-.72 1.43 7.192 7.192 0 0 0-1.19 1.81 4.004 4.004 0 0 0-.1 1c-.001.31.039.62.12.92a5.84 5.84 0 0 1-1.23 0c-.39-.06-.87-.84-1-1.08a.38.38 0 0 0-.68 0c-.22.38-.71 1.07-1.05 1.11-.67.08-2.05 0-3.14 0 0 0 .18-1-.23-1.36-.41-.36-.83-.78-1.14-1.06l-.84-.96z" fill="#fff"/>
        <path clip-rule="evenodd" d="M204.27 45.28c-.28-.36-.63-1.09-1.24-2-.35-.5-1.21-1.45-1.47-1.94a1.26 1.26 0 0 1-.15-1 1.32 1.32 0 0 1 1.43-1c.511.103.98.353 1.35.72.258.243.496.508.71.79.16.2.2.28.38.51.18.23.3.46.21.12-.07-.5-.19-1.34-.36-2.09-.13-.57-.16-.66-.28-1.09-.12-.43-.19-.79-.32-1.28a14.19 14.19 0 0 1-.28-1.46 2.823 2.823 0 0 1 .26-1.85 1.19 1.19 0 0 1 1.3-.22c.441.325.769.78.94 1.3.262.64.437 1.313.52 2 .16 1 .47 2.46.48 2.76 0-.37-.07-1.15 0-1.5a1.07 1.07 0 0 1 .67-.8c.298-.091.613-.112.92-.06.31.065.585.243.77.5.232.583.36 1.203.38 1.83a6.75 6.75 0 0 1 .28-1.62 1.24 1.24 0 0 1 .69-.48c.331-.06.669-.06 1 0 .271.09.508.262.68.49.212.53.34 1.09.38 1.66 0 .14.07-.39.29-.74a1.002 1.002 0 1 1 1.9.64v2.26a11.724 11.724 0 0 1-.24 1.74 5.899 5.899 0 0 1-.72 1.43 7.192 7.192 0 0 0-1.19 1.81 4.004 4.004 0 0 0-.1 1c-.001.31.039.62.12.92a5.84 5.84 0 0 1-1.23 0c-.39-.06-.87-.84-1-1.08a.38.38 0 0 0-.68 0c-.22.38-.71 1.07-1.05 1.11-.67.08-2.05 0-3.14 0 0 0 .18-1-.23-1.36-.41-.36-.83-.78-1.14-1.06l-.84-.96z" stroke="#000" stroke-width=".75" stroke-linecap="round" stroke-linejoin="round"/>
        <path d="M212.75 45.826v-3.452a.375.375 0 0 0-.75 0v3.452a.375.375 0 0 0 .75 0zM210.77 45.825l-.02-3.454a.374.374 0 0 0-.75.004l.02 3.454a.374.374 0 0 0 .75-.004zM208 42.379l.02 3.446a.376.376 0 1 0 .75-.004l-.02-3.446a.376.376 0 1 0-.75.004z" fill="#000"/>
    </g>
    <g filter="url(#lrl5wwb7qd)">
        <path d="M491.27 113.28c-.28-.36-.63-1.09-1.24-2-.35-.5-1.21-1.45-1.47-1.94a1.26 1.26 0 0 1-.15-1 1.32 1.32 0 0 1 1.43-1c.511.103.98.353 1.35.72.258.243.496.507.71.79.16.2.2.28.38.51.18.23.3.46.21.12-.07-.5-.19-1.34-.36-2.09-.13-.57-.16-.66-.28-1.09-.12-.43-.19-.79-.32-1.28a14.184 14.184 0 0 1-.28-1.46 2.823 2.823 0 0 1 .26-1.85 1.19 1.19 0 0 1 1.3-.22c.441.325.769.78.94 1.3.262.64.437 1.313.52 2 .16 1 .47 2.46.48 2.76 0-.37-.07-1.15 0-1.5.069-.365.323-.668.67-.8.298-.091.613-.112.92-.06.31.065.585.243.77.5.232.583.36 1.203.38 1.83a6.758 6.758 0 0 1 .28-1.62c.167-.235.411-.405.69-.48a2.8 2.8 0 0 1 1 0c.271.091.508.262.68.49.212.53.34 1.09.38 1.66 0 .14.07-.39.29-.74a1.004 1.004 0 0 1 1.9.64v2.26a11.726 11.726 0 0 1-.24 1.74 5.906 5.906 0 0 1-.72 1.43 7.188 7.188 0 0 0-1.19 1.81 4.006 4.006 0 0 0-.1 1c-.001.311.039.62.12.92a5.88 5.88 0 0 1-1.23 0c-.39-.06-.87-.84-1-1.08a.38.38 0 0 0-.68 0c-.22.38-.71 1.07-1.05 1.11-.67.08-2.05 0-3.14 0 0 0 .18-1-.23-1.36-.41-.36-.83-.78-1.14-1.06l-.84-.96z" fill="#fff"/>
        <path clip-rule="evenodd" d="M491.27 113.28c-.28-.36-.63-1.09-1.24-2-.35-.5-1.21-1.45-1.47-1.94a1.26 1.26 0 0 1-.15-1 1.32 1.32 0 0 1 1.43-1c.511.103.98.353 1.35.72.258.243.496.507.71.79.16.2.2.28.38.51.18.23.3.46.21.12-.07-.5-.19-1.34-.36-2.09-.13-.57-.16-.66-.28-1.09-.12-.43-.19-.79-.32-1.28a14.184 14.184 0 0 1-.28-1.46 2.823 2.823 0 0 1 .26-1.85 1.19 1.19 0 0 1 1.3-.22c.441.325.769.78.94 1.3.262.64.437 1.313.52 2 .16 1 .47 2.46.48 2.76 0-.37-.07-1.15 0-1.5.069-.365.323-.668.67-.8.298-.091.613-.112.92-.06.31.065.585.243.77.5.232.583.36 1.203.38 1.83a6.758 6.758 0 0 1 .28-1.62c.167-.235.411-.405.69-.48a2.8 2.8 0 0 1 1 0c.271.091.508.262.68.49.212.53.34 1.09.38 1.66 0 .14.07-.39.29-.74a1.004 1.004 0 0 1 1.9.64v2.26a11.726 11.726 0 0 1-.24 1.74 5.906 5.906 0 0 1-.72 1.43 7.188 7.188 0 0 0-1.19 1.81 4.006 4.006 0 0 0-.1 1c-.001.311.039.62.12.92a5.88 5.88 0 0 1-1.23 0c-.39-.06-.87-.84-1-1.08a.38.38 0 0 0-.68 0c-.22.38-.71 1.07-1.05 1.11-.67.08-2.05 0-3.14 0 0 0 .18-1-.23-1.36-.41-.36-.83-.78-1.14-1.06l-.84-.96z" stroke="#000" stroke-width=".75" stroke-linecap="round" stroke-linejoin="round"/>
        <path d="M499.75 113.826v-3.452a.374.374 0 0 0-.75 0v3.452a.374.374 0 0 0 .75 0zM497.77 113.825l-.02-3.454a.374.374 0 0 0-.377-.371.374.374 0 0 0-.373.375l.02 3.454c.001.206.17.372.377.371a.374.374 0 0 0 .373-.375zM495 110.379l.02 3.446c.001.208.17.376.377.375a.376.376 0 0 0 .373-.379l-.02-3.446a.376.376 0 0 0-.377-.375.376.376 0 0 0-.373.379z" fill="#000"/>
    </g>
    <defs>
        <clipPath id="j5i42qgxra">
            <path fill="#fff" transform="translate(192 22)" d="M0 0h16v16H0z"/>
        </clipPath>
        <clipPath id="5or03tclgb">
            <path fill="#fff" transform="translate(487 85)" d="M0 0h16v16H0z"/>
        </clipPath>
        <filter id="5v60krgjfc" x="200.191" y="33.012" width="16.746" height="17.859" filterUnits="userSpaceOnUse" color-interpolation-filters="sRGB">
            <feFlood flood-opacity="0" result="BackgroundImageFix"/>
            <feColorMatrix in="SourceAlpha" values="0 0 0 0 0 0 0 0 0 0 0 0 0 0 0 0 0 0 127 0" result="hardAlpha"/>
            <feOffset dy="1"/>
            <feGaussianBlur stdDeviation=".4"/>
            <feColorMatrix values="0 0 0 0 0 0 0 0 0 0 0 0 0 0 0 0 0 0 0.5 0"/>
            <feBlend in2="BackgroundImageFix" result="effect1_dropShadow_2310_22998"/>
            <feBlend in="SourceGraphic" in2="effect1_dropShadow_2310_22998" result="shape"/>
        </filter>
        <filter id="lrl5wwb7qd" x="487.191" y="101.012" width="16.746" height="17.859" filterUnits="userSpaceOnUse" color-interpolation-filters="sRGB">
            <feFlood flood-opacity="0" result="BackgroundImageFix"/>
            <feColorMatrix in="SourceAlpha" values="0 0 0 0 0 0 0 0 0 0 0 0 0 0 0 0 0 0 127 0" result="hardAlpha"/>
            <feOffset dy="1"/>
            <feGaussianBlur stdDeviation=".4"/>
            <feColorMatrix values="0 0 0 0 0 0 0 0 0 0 0 0 0 0 0 0 0 0 0.5 0"/>
            <feBlend in2="BackgroundImageFix" result="effect1_dropShadow_2310_22998"/>
            <feBlend in="SourceGraphic" in2="effect1_dropShadow_2310_22998" result="shape"/>
        </filter>
    </defs>
</svg>
