<svg width="474" height="117" viewBox="0 0 474 117" fill="none" xmlns="http://www.w3.org/2000/svg">
    <rect x="126.5" y="49.5" width="119" height="63.001" rx="1.5" fill="#fff"/>
    <path fill="#F0F0F0" d="M134 57h104v48.001H134z"/>
    <path d="M164.508 79v-6.492h2.052v-1.511h-6.024v1.511h2.076v6.493h1.896zm4.872.097c1.86 0 3.108-1.32 3.108-3.06 0-1.849-1.224-3.097-3.072-3.097-1.764 0-3.06 1.285-3.06 3.133 0 1.74 1.248 3.024 3.024 3.024zm.06-1.2c-.744 0-1.104-.589-1.104-1.885 0-1.26.384-1.835 1.092-1.835.732 0 1.068.587 1.068 1.835 0 1.308-.372 1.885-1.056 1.885zm7.612 1.188c1.296 0 2.268-1.092 2.268-3.072 0-2.137-.828-3.073-2.112-3.073-1.008 0-1.5.576-1.872 1.105v-.996h-1.764v7.871h1.86V78.4c.408.36.84.684 1.62.684zm-.624-1.128c-.528 0-.792-.348-1.008-.6v-2.364c.228-.468.552-.756 1.02-.756.66 0 .948.444.948 1.86 0 1.476-.336 1.86-.96 1.86zm6.375-1.476v-1.524h-2.868v1.524h2.868zm3.892 2.64c2.148 0 3.192-1.02 3.192-2.436 0-1.669-1.248-2.16-2.58-2.472-1.104-.264-1.884-.396-1.884-1.104 0-.468.444-.744 1.104-.744.732 0 1.26.3 1.488.96l1.668-.505c-.456-1.223-1.44-1.967-3.132-1.967-1.932 0-3.096.96-3.096 2.316 0 1.764 1.416 2.184 2.652 2.484.972.24 1.848.407 1.848 1.14 0 .527-.504.851-1.296.851-1.092 0-1.608-.468-1.932-1.248l-1.56.6c.468 1.213 1.404 2.125 3.528 2.125zm6.573-.036c.372 0 .792-.036 1.08-.072V77.68c-.252.024-.48.024-.708 0-.444-.06-.636-.324-.636-.792v-2.58h1.224v-1.26h-1.224v-1.823h-1.68l-.12 1.824h-.96v1.26h.948v2.88c0 1.26.72 1.896 2.076 1.896zm3.564-.012c1.056 0 1.68-.313 2.196-.84 0 .335.024.647.096.767h1.776c-.108-.228-.132-.816-.132-1.163v-2.749c0-1.283-.576-2.147-2.58-2.147-1.752 0-2.748.611-3.036 1.8l1.704.156c.12-.505.456-.745 1.152-.745.648 0 .924.288.96.757 0 .047.012.227.012.287-.252.013-.492.037-.72.06-2.076.204-3.264.865-3.264 2.184 0 1.008.732 1.633 1.836 1.633zm.84-1.152c-.468 0-.756-.205-.756-.649 0-.564.516-.912 1.428-1.068.192-.035.408-.06.636-.072v1.044c-.252.385-.696.745-1.308.745zm6.401 1.08v-3.565a1.81 1.81 0 0 1 1.644-.996c.156 0 .42.013.54.037v-1.5a1.993 1.993 0 0 0-.432-.037c-.876 0-1.584.648-1.86 1.356v-1.248h-1.776v5.953h1.884zm5.519.084c.372 0 .792-.036 1.08-.072V77.68c-.252.024-.48.024-.708 0-.444-.06-.636-.324-.636-.792v-2.58h1.224v-1.26h-1.224v-1.823h-1.68l-.12 1.824h-.96v1.26h.948v2.88c0 1.26.72 1.896 2.076 1.896z" fill="#111"/>
    <path d="M139.464 84.665c-.768 1.047-1.152 2.183-1.152 3.328 0 1.2.392 2.336 1.16 3.344h.408c-.656-1.065-.984-2.153-.984-3.337 0-1.231.312-2.303.976-3.335h-.408zm2.973 5.423c1.216 0 1.936-.591 1.936-1.535 0-.897-.608-1.272-1.728-1.569-1.096-.287-1.488-.487-1.488-1.08 0-.456.44-.791 1.112-.791.672 0 1.184.352 1.344.951l.616-.191c-.256-.833-.952-1.313-1.952-1.313-1.032 0-1.784.552-1.784 1.416 0 .945.744 1.296 1.728 1.544.88.233 1.496.425 1.496 1.089 0 .608-.488.936-1.272.936-.936 0-1.392-.385-1.64-1.032l-.568.224c.352.888 1.04 1.352 2.2 1.352zm4.011-.087.768-2.689.08-.343.096.36.8 2.672h.528l1.176-3.945h-.536l-.768 2.737-.104.335-.088-.352-.808-2.72h-.512l-.752 2.697-.096.36-.088-.36-.784-2.697h-.632l1.192 3.945h.528zm4.971.047c.736 0 1.2-.28 1.512-.712-.008.2.024.529.072.665h.592a3.144 3.144 0 0 1-.088-.769v-1.791c0-.993-.432-1.457-1.552-1.457-.936 0-1.552.385-1.696 1.105l.576.064c.128-.505.464-.68 1.104-.68.664 0 .92.231.968.663.016.097.016.233.016.368-.312.008-.576.008-.896.048-1.08.128-1.864.552-1.864 1.408 0 .72.56 1.089 1.256 1.089zm.184-.456c-.528 0-.792-.24-.792-.695 0-.497.44-.84 1.296-.953.248-.032.536-.032.816-.032v.816c-.168.409-.568.865-1.32.865zm4.939.465c.792 0 1.504-.697 1.504-2.032 0-1.425-.608-2.04-1.488-2.04-.632 0-1.032.383-1.272.767v-.695h-.592v5.28h.616V89.48c.24.288.656.576 1.232.576zm-.168-.457c-.568 0-.856-.351-1.064-.647v-1.665c.28-.551.648-.791 1.104-.791.68 0 .984.487.984 1.543 0 1.136-.4 1.56-1.024 1.56zm5.589.4.768-2.688.08-.343.096.36.8 2.672h.528l1.176-3.945h-.536l-.768 2.737-.104.335-.088-.352-.808-2.72h-.512l-.752 2.697-.096.36-.088-.36-.784-2.697h-.632l1.192 3.945h.528zm4.746-4.64v-.704h-.68v.704h.68zm-.024 4.64v-3.944h-.624v3.945h.624zm2.316.056c.216 0 .456-.023.672-.063v-.489a3.849 3.849 0 0 1-.56.048c-.336-.008-.552-.192-.552-.608v-2.392h.888v-.496h-.888v-1.031h-.568l-.032 1.031h-.648v.496h.64v2.36c0 .816.384 1.144 1.048 1.144zm1.981-.055v-2.697c.328-.472.72-.8 1.272-.8.4 0 .64.224.64.704v2.793h.624v-2.84c0-.648-.288-1.177-1.088-1.177-.736 0-1.216.44-1.472.849v-2.168h-.6V90h.624zm6.203 0v-5.337h-.624v5.337h.624zm2.676.063c.976 0 1.784-.807 1.784-2.047 0-1.216-.704-2.032-1.784-2.032-.968 0-1.768.791-1.768 2.023 0 1.249.752 2.056 1.768 2.056zm-.008-.463c-.664 0-1.104-.593-1.104-1.585 0-1.016.48-1.544 1.104-1.544.656 0 1.136.513 1.136 1.537 0 1.064-.488 1.591-1.136 1.591zm4.077.463c.784 0 1.368-.455 1.504-1.343l-.544-.056c-.12.655-.424.935-.944.935-.592 0-1.056-.487-1.056-1.575 0-.985.384-1.544 1.016-1.544.544 0 .856.352.952 1l.584-.072c-.176-.969-.704-1.425-1.544-1.425-1 0-1.664.88-1.664 2.025 0 1.32.728 2.055 1.696 2.055zm3.278-.015c.736 0 1.2-.28 1.512-.713-.008.2.024.529.072.665h.592a3.144 3.144 0 0 1-.088-.769v-1.791c0-.993-.432-1.457-1.552-1.457-.936 0-1.552.385-1.696 1.105l.576.064c.128-.505.464-.68 1.104-.68.664 0 .92.231.968.663.016.097.016.233.016.368-.312.008-.576.008-.896.048-1.08.128-1.864.552-1.864 1.408 0 .72.56 1.089 1.256 1.089zm.184-.457c-.528 0-.792-.24-.792-.695 0-.497.44-.84 1.296-.953.248-.032.536-.032.816-.032v.816c-.168.409-.568.865-1.32.865zm3.731.409v-5.337h-.624v5.337h.624zm4.447.063c.784 0 1.368-.455 1.504-1.343l-.544-.056c-.12.655-.424.935-.944.935-.592 0-1.056-.487-1.056-1.575 0-.985.384-1.544 1.016-1.544.544 0 .856.352.952 1l.584-.072c-.176-.969-.704-1.425-1.544-1.425-1 0-1.664.88-1.664 2.025 0 1.32.728 2.055 1.696 2.055zm3.799 0c.976 0 1.784-.807 1.784-2.047 0-1.216-.704-2.032-1.784-2.032-.968 0-1.768.791-1.768 2.023 0 1.249.752 2.056 1.768 2.056zm-.008-.463c-.664 0-1.104-.593-1.104-1.585 0-1.016.48-1.544 1.104-1.544.656 0 1.136.513 1.136 1.537 0 1.064-.488 1.591-1.136 1.591zm3.3.4v-2.705c.36-.504.688-.8 1.144-.8.384 0 .584.264.584.737V90h.608v-2.695c.248-.393.656-.793 1.144-.793.384 0 .6.216.6.728V90h.616v-2.8c0-.32-.08-.576-.2-.76-.16-.296-.432-.447-.84-.447-.624 0-1.088.448-1.36.88-.048-.56-.416-.889-.992-.889-.568 0-1.088.473-1.32.865v-.793h-.6v3.945h.616zm7.717.055c.792 0 1.504-.695 1.504-2.031 0-1.425-.608-2.04-1.488-2.04-.632 0-1.032.383-1.272.767v-.695h-.592v5.28h.616V89.48c.24.288.656.576 1.232.576zm-.168-.456c-.568 0-.856-.351-1.064-.647v-1.665c.28-.551.648-.791 1.104-.791.68 0 .984.487.984 1.543 0 1.136-.4 1.56-1.024 1.56zm4.042.465c.976 0 1.784-.808 1.784-2.049 0-1.216-.704-2.032-1.784-2.032-.968 0-1.768.793-1.768 2.025 0 1.248.752 2.055 1.768 2.055zm-.009-.465c-.663 0-1.103-.591-1.103-1.584 0-1.016.48-1.544 1.103-1.544.657 0 1.137.513 1.137 1.537 0 1.064-.488 1.591-1.137 1.591zm3.309.4v-2.704c.328-.472.744-.792 1.248-.792.448 0 .656.224.656.697V90h.624v-2.793c0-.808-.36-1.224-1.096-1.224-.704 0-1.192.465-1.464.857v-.784h-.592V90h.624zm5.224.064c.784 0 1.392-.407 1.664-1.167l-.544-.08c-.224.584-.632.776-1.064.776-.768 0-1.216-.505-1.232-1.496h2.912c-.008-.088 0-.176-.008-.264-.08-1.096-.68-1.849-1.712-1.849-1.016 0-1.824.776-1.824 2.113 0 1.175.728 1.968 1.808 1.968zm-1.152-2.391c.048-.745.536-1.216 1.168-1.216.632 0 1.024.456 1.088 1.216h-2.256zM225.997 90v-2.705c.328-.472.744-.792 1.248-.792.448 0 .656.224.656.697V90h.624v-2.793c0-.808-.36-1.224-1.096-1.224-.704 0-1.192.465-1.464.857v-.784h-.592V90h.624zm4.816.055c.216 0 .456-.023.672-.063v-.489a3.849 3.849 0 0 1-.56.048c-.336-.008-.552-.192-.552-.608v-2.392h.888v-.496h-.888v-1.031h-.568l-.032 1.031h-.648v.496h.64v2.36c0 .816.384 1.144 1.048 1.144zm1.013-5.391c.664 1.063.984 2.151.984 3.335 0 1.233-.304 2.305-.976 3.337h.408c.768-1.049 1.152-2.184 1.152-3.329 0-1.207-.392-2.335-1.16-3.343h-.408z" fill="#666"/>
    <rect x="126.5" y="49.5" width="119" height="63.001" rx="1.5" stroke="#D4D4D4"/>
    <path d="M181.207 49.5 186 44.707l4.793 4.793h-.086l-4.353-4.354-.354-.353-.354.353-4.353 4.354h-.086z" stroke="#D4D4D4"/>
    <path d="m186 45.5-4.5 4.5h9l-4.5-4.5z" fill="#fff"/>
    <rect x="264.5" y="53.5" width="119" height="63.001" rx="1.5" fill="#fff"/>
    <path fill="#F0F0F0" d="M272 61h104v48.001H272z"/>
    <path d="M302.508 83v-6.492h2.052v-1.511h-6.024v1.511h2.076v6.493h1.896zm4.872.097c1.86 0 3.108-1.32 3.108-3.06 0-1.849-1.224-3.097-3.072-3.097-1.764 0-3.06 1.285-3.06 3.133 0 1.74 1.248 3.024 3.024 3.024zm.06-1.2c-.744 0-1.104-.589-1.104-1.885 0-1.26.384-1.835 1.092-1.835.732 0 1.068.587 1.068 1.835 0 1.308-.372 1.885-1.056 1.885zm7.612 1.188c1.296 0 2.268-1.092 2.268-3.072 0-2.137-.828-3.073-2.112-3.073-1.008 0-1.5.576-1.872 1.105v-.996h-1.764v7.871h1.86V82.4c.408.36.84.684 1.62.684zm-.624-1.128c-.528 0-.792-.348-1.008-.6v-2.364c.228-.468.552-.756 1.02-.756.66 0 .948.444.948 1.86 0 1.476-.336 1.86-.96 1.86zm6.375-1.476v-1.524h-2.868v1.524h2.868zm3.892 2.64c2.148 0 3.192-1.02 3.192-2.436 0-1.669-1.248-2.16-2.58-2.472-1.104-.264-1.884-.396-1.884-1.104 0-.468.444-.744 1.104-.744.732 0 1.26.3 1.488.96l1.668-.505c-.456-1.223-1.44-1.967-3.132-1.967-1.932 0-3.096.96-3.096 2.316 0 1.764 1.416 2.184 2.652 2.484.972.24 1.848.407 1.848 1.14 0 .527-.504.851-1.296.851-1.092 0-1.608-.468-1.932-1.248l-1.56.6c.468 1.213 1.404 2.125 3.528 2.125zm6.573-.036c.372 0 .792-.036 1.08-.072V81.68c-.252.024-.48.024-.708 0-.444-.06-.636-.324-.636-.792v-2.58h1.224v-1.26h-1.224v-1.823h-1.68l-.12 1.824h-.96v1.26h.948v2.88c0 1.26.72 1.896 2.076 1.896zm3.564-.012c1.056 0 1.68-.313 2.196-.84 0 .335.024.647.096.767h1.776c-.108-.228-.132-.816-.132-1.163v-2.749c0-1.283-.576-2.147-2.58-2.147-1.752 0-2.748.611-3.036 1.8l1.704.156c.12-.505.456-.745 1.152-.745.648 0 .924.288.96.757 0 .047.012.227.012.287-.252.013-.492.037-.72.06-2.076.204-3.264.865-3.264 2.184 0 1.008.732 1.633 1.836 1.633zm.84-1.152c-.468 0-.756-.205-.756-.649 0-.564.516-.912 1.428-1.068.192-.035.408-.06.636-.072v1.044c-.252.385-.696.745-1.308.745zm6.401 1.08v-3.565a1.81 1.81 0 0 1 1.644-.996c.156 0 .42.013.54.037v-1.5a1.993 1.993 0 0 0-.432-.037c-.876 0-1.584.648-1.86 1.356v-1.248h-1.776v5.953h1.884zm5.519.084c.372 0 .792-.036 1.08-.072V81.68c-.252.024-.48.024-.708 0-.444-.06-.636-.324-.636-.792v-2.58h1.224v-1.26h-1.224v-1.823h-1.68l-.12 1.824h-.96v1.26h.948v2.88c0 1.26.72 1.896 2.076 1.896z" fill="#111"/>
    <path d="M277.464 88.665c-.768 1.047-1.152 2.183-1.152 3.328 0 1.2.392 2.336 1.16 3.344h.408c-.656-1.065-.984-2.153-.984-3.337 0-1.231.312-2.303.976-3.335h-.408zm2.973 5.423c1.216 0 1.936-.591 1.936-1.535 0-.897-.608-1.272-1.728-1.569-1.096-.287-1.488-.487-1.488-1.08 0-.456.44-.791 1.112-.791.672 0 1.184.352 1.344.951l.616-.191c-.256-.833-.952-1.313-1.952-1.313-1.032 0-1.784.552-1.784 1.416 0 .945.744 1.296 1.728 1.544.88.233 1.496.425 1.496 1.089 0 .608-.488.936-1.272.936-.936 0-1.392-.385-1.64-1.032l-.568.224c.352.888 1.04 1.352 2.2 1.352zm4.011-.087.768-2.689.08-.343.096.36.8 2.672h.528l1.176-3.945h-.536l-.768 2.737-.104.335-.088-.352-.808-2.72h-.512l-.752 2.697-.096.36-.088-.36-.784-2.697h-.632l1.192 3.945h.528zm4.971.047c.736 0 1.2-.28 1.512-.712-.008.2.024.529.072.665h.592a3.144 3.144 0 0 1-.088-.769v-1.791c0-.993-.432-1.457-1.552-1.457-.936 0-1.552.385-1.696 1.105l.576.064c.128-.505.464-.68 1.104-.68.664 0 .92.231.968.663.016.097.016.233.016.368-.312.008-.576.008-.896.048-1.08.128-1.864.552-1.864 1.408 0 .72.56 1.089 1.256 1.089zm.184-.456c-.528 0-.792-.24-.792-.695 0-.497.44-.84 1.296-.953.248-.032.536-.032.816-.032v.816c-.168.409-.568.865-1.32.865zm4.939.465c.792 0 1.504-.697 1.504-2.032 0-1.425-.608-2.04-1.488-2.04-.632 0-1.032.383-1.272.767v-.695h-.592v5.28h.616V93.48c.24.288.656.576 1.232.576zm-.168-.457c-.568 0-.856-.351-1.064-.647v-1.665c.28-.551.648-.791 1.104-.791.68 0 .984.487.984 1.543 0 1.136-.4 1.56-1.024 1.56zm5.589.4.768-2.688.08-.343.096.36.8 2.672h.528l1.176-3.945h-.536l-.768 2.737-.104.335-.088-.352-.808-2.72h-.512l-.752 2.697-.096.36-.088-.36-.784-2.697h-.632l1.192 3.945h.528zm4.746-4.64v-.704h-.68v.704h.68zm-.024 4.64v-3.944h-.624v3.945h.624zm2.316.056c.216 0 .456-.023.672-.063v-.489a3.849 3.849 0 0 1-.56.048c-.336-.008-.552-.192-.552-.608v-2.392h.888v-.496h-.888v-1.031h-.568l-.032 1.031h-.648v.496h.64v2.36c0 .816.384 1.144 1.048 1.144zm1.981-.055v-2.697c.328-.472.72-.8 1.272-.8.4 0 .64.224.64.704v2.793h.624v-2.84c0-.648-.288-1.177-1.088-1.177-.736 0-1.216.44-1.472.849v-2.168h-.6V94h.624zm6.203 0v-5.337h-.624v5.337h.624zm2.676.063c.976 0 1.784-.807 1.784-2.047 0-1.216-.704-2.032-1.784-2.032-.968 0-1.768.791-1.768 2.023 0 1.249.752 2.056 1.768 2.056zm-.008-.463c-.664 0-1.104-.593-1.104-1.585 0-1.016.48-1.544 1.104-1.544.656 0 1.136.513 1.136 1.537 0 1.064-.488 1.591-1.136 1.591zm4.077.463c.784 0 1.368-.455 1.504-1.343l-.544-.056c-.12.655-.424.935-.944.935-.592 0-1.056-.487-1.056-1.575 0-.985.384-1.544 1.016-1.544.544 0 .856.352.952 1l.584-.072c-.176-.969-.704-1.425-1.544-1.425-1 0-1.664.88-1.664 2.025 0 1.32.728 2.055 1.696 2.055zm3.278-.015c.736 0 1.2-.28 1.512-.713-.008.2.024.529.072.665h.592a3.144 3.144 0 0 1-.088-.769v-1.791c0-.993-.432-1.457-1.552-1.457-.936 0-1.552.385-1.696 1.105l.576.064c.128-.505.464-.68 1.104-.68.664 0 .92.231.968.663.016.097.016.233.016.368-.312.008-.576.008-.896.048-1.08.128-1.864.552-1.864 1.408 0 .72.56 1.089 1.256 1.089zm.184-.457c-.528 0-.792-.24-.792-.695 0-.497.44-.84 1.296-.953.248-.032.536-.032.816-.032v.816c-.168.409-.568.865-1.32.865zm3.731.409v-5.337h-.624v5.337h.624zm4.447.063c.784 0 1.368-.455 1.504-1.343l-.544-.056c-.12.655-.424.935-.944.935-.592 0-1.056-.487-1.056-1.575 0-.985.384-1.544 1.016-1.544.544 0 .856.352.952 1l.584-.072c-.176-.969-.704-1.425-1.544-1.425-1 0-1.664.88-1.664 2.025 0 1.32.728 2.055 1.696 2.055zm3.799 0c.976 0 1.784-.807 1.784-2.047 0-1.216-.704-2.032-1.784-2.032-.968 0-1.768.791-1.768 2.023 0 1.249.752 2.056 1.768 2.056zm-.008-.463c-.664 0-1.104-.593-1.104-1.585 0-1.016.48-1.544 1.104-1.544.656 0 1.136.513 1.136 1.537 0 1.064-.488 1.591-1.136 1.591zm3.3.4v-2.705c.36-.504.688-.8 1.144-.8.384 0 .584.264.584.737V94h.608v-2.695c.248-.393.656-.793 1.144-.793.384 0 .6.216.6.728V94h.616v-2.8c0-.32-.08-.576-.2-.76-.16-.296-.432-.447-.84-.447-.624 0-1.088.448-1.36.88-.048-.56-.416-.889-.992-.889-.568 0-1.088.473-1.32.865v-.793h-.6v3.945h.616zm7.717.055c.792 0 1.504-.695 1.504-2.031 0-1.425-.608-2.04-1.488-2.04-.632 0-1.032.383-1.272.767v-.695h-.592v5.28h.616V93.48c.24.288.656.576 1.232.576zm-.168-.456c-.568 0-.856-.351-1.064-.647v-1.665c.28-.551.648-.791 1.104-.791.68 0 .984.487.984 1.543 0 1.136-.4 1.56-1.024 1.56zm4.042.465c.976 0 1.784-.808 1.784-2.049 0-1.216-.704-2.032-1.784-2.032-.968 0-1.768.793-1.768 2.025 0 1.248.752 2.055 1.768 2.055zm-.009-.465c-.663 0-1.103-.591-1.103-1.584 0-1.016.48-1.544 1.103-1.544.657 0 1.137.513 1.137 1.537 0 1.064-.488 1.591-1.137 1.591zm3.309.4v-2.704c.328-.472.744-.792 1.248-.792.448 0 .656.224.656.697V94h.624v-2.793c0-.808-.36-1.224-1.096-1.224-.704 0-1.192.465-1.464.857v-.784h-.592V94h.624zm5.224.064c.784 0 1.392-.407 1.664-1.167l-.544-.08c-.224.584-.632.776-1.064.776-.768 0-1.216-.505-1.232-1.496h2.912c-.008-.088 0-.176-.008-.264-.08-1.096-.68-1.849-1.712-1.849-1.016 0-1.824.776-1.824 2.113 0 1.175.728 1.968 1.808 1.968zm-1.152-2.391c.048-.745.536-1.216 1.168-1.216.632 0 1.024.456 1.088 1.216h-2.256zM363.997 94v-2.705c.328-.472.744-.792 1.248-.792.448 0 .656.224.656.697V94h.624v-2.793c0-.808-.36-1.224-1.096-1.224-.704 0-1.192.465-1.464.857v-.784h-.592V94h.624zm4.816.055c.216 0 .456-.023.672-.063v-.489a3.849 3.849 0 0 1-.56.048c-.336-.008-.552-.192-.552-.608v-2.392h.888v-.496h-.888v-1.031h-.568l-.032 1.031h-.648v.496h.64v2.36c0 .816.384 1.144 1.048 1.144zm1.013-5.391c.664 1.063.984 2.151.984 3.335 0 1.233-.304 2.305-.976 3.337h.408c.768-1.049 1.152-2.184 1.152-3.329 0-1.207-.392-2.335-1.16-3.343h-.408z" fill="#666"/>
    <rect x="264.5" y="53.5" width="119" height="63.001" rx="1.5" stroke="#D4D4D4"/>
    <path d="M319.207 53.5 324 48.707l4.793 4.793h-.086l-4.353-4.354-.354-.353-.354.353-4.353 4.354h-.086z" stroke="#D4D4D4"/>
    <path d="m324 49.5-4.5 4.5h9l-4.5-4.5z" fill="#fff"/>
    <rect x="166" width="40" height="40" rx="20" fill="#494949"/>
    <g clip-path="url(#nt22kfqjma)">
        <path d="M192 19.5h-5.5V14h-1v5.5H180v1h5.5V26h1v-5.5h5.5v-1z" fill="#fff"/>
    </g>
    <rect x="304" width="40" height="40" rx="20" fill="#494949"/>
    <g clip-path="url(#0j30w30ukb)">
        <path d="M330 19.5h-5.5V14h-1v5.5H318v1h5.5V26h1v-5.5h5.5v-1z" fill="#fff"/>
    </g>
    <path stroke="#94538C" stroke-dasharray="2 2" d="M332 44.5h64"/>
    <path d="M404.597 51.128c1.952 0 3.568-1.616 3.568-4.096 0-2.432-1.408-4.064-3.568-4.064-1.936 0-3.536 1.584-3.536 4.048 0 2.496 1.504 4.112 3.536 4.112zm-.016-.928c-1.328 0-2.208-1.184-2.208-3.168 0-2.032.96-3.088 2.208-3.088 1.312 0 2.272 1.024 2.272 3.072 0 2.128-.976 3.184-2.272 3.184zm10.969-6.144h1.92v-.944h-1.92v-.768c0-.88.384-1.328 1.344-1.328.208 0 .704.032 1.04.08v-.992a9.067 9.067 0 0 0-1.136-.096c-1.648 0-2.48.752-2.48 2.304v.8h-2.992v-.768c0-.88.384-1.328 1.328-1.328.224 0 .704.032 1.056.08v-.992a9.067 9.067 0 0 0-1.136-.096c-1.664 0-2.496.752-2.496 2.304v.8h-1.392v.944h1.392V51h1.248v-6.944h2.992V51h1.232v-6.944zm5.552 7.072c1.92 0 3.168-.976 3.168-2.432 0-1.568-1.376-2.016-2.992-2.336-1.264-.272-2.208-.432-2.208-1.296 0-.72.72-1.152 1.776-1.152 1.072 0 1.792.48 2.096 1.312l1.104-.24c-.4-1.232-1.424-2.016-3.2-2.016-1.76 0-2.928.88-2.928 2.176 0 1.552 1.36 1.968 2.976 2.272 1.168.256 2.224.448 2.224 1.392 0 .832-.768 1.392-2.016 1.392-1.36 0-2.24-.624-2.496-1.552l-1.12.224c.384 1.44 1.616 2.256 3.616 2.256zm7.872 0c1.568 0 2.784-.816 3.328-2.336l-1.088-.16c-.448 1.168-1.264 1.552-2.128 1.552-1.536 0-2.432-1.008-2.464-2.992h5.824c-.016-.176 0-.352-.016-.528-.16-2.192-1.36-3.696-3.424-3.696-2.032 0-3.648 1.552-3.648 4.224 0 2.352 1.456 3.936 3.616 3.936zm-2.304-4.784c.096-1.488 1.072-2.432 2.336-2.432 1.264 0 2.048.912 2.176 2.432h-4.512zm9.707 4.768c.432 0 .912-.048 1.344-.128v-.976a7.697 7.697 0 0 1-1.12.096c-.672-.016-1.104-.384-1.104-1.216v-4.784h1.776v-.992h-1.776v-2.064h-1.136l-.064 2.064h-1.296v.992h1.28v4.72c0 1.632.768 2.288 2.096 2.288zm4.362-6.256v-1.744h-1.744v1.744h1.744zm0 6.144v-1.76h-1.744V51h1.744zm9.512.192c2.448 0 3.984-2.16 3.984-5.472 0-3.424-1.536-5.584-4-5.584-2.56 0-4.048 2.144-4.048 5.536 0 3.344 1.504 5.52 4.064 5.52zm0-1.04c-1.712 0-2.72-1.664-2.72-4.48 0-2.944.864-4.464 2.704-4.464 1.728 0 2.656 1.664 2.656 4.48 0 2.896-.976 4.464-2.64 4.464zm9.248 1.04c2.016 0 3.872-1.376 3.872-3.776 0-2.128-1.36-3.632-3.584-3.632-1.184 0-2.24.656-2.688 1.28l.24-3.584h5.216l.112-1.152h-6.32l-.352 5.776 1.056.24c.544-.864 1.296-1.52 2.56-1.52 1.632 0 2.48 1.2 2.48 2.608 0 1.648-1.072 2.72-2.64 2.72-1.424 0-2.352-.608-2.848-1.872l-1.072.384c.544 1.6 2 2.528 3.968 2.528zm9.408 0c2.448 0 3.984-2.16 3.984-5.472 0-3.424-1.536-5.584-4-5.584-2.56 0-4.048 2.144-4.048 5.536 0 3.344 1.504 5.52 4.064 5.52zm0-1.04c-1.712 0-2.72-1.664-2.72-4.48 0-2.944.864-4.464 2.704-4.464 1.728 0 2.656 1.664 2.656 4.48 0 2.896-.976 4.464-2.64 4.464zM4.16 50.128c1.951 0 3.567-1.616 3.567-4.096 0-2.432-1.408-4.064-3.568-4.064-1.936 0-3.536 1.584-3.536 4.048 0 2.496 1.504 4.112 3.536 4.112zm-.017-.928c-1.328 0-2.208-1.184-2.208-3.168 0-2.032.96-3.088 2.208-3.088 1.312 0 2.272 1.024 2.272 3.072 0 2.128-.976 3.184-2.272 3.184zm10.97-6.144h1.92v-.944h-1.92v-.768c0-.88.383-1.328 1.343-1.328.209 0 .704.032 1.04.08v-.992a9.067 9.067 0 0 0-1.136-.096c-1.647 0-2.48.752-2.48 2.304v.8h-2.992v-.768c0-.88.385-1.328 1.329-1.328.223 0 .704.032 1.056.08v-.992a9.067 9.067 0 0 0-1.136-.096c-1.665 0-2.497.752-2.497 2.304v.8H8.248v.944h1.393V50h1.248v-6.944h2.992V50h1.232v-6.944zm5.552 7.072c1.92 0 3.168-.976 3.168-2.432 0-1.568-1.376-2.016-2.992-2.336-1.264-.272-2.208-.432-2.208-1.296 0-.72.72-1.152 1.776-1.152 1.072 0 1.792.48 2.096 1.312l1.104-.24c-.4-1.232-1.424-2.016-3.2-2.016-1.76 0-2.928.88-2.928 2.176 0 1.552 1.36 1.968 2.976 2.272 1.168.256 2.224.448 2.224 1.392 0 .832-.768 1.392-2.016 1.392-1.36 0-2.24-.624-2.496-1.552l-1.12.224c.384 1.44 1.616 2.256 3.616 2.256zm7.872 0c1.568 0 2.784-.816 3.328-2.336l-1.088-.16c-.449 1.168-1.265 1.552-2.129 1.552-1.535 0-2.431-1.008-2.463-2.992h5.823c-.016-.176 0-.352-.016-.528-.16-2.192-1.36-3.696-3.424-3.696-2.032 0-3.648 1.552-3.648 4.224 0 2.352 1.456 3.936 3.616 3.936zm-2.304-4.784c.095-1.488 1.072-2.432 2.335-2.432 1.264 0 2.048.912 2.176 2.432h-4.511zm9.706 4.768c.432 0 .912-.048 1.344-.128v-.976a7.698 7.698 0 0 1-1.12.096c-.672-.016-1.104-.384-1.104-1.216v-4.784h1.776v-.992H35.06v-2.064h-1.136l-.064 2.064h-1.296v.992h1.28v4.72c0 1.632.768 2.288 2.096 2.288zm4.362-6.256v-1.744h-1.744v1.744h1.744zm0 6.144v-1.76h-1.744V50h1.744zm8.424.128c1.152 0 1.952-.464 2.576-1.328V50h1.168V39.328h-1.2v3.856c-.368-.528-1.12-1.216-2.32-1.216-2.016 0-3.232 1.776-3.232 4.112 0 2.576 1.104 4.048 3.008 4.048zm.336-.944c-1.312 0-2.048-.912-2.048-3.104 0-2.016.704-3.136 2.128-3.136 1.168 0 1.712.672 2.112 1.424v3.216c-.336.88-1.008 1.6-2.192 1.6zm8.866.944c1.568 0 2.784-.816 3.328-2.336l-1.088-.16c-.448 1.168-1.264 1.552-2.128 1.552-1.536 0-2.432-1.008-2.464-2.992H61.4c-.016-.176 0-.352-.016-.528-.16-2.192-1.36-3.696-3.424-3.696-2.032 0-3.648 1.552-3.648 4.224 0 2.352 1.456 3.936 3.616 3.936zm-2.304-4.784c.096-1.488 1.072-2.432 2.336-2.432 1.264 0 2.048.912 2.176 2.432h-4.512zM64.482 50v-6.944h1.92v-.944h-1.92v-.752c0-.88.384-1.328 1.344-1.328.208 0 .704.032 1.04.08v-.992a9.067 9.067 0 0 0-1.136-.096c-1.648 0-2.48.752-2.48 2.304v.784h-1.392v.944h1.392V50h1.232zm4.934.096c1.472 0 2.4-.56 3.024-1.424-.016.4.048 1.056.144 1.328h1.184a6.289 6.289 0 0 1-.176-1.536V44.88c0-1.984-.864-2.912-3.104-2.912-1.872 0-3.104.768-3.392 2.208l1.152.128c.256-1.008.928-1.36 2.208-1.36 1.328 0 1.84.464 1.936 1.328.032.192.032.464.032.736-.624.016-1.152.016-1.792.096-2.16.256-3.728 1.104-3.728 2.816 0 1.44 1.12 2.176 2.512 2.176zm.368-.912c-1.056 0-1.584-.48-1.584-1.392 0-.992.88-1.68 2.592-1.904.496-.064 1.072-.064 1.632-.064v1.632c-.336.816-1.136 1.728-2.64 1.728zm8.582.944c1.056 0 2.016-.464 2.64-1.472V50h1.152v-7.888h-1.232v5.6c-.528.96-1.296 1.472-2.176 1.472-1.104 0-1.568-.496-1.568-1.744v-5.328h-1.248v5.296c0 1.984 1.008 2.72 2.432 2.72zM85.824 50V39.328h-1.248V50h1.248zm4.63.112c.433 0 .913-.048 1.345-.128v-.976a7.697 7.697 0 0 1-1.12.096c-.672-.016-1.104-.384-1.104-1.216v-4.784h1.776v-.992h-1.776v-2.064h-1.136l-.064 2.064h-1.296v.992h1.28v4.72c0 1.632.768 2.288 2.096 2.288z" fill="#94538C"/>
    <path stroke="#94538C" stroke-dasharray="2 2" d="M96 43.5h84"/>
    <g filter="url(#k6oon98kxc)">
        <path d="M194.27 30.28c-.28-.36-.63-1.09-1.24-2-.35-.5-1.21-1.45-1.47-1.94a1.26 1.26 0 0 1-.15-1 1.32 1.32 0 0 1 1.43-1c.511.103.98.353 1.35.72.258.243.496.508.71.79.16.2.2.28.38.51.18.23.3.46.21.12-.07-.5-.19-1.34-.36-2.09-.13-.57-.16-.66-.28-1.09-.12-.43-.19-.79-.32-1.28a14.19 14.19 0 0 1-.28-1.46 2.823 2.823 0 0 1 .26-1.85 1.19 1.19 0 0 1 1.3-.22c.441.325.769.78.94 1.3.262.64.437 1.313.52 2 .16 1 .47 2.46.48 2.76 0-.37-.07-1.15 0-1.5a1.07 1.07 0 0 1 .67-.8c.298-.091.613-.112.92-.06.31.065.585.243.77.5.232.583.36 1.203.38 1.83a6.75 6.75 0 0 1 .28-1.62 1.24 1.24 0 0 1 .69-.48c.331-.06.669-.06 1 0 .271.09.508.262.68.49.212.53.34 1.09.38 1.66 0 .14.07-.39.29-.74a1.002 1.002 0 1 1 1.9.64v2.26a11.724 11.724 0 0 1-.24 1.74 5.899 5.899 0 0 1-.72 1.43 7.192 7.192 0 0 0-1.19 1.81 4.004 4.004 0 0 0-.1 1c-.001.31.039.62.12.92a5.84 5.84 0 0 1-1.23 0c-.39-.06-.87-.84-1-1.08a.38.38 0 0 0-.68 0c-.22.38-.71 1.07-1.05 1.11-.67.08-2.05 0-3.14 0 0 0 .18-1-.23-1.36-.41-.36-.83-.78-1.14-1.06l-.84-.96z" fill="#fff"/>
        <path clip-rule="evenodd" d="M194.27 30.28c-.28-.36-.63-1.09-1.24-2-.35-.5-1.21-1.45-1.47-1.94a1.26 1.26 0 0 1-.15-1 1.32 1.32 0 0 1 1.43-1c.511.103.98.353 1.35.72.258.243.496.508.71.79.16.2.2.28.38.51.18.23.3.46.21.12-.07-.5-.19-1.34-.36-2.09-.13-.57-.16-.66-.28-1.09-.12-.43-.19-.79-.32-1.28a14.19 14.19 0 0 1-.28-1.46 2.823 2.823 0 0 1 .26-1.85 1.19 1.19 0 0 1 1.3-.22c.441.325.769.78.94 1.3.262.64.437 1.313.52 2 .16 1 .47 2.46.48 2.76 0-.37-.07-1.15 0-1.5a1.07 1.07 0 0 1 .67-.8c.298-.091.613-.112.92-.06.31.065.585.243.77.5.232.583.36 1.203.38 1.83a6.75 6.75 0 0 1 .28-1.62 1.24 1.24 0 0 1 .69-.48c.331-.06.669-.06 1 0 .271.09.508.262.68.49.212.53.34 1.09.38 1.66 0 .14.07-.39.29-.74a1.002 1.002 0 1 1 1.9.64v2.26a11.724 11.724 0 0 1-.24 1.74 5.899 5.899 0 0 1-.72 1.43 7.192 7.192 0 0 0-1.19 1.81 4.004 4.004 0 0 0-.1 1c-.001.31.039.62.12.92a5.84 5.84 0 0 1-1.23 0c-.39-.06-.87-.84-1-1.08a.38.38 0 0 0-.68 0c-.22.38-.71 1.07-1.05 1.11-.67.08-2.05 0-3.14 0 0 0 .18-1-.23-1.36-.41-.36-.83-.78-1.14-1.06l-.84-.96z" stroke="#000" stroke-width=".75" stroke-linecap="round" stroke-linejoin="round"/>
        <path d="M202.75 30.826v-3.452a.375.375 0 0 0-.75 0v3.452a.375.375 0 0 0 .75 0zM200.77 30.825l-.02-3.454a.374.374 0 0 0-.75.004l.02 3.454a.374.374 0 0 0 .75-.004zM198 27.379l.02 3.446a.376.376 0 1 0 .75-.004l-.02-3.446a.376.376 0 1 0-.75.004z" fill="#000"/>
    </g>
    <g filter="url(#y4h675q2rd)">
        <path d="M333.27 30.28c-.28-.36-.63-1.09-1.24-2-.35-.5-1.21-1.45-1.47-1.94a1.26 1.26 0 0 1-.15-1 1.32 1.32 0 0 1 1.43-1c.511.103.98.353 1.35.72.258.243.496.508.71.79.16.2.2.28.38.51.18.23.3.46.21.12-.07-.5-.19-1.34-.36-2.09-.13-.57-.16-.66-.28-1.09-.12-.43-.19-.79-.32-1.28a14.19 14.19 0 0 1-.28-1.46 2.823 2.823 0 0 1 .26-1.85 1.19 1.19 0 0 1 1.3-.22c.441.325.769.78.94 1.3.262.64.437 1.313.52 2 .16 1 .47 2.46.48 2.76 0-.37-.07-1.15 0-1.5a1.07 1.07 0 0 1 .67-.8c.298-.091.613-.112.92-.06.31.065.585.243.77.5.232.583.36 1.203.38 1.83a6.75 6.75 0 0 1 .28-1.62 1.24 1.24 0 0 1 .69-.48c.331-.06.669-.06 1 0 .271.09.508.262.68.49.212.53.34 1.09.38 1.66 0 .14.07-.39.29-.74a1.002 1.002 0 1 1 1.9.64v2.26a11.724 11.724 0 0 1-.24 1.74 5.899 5.899 0 0 1-.72 1.43 7.192 7.192 0 0 0-1.19 1.81 4.004 4.004 0 0 0-.1 1c-.001.31.039.62.12.92a5.84 5.84 0 0 1-1.23 0c-.39-.06-.87-.84-1-1.08a.38.38 0 0 0-.68 0c-.22.38-.71 1.07-1.05 1.11-.67.08-2.05 0-3.14 0 0 0 .18-1-.23-1.36-.41-.36-.83-.78-1.14-1.06l-.84-.96z" fill="#fff"/>
        <path clip-rule="evenodd" d="M333.27 30.28c-.28-.36-.63-1.09-1.24-2-.35-.5-1.21-1.45-1.47-1.94a1.26 1.26 0 0 1-.15-1 1.32 1.32 0 0 1 1.43-1c.511.103.98.353 1.35.72.258.243.496.508.71.79.16.2.2.28.38.51.18.23.3.46.21.12-.07-.5-.19-1.34-.36-2.09-.13-.57-.16-.66-.28-1.09-.12-.43-.19-.79-.32-1.28a14.19 14.19 0 0 1-.28-1.46 2.823 2.823 0 0 1 .26-1.85 1.19 1.19 0 0 1 1.3-.22c.441.325.769.78.94 1.3.262.64.437 1.313.52 2 .16 1 .47 2.46.48 2.76 0-.37-.07-1.15 0-1.5a1.07 1.07 0 0 1 .67-.8c.298-.091.613-.112.92-.06.31.065.585.243.77.5.232.583.36 1.203.38 1.83a6.75 6.75 0 0 1 .28-1.62 1.24 1.24 0 0 1 .69-.48c.331-.06.669-.06 1 0 .271.09.508.262.68.49.212.53.34 1.09.38 1.66 0 .14.07-.39.29-.74a1.002 1.002 0 1 1 1.9.64v2.26a11.724 11.724 0 0 1-.24 1.74 5.899 5.899 0 0 1-.72 1.43 7.192 7.192 0 0 0-1.19 1.81 4.004 4.004 0 0 0-.1 1c-.001.31.039.62.12.92a5.84 5.84 0 0 1-1.23 0c-.39-.06-.87-.84-1-1.08a.38.38 0 0 0-.68 0c-.22.38-.71 1.07-1.05 1.11-.67.08-2.05 0-3.14 0 0 0 .18-1-.23-1.36-.41-.36-.83-.78-1.14-1.06l-.84-.96z" stroke="#000" stroke-width=".75" stroke-linecap="round" stroke-linejoin="round"/>
        <path d="M341.75 30.826v-3.452a.375.375 0 0 0-.75 0v3.452a.375.375 0 0 0 .75 0zM339.77 30.825l-.02-3.454a.374.374 0 0 0-.75.004l.02 3.454a.374.374 0 0 0 .75-.004zM337 27.379l.02 3.446a.376.376 0 1 0 .75-.004l-.02-3.446a.376.376 0 1 0-.75.004z" fill="#000"/>
    </g>
    <defs>
        <clipPath id="nt22kfqjma">
            <path fill="#fff" transform="translate(178 12)" d="M0 0h16v16H0z"/>
        </clipPath>
        <clipPath id="0j30w30ukb">
            <path fill="#fff" transform="translate(316 12)" d="M0 0h16v16H0z"/>
        </clipPath>
        <filter id="k6oon98kxc" x="190.191" y="18.012" width="16.746" height="17.859" filterUnits="userSpaceOnUse" color-interpolation-filters="sRGB">
            <feFlood flood-opacity="0" result="BackgroundImageFix"/>
            <feColorMatrix in="SourceAlpha" values="0 0 0 0 0 0 0 0 0 0 0 0 0 0 0 0 0 0 127 0" result="hardAlpha"/>
            <feOffset dy="1"/>
            <feGaussianBlur stdDeviation=".4"/>
            <feColorMatrix values="0 0 0 0 0 0 0 0 0 0 0 0 0 0 0 0 0 0 0.5 0"/>
            <feBlend in2="BackgroundImageFix" result="effect1_dropShadow_2185_22431"/>
            <feBlend in="SourceGraphic" in2="effect1_dropShadow_2185_22431" result="shape"/>
        </filter>
        <filter id="y4h675q2rd" x="329.191" y="18.012" width="16.746" height="17.859" filterUnits="userSpaceOnUse" color-interpolation-filters="sRGB">
            <feFlood flood-opacity="0" result="BackgroundImageFix"/>
            <feColorMatrix in="SourceAlpha" values="0 0 0 0 0 0 0 0 0 0 0 0 0 0 0 0 0 0 127 0" result="hardAlpha"/>
            <feOffset dy="1"/>
            <feGaussianBlur stdDeviation=".4"/>
            <feColorMatrix values="0 0 0 0 0 0 0 0 0 0 0 0 0 0 0 0 0 0 0.5 0"/>
            <feBlend in2="BackgroundImageFix" result="effect1_dropShadow_2185_22431"/>
            <feBlend in="SourceGraphic" in2="effect1_dropShadow_2185_22431" result="shape"/>
        </filter>
    </defs>
</svg>
