<svg width="423" height="185" viewBox="0 0 423 185" fill="none" xmlns="http://www.w3.org/2000/svg">
<path d="M40.37 183V172.02H27.68V121.98H17.15C13.46 126.57 7.97003 131.52 1.94003 133.5V145.02C6.98003 142.95 11.21 140.34 13.82 138.45V172.02H0.590027V183H40.37Z" fill="#111111"/>
<path d="M63.2694 183V168.42H48.1494V183H63.2694Z" fill="#111111"/>
<path d="M94.614 184.08C108.834 184.08 118.014 172.29 118.014 153.39C118.014 134.04 109.194 121.89 94.704 121.89C80.394 121.89 71.304 133.32 71.304 153.3C71.304 172.2 80.664 184.08 94.614 184.08ZM94.884 173.64C88.314 173.64 85.614 166.8 85.614 153.21C85.614 139.26 88.134 132.33 94.794 132.33C101.094 132.33 103.884 139.35 103.884 153.21C103.884 166.71 100.914 173.64 94.884 173.64Z" fill="#111111"/>
<path d="M141.228 183V168.42H126.108V183H141.228Z" fill="#111111"/>
<path d="M172.573 184.08C186.793 184.08 195.973 172.29 195.973 153.39C195.973 134.04 187.153 121.89 172.663 121.89C158.353 121.89 149.263 133.32 149.263 153.3C149.263 172.2 158.623 184.08 172.573 184.08ZM172.843 173.64C166.273 173.64 163.573 166.8 163.573 153.21C163.573 139.26 166.093 132.33 172.753 132.33C179.053 132.33 181.843 139.35 181.843 153.21C181.843 166.71 178.873 173.64 172.843 173.64Z" fill="#111111"/>
<path d="M224.007 164.1V152.67H202.497V164.1H224.007Z" fill="#111111"/>
<path d="M256.434 183.63C267.054 183.63 274.434 175.89 274.434 160.59C274.434 145.38 268.854 137.55 258.594 137.55C251.664 137.55 247.524 141.33 245.004 145.2V122.97H231.234V183H239.694L241.674 176.43C245.094 180.93 249.144 183.63 256.434 183.63ZM252.564 175.08C247.884 175.08 245.094 171.93 245.094 165.45V152.94C246.534 149.79 248.784 147.09 252.834 147.09C258.054 147.09 260.034 151.59 260.034 161.04C260.034 171.12 258.054 175.08 252.564 175.08Z" fill="#111111"/>
<path d="M303.08 183.72C314.6 183.72 321.98 178.14 324.95 169.68L313.34 168.15C311.72 172.56 308.84 174.81 304.34 174.81C298.85 174.81 294.71 171.3 294.53 163.29H325.4C325.49 162.3 325.49 161.58 325.49 160.59C325.13 146.73 316.94 137.55 302.99 137.55C290.57 137.55 279.95 146.91 279.95 161.31C279.95 174.9 289.67 183.72 303.08 183.72ZM294.71 156C295.07 149.88 298.67 146.28 303.17 146.28C308.39 146.28 311 149.97 311.45 156H294.71Z" fill="#111111"/>
<path d="M351.183 183.63C353.973 183.63 357.123 183.36 359.283 183.09V173.1C357.393 173.28 355.683 173.28 353.973 173.1C350.643 172.65 349.203 170.67 349.203 167.16V147.81H358.383V138.36H349.203V124.68H336.603L335.703 138.36H328.503V147.81H335.613V169.41C335.613 178.86 341.013 183.63 351.183 183.63Z" fill="#111111"/>
<path d="M377.911 183.54C385.831 183.54 390.511 181.2 394.381 177.24C394.381 179.76 394.561 182.1 395.101 183H408.421C407.611 181.29 407.431 176.88 407.431 174.27V153.66C407.431 144.03 403.111 137.55 388.081 137.55C374.941 137.55 367.471 142.14 365.311 151.05L378.091 152.22C378.991 148.44 381.511 146.64 386.731 146.64C391.591 146.64 393.661 148.8 393.931 152.31C393.931 152.67 394.021 154.02 394.021 154.47C392.131 154.56 390.331 154.74 388.621 154.92C373.051 156.45 364.141 161.4 364.141 171.3C364.141 178.86 369.631 183.54 377.911 183.54ZM384.211 174.9C380.701 174.9 378.541 173.37 378.541 170.04C378.541 165.81 382.411 163.2 389.251 162.03C390.691 161.76 392.311 161.58 394.021 161.49V169.32C392.131 172.2 388.801 174.9 384.211 174.9Z" fill="#111111"/>
<path d="M22.6444 16V6.592L26.1004 16H27.0284L30.5004 6.592V16H31.7644V5.328H29.8124L26.6604 13.808L23.4604 5.328H21.4764V16H22.6444ZM36.1739 16.096C37.6459 16.096 38.5739 15.536 39.1979 14.672C39.1819 15.072 39.2459 15.728 39.3419 16H40.5259C40.3979 15.504 40.3499 14.96 40.3499 14.464V10.88C40.3499 8.896 39.4859 7.968 37.2459 7.968C35.3739 7.968 34.1419 8.736 33.8539 10.176L35.0059 10.304C35.2619 9.296 35.9339 8.944 37.2139 8.944C38.5419 8.944 39.0539 9.408 39.1499 10.272C39.1819 10.464 39.1819 10.736 39.1819 11.008C38.5579 11.024 38.0299 11.024 37.3899 11.104C35.2299 11.36 33.6619 12.208 33.6619 13.92C33.6619 15.36 34.7819 16.096 36.1739 16.096ZM36.5419 15.184C35.4859 15.184 34.9579 14.704 34.9579 13.792C34.9579 12.8 35.8379 12.112 37.5499 11.888C38.0459 11.824 38.6219 11.824 39.1819 11.824V13.456C38.8459 14.272 38.0459 15.184 36.5419 15.184ZM44.0514 6.72V5.312H42.6594V6.72H44.0514ZM41.7314 18.88C43.0754 18.88 43.9874 18.208 43.9874 16.4V8.112H42.7394V16.032C42.7394 17.104 42.6274 17.84 41.5714 17.84C41.1874 17.84 40.8834 17.824 40.5474 17.792V18.768C40.8994 18.832 41.3634 18.88 41.7314 18.88ZM49.3389 16.128C51.2909 16.128 52.9069 14.512 52.9069 12.032C52.9069 9.6 51.4989 7.968 49.3389 7.968C47.4029 7.968 45.8029 9.552 45.8029 12.016C45.8029 14.512 47.3069 16.128 49.3389 16.128ZM49.3229 15.2C47.9949 15.2 47.1149 14.016 47.1149 12.032C47.1149 10 48.0749 8.944 49.3229 8.944C50.6349 8.944 51.5949 9.968 51.5949 12.016C51.5949 14.144 50.6189 15.2 49.3229 15.2ZM55.9402 16V10.848C56.5962 9.744 57.5242 9.104 58.4522 9.104C58.5482 9.104 58.7082 9.104 58.8042 9.12V7.984C58.6762 7.968 58.5802 7.968 58.4362 7.968C57.3162 7.968 56.3882 8.88 55.8762 9.808V8.112H54.6922V16H55.9402Z" fill="#3D73D5"/>
<line x1="20.5" y1="20" x2="20.5" y2="103" stroke="#3D73D5" stroke-dasharray="2 2"/>
<path d="M91.5194 16V6.592L94.9754 16H95.9034L99.3754 6.592V16H100.639V5.328H98.6874L95.5354 13.808L92.3354 5.328H90.3514V16H91.5194ZM104.489 6.72V5.312H103.129V6.72H104.489ZM104.441 16V8.112H103.193V16H104.441ZM108.112 16V10.592C108.768 9.648 109.6 9.008 110.608 9.008C111.504 9.008 111.92 9.456 111.92 10.4V16H113.168V10.416C113.168 8.8 112.448 7.968 110.976 7.968C109.568 7.968 108.592 8.896 108.048 9.68V8.112H106.864V16H108.112ZM118.464 16.128C120.416 16.128 122.032 14.512 122.032 12.032C122.032 9.6 120.624 7.968 118.464 7.968C116.528 7.968 114.928 9.552 114.928 12.016C114.928 14.512 116.432 16.128 118.464 16.128ZM118.448 15.2C117.12 15.2 116.24 14.016 116.24 12.032C116.24 10 117.2 8.944 118.448 8.944C119.76 8.944 120.72 9.968 120.72 12.016C120.72 14.144 119.744 15.2 118.448 15.2ZM125.065 16V10.848C125.721 9.744 126.649 9.104 127.577 9.104C127.673 9.104 127.833 9.104 127.929 9.12V7.984C127.801 7.968 127.705 7.968 127.561 7.968C126.441 7.968 125.513 8.88 125.001 9.808V8.112H123.817V16H125.065Z" fill="#3D73D5"/>
<line x1="89.5" y1="20" x2="89.5" y2="103" stroke="#3D73D5" stroke-dasharray="2 2"/>
<path d="M169.015 16V11.392H171.607C173.655 11.392 174.935 10.208 174.935 8.368C174.935 6.48 173.783 5.328 171.463 5.328H167.687V16H169.015ZM169.015 6.464H171.575C172.791 6.464 173.591 7.216 173.591 8.416C173.591 9.6 172.791 10.304 171.479 10.304H169.015V6.464ZM178.229 16.096C179.701 16.096 180.629 15.536 181.253 14.672C181.237 15.072 181.301 15.728 181.397 16H182.581C182.453 15.504 182.405 14.96 182.405 14.464V10.88C182.405 8.896 181.541 7.968 179.301 7.968C177.429 7.968 176.197 8.736 175.909 10.176L177.061 10.304C177.317 9.296 177.989 8.944 179.269 8.944C180.597 8.944 181.109 9.408 181.205 10.272C181.237 10.464 181.237 10.736 181.237 11.008C180.613 11.024 180.085 11.024 179.445 11.104C177.285 11.36 175.717 12.208 175.717 13.92C175.717 15.36 176.837 16.096 178.229 16.096ZM178.597 15.184C177.541 15.184 177.013 14.704 177.013 13.792C177.013 12.8 177.893 12.112 179.605 11.888C180.101 11.824 180.677 11.824 181.237 11.824V13.456C180.901 14.272 180.101 15.184 178.597 15.184ZM186.986 16.112C187.418 16.112 187.898 16.064 188.33 15.984V15.008C188.042 15.056 187.578 15.104 187.21 15.104C186.538 15.088 186.106 14.72 186.106 13.888V9.104H187.882V8.112H186.106V6.048H184.97L184.906 8.112H183.61V9.104H184.89V13.824C184.89 15.456 185.658 16.112 186.986 16.112ZM192.484 16.128C194.052 16.128 195.22 15.216 195.492 13.44L194.404 13.328C194.164 14.64 193.556 15.2 192.516 15.2C191.332 15.2 190.404 14.224 190.404 12.048C190.404 10.08 191.172 8.96 192.436 8.96C193.524 8.96 194.148 9.664 194.34 10.96L195.508 10.816C195.156 8.88 194.1 7.968 192.42 7.968C190.42 7.968 189.092 9.728 189.092 12.016C189.092 14.656 190.548 16.128 192.484 16.128ZM198.401 16V10.608C199.057 9.664 199.841 9.008 200.945 9.008C201.745 9.008 202.225 9.456 202.225 10.416V16H203.473V10.32C203.473 9.024 202.897 7.968 201.297 7.968C199.825 7.968 198.865 8.848 198.353 9.664V5.328H197.153V16H198.401Z" fill="#3D73D5"/>
<line x1="166.5" y1="20" x2="166.5" y2="103" stroke="#3D73D5" stroke-dasharray="2 2"/>
<path d="M256.407 16.208C258.967 16.208 260.791 13.952 260.791 10.672C260.791 7.2 258.999 5.12 256.407 5.12C253.879 5.12 252.039 7.216 252.039 10.672C252.039 14.128 253.815 16.208 256.407 16.208ZM256.407 15.12C254.759 15.12 253.431 13.648 253.431 10.672C253.431 7.984 254.439 6.24 256.407 6.24C258.407 6.24 259.399 7.904 259.399 10.672C259.399 13.424 258.263 15.12 256.407 15.12ZM266.357 16.112C267.941 16.112 269.365 14.72 269.365 12.048C269.365 9.2 268.149 7.968 266.389 7.968C265.125 7.968 264.325 8.736 263.845 9.504V8.112H262.661V18.672H263.893V14.96C264.373 15.536 265.205 16.112 266.357 16.112ZM266.021 15.2C264.885 15.2 264.309 14.496 263.893 13.904V10.576C264.453 9.472 265.189 8.992 266.101 8.992C267.461 8.992 268.069 9.968 268.069 12.08C268.069 14.352 267.269 15.2 266.021 15.2ZM273.385 16.112C273.817 16.112 274.297 16.064 274.729 15.984V15.008C274.441 15.056 273.977 15.104 273.609 15.104C272.937 15.088 272.505 14.72 272.505 13.888V9.104H274.281V8.112H272.505V6.048H271.369L271.305 8.112H270.009V9.104H271.289V13.824C271.289 15.456 272.057 16.112 273.385 16.112ZM277.426 6.72V5.312H276.066V6.72H277.426ZM277.378 16V8.112H276.13V16H277.378ZM282.73 16.128C284.682 16.128 286.298 14.512 286.298 12.032C286.298 9.6 284.89 7.968 282.73 7.968C280.794 7.968 279.194 9.552 279.194 12.016C279.194 14.512 280.698 16.128 282.73 16.128ZM282.714 15.2C281.386 15.2 280.506 14.016 280.506 12.032C280.506 10 281.466 8.944 282.714 8.944C284.026 8.944 284.986 9.968 284.986 12.016C284.986 14.144 284.01 15.2 282.714 15.2ZM289.331 16V10.592C289.987 9.648 290.819 9.008 291.827 9.008C292.723 9.008 293.139 9.456 293.139 10.4V16H294.387V10.416C294.387 8.8 293.667 7.968 292.195 7.968C290.787 7.968 289.811 8.896 289.267 9.68V8.112H288.083V16H289.331ZM298.643 16.096C300.115 16.096 301.043 15.536 301.667 14.672C301.651 15.072 301.715 15.728 301.811 16H302.995C302.867 15.504 302.819 14.96 302.819 14.464V10.88C302.819 8.896 301.955 7.968 299.715 7.968C297.843 7.968 296.611 8.736 296.323 10.176L297.475 10.304C297.731 9.296 298.403 8.944 299.683 8.944C301.011 8.944 301.523 9.408 301.619 10.272C301.651 10.464 301.651 10.736 301.651 11.008C301.027 11.024 300.499 11.024 299.859 11.104C297.699 11.36 296.131 12.208 296.131 13.92C296.131 15.36 297.251 16.096 298.643 16.096ZM299.011 15.184C297.955 15.184 297.427 14.704 297.427 13.792C297.427 12.8 298.307 12.112 300.019 11.888C300.515 11.824 301.091 11.824 301.651 11.824V13.456C301.315 14.272 300.515 15.184 299.011 15.184ZM306.472 16V5.328H305.224V16H306.472ZM316.279 16.112C317.863 16.112 319.287 14.72 319.287 12.048C319.287 9.2 318.071 7.968 316.311 7.968C315.047 7.968 314.247 8.736 313.767 9.504V8.112H312.583V18.672H313.815V14.96C314.295 15.536 315.127 16.112 316.279 16.112ZM315.943 15.2C314.807 15.2 314.231 14.496 313.815 13.904V10.576C314.375 9.472 315.111 8.992 316.023 8.992C317.383 8.992 317.991 9.968 317.991 12.08C317.991 14.352 317.191 15.2 315.943 15.2ZM322.346 16V10.848C323.002 9.744 323.93 9.104 324.858 9.104C324.954 9.104 325.114 9.104 325.21 9.12V7.984C325.082 7.968 324.986 7.968 324.842 7.968C323.722 7.968 322.794 8.88 322.282 9.808V8.112H321.098V16H322.346ZM329.326 16.128C330.894 16.128 332.11 15.312 332.654 13.792L331.566 13.632C331.118 14.8 330.302 15.184 329.438 15.184C327.902 15.184 327.006 14.176 326.974 12.192H332.798C332.782 12.016 332.798 11.84 332.782 11.664C332.622 9.472 331.422 7.968 329.358 7.968C327.326 7.968 325.71 9.52 325.71 12.192C325.71 14.544 327.166 16.128 329.326 16.128ZM327.022 11.344C327.118 9.856 328.094 8.912 329.358 8.912C330.622 8.912 331.406 9.824 331.534 11.344H327.022ZM337.013 11.808V10.656H333.461V11.808H337.013ZM339.456 16V10.848C340.112 9.744 341.04 9.104 341.968 9.104C342.064 9.104 342.224 9.104 342.32 9.12V7.984C342.192 7.968 342.096 7.968 341.952 7.968C340.832 7.968 339.904 8.88 339.392 9.808V8.112H338.208V16H339.456ZM346.435 16.128C348.003 16.128 349.219 15.312 349.763 13.792L348.675 13.632C348.227 14.8 347.411 15.184 346.547 15.184C345.011 15.184 344.115 14.176 344.083 12.192H349.907C349.891 12.016 349.907 11.84 349.891 11.664C349.731 9.472 348.531 7.968 346.467 7.968C344.435 7.968 342.819 9.52 342.819 12.192C342.819 14.544 344.275 16.128 346.435 16.128ZM344.131 11.344C344.227 9.856 345.203 8.912 346.467 8.912C347.731 8.912 348.515 9.824 348.643 11.344H344.131ZM352.91 16V5.328H351.662V16H352.91ZM358.357 16.128C359.925 16.128 361.141 15.312 361.685 13.792L360.597 13.632C360.149 14.8 359.333 15.184 358.469 15.184C356.933 15.184 356.037 14.176 356.005 12.192H361.829C361.813 12.016 361.829 11.84 361.813 11.664C361.653 9.472 360.453 7.968 358.389 7.968C356.357 7.968 354.741 9.52 354.741 12.192C354.741 14.544 356.197 16.128 358.357 16.128ZM356.053 11.344C356.149 9.856 357.125 8.912 358.389 8.912C359.653 8.912 360.437 9.824 360.565 11.344H356.053ZM365.44 16.096C366.912 16.096 367.84 15.536 368.464 14.672C368.448 15.072 368.512 15.728 368.608 16H369.792C369.664 15.504 369.616 14.96 369.616 14.464V10.88C369.616 8.896 368.752 7.968 366.512 7.968C364.64 7.968 363.408 8.736 363.12 10.176L364.272 10.304C364.528 9.296 365.2 8.944 366.48 8.944C367.808 8.944 368.32 9.408 368.416 10.272C368.448 10.464 368.448 10.736 368.448 11.008C367.824 11.024 367.296 11.024 366.656 11.104C364.496 11.36 362.928 12.208 362.928 13.92C362.928 15.36 364.048 16.096 365.44 16.096ZM365.808 15.184C364.752 15.184 364.224 14.704 364.224 13.792C364.224 12.8 365.104 12.112 366.816 11.888C367.312 11.824 367.888 11.824 368.448 11.824V13.456C368.112 14.272 367.312 15.184 365.808 15.184ZM374.485 16.128C376.405 16.128 377.653 15.152 377.653 13.696C377.653 12.128 376.277 11.68 374.661 11.36C373.397 11.088 372.453 10.928 372.453 10.064C372.453 9.344 373.173 8.912 374.229 8.912C375.301 8.912 376.021 9.392 376.325 10.224L377.429 9.984C377.029 8.752 376.005 7.968 374.229 7.968C372.469 7.968 371.301 8.848 371.301 10.144C371.301 11.696 372.661 12.112 374.277 12.416C375.445 12.672 376.501 12.864 376.501 13.808C376.501 14.64 375.733 15.2 374.485 15.2C373.125 15.2 372.245 14.576 371.989 13.648L370.869 13.872C371.253 15.312 372.485 16.128 374.485 16.128ZM382.357 16.128C383.925 16.128 385.141 15.312 385.685 13.792L384.597 13.632C384.149 14.8 383.333 15.184 382.469 15.184C380.933 15.184 380.037 14.176 380.005 12.192H385.829C385.813 12.016 385.829 11.84 385.813 11.664C385.653 9.472 384.453 7.968 382.389 7.968C380.357 7.968 378.741 9.52 378.741 12.192C378.741 14.544 380.197 16.128 382.357 16.128ZM380.053 11.344C380.149 9.856 381.125 8.912 382.389 8.912C383.653 8.912 384.437 9.824 384.565 11.344H380.053ZM392.519 16V5.328H391.271V16H392.519ZM396.83 16.096C398.302 16.096 399.23 15.536 399.854 14.672C399.838 15.072 399.902 15.728 399.998 16H401.182C401.054 15.504 401.006 14.96 401.006 14.464V10.88C401.006 8.896 400.142 7.968 397.902 7.968C396.03 7.968 394.798 8.736 394.51 10.176L395.662 10.304C395.918 9.296 396.59 8.944 397.87 8.944C399.198 8.944 399.71 9.408 399.806 10.272C399.838 10.464 399.838 10.736 399.838 11.008C399.214 11.024 398.686 11.024 398.046 11.104C395.886 11.36 394.318 12.208 394.318 13.92C394.318 15.36 395.438 16.096 396.83 16.096ZM397.198 15.184C396.142 15.184 395.614 14.704 395.614 13.792C395.614 12.8 396.494 12.112 398.206 11.888C398.702 11.824 399.278 11.824 399.838 11.824V13.456C399.502 14.272 398.702 15.184 397.198 15.184ZM407.012 16.112C408.804 16.112 410.1 14.752 410.1 12.032C410.1 9.392 408.996 7.968 407.108 7.968C405.972 7.968 404.964 8.752 404.564 9.616V5.328H403.38V16H404.068L404.468 14.688C404.98 15.584 405.828 16.112 407.012 16.112ZM406.772 15.216C405.508 15.216 404.58 14.272 404.58 12.624V10.72C405.012 9.808 405.668 8.96 406.82 8.96C408.148 8.96 408.82 10 408.82 12.064C408.82 14.272 408.116 15.216 406.772 15.216ZM414.935 16.128C416.503 16.128 417.719 15.312 418.263 13.792L417.175 13.632C416.727 14.8 415.911 15.184 415.047 15.184C413.511 15.184 412.615 14.176 412.583 12.192H418.407C418.391 12.016 418.407 11.84 418.391 11.664C418.231 9.472 417.031 7.968 414.967 7.968C412.935 7.968 411.319 9.52 411.319 12.192C411.319 14.544 412.775 16.128 414.935 16.128ZM412.631 11.344C412.727 9.856 413.703 8.912 414.967 8.912C416.231 8.912 417.015 9.824 417.143 11.344H412.631ZM421.41 16V5.328H420.162V16H421.41Z" fill="#3D73D5"/>
<line x1="251.5" y1="20" x2="251.5" y2="103" stroke="#3D73D5" stroke-dasharray="2 2"/>
</svg>
