<svg width="400" height="126" viewBox="0 0 400 126" fill="none" xmlns="http://www.w3.org/2000/svg">
    <g filter="url(#hu8e9p8yka)">
        <path fill="#FDE7E7" d="M4 80h392v40H4z"/>
        <path fill="#FDE7E7" d="M4 86h360v28H4z"/>
        <path d="M20 93a7 7 0 1 0 .1 13.999A7 7 0 0 0 20 93zm0 13a6 6 0 1 1-.01-12 6 6 0 0 1 .01 12z" fill="#EA0017"/>
        <path d="M17 99.5v1h6v-1h-6z" fill="#EA0017"/>
        <path d="M44.656 106v-2.016h-5.008v-2.496h3.584v-1.904h-3.584V97.36h4.96v-2.032h-7.552V106h7.6zm3.847 0v-4.752c.448-.848 1.248-1.328 2.192-1.328.208 0 .56.016.72.048v-2a2.658 2.658 0 0 0-.576-.048c-1.168 0-2.112.864-2.48 1.808v-1.664h-2.368V106h2.512zm6.516 0v-4.752c.448-.848 1.248-1.328 2.192-1.328.208 0 .56.016.72.048v-2a2.658 2.658 0 0 0-.576-.048c-1.168 0-2.112.864-2.48 1.808v-1.664h-2.368V106h2.512zm7.556.128c2.48 0 4.144-1.76 4.144-4.08 0-2.464-1.632-4.128-4.096-4.128-2.352 0-4.08 1.712-4.08 4.176 0 2.32 1.663 4.032 4.032 4.032zm.08-1.6c-.992 0-1.473-.784-1.473-2.512 0-1.68.512-2.448 1.456-2.448.977 0 1.425.784 1.425 2.448 0 1.744-.497 2.512-1.409 2.512zm8.02 1.472v-4.752c.448-.848 1.248-1.328 2.192-1.328.208 0 .56.016.72.048v-2a2.658 2.658 0 0 0-.576-.048c-1.168 0-2.112.864-2.48 1.808v-1.664h-2.368V106h2.512zm6.626-5.44v-2.496h-2.593v2.496h2.593zm0 5.44v-2.496h-2.593V106h2.593zm7.586 0v-9.408L88.343 106h.928l3.472-9.408V106h1.264V95.328h-1.952l-3.152 8.48-3.2-8.48h-1.984V106h1.168zm14.665.128c1.568 0 2.784-.816 3.328-2.336l-1.088-.16c-.448 1.168-1.264 1.552-2.128 1.552-1.536 0-2.432-1.008-2.464-2.992h5.824c-.016-.176 0-.352-.016-.528-.16-2.192-1.36-3.696-3.424-3.696-2.032 0-3.648 1.552-3.648 4.224 0 2.352 1.456 3.936 3.616 3.936zm-2.304-4.784c.096-1.488 1.072-2.432 2.336-2.432 1.264 0 2.048.912 2.176 2.432h-4.512zm9.995 4.784c1.92 0 3.168-.976 3.168-2.432 0-1.568-1.376-2.016-2.992-2.336-1.264-.272-2.208-.432-2.208-1.296 0-.72.72-1.152 1.776-1.152 1.072 0 1.792.48 2.096 1.312l1.104-.24c-.4-1.232-1.424-2.016-3.2-2.016-1.76 0-2.928.88-2.928 2.176 0 1.552 1.36 1.968 2.976 2.272 1.168.256 2.224.448 2.224 1.392 0 .832-.768 1.392-2.016 1.392-1.36 0-2.24-.624-2.496-1.552l-1.12.224c.384 1.44 1.616 2.256 3.616 2.256zm7.344 0c1.92 0 3.168-.976 3.168-2.432 0-1.568-1.376-2.016-2.992-2.336-1.264-.272-2.208-.432-2.208-1.296 0-.72.72-1.152 1.776-1.152 1.072 0 1.792.48 2.096 1.312l1.104-.24c-.4-1.232-1.424-2.016-3.2-2.016-1.76 0-2.928.88-2.928 2.176 0 1.552 1.36 1.968 2.976 2.272 1.168.256 2.224.448 2.224 1.392 0 .832-.768 1.392-2.016 1.392-1.36 0-2.24-.624-2.496-1.552l-1.12.224c.384 1.44 1.616 2.256 3.616 2.256zm6.735-.032c1.472 0 2.4-.56 3.024-1.424-.016.4.048 1.056.144 1.328h1.184a6.289 6.289 0 0 1-.176-1.536v-3.584c0-1.984-.864-2.912-3.104-2.912-1.872 0-3.104.768-3.392 2.208l1.152.128c.256-1.008.928-1.36 2.208-1.36 1.328 0 1.84.464 1.936 1.328.032.192.032.464.032.736-.624.016-1.152.016-1.792.096-2.16.256-3.728 1.104-3.728 2.816 0 1.44 1.12 2.176 2.512 2.176zm.368-.912c-1.056 0-1.584-.48-1.584-1.392 0-.992.88-1.68 2.592-1.904.496-.064 1.072-.064 1.632-.064v1.632c-.336.816-1.136 1.728-2.64 1.728zm9.11 3.792c2.56 0 3.856-.96 3.856-2.336 0-1.296-.896-1.824-3.408-1.872-1.6-.048-2.592-.048-2.592-.752 0-.48.448-.784.864-.784.128.032.64.144 1.152.144 1.792 0 2.88-1.136 2.88-2.704 0-.816-.304-1.44-.72-1.808.128-.576.464-.912 1.264-.896.096 0 .176.016.272.032l-.016-1.04h-.192c-1.344-.016-1.776.528-1.968 1.392-.48-.256-1.056-.384-1.648-.384-1.584 0-2.944 1.088-2.944 2.704 0 .96.384 1.776 1.152 2.176-.704.192-1.248.672-1.248 1.344 0 .608.32 1.056 1.12 1.28-.96.24-1.536.832-1.536 1.616 0 1.216 1.28 1.888 3.712 1.888zm-.192-6.432c-1.072 0-1.776-.64-1.776-1.872 0-.992.608-1.808 1.776-1.808 1.184 0 1.776.864 1.776 1.824 0 1.184-.656 1.856-1.776 1.856zm.096 5.6c-1.76 0-2.48-.448-2.48-1.2 0-.704.48-1.024 1.104-1.2 3.552.08 4.144.256 4.144 1.056s-1.008 1.344-2.768 1.344zm8.051-2.016c1.568 0 2.784-.816 3.328-2.336l-1.088-.16c-.448 1.168-1.264 1.552-2.128 1.552-1.536 0-2.432-1.008-2.464-2.992h5.824c-.016-.176 0-.352-.016-.528-.16-2.192-1.36-3.696-3.424-3.696-2.032 0-3.648 1.552-3.648 4.224 0 2.352 1.456 3.936 3.616 3.936zm-2.304-4.784c.096-1.488 1.072-2.432 2.336-2.432 1.264 0 2.048.912 2.176 2.432h-4.512z" fill="#111"/>
        <path fill="#FDE7E7" d="M364 84h32v32h-32z"/>
        <path d="m385 95.65-.65-.65-4.35 4.34-4.35-4.34-.65.65 4.34 4.35-4.34 4.35.65.65 4.35-4.34 4.35 4.34.65-.65-4.34-4.35 4.34-4.35z" fill="#111"/>
    </g>
    <rect x="4" width="28" height="28" rx="14" fill="#94538C"/>
    <path d="M21.293 20v-1.056H18.94V9.12h-.96c-.688 1.136-1.44 1.968-2.608 2.608v1.376c1.52-.864 1.904-1.552 2.288-2v7.84h-2.4V20h6.032z" fill="#FCFCFC"/>
    <path stroke="#94538C" stroke-dasharray="2 2" d="M18.5 28v62"/>
    <rect x="48" width="28" height="28" rx="14" fill="#94538C"/>
    <path d="M65.832 20v-1.12h-6.08c3.968-2.704 5.84-4.448 5.84-6.464 0-1.968-1.344-3.264-3.6-3.264-2.192 0-3.504 1.248-3.856 3.184l1.232.24c.192-1.52 1.184-2.336 2.576-2.336 1.584 0 2.304.928 2.304 2.096 0 1.808-1.136 2.944-6.112 6.624V20h7.696z" fill="#FCFCFC"/>
    <path stroke="#94538C" stroke-dasharray="2 2" d="M62.5 28v62"/>
    <rect x="347" width="28" height="28" rx="14" fill="#94538C"/>
    <path d="M363.376 20v-2.496h1.712V16.4h-1.712V9.12h-1.408l-5.168 7.36v1.024h5.328V20h1.248zm-1.248-9.424V16.4h-4.144l4.144-5.824z" fill="#FCFCFC"/>
    <path stroke="#94538C" stroke-dasharray="2 2" d="M361.5 28v62"/>
    <rect x="235" y="20" width="28" height="28" rx="14" fill="#94538C"/>
    <path d="M248.944 40.192c2.528 0 3.92-1.36 3.92-3.136 0-1.408-.944-2.368-2.448-2.672 1.312-.32 2.048-1.248 2.048-2.496 0-1.6-1.232-2.752-3.584-2.752-1.76 0-3.136.88-3.696 2.544l1.2.24c.304-1.04 1.2-1.696 2.528-1.696 1.376 0 2.224.656 2.224 1.792 0 1.232-.848 1.888-2.496 1.888h-1.232v1.088h1.232c1.872 0 2.88.832 2.88 2.048 0 1.168-.832 2.096-2.608 2.096-1.664 0-2.496-.592-2.864-1.92l-1.248.24c.496 1.888 1.92 2.736 4.144 2.736z" fill="#FCFCFC"/>
    <path stroke="#94538C" stroke-dasharray="2 2" d="M249.5 48v32"/>
    <defs>
        <filter id="hu8e9p8yka" x="0" y="78" width="400" height="48" filterUnits="userSpaceOnUse" color-interpolation-filters="sRGB">
            <feFlood flood-opacity="0" result="BackgroundImageFix"/>
            <feColorMatrix in="SourceAlpha" values="0 0 0 0 0 0 0 0 0 0 0 0 0 0 0 0 0 0 127 0" result="hardAlpha"/>
            <feOffset dy="2"/>
            <feGaussianBlur stdDeviation="2"/>
            <feComposite in2="hardAlpha" operator="out"/>
            <feColorMatrix values="0 0 0 0 0.4 0 0 0 0 0.4 0 0 0 0 0.4 0 0 0 0.25 0"/>
            <feBlend in2="BackgroundImageFix" result="effect1_dropShadow_593_9075"/>
            <feBlend in="SourceGraphic" in2="effect1_dropShadow_593_9075" result="shape"/>
        </filter>
    </defs>
</svg>
