<svg width="380" height="56" viewBox="0 0 380 56" fill="none" xmlns="http://www.w3.org/2000/svg">
<rect width="380" height="56" fill="#DDE6F2"/>
<rect width="380" height="48" transform="translate(0 4)" fill="#DDE6F2"/>
<path d="M16 10.9999C14.3827 11.0116 12.8194 11.5829 11.5756 12.6167C10.3319 13.6506 9.48453 15.0833 9.17757 16.6712C8.87061 18.2591 9.12298 19.9044 9.89179 21.3273C10.6606 22.7502 11.8984 23.863 13.3949 24.4765C14.8913 25.0901 16.554 25.1665 18.1004 24.6928C19.6469 24.2191 20.9815 23.2246 21.8776 21.8782C22.7738 20.5318 23.176 18.9167 23.016 17.3073C22.856 15.6979 22.1437 14.1935 21 13.0499C20.344 12.394 19.5642 11.8749 18.7058 11.523C17.8474 11.1711 16.9277 10.9933 16 10.9999ZM16 23.9999C14.6118 24.0012 13.2661 23.521 12.1923 22.6412C11.1185 21.7615 10.3829 20.5366 10.111 19.1753C9.83904 17.814 10.0476 16.4005 10.701 15.1757C11.3544 13.9509 12.4123 12.9906 13.6945 12.4584C14.9766 11.9262 16.4036 11.855 17.7323 12.257C19.061 12.6591 20.2092 13.5094 20.9813 14.6631C21.7533 15.8168 22.1014 17.2025 21.9662 18.5841C21.8311 19.9657 21.221 21.2577 20.24 22.2399C19.1159 23.3655 17.5908 23.9985 16 23.9999Z" fill="#3D73D5"/>
<path d="M16.5 14.4999H15.5V15.4999H16.5V14.4999Z" fill="#3D73D5"/>
<path d="M16.5 16.4999H14.5V17.4999H15.5V20.9999H14.5V21.9999H17.5V20.9999H16.5V16.4999Z" fill="#3D73D5"/>
<path d="M37.088 24.144C38.464 24.144 39.424 23.696 40.08 22.848L40.496 24H41.84V18.544H37.296V20.416H39.36C39.344 20.496 39.328 20.64 39.296 20.8C39.152 21.648 38.432 22.16 37.456 22.16C36.016 22.16 35.312 20.976 35.312 18.64C35.312 16.352 35.984 15.12 37.408 15.12C38.528 15.12 39.072 16.032 39.264 17.088L41.776 16.544C41.264 14.48 39.968 13.12 37.472 13.12C34.304 13.12 32.528 15.264 32.528 18.848C32.528 22.176 34.368 24.144 37.088 24.144ZM47.342 24.128C49.39 24.128 50.702 23.136 51.23 21.632L49.166 21.36C48.878 22.144 48.366 22.544 47.566 22.544C46.59 22.544 45.854 21.92 45.822 20.496H51.31C51.326 20.32 51.326 20.192 51.326 20.016C51.262 17.552 49.806 15.92 47.326 15.92C45.118 15.92 43.23 17.584 43.23 20.144C43.23 22.56 44.958 24.128 47.342 24.128ZM45.854 19.2C45.918 18.112 46.558 17.472 47.358 17.472C48.286 17.472 48.75 18.128 48.83 19.2H45.854ZM55.8936 24.112C56.3896 24.112 56.9496 24.064 57.3336 24.016V22.24C56.9976 22.272 56.6936 22.272 56.3896 22.24C55.7976 22.16 55.5416 21.808 55.5416 21.184V17.744H57.1736V16.064H55.5416V13.632H53.3016L53.1416 16.064H51.8616V17.744H53.1256V21.584C53.1256 23.264 54.0856 24.112 55.8936 24.112ZM62.2464 26.752C62.4064 26.752 62.5504 26.768 62.6944 26.768C65.2384 26.768 66.0704 25.856 66.5184 24.624L69.6544 16.064H67.6384L66.2784 20.048L66.0064 20.912L65.7344 20.032L64.3744 16.064H61.7184L64.3104 22.736C64.4544 23.12 64.5344 23.456 64.5344 23.744C64.5344 24.512 63.9744 24.96 62.7104 24.96C62.5664 24.96 62.4224 24.96 62.2464 24.944V26.752ZM73.9026 24.128C76.3826 24.128 78.0466 22.368 78.0466 20.048C78.0466 17.584 76.4146 15.92 73.9506 15.92C71.5986 15.92 69.8706 17.632 69.8706 20.096C69.8706 22.416 71.5346 24.128 73.9026 24.128ZM73.9826 22.528C72.9906 22.528 72.5106 21.744 72.5106 20.016C72.5106 18.336 73.0226 17.568 73.9666 17.568C74.9426 17.568 75.3906 18.352 75.3906 20.016C75.3906 21.76 74.8946 22.528 73.9826 22.528ZM81.7793 24.128C82.9153 24.128 83.7793 23.712 84.3233 22.864L84.3073 24H86.7073V16.064H84.2113V21.584C83.9553 22.112 83.5233 22.512 82.9313 22.512C82.2753 22.512 81.9553 22.224 81.9553 21.472V16.064H79.4593V21.6C79.4593 23.36 80.4193 24.128 81.7793 24.128ZM91.1283 24V19.248C91.5763 18.4 92.3763 17.92 93.3203 17.92C93.5283 17.92 93.8803 17.936 94.0403 17.968V15.968C93.9123 15.936 93.7043 15.92 93.4643 15.92C92.2963 15.92 91.3523 16.784 90.9843 17.728V16.064H88.6163V24H91.1283ZM102.215 24V17.744H104.087V16.064H102.199C102.199 15.936 102.199 15.776 102.199 15.552C102.199 14.896 102.471 14.608 103.271 14.608C103.559 14.608 103.943 14.624 104.263 14.656V13.04C103.655 12.928 103.175 12.896 102.551 12.896C100.439 12.896 99.671 13.76 99.671 15.312C99.671 15.44 99.671 16.016 99.671 16.064H98.423V17.744H99.671V24H102.215ZM107.535 24V19.248C107.983 18.4 108.783 17.92 109.727 17.92C109.935 17.92 110.287 17.936 110.447 17.968V15.968C110.319 15.936 110.111 15.92 109.871 15.92C108.703 15.92 107.759 16.784 107.391 17.728V16.064H105.023V24H107.535ZM115.123 24.128C117.171 24.128 118.483 23.136 119.011 21.632L116.947 21.36C116.659 22.144 116.147 22.544 115.347 22.544C114.371 22.544 113.635 21.92 113.603 20.496H119.091C119.107 20.32 119.107 20.192 119.107 20.016C119.043 17.552 117.587 15.92 115.107 15.92C112.899 15.92 111.011 17.584 111.011 20.144C111.011 22.56 112.739 24.128 115.123 24.128ZM113.635 19.2C113.699 18.112 114.339 17.472 115.139 17.472C116.067 17.472 116.531 18.128 116.611 19.2H113.635ZM124.139 24.128C126.187 24.128 127.499 23.136 128.027 21.632L125.963 21.36C125.675 22.144 125.163 22.544 124.363 22.544C123.387 22.544 122.651 21.92 122.619 20.496H128.107C128.123 20.32 128.123 20.192 128.123 20.016C128.059 17.552 126.603 15.92 124.123 15.92C121.915 15.92 120.027 17.584 120.027 20.144C120.027 22.56 121.755 24.128 124.139 24.128ZM122.651 19.2C122.715 18.112 123.355 17.472 124.155 17.472C125.083 17.472 125.547 18.128 125.627 19.2H122.651ZM136.846 24.128C139.15 24.128 140.526 23.056 140.526 21.504C140.526 19.84 139.406 19.264 137.182 18.992C135.966 18.816 135.422 18.72 135.422 18.192C135.422 17.68 135.918 17.456 136.718 17.456C137.55 17.456 138.094 17.744 138.286 18.352L140.222 17.968C139.854 16.672 138.558 15.92 136.702 15.92C134.606 15.92 133.262 16.928 133.262 18.496C133.262 20.16 134.414 20.608 136.798 20.896C137.758 21.024 138.398 21.136 138.398 21.728C138.398 22.272 137.774 22.544 136.894 22.544C135.71 22.544 135.07 22.176 134.894 21.456L132.894 21.824C133.294 23.376 134.654 24.128 136.846 24.128ZM144.139 24.128C145.275 24.128 146.139 23.712 146.683 22.864L146.667 24H149.067V16.064H146.571V21.584C146.315 22.112 145.883 22.512 145.291 22.512C144.635 22.512 144.315 22.224 144.315 21.472V16.064H141.819V21.6C141.819 23.36 142.779 24.128 144.139 24.128ZM155.456 24.112C157.344 24.112 158.656 22.736 158.656 20.016C158.656 17.312 157.664 15.92 155.84 15.92C154.608 15.92 153.872 16.592 153.424 17.28V13.328H150.976V24H152.48L152.832 22.832C153.44 23.632 154.16 24.112 155.456 24.112ZM154.768 22.592C153.936 22.592 153.44 22.032 153.44 20.88V18.656C153.696 18.096 154.096 17.616 154.816 17.616C155.744 17.616 156.096 18.416 156.096 20.096C156.096 21.888 155.744 22.592 154.768 22.592ZM163.236 24.128C165.54 24.128 166.916 23.056 166.916 21.504C166.916 19.84 165.796 19.264 163.572 18.992C162.356 18.816 161.812 18.72 161.812 18.192C161.812 17.68 162.308 17.456 163.108 17.456C163.94 17.456 164.484 17.744 164.676 18.352L166.612 17.968C166.244 16.672 164.948 15.92 163.092 15.92C160.996 15.92 159.652 16.928 159.652 18.496C159.652 20.16 160.804 20.608 163.188 20.896C164.148 21.024 164.788 21.136 164.788 21.728C164.788 22.272 164.164 22.544 163.284 22.544C162.1 22.544 161.46 22.176 161.284 21.456L159.284 21.824C159.684 23.376 161.044 24.128 163.236 24.128ZM171.649 24.144C173.713 24.144 174.977 23.136 175.217 21.328L173.073 21.136C172.929 22.032 172.577 22.56 171.793 22.56C170.929 22.56 170.401 21.792 170.401 20.032C170.401 18.416 170.865 17.568 171.761 17.568C172.545 17.568 172.881 18.192 172.993 19.104L175.201 18.896C174.881 16.944 173.601 15.92 171.681 15.92C169.281 15.92 167.761 17.76 167.761 20.016C167.761 22.624 169.361 24.144 171.649 24.144ZM179.035 24V19.248C179.483 18.4 180.283 17.92 181.227 17.92C181.435 17.92 181.787 17.936 181.947 17.968V15.968C181.819 15.936 181.611 15.92 181.371 15.92C180.203 15.92 179.259 16.784 178.891 17.728V16.064H176.523V24H179.035ZM185.55 15.216V13.12H183.022V15.216H185.55ZM185.534 24V16.064H183.038V24H185.534ZM192.116 24.112C193.844 24.112 195.14 22.656 195.14 20.016C195.14 17.168 194.036 15.92 192.324 15.92C190.98 15.92 190.324 16.688 189.828 17.392V16.064H187.476V26.56H189.956V23.2C190.5 23.68 191.076 24.112 192.116 24.112ZM191.284 22.608C190.58 22.608 190.228 22.144 189.94 21.808V18.656C190.244 18.032 190.676 17.648 191.3 17.648C192.18 17.648 192.564 18.24 192.564 20.128C192.564 22.096 192.116 22.608 191.284 22.608ZM199.769 24.112C200.265 24.112 200.825 24.064 201.209 24.016V22.24C200.873 22.272 200.569 22.272 200.265 22.24C199.673 22.16 199.417 21.808 199.417 21.184V17.744H201.049V16.064H199.417V13.632H197.177L197.017 16.064H195.737V17.744H197.001V21.584C197.001 23.264 197.961 24.112 199.769 24.112ZM204.878 15.216V13.12H202.35V15.216H204.878ZM204.862 24V16.064H202.366V24H204.862ZM210.356 24.128C212.836 24.128 214.5 22.368 214.5 20.048C214.5 17.584 212.868 15.92 210.404 15.92C208.052 15.92 206.324 17.632 206.324 20.096C206.324 22.416 207.988 24.128 210.356 24.128ZM210.436 22.528C209.444 22.528 208.964 21.744 208.964 20.016C208.964 18.336 209.476 17.568 210.42 17.568C211.396 17.568 211.844 18.352 211.844 20.016C211.844 21.76 211.348 22.528 210.436 22.528ZM218.408 24V18.56C218.728 18.08 219.16 17.632 219.816 17.632C220.424 17.632 220.68 18 220.68 18.496V24H223.16V18.416C223.16 16.896 222.504 15.92 220.872 15.92C219.528 15.92 218.776 16.72 218.312 17.376V16.064H215.928V24H218.408ZM227.246 20.704L228.03 13.328H224.958L225.71 20.704H227.246ZM227.758 24V21.552H225.214V24H227.758ZM238.022 24.176C240.102 24.176 241.478 23.072 241.99 20.672L240.774 20.432C240.454 22.112 239.59 23.088 238.07 23.088C236.406 23.088 235.174 21.632 235.174 18.736C235.174 15.84 236.342 14.304 238.102 14.304C239.462 14.304 240.326 15.008 240.742 16.816L242.022 16.544C241.51 14.192 240.118 13.12 238.086 13.12C235.67 13.12 233.75 15.104 233.75 18.736C233.75 22.208 235.462 24.176 238.022 24.176ZM246.472 24.128C248.424 24.128 250.04 22.512 250.04 20.032C250.04 17.6 248.632 15.968 246.472 15.968C244.536 15.968 242.936 17.552 242.936 20.016C242.936 22.512 244.44 24.128 246.472 24.128ZM246.456 23.2C245.128 23.2 244.248 22.016 244.248 20.032C244.248 18 245.208 16.944 246.456 16.944C247.768 16.944 248.728 17.968 248.728 20.016C248.728 22.144 247.752 23.2 246.456 23.2ZM253.073 24V18.592C253.729 17.648 254.561 17.008 255.569 17.008C256.465 17.008 256.881 17.456 256.881 18.4V24H258.129V18.416C258.129 16.8 257.409 15.968 255.937 15.968C254.529 15.968 253.553 16.896 253.009 17.68V16.112H251.825V24H253.073ZM263.347 26.976C265.907 26.976 267.203 26.016 267.203 24.64C267.203 23.344 266.307 22.816 263.795 22.768C262.195 22.72 261.203 22.72 261.203 22.016C261.203 21.536 261.651 21.232 262.067 21.232C262.195 21.264 262.707 21.376 263.219 21.376C265.011 21.376 266.099 20.24 266.099 18.672C266.099 17.856 265.795 17.232 265.379 16.864C265.507 16.288 265.843 15.952 266.643 15.968C266.739 15.968 266.819 15.984 266.915 16L266.899 14.96C266.851 14.96 266.755 14.96 266.707 14.96C265.363 14.944 264.931 15.488 264.739 16.352C264.259 16.096 263.683 15.968 263.091 15.968C261.507 15.968 260.147 17.056 260.147 18.672C260.147 19.632 260.531 20.448 261.299 20.848C260.595 21.04 260.051 21.52 260.051 22.192C260.051 22.8 260.371 23.248 261.171 23.472C260.211 23.712 259.635 24.304 259.635 25.088C259.635 26.304 260.915 26.976 263.347 26.976ZM263.155 20.544C262.083 20.544 261.379 19.904 261.379 18.672C261.379 17.68 261.987 16.864 263.155 16.864C264.339 16.864 264.931 17.728 264.931 18.688C264.931 19.872 264.275 20.544 263.155 20.544ZM263.251 26.144C261.491 26.144 260.771 25.696 260.771 24.944C260.771 24.24 261.251 23.92 261.875 23.744C265.427 23.824 266.019 24 266.019 24.8C266.019 25.6 265.011 26.144 263.251 26.144ZM269.526 24V18.848C270.182 17.744 271.11 17.104 272.038 17.104C272.134 17.104 272.294 17.104 272.39 17.12V15.984C272.262 15.968 272.166 15.968 272.022 15.968C270.902 15.968 269.974 16.88 269.462 17.808V16.112H268.278V24H269.526ZM275.526 24.096C276.998 24.096 277.926 23.536 278.55 22.672C278.534 23.072 278.598 23.728 278.694 24H279.878C279.75 23.504 279.702 22.96 279.702 22.464V18.88C279.702 16.896 278.838 15.968 276.598 15.968C274.726 15.968 273.493 16.736 273.206 18.176L274.358 18.304C274.614 17.296 275.286 16.944 276.566 16.944C277.894 16.944 278.406 17.408 278.502 18.272C278.534 18.464 278.534 18.736 278.534 19.008C277.91 19.024 277.382 19.024 276.742 19.104C274.582 19.36 273.014 20.208 273.014 21.92C273.014 23.36 274.134 24.096 275.526 24.096ZM275.894 23.184C274.838 23.184 274.31 22.704 274.31 21.792C274.31 20.8 275.19 20.112 276.902 19.888C277.398 19.824 277.974 19.824 278.534 19.824V21.456C278.198 22.272 277.398 23.184 275.894 23.184ZM284.283 24.112C284.715 24.112 285.195 24.064 285.627 23.984V23.008C285.339 23.056 284.875 23.104 284.507 23.104C283.835 23.088 283.403 22.72 283.403 21.888V17.104H285.179V16.112H283.403V14.048H282.267L282.203 16.112H280.907V17.104H282.187V21.824C282.187 23.456 282.955 24.112 284.283 24.112ZM289.493 24.128C291.413 24.128 292.661 23.152 292.661 21.696C292.661 20.128 291.285 19.68 289.669 19.36C288.405 19.088 287.461 18.928 287.461 18.064C287.461 17.344 288.181 16.912 289.237 16.912C290.309 16.912 291.029 17.392 291.333 18.224L292.437 17.984C292.037 16.752 291.013 15.968 289.237 15.968C287.477 15.968 286.309 16.848 286.309 18.144C286.309 19.696 287.669 20.112 289.285 20.416C290.453 20.672 291.509 20.864 291.509 21.808C291.509 22.64 290.741 23.2 289.493 23.2C288.133 23.2 287.253 22.576 286.997 21.648L285.877 21.872C286.261 23.312 287.493 24.128 289.493 24.128ZM297.388 26.768C299.324 26.768 300.236 25.952 300.716 24.56L303.724 16.112H302.62L300.796 21.264L300.476 22.272L300.156 21.264L298.204 16.112H296.86L299.452 22.848C300.124 24.608 299.116 25.76 297.356 25.76L297.388 26.768ZM307.831 24.128C309.783 24.128 311.399 22.512 311.399 20.032C311.399 17.6 309.991 15.968 307.831 15.968C305.895 15.968 304.295 17.552 304.295 20.016C304.295 22.512 305.799 24.128 307.831 24.128ZM307.815 23.2C306.487 23.2 305.607 22.016 305.607 20.032C305.607 18 306.567 16.944 307.815 16.944C309.127 16.944 310.087 17.968 310.087 20.016C310.087 22.144 309.111 23.2 307.815 23.2ZM315.584 24.128C316.64 24.128 317.6 23.664 318.224 22.656V24H319.376V16.112H318.144V21.712C317.616 22.672 316.848 23.184 315.968 23.184C314.864 23.184 314.4 22.688 314.4 21.44V16.112H313.152V21.408C313.152 23.392 314.16 24.128 315.584 24.128ZM328.378 26.976C330.938 26.976 332.234 26.016 332.234 24.64C332.234 23.344 331.338 22.816 328.826 22.768C327.226 22.72 326.234 22.72 326.234 22.016C326.234 21.536 326.682 21.232 327.098 21.232C327.226 21.264 327.738 21.376 328.25 21.376C330.042 21.376 331.13 20.24 331.13 18.672C331.13 17.856 330.826 17.232 330.41 16.864C330.538 16.288 330.874 15.952 331.674 15.968C331.77 15.968 331.85 15.984 331.946 16L331.93 14.96C331.882 14.96 331.786 14.96 331.738 14.96C330.394 14.944 329.962 15.488 329.77 16.352C329.29 16.096 328.714 15.968 328.122 15.968C326.538 15.968 325.178 17.056 325.178 18.672C325.178 19.632 325.562 20.448 326.33 20.848C325.626 21.04 325.082 21.52 325.082 22.192C325.082 22.8 325.402 23.248 326.202 23.472C325.242 23.712 324.666 24.304 324.666 25.088C324.666 26.304 325.946 26.976 328.378 26.976ZM328.186 20.544C327.114 20.544 326.41 19.904 326.41 18.672C326.41 17.68 327.018 16.864 328.186 16.864C329.37 16.864 329.962 17.728 329.962 18.688C329.962 19.872 329.306 20.544 328.186 20.544ZM328.282 26.144C326.522 26.144 325.802 25.696 325.802 24.944C325.802 24.24 326.282 23.92 326.906 23.744C330.458 23.824 331.05 24 331.05 24.8C331.05 25.6 330.042 26.144 328.282 26.144ZM336.333 24.128C337.901 24.128 339.117 23.312 339.661 21.792L338.573 21.632C338.125 22.8 337.309 23.184 336.445 23.184C334.909 23.184 334.013 22.176 333.981 20.192H339.805C339.789 20.016 339.805 19.84 339.789 19.664C339.629 17.472 338.429 15.968 336.365 15.968C334.333 15.968 332.717 17.52 332.717 20.192C332.717 22.544 334.173 24.128 336.333 24.128ZM334.029 19.344C334.125 17.856 335.101 16.912 336.365 16.912C337.629 16.912 338.413 17.824 338.541 19.344H334.029ZM343.736 24.112C344.168 24.112 344.648 24.064 345.08 23.984V23.008C344.792 23.056 344.328 23.104 343.96 23.104C343.288 23.088 342.856 22.72 342.856 21.888V17.104H344.632V16.112H342.856V14.048H341.72L341.656 16.112H340.36V17.104H341.64V21.824C341.64 23.456 342.408 24.112 343.736 24.112ZM352.026 24.096C353.498 24.096 354.426 23.536 355.05 22.672C355.034 23.072 355.098 23.728 355.194 24H356.378C356.25 23.504 356.202 22.96 356.202 22.464V18.88C356.202 16.896 355.338 15.968 353.098 15.968C351.226 15.968 349.993 16.736 349.706 18.176L350.858 18.304C351.114 17.296 351.786 16.944 353.066 16.944C354.394 16.944 354.906 17.408 355.002 18.272C355.034 18.464 355.034 18.736 355.034 19.008C354.41 19.024 353.882 19.024 353.242 19.104C351.082 19.36 349.514 20.208 349.514 21.92C349.514 23.36 350.634 24.096 352.026 24.096ZM352.394 23.184C351.338 23.184 350.81 22.704 350.81 21.792C350.81 20.8 351.69 20.112 353.402 19.888C353.898 19.824 354.474 19.824 355.034 19.824V21.456C354.698 22.272 353.898 23.184 352.394 23.184ZM34.448 44V38.592C35.104 37.648 35.936 37.008 36.944 37.008C37.84 37.008 38.256 37.456 38.256 38.4V44H39.504V38.416C39.504 36.8 38.784 35.968 37.312 35.968C35.904 35.968 34.928 36.896 34.384 37.68V36.112H33.2V44H34.448ZM44.8959 44.128C46.4639 44.128 47.6799 43.312 48.2239 41.792L47.1359 41.632C46.6879 42.8 45.8719 43.184 45.0079 43.184C43.4719 43.184 42.5759 42.176 42.5439 40.192H48.3679C48.3519 40.016 48.3679 39.84 48.3519 39.664C48.1919 37.472 46.9919 35.968 44.9279 35.968C42.8959 35.968 41.2799 37.52 41.2799 40.192C41.2799 42.544 42.7359 44.128 44.8959 44.128ZM42.5919 39.344C42.6879 37.856 43.6639 36.912 44.9279 36.912C46.1919 36.912 46.9759 37.824 47.1039 39.344H42.5919ZM52.4266 44L53.9626 38.624L54.1226 37.936L54.3146 38.656L55.9146 44H56.9706L59.3226 36.112H58.2506L56.7146 41.584L56.5066 42.256L56.3306 41.552L54.7146 36.112H53.6906L52.1866 41.504L51.9946 42.224L51.8186 41.504L50.2506 36.112H48.9866L51.3706 44H52.4266ZM66.7741 44.128C68.6941 44.128 69.9421 43.152 69.9421 41.696C69.9421 40.128 68.5661 39.68 66.9501 39.36C65.6861 39.088 64.7421 38.928 64.7421 38.064C64.7421 37.344 65.4621 36.912 66.5181 36.912C67.5901 36.912 68.3101 37.392 68.6141 38.224L69.7181 37.984C69.3181 36.752 68.2941 35.968 66.5181 35.968C64.7581 35.968 63.5901 36.848 63.5901 38.144C63.5901 39.696 64.9501 40.112 66.5661 40.416C67.7341 40.672 68.7901 40.864 68.7901 41.808C68.7901 42.64 68.0221 43.2 66.7741 43.2C65.4141 43.2 64.5341 42.576 64.2781 41.648L63.1581 41.872C63.5421 43.312 64.7741 44.128 66.7741 44.128ZM74.0219 44.128C75.0779 44.128 76.0379 43.664 76.6619 42.656V44H77.8139V36.112H76.5819V41.712C76.0539 42.672 75.2859 43.184 74.4059 43.184C73.3019 43.184 72.8379 42.688 72.8379 41.44V36.112H71.5899V41.408C71.5899 43.392 72.5979 44.128 74.0219 44.128ZM83.832 44.112C85.624 44.112 86.92 42.752 86.92 40.032C86.92 37.392 85.816 35.968 83.928 35.968C82.792 35.968 81.784 36.752 81.384 37.616V33.328H80.2V44H80.888L81.288 42.688C81.8 43.584 82.648 44.112 83.832 44.112ZM83.592 43.216C82.328 43.216 81.4 42.272 81.4 40.624V38.72C81.832 37.808 82.488 36.96 83.64 36.96C84.968 36.96 85.64 38 85.64 40.064C85.64 42.272 84.936 43.216 83.592 43.216ZM91.2273 44.128C93.1473 44.128 94.3953 43.152 94.3953 41.696C94.3953 40.128 93.0193 39.68 91.4033 39.36C90.1393 39.088 89.1953 38.928 89.1953 38.064C89.1953 37.344 89.9153 36.912 90.9713 36.912C92.0433 36.912 92.7633 37.392 93.0673 38.224L94.1713 37.984C93.7713 36.752 92.7473 35.968 90.9713 35.968C89.2113 35.968 88.0433 36.848 88.0433 38.144C88.0433 39.696 89.4033 40.112 91.0193 40.416C92.1873 40.672 93.2433 40.864 93.2433 41.808C93.2433 42.64 92.4753 43.2 91.2273 43.2C89.8673 43.2 88.9873 42.576 88.7313 41.648L87.6113 41.872C87.9953 43.312 89.2273 44.128 91.2273 44.128ZM98.859 44.128C100.427 44.128 101.595 43.216 101.867 41.44L100.779 41.328C100.539 42.64 99.931 43.2 98.891 43.2C97.707 43.2 96.779 42.224 96.779 40.048C96.779 38.08 97.547 36.96 98.811 36.96C99.899 36.96 100.523 37.664 100.715 38.96L101.883 38.816C101.531 36.88 100.475 35.968 98.795 35.968C96.795 35.968 95.467 37.728 95.467 40.016C95.467 42.656 96.923 44.128 98.859 44.128ZM104.776 44V38.848C105.432 37.744 106.36 37.104 107.288 37.104C107.384 37.104 107.544 37.104 107.64 37.12V35.984C107.512 35.968 107.416 35.968 107.272 35.968C106.152 35.968 105.224 36.88 104.712 37.808V36.112H103.528V44H104.776ZM110.216 34.72V33.312H108.856V34.72H110.216ZM110.168 44V36.112H108.92V44H110.168ZM116.287 44.112C117.871 44.112 119.295 42.72 119.295 40.048C119.295 37.2 118.079 35.968 116.319 35.968C115.055 35.968 114.255 36.736 113.775 37.504V36.112H112.591V46.672H113.823V42.96C114.303 43.536 115.135 44.112 116.287 44.112ZM115.951 43.2C114.815 43.2 114.239 42.496 113.823 41.904V38.576C114.383 37.472 115.119 36.992 116.031 36.992C117.391 36.992 117.999 37.968 117.999 40.08C117.999 42.352 117.199 43.2 115.951 43.2ZM123.314 44.112C123.746 44.112 124.226 44.064 124.658 43.984V43.008C124.37 43.056 123.906 43.104 123.538 43.104C122.866 43.088 122.434 42.72 122.434 41.888V37.104H124.21V36.112H122.434V34.048H121.298L121.234 36.112H119.938V37.104H121.218V41.824C121.218 43.456 121.986 44.112 123.314 44.112ZM127.356 34.72V33.312H125.996V34.72H127.356ZM127.308 44V36.112H126.06V44H127.308ZM132.659 44.128C134.611 44.128 136.227 42.512 136.227 40.032C136.227 37.6 134.819 35.968 132.659 35.968C130.723 35.968 129.123 37.552 129.123 40.016C129.123 42.512 130.627 44.128 132.659 44.128ZM132.643 43.2C131.315 43.2 130.435 42.016 130.435 40.032C130.435 38 131.395 36.944 132.643 36.944C133.955 36.944 134.915 37.968 134.915 40.016C134.915 42.144 133.939 43.2 132.643 43.2ZM139.261 44V38.592C139.917 37.648 140.749 37.008 141.757 37.008C142.653 37.008 143.069 37.456 143.069 38.4V44H144.317V38.416C144.317 36.8 143.597 35.968 142.125 35.968C140.717 35.968 139.741 36.896 139.197 37.68V36.112H138.013V44H139.261ZM151.62 44V38.848C152.276 37.744 153.204 37.104 154.132 37.104C154.228 37.104 154.388 37.104 154.484 37.12V35.984C154.356 35.968 154.26 35.968 154.116 35.968C152.996 35.968 152.068 36.88 151.556 37.808V36.112H150.372V44H151.62ZM158.599 44.128C160.167 44.128 161.383 43.312 161.927 41.792L160.839 41.632C160.391 42.8 159.575 43.184 158.711 43.184C157.175 43.184 156.279 42.176 156.247 40.192H162.071C162.055 40.016 162.071 39.84 162.055 39.664C161.895 37.472 160.695 35.968 158.631 35.968C156.599 35.968 154.983 37.52 154.983 40.192C154.983 42.544 156.439 44.128 158.599 44.128ZM156.295 39.344C156.391 37.856 157.367 36.912 158.631 36.912C159.895 36.912 160.679 37.824 160.807 39.344H156.295ZM166.21 44.128C167.362 44.128 168.162 43.664 168.786 42.8V44H169.954V33.328H168.754V37.184C168.386 36.656 167.634 35.968 166.434 35.968C164.418 35.968 163.202 37.744 163.202 40.08C163.202 42.656 164.306 44.128 166.21 44.128ZM166.546 43.184C165.234 43.184 164.498 42.272 164.498 40.08C164.498 38.064 165.202 36.944 166.626 36.944C167.794 36.944 168.338 37.616 168.738 38.368V41.584C168.402 42.464 167.73 43.184 166.546 43.184ZM175.411 44.128C176.98 44.128 178.196 43.312 178.74 41.792L177.652 41.632C177.204 42.8 176.388 43.184 175.524 43.184C173.988 43.184 173.092 42.176 173.06 40.192H178.884C178.868 40.016 178.884 39.84 178.868 39.664C178.708 37.472 177.508 35.968 175.444 35.968C173.412 35.968 171.796 37.52 171.796 40.192C171.796 42.544 173.252 44.128 175.411 44.128ZM173.108 39.344C173.204 37.856 174.18 36.912 175.444 36.912C176.708 36.912 177.492 37.824 177.62 39.344H173.108ZM183.63 44.128C185.198 44.128 186.414 43.312 186.958 41.792L185.87 41.632C185.422 42.8 184.606 43.184 183.742 43.184C182.206 43.184 181.31 42.176 181.278 40.192H187.102C187.086 40.016 187.102 39.84 187.086 39.664C186.926 37.472 185.726 35.968 183.662 35.968C181.63 35.968 180.014 37.52 180.014 40.192C180.014 42.544 181.47 44.128 183.63 44.128ZM181.326 39.344C181.422 37.856 182.398 36.912 183.662 36.912C184.926 36.912 185.71 37.824 185.838 39.344H181.326ZM190.057 44V38.592C190.777 37.584 191.433 36.992 192.345 36.992C193.113 36.992 193.513 37.52 193.513 38.464V44H194.729V38.608C195.225 37.824 196.041 37.024 197.017 37.024C197.785 37.024 198.217 37.456 198.217 38.48V44H199.449V38.4C199.449 37.76 199.289 37.248 199.049 36.88C198.729 36.288 198.185 35.984 197.369 35.984C196.121 35.984 195.193 36.88 194.649 37.744C194.553 36.624 193.817 35.968 192.665 35.968C191.529 35.968 190.489 36.912 190.025 37.696V36.112H188.825V44H190.057ZM206.729 44V38.592C207.385 37.648 208.217 37.008 209.225 37.008C210.121 37.008 210.537 37.456 210.537 38.4V44H211.785V38.416C211.785 36.8 211.065 35.968 209.593 35.968C208.185 35.968 207.209 36.896 206.665 37.68V36.112H205.481V44H206.729ZM217.081 44.128C219.033 44.128 220.649 42.512 220.649 40.032C220.649 37.6 219.241 35.968 217.081 35.968C215.145 35.968 213.545 37.552 213.545 40.016C213.545 42.512 215.049 44.128 217.081 44.128ZM217.065 43.2C215.737 43.2 214.857 42.016 214.857 40.032C214.857 38 215.817 36.944 217.065 36.944C218.377 36.944 219.337 37.968 219.337 40.016C219.337 42.144 218.361 43.2 217.065 43.2ZM224.77 44L226.306 38.624L226.466 37.936L226.658 38.656L228.258 44H229.314L231.666 36.112H230.594L229.058 41.584L228.85 42.256L228.674 41.552L227.058 36.112H226.034L224.53 41.504L224.338 42.224L224.162 41.504L222.594 36.112H221.33L223.714 44H224.77Z" fill="#111111"/>
<path d="M149.172 45.6H231.73V46.4H149.172V45.6Z" fill="#111111"/>
</svg>
