<svg width="1032" height="499" viewBox="0 0 1032 499" fill="none" xmlns="http://www.w3.org/2000/svg">
<g clip-path="url(#clip0_3440_10165)">
<rect width="1032" height="499" fill="white"/>
<rect width="1032" height="500" fill="#666666" fill-opacity="0.5"/>
<path d="M824 250H870" stroke="#94538C" stroke-width="2" stroke-dasharray="4 5"/>
<rect x="870" y="230" width="40" height="40" rx="20" fill="#94538C"/>
<path d="M890.05 259.288C886.426 259.288 883.882 257.728 883.354 254.752L886.738 254.056C887.074 255.688 888.154 256.432 889.834 256.432C891.754 256.432 892.618 255.568 892.618 254.32C892.618 252.808 891.49 252.16 889.618 252.16H887.866V249.376H889.57C891.322 249.376 892.21 248.68 892.21 247.456C892.21 246.304 891.418 245.56 889.81 245.56C888.322 245.56 887.218 246.232 886.882 247.6L883.834 246.976C884.602 244.048 887.146 242.704 890.17 242.704C893.722 242.704 895.882 244.6 895.882 246.976C895.882 248.824 894.922 250.144 893.266 250.624C895.306 251.128 896.41 252.472 896.41 254.464C896.41 257.368 894.13 259.288 890.05 259.288Z" fill="white"/>
<g filter="url(#filter0_d_3440_10165)">
<rect x="266" y="100" width="500" height="300" rx="4" fill="white"/>
</g>
<rect width="452" height="188" transform="translate(290 124)" fill="#F0F0F0"/>
<path d="M506.466 213.16C503.634 213.16 502.386 211.944 501.762 210.328L503.842 209.528C504.274 210.568 504.962 211.192 506.418 211.192C507.474 211.192 508.146 210.76 508.146 210.056C508.146 209.08 506.978 208.856 505.682 208.536C504.034 208.136 502.146 207.576 502.146 205.224C502.146 203.416 503.698 202.136 506.274 202.136C508.53 202.136 509.842 203.128 510.45 204.76L508.226 205.432C507.922 204.552 507.218 204.152 506.242 204.152C505.362 204.152 504.77 204.52 504.77 205.144C504.77 206.088 505.81 206.264 507.282 206.616C509.058 207.032 510.722 207.688 510.722 209.912C510.722 211.8 509.33 213.16 506.466 213.16ZM514.511 213H512.015V202.328H514.511V213ZM520.004 213.128C517.636 213.128 515.972 211.416 515.972 209.096C515.972 206.632 517.7 204.92 520.052 204.92C522.516 204.92 524.148 206.584 524.148 209.048C524.148 211.368 522.484 213.128 520.004 213.128ZM520.084 211.528C520.996 211.528 521.492 210.76 521.492 209.016C521.492 207.352 521.044 206.568 520.068 206.568C519.124 206.568 518.612 207.336 518.612 209.016C518.612 210.744 519.092 211.528 520.084 211.528ZM528.761 213.112C526.953 213.112 525.993 212.264 525.993 210.584V206.744H524.729V205.064H526.009L526.169 202.632H528.409V205.064H530.041V206.744H528.409V210.184C528.409 210.808 528.665 211.16 529.257 211.24C529.561 211.272 529.865 211.272 530.201 211.24V213.016C529.817 213.064 529.257 213.112 528.761 213.112Z" fill="#111111"/>
<path d="M344.179 232H343.219V223.996H346.363C347.959 223.996 348.859 224.932 348.859 226.156C348.859 227.104 348.331 227.896 347.347 228.124L348.967 232H347.959L346.435 228.292C345.991 228.316 345.727 228.316 345.451 228.316H344.179V232ZM344.179 224.884V227.5H346.231C347.311 227.5 347.851 227.008 347.851 226.144C347.851 225.34 347.311 224.884 346.363 224.884H344.179ZM352.445 232.096C350.825 232.096 349.733 230.908 349.733 229.144C349.733 227.14 350.945 225.976 352.469 225.976C354.017 225.976 354.917 227.104 355.037 228.748C355.049 228.88 355.037 229.012 355.049 229.144H350.681C350.705 230.632 351.377 231.388 352.529 231.388C353.177 231.388 353.789 231.1 354.125 230.224L354.941 230.344C354.533 231.484 353.621 232.096 352.445 232.096ZM350.717 228.508H354.101C354.005 227.368 353.417 226.684 352.469 226.684C351.521 226.684 350.789 227.392 350.717 228.508ZM359.113 232.084C358.249 232.084 357.625 231.652 357.265 231.22V234.004H356.341V226.084H357.229V227.128C357.589 226.552 358.189 225.976 359.137 225.976C360.457 225.976 361.369 226.9 361.369 229.036C361.369 231.04 360.301 232.084 359.113 232.084ZM358.861 231.4C359.797 231.4 360.397 230.764 360.397 229.06C360.397 227.476 359.941 226.744 358.921 226.744C358.237 226.744 357.685 227.104 357.265 227.932V230.428C357.577 230.872 358.009 231.4 358.861 231.4ZM363.688 232H362.752V223.996H363.688V232ZM366.921 232.072C365.877 232.072 365.037 231.52 365.037 230.44C365.037 229.156 366.213 228.52 367.833 228.328C368.313 228.268 368.709 228.268 369.177 228.256C369.177 228.052 369.177 227.848 369.153 227.704C369.081 227.056 368.697 226.708 367.701 226.708C366.741 226.708 366.237 226.972 366.045 227.728L365.181 227.632C365.397 226.552 366.321 225.976 367.725 225.976C369.405 225.976 370.053 226.672 370.053 228.16V230.848C370.053 231.22 370.089 231.628 370.185 232H369.297C369.225 231.796 369.177 231.304 369.189 231.004C368.721 231.652 368.025 232.072 366.921 232.072ZM367.197 231.388C368.325 231.388 368.925 230.704 369.177 230.092V228.868C368.757 228.868 368.325 228.868 367.953 228.916C366.669 229.084 366.009 229.6 366.009 230.344C366.009 231.028 366.405 231.388 367.197 231.388ZM373.922 232.096C372.47 232.096 371.378 230.992 371.378 229.012C371.378 227.296 372.374 225.976 373.874 225.976C375.134 225.976 375.926 226.66 376.19 228.112L375.314 228.22C375.17 227.248 374.702 226.72 373.886 226.72C372.938 226.72 372.362 227.56 372.362 229.036C372.362 230.668 373.058 231.4 373.946 231.4C374.726 231.4 375.182 230.98 375.362 229.996L376.178 230.08C375.974 231.412 375.098 232.096 373.922 232.096ZM379.691 232.096C378.071 232.096 376.979 230.908 376.979 229.144C376.979 227.14 378.191 225.976 379.715 225.976C381.263 225.976 382.163 227.104 382.283 228.748C382.295 228.88 382.283 229.012 382.295 229.144H377.927C377.951 230.632 378.623 231.388 379.775 231.388C380.423 231.388 381.035 231.1 381.371 230.224L382.187 230.344C381.779 231.484 380.867 232.096 379.691 232.096ZM377.963 228.508H381.347C381.251 227.368 380.663 226.684 379.715 226.684C378.767 226.684 378.035 227.392 377.963 228.508ZM388.105 232H387.313L385.525 226.084H386.473L387.649 230.128L387.781 230.668L387.925 230.128L389.053 226.084H389.821L391.033 230.164L391.165 230.692L391.321 230.188L392.473 226.084H393.277L391.513 232H390.721L389.521 227.992L389.377 227.452L389.257 227.968L388.105 232ZM395.224 225.04H394.204V223.984H395.224V225.04ZM395.188 232H394.252V226.084H395.188V232ZM398.661 232.084C397.665 232.084 397.089 231.592 397.089 230.368V226.828H396.129V226.084H397.101L397.149 224.536H398.001V226.084H399.333V226.828H398.001V230.416C398.001 231.04 398.325 231.316 398.829 231.328C399.105 231.328 399.453 231.292 399.669 231.256V231.988C399.345 232.048 398.985 232.084 398.661 232.084ZM401.633 232H400.697V223.996H401.597V227.248C401.981 226.636 402.701 225.976 403.805 225.976C405.005 225.976 405.437 226.768 405.437 227.74V232H404.501V227.812C404.501 227.092 404.141 226.756 403.541 226.756C402.713 226.756 402.125 227.248 401.633 227.956V232ZM409.498 234.076L409.474 233.32C410.794 233.32 411.55 232.456 411.046 231.136L409.102 226.084H410.11L411.574 229.948L411.814 230.704L412.054 229.948L413.422 226.084H414.25L411.994 232.42C411.634 233.464 410.95 234.076 409.498 234.076ZM417.33 232.096C415.806 232.096 414.678 230.884 414.678 229.012C414.678 227.164 415.878 225.976 417.33 225.976C418.95 225.976 420.006 227.2 420.006 229.024C420.006 230.884 418.794 232.096 417.33 232.096ZM417.318 231.4C418.29 231.4 419.022 230.608 419.022 229.012C419.022 227.476 418.302 226.708 417.318 226.708C416.382 226.708 415.662 227.5 415.662 229.024C415.662 230.512 416.322 231.4 417.318 231.4ZM423.145 232.096C422.077 232.096 421.321 231.544 421.321 230.056V226.084H422.257V230.08C422.257 231.016 422.605 231.388 423.433 231.388C424.093 231.388 424.669 231.004 425.065 230.284V226.084H425.989V232H425.125V230.992C424.657 231.748 423.937 232.096 423.145 232.096ZM428.715 232H427.779V226.084H428.667V227.356C429.051 226.66 429.747 225.976 430.587 225.976C430.695 225.976 430.767 225.976 430.863 225.988V226.84C430.791 226.828 430.671 226.828 430.599 226.828C429.903 226.828 429.207 227.308 428.715 228.136V232ZM435.524 232H434.588V223.996H435.524V232ZM439.537 232.096C438.013 232.096 436.885 230.884 436.885 229.012C436.885 227.164 438.085 225.976 439.537 225.976C441.157 225.976 442.213 227.2 442.213 229.024C442.213 230.884 441.001 232.096 439.537 232.096ZM439.525 231.4C440.497 231.4 441.229 230.608 441.229 229.012C441.229 227.476 440.509 226.708 439.525 226.708C438.589 226.708 437.869 227.5 437.869 229.024C437.869 230.512 438.529 231.4 439.525 231.4ZM445.64 232.096C444.188 232.096 443.096 230.992 443.096 229.012C443.096 227.296 444.092 225.976 445.592 225.976C446.852 225.976 447.644 226.66 447.908 228.112L447.032 228.22C446.888 227.248 446.42 226.72 445.604 226.72C444.656 226.72 444.08 227.56 444.08 229.036C444.08 230.668 444.776 231.4 445.664 231.4C446.444 231.4 446.9 230.98 447.08 229.996L447.896 230.08C447.692 231.412 446.816 232.096 445.64 232.096ZM450.558 232.072C449.514 232.072 448.674 231.52 448.674 230.44C448.674 229.156 449.85 228.52 451.47 228.328C451.95 228.268 452.346 228.268 452.814 228.256C452.814 228.052 452.814 227.848 452.79 227.704C452.718 227.056 452.334 226.708 451.338 226.708C450.378 226.708 449.874 226.972 449.682 227.728L448.818 227.632C449.034 226.552 449.958 225.976 451.362 225.976C453.042 225.976 453.69 226.672 453.69 228.16V230.848C453.69 231.22 453.726 231.628 453.822 232H452.934C452.862 231.796 452.814 231.304 452.826 231.004C452.358 231.652 451.662 232.072 450.558 232.072ZM450.834 231.388C451.962 231.388 452.562 230.704 452.814 230.092V228.868C452.394 228.868 451.962 228.868 451.59 228.916C450.306 229.084 449.646 229.6 449.646 230.344C449.646 231.028 450.042 231.388 450.834 231.388ZM456.43 232H455.494V223.996H456.43V232ZM463.101 232.096C461.649 232.096 460.557 230.992 460.557 229.012C460.557 227.296 461.553 225.976 463.053 225.976C464.313 225.976 465.105 226.66 465.369 228.112L464.493 228.22C464.349 227.248 463.881 226.72 463.065 226.72C462.117 226.72 461.541 227.56 461.541 229.036C461.541 230.668 462.237 231.4 463.125 231.4C463.905 231.4 464.361 230.98 464.541 229.996L465.357 230.08C465.153 231.412 464.277 232.096 463.101 232.096ZM468.799 232.096C467.275 232.096 466.147 230.884 466.147 229.012C466.147 227.164 467.347 225.976 468.799 225.976C470.419 225.976 471.475 227.2 471.475 229.024C471.475 230.884 470.263 232.096 468.799 232.096ZM468.787 231.4C469.759 231.4 470.491 230.608 470.491 229.012C470.491 227.476 469.771 226.708 468.787 226.708C467.851 226.708 467.131 227.5 467.131 229.024C467.131 230.512 467.791 231.4 468.787 231.4ZM473.738 232H472.814V226.084H473.714V227.272C474.062 226.684 474.842 225.976 475.694 225.976C476.558 225.976 477.11 226.468 477.182 227.308C477.59 226.66 478.286 225.988 479.222 225.988C479.834 225.988 480.242 226.216 480.482 226.66C480.662 226.936 480.782 227.32 480.782 227.8V232H479.858V227.86C479.858 227.092 479.534 226.768 478.958 226.768C478.226 226.768 477.614 227.368 477.242 227.956V232H476.33V227.848C476.33 227.14 476.03 226.744 475.454 226.744C474.77 226.744 474.278 227.188 473.738 227.944V232ZM485.313 232.084C484.449 232.084 483.825 231.652 483.465 231.22V234.004H482.541V226.084H483.429V227.128C483.789 226.552 484.389 225.976 485.337 225.976C486.657 225.976 487.569 226.9 487.569 229.036C487.569 231.04 486.501 232.084 485.313 232.084ZM485.061 231.4C485.997 231.4 486.597 230.764 486.597 229.06C486.597 227.476 486.141 226.744 485.121 226.744C484.437 226.744 483.885 227.104 483.465 227.932V230.428C483.777 230.872 484.209 231.4 485.061 231.4ZM491.123 232.096C489.599 232.096 488.471 230.884 488.471 229.012C488.471 227.164 489.671 225.976 491.123 225.976C492.743 225.976 493.799 227.2 493.799 229.024C493.799 230.884 492.587 232.096 491.123 232.096ZM491.111 231.4C492.083 231.4 492.815 230.608 492.815 229.012C492.815 227.476 492.095 226.708 491.111 226.708C490.175 226.708 489.455 227.5 489.455 229.024C489.455 230.512 490.115 231.4 491.111 231.4ZM496.074 232H495.138V226.084H496.026V227.26C496.434 226.672 497.166 225.976 498.222 225.976C499.326 225.976 499.866 226.6 499.866 227.812V232H498.93V227.8C498.93 227.092 498.618 226.756 497.946 226.756C497.19 226.756 496.566 227.236 496.074 227.944V232ZM503.91 232.096C502.29 232.096 501.198 230.908 501.198 229.144C501.198 227.14 502.41 225.976 503.934 225.976C505.482 225.976 506.382 227.104 506.502 228.748C506.514 228.88 506.502 229.012 506.514 229.144H502.146C502.17 230.632 502.842 231.388 503.994 231.388C504.642 231.388 505.254 231.1 505.59 230.224L506.406 230.344C505.998 231.484 505.086 232.096 503.91 232.096ZM502.182 228.508H505.566C505.47 227.368 504.882 226.684 503.934 226.684C502.986 226.684 502.254 227.392 502.182 228.508ZM508.742 232H507.806V226.084H508.694V227.26C509.102 226.672 509.834 225.976 510.89 225.976C511.994 225.976 512.534 226.6 512.534 227.812V232H511.598V227.8C511.598 227.092 511.286 226.756 510.614 226.756C509.858 226.756 509.234 227.236 508.742 227.944V232ZM515.966 232.084C514.97 232.084 514.394 231.592 514.394 230.368V226.828H513.434V226.084H514.406L514.454 224.536H515.306V226.084H516.638V226.828H515.306V230.416C515.306 231.04 515.63 231.316 516.134 231.328C516.41 231.328 516.758 231.292 516.974 231.256V231.988C516.65 232.048 516.29 232.084 515.966 232.084ZM522.963 232.096C521.439 232.096 520.311 230.884 520.311 229.012C520.311 227.164 521.511 225.976 522.963 225.976C524.583 225.976 525.639 227.2 525.639 229.024C525.639 230.884 524.427 232.096 522.963 232.096ZM522.951 231.4C523.923 231.4 524.655 230.608 524.655 229.012C524.655 227.476 523.935 226.708 522.951 226.708C522.015 226.708 521.295 227.5 521.295 229.024C521.295 230.512 521.955 231.4 522.951 231.4ZM527.914 232H526.978V226.084H527.866V227.356C528.25 226.66 528.946 225.976 529.786 225.976C529.894 225.976 529.966 225.976 530.062 225.988V226.84C529.99 226.828 529.87 226.828 529.798 226.828C529.102 226.828 528.406 227.308 527.914 228.136V232ZM535.635 232.096C534.135 232.096 533.211 231.484 532.923 230.404L533.763 230.236C533.955 230.932 534.615 231.4 535.635 231.4C536.571 231.4 537.147 230.98 537.147 230.356C537.147 229.648 536.355 229.504 535.479 229.312C534.267 229.084 533.247 228.772 533.247 227.608C533.247 226.636 534.123 225.976 535.443 225.976C536.775 225.976 537.543 226.564 537.843 227.488L537.015 227.668C536.787 227.044 536.247 226.684 535.443 226.684C534.651 226.684 534.111 227.008 534.111 227.548C534.111 228.196 534.819 228.316 535.767 228.52C536.979 228.76 538.011 229.096 538.011 230.272C538.011 231.364 537.075 232.096 535.635 232.096ZM540.789 232H539.997L538.209 226.084H539.157L540.333 230.128L540.465 230.668L540.609 230.128L541.737 226.084H542.505L543.717 230.164L543.849 230.692L544.005 230.188L545.157 226.084H545.961L544.197 232H543.405L542.205 227.992L542.061 227.452L541.941 227.968L540.789 232ZM548.246 232.072C547.202 232.072 546.362 231.52 546.362 230.44C546.362 229.156 547.538 228.52 549.158 228.328C549.638 228.268 550.034 228.268 550.502 228.256C550.502 228.052 550.502 227.848 550.478 227.704C550.406 227.056 550.022 226.708 549.026 226.708C548.066 226.708 547.562 226.972 547.37 227.728L546.506 227.632C546.722 226.552 547.646 225.976 549.05 225.976C550.73 225.976 551.378 226.672 551.378 228.16V230.848C551.378 231.22 551.414 231.628 551.51 232H550.622C550.55 231.796 550.502 231.304 550.514 231.004C550.046 231.652 549.35 232.072 548.246 232.072ZM548.522 231.388C549.65 231.388 550.25 230.704 550.502 230.092V228.868C550.082 228.868 549.65 228.868 549.278 228.916C547.994 229.084 547.334 229.6 547.334 230.344C547.334 231.028 547.73 231.388 548.522 231.388ZM555.93 232.084C555.066 232.084 554.442 231.652 554.082 231.22V234.004H553.158V226.084H554.046V227.128C554.406 226.552 555.006 225.976 555.954 225.976C557.274 225.976 558.186 226.9 558.186 229.036C558.186 231.04 557.118 232.084 555.93 232.084ZM555.678 231.4C556.614 231.4 557.214 230.764 557.214 229.06C557.214 227.476 556.758 226.744 555.738 226.744C555.054 226.744 554.502 227.104 554.082 227.932V230.428C554.394 230.872 554.826 231.4 555.678 231.4ZM563.33 232H562.406V226.792H561.362V226.084H562.406C562.406 226 562.406 225.58 562.406 225.496C562.406 224.332 563.03 223.768 564.266 223.768C564.494 223.768 564.89 223.804 565.118 223.84V224.584C564.866 224.548 564.494 224.524 564.338 224.524C563.618 224.524 563.33 224.86 563.33 225.52C563.33 225.796 563.33 226.048 563.33 226.084H564.77V226.792H563.33V232ZM567.811 232.096C566.287 232.096 565.159 230.884 565.159 229.012C565.159 227.164 566.359 225.976 567.811 225.976C569.431 225.976 570.487 227.2 570.487 229.024C570.487 230.884 569.275 232.096 567.811 232.096ZM567.799 231.4C568.771 231.4 569.503 230.608 569.503 229.012C569.503 227.476 568.783 226.708 567.799 226.708C566.863 226.708 566.143 227.5 566.143 229.024C566.143 230.512 566.803 231.4 567.799 231.4ZM572.762 232H571.826V226.084H572.714V227.356C573.098 226.66 573.794 225.976 574.634 225.976C574.742 225.976 574.814 225.976 574.91 225.988V226.84C574.838 226.828 574.718 226.828 574.646 226.828C573.95 226.828 573.254 227.308 572.762 228.136V232ZM580.027 232.072C578.983 232.072 578.143 231.52 578.143 230.44C578.143 229.156 579.319 228.52 580.939 228.328C581.419 228.268 581.815 228.268 582.283 228.256C582.283 228.052 582.283 227.848 582.259 227.704C582.187 227.056 581.803 226.708 580.807 226.708C579.847 226.708 579.343 226.972 579.151 227.728L578.287 227.632C578.503 226.552 579.427 225.976 580.831 225.976C582.511 225.976 583.159 226.672 583.159 228.16V230.848C583.159 231.22 583.195 231.628 583.291 232H582.403C582.331 231.796 582.283 231.304 582.295 231.004C581.827 231.652 581.131 232.072 580.027 232.072ZM580.303 231.388C581.431 231.388 582.031 230.704 582.283 230.092V228.868C581.863 228.868 581.431 228.868 581.059 228.916C579.775 229.084 579.115 229.6 579.115 230.344C579.115 231.028 579.511 231.388 580.303 231.388ZM585.875 232H584.939V226.084H585.827V227.26C586.235 226.672 586.967 225.976 588.023 225.976C589.127 225.976 589.667 226.6 589.667 227.812V232H588.731V227.8C588.731 227.092 588.419 226.756 587.747 226.756C586.991 226.756 586.367 227.236 585.875 227.944V232ZM590.94 234.076L590.916 233.32C592.236 233.32 592.992 232.456 592.488 231.136L590.544 226.084H591.552L593.016 229.948L593.256 230.704L593.496 229.948L594.864 226.084H595.692L593.436 232.42C593.076 233.464 592.392 234.076 590.94 234.076ZM600.301 232H599.365V223.996H600.301V232ZM603.115 225.04H602.095V223.984H603.115V225.04ZM603.079 232H602.143V226.084H603.079V232ZM607.62 232.084C606.732 232.084 606.096 231.688 605.712 231.016L605.412 232H604.896V223.996H605.784V227.212C606.084 226.564 606.84 225.976 607.692 225.976C609.108 225.976 609.936 227.044 609.936 229.024C609.936 231.064 608.964 232.084 607.62 232.084ZM607.44 231.412C608.448 231.412 608.976 230.704 608.976 229.048C608.976 227.5 608.472 226.72 607.476 226.72C606.612 226.72 606.12 227.356 605.796 228.04V229.468C605.796 230.704 606.492 231.412 607.44 231.412ZM612.231 232H611.295V226.084H612.183V227.356C612.567 226.66 613.263 225.976 614.103 225.976C614.211 225.976 614.283 225.976 614.379 225.988V226.84C614.307 226.828 614.187 226.828 614.115 226.828C613.419 226.828 612.723 227.308 612.231 228.136V232ZM616.73 232.072C615.686 232.072 614.846 231.52 614.846 230.44C614.846 229.156 616.022 228.52 617.642 228.328C618.122 228.268 618.518 228.268 618.986 228.256C618.986 228.052 618.986 227.848 618.962 227.704C618.89 227.056 618.506 226.708 617.51 226.708C616.55 226.708 616.046 226.972 615.854 227.728L614.99 227.632C615.206 226.552 616.13 225.976 617.534 225.976C619.214 225.976 619.862 226.672 619.862 228.16V230.848C619.862 231.22 619.898 231.628 619.994 232H619.106C619.034 231.796 618.986 231.304 618.998 231.004C618.53 231.652 617.834 232.072 616.73 232.072ZM617.006 231.388C618.134 231.388 618.734 230.704 618.986 230.092V228.868C618.566 228.868 618.134 228.868 617.762 228.916C616.478 229.084 615.818 229.6 615.818 230.344C615.818 231.028 616.214 231.388 617.006 231.388ZM622.578 232H621.642V226.084H622.53V227.356C622.914 226.66 623.61 225.976 624.45 225.976C624.558 225.976 624.63 225.976 624.726 225.988V226.84C624.654 226.828 624.534 226.828 624.462 226.828C623.766 226.828 623.07 227.308 622.578 228.136V232ZM625.287 234.076L625.263 233.32C626.583 233.32 627.339 232.456 626.835 231.136L624.891 226.084H625.899L627.363 229.948L627.603 230.704L627.843 229.948L629.211 226.084H630.039L627.783 232.42C627.423 233.464 626.739 234.076 625.287 234.076ZM635.777 232.096C634.325 232.096 633.233 230.992 633.233 229.012C633.233 227.296 634.229 225.976 635.729 225.976C636.989 225.976 637.781 226.66 638.045 228.112L637.169 228.22C637.025 227.248 636.557 226.72 635.741 226.72C634.793 226.72 634.217 227.56 634.217 229.036C634.217 230.668 634.913 231.4 635.801 231.4C636.581 231.4 637.037 230.98 637.217 229.996L638.033 230.08C637.829 231.412 636.953 232.096 635.777 232.096ZM641.475 232.096C639.951 232.096 638.823 230.884 638.823 229.012C638.823 227.164 640.023 225.976 641.475 225.976C643.095 225.976 644.151 227.2 644.151 229.024C644.151 230.884 642.939 232.096 641.475 232.096ZM641.463 231.4C642.435 231.4 643.167 230.608 643.167 229.012C643.167 227.476 642.447 226.708 641.463 226.708C640.527 226.708 639.807 227.5 639.807 229.024C639.807 230.512 640.467 231.4 641.463 231.4ZM646.414 232H645.49V226.084H646.39V227.272C646.738 226.684 647.518 225.976 648.37 225.976C649.234 225.976 649.786 226.468 649.858 227.308C650.266 226.66 650.962 225.988 651.898 225.988C652.51 225.988 652.918 226.216 653.158 226.66C653.338 226.936 653.458 227.32 653.458 227.8V232H652.534V227.86C652.534 227.092 652.21 226.768 651.634 226.768C650.902 226.768 650.29 227.368 649.918 227.956V232H649.006V227.848C649.006 227.14 648.706 226.744 648.13 226.744C647.446 226.744 646.954 227.188 646.414 227.944V232ZM657.988 232.084C657.124 232.084 656.5 231.652 656.14 231.22V234.004H655.216V226.084H656.104V227.128C656.464 226.552 657.064 225.976 658.012 225.976C659.332 225.976 660.244 226.9 660.244 229.036C660.244 231.04 659.176 232.084 657.988 232.084ZM657.736 231.4C658.672 231.4 659.272 230.764 659.272 229.06C659.272 227.476 658.816 226.744 657.796 226.744C657.112 226.744 656.56 227.104 656.14 227.932V230.428C656.452 230.872 656.884 231.4 657.736 231.4ZM663.799 232.096C662.275 232.096 661.147 230.884 661.147 229.012C661.147 227.164 662.347 225.976 663.799 225.976C665.419 225.976 666.475 227.2 666.475 229.024C666.475 230.884 665.263 232.096 663.799 232.096ZM663.787 231.4C664.759 231.4 665.491 230.608 665.491 229.012C665.491 227.476 664.771 226.708 663.787 226.708C662.851 226.708 662.131 227.5 662.131 229.024C662.131 230.512 662.791 231.4 663.787 231.4ZM668.75 232H667.814V226.084H668.702V227.26C669.11 226.672 669.842 225.976 670.898 225.976C672.002 225.976 672.542 226.6 672.542 227.812V232H671.606V227.8C671.606 227.092 671.294 226.756 670.622 226.756C669.866 226.756 669.242 227.236 668.75 227.944V232ZM676.586 232.096C674.966 232.096 673.874 230.908 673.874 229.144C673.874 227.14 675.086 225.976 676.61 225.976C678.158 225.976 679.058 227.104 679.178 228.748C679.19 228.88 679.178 229.012 679.19 229.144H674.822C674.846 230.632 675.518 231.388 676.67 231.388C677.318 231.388 677.93 231.1 678.266 230.224L679.082 230.344C678.674 231.484 677.762 232.096 676.586 232.096ZM674.858 228.508H678.242C678.146 227.368 677.558 226.684 676.61 226.684C675.662 226.684 674.93 227.392 674.858 228.508ZM681.418 232H680.482V226.084H681.37V227.26C681.778 226.672 682.51 225.976 683.566 225.976C684.67 225.976 685.21 226.6 685.21 227.812V232H684.274V227.8C684.274 227.092 683.962 226.756 683.29 226.756C682.534 226.756 681.91 227.236 681.418 227.944V232ZM688.642 232.084C687.646 232.084 687.07 231.592 687.07 230.368V226.828H686.11V226.084H687.082L687.13 224.536H687.982V226.084H689.314V226.828H687.982V230.416C687.982 231.04 688.306 231.316 688.81 231.328C689.086 231.328 689.434 231.292 689.65 231.256V231.988C689.326 232.048 688.966 232.084 688.642 232.084Z" fill="#666666"/>
<g clip-path="url(#clip1_3440_10165)">
<path d="M739 127.65L738.35 127L734 131.34L729.65 127L729 127.65L733.34 132L729 136.35L729.65 137L734 132.66L738.35 137L739 136.35L734.66 132L739 127.65Z" fill="#666666"/>
</g>
<rect x="558.5" y="336.5" width="81" height="39" rx="19.5" fill="white"/>
<rect x="558.5" y="336.5" width="81" height="39" rx="19.5" stroke="#D4D4D4"/>
<path d="M579.269 362.16C576.517 362.16 574.645 360.08 574.645 356.848C574.645 353.2 576.485 351.152 579.333 351.152C581.781 351.152 583.157 352.544 583.573 354.88L581.061 355.28C580.869 353.952 580.469 353.168 579.349 353.168C578.165 353.168 577.477 354.272 577.477 356.72C577.477 358.992 578.085 360.176 579.413 360.176C580.533 360.176 581.077 359.472 581.285 358.048L583.685 358.448C583.173 360.912 581.685 362.16 579.269 362.16ZM586.872 362.096C585.4 362.096 584.424 361.264 584.424 359.92C584.424 358.16 586.008 357.28 588.776 357.008C589.08 356.976 589.4 356.944 589.736 356.928C589.736 356.848 589.72 356.608 589.72 356.544C589.672 355.92 589.304 355.536 588.44 355.536C587.512 355.536 587.064 355.856 586.904 356.528L584.632 356.32C585.016 354.736 586.344 353.92 588.68 353.92C591.352 353.92 592.12 355.072 592.12 356.784V360.448C592.12 360.912 592.152 361.696 592.296 362H589.928C589.832 361.84 589.8 361.424 589.8 360.976C589.112 361.68 588.28 362.096 586.872 362.096ZM587.992 360.56C588.808 360.56 589.4 360.08 589.736 359.568V358.176C589.432 358.192 589.144 358.224 588.888 358.272C587.672 358.48 586.984 358.944 586.984 359.696C586.984 360.288 587.368 360.56 587.992 360.56ZM596.479 362H593.999V354.064H596.383V355.376C596.847 354.72 597.599 353.92 598.943 353.92C600.575 353.92 601.231 354.896 601.231 356.416V362H598.751V356.496C598.751 356 598.495 355.632 597.887 355.632C597.231 355.632 596.799 356.08 596.479 356.56V362ZM606.516 362.144C604.228 362.144 602.628 360.624 602.628 358.016C602.628 355.76 604.148 353.92 606.548 353.92C608.468 353.92 609.748 354.944 610.068 356.896L607.86 357.104C607.748 356.192 607.412 355.568 606.628 355.568C605.732 355.568 605.268 356.416 605.268 358.032C605.268 359.792 605.796 360.56 606.66 360.56C607.444 360.56 607.796 360.032 607.94 359.136L610.084 359.328C609.844 361.136 608.58 362.144 606.516 362.144ZM615.022 362.128C612.638 362.128 610.91 360.56 610.91 358.144C610.91 355.584 612.798 353.92 615.006 353.92C617.486 353.92 618.942 355.552 619.006 358.016C619.006 358.192 619.006 358.32 618.99 358.496H613.502C613.534 359.92 614.27 360.544 615.246 360.544C616.046 360.544 616.558 360.144 616.846 359.36L618.91 359.632C618.382 361.136 617.07 362.128 615.022 362.128ZM613.534 357.2H616.51C616.43 356.128 615.966 355.472 615.038 355.472C614.238 355.472 613.598 356.112 613.534 357.2ZM622.901 362H620.405V351.328H622.901V362Z" fill="#111111"/>
<rect x="652" y="336" width="90" height="40" rx="20" fill="#111111"/>
<path d="M673.183 362.16C670.431 362.16 668.559 360.08 668.559 356.848C668.559 353.2 670.399 351.152 673.247 351.152C675.695 351.152 677.071 352.544 677.487 354.88L674.975 355.28C674.783 353.952 674.383 353.168 673.263 353.168C672.079 353.168 671.391 354.272 671.391 356.72C671.391 358.992 671.999 360.176 673.327 360.176C674.447 360.176 674.991 359.472 675.199 358.048L677.599 358.448C677.087 360.912 675.599 362.16 673.183 362.16ZM682.481 362.128C680.113 362.128 678.449 360.416 678.449 358.096C678.449 355.632 680.177 353.92 682.529 353.92C684.993 353.92 686.625 355.584 686.625 358.048C686.625 360.368 684.961 362.128 682.481 362.128ZM682.561 360.528C683.473 360.528 683.969 359.76 683.969 358.016C683.969 356.352 683.521 355.568 682.545 355.568C681.601 355.568 681.089 356.336 681.089 358.016C681.089 359.744 681.569 360.528 682.561 360.528ZM690.533 362H688.053V354.064H690.437V355.376C690.901 354.72 691.653 353.92 692.997 353.92C694.629 353.92 695.285 354.896 695.285 356.416V362H692.805V356.496C692.805 356 692.549 355.632 691.941 355.632C691.285 355.632 690.853 356.08 690.533 356.56V362ZM705.019 351.12V353.216H702.475V351.12H705.019ZM700.043 355.744V362H697.499V355.744H696.251V354.064H697.499C697.499 354.016 697.499 353.44 697.499 353.312C697.515 351.76 698.267 350.896 700.379 350.896C700.763 350.896 701.275 350.928 701.883 351.04V352.64C701.595 352.608 701.291 352.608 701.099 352.608C700.187 352.608 700.027 352.928 700.027 353.552C700.027 353.776 700.027 353.936 700.027 354.064H701.707V355.744H700.043ZM705.003 354.064V362H702.491V354.064H705.003ZM709.456 362H706.944V354.064H709.312V355.728C709.68 354.784 710.624 353.92 711.792 353.92C712.032 353.92 712.24 353.936 712.368 353.968V355.968C712.208 355.936 711.856 355.92 711.648 355.92C710.704 355.92 709.904 356.4 709.456 357.248V362ZM715.94 362H713.46V354.064H715.844V355.392C716.292 354.72 717.028 353.92 718.292 353.92C719.364 353.92 720.084 354.4 720.356 355.44C720.836 354.752 721.556 353.92 722.852 353.92C723.924 353.92 724.564 354.336 724.852 355.12C724.996 355.472 725.044 355.92 725.044 356.4V362H722.564V356.768C722.564 356.016 722.356 355.648 721.78 355.648C721.156 355.648 720.756 356.16 720.5 356.592V362H718.004V356.768C718.004 356.032 717.796 355.648 717.236 355.648C716.628 355.648 716.276 356.048 715.94 356.592V362Z" fill="white"/>
<path d="M750 356H793" stroke="#94538C" stroke-width="2" stroke-dasharray="4 5"/>
<rect x="793" y="336" width="40" height="40" rx="20" fill="#94538C"/>
<path d="M817.127 365H813.575V361.688H806.543V358.904L813.743 348.728H817.127V358.832H819.479V361.688H817.127V365ZM813.599 352.976L809.423 358.832H813.599V352.976Z" fill="white"/>
<path d="M747 132H793" stroke="#94538C" stroke-width="2" stroke-dasharray="4 5"/>
<rect x="793" y="112" width="40" height="40" rx="20" fill="#94538C"/>
<path d="M818.998 141H806.926V138.456C813.286 133.68 815.014 132.192 815.014 129.888C815.014 128.616 814.246 127.704 812.83 127.704C811.366 127.704 810.43 128.688 810.214 130.68L806.902 130.08C807.502 126.336 810.022 124.704 813.238 124.704C816.598 124.704 818.83 126.648 818.83 129.744C818.83 132.96 816.07 134.976 811.582 138.048H818.998V141Z" fill="white"/>
<rect x="180" y="148" width="40" height="40" rx="20" fill="#94538C"/>
<path d="M205.551 177H194.943V174.072H198.471V165.12C197.775 165.624 196.647 166.32 195.303 166.872V163.8C196.911 163.272 198.375 161.952 199.359 160.728H202.167V174.072H205.551V177Z" fill="white"/>
<path d="M220 168H266" stroke="#94538C" stroke-width="2" stroke-dasharray="4 5"/>
</g>
<defs>
<filter id="filter0_d_3440_10165" x="258" y="96" width="516" height="316" filterUnits="userSpaceOnUse" color-interpolation-filters="sRGB">
<feFlood flood-opacity="0" result="BackgroundImageFix"/>
<feColorMatrix in="SourceAlpha" type="matrix" values="0 0 0 0 0 0 0 0 0 0 0 0 0 0 0 0 0 0 127 0" result="hardAlpha"/>
<feOffset dy="4"/>
<feGaussianBlur stdDeviation="4"/>
<feComposite in2="hardAlpha" operator="out"/>
<feColorMatrix type="matrix" values="0 0 0 0 0.4 0 0 0 0 0.4 0 0 0 0 0.4 0 0 0 0.25 0"/>
<feBlend mode="normal" in2="BackgroundImageFix" result="effect1_dropShadow_3440_10165"/>
<feBlend mode="normal" in="SourceGraphic" in2="effect1_dropShadow_3440_10165" result="shape"/>
</filter>
<clipPath id="clip0_3440_10165">
<rect width="1032" height="499" fill="white"/>
</clipPath>
<clipPath id="clip1_3440_10165">
<rect width="16" height="16" fill="white" transform="translate(726 124)"/>
</clipPath>
</defs>
</svg>
