<svg width="359" height="131" viewBox="0 0 359 131" fill="none" xmlns="http://www.w3.org/2000/svg">
<line x1="47.5" y1="28" x2="47.5" y2="80" stroke="#94538C" stroke-dasharray="2 2"/>
<path d="M47 25.5H295" stroke="#94538C" stroke-dasharray="2 2"/>
<rect x="33" y="11" width="28" height="28" rx="14" fill="#94538C"/>
<path d="M50.2926 31V29.944H47.9406V20.12H46.9806C46.2926 21.256 45.5406 22.088 44.3726 22.728V24.104C45.8926 23.24 46.2766 22.552 46.6606 22.104V29.944H44.2606V31H50.2926Z" fill="white"/>
<line x1="1" y1="100.5" x2="101" y2="100.5" stroke="black"/>
<path d="M2.41662 125V121.108H5.31462V125H7.61062V115.662H5.31462V119.246H2.41662V115.662H0.106617V125H2.41662ZM12.4822 125.112C14.6522 125.112 16.1082 123.572 16.1082 121.542C16.1082 119.386 14.6802 117.93 12.5242 117.93C10.4662 117.93 8.95418 119.428 8.95418 121.584C8.95418 123.614 10.4102 125.112 12.4822 125.112ZM12.5522 123.712C11.6842 123.712 11.2642 123.026 11.2642 121.514C11.2642 120.044 11.7122 119.372 12.5382 119.372C13.3922 119.372 13.7842 120.058 13.7842 121.514C13.7842 123.04 13.3502 123.712 12.5522 123.712ZM19.5702 125V120.842C19.9622 120.1 20.6622 119.68 21.4882 119.68C21.6702 119.68 21.9782 119.694 22.1182 119.722V117.972C22.0062 117.944 21.8242 117.93 21.6142 117.93C20.5922 117.93 19.7662 118.686 19.4442 119.512V118.056H17.3722V125H19.5702ZM25.2714 117.314V115.48H23.0594V117.314H25.2714ZM25.2574 125V118.056H23.0734V125H25.2574ZM32.4442 125V123.558H29.0982L32.3462 119.232V118.056H26.6762V119.498H29.8262L26.4242 123.964V125H32.4442ZM36.613 125.112C38.783 125.112 40.239 123.572 40.239 121.542C40.239 119.386 38.811 117.93 36.655 117.93C34.597 117.93 33.085 119.428 33.085 121.584C33.085 123.614 34.541 125.112 36.613 125.112ZM36.683 123.712C35.815 123.712 35.395 123.026 35.395 121.514C35.395 120.044 35.843 119.372 36.669 119.372C37.523 119.372 37.915 120.058 37.915 121.514C37.915 123.04 37.481 123.712 36.683 123.712ZM43.6591 125V120.24C43.9391 119.82 44.3171 119.428 44.8911 119.428C45.4231 119.428 45.6471 119.75 45.6471 120.184V125H47.8171V120.114C47.8171 118.784 47.2431 117.93 45.8151 117.93C44.6391 117.93 43.9811 118.63 43.5751 119.204V118.056H41.4891V125H43.6591ZM52.2321 125.098C52.6661 125.098 53.1561 125.056 53.4921 125.014V123.46C53.1981 123.488 52.9321 123.488 52.6661 123.46C52.1481 123.39 51.9241 123.082 51.9241 122.536V119.526H53.3521V118.056H51.9241V115.928H49.9641L49.8241 118.056H48.7041V119.526H49.8101V122.886C49.8101 124.356 50.6501 125.098 52.2321 125.098ZM56.3898 125.084C57.6218 125.084 58.3498 124.72 58.9518 124.104C58.9518 124.496 58.9798 124.86 59.0638 125H61.1358C61.0098 124.734 60.9818 124.048 60.9818 123.642V120.436C60.9818 118.938 60.3098 117.93 57.9718 117.93C55.9278 117.93 54.7658 118.644 54.4298 120.03L56.4178 120.212C56.5578 119.624 56.9498 119.344 57.7618 119.344C58.5178 119.344 58.8398 119.68 58.8818 120.226C58.8818 120.282 58.8958 120.492 58.8958 120.562C58.6018 120.576 58.3218 120.604 58.0558 120.632C55.6338 120.87 54.2478 121.64 54.2478 123.18C54.2478 124.356 55.1018 125.084 56.3898 125.084ZM57.3698 123.74C56.8238 123.74 56.4878 123.502 56.4878 122.984C56.4878 122.326 57.0898 121.92 58.1538 121.738C58.3778 121.696 58.6298 121.668 58.8958 121.654V122.872C58.6018 123.32 58.0838 123.74 57.3698 123.74ZM64.8238 125V115.662H62.6398V125H64.8238ZM72.3984 125V120.842C72.7904 120.1 73.4904 119.68 74.3164 119.68C74.4984 119.68 74.8064 119.694 74.9464 119.722V117.972C74.8344 117.944 74.6524 117.93 74.4424 117.93C73.4204 117.93 72.5944 118.686 72.2724 119.512V118.056H70.2004V125H72.3984ZM77.9035 125.112C78.8975 125.112 79.6535 124.748 80.1295 124.006L80.1155 125H82.2155V118.056H80.0315V122.886C79.8075 123.348 79.4295 123.698 78.9115 123.698C78.3375 123.698 78.0575 123.446 78.0575 122.788V118.056H75.8735V122.9C75.8735 124.44 76.7135 125.112 77.9035 125.112ZM86.0699 125V115.662H83.8859V125H86.0699ZM90.9467 125.112C92.7387 125.112 93.8867 124.244 94.3487 122.928L92.5427 122.69C92.2907 123.376 91.8427 123.726 91.1427 123.726C90.2887 123.726 89.6447 123.18 89.6167 121.934H94.4187C94.4327 121.78 94.4327 121.668 94.4327 121.514C94.3767 119.358 93.1027 117.93 90.9327 117.93C89.0007 117.93 87.3487 119.386 87.3487 121.626C87.3487 123.74 88.8607 125.112 90.9467 125.112ZM89.6447 120.8C89.7007 119.848 90.2607 119.288 90.9607 119.288C91.7727 119.288 92.1787 119.862 92.2487 120.8H89.6447Z" fill="#94538C"/>
<path d="M319 16L319 102" stroke="black"/>
<path d="M285.536 125.5L288.518 116.162H286.572L284.906 121.678C284.864 121.846 284.668 122.49 284.612 122.826C284.528 122.49 284.318 121.804 284.276 121.678L282.568 116.162H280.146L283.212 125.5H285.536ZM291.997 125.612C293.789 125.612 294.937 124.744 295.399 123.428L293.593 123.19C293.341 123.876 292.893 124.226 292.193 124.226C291.339 124.226 290.695 123.68 290.667 122.434H295.469C295.483 122.28 295.483 122.168 295.483 122.014C295.427 119.858 294.153 118.43 291.983 118.43C290.051 118.43 288.399 119.886 288.399 122.126C288.399 124.24 289.911 125.612 291.997 125.612ZM290.695 121.3C290.751 120.348 291.311 119.788 292.011 119.788C292.823 119.788 293.229 120.362 293.299 121.3H290.695ZM298.906 125.5V121.342C299.298 120.6 299.998 120.18 300.824 120.18C301.006 120.18 301.314 120.194 301.454 120.222V118.472C301.342 118.444 301.16 118.43 300.95 118.43C299.928 118.43 299.102 119.186 298.78 120.012V118.556H296.708V125.5H298.906ZM305.345 125.598C305.779 125.598 306.269 125.556 306.605 125.514V123.96C306.311 123.988 306.045 123.988 305.779 123.96C305.261 123.89 305.037 123.582 305.037 123.036V120.026H306.465V118.556H305.037V116.428H303.077L302.937 118.556H301.817V120.026H302.923V123.386C302.923 124.856 303.763 125.598 305.345 125.598ZM309.816 117.814V115.98H307.604V117.814H309.816ZM309.802 125.5V118.556H307.618V125.5H309.802ZM314.483 125.626C316.289 125.626 317.395 124.744 317.605 123.162L315.729 122.994C315.603 123.778 315.295 124.24 314.609 124.24C313.853 124.24 313.391 123.568 313.391 122.028C313.391 120.614 313.797 119.872 314.581 119.872C315.267 119.872 315.561 120.418 315.659 121.216L317.591 121.034C317.311 119.326 316.191 118.43 314.511 118.43C312.411 118.43 311.081 120.04 311.081 122.014C311.081 124.296 312.481 125.626 314.483 125.626ZM320.427 125.584C321.659 125.584 322.387 125.22 322.989 124.604C322.989 124.996 323.017 125.36 323.101 125.5H325.173C325.047 125.234 325.019 124.548 325.019 124.142V120.936C325.019 119.438 324.347 118.43 322.009 118.43C319.965 118.43 318.803 119.144 318.467 120.53L320.455 120.712C320.595 120.124 320.987 119.844 321.799 119.844C322.555 119.844 322.877 120.18 322.919 120.726C322.919 120.782 322.933 120.992 322.933 121.062C322.639 121.076 322.359 121.104 322.093 121.132C319.671 121.37 318.285 122.14 318.285 123.68C318.285 124.856 319.139 125.584 320.427 125.584ZM321.407 124.24C320.861 124.24 320.525 124.002 320.525 123.484C320.525 122.826 321.127 122.42 322.191 122.238C322.415 122.196 322.667 122.168 322.933 122.154V123.372C322.639 123.82 322.121 124.24 321.407 124.24ZM328.861 125.5V116.162H326.677V125.5H328.861ZM336.435 125.5V121.342C336.827 120.6 337.527 120.18 338.353 120.18C338.535 120.18 338.843 120.194 338.983 120.222V118.472C338.871 118.444 338.689 118.43 338.479 118.43C337.457 118.43 336.631 119.186 336.309 120.012V118.556H334.237V125.5H336.435ZM341.941 125.612C342.935 125.612 343.691 125.248 344.167 124.506L344.153 125.5H346.253V118.556H344.069V123.386C343.845 123.848 343.467 124.198 342.949 124.198C342.375 124.198 342.095 123.946 342.095 123.288V118.556H339.911V123.4C339.911 124.94 340.751 125.612 341.941 125.612ZM350.107 125.5V116.162H347.923V125.5H350.107ZM354.984 125.612C356.776 125.612 357.924 124.744 358.386 123.428L356.58 123.19C356.328 123.876 355.88 124.226 355.18 124.226C354.326 124.226 353.682 123.68 353.654 122.434H358.456C358.47 122.28 358.47 122.168 358.47 122.014C358.414 119.858 357.14 118.43 354.97 118.43C353.038 118.43 351.386 119.886 351.386 122.126C351.386 124.24 352.898 125.612 354.984 125.612ZM353.682 121.3C353.738 120.348 354.298 119.788 354.998 119.788C355.81 119.788 356.216 120.362 356.286 121.3H353.682Z" fill="#94538C"/>
</svg>
