<svg xmlns="http://www.w3.org/2000/svg" width="126" height="98" fill="none"><rect width="32" height="16" x="45.5" y="76" fill="#111" rx="8"/><rect width="14" height="14" x="62.5" y="77" fill="#fff" rx="7"/><rect width="32" height="16" x="44.5" y="47" fill="#AAA" rx="8"/><rect width="14" height="14" x="45.5" y="48" fill="#fff" rx="7"/><rect width="31" height="15" x="45" y="47.5" stroke="#666" stroke-opacity=".5" rx="7.5"/><rect width="28" height="28" x="49.5" y="3" fill="#94538C" rx="14"/><path fill="#FCFCFC" d="M66.793 23v-1.056H64.44V12.12h-.96c-.688 1.136-1.44 1.968-2.608 2.608v1.376c1.52-.864 1.904-1.552 2.288-2v7.84h-2.4V23h6.032Z"/><path stroke="#94538C" stroke-dasharray="2 2" d="M64 31v19"/><rect width="28" height="28" x=".5" y="41" fill="#94538C" rx="14"/><path fill="#FCFCFC" d="M18.332 61v-1.12h-6.08c3.968-2.704 5.84-4.448 5.84-6.464 0-1.968-1.344-3.264-3.6-3.264-2.192 0-3.504 1.248-3.856 3.184l1.232.24c.192-1.52 1.184-2.336 2.576-2.336 1.584 0 2.304.928 2.304 2.096 0 1.808-1.136 2.944-6.112 6.624V61h7.696Z"/><path stroke="#94538C" stroke-dasharray="2 2" d="M32.5 54.5h13M77.5 54.5h13"/><rect width="28" height="28" x="94.5" y="41" fill="#94538C" rx="14"/><path fill="#FCFCFC" d="M110.876 61v-2.496h1.712V57.4h-1.712v-7.28h-1.408l-5.168 7.36v1.024h5.328V61h1.248Zm-1.248-9.424V57.4h-4.144l4.144-5.824Z"/><rect width="28" height="28" x="2.5" y="70" fill="#94538C" rx="14"/><path fill="#FCFCFC" d="M16.444 90.192c2.528 0 3.92-1.36 3.92-3.136 0-1.408-.944-2.368-2.448-2.672 1.312-.32 2.048-1.248 2.048-2.496 0-1.6-1.232-2.752-3.584-2.752-1.76 0-3.136.88-3.696 2.544l1.2.24c.304-1.04 1.2-1.696 2.528-1.696 1.376 0 2.224.656 2.224 1.792 0 1.232-.848 1.888-2.496 1.888h-1.232v1.088h1.232c1.872 0 2.88.832 2.88 2.048 0 1.168-.832 2.096-2.608 2.096-1.664 0-2.496-.592-2.864-1.92l-1.248.24c.496 1.888 1.92 2.736 4.144 2.736Z"/><path stroke="#94538C" stroke-dasharray="2 2" d="M34.5 83.5h11"/></svg>