<svg width="492" height="176" viewBox="0 0 492 176" fill="none" xmlns="http://www.w3.org/2000/svg">
<rect width="492" height="176" fill="white"/>
<path d="M135.439 56.168C137.651 56.168 138.869 54.978 138.869 53.424C138.869 52.192 138.043 51.352 136.727 51.086C137.875 50.806 138.519 49.994 138.519 48.902C138.519 47.502 137.441 46.494 135.383 46.494C133.843 46.494 132.639 47.264 132.149 48.72L133.199 48.93C133.465 48.02 134.249 47.446 135.411 47.446C136.615 47.446 137.357 48.02 137.357 49.014C137.357 50.092 136.615 50.666 135.173 50.666H134.095V51.618H135.173C136.811 51.618 137.693 52.346 137.693 53.41C137.693 54.432 136.965 55.244 135.411 55.244C133.955 55.244 133.227 54.726 132.905 53.564L131.813 53.774C132.247 55.426 133.493 56.168 135.439 56.168ZM142.061 56V54.474H140.535V56H142.061ZM147.088 56.168C148.852 56.168 150.476 54.964 150.476 52.864C150.476 51.002 149.286 49.686 147.34 49.686C146.304 49.686 145.38 50.26 144.988 50.806L145.198 47.67H149.762L149.86 46.662H144.33L144.022 51.716L144.946 51.926C145.422 51.17 146.08 50.596 147.186 50.596C148.614 50.596 149.356 51.646 149.356 52.878C149.356 54.32 148.418 55.258 147.046 55.258C145.8 55.258 144.988 54.726 144.554 53.62L143.616 53.956C144.092 55.356 145.366 56.168 147.088 56.168ZM157.364 56V53.816H158.862V52.85H157.364V46.48H156.132L151.61 52.92V53.816H156.272V56H157.364ZM156.272 47.754V52.85H152.646L156.272 47.754ZM161.858 50.624V49.098H160.332V50.624H161.858ZM161.858 56V54.46H160.332V56H161.858ZM169.097 56V55.076H167.039V46.48H166.199C165.597 47.474 164.939 48.202 163.917 48.762V49.966C165.247 49.21 165.583 48.608 165.919 48.216V55.076H163.819V56H169.097Z" fill="#94538C"/>
<line x1="131.5" y1="61" x2="131.5" y2="93" stroke="#94538C" stroke-dasharray="2 2"/>
<path d="M227.424 56V55.076H225.366V46.48H224.526C223.924 47.474 223.266 48.202 222.244 48.762V49.966C223.574 49.21 223.91 48.608 224.246 48.216V55.076H222.146V56H227.424ZM231.812 56.168C233.968 56.168 235.172 55.062 235.172 53.55C235.172 52.136 234.22 51.492 232.904 50.988C233.982 50.554 234.766 49.91 234.766 48.804C234.766 47.418 233.618 46.494 231.756 46.494C229.908 46.494 228.774 47.586 228.774 48.888C228.774 49.98 229.404 50.652 230.566 51.156C229.362 51.632 228.41 52.346 228.41 53.62C228.41 55.146 229.74 56.168 231.812 56.168ZM231.91 50.624L231.462 50.442C230.426 50.05 229.866 49.63 229.866 48.86C229.866 47.936 230.664 47.39 231.756 47.39C233.072 47.39 233.758 47.922 233.758 48.846C233.758 49.658 233.03 50.204 231.91 50.624ZM231.812 55.3C230.3 55.3 229.446 54.628 229.446 53.606C229.446 52.486 230.314 52.01 231.504 51.576L232.022 51.772C233.422 52.262 234.08 52.71 234.08 53.606C234.08 54.698 233.24 55.3 231.812 55.3ZM238.15 50.624V49.098H236.624V50.624H238.15ZM238.15 56V54.46H236.624V56H238.15ZM243.023 56.168C245.179 56.168 246.383 55.062 246.383 53.55C246.383 52.136 245.431 51.492 244.115 50.988C245.193 50.554 245.977 49.91 245.977 48.804C245.977 47.418 244.829 46.494 242.967 46.494C241.119 46.494 239.985 47.586 239.985 48.888C239.985 49.98 240.615 50.652 241.777 51.156C240.573 51.632 239.621 52.346 239.621 53.62C239.621 55.146 240.951 56.168 243.023 56.168ZM243.121 50.624L242.673 50.442C241.637 50.05 241.077 49.63 241.077 48.86C241.077 47.936 241.875 47.39 242.967 47.39C244.283 47.39 244.969 47.922 244.969 48.846C244.969 49.658 244.241 50.204 243.121 50.624ZM243.023 55.3C241.511 55.3 240.657 54.628 240.657 53.606C240.657 52.486 241.525 52.01 242.715 51.576L243.233 51.772C244.633 52.262 245.291 52.71 245.291 53.606C245.291 54.698 244.451 55.3 243.023 55.3ZM250.761 56.168C252.917 56.168 254.121 55.062 254.121 53.55C254.121 52.136 253.169 51.492 251.853 50.988C252.931 50.554 253.715 49.91 253.715 48.804C253.715 47.418 252.567 46.494 250.705 46.494C248.857 46.494 247.723 47.586 247.723 48.888C247.723 49.98 248.353 50.652 249.515 51.156C248.311 51.632 247.359 52.346 247.359 53.62C247.359 55.146 248.689 56.168 250.761 56.168ZM250.859 50.624L250.411 50.442C249.375 50.05 248.815 49.63 248.815 48.86C248.815 47.936 249.613 47.39 250.705 47.39C252.021 47.39 252.707 47.922 252.707 48.846C252.707 49.658 251.979 50.204 250.859 50.624ZM250.761 55.3C249.249 55.3 248.395 54.628 248.395 53.606C248.395 52.486 249.263 52.01 250.453 51.576L250.971 51.772C252.371 52.262 253.029 52.71 253.029 53.606C253.029 54.698 252.189 55.3 250.761 55.3ZM257.099 50.624V49.098H255.573V50.624H257.099ZM257.099 56V54.46H255.573V56H257.099ZM264.338 56V55.076H262.28V46.48H261.44C260.838 47.474 260.18 48.202 259.158 48.762V49.966C260.488 49.21 260.824 48.608 261.16 48.216V55.076H259.06V56H264.338Z" fill="#94538C"/>
<line x1="221.5" y1="61" x2="221.5" y2="93" stroke="#94538C" stroke-dasharray="2 2"/>
<path d="M319.567 56V53.816H321.065V52.85H319.567V46.48H318.335L313.813 52.92V53.816H318.475V56H319.567ZM318.475 47.754V52.85H314.849L318.475 47.754ZM324.061 56V54.474H322.535V56H324.061ZM329.088 56.168C330.852 56.168 332.476 54.964 332.476 52.864C332.476 51.002 331.286 49.686 329.34 49.686C328.304 49.686 327.38 50.26 326.988 50.806L327.198 47.67H331.762L331.86 46.662H326.33L326.022 51.716L326.946 51.926C327.422 51.17 328.08 50.596 329.186 50.596C330.614 50.596 331.356 51.646 331.356 52.878C331.356 54.32 330.418 55.258 329.046 55.258C327.8 55.258 326.988 54.726 326.554 53.62L325.616 53.956C326.092 55.356 327.366 56.168 329.088 56.168ZM339.364 56V53.816H340.862V52.85H339.364V46.48H338.132L333.61 52.92V53.816H338.272V56H339.364ZM338.272 47.754V52.85H334.646L338.272 47.754ZM343.858 50.624V49.098H342.332V50.624H343.858ZM343.858 56V54.46H342.332V56H343.858ZM351.097 56V55.076H349.039V46.48H348.199C347.597 47.474 346.939 48.202 345.917 48.762V49.966C347.247 49.21 347.583 48.608 347.919 48.216V55.076H345.819V56H351.097Z" fill="#94538C"/>
<line x1="313.5" y1="61" x2="313.5" y2="93" stroke="#94538C" stroke-dasharray="2 2"/>
<path d="M17.3246 27V18.656H19.9986V17.662H13.4886V18.656H16.1626V27H17.3246ZM22.285 27.084C23.573 27.084 24.385 26.594 24.931 25.838C24.917 26.188 24.973 26.762 25.057 27H26.093C25.981 26.566 25.939 26.09 25.939 25.656V22.52C25.939 20.784 25.183 19.972 23.223 19.972C21.585 19.972 20.507 20.644 20.255 21.904L21.263 22.016C21.487 21.134 22.075 20.826 23.195 20.826C24.357 20.826 24.805 21.232 24.889 21.988C24.917 22.156 24.917 22.394 24.917 22.632C24.371 22.646 23.909 22.646 23.349 22.716C21.459 22.94 20.087 23.682 20.087 25.18C20.087 26.44 21.067 27.084 22.285 27.084ZM22.607 26.286C21.683 26.286 21.221 25.866 21.221 25.068C21.221 24.2 21.991 23.598 23.489 23.402C23.923 23.346 24.427 23.346 24.917 23.346V24.774C24.623 25.488 23.923 26.286 22.607 26.286ZM29.1078 27V22.492C29.6818 21.526 30.4938 20.966 31.3058 20.966C31.3898 20.966 31.5298 20.966 31.6138 20.98V19.986C31.5018 19.972 31.4178 19.972 31.2918 19.972C30.3118 19.972 29.4998 20.77 29.0518 21.582V20.098H28.0158V27H29.1078ZM35.1306 29.604C37.3706 29.604 38.5046 28.764 38.5046 27.56C38.5046 26.426 37.7206 25.964 35.5226 25.922C34.1226 25.88 33.2546 25.88 33.2546 25.264C33.2546 24.844 33.6466 24.578 34.0106 24.578C34.1226 24.606 34.5706 24.704 35.0186 24.704C36.5866 24.704 37.5386 23.71 37.5386 22.338C37.5386 21.624 37.2726 21.078 36.9086 20.756C37.0206 20.252 37.3146 19.958 38.0146 19.972C38.0986 19.972 38.1686 19.986 38.2526 20L38.2386 19.09C38.1966 19.09 38.1126 19.09 38.0706 19.09C36.8946 19.076 36.5166 19.552 36.3486 20.308C35.9286 20.084 35.4246 19.972 34.9066 19.972C33.5206 19.972 32.3306 20.924 32.3306 22.338C32.3306 23.178 32.6666 23.892 33.3386 24.242C32.7226 24.41 32.2466 24.83 32.2466 25.418C32.2466 25.95 32.5266 26.342 33.2266 26.538C32.3866 26.748 31.8826 27.266 31.8826 27.952C31.8826 29.016 33.0026 29.604 35.1306 29.604ZM34.9626 23.976C34.0246 23.976 33.4086 23.416 33.4086 22.338C33.4086 21.47 33.9406 20.756 34.9626 20.756C35.9986 20.756 36.5166 21.512 36.5166 22.352C36.5166 23.388 35.9426 23.976 34.9626 23.976ZM35.0466 28.876C33.5066 28.876 32.8766 28.484 32.8766 27.826C32.8766 27.21 33.2966 26.93 33.8426 26.776C36.9506 26.846 37.4686 27 37.4686 27.7C37.4686 28.4 36.5866 28.876 35.0466 28.876ZM42.0915 27.112C43.4635 27.112 44.5275 26.398 45.0035 25.068L44.0515 24.928C43.6595 25.95 42.9455 26.286 42.1895 26.286C40.8455 26.286 40.0615 25.404 40.0335 23.668H45.1295C45.1155 23.514 45.1295 23.36 45.1155 23.206C44.9755 21.288 43.9255 19.972 42.1195 19.972C40.3415 19.972 38.9275 21.33 38.9275 23.668C38.9275 25.726 40.2015 27.112 42.0915 27.112ZM40.0755 22.926C40.1595 21.624 41.0135 20.798 42.1195 20.798C43.2255 20.798 43.9115 21.596 44.0235 22.926H40.0755ZM48.5689 27.098C48.9469 27.098 49.3669 27.056 49.7449 26.986V26.132C49.4929 26.174 49.0869 26.216 48.7649 26.216C48.1769 26.202 47.7989 25.88 47.7989 25.152V20.966H49.3529V20.098H47.7989V18.292H46.8049L46.7489 20.098H45.6149V20.966H46.7349V25.096C46.7349 26.524 47.4069 27.098 48.5689 27.098ZM57.3481 27.098C58.9161 27.098 60.0501 25.908 60.0501 23.528C60.0501 21.218 59.0841 19.972 57.4321 19.972C56.4381 19.972 55.5561 20.658 55.2061 21.414V17.662H54.1701V27H54.7721L55.1221 25.852C55.5701 26.636 56.3121 27.098 57.3481 27.098ZM57.1381 26.314C56.0321 26.314 55.2201 25.488 55.2201 24.046V22.38C55.5981 21.582 56.1721 20.84 57.1801 20.84C58.3421 20.84 58.9301 21.75 58.9301 23.556C58.9301 25.488 58.3141 26.314 57.1381 26.314ZM63.287 27.084C64.575 27.084 65.387 26.594 65.933 25.838C65.919 26.188 65.975 26.762 66.059 27H67.095C66.983 26.566 66.941 26.09 66.941 25.656V22.52C66.941 20.784 66.185 19.972 64.225 19.972C62.587 19.972 61.509 20.644 61.257 21.904L62.265 22.016C62.489 21.134 63.077 20.826 64.197 20.826C65.359 20.826 65.807 21.232 65.891 21.988C65.919 22.156 65.919 22.394 65.919 22.632C65.373 22.646 64.911 22.646 64.351 22.716C62.461 22.94 61.089 23.682 61.089 25.18C61.089 26.44 62.069 27.084 63.287 27.084ZM63.609 26.286C62.685 26.286 62.223 25.866 62.223 25.068C62.223 24.2 62.993 23.598 64.491 23.402C64.925 23.346 65.429 23.346 65.919 23.346V24.774C65.625 25.488 64.925 26.286 63.609 26.286ZM71.4538 27.112C72.8258 27.112 73.8478 26.314 74.0858 24.76L73.1338 24.662C72.9238 25.81 72.3918 26.3 71.4818 26.3C70.4458 26.3 69.6338 25.446 69.6338 23.542C69.6338 21.82 70.3058 20.84 71.4118 20.84C72.3638 20.84 72.9098 21.456 73.0778 22.59L74.0998 22.464C73.7918 20.77 72.8678 19.972 71.3978 19.972C69.6478 19.972 68.4858 21.512 68.4858 23.514C68.4858 25.824 69.7598 27.112 71.4538 27.112ZM76.6173 27V24.872L78.1573 23.22L80.0193 27H81.1953L78.8993 22.394L80.9853 20.098H79.8513L76.9953 23.248L76.6033 23.738L76.6173 23.066V17.662H75.5393V27H76.6173ZM85.0876 29.604C87.3276 29.604 88.4616 28.764 88.4616 27.56C88.4616 26.426 87.6776 25.964 85.4796 25.922C84.0796 25.88 83.2116 25.88 83.2116 25.264C83.2116 24.844 83.6036 24.578 83.9676 24.578C84.0796 24.606 84.5276 24.704 84.9756 24.704C86.5436 24.704 87.4956 23.71 87.4956 22.338C87.4956 21.624 87.2296 21.078 86.8656 20.756C86.9776 20.252 87.2716 19.958 87.9716 19.972C88.0556 19.972 88.1256 19.986 88.2096 20L88.1956 19.09C88.1536 19.09 88.0696 19.09 88.0276 19.09C86.8516 19.076 86.4736 19.552 86.3056 20.308C85.8856 20.084 85.3816 19.972 84.8636 19.972C83.4776 19.972 82.2876 20.924 82.2876 22.338C82.2876 23.178 82.6236 23.892 83.2956 24.242C82.6796 24.41 82.2036 24.83 82.2036 25.418C82.2036 25.95 82.4836 26.342 83.1836 26.538C82.3436 26.748 81.8396 27.266 81.8396 27.952C81.8396 29.016 82.9596 29.604 85.0876 29.604ZM84.9196 23.976C83.9816 23.976 83.3656 23.416 83.3656 22.338C83.3656 21.47 83.8976 20.756 84.9196 20.756C85.9556 20.756 86.4736 21.512 86.4736 22.352C86.4736 23.388 85.8996 23.976 84.9196 23.976ZM85.0036 28.876C83.4636 28.876 82.8336 28.484 82.8336 27.826C82.8336 27.21 83.2536 26.93 83.7996 26.776C86.9076 26.846 87.4256 27 87.4256 27.7C87.4256 28.4 86.5436 28.876 85.0036 28.876ZM90.4945 27V22.492C91.0685 21.526 91.8805 20.966 92.6925 20.966C92.7765 20.966 92.9165 20.966 93.0005 20.98V19.986C92.8885 19.972 92.8045 19.972 92.6785 19.972C91.6985 19.972 90.8865 20.77 90.4385 21.582V20.098H89.4025V27H90.4945ZM96.654 27.112C98.362 27.112 99.776 25.698 99.776 23.528C99.776 21.4 98.544 19.972 96.654 19.972C94.96 19.972 93.56 21.358 93.56 23.514C93.56 25.698 94.876 27.112 96.654 27.112ZM96.64 26.3C95.478 26.3 94.708 25.264 94.708 23.528C94.708 21.75 95.548 20.826 96.64 20.826C97.788 20.826 98.628 21.722 98.628 23.514C98.628 25.376 97.774 26.3 96.64 26.3ZM103.438 27.112C104.362 27.112 105.202 26.706 105.748 25.824V27H106.756V20.098H105.678V24.998C105.216 25.838 104.544 26.286 103.774 26.286C102.808 26.286 102.402 25.852 102.402 24.76V20.098H101.31V24.732C101.31 26.468 102.192 27.112 103.438 27.112ZM109.936 27V22.268C110.51 21.442 111.238 20.882 112.12 20.882C112.904 20.882 113.268 21.274 113.268 22.1V27H114.36V22.114C114.36 20.7 113.73 19.972 112.442 19.972C111.21 19.972 110.356 20.784 109.88 21.47V20.098H108.844V27H109.936ZM118.546 27.112C119.554 27.112 120.254 26.706 120.8 25.95V27H121.822V17.662H120.772V21.036C120.45 20.574 119.792 19.972 118.742 19.972C116.978 19.972 115.914 21.526 115.914 23.57C115.914 25.824 116.88 27.112 118.546 27.112ZM118.84 26.286C117.692 26.286 117.048 25.488 117.048 23.57C117.048 21.806 117.664 20.826 118.91 20.826C119.932 20.826 120.408 21.414 120.758 22.072V24.886C120.464 25.656 119.876 26.286 118.84 26.286ZM125.393 21.624V20.098H123.867V21.624H125.393ZM125.393 27V25.46H123.867V27H125.393ZM131.995 27L132.527 24.032H134.515L133.983 27H134.879L135.397 24.032H136.839L136.993 23.192H135.551L135.901 21.246H137.329L137.483 20.406H136.027L136.517 17.662H135.635L135.145 20.406H133.171L133.661 17.662H132.765L132.289 20.406H130.791L130.637 21.246H132.135L131.785 23.192H130.301L130.147 24.032H131.645L131.113 27H131.995ZM133.031 21.246H134.991L134.655 23.192H132.681L133.031 21.246ZM140.319 27V22.604H143.679V21.652H140.319V18.656H144.869V17.662H139.157V27H140.319ZM147.428 27V22.604H150.788V21.652H147.428V18.656H151.978V17.662H146.266V27H147.428ZM154.538 27V22.604H157.898V21.652H154.538V18.656H159.088V17.662H153.376V27H154.538ZM161.647 27V22.604H165.007V21.652H161.647V18.656H166.197V17.662H160.485V27H161.647ZM168.757 27V22.604H172.117V21.652H168.757V18.656H173.307V17.662H167.595V27H168.757ZM175.866 27V22.604H179.226V21.652H175.866V18.656H180.416V17.662H174.704V27H175.866Z" fill="#94538C"/>
<rect x="113" y="93" width="32" height="16" rx="8" fill="#AAAAAA"/>
<rect x="114" y="94" width="14" height="14" rx="7" fill="white"/>
<rect x="113.5" y="93.5" width="31" height="15" rx="7.5" stroke="#666666" stroke-opacity="0.5"/>
<rect x="206" y="93" width="32" height="16" rx="8" fill="#111111"/>
<rect x="223" y="94" width="14" height="14" rx="7" fill="white"/>
<rect x="300" y="94" width="32" height="16" rx="8" fill="#166DFC"/>
<rect x="317" y="95" width="14" height="14" rx="7" fill="white"/>
</svg>
