<svg width="349" height="119" viewBox="0 0 349 119" fill="none" xmlns="http://www.w3.org/2000/svg">
<g filter="url(#filter0_d_1228_18897)">
<path d="M2 3C2 1.89543 2.89543 1 4 1H135C136.105 1 137 1.89543 137 3V114C137 115.105 136.105 116 135 116H4C2.89543 116 2 115.105 2 114V3Z" fill="white"/>
<rect width="135" height="85" transform="translate(2 1)" fill="#666666"/>
<path d="M11.088 105.144C12.464 105.144 13.424 104.696 14.08 103.848L14.496 105H15.84V99.544H11.296V101.416H13.36C13.344 101.496 13.328 101.64 13.296 101.8C13.152 102.648 12.432 103.16 11.456 103.16C10.016 103.16 9.312 101.976 9.312 99.64C9.312 97.352 9.984 96.12 11.408 96.12C12.528 96.12 13.072 97.032 13.264 98.088L15.776 97.544C15.264 95.48 13.968 94.12 11.472 94.12C8.304 94.12 6.528 96.264 6.528 99.848C6.528 103.176 8.368 105.144 11.088 105.144ZM20.1751 105V100.248C20.6231 99.4 21.4231 98.92 22.3671 98.92C22.5751 98.92 22.9271 98.936 23.0871 98.968V96.968C22.9591 96.936 22.7511 96.92 22.5111 96.92C21.3431 96.92 20.3991 97.784 20.0311 98.728V97.064H17.6631V105H20.1751ZM26.0359 105.096C27.4439 105.096 28.2759 104.68 28.9639 103.976C28.9639 104.424 28.9959 104.84 29.0919 105H31.4599C31.3159 104.696 31.2839 103.912 31.2839 103.448V99.784C31.2839 98.072 30.5159 96.92 27.8439 96.92C25.5079 96.92 24.1799 97.736 23.7959 99.32L26.0679 99.528C26.2279 98.856 26.6759 98.536 27.6039 98.536C28.4679 98.536 28.8359 98.92 28.8839 99.544C28.8839 99.608 28.8999 99.848 28.8999 99.928C28.5639 99.944 28.2439 99.976 27.9399 100.008C25.1719 100.28 23.5879 101.16 23.5879 102.92C23.5879 104.264 24.5639 105.096 26.0359 105.096ZM27.1559 103.56C26.5319 103.56 26.1479 103.288 26.1479 102.696C26.1479 101.944 26.8359 101.48 28.0519 101.272C28.3079 101.224 28.5959 101.192 28.8999 101.176V102.568C28.5639 103.08 27.9719 103.56 27.1559 103.56ZM32.6058 107.752C32.7658 107.752 32.9098 107.768 33.0538 107.768C35.5978 107.768 36.4298 106.856 36.8778 105.624L40.0138 97.064H37.9978L36.6378 101.048L36.3658 101.912L36.0938 101.032L34.7338 97.064H32.0777L34.6698 103.736C34.8138 104.12 34.8938 104.456 34.8938 104.744C34.8938 105.512 34.3338 105.96 33.0698 105.96C32.9258 105.96 32.7818 105.96 32.6058 105.944V107.752ZM44.0034 101.64V99.608H40.1794V101.64H44.0034ZM45.3841 105H49.5281C52.5521 105 54.5041 102.696 54.5041 99.672C54.5041 98.024 54.0081 96.568 53.0001 95.608C52.1521 94.776 50.9041 94.328 49.4481 94.328H45.3841V105ZM48.0241 96.36H49.3041C50.8241 96.36 51.7681 97.688 51.7681 99.624C51.7681 101.736 50.7121 102.984 49.3041 102.984H48.0241V96.36ZM57.8484 105.096C59.2564 105.096 60.0884 104.68 60.7764 103.976C60.7764 104.424 60.8084 104.84 60.9044 105H63.2724C63.1284 104.696 63.0964 103.912 63.0964 103.448V99.784C63.0964 98.072 62.3284 96.92 59.6564 96.92C57.3204 96.92 55.9924 97.736 55.6084 99.32L57.8804 99.528C58.0404 98.856 58.4884 98.536 59.4164 98.536C60.2804 98.536 60.6484 98.92 60.6964 99.544C60.6964 99.608 60.7124 99.848 60.7124 99.928C60.3764 99.944 60.0564 99.976 59.7524 100.008C56.9844 100.28 55.4004 101.16 55.4004 102.92C55.4004 104.264 56.3764 105.096 57.8484 105.096ZM58.9684 103.56C58.3444 103.56 57.9604 103.288 57.9604 102.696C57.9604 101.944 58.6484 101.48 59.8644 101.272C60.1204 101.224 60.4084 101.192 60.7124 101.176V102.568C60.3764 103.08 59.7844 103.56 58.9684 103.56ZM67.5033 105V100.248C67.9513 99.4 68.7513 98.92 69.6953 98.92C69.9033 98.92 70.2553 98.936 70.4153 98.968V96.968C70.2873 96.936 70.0793 96.92 69.8393 96.92C68.6713 96.92 67.7273 97.784 67.3593 98.728V97.064H64.9913V105H67.5033ZM73.9709 105V102.744L75.0909 101.512L76.7709 105H79.4109L76.7549 99.768L79.1389 97.064H76.8669L74.3869 99.912L73.9389 100.472L73.9709 99.752V94.328H71.5069V105H73.9709Z" fill="#111111"/>
</g>
<g filter="url(#filter1_d_1228_18897)">
<path d="M212 3C212 1.89543 212.895 1 214 1H345C346.105 1 347 1.89543 347 3V114C347 115.105 346.105 116 345 116H214C212.895 116 212 115.105 212 114V3Z" fill="white"/>
<rect width="135" height="85" transform="translate(212 1)" fill="#666666"/>
<path d="M221.088 105.144C222.464 105.144 223.424 104.696 224.08 103.848L224.496 105H225.84V99.544H221.296V101.416H223.36C223.344 101.496 223.328 101.64 223.296 101.8C223.152 102.648 222.432 103.16 221.456 103.16C220.016 103.16 219.312 101.976 219.312 99.64C219.312 97.352 219.984 96.12 221.408 96.12C222.528 96.12 223.072 97.032 223.264 98.088L225.776 97.544C225.264 95.48 223.968 94.12 221.472 94.12C218.304 94.12 216.528 96.264 216.528 99.848C216.528 103.176 218.368 105.144 221.088 105.144ZM230.175 105V100.248C230.623 99.4 231.423 98.92 232.367 98.92C232.575 98.92 232.927 98.936 233.087 98.968V96.968C232.959 96.936 232.751 96.92 232.511 96.92C231.343 96.92 230.399 97.784 230.031 98.728V97.064H227.663V105H230.175ZM236.036 105.096C237.444 105.096 238.276 104.68 238.964 103.976C238.964 104.424 238.996 104.84 239.092 105H241.46C241.316 104.696 241.284 103.912 241.284 103.448V99.784C241.284 98.072 240.516 96.92 237.844 96.92C235.508 96.92 234.18 97.736 233.796 99.32L236.068 99.528C236.228 98.856 236.676 98.536 237.604 98.536C238.468 98.536 238.836 98.92 238.884 99.544C238.884 99.608 238.9 99.848 238.9 99.928C238.564 99.944 238.244 99.976 237.94 100.008C235.172 100.28 233.588 101.16 233.588 102.92C233.588 104.264 234.564 105.096 236.036 105.096ZM237.156 103.56C236.532 103.56 236.148 103.288 236.148 102.696C236.148 101.944 236.836 101.48 238.052 101.272C238.308 101.224 238.596 101.192 238.9 101.176V102.568C238.564 103.08 237.972 103.56 237.156 103.56ZM242.606 107.752C242.766 107.752 242.91 107.768 243.054 107.768C245.598 107.768 246.43 106.856 246.878 105.624L250.014 97.064H247.998L246.638 101.048L246.366 101.912L246.094 101.032L244.734 97.064H242.078L244.67 103.736C244.814 104.12 244.894 104.456 244.894 104.744C244.894 105.512 244.334 105.96 243.07 105.96C242.926 105.96 242.782 105.96 242.606 105.944V107.752ZM254.003 101.64V99.608H250.179V101.64H254.003ZM259.31 105.192C261.918 105.192 263.502 103.928 263.502 101.96C263.502 100.584 262.782 99.816 261.438 99.192C262.446 98.808 263.118 98.12 263.118 96.968C263.118 95.304 261.662 94.12 259.358 94.12C256.942 94.12 255.502 95.464 255.502 97.096C255.502 98.424 256.062 99.224 257.134 99.752C255.886 100.312 255.134 101.048 255.134 102.28C255.134 103.976 256.622 105.192 259.31 105.192ZM259.79 98.536L258.926 98.232C258.27 97.992 257.838 97.608 257.838 97.016C257.838 96.28 258.446 95.864 259.374 95.864C260.398 95.864 260.942 96.392 260.942 97.144C260.942 97.832 260.462 98.184 259.79 98.536ZM259.294 103.48C258.11 103.48 257.39 102.92 257.39 102.136C257.39 101.336 257.918 100.856 258.654 100.552L259.742 100.952C260.478 101.224 261.054 101.576 261.054 102.28C261.054 103.064 260.414 103.48 259.294 103.48ZM268.594 105.192C271.122 105.192 272.754 103.096 272.754 99.736C272.754 96.296 271.186 94.136 268.61 94.136C266.066 94.136 264.45 96.168 264.45 99.72C264.45 103.08 266.114 105.192 268.594 105.192ZM268.642 103.336C267.474 103.336 266.994 102.12 266.994 99.704C266.994 97.224 267.442 95.992 268.626 95.992C269.746 95.992 270.242 97.24 270.242 99.704C270.242 102.104 269.714 103.336 268.642 103.336Z" fill="#111111"/>
</g>
<path d="M137 55.5C135.333 55.5 134 56.8333 134 58.5C134 60.1667 135.333 61.5 137 61.5C138.667 61.5 140 60.1667 140 58.5C140 56.8333 138.667 55.5 137 55.5Z" fill="white"/>
<path d="M212 58.5L202 52.7265V64.2735L212 58.5ZM135 58.5C135 57.3856 135.886 56.5 137 56.5V54.5C134.781 54.5 133 56.281 133 58.5H135ZM137 56.5C138.114 56.5 139 57.3856 139 58.5H141C141 56.281 139.219 54.5 137 54.5V56.5ZM139 58.5C139 59.6144 138.114 60.5 137 60.5V62.5C139.219 62.5 141 60.719 141 58.5H139ZM137 60.5C135.886 60.5 135 59.6144 135 58.5H133C133 60.719 134.781 62.5 137 62.5V60.5ZM140 59.5H203V57.5H140V59.5Z" fill="#94538C"/>
<defs>
<filter id="filter0_d_1228_18897" x="0" y="0" width="139" height="119" filterUnits="userSpaceOnUse" color-interpolation-filters="sRGB">
<feFlood flood-opacity="0" result="BackgroundImageFix"/>
<feColorMatrix in="SourceAlpha" type="matrix" values="0 0 0 0 0 0 0 0 0 0 0 0 0 0 0 0 0 0 127 0" result="hardAlpha"/>
<feOffset dy="1"/>
<feGaussianBlur stdDeviation="1"/>
<feComposite in2="hardAlpha" operator="out"/>
<feColorMatrix type="matrix" values="0 0 0 0 0.4 0 0 0 0 0.4 0 0 0 0 0.4 0 0 0 0.25 0"/>
<feBlend mode="normal" in2="BackgroundImageFix" result="effect1_dropShadow_1228_18897"/>
<feBlend mode="normal" in="SourceGraphic" in2="effect1_dropShadow_1228_18897" result="shape"/>
</filter>
<filter id="filter1_d_1228_18897" x="210" y="0" width="139" height="119" filterUnits="userSpaceOnUse" color-interpolation-filters="sRGB">
<feFlood flood-opacity="0" result="BackgroundImageFix"/>
<feColorMatrix in="SourceAlpha" type="matrix" values="0 0 0 0 0 0 0 0 0 0 0 0 0 0 0 0 0 0 127 0" result="hardAlpha"/>
<feOffset dy="1"/>
<feGaussianBlur stdDeviation="1"/>
<feComposite in2="hardAlpha" operator="out"/>
<feColorMatrix type="matrix" values="0 0 0 0 0.4 0 0 0 0 0.4 0 0 0 0 0.4 0 0 0 0.25 0"/>
<feBlend mode="normal" in2="BackgroundImageFix" result="effect1_dropShadow_1228_18897"/>
<feBlend mode="normal" in="SourceGraphic" in2="effect1_dropShadow_1228_18897" result="shape"/>
</filter>
</defs>
</svg>
