<svg width="646" height="299" viewBox="0 0 646 299" fill="none" xmlns="http://www.w3.org/2000/svg">
<path d="M10.8967 93.176C8.57669 93.176 7.20069 92.248 6.49669 90.472L7.63269 90.024C8.12869 91.32 9.04069 92.088 10.9127 92.088C12.4807 92.088 13.4567 91.432 13.4567 90.216C13.4567 88.888 12.2247 88.504 10.4647 88.04C8.49669 87.544 7.00869 86.84 7.00869 84.952C7.00869 83.224 8.51269 82.12 10.5767 82.12C12.5767 82.12 13.9687 83.08 14.4807 84.744L13.2487 85.128C12.9287 83.928 11.9047 83.224 10.5607 83.224C9.21669 83.224 8.33669 83.896 8.33669 84.808C8.33669 85.992 9.12069 86.392 11.3127 86.968C13.5527 87.56 14.7687 88.312 14.7687 90.104C14.7687 91.992 13.3287 93.176 10.8967 93.176ZM17.5183 93H16.2703V82.328H17.4703V86.664C17.9823 85.848 18.9423 84.968 20.4143 84.968C22.0143 84.968 22.5903 86.024 22.5903 87.32V93H21.3423V87.416C21.3423 86.456 20.8623 86.008 20.0623 86.008C18.9583 86.008 18.1743 86.664 17.5183 87.608V93ZM27.8858 93.128C25.8538 93.128 24.3498 91.512 24.3498 89.016C24.3498 86.552 25.9498 84.968 27.8858 84.968C30.0458 84.968 31.4538 86.6 31.4538 89.032C31.4538 91.512 29.8378 93.128 27.8858 93.128ZM27.8698 92.2C29.1658 92.2 30.1418 91.144 30.1418 89.016C30.1418 86.968 29.1818 85.944 27.8698 85.944C26.6218 85.944 25.6618 87 25.6618 89.032C25.6618 91.016 26.5418 92.2 27.8698 92.2ZM35.5751 93H34.5191L32.1351 85.112H33.3991L34.9671 90.504L35.1431 91.224L35.3351 90.504L36.8391 85.112H37.8631L39.4791 90.552L39.6551 91.256L39.8631 90.584L41.3991 85.112H42.4711L40.1191 93H39.0631L37.4631 87.656L37.2711 86.936L37.1111 87.624L35.5751 93ZM45.0671 83.72H43.7071V82.312H45.0671V83.72ZM45.0191 93H43.7711V85.112H45.0191V93ZM48.6902 93H47.4422V85.112H48.6262V86.68C49.1702 85.896 50.1462 84.968 51.5542 84.968C53.0262 84.968 53.7462 85.8 53.7462 87.416V93H52.4982V87.4C52.4982 86.456 52.0822 86.008 51.1862 86.008C50.1782 86.008 49.3462 86.648 48.6902 87.592V93ZM58.9639 95.976C56.5319 95.976 55.2519 95.304 55.2519 94.088C55.2519 93.304 55.8279 92.712 56.7879 92.472C55.9879 92.248 55.6679 91.8 55.6679 91.192C55.6679 90.52 56.2119 90.04 56.9159 89.848C56.1479 89.448 55.7639 88.632 55.7639 87.672C55.7639 86.056 57.1239 84.968 58.7079 84.968C59.2999 84.968 59.8759 85.096 60.3559 85.352C60.5479 84.488 60.9799 83.944 62.3239 83.96C62.3719 83.96 62.4679 83.96 62.5159 83.96L62.5319 85C62.4359 84.984 62.3559 84.968 62.2599 84.968C61.4599 84.952 61.1239 85.288 60.9959 85.864C61.4119 86.232 61.7159 86.856 61.7159 87.672C61.7159 89.24 60.6279 90.376 58.8359 90.376C58.3239 90.376 57.8119 90.264 57.6839 90.232C57.2679 90.232 56.8199 90.536 56.8199 91.016C56.8199 91.72 57.8119 91.72 59.4119 91.768C61.9239 91.816 62.8199 92.344 62.8199 93.64C62.8199 95.016 61.5239 95.976 58.9639 95.976ZM58.7719 89.544C59.8919 89.544 60.5479 88.872 60.5479 87.688C60.5479 86.728 59.9559 85.864 58.7719 85.864C57.6039 85.864 56.9959 86.68 56.9959 87.672C56.9959 88.904 57.6999 89.544 58.7719 89.544ZM58.8679 95.144C60.6279 95.144 61.6359 94.6 61.6359 93.8C61.6359 93 61.0439 92.824 57.4919 92.744C56.8679 92.92 56.3879 93.24 56.3879 93.944C56.3879 94.696 57.1079 95.144 58.8679 95.144Z" fill="#595959"/>
<path d="M72.1006 93.192C70.1326 93.192 68.6766 92.264 68.1326 90.664L69.2046 90.28C69.7006 91.544 70.6286 92.152 72.0526 92.152C73.6206 92.152 74.6926 91.08 74.6926 89.432C74.6926 88.024 73.8446 86.824 72.2126 86.824C70.9486 86.824 70.1966 87.48 69.6526 88.344L68.5966 88.104L68.9486 82.328H75.2686L75.1566 83.48H69.9406L69.7006 87.064C70.1486 86.44 71.2046 85.784 72.3886 85.784C74.6126 85.784 75.9726 87.288 75.9726 89.416C75.9726 91.816 74.1166 93.192 72.1006 93.192ZM83.9567 93H77.9247V91.944H80.3247V84.104C79.9407 84.552 79.5567 85.24 78.0367 86.104V84.728C79.2047 84.088 79.9567 83.256 80.6447 82.12H81.6047V91.944H83.9567V93Z" fill="#595959"/>
<path d="M92.7786 88.808H89.2266V87.656H92.7786V88.808Z" fill="#595959"/>
<path d="M102.232 93.208C99.7836 93.208 97.9916 91.368 97.9916 87.848V87.72C97.9916 84.568 99.4636 82.12 102.344 82.12C104.008 82.12 105.192 83.032 105.656 84.664L104.472 84.872C104.088 83.8 103.368 83.208 102.216 83.208C100.488 83.208 99.2556 84.584 99.2556 87.96C99.2556 88.008 99.2716 88.248 99.2716 88.312C99.7356 86.824 101.112 86.04 102.44 86.04C104.632 86.04 105.928 87.528 105.928 89.544C105.928 91.592 104.408 93.208 102.232 93.208ZM102.232 92.168C103.64 92.168 104.68 91.208 104.68 89.688V89.608C104.68 88.168 103.816 87.08 102.232 87.08C100.776 87.08 99.7996 88.184 99.4796 89.352C99.4636 89.4 99.4636 89.448 99.4636 89.496C99.6396 91.096 100.68 92.168 102.232 92.168ZM111.024 93.192C108.464 93.192 106.96 91.016 106.96 87.672C106.96 84.28 108.448 82.136 111.008 82.136C113.472 82.136 115.008 84.296 115.008 87.72C115.008 91.032 113.472 93.192 111.024 93.192ZM111.024 92.152C112.688 92.152 113.664 90.584 113.664 87.688C113.664 84.872 112.736 83.208 111.008 83.208C109.168 83.208 108.304 84.728 108.304 87.672C108.304 90.488 109.312 92.152 111.024 92.152Z" fill="#595959"/>
<path d="M122.95 83.72H121.59V82.312H122.95V83.72ZM122.902 93H121.654V85.112H122.902V93ZM127.533 93.112C126.205 93.112 125.437 92.456 125.437 90.824V86.104H124.157V85.112H125.453L125.517 83.048H126.653V85.112H128.429V86.104H126.653V90.888C126.653 91.72 127.085 92.088 127.757 92.104C128.125 92.104 128.589 92.056 128.877 92.008V92.984C128.445 93.064 127.965 93.112 127.533 93.112ZM133.271 93.128C131.111 93.128 129.655 91.544 129.655 89.192C129.655 86.52 131.271 84.968 133.303 84.968C135.367 84.968 136.567 86.472 136.727 88.664C136.743 88.84 136.727 89.016 136.743 89.192H130.919C130.951 91.176 131.847 92.184 133.383 92.184C134.247 92.184 135.063 91.8 135.511 90.632L136.599 90.792C136.055 92.312 134.839 93.128 133.271 93.128ZM130.967 88.344H135.479C135.351 86.824 134.567 85.912 133.303 85.912C132.039 85.912 131.063 86.856 130.967 88.344ZM139.698 93H138.466V85.112H139.666V86.696C140.13 85.912 141.17 84.968 142.306 84.968C143.458 84.968 144.194 85.624 144.29 86.744C144.834 85.88 145.762 84.984 147.01 84.984C147.826 84.984 148.37 85.288 148.69 85.88C148.93 86.248 149.09 86.76 149.09 87.4V93H147.858V87.48C147.858 86.456 147.426 86.024 146.658 86.024C145.682 86.024 144.866 86.824 144.37 87.608V93H143.154V87.464C143.154 86.52 142.754 85.992 141.986 85.992C141.074 85.992 140.418 86.584 139.698 87.592V93ZM153.93 93.128C151.93 93.128 150.698 92.312 150.314 90.872L151.434 90.648C151.69 91.576 152.57 92.2 153.93 92.2C155.178 92.2 155.946 91.64 155.946 90.808C155.946 89.864 154.89 89.672 153.722 89.416C152.106 89.112 150.746 88.696 150.746 87.144C150.746 85.848 151.914 84.968 153.674 84.968C155.45 84.968 156.474 85.752 156.874 86.984L155.77 87.224C155.466 86.392 154.746 85.912 153.674 85.912C152.618 85.912 151.898 86.344 151.898 87.064C151.898 87.928 152.842 88.088 154.106 88.36C155.722 88.68 157.098 89.128 157.098 90.696C157.098 92.152 155.85 93.128 153.93 93.128Z" fill="#595959"/>
<rect x="340" y="71" width="40" height="32" rx="16" fill="white"/>
<g clip-path="url(#clip0_5520_1743)">
<path d="M362 82.38L362.71 83.09L358.75 87L362.67 90.91L361.96 91.62L357.33 87L362 82.38Z" fill="#111111"/>
</g>
<rect x="384" y="71" width="32" height="32" rx="16" fill="white"/>
<path d="M402.881 92H397.603V91.076H399.703V84.216C399.367 84.608 399.031 85.21 397.701 85.966V84.762C398.723 84.202 399.381 83.474 399.983 82.48H400.823V91.076H402.881V92Z" fill="#111111"/>
<rect x="420" y="71" width="32" height="32" rx="16" fill="white"/>
<g clip-path="url(#clip1_5520_1743)">
<path d="M431.1 89.9C431.318 89.9 431.53 89.9645 431.711 90.0854C431.892 90.2063 432.033 90.3781 432.116 90.5791C432.2 90.7801 432.221 91.0012 432.179 91.2146C432.136 91.428 432.032 91.624 431.878 91.7778C431.724 91.9317 431.528 92.0364 431.315 92.0789C431.101 92.1213 430.88 92.0995 430.679 92.0163C430.478 91.933 430.306 91.792 430.185 91.6112C430.065 91.4303 430 91.2176 430 91C430 90.7083 430.116 90.4285 430.322 90.2222C430.528 90.0159 430.808 89.9 431.1 89.9ZM436 89.9C436.218 89.9 436.43 89.9645 436.611 90.0854C436.792 90.2063 436.933 90.3781 437.016 90.5791C437.1 90.7801 437.121 91.0012 437.079 91.2146C437.036 91.428 436.932 91.624 436.778 91.7778C436.624 91.9317 436.428 92.0364 436.215 92.0789C436.001 92.1213 435.78 92.0995 435.579 92.0163C435.378 91.933 435.206 91.792 435.085 91.6112C434.965 91.4303 434.9 91.2176 434.9 91C434.9 90.7083 435.016 90.4285 435.222 90.2222C435.428 90.0159 435.708 89.9 436 89.9ZM442 91C442 90.7825 441.935 90.5698 441.815 90.3889C441.694 90.208 441.522 90.067 441.321 89.9838C441.12 89.9005 440.899 89.8787 440.685 89.9212C440.472 89.9636 440.276 90.0684 440.122 90.2222C439.968 90.376 439.864 90.572 439.821 90.7854C439.779 90.9988 439.8 91.22 439.884 91.421C439.967 91.622 440.108 91.7938 440.289 91.9146C440.47 92.0355 440.682 92.1 440.9 92.1C441.192 92.1 441.472 91.9841 441.678 91.7778C441.884 91.5716 442 91.2918 442 91Z" fill="#111111"/>
</g>
<rect x="456" y="71" width="32" height="32" rx="16" fill="white"/>
<path d="M474.079 92H472.987V89.816H468.325V88.92L472.847 82.48H474.079V88.85H475.577V89.816H474.079V92ZM472.987 83.754L469.361 88.85H472.987V83.754Z" fill="#111111"/>
<rect x="492" y="71" width="32" height="32" rx="16" fill="black" fill-opacity="0.05"/>
<path d="M508.042 92.168C506.096 92.168 504.85 91.454 504.262 89.858L506.054 89.256C506.348 90.208 507.09 90.558 507.846 90.558C508.728 90.558 509.498 90.026 509.498 88.92C509.498 88.024 508.924 87.31 507.916 87.31C507.16 87.31 506.642 87.604 506.25 88.15L504.668 87.786L505.004 82.662H511.024L510.842 84.384H506.614L506.432 86.512C506.838 86.036 507.72 85.742 508.49 85.742C510.282 85.742 511.626 86.876 511.626 88.822C511.626 90.782 510.128 92.168 508.042 92.168Z" fill="#111111"/>
<rect x="528" y="71" width="32" height="32" rx="16" fill="white"/>
<path d="M544.346 92.182C542.204 92.182 540.636 90.572 540.636 87.492V87.38C540.636 84.622 541.924 82.48 544.444 82.48C545.9 82.48 546.936 83.278 547.342 84.706L546.306 84.888C545.97 83.95 545.34 83.432 544.332 83.432C542.82 83.432 541.742 84.636 541.742 87.59C541.742 87.632 541.756 87.842 541.756 87.898C542.162 86.596 543.366 85.91 544.528 85.91C546.446 85.91 547.58 87.212 547.58 88.976C547.58 90.768 546.25 92.182 544.346 92.182ZM544.346 91.272C545.578 91.272 546.488 90.432 546.488 89.102V89.032C546.488 87.772 545.732 86.82 544.346 86.82C543.072 86.82 542.218 87.786 541.938 88.808C541.924 88.85 541.924 88.892 541.924 88.934C542.078 90.334 542.988 91.272 544.346 91.272Z" fill="#111111"/>
<rect x="564" y="71" width="32" height="32" rx="16" fill="white"/>
<g clip-path="url(#clip2_5520_1743)">
<path d="M575.1 89.9C575.318 89.9 575.53 89.9645 575.711 90.0854C575.892 90.2063 576.033 90.3781 576.116 90.5791C576.2 90.7801 576.221 91.0012 576.179 91.2146C576.136 91.428 576.032 91.624 575.878 91.7778C575.724 91.9317 575.528 92.0364 575.315 92.0789C575.101 92.1213 574.88 92.0995 574.679 92.0163C574.478 91.933 574.306 91.792 574.185 91.6112C574.065 91.4303 574 91.2176 574 91C574 90.7083 574.116 90.4285 574.322 90.2222C574.528 90.0159 574.808 89.9 575.1 89.9ZM580 89.9C580.218 89.9 580.43 89.9645 580.611 90.0854C580.792 90.2063 580.933 90.3781 581.016 90.5791C581.1 90.7801 581.121 91.0012 581.079 91.2146C581.036 91.428 580.932 91.624 580.778 91.7778C580.624 91.9317 580.428 92.0364 580.215 92.0789C580.001 92.1213 579.78 92.0995 579.579 92.0163C579.378 91.933 579.206 91.792 579.085 91.6112C578.965 91.4303 578.9 91.2176 578.9 91C578.9 90.7083 579.016 90.4285 579.222 90.2222C579.428 90.0159 579.708 89.9 580 89.9ZM586 91C586 90.7825 585.935 90.5698 585.815 90.3889C585.694 90.208 585.522 90.067 585.321 89.9838C585.12 89.9005 584.899 89.8787 584.685 89.9212C584.472 89.9636 584.276 90.0684 584.122 90.2222C583.968 90.376 583.864 90.572 583.821 90.7854C583.779 90.9988 583.8 91.22 583.884 91.421C583.967 91.622 584.108 91.7938 584.289 91.9146C584.47 92.0355 584.682 92.1 584.9 92.1C585.192 92.1 585.472 91.9841 585.678 91.7778C585.884 91.5716 586 91.2918 586 91Z" fill="#111111"/>
</g>
<rect x="600" y="71" width="40" height="32" rx="16" fill="white"/>
<g clip-path="url(#clip3_5520_1743)">
<path d="M618 91.62L617.29 90.91L621.25 87L617.33 83.09L618 82.38L622.67 87L618 91.62Z" fill="#111111"/>
</g>
<path d="M4.89669 225.176C2.57669 225.176 1.20069 224.248 0.496688 222.472L1.63269 222.024C2.12869 223.32 3.04069 224.088 4.91269 224.088C6.48069 224.088 7.45669 223.432 7.45669 222.216C7.45669 220.888 6.22469 220.504 4.46469 220.04C2.49669 219.544 1.00869 218.84 1.00869 216.952C1.00869 215.224 2.51269 214.12 4.57669 214.12C6.57669 214.12 7.96869 215.08 8.48069 216.744L7.24869 217.128C6.92869 215.928 5.90469 215.224 4.56069 215.224C3.21669 215.224 2.33669 215.896 2.33669 216.808C2.33669 217.992 3.12069 218.392 5.31269 218.968C7.55269 219.56 8.76869 220.312 8.76869 222.104C8.76869 223.992 7.32869 225.176 4.89669 225.176ZM11.5183 225H10.2703V214.328H11.4703V218.664C11.9823 217.848 12.9423 216.968 14.4143 216.968C16.0143 216.968 16.5903 218.024 16.5903 219.32V225H15.3423V219.416C15.3423 218.456 14.8623 218.008 14.0623 218.008C12.9583 218.008 12.1743 218.664 11.5183 219.608V225ZM21.8858 225.128C19.8538 225.128 18.3498 223.512 18.3498 221.016C18.3498 218.552 19.9498 216.968 21.8858 216.968C24.0458 216.968 25.4538 218.6 25.4538 221.032C25.4538 223.512 23.8378 225.128 21.8858 225.128ZM21.8698 224.2C23.1658 224.2 24.1418 223.144 24.1418 221.016C24.1418 218.968 23.1818 217.944 21.8698 217.944C20.6218 217.944 19.6618 219 19.6618 221.032C19.6618 223.016 20.5418 224.2 21.8698 224.2ZM29.5751 225H28.5191L26.1351 217.112H27.3991L28.9671 222.504L29.1431 223.224L29.3351 222.504L30.8391 217.112H31.8631L33.4791 222.552L33.6551 223.256L33.8631 222.584L35.3991 217.112H36.4711L34.1191 225H33.0631L31.4631 219.656L31.2711 218.936L31.1111 219.624L29.5751 225ZM39.0671 215.72H37.7071V214.312H39.0671V215.72ZM39.0191 225H37.7711V217.112H39.0191V225ZM42.6902 225H41.4422V217.112H42.6262V218.68C43.1702 217.896 44.1462 216.968 45.5542 216.968C47.0262 216.968 47.7462 217.8 47.7462 219.416V225H46.4982V219.4C46.4982 218.456 46.0822 218.008 45.1862 218.008C44.1782 218.008 43.3462 218.648 42.6902 219.592V225ZM52.9639 227.976C50.5319 227.976 49.2519 227.304 49.2519 226.088C49.2519 225.304 49.8279 224.712 50.7879 224.472C49.9879 224.248 49.6679 223.8 49.6679 223.192C49.6679 222.52 50.2119 222.04 50.9159 221.848C50.1479 221.448 49.7639 220.632 49.7639 219.672C49.7639 218.056 51.1239 216.968 52.7079 216.968C53.2999 216.968 53.8759 217.096 54.3559 217.352C54.5479 216.488 54.9799 215.944 56.3239 215.96C56.3719 215.96 56.4679 215.96 56.5159 215.96L56.5319 217C56.4359 216.984 56.3559 216.968 56.2599 216.968C55.4599 216.952 55.1239 217.288 54.9959 217.864C55.4119 218.232 55.7159 218.856 55.7159 219.672C55.7159 221.24 54.6279 222.376 52.8359 222.376C52.3239 222.376 51.8119 222.264 51.6839 222.232C51.2679 222.232 50.8199 222.536 50.8199 223.016C50.8199 223.72 51.8119 223.72 53.4119 223.768C55.9239 223.816 56.8199 224.344 56.8199 225.64C56.8199 227.016 55.5239 227.976 52.9639 227.976ZM52.7719 221.544C53.8919 221.544 54.5479 220.872 54.5479 219.688C54.5479 218.728 53.9559 217.864 52.7719 217.864C51.6039 217.864 50.9959 218.68 50.9959 219.672C50.9959 220.904 51.6999 221.544 52.7719 221.544ZM52.8679 227.144C54.6279 227.144 55.6359 226.6 55.6359 225.8C55.6359 225 55.0439 224.824 51.4919 224.744C50.8679 224.92 50.3879 225.24 50.3879 225.944C50.3879 226.696 51.1079 227.144 52.8679 227.144Z" fill="#595959"/>
<path d="M68.2926 225H62.2606V223.944H64.6606V216.104C64.2766 216.552 63.8926 217.24 62.3726 218.104V216.728C63.5406 216.088 64.2926 215.256 64.9806 214.12H65.9406V223.944H68.2926V225Z" fill="#595959"/>
<path d="M76.7786 220.808H73.2266V219.656H76.7786V220.808Z" fill="#595959"/>
<path d="M88.6286 225H82.5966V223.944H84.9966V216.104C84.6126 216.552 84.2286 217.24 82.7086 218.104V216.728C83.8766 216.088 84.6286 215.256 85.3166 214.12H86.2766V223.944H88.6286V225ZM93.8993 225.192C91.3393 225.192 89.8353 223.016 89.8353 219.672C89.8353 216.28 91.3233 214.136 93.8833 214.136C96.3473 214.136 97.8833 216.296 97.8833 219.72C97.8833 223.032 96.3473 225.192 93.8993 225.192ZM93.8993 224.152C95.5633 224.152 96.5393 222.584 96.5393 219.688C96.5393 216.872 95.6113 215.208 93.8833 215.208C92.0433 215.208 91.1793 216.728 91.1793 219.672C91.1793 222.488 92.1873 224.152 93.8993 224.152Z" fill="#595959"/>
<path d="M107.284 225.128C105.252 225.128 103.748 223.512 103.748 221.016C103.748 218.552 105.348 216.968 107.284 216.968C109.444 216.968 110.852 218.6 110.852 221.032C110.852 223.512 109.236 225.128 107.284 225.128ZM107.268 224.2C108.564 224.2 109.54 223.144 109.54 221.016C109.54 218.968 108.58 217.944 107.268 217.944C106.02 217.944 105.06 219 105.06 221.032C105.06 223.016 105.94 224.2 107.268 224.2ZM113.998 225H112.766V218.056H111.373V217.112H112.766C112.766 217 112.766 216.44 112.766 216.328C112.766 214.776 113.598 214.024 115.246 214.024C115.549 214.024 116.078 214.072 116.382 214.12V215.112C116.046 215.064 115.549 215.032 115.342 215.032C114.382 215.032 113.998 215.48 113.998 216.36C113.998 216.728 113.998 217.064 113.998 217.112H115.918V218.056H113.998V225Z" fill="#595959"/>
<path d="M127.465 225H121.433V223.944H123.833V216.104C123.449 216.552 123.065 217.24 121.545 218.104V216.728C122.713 216.088 123.465 215.256 124.153 214.12H125.113V223.944H127.465V225ZM132.735 225.192C130.175 225.192 128.671 223.016 128.671 219.672C128.671 216.28 130.159 214.136 132.719 214.136C135.183 214.136 136.719 216.296 136.719 219.72C136.719 223.032 135.183 225.192 132.735 225.192ZM132.735 224.152C134.399 224.152 135.375 222.584 135.375 219.688C135.375 216.872 134.447 215.208 132.719 215.208C130.879 215.208 130.015 216.728 130.015 219.672C130.015 222.488 131.023 224.152 132.735 224.152ZM142.063 225.192C139.503 225.192 137.999 223.016 137.999 219.672C137.999 216.28 139.487 214.136 142.047 214.136C144.511 214.136 146.047 216.296 146.047 219.72C146.047 223.032 144.511 225.192 142.063 225.192ZM142.063 224.152C143.727 224.152 144.703 222.584 144.703 219.688C144.703 216.872 143.775 215.208 142.047 215.208C140.207 215.208 139.343 216.728 139.343 219.672C139.343 222.488 140.351 224.152 142.063 224.152Z" fill="#595959"/>
<path d="M153.95 215.72H152.59V214.312H153.95V215.72ZM153.902 225H152.654V217.112H153.902V225ZM158.533 225.112C157.205 225.112 156.437 224.456 156.437 222.824V218.104H155.157V217.112H156.453L156.517 215.048H157.653V217.112H159.429V218.104H157.653V222.888C157.653 223.72 158.085 224.088 158.757 224.104C159.125 224.104 159.589 224.056 159.877 224.008V224.984C159.445 225.064 158.965 225.112 158.533 225.112ZM164.271 225.128C162.111 225.128 160.655 223.544 160.655 221.192C160.655 218.52 162.271 216.968 164.303 216.968C166.367 216.968 167.567 218.472 167.727 220.664C167.743 220.84 167.727 221.016 167.743 221.192H161.919C161.951 223.176 162.847 224.184 164.383 224.184C165.247 224.184 166.063 223.8 166.511 222.632L167.599 222.792C167.055 224.312 165.839 225.128 164.271 225.128ZM161.967 220.344H166.479C166.351 218.824 165.567 217.912 164.303 217.912C163.039 217.912 162.063 218.856 161.967 220.344ZM170.698 225H169.466V217.112H170.666V218.696C171.13 217.912 172.17 216.968 173.306 216.968C174.458 216.968 175.194 217.624 175.29 218.744C175.834 217.88 176.762 216.984 178.01 216.984C178.826 216.984 179.37 217.288 179.69 217.88C179.93 218.248 180.09 218.76 180.09 219.4V225H178.858V219.48C178.858 218.456 178.426 218.024 177.658 218.024C176.682 218.024 175.866 218.824 175.37 219.608V225H174.154V219.464C174.154 218.52 173.754 217.992 172.986 217.992C172.074 217.992 171.418 218.584 170.698 219.592V225ZM184.93 225.128C182.93 225.128 181.698 224.312 181.314 222.872L182.434 222.648C182.69 223.576 183.57 224.2 184.93 224.2C186.178 224.2 186.946 223.64 186.946 222.808C186.946 221.864 185.89 221.672 184.722 221.416C183.106 221.112 181.746 220.696 181.746 219.144C181.746 217.848 182.914 216.968 184.674 216.968C186.45 216.968 187.474 217.752 187.874 218.984L186.77 219.224C186.466 218.392 185.746 217.912 184.674 217.912C183.618 217.912 182.898 218.344 182.898 219.064C182.898 219.928 183.842 220.088 185.106 220.36C186.722 220.68 188.098 221.128 188.098 222.696C188.098 224.152 186.85 225.128 184.93 225.128Z" fill="#595959"/>
<rect x="464" y="203" width="40" height="32" rx="16" fill="white"/>
<g clip-path="url(#clip4_5520_1743)">
<path d="M486 214.38L486.71 215.09L482.75 219L486.67 222.91L485.96 223.62L481.33 219L486 214.38Z" fill="#111111"/>
</g>
<path d="M512.96 225.192C510.992 225.192 509.536 224.264 508.992 222.664L510.064 222.28C510.56 223.544 511.488 224.152 512.912 224.152C514.48 224.152 515.552 223.08 515.552 221.432C515.552 220.024 514.704 218.824 513.072 218.824C511.808 218.824 511.056 219.48 510.512 220.344L509.456 220.104L509.808 214.328H516.128L516.016 215.48H510.8L510.56 219.064C511.008 218.44 512.064 217.784 513.248 217.784C515.472 217.784 516.832 219.288 516.832 221.416C516.832 223.816 514.976 225.192 512.96 225.192Z" fill="#595959"/>
<path d="M526.284 225.128C524.252 225.128 522.748 223.512 522.748 221.016C522.748 218.552 524.348 216.968 526.284 216.968C528.444 216.968 529.852 218.6 529.852 221.032C529.852 223.512 528.236 225.128 526.284 225.128ZM526.268 224.2C527.564 224.2 528.54 223.144 528.54 221.016C528.54 218.968 527.58 217.944 526.268 217.944C525.02 217.944 524.06 219 524.06 221.032C524.06 223.016 524.94 224.2 526.268 224.2ZM532.998 225H531.766V218.056H530.373V217.112H531.766C531.766 217 531.766 216.44 531.766 216.328C531.766 214.776 532.598 214.024 534.246 214.024C534.549 214.024 535.078 214.072 535.382 214.12V215.112C535.046 215.064 534.549 215.032 534.342 215.032C533.382 215.032 532.998 215.48 532.998 216.36C532.998 216.728 532.998 217.064 532.998 217.112H534.918V218.056H532.998V225Z" fill="#595959"/>
<path d="M546.629 225H540.597V223.944H542.997V216.104C542.613 216.552 542.229 217.24 540.709 218.104V216.728C541.877 216.088 542.629 215.256 543.317 214.12H544.277V223.944H546.629V225ZM551.819 225.192C549.851 225.192 548.395 224.264 547.851 222.664L548.923 222.28C549.419 223.544 550.347 224.152 551.771 224.152C553.339 224.152 554.411 223.08 554.411 221.432C554.411 220.024 553.563 218.824 551.931 218.824C550.667 218.824 549.915 219.48 549.371 220.344L548.315 220.104L548.667 214.328H554.987L554.875 215.48H549.659L549.419 219.064C549.867 218.44 550.923 217.784 552.107 217.784C554.331 217.784 555.691 219.288 555.691 221.416C555.691 223.816 553.835 225.192 551.819 225.192Z" fill="#595959"/>
<path d="M566.209 225.112C565.057 225.112 564.225 224.536 563.745 223.96V227.672H562.513V217.112H563.697V218.504C564.177 217.736 564.977 216.968 566.241 216.968C568.001 216.968 569.217 218.2 569.217 221.048C569.217 223.72 567.793 225.112 566.209 225.112ZM565.873 224.2C567.121 224.2 567.921 223.352 567.921 221.08C567.921 218.968 567.313 217.992 565.953 217.992C565.041 217.992 564.305 218.472 563.745 219.576V222.904C564.161 223.496 564.737 224.2 565.873 224.2ZM572.916 225.096C571.524 225.096 570.404 224.36 570.404 222.92C570.404 221.208 571.972 220.36 574.132 220.104C574.772 220.024 575.3 220.024 575.924 220.008C575.924 219.736 575.924 219.464 575.892 219.272C575.796 218.408 575.284 217.944 573.956 217.944C572.676 217.944 572.004 218.296 571.748 219.304L570.596 219.176C570.884 217.736 572.116 216.968 573.988 216.968C576.228 216.968 577.092 217.896 577.092 219.88V223.464C577.092 223.96 577.14 224.504 577.268 225H576.084C575.988 224.728 575.924 224.072 575.94 223.672C575.316 224.536 574.388 225.096 572.916 225.096ZM573.284 224.184C574.788 224.184 575.588 223.272 575.924 222.456V220.824C575.364 220.824 574.788 220.824 574.292 220.888C572.58 221.112 571.7 221.8 571.7 222.792C571.7 223.704 572.228 224.184 573.284 224.184ZM582.394 227.976C579.962 227.976 578.682 227.304 578.682 226.088C578.682 225.304 579.258 224.712 580.218 224.472C579.418 224.248 579.098 223.8 579.098 223.192C579.098 222.52 579.642 222.04 580.346 221.848C579.578 221.448 579.194 220.632 579.194 219.672C579.194 218.056 580.554 216.968 582.138 216.968C582.73 216.968 583.306 217.096 583.786 217.352C583.978 216.488 584.41 215.944 585.754 215.96C585.802 215.96 585.898 215.96 585.946 215.96L585.962 217C585.866 216.984 585.786 216.968 585.69 216.968C584.89 216.952 584.554 217.288 584.426 217.864C584.842 218.232 585.146 218.856 585.146 219.672C585.146 221.24 584.058 222.376 582.266 222.376C581.754 222.376 581.242 222.264 581.114 222.232C580.698 222.232 580.25 222.536 580.25 223.016C580.25 223.72 581.242 223.72 582.842 223.768C585.354 223.816 586.25 224.344 586.25 225.64C586.25 227.016 584.954 227.976 582.394 227.976ZM582.202 221.544C583.322 221.544 583.978 220.872 583.978 219.688C583.978 218.728 583.386 217.864 582.202 217.864C581.034 217.864 580.426 218.68 580.426 219.672C580.426 220.904 581.13 221.544 582.202 221.544ZM582.298 227.144C584.058 227.144 585.066 226.6 585.066 225.8C585.066 225 584.474 224.824 580.922 224.744C580.298 224.92 579.818 225.24 579.818 225.944C579.818 226.696 580.538 227.144 582.298 227.144ZM590.349 225.128C588.189 225.128 586.733 223.544 586.733 221.192C586.733 218.52 588.349 216.968 590.381 216.968C592.445 216.968 593.645 218.472 593.805 220.664C593.821 220.84 593.805 221.016 593.821 221.192H587.997C588.029 223.176 588.925 224.184 590.461 224.184C591.325 224.184 592.141 223.8 592.589 222.632L593.677 222.792C593.133 224.312 591.917 225.128 590.349 225.128ZM588.045 220.344H592.557C592.429 218.824 591.645 217.912 590.381 217.912C589.117 217.912 588.141 218.856 588.045 220.344ZM598.04 225.128C596.04 225.128 594.808 224.312 594.424 222.872L595.544 222.648C595.8 223.576 596.68 224.2 598.04 224.2C599.288 224.2 600.056 223.64 600.056 222.808C600.056 221.864 599 221.672 597.832 221.416C596.216 221.112 594.856 220.696 594.856 219.144C594.856 217.848 596.024 216.968 597.784 216.968C599.56 216.968 600.584 217.752 600.984 218.984L599.88 219.224C599.576 218.392 598.856 217.912 597.784 217.912C596.728 217.912 596.008 218.344 596.008 219.064C596.008 219.928 596.952 220.088 598.216 220.36C599.832 220.68 601.208 221.128 601.208 222.696C601.208 224.152 599.96 225.128 598.04 225.128Z" fill="#595959"/>
<rect x="606" y="203" width="40" height="32" rx="16" fill="white"/>
<g clip-path="url(#clip5_5520_1743)">
<path d="M624 223.62L623.29 222.91L627.25 219L623.33 215.09L624 214.38L628.67 219L624 223.62Z" fill="#111111"/>
</g>
<g clip-path="url(#clip6_5520_1743)">
<rect x="347.871" y="148.943" width="28" height="28" rx="14" fill="#94538C"/>
<path d="M365.745 169.443H357.789V167.247H360.435V160.533C359.913 160.911 359.067 161.433 358.059 161.847V159.543C359.265 159.147 360.363 158.157 361.101 157.239H363.207V167.247H365.745V169.443Z" fill="white"/>
</g>
<path d="M362.869 176.043V219H464M362.869 150.939V102.307" stroke="#94538C" stroke-width="2" stroke-dasharray="2 2"/>
<g clip-path="url(#clip7_5520_1743)">
<rect x="75" y="138.943" width="28" height="28" rx="14" fill="#94538C"/>
<path d="M89.098 159.677C86.308 159.677 84.076 157.769 84.076 153.863V153.557C84.076 149.849 86.002 147.203 89.152 147.203C91.474 147.203 92.86 148.337 93.364 150.461L90.862 150.893C90.646 149.993 90.142 149.309 89.098 149.309C87.73 149.309 86.974 150.425 86.884 152.783C86.884 152.927 86.866 153.089 86.866 153.269C87.478 152.243 88.684 151.703 89.926 151.703C92.248 151.703 93.67 153.269 93.67 155.429C93.67 157.769 91.852 159.677 89.098 159.677ZM89.134 157.661C90.142 157.661 90.952 156.977 90.952 155.753V155.681C90.952 154.547 90.178 153.791 89.116 153.791C88.18 153.791 87.442 154.385 87.082 155.069C87.028 155.123 87.01 155.177 86.974 155.231C87.1 156.977 87.982 157.661 89.134 157.661Z" fill="white"/>
</g>
<line x1="90" y1="166.043" x2="90" y2="209" stroke="#94538C" stroke-width="2" stroke-dasharray="2 2"/>
<line x1="88" y1="141.443" x2="88" y2="99" stroke="#94538C" stroke-width="2" stroke-dasharray="2 2"/>
<g clip-path="url(#clip8_5520_1743)">
<rect x="492" y="0.943481" width="28" height="28" rx="14" fill="#94538C"/>
<path d="M505.864 21.6595C503.146 21.6595 501.238 20.4895 500.842 18.2575L503.38 17.7355C503.632 18.9595 504.442 19.5175 505.702 19.5175C507.142 19.5175 507.79 18.8695 507.79 17.9335C507.79 16.7995 506.944 16.3135 505.54 16.3135H504.226V14.2255H505.504C506.818 14.2255 507.484 13.7035 507.484 12.7855C507.484 11.9215 506.89 11.3635 505.684 11.3635C504.568 11.3635 503.74 11.8675 503.488 12.8935L501.202 12.4255C501.778 10.2295 503.686 9.22148 505.954 9.22148C508.618 9.22148 510.238 10.6435 510.238 12.4255C510.238 13.8115 509.518 14.8015 508.276 15.1615C509.806 15.5395 510.634 16.5475 510.634 18.0415C510.634 20.2195 508.924 21.6595 505.864 21.6595Z" fill="white"/>
</g>
<line x1="507" y1="28.0435" x2="507" y2="71" stroke="#94538C" stroke-width="2" stroke-dasharray="2 2"/>
<g clip-path="url(#clip9_5520_1743)">
<rect x="566" y="134.957" width="28" height="28" rx="14" fill="#94538C"/>
<path d="M582.816 155.457H580.152V152.973H574.878V150.885L580.278 143.253H582.816V150.831H584.58V152.973H582.816V155.457ZM580.17 146.439L577.038 150.831H580.17V146.439Z" fill="white"/>
</g>
<line x1="581" y1="99" x2="581" y2="141.957" stroke="#94538C" stroke-width="2" stroke-dasharray="2 2"/>
<g clip-path="url(#clip10_5520_1743)">
<rect x="536" y="270.957" width="28" height="28" rx="14" fill="#94538C"/>
<path d="M549.828 291.673C547.326 291.673 545.724 290.755 544.968 288.703L547.272 287.929C547.65 289.153 548.604 289.603 549.576 289.603C550.71 289.603 551.7 288.919 551.7 287.497C551.7 286.345 550.962 285.427 549.666 285.427C548.694 285.427 548.028 285.805 547.524 286.507L545.49 286.039L545.922 279.451H553.662L553.428 281.665H547.992L547.758 284.401C548.28 283.789 549.414 283.411 550.404 283.411C552.708 283.411 554.436 284.869 554.436 287.371C554.436 289.891 552.51 291.673 549.828 291.673Z" fill="white"/>
</g>
<line x1="551" y1="235" x2="551" y2="277.957" stroke="#94538C" stroke-width="2" stroke-dasharray="2 2"/>
<g clip-path="url(#clip11_5520_1743)">
<rect x="388" y="0.943481" width="28" height="28" rx="14" fill="#94538C"/>
<path d="M406.184 21.4435H397.13V19.5355C401.9 15.9535 403.196 14.8375 403.196 13.1095C403.196 12.1555 402.62 11.4715 401.558 11.4715C400.46 11.4715 399.758 12.2095 399.596 13.7035L397.112 13.2535C397.562 10.4455 399.452 9.22148 401.864 9.22148C404.384 9.22148 406.058 10.6795 406.058 13.0015C406.058 15.4135 403.988 16.9255 400.622 19.2295H406.184V21.4435Z" fill="white"/>
</g>
<line x1="403" y1="28.0435" x2="403" y2="71" stroke="#94538C" stroke-width="2" stroke-dasharray="2 2"/>
<path d="M409.043 14.9435H472V63.8594" stroke="black" stroke-width="2" stroke-dasharray="2 2"/>
<path d="M409.043 14.9435H472V63.8594" stroke="#94538C" stroke-width="2" stroke-dasharray="2 2"/>
<defs>
<clipPath id="clip0_5520_1743">
<rect width="16" height="16" fill="white" transform="translate(352 79)"/>
</clipPath>
<clipPath id="clip1_5520_1743">
<rect width="16" height="16" fill="white" transform="translate(428 83)"/>
</clipPath>
<clipPath id="clip2_5520_1743">
<rect width="16" height="16" fill="white" transform="translate(572 83)"/>
</clipPath>
<clipPath id="clip3_5520_1743">
<rect width="16" height="16" fill="white" transform="translate(612 79)"/>
</clipPath>
<clipPath id="clip4_5520_1743">
<rect width="16" height="16" fill="white" transform="translate(476 211)"/>
</clipPath>
<clipPath id="clip5_5520_1743">
<rect width="16" height="16" fill="white" transform="translate(618 211)"/>
</clipPath>
<clipPath id="clip6_5520_1743">
<rect width="27.9562" height="28" fill="white" transform="translate(347.893 148.943)"/>
</clipPath>
<clipPath id="clip7_5520_1743">
<rect width="28" height="28" fill="white" transform="translate(75 138.943)"/>
</clipPath>
<clipPath id="clip8_5520_1743">
<rect width="28" height="28" fill="white" transform="translate(492 0.943481)"/>
</clipPath>
<clipPath id="clip9_5520_1743">
<rect width="28" height="28" fill="white" transform="translate(566 134.957)"/>
</clipPath>
<clipPath id="clip10_5520_1743">
<rect width="28" height="28" fill="white" transform="translate(536 270.957)"/>
</clipPath>
<clipPath id="clip11_5520_1743">
<rect width="28" height="28" fill="white" transform="translate(388 0.943481)"/>
</clipPath>
</defs>
</svg>
