<svg width="500" height="167" viewBox="0 0 500 167" fill="none" xmlns="http://www.w3.org/2000/svg">
<rect x="0.5" y="0.5" width="499" height="47" rx="1.5" fill="white"/>
<path d="M14.168 20V19.172H9.992V16.244H13.028V15.428H9.992V12.86H14.06V11.996H8.996V20H14.168ZM16.1638 20V15.944C16.7038 15.188 17.1958 14.744 17.8798 14.744C18.4558 14.744 18.7558 15.14 18.7558 15.848V20H19.6678V15.956C20.0398 15.368 20.6518 14.768 21.3838 14.768C21.9598 14.768 22.2838 15.092 22.2838 15.86V20H23.2078V15.8C23.2078 15.32 23.0878 14.936 22.9078 14.66C22.6678 14.216 22.2598 13.988 21.6478 13.988C20.7118 13.988 20.0158 14.66 19.6078 15.308C19.5358 14.468 18.9838 13.976 18.1198 13.976C17.2678 13.976 16.4878 14.684 16.1398 15.272V14.084H15.2398V20H16.1638ZM26.3824 20.072C27.4864 20.072 28.1824 19.652 28.6504 19.004C28.6384 19.304 28.6864 19.796 28.7584 20H29.6464C29.5504 19.628 29.5144 19.22 29.5144 18.848V16.16C29.5144 14.672 28.8664 13.976 27.1864 13.976C25.7824 13.976 24.8584 14.552 24.6424 15.632L25.5064 15.728C25.6984 14.972 26.2024 14.708 27.1624 14.708C28.1584 14.708 28.5424 15.056 28.6144 15.704C28.6384 15.848 28.6384 16.052 28.6384 16.256C28.1704 16.268 27.7744 16.268 27.2944 16.328C25.6744 16.52 24.4984 17.156 24.4984 18.44C24.4984 19.52 25.3384 20.072 26.3824 20.072ZM26.6584 19.388C25.8664 19.388 25.4704 19.028 25.4704 18.344C25.4704 17.6 26.1304 17.084 27.4144 16.916C27.7864 16.868 28.2184 16.868 28.6384 16.868V18.092C28.3864 18.704 27.7864 19.388 26.6584 19.388ZM32.2905 13.04V11.984H31.2705V13.04H32.2905ZM32.2545 20V14.084H31.3185V20H32.2545ZM35.0319 20V11.996H34.0959V20H35.0319Z" fill="#3D73D5"/>
<path d="M10.672 39V28.328H9.344V39H10.672ZM14.4636 39V33.592C15.1196 32.648 15.9516 32.008 16.9596 32.008C17.8556 32.008 18.2716 32.456 18.2716 33.4V39H19.5196V33.416C19.5196 31.8 18.7996 30.968 17.3276 30.968C15.9196 30.968 14.9436 31.896 14.3996 32.68V31.112H13.2156V39H14.4636ZM25.5835 39.112C27.1675 39.112 28.5915 37.72 28.5915 35.048C28.5915 32.2 27.3755 30.968 25.6155 30.968C24.3515 30.968 23.5515 31.736 23.0715 32.504V31.112H21.8875V41.672H23.1195V37.96C23.5995 38.536 24.4315 39.112 25.5835 39.112ZM25.2475 38.2C24.1115 38.2 23.5355 37.496 23.1195 36.904V33.576C23.6795 32.472 24.4155 31.992 25.3275 31.992C26.6875 31.992 27.2955 32.968 27.2955 35.08C27.2955 37.352 26.4955 38.2 25.2475 38.2ZM32.8031 39.128C33.8591 39.128 34.8191 38.664 35.4431 37.656V39H36.5951V31.112H35.3631V36.712C34.8351 37.672 34.0671 38.184 33.1871 38.184C32.0831 38.184 31.6191 37.688 31.6191 36.44V31.112H30.3711V36.408C30.3711 38.392 31.3791 39.128 32.8031 39.128ZM41.1893 39.112C41.6213 39.112 42.1013 39.064 42.5333 38.984V38.008C42.2453 38.056 41.7812 38.104 41.4133 38.104C40.7413 38.088 40.3093 37.72 40.3093 36.888V32.104H42.0853V31.112H40.3093V29.048H39.1733L39.1093 31.112H37.8133V32.104H39.0933V36.824C39.0933 38.456 39.8613 39.112 41.1893 39.112ZM49.7986 39.112C50.2306 39.112 50.7106 39.064 51.1426 38.984V38.008C50.8546 38.056 50.3906 38.104 50.0226 38.104C49.3506 38.088 48.9186 37.72 48.9186 36.888V32.104H50.6946V31.112H48.9186V29.048H47.7826L47.7186 31.112H46.4226V32.104H47.7026V36.824C47.7026 38.456 48.4706 39.112 49.7986 39.112ZM55.5365 39.128C57.1045 39.128 58.3205 38.312 58.8645 36.792L57.7765 36.632C57.3285 37.8 56.5125 38.184 55.6485 38.184C54.1125 38.184 53.2165 37.176 53.1845 35.192H59.0085C58.9925 35.016 59.0085 34.84 58.9925 34.664C58.8325 32.472 57.6325 30.968 55.5685 30.968C53.5365 30.968 51.9205 32.52 51.9205 35.192C51.9205 37.544 53.3765 39.128 55.5365 39.128ZM53.2325 34.344C53.3285 32.856 54.3045 31.912 55.5685 31.912C56.8325 31.912 57.6165 32.824 57.7445 34.344H53.2325ZM60.799 39L62.799 36.056L62.959 35.768L63.135 36.056L65.199 39H66.575L63.647 34.744L66.095 31.112H64.895L63.247 33.528L63.039 33.848L62.831 33.528L61.183 31.112H59.775L62.351 34.872L59.583 39H60.799ZM69.9705 39.112C70.4025 39.112 70.8825 39.064 71.3145 38.984V38.008C71.0265 38.056 70.5625 38.104 70.1945 38.104C69.5225 38.088 69.0905 37.72 69.0905 36.888V32.104H70.8665V31.112H69.0905V29.048H67.9545L67.8905 31.112H66.5945V32.104H67.8745V36.824C67.8745 38.456 68.6425 39.112 69.9705 39.112Z" fill="#111111"/>
<path d="M476 22.586L480.293 18.293L481.707 19.707L477.414 24L481.707 28.293L480.293 29.707L476 25.414L471.707 29.707L470.293 28.293L474.586 24L470.293 19.707L471.707 18.293L476 22.586Z" fill="#AAAAAA"/>
<rect x="0.5" y="0.5" width="499" height="47" rx="1.5" stroke="#3D73D5"/>
<rect x="0.5" y="100.5" width="499" height="47" rx="1.5" fill="white"/>
<path d="M14.168 118.5V117.672H9.992V114.744H13.028V113.928H9.992V111.36H14.06V110.496H8.996V118.5H14.168ZM16.1638 118.5V114.444C16.7038 113.688 17.1958 113.244 17.8798 113.244C18.4558 113.244 18.7558 113.64 18.7558 114.348V118.5H19.6678V114.456C20.0398 113.868 20.6518 113.268 21.3838 113.268C21.9598 113.268 22.2838 113.592 22.2838 114.36V118.5H23.2078V114.3C23.2078 113.82 23.0878 113.436 22.9078 113.16C22.6678 112.716 22.2598 112.488 21.6478 112.488C20.7118 112.488 20.0158 113.16 19.6078 113.808C19.5358 112.968 18.9838 112.476 18.1198 112.476C17.2678 112.476 16.4878 113.184 16.1398 113.772V112.584H15.2398V118.5H16.1638ZM26.3824 118.572C27.4864 118.572 28.1824 118.152 28.6504 117.504C28.6384 117.804 28.6864 118.296 28.7584 118.5H29.6464C29.5504 118.128 29.5144 117.72 29.5144 117.348V114.66C29.5144 113.172 28.8664 112.476 27.1864 112.476C25.7824 112.476 24.8584 113.052 24.6424 114.132L25.5064 114.228C25.6984 113.472 26.2024 113.208 27.1624 113.208C28.1584 113.208 28.5424 113.556 28.6144 114.204C28.6384 114.348 28.6384 114.552 28.6384 114.756C28.1704 114.768 27.7744 114.768 27.2944 114.828C25.6744 115.02 24.4984 115.656 24.4984 116.94C24.4984 118.02 25.3384 118.572 26.3824 118.572ZM26.6584 117.888C25.8664 117.888 25.4704 117.528 25.4704 116.844C25.4704 116.1 26.1304 115.584 27.4144 115.416C27.7864 115.368 28.2184 115.368 28.6384 115.368V116.592C28.3864 117.204 27.7864 117.888 26.6584 117.888ZM32.2905 111.54V110.484H31.2705V111.54H32.2905ZM32.2545 118.5V112.584H31.3185V118.5H32.2545ZM35.0319 118.5V110.496H34.0959V118.5H35.0319Z" fill="#EA0017"/>
<path d="M9.856 137.708C10.752 137.708 11.36 137.468 11.808 137.036C12.336 136.508 12.608 135.708 12.608 134.46V126.828H11.28V134.572C11.28 136.076 10.784 136.588 9.6 136.588C8.688 136.588 8.352 136.508 8.016 136.428V137.532C8.352 137.612 9.008 137.708 9.856 137.708ZM18.0655 137.628C20.0175 137.628 21.6335 136.012 21.6335 133.532C21.6335 131.1 20.2255 129.468 18.0655 129.468C16.1295 129.468 14.5295 131.052 14.5295 133.516C14.5295 136.012 16.0335 137.628 18.0655 137.628ZM18.0495 136.7C16.7215 136.7 15.8415 135.516 15.8415 133.532C15.8415 131.5 16.8015 130.444 18.0495 130.444C19.3615 130.444 20.3215 131.468 20.3215 133.516C20.3215 135.644 19.3455 136.7 18.0495 136.7Z" fill="#111111"/>
<path d="M476 122.586L480.293 118.293L481.707 119.707L477.414 124L481.707 128.293L480.293 129.707L476 125.414L471.707 129.707L470.293 128.293L474.586 124L470.293 119.707L471.707 118.293L476 122.586Z" fill="#AAAAAA"/>
<rect x="0.5" y="100.5" width="499" height="47" rx="1.5" stroke="#EA0017"/>
<path d="M1.884 164V158.12C1.884 157.892 1.884 157.664 1.872 157.232C1.872 157.232 2.124 157.7 2.208 157.832L5.928 164H6.9V155.996H6.012V161.312C6.012 161.636 6.012 162.092 6.024 162.32C6.024 162.32 5.832 161.888 5.748 161.768L2.256 155.996H0.996V164H1.884ZM10.9827 164.096C12.4467 164.096 13.6587 162.884 13.6587 161.024C13.6587 159.2 12.6027 157.976 10.9827 157.976C9.53072 157.976 8.33072 159.164 8.33072 161.012C8.33072 162.884 9.45872 164.096 10.9827 164.096ZM10.9707 163.4C9.97472 163.4 9.31472 162.512 9.31472 161.024C9.31472 159.5 10.0347 158.708 10.9707 158.708C11.9547 158.708 12.6747 159.476 12.6747 161.012C12.6747 162.608 11.9427 163.4 10.9707 163.4ZM16.6537 164.084C16.9777 164.084 17.3377 164.048 17.6617 163.988V163.256C17.4457 163.292 17.0977 163.328 16.8217 163.328C16.3177 163.316 15.9937 163.04 15.9937 162.416V158.828H17.3257V158.084H15.9937V156.536H15.1417L15.0937 158.084H14.1217V158.828H15.0817V162.368C15.0817 163.592 15.6577 164.084 16.6537 164.084ZM22.8707 164.072C23.9747 164.072 24.6707 163.652 25.1387 163.004C25.1267 163.304 25.1747 163.796 25.2467 164H26.1347C26.0387 163.628 26.0027 163.22 26.0027 162.848V160.16C26.0027 158.672 25.3547 157.976 23.6747 157.976C22.2707 157.976 21.3467 158.552 21.1307 159.632L21.9947 159.728C22.1867 158.972 22.6907 158.708 23.6507 158.708C24.6467 158.708 25.0307 159.056 25.1027 159.704C25.1267 159.848 25.1267 160.052 25.1267 160.256C24.6587 160.268 24.2627 160.268 23.7827 160.328C22.1627 160.52 20.9867 161.156 20.9867 162.44C20.9867 163.52 21.8267 164.072 22.8707 164.072ZM23.1467 163.388C22.3547 163.388 21.9587 163.028 21.9587 162.344C21.9587 161.6 22.6187 161.084 23.9027 160.916C24.2747 160.868 24.7067 160.868 25.1267 160.868V162.092C24.8747 162.704 24.2747 163.388 23.1467 163.388ZM32.7444 164L34.9044 158.084H34.0884L32.7084 161.912C32.5644 162.26 32.3964 162.836 32.3364 162.992C32.3004 162.824 32.1204 162.272 31.9884 161.9L30.6564 158.084H29.6724L31.7964 164H32.7444ZM37.109 164.072C38.213 164.072 38.909 163.652 39.377 163.004C39.365 163.304 39.413 163.796 39.485 164H40.373C40.277 163.628 40.241 163.22 40.241 162.848V160.16C40.241 158.672 39.593 157.976 37.913 157.976C36.509 157.976 35.585 158.552 35.369 159.632L36.233 159.728C36.425 158.972 36.929 158.708 37.889 158.708C38.885 158.708 39.269 159.056 39.341 159.704C39.365 159.848 39.365 160.052 39.365 160.256C38.897 160.268 38.501 160.268 38.021 160.328C36.401 160.52 35.225 161.156 35.225 162.44C35.225 163.52 36.065 164.072 37.109 164.072ZM37.385 163.388C36.593 163.388 36.197 163.028 36.197 162.344C36.197 161.6 36.857 161.084 38.141 160.916C38.513 160.868 38.945 160.868 39.365 160.868V162.092C39.113 162.704 38.513 163.388 37.385 163.388ZM42.9811 164V155.996H42.0451V164H42.9811ZM45.7944 157.04V155.984H44.7744V157.04H45.7944ZM45.7584 164V158.084H44.8224V164H45.7584ZM49.3878 164.096C50.2518 164.096 50.8518 163.748 51.3198 163.1V164H52.1958V155.996H51.2958V158.888C51.0198 158.492 50.4558 157.976 49.5558 157.976C48.0438 157.976 47.1318 159.308 47.1318 161.06C47.1318 162.992 47.9598 164.096 49.3878 164.096ZM49.6398 163.388C48.6558 163.388 48.1038 162.704 48.1038 161.06C48.1038 159.548 48.6318 158.708 49.6998 158.708C50.5758 158.708 50.9838 159.212 51.2838 159.776V162.188C51.0318 162.848 50.5278 163.388 49.6398 163.388ZM59.0547 164.096C60.2307 164.096 61.1427 163.484 61.5507 162.344L60.7347 162.224C60.3987 163.1 59.7867 163.388 59.1387 163.388C57.9867 163.388 57.3147 162.632 57.2907 161.144H61.6587C61.6467 161.012 61.6587 160.88 61.6467 160.748C61.5267 159.104 60.6267 157.976 59.0787 157.976C57.5547 157.976 56.3427 159.14 56.3427 161.144C56.3427 162.908 57.4347 164.096 59.0547 164.096ZM57.3267 160.508C57.3987 159.392 58.1307 158.684 59.0787 158.684C60.0267 158.684 60.6147 159.368 60.7107 160.508H57.3267ZM63.8748 164V159.944C64.4148 159.188 64.9068 158.744 65.5908 158.744C66.1668 158.744 66.4668 159.14 66.4668 159.848V164H67.3788V159.956C67.7508 159.368 68.3628 158.768 69.0948 158.768C69.6708 158.768 69.9948 159.092 69.9948 159.86V164H70.9188V159.8C70.9188 159.32 70.7988 158.936 70.6188 158.66C70.3788 158.216 69.9708 157.988 69.3588 157.988C68.4228 157.988 67.7268 158.66 67.3188 159.308C67.2468 158.468 66.6948 157.976 65.8308 157.976C64.9788 157.976 64.1988 158.684 63.8508 159.272V158.084H62.9508V164H63.8748ZM74.0933 164.072C75.1973 164.072 75.8933 163.652 76.3613 163.004C76.3493 163.304 76.3973 163.796 76.4693 164H77.3573C77.2613 163.628 77.2253 163.22 77.2253 162.848V160.16C77.2253 158.672 76.5773 157.976 74.8973 157.976C73.4933 157.976 72.5693 158.552 72.3533 159.632L73.2173 159.728C73.4093 158.972 73.9133 158.708 74.8733 158.708C75.8693 158.708 76.2533 159.056 76.3253 159.704C76.3493 159.848 76.3493 160.052 76.3493 160.256C75.8813 160.268 75.4853 160.268 75.0053 160.328C73.3853 160.52 72.2093 161.156 72.2093 162.44C72.2093 163.52 73.0493 164.072 74.0933 164.072ZM74.3693 163.388C73.5773 163.388 73.1813 163.028 73.1813 162.344C73.1813 161.6 73.8413 161.084 75.1253 160.916C75.4973 160.868 75.9293 160.868 76.3493 160.868V162.092C76.0973 162.704 75.4973 163.388 74.3693 163.388ZM80.0015 157.04V155.984H78.9815V157.04H80.0015ZM79.9655 164V158.084H79.0295V164H79.9655ZM82.7428 164V155.996H81.8068V164H82.7428Z" fill="#EA0017"/>
</svg>
