<svg width="600" height="300" viewBox="0 0 600 300" fill="none" xmlns="http://www.w3.org/2000/svg">
<rect width="150" height="150" fill="#111111"/>
<path d="M12.8866 27V21.9919H15.7037C17.9295 21.9919 19.3207 20.7051 19.3207 18.7053C19.3207 16.6534 18.0686 15.4013 15.5472 15.4013H11.4433V27H12.8866ZM12.8866 16.636H15.6689C16.9905 16.636 17.86 17.4533 17.86 18.7575C17.86 20.0443 16.9905 20.8094 15.5646 20.8094H12.8866V16.636ZM21.8477 27V21.4006C22.5607 20.2008 23.5692 19.5052 24.5778 19.5052C24.6821 19.5052 24.856 19.5052 24.9604 19.5226V18.288C24.8213 18.2706 24.7169 18.2706 24.5604 18.2706C23.3432 18.2706 22.3346 19.2618 21.7781 20.2703V18.4271H20.4913V27H21.8477ZM27.7594 16.9142V15.3839H26.2813V16.9142H27.7594ZM27.7072 27V18.4271H26.3508V27H27.7072ZM31.6797 27V21.1224C32.4622 20.0269 33.1752 19.3835 34.1664 19.3835C35.0011 19.3835 35.4358 19.9573 35.4358 20.9833V27H36.7574V21.1398C37.2965 20.2877 38.1833 19.4183 39.2441 19.4183C40.0788 19.4183 40.5483 19.8878 40.5483 21.0007V27H41.8872V20.9137C41.8872 20.2182 41.7133 19.6617 41.4525 19.2618C41.1047 18.6184 40.5135 18.288 39.6266 18.288C38.2703 18.288 37.2617 19.2618 36.6704 20.2008C36.5661 18.9835 35.7662 18.2706 34.5142 18.2706C33.2795 18.2706 32.1492 19.2965 31.6449 20.1486V18.4271H30.3407V27H31.6797ZM46.4875 27.1043C48.0873 27.1043 49.0959 26.4957 49.7741 25.5567C49.7567 25.9914 49.8263 26.7044 49.9306 27H51.2174C51.0783 26.4609 51.0261 25.8697 51.0261 25.3306V21.4354C51.0261 19.2791 50.0871 18.2706 47.6526 18.2706C45.6181 18.2706 44.2791 19.1053 43.9661 20.6703L45.2181 20.8094C45.4963 19.7139 46.2267 19.3313 47.6178 19.3313C49.0611 19.3313 49.6176 19.8356 49.7219 20.7746C49.7567 20.9833 49.7567 21.2789 49.7567 21.5745C49.0785 21.5919 48.5047 21.5919 47.8091 21.6789C45.4616 21.9571 43.7574 22.8787 43.7574 24.7394C43.7574 26.3044 44.9747 27.1043 46.4875 27.1043ZM46.8875 26.1131C45.7398 26.1131 45.1659 25.5915 45.1659 24.6003C45.1659 23.5221 46.1224 22.7744 47.983 22.5309C48.5221 22.4614 49.1481 22.4614 49.7567 22.4614V24.2351C49.3915 25.122 48.5221 26.1131 46.8875 26.1131ZM54.9621 27V21.4006C55.6751 20.2008 56.6836 19.5052 57.6922 19.5052C57.7966 19.5052 57.9705 19.5052 58.0748 19.5226V18.288C57.9357 18.2706 57.8313 18.2706 57.6748 18.2706C56.4576 18.2706 55.449 19.2618 54.8925 20.2703V18.4271H53.6057V27H54.9621ZM58.8877 30.0084C60.9918 30.0084 61.983 29.1215 62.5047 27.6086L65.7739 18.4271H64.574L62.5917 24.0264L62.2439 25.122L61.8961 24.0264L59.7746 18.4271H58.3139L61.131 25.748C61.8613 27.6608 60.7658 28.9128 58.853 28.9128L58.8877 30.0084Z" fill="white"/>
<rect width="150" height="150" transform="translate(300)" fill="#166DFC"/>
<path d="M315.373 27.1913C317.634 27.1913 319.129 25.9914 319.686 23.383L318.364 23.1222C318.016 24.9481 317.077 26.0088 315.425 26.0088C313.617 26.0088 312.278 24.4264 312.278 21.2789C312.278 18.1315 313.547 16.4621 315.46 16.4621C316.938 16.4621 317.877 17.2272 318.329 19.1922L319.721 18.8966C319.164 16.3404 317.651 15.1753 315.443 15.1753C312.817 15.1753 310.73 17.3315 310.73 21.2789C310.73 25.0524 312.591 27.1913 315.373 27.1913ZM324.097 27.1217C324.566 27.1217 325.088 27.0696 325.557 26.9826V25.9219C325.244 25.974 324.74 26.0262 324.34 26.0262C323.61 26.0088 323.14 25.6089 323.14 24.7046V19.5052H325.071V18.4271H323.14V16.1838H321.906L321.836 18.4271H320.428V19.5052H321.819V24.6351C321.819 26.4088 322.653 27.1217 324.097 27.1217ZM329.098 27.1043C330.698 27.1043 331.707 26.4957 332.385 25.5567C332.367 25.9914 332.437 26.7044 332.541 27H333.828C333.689 26.4609 333.637 25.8697 333.637 25.3306V21.4354C333.637 19.2791 332.698 18.2706 330.263 18.2706C328.229 18.2706 326.89 19.1053 326.577 20.6703L327.829 20.8094C328.107 19.7139 328.837 19.3313 330.229 19.3313C331.672 19.3313 332.228 19.8356 332.333 20.7746C332.367 20.9833 332.367 21.2789 332.367 21.5745C331.689 21.5919 331.115 21.5919 330.42 21.6789C328.072 21.9571 326.368 22.8787 326.368 24.7394C326.368 26.3044 327.585 27.1043 329.098 27.1043ZM329.498 26.1131C328.35 26.1131 327.777 25.5915 327.777 24.6003C327.777 23.5221 328.733 22.7744 330.594 22.5309C331.133 22.4614 331.759 22.4614 332.367 22.4614V24.2351C332.002 25.122 331.133 26.1131 329.498 26.1131Z" fill="white"/>
<rect width="150" height="150" transform="translate(450)" fill="black" fill-opacity="0.05"/>
<path d="M461.443 27H465.53C468.556 27 470.521 24.4785 470.521 21.1746C470.521 19.2965 469.947 17.6272 468.799 16.6012C467.93 15.8013 466.73 15.4013 465.339 15.4013H461.443V27ZM462.887 16.636H465.252C467.53 16.636 469.06 18.3923 469.06 21.2094C469.06 24.1134 467.477 25.8175 465.252 25.8175H462.887V16.636ZM474.006 16.9142V15.3839H472.528V16.9142H474.006ZM473.954 27V18.4271H472.598V27H473.954ZM479.301 27.1391C481.387 27.1391 482.744 26.0784 482.744 24.4959C482.744 22.7918 481.248 22.3049 479.492 21.9571C478.118 21.6615 477.092 21.4876 477.092 20.5486C477.092 19.766 477.875 19.2965 479.022 19.2965C480.187 19.2965 480.97 19.8182 481.3 20.7225L482.5 20.4616C482.065 19.1226 480.952 18.2706 479.022 18.2706C477.109 18.2706 475.84 19.227 475.84 20.6355C475.84 22.3223 477.318 22.7744 479.074 23.1048C480.344 23.383 481.492 23.5917 481.492 24.6177C481.492 25.5219 480.657 26.1305 479.301 26.1305C477.822 26.1305 476.866 25.4524 476.588 24.4438L475.371 24.6872C475.788 26.2523 477.127 27.1391 479.301 27.1391ZM486.621 27.1043C488.221 27.1043 489.23 26.4957 489.908 25.5567C489.89 25.9914 489.96 26.7044 490.064 27H491.351C491.212 26.4609 491.16 25.8697 491.16 25.3306V21.4354C491.16 19.2791 490.221 18.2706 487.786 18.2706C485.752 18.2706 484.413 19.1053 484.1 20.6703L485.352 20.8094C485.63 19.7139 486.36 19.3313 487.751 19.3313C489.195 19.3313 489.751 19.8356 489.856 20.7746C489.89 20.9833 489.89 21.2789 489.89 21.5745C489.212 21.5919 488.638 21.5919 487.943 21.6789C485.595 21.9571 483.891 22.8787 483.891 24.7394C483.891 26.3044 485.108 27.1043 486.621 27.1043ZM487.021 26.1131C485.873 26.1131 485.3 25.5915 485.3 24.6003C485.3 23.5221 486.256 22.7744 488.117 22.5309C488.656 22.4614 489.282 22.4614 489.89 22.4614V24.2351C489.525 25.122 488.656 26.1131 487.021 26.1131ZM497.687 27.1217C499.634 27.1217 501.043 25.6436 501.043 22.6875C501.043 19.8182 499.843 18.2706 497.791 18.2706C496.556 18.2706 495.461 19.1226 495.026 20.0617V15.4013H493.739V27H494.487L494.922 25.5741C495.478 26.5479 496.4 27.1217 497.687 27.1217ZM497.426 26.1479C496.052 26.1479 495.044 25.122 495.044 23.3309V21.2615C495.513 20.2703 496.226 19.3487 497.478 19.3487C498.921 19.3487 499.652 20.479 499.652 22.7222C499.652 25.122 498.887 26.1479 497.426 26.1479ZM504.403 27V15.4013H503.046V27H504.403ZM510.323 27.1391C512.027 27.1391 513.348 26.2523 513.94 24.6003L512.757 24.4264C512.27 25.6958 511.383 26.1131 510.444 26.1131C508.775 26.1131 507.801 25.0176 507.766 22.8613H514.096C514.079 22.6701 514.096 22.4788 514.079 22.2875C513.905 19.9052 512.601 18.2706 510.357 18.2706C508.149 18.2706 506.393 19.9573 506.393 22.8613C506.393 25.4176 507.975 27.1391 510.323 27.1391ZM507.819 21.9397C507.923 20.3225 508.984 19.2965 510.357 19.2965C511.731 19.2965 512.583 20.2877 512.722 21.9397H507.819ZM518.594 27.1391C519.846 27.1391 520.716 26.6348 521.394 25.6958V27H522.663V15.4013H521.359V19.5922C520.959 19.0183 520.142 18.2706 518.838 18.2706C516.647 18.2706 515.325 20.2008 515.325 22.7396C515.325 25.5393 516.525 27.1391 518.594 27.1391ZM518.959 26.1131C517.533 26.1131 516.734 25.122 516.734 22.7396C516.734 20.5486 517.499 19.3313 519.046 19.3313C520.316 19.3313 520.907 20.0617 521.342 20.879V24.3742C520.977 25.3306 520.246 26.1131 518.959 26.1131Z" fill="black"/>
<rect width="150" height="75" transform="translate(450 150)" fill="#666666" fill-opacity="0.25"/>
<path d="M464.486 177.139C466.608 177.139 468.364 175.383 468.364 172.687C468.364 170.044 466.834 168.271 464.486 168.271C462.382 168.271 460.643 169.992 460.643 172.67C460.643 175.383 462.278 177.139 464.486 177.139ZM464.469 176.131C463.026 176.131 462.069 174.844 462.069 172.687C462.069 170.479 463.113 169.331 464.469 169.331C465.895 169.331 466.938 170.444 466.938 172.67C466.938 174.983 465.878 176.131 464.469 176.131ZM471.661 177V171.122C472.374 170.096 473.278 169.401 474.374 169.401C475.347 169.401 475.8 169.888 475.8 170.914V177H477.156V170.931C477.156 169.175 476.373 168.271 474.774 168.271C473.243 168.271 472.183 169.279 471.591 170.131V168.427H470.305V177H471.661ZM479.869 177H483.955C486.981 177 488.946 174.479 488.946 171.175C488.946 169.297 488.372 167.627 487.224 166.601C486.355 165.801 485.155 165.401 483.764 165.401H479.869V177ZM481.312 166.636H483.677C485.955 166.636 487.485 168.392 487.485 171.209C487.485 174.113 485.903 175.818 483.677 175.818H481.312V166.636ZM492.432 166.914V165.384H490.954V166.914H492.432ZM492.379 177V168.427H491.023V177H492.379ZM497.726 177.139C499.812 177.139 501.169 176.078 501.169 174.496C501.169 172.792 499.673 172.305 497.917 171.957C496.543 171.661 495.517 171.488 495.517 170.549C495.517 169.766 496.3 169.297 497.447 169.297C498.613 169.297 499.395 169.818 499.725 170.722L500.925 170.462C500.491 169.123 499.378 168.271 497.447 168.271C495.535 168.271 494.265 169.227 494.265 170.636C494.265 172.322 495.743 172.774 497.5 173.105C498.769 173.383 499.917 173.592 499.917 174.618C499.917 175.522 499.082 176.131 497.726 176.131C496.248 176.131 495.291 175.452 495.013 174.444L493.796 174.687C494.213 176.252 495.552 177.139 497.726 177.139ZM505.046 177.104C506.646 177.104 507.655 176.496 508.333 175.557C508.316 175.991 508.385 176.704 508.489 177H509.776C509.637 176.461 509.585 175.87 509.585 175.331V171.435C509.585 169.279 508.646 168.271 506.211 168.271C504.177 168.271 502.838 169.105 502.525 170.67L503.777 170.809C504.055 169.714 504.785 169.331 506.177 169.331C507.62 169.331 508.176 169.836 508.281 170.775C508.316 170.983 508.316 171.279 508.316 171.575C507.637 171.592 507.063 171.592 506.368 171.679C504.02 171.957 502.316 172.879 502.316 174.739C502.316 176.304 503.533 177.104 505.046 177.104ZM505.446 176.113C504.299 176.113 503.725 175.591 503.725 174.6C503.725 173.522 504.681 172.774 506.542 172.531C507.081 172.461 507.707 172.461 508.316 172.461V174.235C507.95 175.122 507.081 176.113 505.446 176.113ZM516.112 177.122C518.06 177.122 519.468 175.644 519.468 172.687C519.468 169.818 518.268 168.271 516.216 168.271C514.982 168.271 513.886 169.123 513.451 170.062V165.401H512.165V177H512.912L513.347 175.574C513.903 176.548 514.825 177.122 516.112 177.122ZM515.851 176.148C514.477 176.148 513.469 175.122 513.469 173.331V171.262C513.938 170.27 514.651 169.349 515.903 169.349C517.347 169.349 518.077 170.479 518.077 172.722C518.077 175.122 517.312 176.148 515.851 176.148ZM522.828 177V165.401H521.471V177H522.828ZM528.748 177.139C530.452 177.139 531.774 176.252 532.365 174.6L531.182 174.426C530.695 175.696 529.809 176.113 528.87 176.113C527.2 176.113 526.226 175.018 526.192 172.861H532.521C532.504 172.67 532.521 172.479 532.504 172.287C532.33 169.905 531.026 168.271 528.783 168.271C526.574 168.271 524.818 169.957 524.818 172.861C524.818 175.418 526.4 177.139 528.748 177.139ZM526.244 171.94C526.348 170.323 527.409 169.297 528.783 169.297C530.156 169.297 531.008 170.288 531.148 171.94H526.244ZM537.019 177.139C538.271 177.139 539.141 176.635 539.819 175.696V177H541.089V165.401H539.784V169.592C539.384 169.018 538.567 168.271 537.263 168.271C535.072 168.271 533.75 170.201 533.75 172.74C533.75 175.539 534.95 177.139 537.019 177.139ZM537.385 176.113C535.959 176.113 535.159 175.122 535.159 172.74C535.159 170.549 535.924 169.331 537.472 169.331C538.741 169.331 539.332 170.062 539.767 170.879V174.374C539.402 175.331 538.671 176.113 537.385 176.113Z" fill="black"/>
<rect width="150" height="75" transform="translate(0 150)" fill="white"/>
<path d="M14.4864 177.139C16.6079 177.139 18.3643 175.383 18.3643 172.687C18.3643 170.044 16.834 168.271 14.4864 168.271C12.3823 168.271 10.6434 169.992 10.6434 172.67C10.6434 175.383 12.278 177.139 14.4864 177.139ZM14.4691 176.131C13.0257 176.131 12.0693 174.844 12.0693 172.687C12.0693 170.479 13.1127 169.331 14.4691 169.331C15.895 169.331 16.9383 170.444 16.9383 172.67C16.9383 174.983 15.8776 176.131 14.4691 176.131ZM21.6609 177V171.122C22.3739 170.096 23.2781 169.401 24.3736 169.401C25.3474 169.401 25.7995 169.888 25.7995 170.914V177H27.1559V170.931C27.1559 169.175 26.3734 168.271 24.7736 168.271C23.2433 168.271 22.1826 169.279 21.5913 170.131V168.427H20.3045V177H21.6609ZM31.3118 177V171.992H34.1289C36.3547 171.992 37.7459 170.705 37.7459 168.705C37.7459 166.653 36.4938 165.401 33.9724 165.401H29.8685V177H31.3118ZM31.3118 166.636H34.0941C35.4157 166.636 36.2852 167.453 36.2852 168.757C36.2852 170.044 35.4157 170.809 33.9898 170.809H31.3118V166.636ZM40.2729 177V171.401C40.9859 170.201 41.9944 169.505 43.003 169.505C43.1073 169.505 43.2812 169.505 43.3856 169.523V168.288C43.2465 168.271 43.1421 168.271 42.9856 168.271C41.7684 168.271 40.7598 169.262 40.2033 170.27V168.427H38.9165V177H40.2729ZM46.1846 166.914V165.384H44.7065V166.914H46.1846ZM46.1324 177V168.427H44.776V177H46.1324ZM50.1049 177V171.122C50.8874 170.027 51.6004 169.383 52.5916 169.383C53.4263 169.383 53.861 169.957 53.861 170.983V177H55.1826V171.14C55.7217 170.288 56.6085 169.418 57.6693 169.418C58.504 169.418 58.9735 169.888 58.9735 171.001V177H60.3124V170.914C60.3124 170.218 60.1385 169.662 59.8777 169.262C59.5299 168.618 58.9387 168.288 58.0518 168.288C56.6955 168.288 55.6869 169.262 55.0956 170.201C54.9913 168.984 54.1914 168.271 52.9394 168.271C51.7047 168.271 50.5744 169.297 50.0701 170.149V168.427H48.7659V177H50.1049ZM64.9127 177.104C66.5125 177.104 67.5211 176.496 68.1993 175.557C68.1819 175.991 68.2515 176.704 68.3558 177H69.6426C69.5035 176.461 69.4513 175.87 69.4513 175.331V171.435C69.4513 169.279 68.5123 168.271 66.0778 168.271C64.0433 168.271 62.7043 169.105 62.3913 170.67L63.6433 170.809C63.9215 169.714 64.6519 169.331 66.043 169.331C67.4863 169.331 68.0428 169.836 68.1471 170.775C68.1819 170.983 68.1819 171.279 68.1819 171.575C67.5037 171.592 66.9299 171.592 66.2343 171.679C63.8868 171.957 62.1826 172.879 62.1826 174.739C62.1826 176.304 63.3999 177.104 64.9127 177.104ZM65.3127 176.113C64.165 176.113 63.5911 175.591 63.5911 174.6C63.5911 173.522 64.5476 172.774 66.4082 172.531C66.9473 172.461 67.5733 172.461 68.1819 172.461V174.235C67.8167 175.122 66.9473 176.113 65.3127 176.113ZM73.3873 177V171.401C74.1003 170.201 75.1088 169.505 76.1174 169.505C76.2218 169.505 76.3956 169.505 76.5 169.523V168.288C76.3609 168.271 76.2565 168.271 76.1 168.271C74.8828 168.271 73.8742 169.262 73.3177 170.27V168.427H72.0309V177H73.3873ZM77.3129 180.008C79.417 180.008 80.4082 179.121 80.9299 177.609L84.1991 168.427H82.9992L81.0169 174.026L80.6691 175.122L80.3213 174.026L78.1998 168.427H76.7391L79.5562 175.748C80.2865 177.661 79.191 178.913 77.2782 178.913L77.3129 180.008Z" fill="black"/>
<rect width="150" height="75" transform="translate(300 150)" fill="white"/>
<path d="M314.486 177.139C316.608 177.139 318.364 175.383 318.364 172.687C318.364 170.044 316.834 168.271 314.486 168.271C312.382 168.271 310.643 169.992 310.643 172.67C310.643 175.383 312.278 177.139 314.486 177.139ZM314.469 176.131C313.026 176.131 312.069 174.844 312.069 172.687C312.069 170.479 313.113 169.331 314.469 169.331C315.895 169.331 316.938 170.444 316.938 172.67C316.938 174.983 315.878 176.131 314.469 176.131ZM321.661 177V171.122C322.374 170.096 323.278 169.401 324.374 169.401C325.347 169.401 325.8 169.888 325.8 170.914V177H327.156V170.931C327.156 169.175 326.373 168.271 324.774 168.271C323.243 168.271 322.183 169.279 321.591 170.131V168.427H320.305V177H321.661ZM333.798 177.191C336.059 177.191 337.555 175.991 338.111 173.383L336.789 173.122C336.442 174.948 335.503 176.009 333.851 176.009C332.042 176.009 330.703 174.426 330.703 171.279C330.703 168.131 331.973 166.462 333.885 166.462C335.364 166.462 336.303 167.227 336.755 169.192L338.146 168.897C337.589 166.34 336.076 165.175 333.868 165.175C331.242 165.175 329.156 167.332 329.156 171.279C329.156 175.052 331.016 177.191 333.798 177.191ZM342.522 177.122C342.991 177.122 343.513 177.07 343.983 176.983V175.922C343.67 175.974 343.165 176.026 342.765 176.026C342.035 176.009 341.566 175.609 341.566 174.705V169.505H343.496V168.427H341.566V166.184H340.331L340.261 168.427H338.853V169.505H340.244V174.635C340.244 176.409 341.079 177.122 342.522 177.122ZM347.523 177.104C349.123 177.104 350.132 176.496 350.81 175.557C350.793 175.991 350.862 176.704 350.966 177H352.253C352.114 176.461 352.062 175.87 352.062 175.331V171.435C352.062 169.279 351.123 168.271 348.688 168.271C346.654 168.271 345.315 169.105 345.002 170.67L346.254 170.809C346.532 169.714 347.263 169.331 348.654 169.331C350.097 169.331 350.653 169.836 350.758 170.775C350.793 170.983 350.793 171.279 350.793 171.575C350.114 171.592 349.541 171.592 348.845 171.679C346.497 171.957 344.793 172.879 344.793 174.739C344.793 176.304 346.011 177.104 347.523 177.104ZM347.923 176.113C346.776 176.113 346.202 175.591 346.202 174.6C346.202 173.522 347.158 172.774 349.019 172.531C349.558 172.461 350.184 172.461 350.793 172.461V174.235C350.427 175.122 349.558 176.113 347.923 176.113Z" fill="black"/>
<rect width="150" height="150" transform="translate(150)" fill="white"/>
<path d="M163.991 27.1913C166.634 27.1913 168.199 25.9045 168.199 23.8525C168.199 21.9049 166.877 21.0876 164.443 20.4442C162.061 19.8182 161.208 19.3835 161.208 18.0967C161.208 17.1055 162.165 16.3751 163.626 16.3751C165.086 16.3751 166.199 17.1403 166.547 18.4445L167.886 18.0271C167.329 16.2186 165.817 15.1753 163.643 15.1753C161.4 15.1753 159.765 16.3751 159.765 18.2532C159.765 20.3051 161.382 21.0702 163.521 21.6093C165.434 22.1136 166.773 22.5309 166.773 23.9743C166.773 25.2958 165.712 26.0088 164.008 26.0088C161.974 26.0088 160.982 25.1741 160.443 23.7656L159.209 24.2525C159.974 26.1827 161.469 27.1913 163.991 27.1913ZM173.542 27.1391C175.246 27.1391 176.568 26.2523 177.159 24.6003L175.977 24.4264C175.49 25.6958 174.603 26.1131 173.664 26.1131C171.994 26.1131 171.021 25.0176 170.986 22.8613H177.316C177.298 22.6701 177.316 22.4788 177.298 22.2875C177.124 19.9052 175.82 18.2706 173.577 18.2706C171.368 18.2706 169.612 19.9573 169.612 22.8613C169.612 25.4176 171.195 27.1391 173.542 27.1391ZM171.038 21.9397C171.142 20.3225 172.203 19.2965 173.577 19.2965C174.951 19.2965 175.803 20.2877 175.942 21.9397H171.038ZM182.214 27.1391C183.918 27.1391 185.187 26.1479 185.483 24.2177L184.3 24.096C184.04 25.5219 183.379 26.1305 182.248 26.1305C180.962 26.1305 179.953 25.0698 179.953 22.7048C179.953 20.566 180.788 19.3487 182.161 19.3487C183.344 19.3487 184.022 20.1138 184.231 21.5224L185.5 21.3659C185.118 19.2618 183.97 18.2706 182.144 18.2706C179.97 18.2706 178.527 20.1834 178.527 22.6701C178.527 25.5393 180.11 27.1391 182.214 27.1391ZM190.47 27.1391C192.592 27.1391 194.348 25.3828 194.348 22.6875C194.348 20.0443 192.818 18.2706 190.47 18.2706C188.366 18.2706 186.627 19.9921 186.627 22.6701C186.627 25.3828 188.262 27.1391 190.47 27.1391ZM190.453 26.1305C189.01 26.1305 188.053 24.8437 188.053 22.6875C188.053 20.479 189.097 19.3313 190.453 19.3313C191.879 19.3313 192.922 20.4442 192.922 22.6701C192.922 24.9828 191.862 26.1305 190.453 26.1305ZM197.645 27V21.1224C198.358 20.0964 199.262 19.4009 200.358 19.4009C201.331 19.4009 201.784 19.8878 201.784 20.9137V27H203.14V20.9311C203.14 19.1748 202.357 18.2706 200.758 18.2706C199.227 18.2706 198.167 19.2791 197.575 20.1312V18.4271H196.289V27H197.645ZM208.339 27.1391C209.591 27.1391 210.461 26.6348 211.139 25.6958V27H212.408V15.4013H211.104V19.5922C210.704 19.0183 209.887 18.2706 208.583 18.2706C206.392 18.2706 205.07 20.2008 205.07 22.7396C205.07 25.5393 206.27 27.1391 208.339 27.1391ZM208.704 26.1131C207.278 26.1131 206.479 25.122 206.479 22.7396C206.479 20.5486 207.244 19.3313 208.791 19.3313C210.061 19.3313 210.652 20.0617 211.087 20.879V24.3742C210.722 25.3306 209.991 26.1131 208.704 26.1131ZM217.105 27.1043C218.705 27.1043 219.714 26.4957 220.392 25.5567C220.374 25.9914 220.444 26.7044 220.548 27H221.835C221.696 26.4609 221.644 25.8697 221.644 25.3306V21.4354C221.644 19.2791 220.705 18.2706 218.27 18.2706C216.236 18.2706 214.897 19.1053 214.584 20.6703L215.836 20.8094C216.114 19.7139 216.844 19.3313 218.236 19.3313C219.679 19.3313 220.235 19.8356 220.34 20.7746C220.374 20.9833 220.374 21.2789 220.374 21.5745C219.696 21.5919 219.122 21.5919 218.427 21.6789C216.079 21.9571 214.375 22.8787 214.375 24.7394C214.375 26.3044 215.592 27.1043 217.105 27.1043ZM217.505 26.1131C216.358 26.1131 215.784 25.5915 215.784 24.6003C215.784 23.5221 216.74 22.7744 218.601 22.5309C219.14 22.4614 219.766 22.4614 220.374 22.4614V24.2351C220.009 25.122 219.14 26.1131 217.505 26.1131ZM225.58 27V21.4006C226.293 20.2008 227.301 19.5052 228.31 19.5052C228.414 19.5052 228.588 19.5052 228.693 19.5226V18.288C228.553 18.2706 228.449 18.2706 228.293 18.2706C227.075 18.2706 226.067 19.2618 225.51 20.2703V18.4271H224.224V27H225.58ZM229.506 30.0084C231.61 30.0084 232.601 29.1215 233.122 27.6086L236.392 18.4271H235.192L233.209 24.0264L232.862 25.122L232.514 24.0264L230.392 18.4271H228.932L231.749 25.748C232.479 27.6608 231.384 28.9128 229.471 28.9128L229.506 30.0084Z" fill="black"/>
<rect width="300" height="75" transform="translate(0 225)" fill="#666666"/>
<path d="M11.3564 252L12.4519 248.592H16.6079L17.7035 252H19.2511L15.4776 240.401H13.8083L10.0522 252H11.3564ZM14.5038 242.019L16.2602 247.444H12.7997L14.5038 242.019ZM23.619 252.139C25.3231 252.139 26.5925 251.148 26.8881 249.218L25.7057 249.096C25.4448 250.522 24.784 251.131 23.6537 251.131C22.3669 251.131 21.3583 250.07 21.3583 247.705C21.3583 245.566 22.193 244.349 23.5668 244.349C24.7493 244.349 25.4274 245.114 25.6361 246.522L26.9055 246.366C26.523 244.262 25.3753 243.271 23.5494 243.271C21.3757 243.271 19.9324 245.183 19.9324 247.67C19.9324 250.539 21.5148 252.139 23.619 252.139ZM31.7192 252.139C33.4234 252.139 34.6928 251.148 34.9884 249.218L33.806 249.096C33.5451 250.522 32.8843 251.131 31.754 251.131C30.4672 251.131 29.4586 250.07 29.4586 247.705C29.4586 245.566 30.2933 244.349 31.6671 244.349C32.8496 244.349 33.5277 245.114 33.7364 246.522L35.0058 246.366C34.6233 244.262 33.4756 243.271 31.6497 243.271C29.476 243.271 28.0327 245.183 28.0327 247.67C28.0327 250.539 29.6151 252.139 31.7192 252.139ZM40.0804 252.139C41.7845 252.139 43.1061 251.252 43.6974 249.6L42.5149 249.426C42.028 250.696 41.1411 251.113 40.2021 251.113C38.5327 251.113 37.5589 250.018 37.5242 247.861H43.8539C43.8365 247.67 43.8539 247.479 43.8365 247.287C43.6626 244.905 42.3584 243.271 40.1152 243.271C37.9067 243.271 36.1504 244.957 36.1504 247.861C36.1504 250.418 37.7328 252.139 40.0804 252.139ZM37.5763 246.94C37.6807 245.323 38.7414 244.297 40.1152 244.297C41.4889 244.297 42.341 245.288 42.4801 246.94H37.5763ZM48.4389 252.139C50.5257 252.139 51.882 251.078 51.882 249.496C51.882 247.792 50.3865 247.305 48.6302 246.957C47.2565 246.661 46.2305 246.488 46.2305 245.549C46.2305 244.766 47.013 244.297 48.1607 244.297C49.3258 244.297 50.1083 244.818 50.4387 245.722L51.6386 245.462C51.2038 244.123 50.0909 243.271 48.1607 243.271C46.2479 243.271 44.9785 244.227 44.9785 245.636C44.9785 247.322 46.4566 247.774 48.2129 248.105C49.4823 248.383 50.63 248.592 50.63 249.618C50.63 250.522 49.7953 251.131 48.4389 251.131C46.9608 251.131 46.0044 250.452 45.7262 249.444L44.509 249.687C44.9263 251.252 46.2653 252.139 48.4389 252.139ZM56.4204 252.139C58.5071 252.139 59.8634 251.078 59.8634 249.496C59.8634 247.792 58.368 247.305 56.6116 246.957C55.2379 246.661 54.2119 246.488 54.2119 245.549C54.2119 244.766 54.9944 244.297 56.1421 244.297C57.3072 244.297 58.0897 244.818 58.4201 245.722L59.62 245.462C59.1853 244.123 58.0723 243.271 56.1421 243.271C54.2293 243.271 52.9599 244.227 52.9599 245.636C52.9599 247.322 54.438 247.774 56.1943 248.105C57.4637 248.383 58.6114 248.592 58.6114 249.618C58.6114 250.522 57.7767 251.131 56.4204 251.131C54.9423 251.131 53.9859 250.452 53.7076 249.444L52.4904 249.687C52.9077 251.252 54.2467 252.139 56.4204 252.139ZM63.1324 241.914V240.384H61.6543V241.914H63.1324ZM63.0802 252V243.427H61.7238V252H63.0802ZM69.6611 252.122C71.6087 252.122 73.0172 250.644 73.0172 247.687C73.0172 244.818 71.8174 243.271 69.7654 243.271C68.5308 243.271 67.4353 244.123 67.0005 245.062V240.401H65.7137V252H66.4615L66.8962 250.574C67.4527 251.548 68.3743 252.122 69.6611 252.122ZM69.4003 251.148C68.0265 251.148 67.0179 250.122 67.0179 248.331V246.262C67.4874 245.27 68.2004 244.349 69.4524 244.349C70.8957 244.349 71.6261 245.479 71.6261 247.722C71.6261 250.122 70.861 251.148 69.4003 251.148ZM76.3769 252V240.401H75.0205V252H76.3769ZM82.297 252.139C84.0012 252.139 85.3227 251.252 85.914 249.6L84.7315 249.426C84.2446 250.696 83.3578 251.113 82.4187 251.113C80.7494 251.113 79.7756 250.018 79.7408 247.861H86.0705C86.0531 247.67 86.0705 247.479 86.0531 247.287C85.8792 244.905 84.575 243.271 82.3318 243.271C80.1233 243.271 78.367 244.957 78.367 247.861C78.367 250.418 79.9495 252.139 82.297 252.139ZM79.7929 246.94C79.8973 245.323 80.958 244.297 82.3318 244.297C83.7055 244.297 84.5576 245.288 84.6967 246.94H79.7929Z" fill="white"/>
<rect width="150" height="75" transform="translate(150 150)" fill="#111111"/>
<path d="M164.486 177.139C166.608 177.139 168.364 175.383 168.364 172.687C168.364 170.044 166.834 168.271 164.486 168.271C162.382 168.271 160.643 169.992 160.643 172.67C160.643 175.383 162.278 177.139 164.486 177.139ZM164.469 176.131C163.026 176.131 162.069 174.844 162.069 172.687C162.069 170.479 163.113 169.331 164.469 169.331C165.895 169.331 166.938 170.444 166.938 172.67C166.938 174.983 165.878 176.131 164.469 176.131ZM171.661 177V171.122C172.374 170.096 173.278 169.401 174.374 169.401C175.347 169.401 175.8 169.888 175.8 170.914V177H177.156V170.931C177.156 169.175 176.373 168.271 174.774 168.271C173.243 168.271 172.183 169.279 171.591 170.131V168.427H170.305V177H171.661ZM183.416 177.191C186.059 177.191 187.624 175.904 187.624 173.853C187.624 171.905 186.303 171.088 183.868 170.444C181.486 169.818 180.634 169.383 180.634 168.097C180.634 167.105 181.59 166.375 183.051 166.375C184.511 166.375 185.624 167.14 185.972 168.444L187.311 168.027C186.755 166.219 185.242 165.175 183.068 165.175C180.825 165.175 179.19 166.375 179.19 168.253C179.19 170.305 180.808 171.07 182.946 171.609C184.859 172.114 186.198 172.531 186.198 173.974C186.198 175.296 185.137 176.009 183.433 176.009C181.399 176.009 180.408 175.174 179.869 173.766L178.634 174.252C179.399 176.183 180.894 177.191 183.416 177.191ZM192.967 177.139C194.671 177.139 195.993 176.252 196.584 174.6L195.402 174.426C194.915 175.696 194.028 176.113 193.089 176.113C191.42 176.113 190.446 175.018 190.411 172.861H196.741C196.723 172.67 196.741 172.479 196.723 172.287C196.549 169.905 195.245 168.271 193.002 168.271C190.794 168.271 189.037 169.957 189.037 172.861C189.037 175.418 190.62 177.139 192.967 177.139ZM190.463 171.94C190.568 170.323 191.628 169.297 193.002 169.297C194.376 169.297 195.228 170.288 195.367 171.94H190.463ZM201.639 177.139C203.343 177.139 204.612 176.148 204.908 174.218L203.726 174.096C203.465 175.522 202.804 176.131 201.674 176.131C200.387 176.131 199.378 175.07 199.378 172.705C199.378 170.566 200.213 169.349 201.587 169.349C202.769 169.349 203.447 170.114 203.656 171.522L204.925 171.366C204.543 169.262 203.395 168.271 201.569 168.271C199.396 168.271 197.952 170.183 197.952 172.67C197.952 175.539 199.535 177.139 201.639 177.139ZM209.896 177.139C212.017 177.139 213.773 175.383 213.773 172.687C213.773 170.044 212.243 168.271 209.896 168.271C207.792 168.271 206.053 169.992 206.053 172.67C206.053 175.383 207.687 177.139 209.896 177.139ZM209.878 176.131C208.435 176.131 207.479 174.844 207.479 172.687C207.479 170.479 208.522 169.331 209.878 169.331C211.304 169.331 212.348 170.444 212.348 172.67C212.348 174.983 211.287 176.131 209.878 176.131ZM217.07 177V171.122C217.783 170.096 218.687 169.401 219.783 169.401C220.757 169.401 221.209 169.888 221.209 170.914V177H222.565V170.931C222.565 169.175 221.783 168.271 220.183 168.271C218.653 168.271 217.592 169.279 217.001 170.131V168.427H215.714V177H217.07ZM227.764 177.139C229.016 177.139 229.886 176.635 230.564 175.696V177H231.833V165.401H230.529V169.592C230.129 169.018 229.312 168.271 228.008 168.271C225.817 168.271 224.495 170.201 224.495 172.74C224.495 175.539 225.695 177.139 227.764 177.139ZM228.13 176.113C226.704 176.113 225.904 175.122 225.904 172.74C225.904 170.549 226.669 169.331 228.216 169.331C229.486 169.331 230.077 170.062 230.512 170.879V174.374C230.147 175.331 229.416 176.113 228.13 176.113ZM236.53 177.104C238.13 177.104 239.139 176.496 239.817 175.557C239.8 175.991 239.869 176.704 239.974 177H241.26C241.121 176.461 241.069 175.87 241.069 175.331V171.435C241.069 169.279 240.13 168.271 237.696 168.271C235.661 168.271 234.322 169.105 234.009 170.67L235.261 170.809C235.539 169.714 236.27 169.331 237.661 169.331C239.104 169.331 239.661 169.836 239.765 170.775C239.8 170.983 239.8 171.279 239.8 171.575C239.121 171.592 238.548 171.592 237.852 171.679C235.505 171.957 233.8 172.879 233.8 174.739C233.8 176.304 235.018 177.104 236.53 177.104ZM236.93 176.113C235.783 176.113 235.209 175.591 235.209 174.6C235.209 173.522 236.165 172.774 238.026 172.531C238.565 172.461 239.191 172.461 239.8 172.461V174.235C239.435 175.122 238.565 176.113 236.93 176.113ZM245.005 177V171.401C245.718 170.201 246.727 169.505 247.735 169.505C247.84 169.505 248.013 169.505 248.118 169.523V168.288C247.979 168.271 247.874 168.271 247.718 168.271C246.501 168.271 245.492 169.262 244.936 170.27V168.427H243.649V177H245.005ZM248.931 180.008C251.035 180.008 252.026 179.121 252.548 177.609L255.817 168.427H254.617L252.635 174.026L252.287 175.122L251.939 174.026L249.818 168.427H248.357L251.174 175.748C251.904 177.661 250.809 178.913 248.896 178.913L248.931 180.008Z" fill="white"/>
<rect width="300" height="75" transform="translate(300 225)" fill="#E9E9E9"/>
<path d="M314.991 252.191C317.634 252.191 319.199 250.904 319.199 248.853C319.199 246.905 317.877 246.088 315.443 245.444C313.061 244.818 312.208 244.383 312.208 243.097C312.208 242.105 313.165 241.375 314.626 241.375C316.086 241.375 317.199 242.14 317.547 243.444L318.886 243.027C318.329 241.219 316.817 240.175 314.643 240.175C312.4 240.175 310.765 241.375 310.765 243.253C310.765 245.305 312.382 246.07 314.521 246.609C316.434 247.114 317.773 247.531 317.773 248.974C317.773 250.296 316.712 251.009 315.008 251.009C312.974 251.009 311.982 250.174 311.443 248.766L310.209 249.252C310.974 251.183 312.469 252.191 314.991 252.191ZM323.881 252.139C325.029 252.139 326.072 251.635 326.75 250.539V252H328.002V243.427H326.663V249.513C326.089 250.557 325.255 251.113 324.298 251.113C323.098 251.113 322.594 250.574 322.594 249.218V243.427H321.238V249.183C321.238 251.339 322.333 252.139 323.881 252.139ZM334.543 252.122C336.49 252.122 337.899 250.644 337.899 247.687C337.899 244.818 336.699 243.271 334.647 243.271C333.413 243.271 332.317 244.123 331.882 245.062V240.401H330.595V252H331.343L331.778 250.574C332.334 251.548 333.256 252.122 334.543 252.122ZM334.282 251.148C332.908 251.148 331.9 250.122 331.9 248.331V246.262C332.369 245.27 333.082 244.349 334.334 244.349C335.777 244.349 336.508 245.479 336.508 247.722C336.508 250.122 335.743 251.148 334.282 251.148ZM342.267 252.122C342.737 252.122 343.258 252.07 343.728 251.983V250.922C343.415 250.974 342.911 251.026 342.511 251.026C341.78 251.009 341.311 250.609 341.311 249.705V244.505H343.241V243.427H341.311V241.184H340.076L340.007 243.427H338.598V244.505H339.989V249.635C339.989 251.409 340.824 252.122 342.267 252.122ZM346.608 252V240.401H345.252V252H346.608ZM352.528 252.139C354.232 252.139 355.554 251.252 356.145 249.6L354.963 249.426C354.476 250.696 353.589 251.113 352.65 251.113C350.98 251.113 350.007 250.018 349.972 247.861H356.301C356.284 247.67 356.301 247.479 356.284 247.287C356.11 244.905 354.806 243.271 352.563 243.271C350.354 243.271 348.598 244.957 348.598 247.861C348.598 250.418 350.18 252.139 352.528 252.139ZM350.024 246.94C350.128 245.323 351.189 244.297 352.563 244.297C353.937 244.297 354.789 245.288 354.928 246.94H350.024Z" fill="black"/>
</svg>
