<svg width="248" height="165" viewBox="0 0 248 165" fill="none" xmlns="http://www.w3.org/2000/svg">
<rect x="0.5" y="57.5" width="247" height="107" rx="1.5" fill="white"/>
<rect x="0.5" y="57.5" width="247" height="107" rx="1.5" stroke="#E9E9E9"/>
<rect width="28" height="28" rx="14" fill="#94538C"/>
<path d="M17.2926 20V18.944H14.9406V9.12H13.9806C13.2926 10.256 12.5406 11.088 11.3726 11.728V13.104C12.8926 12.24 13.2766 11.552 13.6606 11.104V18.944H11.2606V20H17.2926Z" fill="white"/>
<line x1="14.5" y1="28" x2="14.5" y2="57" stroke="#94538C" stroke-dasharray="2 2"/>
<rect x="101" y="76" width="28" height="28" rx="14" fill="#94538C"/>
<path d="M118.832 96V94.88H112.752C116.72 92.176 118.592 90.432 118.592 88.416C118.592 86.448 117.248 85.152 114.992 85.152C112.8 85.152 111.488 86.4 111.136 88.336L112.368 88.576C112.56 87.056 113.552 86.24 114.944 86.24C116.528 86.24 117.248 87.168 117.248 88.336C117.248 90.144 116.112 91.28 111.136 94.96V96H118.832Z" fill="white"/>
<line x1="115.5" y1="104" x2="115.5" y2="111" stroke="#94538C" stroke-dasharray="2 2"/>
</svg>
