<svg width="770" height="404" viewBox="0 0 770 404" fill="none" xmlns="http://www.w3.org/2000/svg">
    <g filter="url(#wpdapygg5a)">
        <g clip-path="url(#ijvslsetub)">
            <rect x="41.812" y="109.09" width="200" height="176" rx="8" fill="#fff"/>
            <path d="M56.484 137.09h-1.328v-10.672h1.328v10.672zm4.752.112c-1.328 0-2.096-.656-2.096-2.288v-4.72h-1.28v-.992h1.296l.064-2.064h1.136v2.064h1.776v.992h-1.776v4.784c0 .832.432 1.2 1.104 1.216.368 0 .832-.048 1.12-.096v.976c-.432.08-.912.128-1.344.128zm5.738.016c-2.16 0-3.616-1.584-3.616-3.936 0-2.672 1.616-4.224 3.648-4.224 2.064 0 3.264 1.504 3.424 3.696.016.176 0 .352.016.528h-5.824c.032 1.984.928 2.992 2.464 2.992.864 0 1.68-.384 2.128-1.552l1.088.16c-.544 1.52-1.76 2.336-3.328 2.336zm-2.304-4.784h4.512c-.128-1.52-.912-2.432-2.176-2.432-1.264 0-2.24.944-2.336 2.432zm8.73 4.656H72.17v-7.888h1.2v1.584c.464-.784 1.504-1.728 2.64-1.728 1.152 0 1.888.656 1.984 1.776.544-.864 1.472-1.76 2.72-1.76.816 0 1.36.304 1.68.896.24.368.4.88.4 1.52v5.6H81.56v-5.52c0-1.024-.432-1.456-1.2-1.456-.976 0-1.792.8-2.288 1.584v5.392h-1.216v-5.536c0-.944-.4-1.472-1.168-1.472-.912 0-1.568.592-2.288 1.6v5.408zm21.377 0h-6.032v-1.056h2.4v-7.84c-.384.448-.768 1.136-2.288 2v-1.376c1.168-.64 1.92-1.472 2.608-2.608h.96v9.824h2.352v1.056zM219.812 135.71l-.71-.71 3.96-3.91-3.92-3.91.67-.71 4.67 4.62-4.67 4.62zM56.484 181.09h-1.328v-10.672h1.328v10.672zm4.752.112c-1.328 0-2.096-.656-2.096-2.288v-4.72h-1.28v-.992h1.296l.064-2.064h1.136v2.064h1.776v.992h-1.776v4.784c0 .832.432 1.2 1.104 1.216.368 0 .832-.048 1.12-.096v.976c-.432.08-.912.128-1.344.128zm5.738.016c-2.16 0-3.616-1.584-3.616-3.936 0-2.672 1.616-4.224 3.648-4.224 2.064 0 3.264 1.504 3.424 3.696.016.176 0 .352.016.528h-5.824c.032 1.984.928 2.992 2.464 2.992.864 0 1.68-.384 2.128-1.552l1.088.16c-.544 1.52-1.76 2.336-3.328 2.336zm-2.304-4.784h4.512c-.128-1.52-.912-2.432-2.176-2.432-1.264 0-2.24.944-2.336 2.432zm8.73 4.656H72.17v-7.888h1.2v1.584c.464-.784 1.504-1.728 2.64-1.728 1.152 0 1.888.656 1.984 1.776.544-.864 1.472-1.76 2.72-1.76.816 0 1.36.304 1.68.896.24.368.4.88.4 1.52v5.6H81.56v-5.52c0-1.024-.432-1.456-1.2-1.456-.976 0-1.792.8-2.288 1.584v5.392h-1.216v-5.536c0-.944-.4-1.472-1.168-1.472-.912 0-1.568.592-2.288 1.6v5.408zm22.72 0h-7.695v-1.04c4.976-3.68 6.112-4.816 6.112-6.624 0-1.168-.72-2.096-2.304-2.096-1.392 0-2.384.816-2.576 2.336l-1.232-.24c.352-1.936 1.664-3.184 3.856-3.184 2.256 0 3.6 1.296 3.6 3.264 0 2.016-1.872 3.76-5.84 6.464h6.08v1.12zM219.812 179.71l-.71-.71 3.96-3.91-3.92-3.91.67-.71 4.67 4.62-4.67 4.62zM56.484 225.09h-1.328v-10.672h1.328v10.672zm4.752.112c-1.328 0-2.096-.656-2.096-2.288v-4.72h-1.28v-.992h1.296l.064-2.064h1.136v2.064h1.776v.992h-1.776v4.784c0 .832.432 1.2 1.104 1.216.368 0 .832-.048 1.12-.096v.976c-.432.08-.912.128-1.344.128zm5.738.016c-2.16 0-3.616-1.584-3.616-3.936 0-2.672 1.616-4.224 3.648-4.224 2.064 0 3.264 1.504 3.424 3.696.016.176 0 .352.016.528h-5.824c.032 1.984.928 2.992 2.464 2.992.864 0 1.68-.384 2.128-1.552l1.088.16c-.544 1.52-1.76 2.336-3.328 2.336zm-2.304-4.784h4.512c-.128-1.52-.912-2.432-2.176-2.432-1.264 0-2.24.944-2.336 2.432zm8.73 4.656H72.17v-7.888h1.2v1.584c.464-.784 1.504-1.728 2.64-1.728 1.152 0 1.888.656 1.984 1.776.544-.864 1.472-1.76 2.72-1.76.816 0 1.36.304 1.68.896.24.368.4.88.4 1.52v5.6H81.56v-5.52c0-1.024-.432-1.456-1.2-1.456-.976 0-1.792.8-2.288 1.584v5.392h-1.216v-5.536c0-.944-.4-1.472-1.168-1.472-.912 0-1.568.592-2.288 1.6v5.408zm18.833.192c-2.224 0-3.648-.848-4.144-2.736l1.248-.24c.368 1.328 1.2 1.92 2.864 1.92 1.776 0 2.608-.928 2.608-2.096 0-1.216-1.008-2.048-2.88-2.048h-1.232v-1.088h1.232c1.648 0 2.496-.656 2.496-1.888 0-1.136-.848-1.792-2.224-1.792-1.328 0-2.224.656-2.528 1.696l-1.2-.24c.56-1.664 1.936-2.544 3.696-2.544 2.352 0 3.584 1.152 3.584 2.752 0 1.248-.736 2.176-2.048 2.496 1.504.304 2.448 1.264 2.448 2.672 0 1.776-1.392 3.136-3.92 3.136zM56.484 269.09h-1.328v-10.672h1.328v10.672zm4.752.112c-1.328 0-2.096-.656-2.096-2.288v-4.72h-1.28v-.992h1.296l.064-2.064h1.136v2.064h1.776v.992h-1.776v4.784c0 .832.432 1.2 1.104 1.216.368 0 .832-.048 1.12-.096v.976c-.432.08-.912.128-1.344.128zm5.738.016c-2.16 0-3.616-1.584-3.616-3.936 0-2.672 1.616-4.224 3.648-4.224 2.064 0 3.264 1.504 3.424 3.696.016.176 0 .352.016.528h-5.824c.032 1.984.928 2.992 2.464 2.992.864 0 1.68-.384 2.128-1.552l1.088.16c-.544 1.52-1.76 2.336-3.328 2.336zm-2.304-4.784h4.512c-.128-1.52-.912-2.432-2.176-2.432-1.264 0-2.24.944-2.336 2.432zm8.73 4.656H72.17v-7.888h1.2v1.584c.464-.784 1.504-1.728 2.64-1.728 1.152 0 1.888.656 1.984 1.776.544-.864 1.472-1.76 2.72-1.76.816 0 1.36.304 1.68.896.24.368.4.88.4 1.52v5.6H81.56v-5.52c0-1.024-.432-1.456-1.2-1.456-.976 0-1.792.8-2.288 1.584v5.392h-1.216v-5.536c0-.944-.4-1.472-1.168-1.472-.912 0-1.568.592-2.288 1.6v5.408zm21.265 0h-1.248v-2.496h-5.328v-1.024l5.168-7.36h1.408v7.28h1.712v1.104h-1.712v2.496zm-1.248-9.424-4.144 5.824h4.144v-5.824z" fill="#000"/>
        </g>
    </g>
    <path d="M118.345 72.09V61.418h5.12c2.128 0 3.184 1.136 3.184 2.608 0 1.264-.608 2.176-1.92 2.496 1.296.192 2.24 1.152 2.24 2.576 0 1.776-1.008 2.992-3.6 2.992h-5.024zm2.56-8.736v2.32h1.744c.928 0 1.392-.368 1.392-1.168 0-.736-.432-1.152-1.36-1.152h-1.776zm0 4.192v2.592h1.952c1.04 0 1.44-.528 1.44-1.296s-.48-1.296-1.568-1.296h-1.824zm9.788 4.672c-1.36 0-2.32-.768-2.32-2.528v-5.536h2.496v5.408c0 .752.32 1.04.976 1.04.592 0 1.024-.4 1.28-.928v-5.52h2.496v7.936h-2.4l.016-1.136c-.544.848-1.408 1.264-2.544 1.264zm10.005-.016c-1.808 0-2.768-.848-2.768-2.528v-3.84h-1.264v-1.68h1.28l.16-2.432h2.24v2.432h1.632v1.68h-1.632v3.44c0 .624.256.976.848 1.056.304.032.608.032.944 0v1.776c-.384.048-.944.096-1.44.096zm5.766 0c-1.808 0-2.768-.848-2.768-2.528v-3.84h-1.264v-1.68h1.28l.16-2.432h2.24v2.432h1.632v1.68h-1.632v3.44c0 .624.256.976.848 1.056.304.032.608.032.944 0v1.776c-.384.048-.944.096-1.44.096zm6.15.016c-2.368 0-4.032-1.712-4.032-4.032 0-2.464 1.728-4.176 4.08-4.176 2.464 0 4.096 1.664 4.096 4.128 0 2.32-1.664 4.08-4.144 4.08zm.08-1.6c.912 0 1.408-.768 1.408-2.512 0-1.664-.448-2.448-1.424-2.448-.944 0-1.456.768-1.456 2.448 0 1.728.48 2.512 1.472 2.512zm7.972 1.472h-2.48v-7.936h2.384v1.312c.464-.656 1.216-1.456 2.56-1.456 1.632 0 2.288.976 2.288 2.496v5.584h-2.48v-5.504c0-.496-.256-.864-.864-.864-.656 0-1.088.448-1.408.928v5.44z" fill="#000"/>
    <rect x="101.312" y="46.59" width="81" height="39" rx="19.5" stroke="#000"/>
    <g filter="url(#6n0m14js7c)">
        <g clip-path="url(#d3ahhlddud)">
            <rect x="301.813" y="108.965" width="200" height="283" rx="8" fill="#fff"/>
            <g clip-path="url(#tzrlnmr1ae)">
                <path d="M317.593 133.097c-2.028 0-3.276-1.44-3.276-4.116 0-2.592 1.248-4.176 3.468-4.176 1.488 0 2.448.78 2.88 2.328l-.972.24c-.252-.996-.948-1.704-1.98-1.704-1.536 0-2.328 1.224-2.328 3.276 0 2.268.876 3.348 2.28 3.348 1.2 0 2.064-.792 2.064-2.016 0-.192-.012-.36-.012-.36h-1.98v-.816h3v3.876h-.612l-.264-.9c-.54.72-1.236 1.02-2.268 1.02zm5.708-.132h-.936v-5.916h.888v1.272c.384-.696 1.08-1.38 1.92-1.38.108 0 .18 0 .276.012v.852c-.072-.012-.192-.012-.264-.012-.696 0-1.392.48-1.884 1.308v3.864zm5.279.096c-1.524 0-2.652-1.212-2.652-3.084 0-1.848 1.2-3.036 2.652-3.036 1.62 0 2.676 1.224 2.676 3.048 0 1.86-1.212 3.072-2.676 3.072zm-.012-.696c.972 0 1.704-.792 1.704-2.388 0-1.536-.72-2.304-1.704-2.304-.936 0-1.656.792-1.656 2.316 0 1.488.66 2.376 1.656 2.376zm5.827.696c-1.068 0-1.824-.552-1.824-2.04v-3.972h.936v3.996c0 .936.348 1.308 1.176 1.308.66 0 1.236-.384 1.632-1.104v-4.2h.924v5.916h-.864v-1.008c-.468.756-1.188 1.104-1.98 1.104zm7.406-.012a2.386 2.386 0 0 1-1.848-.864v2.784h-.924v-7.92h.888v1.044c.36-.576.96-1.152 1.908-1.152 1.32 0 2.232.924 2.232 3.06 0 2.004-1.068 3.048-2.256 3.048zm-.252-.684c.936 0 1.536-.636 1.536-2.34 0-1.584-.456-2.316-1.476-2.316-.684 0-1.236.36-1.656 1.188v2.496c.312.444.744.972 1.596.972zm11.096.6h-4.524v-.792h1.8v-5.88c-.288.336-.576.852-1.716 1.5v-1.032c.876-.48 1.44-1.104 1.956-1.956h.72v7.368h1.764v.792z" fill="#666"/>
            </g>
            <g clip-path="url(#z255srpw2f)">
                <path d="M314.813 156.965v10h14v-10h-14zm12.19 1-5.19 4.32-5.19-4.32h10.38zm-11.19 8v-7.37l6 5 6-5v7.37h-12z" fill="#000"/>
            </g>
            <path d="M340.485 167.965h-1.328v-10.672h1.328v10.672zm4.751.112c-1.328 0-2.096-.656-2.096-2.288v-4.72h-1.28v-.992h1.296l.064-2.064h1.136v2.064h1.776v.992h-1.776v4.784c0 .832.432 1.2 1.104 1.216.368 0 .832-.048 1.12-.096v.976c-.432.08-.912.128-1.344.128zm5.738.016c-2.16 0-3.616-1.584-3.616-3.936 0-2.672 1.616-4.224 3.648-4.224 2.064 0 3.264 1.504 3.424 3.696.016.176 0 .352.016.528h-5.824c.032 1.984.928 2.992 2.464 2.992.864 0 1.68-.384 2.128-1.552l1.088.16c-.544 1.52-1.76 2.336-3.328 2.336zm-2.304-4.784h4.512c-.128-1.52-.912-2.432-2.176-2.432-1.264 0-2.24.944-2.336 2.432zm8.731 4.656h-1.232v-7.888h1.2v1.584c.464-.784 1.504-1.728 2.64-1.728 1.152 0 1.888.656 1.984 1.776.544-.864 1.472-1.76 2.72-1.76.816 0 1.36.304 1.68.896.24.368.4.88.4 1.52v5.6h-1.232v-5.52c0-1.024-.432-1.456-1.2-1.456-.976 0-1.792.8-2.288 1.584v5.392h-1.216v-5.536c0-.944-.4-1.472-1.168-1.472-.912 0-1.568.592-2.288 1.6v5.408zm21.376 0h-6.032v-1.056h2.4v-7.84c-.384.448-.768 1.136-2.288 2v-1.376c1.168-.64 1.92-1.472 2.608-2.608h.96v9.824h2.352v1.056z" fill="#000"/>
            <g clip-path="url(#e0iu4z4rsg)">
                <path d="M324.083 198.965h-4.54a1.75 1.75 0 0 0-1.73 1.73v10.54a1.749 1.749 0 0 0 1.73 1.73h4.54a1.754 1.754 0 0 0 1.73-1.73v-10.54a1.749 1.749 0 0 0-1.73-1.73zm.73 12.27a.73.73 0 0 1-.73.73h-4.54a.731.731 0 0 1-.73-.73v-1.27h6v1.27zm0-2.27h-6v-8.27a.728.728 0 0 1 .73-.73h4.54a.73.73 0 0 1 .73.73v8.27zm-2.5 1.5h-1v1h1v-1zm-2-8.5h3v-1h-3v1z" fill="#000"/>
            </g>
            <path d="M340.485 211.965h-1.328v-10.672h1.328v10.672zm4.751.112c-1.328 0-2.096-.656-2.096-2.288v-4.72h-1.28v-.992h1.296l.064-2.064h1.136v2.064h1.776v.992h-1.776v4.784c0 .832.432 1.2 1.104 1.216.368 0 .832-.048 1.12-.096v.976c-.432.08-.912.128-1.344.128zm5.738.016c-2.16 0-3.616-1.584-3.616-3.936 0-2.672 1.616-4.224 3.648-4.224 2.064 0 3.264 1.504 3.424 3.696.016.176 0 .352.016.528h-5.824c.032 1.984.928 2.992 2.464 2.992.864 0 1.68-.384 2.128-1.552l1.088.16c-.544 1.52-1.76 2.336-3.328 2.336zm-2.304-4.784h4.512c-.128-1.52-.912-2.432-2.176-2.432-1.264 0-2.24.944-2.336 2.432zm8.731 4.656h-1.232v-7.888h1.2v1.584c.464-.784 1.504-1.728 2.64-1.728 1.152 0 1.888.656 1.984 1.776.544-.864 1.472-1.76 2.72-1.76.816 0 1.36.304 1.68.896.24.368.4.88.4 1.52v5.6h-1.232v-5.52c0-1.024-.432-1.456-1.2-1.456-.976 0-1.792.8-2.288 1.584v5.392h-1.216v-5.536c0-.944-.4-1.472-1.168-1.472-.912 0-1.568.592-2.288 1.6v5.408zm22.72 0h-7.696v-1.04c4.976-3.68 6.112-4.816 6.112-6.624 0-1.168-.72-2.096-2.304-2.096-1.392 0-2.384.816-2.576 2.336l-1.232-.24c.352-1.936 1.664-3.184 3.856-3.184 2.256 0 3.6 1.296 3.6 3.264 0 2.016-1.872 3.76-5.84 6.464h6.08v1.12z" fill="#000"/>
            <g clip-path="url(#l589pyh5ah)">
                <path fill="#E9E9E9" d="M301.813 227.965h200v1h-200z"/>
                <path d="M317.593 253.097c-2.028 0-3.276-1.44-3.276-4.116 0-2.592 1.248-4.176 3.468-4.176 1.488 0 2.448.78 2.88 2.328l-.972.24c-.252-.996-.948-1.704-1.98-1.704-1.536 0-2.328 1.224-2.328 3.276 0 2.268.876 3.348 2.28 3.348 1.2 0 2.064-.792 2.064-2.016 0-.192-.012-.36-.012-.36h-1.98v-.816h3v3.876h-.612l-.264-.9c-.54.72-1.236 1.02-2.268 1.02zm5.708-.132h-.936v-5.916h.888v1.272c.384-.696 1.08-1.38 1.92-1.38.108 0 .18 0 .276.012v.852c-.072-.012-.192-.012-.264-.012-.696 0-1.392.48-1.884 1.308v3.864zm5.279.096c-1.524 0-2.652-1.212-2.652-3.084 0-1.848 1.2-3.036 2.652-3.036 1.62 0 2.676 1.224 2.676 3.048 0 1.86-1.212 3.072-2.676 3.072zm-.012-.696c.972 0 1.704-.792 1.704-2.388 0-1.536-.72-2.304-1.704-2.304-.936 0-1.656.792-1.656 2.316 0 1.488.66 2.376 1.656 2.376zm5.827.696c-1.068 0-1.824-.552-1.824-2.04v-3.972h.936v3.996c0 .936.348 1.308 1.176 1.308.66 0 1.236-.384 1.632-1.104v-4.2h.924v5.916h-.864v-1.008c-.468.756-1.188 1.104-1.98 1.104zm7.406-.012a2.386 2.386 0 0 1-1.848-.864v2.784h-.924v-7.92h.888v1.044c.36-.576.96-1.152 1.908-1.152 1.32 0 2.232.924 2.232 3.06 0 2.004-1.068 3.048-2.256 3.048zm-.252-.684c.936 0 1.536-.636 1.536-2.34 0-1.584-.456-2.316-1.476-2.316-.684 0-1.236.36-1.656 1.188v2.496c.312.444.744.972 1.596.972zm12.104.6h-5.772v-.78c3.732-2.76 4.584-3.612 4.584-4.968 0-.876-.54-1.572-1.728-1.572-1.044 0-1.788.612-1.932 1.752l-.924-.18c.264-1.452 1.248-2.388 2.892-2.388 1.692 0 2.7.972 2.7 2.448 0 1.512-1.404 2.82-4.38 4.848h4.56v.84z" fill="#666"/>
            </g>
            <g clip-path="url(#d8p5ql5jui)">
                <path d="M323.257 280.522c.131.132.248.272.349.42l-.725.726a1.97 1.97 0 0 0-3.009-.539l-.108.1-2.175 2.175a1.97 1.97 0 0 0 2.678 2.885l.108-.1 1.172-1.172.707.707-1.172 1.172a2.97 2.97 0 1 1-4.2-4.199l2.175-2.175a2.97 2.97 0 0 1 4.2 0zm3.555-3.555a2.971 2.971 0 0 1 0 4.2l-2.175 2.174a2.97 2.97 0 0 1-4.494-.342l.72-.719a1.968 1.968 0 0 0 2.959.454l.108-.1 2.175-2.174a1.97 1.97 0 0 0-2.678-2.886l-.108.1-1.182 1.181-.707-.707 1.182-1.181a2.97 2.97 0 0 1 4.2 0z" fill="#000"/>
            </g>
            <path d="M340.485 287.965h-1.328v-10.672h1.328v10.672zm4.751.112c-1.328 0-2.096-.656-2.096-2.288v-4.72h-1.28v-.992h1.296l.064-2.064h1.136v2.064h1.776v.992h-1.776v4.784c0 .832.432 1.2 1.104 1.216.368 0 .832-.048 1.12-.096v.976c-.432.08-.912.128-1.344.128zm5.738.016c-2.16 0-3.616-1.584-3.616-3.936 0-2.672 1.616-4.224 3.648-4.224 2.064 0 3.264 1.504 3.424 3.696.016.176 0 .352.016.528h-5.824c.032 1.984.928 2.992 2.464 2.992.864 0 1.68-.384 2.128-1.552l1.088.16c-.544 1.52-1.76 2.336-3.328 2.336zm-2.304-4.784h4.512c-.128-1.52-.912-2.432-2.176-2.432-1.264 0-2.24.944-2.336 2.432zm8.731 4.656h-1.232v-7.888h1.2v1.584c.464-.784 1.504-1.728 2.64-1.728 1.152 0 1.888.656 1.984 1.776.544-.864 1.472-1.76 2.72-1.76.816 0 1.36.304 1.68.896.24.368.4.88.4 1.52v5.6h-1.232v-5.52c0-1.024-.432-1.456-1.2-1.456-.976 0-1.792.8-2.288 1.584v5.392h-1.216v-5.536c0-.944-.4-1.472-1.168-1.472-.912 0-1.568.592-2.288 1.6v5.408zm18.832.192c-2.224 0-3.648-.848-4.144-2.736l1.248-.24c.368 1.328 1.2 1.92 2.864 1.92 1.776 0 2.608-.928 2.608-2.096 0-1.216-1.008-2.048-2.88-2.048h-1.232v-1.088h1.232c1.648 0 2.496-.656 2.496-1.888 0-1.136-.848-1.792-2.224-1.792-1.328 0-2.224.656-2.528 1.696l-1.2-.24c.56-1.664 1.936-2.544 3.696-2.544 2.352 0 3.584 1.152 3.584 2.752 0 1.248-.736 2.176-2.048 2.496 1.504.304 2.448 1.264 2.448 2.672 0 1.776-1.392 3.136-3.92 3.136z" fill="#000"/>
            <g clip-path="url(#ip1ngx7llj)" fill="#000">
                <path d="m324.813 322.965-.71.71-1.79-1.79v8.08h-1v-8.08l-1.79 1.79-.71-.71 3-3 3 3z"/>
                <path d="M315.813 324.965v7h12v-7h-1v6h-10v-6h-1z"/>
            </g>
            <path d="M340.485 331.965h-1.328v-10.672h1.328v10.672zm4.751.112c-1.328 0-2.096-.656-2.096-2.288v-4.72h-1.28v-.992h1.296l.064-2.064h1.136v2.064h1.776v.992h-1.776v4.784c0 .832.432 1.2 1.104 1.216.368 0 .832-.048 1.12-.096v.976c-.432.08-.912.128-1.344.128zm5.738.016c-2.16 0-3.616-1.584-3.616-3.936 0-2.672 1.616-4.224 3.648-4.224 2.064 0 3.264 1.504 3.424 3.696.016.176 0 .352.016.528h-5.824c.032 1.984.928 2.992 2.464 2.992.864 0 1.68-.384 2.128-1.552l1.088.16c-.544 1.52-1.76 2.336-3.328 2.336zm-2.304-4.784h4.512c-.128-1.52-.912-2.432-2.176-2.432-1.264 0-2.24.944-2.336 2.432zm8.731 4.656h-1.232v-7.888h1.2v1.584c.464-.784 1.504-1.728 2.64-1.728 1.152 0 1.888.656 1.984 1.776.544-.864 1.472-1.76 2.72-1.76.816 0 1.36.304 1.68.896.24.368.4.88.4 1.52v5.6h-1.232v-5.52c0-1.024-.432-1.456-1.2-1.456-.976 0-1.792.8-2.288 1.584v5.392h-1.216v-5.536c0-.944-.4-1.472-1.168-1.472-.912 0-1.568.592-2.288 1.6v5.408zm21.264 0h-1.248v-2.496h-5.328v-1.024l5.168-7.36h1.408v7.28h1.712v1.104h-1.712v2.496zm-1.248-9.424-4.144 5.824h4.144v-5.824z" fill="#000"/>
            <g clip-path="url(#xcq6s4ch3k)">
                <path d="M326.363 364.615a4.615 4.615 0 0 1-3.4.23l-1.71-.56a6.616 6.616 0 0 0-4.89.33l-.55.35v11h1v-3.64l.45-.23a4.542 4.542 0 0 1 3.36-.22l1.75.56a6.578 6.578 0 0 0 4.89-.34l.55-.26v-7.87l-1.45.65zm.45 6.63a5.557 5.557 0 0 1-4.12.28l-1.76-.56a5.55 5.55 0 0 0-4.12.28v-5.77a5.55 5.55 0 0 1 4.12-.28l1.76.56a5.557 5.557 0 0 0 4.12-.28v5.77z" fill="#000"/>
            </g>
            <path d="M340.485 375.965h-1.328v-10.672h1.328v10.672zm4.751.112c-1.328 0-2.096-.656-2.096-2.288v-4.72h-1.28v-.992h1.296l.064-2.064h1.136v2.064h1.776v.992h-1.776v4.784c0 .832.432 1.2 1.104 1.216.368 0 .832-.048 1.12-.096v.976c-.432.08-.912.128-1.344.128zm5.738.016c-2.16 0-3.616-1.584-3.616-3.936 0-2.672 1.616-4.224 3.648-4.224 2.064 0 3.264 1.504 3.424 3.696.016.176 0 .352.016.528h-5.824c.032 1.984.928 2.992 2.464 2.992.864 0 1.68-.384 2.128-1.552l1.088.16c-.544 1.52-1.76 2.336-3.328 2.336zm-2.304-4.784h4.512c-.128-1.52-.912-2.432-2.176-2.432-1.264 0-2.24.944-2.336 2.432zm8.731 4.656h-1.232v-7.888h1.2v1.584c.464-.784 1.504-1.728 2.64-1.728 1.152 0 1.888.656 1.984 1.776.544-.864 1.472-1.76 2.72-1.76.816 0 1.36.304 1.68.896.24.368.4.88.4 1.52v5.6h-1.232v-5.52c0-1.024-.432-1.456-1.2-1.456-.976 0-1.792.8-2.288 1.584v5.392h-1.216v-5.536c0-.944-.4-1.472-1.168-1.472-.912 0-1.568.592-2.288 1.6v5.408zm18.848.192c-1.968 0-3.424-.928-3.968-2.528l1.072-.384c.496 1.264 1.424 1.872 2.848 1.872 1.568 0 2.64-1.072 2.64-2.72 0-1.408-.848-2.608-2.48-2.608-1.264 0-2.016.656-2.56 1.52l-1.056-.24.352-5.776h6.32l-.112 1.152h-5.216l-.24 3.584c.448-.624 1.504-1.28 2.688-1.28 2.224 0 3.584 1.504 3.584 3.632 0 2.4-1.856 3.776-3.872 3.776z" fill="#000"/>
        </g>
    </g>
    <g clip-path="url(#t8bkxrxhwl)">
        <path d="M402.913 61.065a1.1 1.1 0 1 1-2.2-.002 1.1 1.1 0 0 1 2.2.002zm0 4.9a1.1 1.1 0 1 1-2.2-.002 1.1 1.1 0 0 1 2.2.002zm-1.1 6a1.102 1.102 0 0 0 1.078-1.315 1.096 1.096 0 0 0-.864-.864 1.098 1.098 0 0 0-1.314 1.079 1.097 1.097 0 0 0 1.1 1.1z" fill="#000"/>
    </g>
    <rect x="382.313" y="46.465" width="39" height="39" rx="19.5" stroke="#000"/>
    <g filter="url(#v9k1gedrgm)">
        <g clip-path="url(#0comr7h0dn)">
            <rect x="561.813" y="109.035" width="200" height="176" rx="8" fill="#fff"/>
            <g clip-path="url(#vyp7269lbo)">
                <path d="M600.485 137.035h-1.328v-10.672h1.328v10.672zm4.751.112c-1.328 0-2.096-.656-2.096-2.288v-4.72h-1.28v-.992h1.296l.064-2.064h1.136v2.064h1.776v.992h-1.776v4.784c0 .832.432 1.2 1.104 1.216.368 0 .832-.048 1.12-.096v.976c-.432.08-.912.128-1.344.128zm5.738.016c-2.16 0-3.616-1.584-3.616-3.936 0-2.672 1.616-4.224 3.648-4.224 2.064 0 3.264 1.504 3.424 3.696.016.176 0 .352.016.528h-5.824c.032 1.984.928 2.992 2.464 2.992.864 0 1.68-.384 2.128-1.552l1.088.16c-.544 1.52-1.76 2.336-3.328 2.336zm-2.304-4.784h4.512c-.128-1.52-.912-2.432-2.176-2.432-1.264 0-2.24.944-2.336 2.432zm8.731 4.656h-1.232v-7.888h1.2v1.584c.464-.784 1.504-1.728 2.64-1.728 1.152 0 1.888.656 1.984 1.776.544-.864 1.472-1.76 2.72-1.76.816 0 1.36.304 1.68.896.24.368.4.88.4 1.52v5.6h-1.232v-5.52c0-1.024-.432-1.456-1.2-1.456-.976 0-1.792.8-2.288 1.584v5.392h-1.216v-5.536c0-.944-.4-1.472-1.168-1.472-.912 0-1.568.592-2.288 1.6v5.408z" fill="#000"/>
            </g>
            <g clip-path="url(#7z0zq58j1p)" fill="#000">
                <path d="m579.663 178.595-3.35-3.35.71-.71 2.64 2.65 6.65-6.65.71.71-7.36 7.35zM601.525 181.035h-2.64v-10.672h2.64v10.672zm5.197.112c-1.808 0-2.768-.848-2.768-2.528v-3.84h-1.264v-1.68h1.28l.16-2.432h2.24v2.432h1.632v1.68h-1.632v3.44c0 .624.256.976.848 1.056.304.032.608.032.944 0v1.776c-.384.048-.944.096-1.44.096zm6.229.016c-2.384 0-4.112-1.568-4.112-3.984 0-2.56 1.888-4.224 4.096-4.224 2.48 0 3.936 1.632 4 4.096 0 .176 0 .304-.016.48h-5.488c.032 1.424.768 2.048 1.744 2.048.8 0 1.312-.4 1.6-1.184l2.064.272c-.528 1.504-1.84 2.496-3.888 2.496zm-1.488-4.928h2.976c-.08-1.072-.544-1.728-1.472-1.728-.8 0-1.44.64-1.504 1.728zm9.352 4.8h-2.48v-7.936h2.384v1.328c.448-.672 1.184-1.472 2.448-1.472 1.072 0 1.792.48 2.064 1.52.48-.688 1.2-1.52 2.496-1.52 1.072 0 1.712.416 2 1.2.144.352.192.8.192 1.28v5.6h-2.48v-5.232c0-.752-.208-1.12-.784-1.12-.624 0-1.024.512-1.28.944v5.408h-2.496v-5.232c0-.736-.208-1.12-.768-1.12-.608 0-.96.4-1.296.944v5.408z"/>
            </g>
            <g clip-path="url(#86hatruy8q)">
                <path d="M600.485 225.035h-1.328v-10.672h1.328v10.672zm4.751.112c-1.328 0-2.096-.656-2.096-2.288v-4.72h-1.28v-.992h1.296l.064-2.064h1.136v2.064h1.776v.992h-1.776v4.784c0 .832.432 1.2 1.104 1.216.368 0 .832-.048 1.12-.096v.976c-.432.08-.912.128-1.344.128zm5.738.016c-2.16 0-3.616-1.584-3.616-3.936 0-2.672 1.616-4.224 3.648-4.224 2.064 0 3.264 1.504 3.424 3.696.016.176 0 .352.016.528h-5.824c.032 1.984.928 2.992 2.464 2.992.864 0 1.68-.384 2.128-1.552l1.088.16c-.544 1.52-1.76 2.336-3.328 2.336zm-2.304-4.784h4.512c-.128-1.52-.912-2.432-2.176-2.432-1.264 0-2.24.944-2.336 2.432zm8.731 4.656h-1.232v-7.888h1.2v1.584c.464-.784 1.504-1.728 2.64-1.728 1.152 0 1.888.656 1.984 1.776.544-.864 1.472-1.76 2.72-1.76.816 0 1.36.304 1.68.896.24.368.4.88.4 1.52v5.6h-1.232v-5.52c0-1.024-.432-1.456-1.2-1.456-.976 0-1.792.8-2.288 1.584v5.392h-1.216v-5.536c0-.944-.4-1.472-1.168-1.472-.912 0-1.568.592-2.288 1.6v5.408z" fill="#000"/>
            </g>
            <g clip-path="url(#o4cn84njdr)">
                <path d="M600.485 269.035h-1.328v-10.672h1.328v10.672zm4.751.112c-1.328 0-2.096-.656-2.096-2.288v-4.72h-1.28v-.992h1.296l.064-2.064h1.136v2.064h1.776v.992h-1.776v4.784c0 .832.432 1.2 1.104 1.216.368 0 .832-.048 1.12-.096v.976c-.432.08-.912.128-1.344.128zm5.738.016c-2.16 0-3.616-1.584-3.616-3.936 0-2.672 1.616-4.224 3.648-4.224 2.064 0 3.264 1.504 3.424 3.696.016.176 0 .352.016.528h-5.824c.032 1.984.928 2.992 2.464 2.992.864 0 1.68-.384 2.128-1.552l1.088.16c-.544 1.52-1.76 2.336-3.328 2.336zm-2.304-4.784h4.512c-.128-1.52-.912-2.432-2.176-2.432-1.264 0-2.24.944-2.336 2.432zm8.731 4.656h-1.232v-7.888h1.2v1.584c.464-.784 1.504-1.728 2.64-1.728 1.152 0 1.888.656 1.984 1.776.544-.864 1.472-1.76 2.72-1.76.816 0 1.36.304 1.68.896.24.368.4.88.4 1.52v5.6h-1.232v-5.52c0-1.024-.432-1.456-1.2-1.456-.976 0-1.792.8-2.288 1.584v5.392h-1.216v-5.536c0-.944-.4-1.472-1.168-1.472-.912 0-1.568.592-2.288 1.6v5.408z" fill="#000"/>
            </g>
        </g>
    </g>
    <path d="M652.18 72.035h-2.528V63.38h-2.768v-2.016h8.032v2.016h-2.736v8.656zm6.467.128c-2.384 0-4.112-1.568-4.112-3.984 0-2.56 1.888-4.224 4.096-4.224 2.48 0 3.936 1.632 4 4.096 0 .176 0 .304-.016.48h-5.488c.032 1.424.768 2.048 1.744 2.048.8 0 1.312-.4 1.6-1.184l2.064.272c-.528 1.504-1.84 2.496-3.888 2.496zm-1.488-4.928h2.976c-.08-1.072-.544-1.728-1.472-1.728-.8 0-1.44.64-1.504 1.728zm7.918 4.8h-2.176l2.768-4-2.576-3.936h2.736l1.088 1.632.224.368.24-.368 1.072-1.632h2.176l-2.448 3.584 2.848 4.352h-2.736l-1.328-2-.256-.416-.288.416-1.344 2zm10.074.112c-1.808 0-2.768-.848-2.768-2.528v-3.84h-1.264V64.1h1.28l.16-2.432h2.24V64.1h1.632v1.68h-1.632v3.44c0 .624.256.976.848 1.056.304.032.608.032.944 0v1.776c-.384.048-.944.096-1.44.096zM646.836 73.635h29.947v.8h-29.947v-.8z" fill="#000"/>
    <rect x=".188" width="24" height="24" rx="12" fill="#94538C"/>
    <path d="M16.35 18H8.396v-2.196h2.646V9.09c-.522.378-1.368.9-2.376 1.314V8.1c1.206-.396 2.304-1.386 3.042-2.304h2.106v10.008h2.538V18z" fill="#fff"/>
    <path d="M24.188 12h636.999" stroke="#94538C" stroke-width="1.5" stroke-dasharray="3 4"/>
    <rect x="1" y="118.982" width="24" height="24" rx="12" fill="#94538C"/>
    <path d="M17.498 136.982H8.444v-1.908c4.77-3.582 6.066-4.698 6.066-6.426 0-.954-.575-1.638-1.637-1.638-1.098 0-1.8.738-1.962 2.232l-2.485-.45c.45-2.808 2.34-4.032 4.752-4.032 2.52 0 4.194 1.458 4.194 3.78 0 2.412-2.07 3.924-5.435 6.228h5.562v2.214z" fill="#fff"/>
    <path d="M25 130.982h13" stroke="#94538C" stroke-width="1.5" stroke-dasharray="3 4"/>
    <circle cx="41" cy="130.982" r="3" transform="rotate(90 41 130.982)" fill="#94538C"/>
    <rect x=".563" y="161.982" width="24" height="24" rx="12" fill="#94538C"/>
    <path d="M12.6 180.198c-2.718 0-4.626-1.17-5.022-3.402l2.538-.522c.252 1.224 1.062 1.782 2.322 1.782 1.44 0 2.088-.648 2.088-1.584 0-1.134-.846-1.62-2.25-1.62h-1.314v-2.088h1.278c1.314 0 1.98-.522 1.98-1.44 0-.864-.594-1.422-1.8-1.422-1.116 0-1.944.504-2.196 1.53l-2.286-.468c.576-2.196 2.484-3.204 4.752-3.204 2.664 0 4.284 1.422 4.284 3.204 0 1.386-.72 2.376-1.962 2.736 1.53.378 2.358 1.386 2.358 2.88 0 2.178-1.71 3.618-4.77 3.618z" fill="#fff"/>
    <path d="M24.563 173.982h19" stroke="#94538C" stroke-width="1.5" stroke-dasharray="3 4"/>
    <path fill-rule="evenodd" clip-rule="evenodd" d="m46.481 176.763 3.081-2.781-3.08-2.78a.896.896 0 0 0-1.176 0 .7.7 0 0 0 0 1.061l1.075.969h-2.819v1.5h2.819l-1.075.97a.7.7 0 0 0 0 1.061.896.896 0 0 0 1.175 0zM233.081 128.202l-3.081 2.78 3.081 2.781a.897.897 0 0 0 1.176 0 .7.7 0 0 0 0-1.061l-1.075-.97H236v-1.5h-2.818l1.075-.969a.7.7 0 0 0 0-1.061.897.897 0 0 0-1.176 0z" fill="#94538C"/>
    <path d="M236 130.982h20" stroke="#94538C" stroke-width="1.5" stroke-dasharray="3 4"/>
    <rect x="256" y="118.982" width="24" height="24" rx="12" fill="#94538C"/>
    <path d="M271.095 136.982h-2.664v-2.484h-5.274v-2.088l5.4-7.632h2.538v7.578h1.764v2.142h-1.764v2.484zm-2.646-9.018-3.132 4.392h3.132v-4.392z" fill="#fff"/>
    <rect x="305" y="65.982" width="24" height="24" rx="12" fill="#94538C"/>
    <path d="M317.055 84.198c-2.502 0-4.104-.918-4.86-2.97l2.304-.774c.378 1.224 1.332 1.674 2.304 1.674 1.134 0 2.124-.684 2.124-2.106 0-1.152-.738-2.07-2.034-2.07-.972 0-1.638.378-2.142 1.08l-2.034-.468.432-6.588h7.74l-.234 2.214h-5.436l-.234 2.736c.522-.612 1.656-.99 2.646-.99 2.304 0 4.032 1.458 4.032 3.96 0 2.52-1.926 4.302-4.608 4.302z" fill="#fff"/>
    <path d="M317 89.982v25" stroke="#94538C" stroke-width="1.5" stroke-dasharray="3 4"/>
    <path fill-rule="evenodd" clip-rule="evenodd" d="m314.22 117.901 2.78 3.081 2.78-3.081a.895.895 0 0 0 0-1.175.698.698 0 0 0-1.06 0l-.97 1.074v-2.818h-1.5v2.818l-.97-1.074a.698.698 0 0 0-1.06 0 .895.895 0 0 0 0 1.175z" fill="#94538C"/>
    <rect x="260" y="269.982" width="24" height="24" rx="12" fill="#94538C"/>
    <path d="m276.269 275.976-.036 1.8c-2.466 3.564-3.546 6.174-3.564 9.612 0 .216.018.468.036.594h-3.24c0-.234.018-.468.036-.702.252-2.646 1.872-6.03 4.248-9.09h-6.156l.288-2.214h8.388z" fill="#fff"/>
    <path d="M284 281.982h24" stroke="#94538C" stroke-width="1.5" stroke-dasharray="3 4"/>
    <path fill-rule="evenodd" clip-rule="evenodd" d="m310.919 284.763 3.081-2.781-3.081-2.78a.897.897 0 0 0-1.176 0 .7.7 0 0 0 0 1.061l1.075.969H308v1.5h2.818l-1.075.97a.7.7 0 0 0 0 1.061.897.897 0 0 0 1.176 0z" fill="#94538C"/>
    <rect x="518" y="163.982" width="24" height="24" rx="12" fill="#94538C"/>
    <path d="M529.971 182.198c-3.024 0-4.698-1.368-4.698-3.276 0-1.386.846-2.214 2.25-2.844-1.206-.594-1.836-1.494-1.836-2.988 0-1.836 1.62-3.348 4.338-3.348 2.592 0 4.23 1.332 4.23 3.204 0 1.296-.756 2.07-1.89 2.502 1.512.702 2.322 1.566 2.322 3.114 0 2.214-1.782 3.636-4.716 3.636zm.54-7.488c.756-.396 1.296-.792 1.296-1.566 0-.846-.612-1.44-1.764-1.44-1.044 0-1.728.468-1.728 1.296 0 .666.486 1.098 1.224 1.368l.972.342zm-.558 5.562c1.26 0 1.98-.468 1.98-1.35 0-.792-.648-1.188-1.476-1.494l-1.224-.45c-.828.342-1.422.882-1.422 1.782 0 .882.81 1.512 2.142 1.512z" fill="#fff"/>
    <path d="M542 175.982h24" stroke="#94538C" stroke-width="1.5" stroke-dasharray="3 4"/>
    <path fill-rule="evenodd" clip-rule="evenodd" d="m568.919 178.763 3.081-2.781-3.081-2.78a.897.897 0 0 0-1.176 0 .7.7 0 0 0 0 1.061l1.075.969H566v1.5h2.818l-1.075.97a.7.7 0 0 0 0 1.061.897.897 0 0 0 1.176 0z" fill="#94538C"/>
    <rect x="518" y="208.982" width="24" height="24" rx="12" fill="#94538C"/>
    <path d="M528.981 222.698c-2.034 0-3.672-1.17-3.672-3.852 0-2.448 1.836-4.086 4.428-4.086 3.186 0 4.806 2.358 4.806 5.958v.09c0 3.672-1.71 6.372-4.788 6.372-2.322 0-3.708-.936-4.158-2.952l2.502-.432c.216.846.72 1.26 1.674 1.26 1.098 0 1.854-.882 1.998-2.952.018-.252.018-.486.018-.702-.558.792-1.62 1.296-2.808 1.296zm.756-2.034c.81 0 1.512-.432 1.962-1.044v-.234c-.054-1.728-.738-2.592-1.908-2.592-1.152 0-1.764.828-1.764 1.98v.09c0 1.242.702 1.8 1.71 1.8z" fill="#fff"/>
    <path d="M542 220.982h39" stroke="#94538C" stroke-width="1.5" stroke-dasharray="3 4"/>
    <path fill-rule="evenodd" clip-rule="evenodd" d="m583.919 223.763 3.081-2.781-3.081-2.78a.897.897 0 0 0-1.176 0 .7.7 0 0 0 0 1.061l1.075.969H581v1.5h2.818l-1.075.97a.7.7 0 0 0 0 1.061.897.897 0 0 0 1.176 0z" fill="#94538C"/>
    <rect x="260" y="216.982" width="24" height="24" rx="12" fill="#94538C"/>
    <path d="M272.316 235.216c-2.79 0-5.022-1.908-5.022-5.814v-.306c0-3.708 1.926-6.354 5.076-6.354 2.322 0 3.708 1.134 4.212 3.258l-2.502.432c-.216-.9-.72-1.584-1.764-1.584-1.368 0-2.124 1.116-2.214 3.474 0 .144-.018.306-.018.486.612-1.026 1.818-1.566 3.06-1.566 2.322 0 3.744 1.566 3.744 3.726 0 2.34-1.818 4.248-4.572 4.248zm.036-2.016c1.008 0 1.818-.684 1.818-1.908v-.072c0-1.134-.774-1.89-1.836-1.89-.936 0-1.674.594-2.034 1.278-.054.054-.072.108-.108.162.126 1.746 1.008 2.43 2.16 2.43z" fill="#fff"/>
    <path d="M284 228.982h12" stroke="#94538C" stroke-width="1.5" stroke-dasharray="3 4"/>
    <path fill-rule="evenodd" clip-rule="evenodd" d="m298.919 231.763 3.081-2.781-3.081-2.78a.897.897 0 0 0-1.176 0 .7.7 0 0 0 0 1.061l1.075.969H296v1.5h2.818l-1.075.97a.7.7 0 0 0 0 1.061.897.897 0 0 0 1.176 0z" fill="#94538C"/>
    <path d="M659.813 12.035v35" stroke="#94538C" stroke-width="1.5" stroke-dasharray="3 4"/>
    <path fill-rule="evenodd" clip-rule="evenodd" d="m657.032 49.954 2.781 3.081 2.78-3.081a.896.896 0 0 0 0-1.175.7.7 0 0 0-1.061 0l-.969 1.074v-2.818h-1.5v2.818l-.97-1.074a.7.7 0 0 0-1.061 0 .896.896 0 0 0 0 1.175z" fill="#94538C"/>
    <path d="M401.813 12.035v24" stroke="#94538C" stroke-width="1.5" stroke-dasharray="3 4"/>
    <path fill-rule="evenodd" clip-rule="evenodd" d="m399.032 38.954 2.781 3.081 2.78-3.081a.896.896 0 0 0 0-1.175.7.7 0 0 0-1.061 0l-.969 1.074v-2.818h-1.5v2.818l-.97-1.074a.7.7 0 0 0-1.061 0 .896.896 0 0 0 0 1.175z" fill="#94538C"/>
    <path d="M144.813 12.035v24" stroke="#94538C" stroke-width="1.5" stroke-dasharray="3 4"/>
    <path fill-rule="evenodd" clip-rule="evenodd" d="m142.032 38.954 2.781 3.081 2.78-3.081a.896.896 0 0 0 0-1.175.7.7 0 0 0-1.061 0l-.969 1.074v-2.818h-1.5v2.818l-.97-1.074a.7.7 0 0 0-1.061 0 .896.896 0 0 0 0 1.175z" fill="#94538C"/>
    <defs>
        <clipPath id="ijvslsetub">
            <rect x="41.812" y="109.09" width="200" height="176" rx="8" fill="#fff"/>
        </clipPath>
        <clipPath id="d3ahhlddud">
            <rect x="301.813" y="108.965" width="200" height="283" rx="8" fill="#fff"/>
        </clipPath>
        <clipPath id="tzrlnmr1ae">
            <path fill="#fff" transform="translate(301.813 108.965)" d="M0 0h200v31H0z"/>
        </clipPath>
        <clipPath id="z255srpw2f">
            <path fill="#fff" transform="translate(313.813 153.965)" d="M0 0h16v16H0z"/>
        </clipPath>
        <clipPath id="e0iu4z4rsg">
            <path fill="#fff" transform="translate(313.813 197.965)" d="M0 0h16v16H0z"/>
        </clipPath>
        <clipPath id="l589pyh5ah">
            <path fill="#fff" transform="translate(301.813 227.965)" d="M0 0h200v32H0z"/>
        </clipPath>
        <clipPath id="d8p5ql5jui">
            <path fill="#fff" transform="translate(313.813 273.965)" d="M0 0h16v16H0z"/>
        </clipPath>
        <clipPath id="ip1ngx7llj">
            <path fill="#fff" transform="translate(313.813 317.965)" d="M0 0h16v16H0z"/>
        </clipPath>
        <clipPath id="xcq6s4ch3k">
            <path fill="#fff" transform="translate(313.813 361.965)" d="M0 0h16v16H0z"/>
        </clipPath>
        <clipPath id="t8bkxrxhwl">
            <path fill="#fff" transform="translate(393.813 57.965)" d="M0 0h16v16H0z"/>
        </clipPath>
        <clipPath id="0comr7h0dn">
            <rect x="561.813" y="109.035" width="200" height="176" rx="8" fill="#fff"/>
        </clipPath>
        <clipPath id="vyp7269lbo">
            <path fill="#fff" transform="translate(561.813 109.035)" d="M0 0h200v44H0z"/>
        </clipPath>
        <clipPath id="7z0zq58j1p">
            <path fill="#fff" transform="translate(561.813 153.035)" d="M0 0h200v44H0z"/>
        </clipPath>
        <clipPath id="86hatruy8q">
            <path fill="#fff" transform="translate(561.813 197.035)" d="M0 0h200v44H0z"/>
        </clipPath>
        <clipPath id="o4cn84njdr">
            <path fill="#fff" transform="translate(561.813 241.035)" d="M0 0h200v44H0z"/>
        </clipPath>
        <filter id="wpdapygg5a" x="33.812" y="105.09" width="216" height="192" filterUnits="userSpaceOnUse" color-interpolation-filters="sRGB">
            <feFlood flood-opacity="0" result="BackgroundImageFix"/>
            <feColorMatrix in="SourceAlpha" values="0 0 0 0 0 0 0 0 0 0 0 0 0 0 0 0 0 0 127 0" result="hardAlpha"/>
            <feOffset dy="4"/>
            <feGaussianBlur stdDeviation="4"/>
            <feComposite in2="hardAlpha" operator="out"/>
            <feColorMatrix values="0 0 0 0 0.4 0 0 0 0 0.4 0 0 0 0 0.4 0 0 0 0.25 0"/>
            <feBlend in2="BackgroundImageFix" result="effect1_dropShadow_4796_3434"/>
            <feBlend in="SourceGraphic" in2="effect1_dropShadow_4796_3434" result="shape"/>
        </filter>
        <filter id="6n0m14js7c" x="293.813" y="104.965" width="216" height="299" filterUnits="userSpaceOnUse" color-interpolation-filters="sRGB">
            <feFlood flood-opacity="0" result="BackgroundImageFix"/>
            <feColorMatrix in="SourceAlpha" values="0 0 0 0 0 0 0 0 0 0 0 0 0 0 0 0 0 0 127 0" result="hardAlpha"/>
            <feOffset dy="4"/>
            <feGaussianBlur stdDeviation="4"/>
            <feComposite in2="hardAlpha" operator="out"/>
            <feColorMatrix values="0 0 0 0 0.4 0 0 0 0 0.4 0 0 0 0 0.4 0 0 0 0.25 0"/>
            <feBlend in2="BackgroundImageFix" result="effect1_dropShadow_4796_3434"/>
            <feBlend in="SourceGraphic" in2="effect1_dropShadow_4796_3434" result="shape"/>
        </filter>
        <filter id="v9k1gedrgm" x="553.813" y="105.035" width="216" height="192" filterUnits="userSpaceOnUse" color-interpolation-filters="sRGB">
            <feFlood flood-opacity="0" result="BackgroundImageFix"/>
            <feColorMatrix in="SourceAlpha" values="0 0 0 0 0 0 0 0 0 0 0 0 0 0 0 0 0 0 127 0" result="hardAlpha"/>
            <feOffset dy="4"/>
            <feGaussianBlur stdDeviation="4"/>
            <feComposite in2="hardAlpha" operator="out"/>
            <feColorMatrix values="0 0 0 0 0.4 0 0 0 0 0.4 0 0 0 0 0.4 0 0 0 0.25 0"/>
            <feBlend in2="BackgroundImageFix" result="effect1_dropShadow_4796_3434"/>
            <feBlend in="SourceGraphic" in2="effect1_dropShadow_4796_3434" result="shape"/>
        </filter>
    </defs>
</svg>
