<svg width="555" height="196" viewBox="0 0 555 196" fill="none" xmlns="http://www.w3.org/2000/svg">
<rect x="89.5" y="90.5" width="399" height="47" rx="1.5" fill="white"/>
<path d="M98.992 110V106.544H100.936C102.472 106.544 103.432 105.656 103.432 104.276C103.432 102.86 102.568 101.996 100.828 101.996H97.996V110H98.992ZM98.992 102.848H100.912C101.824 102.848 102.424 103.412 102.424 104.312C102.424 105.2 101.824 105.728 100.84 105.728H98.992V102.848ZM105.902 110.072C107.006 110.072 107.702 109.652 108.17 109.004C108.158 109.304 108.206 109.796 108.278 110H109.166C109.07 109.628 109.034 109.22 109.034 108.848V106.16C109.034 104.672 108.386 103.976 106.706 103.976C105.302 103.976 104.378 104.552 104.162 105.632L105.026 105.728C105.218 104.972 105.722 104.708 106.682 104.708C107.678 104.708 108.062 105.056 108.134 105.704C108.158 105.848 108.158 106.052 108.158 106.256C107.69 106.268 107.294 106.268 106.814 106.328C105.194 106.52 104.018 107.156 104.018 108.44C104.018 109.52 104.858 110.072 105.902 110.072ZM106.178 109.388C105.386 109.388 104.99 109.028 104.99 108.344C104.99 107.6 105.65 107.084 106.934 106.916C107.306 106.868 107.738 106.868 108.158 106.868V108.092C107.906 108.704 107.306 109.388 106.178 109.388ZM112.686 110.096C114.126 110.096 115.062 109.364 115.062 108.272C115.062 107.096 114.03 106.76 112.818 106.52C111.87 106.316 111.162 106.196 111.162 105.548C111.162 105.008 111.702 104.684 112.494 104.684C113.298 104.684 113.838 105.044 114.066 105.668L114.894 105.488C114.594 104.564 113.826 103.976 112.494 103.976C111.174 103.976 110.298 104.636 110.298 105.608C110.298 106.772 111.318 107.084 112.53 107.312C113.406 107.504 114.198 107.648 114.198 108.356C114.198 108.98 113.622 109.4 112.686 109.4C111.666 109.4 111.006 108.932 110.814 108.236L109.974 108.404C110.262 109.484 111.186 110.096 112.686 110.096ZM118.194 110.096C119.634 110.096 120.57 109.364 120.57 108.272C120.57 107.096 119.538 106.76 118.326 106.52C117.378 106.316 116.67 106.196 116.67 105.548C116.67 105.008 117.21 104.684 118.002 104.684C118.806 104.684 119.346 105.044 119.574 105.668L120.402 105.488C120.102 104.564 119.334 103.976 118.002 103.976C116.682 103.976 115.806 104.636 115.806 105.608C115.806 106.772 116.826 107.084 118.038 107.312C118.914 107.504 119.706 107.648 119.706 108.356C119.706 108.98 119.13 109.4 118.194 109.4C117.174 109.4 116.514 108.932 116.322 108.236L115.482 108.404C115.77 109.484 116.694 110.096 118.194 110.096ZM123.347 110L124.499 105.968L124.619 105.452L124.763 105.992L125.963 110H126.755L128.519 104.084H127.715L126.563 108.188L126.407 108.692L126.275 108.164L125.063 104.084H124.295L123.167 108.128L123.023 108.668L122.891 108.128L121.715 104.084H120.767L122.555 110H123.347ZM131.666 110.096C133.13 110.096 134.342 108.884 134.342 107.024C134.342 105.2 133.286 103.976 131.666 103.976C130.214 103.976 129.014 105.164 129.014 107.012C129.014 108.884 130.142 110.096 131.666 110.096ZM131.654 109.4C130.658 109.4 129.998 108.512 129.998 107.024C129.998 105.5 130.718 104.708 131.654 104.708C132.638 104.708 133.358 105.476 133.358 107.012C133.358 108.608 132.626 109.4 131.654 109.4ZM136.617 110V106.136C137.109 105.308 137.805 104.828 138.501 104.828C138.573 104.828 138.693 104.828 138.765 104.84V103.988C138.669 103.976 138.597 103.976 138.489 103.976C137.649 103.976 136.953 104.66 136.569 105.356V104.084H135.681V110H136.617ZM141.396 110.096C142.26 110.096 142.86 109.748 143.328 109.1V110H144.204V101.996H143.304V104.888C143.028 104.492 142.464 103.976 141.564 103.976C140.052 103.976 139.14 105.308 139.14 107.06C139.14 108.992 139.968 110.096 141.396 110.096ZM141.648 109.388C140.664 109.388 140.112 108.704 140.112 107.06C140.112 105.548 140.64 104.708 141.708 104.708C142.584 104.708 142.992 105.212 143.292 105.776V108.188C143.04 108.848 142.536 109.388 141.648 109.388Z" fill="#666666"/>
<path d="M99.656 126V121.392H102.248C104.296 121.392 105.576 120.208 105.576 118.368C105.576 116.48 104.424 115.328 102.104 115.328H98.328V126H99.656ZM99.656 116.464H102.216C103.432 116.464 104.232 117.216 104.232 118.416C104.232 119.6 103.432 120.304 102.12 120.304H99.656V116.464ZM108.869 126.096C110.341 126.096 111.269 125.536 111.893 124.672C111.877 125.072 111.941 125.728 112.037 126H113.221C113.093 125.504 113.045 124.96 113.045 124.464V120.88C113.045 118.896 112.181 117.968 109.941 117.968C108.069 117.968 106.837 118.736 106.549 120.176L107.701 120.304C107.957 119.296 108.629 118.944 109.909 118.944C111.237 118.944 111.749 119.408 111.845 120.272C111.877 120.464 111.877 120.736 111.877 121.008C111.253 121.024 110.725 121.024 110.085 121.104C107.925 121.36 106.357 122.208 106.357 123.92C106.357 125.36 107.477 126.096 108.869 126.096ZM109.237 125.184C108.181 125.184 107.653 124.704 107.653 123.792C107.653 122.8 108.533 122.112 110.245 121.888C110.741 121.824 111.317 121.824 111.877 121.824V123.456C111.541 124.272 110.741 125.184 109.237 125.184ZM117.915 126.128C119.835 126.128 121.083 125.152 121.083 123.696C121.083 122.128 119.707 121.68 118.091 121.36C116.827 121.088 115.883 120.928 115.883 120.064C115.883 119.344 116.603 118.912 117.659 118.912C118.731 118.912 119.451 119.392 119.755 120.224L120.859 119.984C120.459 118.752 119.435 117.968 117.659 117.968C115.899 117.968 114.731 118.848 114.731 120.144C114.731 121.696 116.091 122.112 117.707 122.416C118.875 122.672 119.931 122.864 119.931 123.808C119.931 124.64 119.163 125.2 117.915 125.2C116.555 125.2 115.675 124.576 115.419 123.648L114.299 123.872C114.683 125.312 115.915 126.128 117.915 126.128ZM125.259 126.128C127.179 126.128 128.427 125.152 128.427 123.696C128.427 122.128 127.051 121.68 125.435 121.36C124.171 121.088 123.227 120.928 123.227 120.064C123.227 119.344 123.947 118.912 125.003 118.912C126.075 118.912 126.795 119.392 127.099 120.224L128.203 119.984C127.803 118.752 126.779 117.968 125.003 117.968C123.243 117.968 122.075 118.848 122.075 120.144C122.075 121.696 123.435 122.112 125.051 122.416C126.219 122.672 127.275 122.864 127.275 123.808C127.275 124.64 126.507 125.2 125.259 125.2C123.899 125.2 123.019 124.576 122.763 123.648L121.643 123.872C122.027 125.312 123.259 126.128 125.259 126.128ZM132.13 126L133.666 120.624L133.826 119.936L134.018 120.656L135.618 126H136.674L139.026 118.112H137.954L136.418 123.584L136.21 124.256L136.034 123.552L134.418 118.112H133.394L131.89 123.504L131.698 124.224L131.522 123.504L129.954 118.112H128.69L131.074 126H132.13ZM143.222 126.128C145.174 126.128 146.79 124.512 146.79 122.032C146.79 119.6 145.382 117.968 143.222 117.968C141.286 117.968 139.686 119.552 139.686 122.016C139.686 124.512 141.19 126.128 143.222 126.128ZM143.206 125.2C141.878 125.2 140.998 124.016 140.998 122.032C140.998 120 141.958 118.944 143.206 118.944C144.518 118.944 145.478 119.968 145.478 122.016C145.478 124.144 144.502 125.2 143.206 125.2ZM149.823 126V120.848C150.479 119.744 151.407 119.104 152.335 119.104C152.431 119.104 152.591 119.104 152.687 119.12V117.984C152.559 117.968 152.463 117.968 152.319 117.968C151.199 117.968 150.271 118.88 149.759 119.808V118.112H148.575V126H149.823ZM156.194 126.128C157.346 126.128 158.146 125.664 158.77 124.8V126H159.938V115.328H158.738V119.184C158.37 118.656 157.618 117.968 156.418 117.968C154.402 117.968 153.186 119.744 153.186 122.08C153.186 124.656 154.29 126.128 156.194 126.128ZM156.53 125.184C155.218 125.184 154.482 124.272 154.482 122.08C154.482 120.064 155.186 118.944 156.61 118.944C157.778 118.944 158.322 119.616 158.722 120.368V123.584C158.386 124.464 157.714 125.184 156.53 125.184ZM169.851 126L173.451 115.328H172.235L169.659 123.104C169.595 123.264 169.355 124.048 169.307 124.256C169.275 124.048 169.019 123.216 168.987 123.104L166.363 115.328H164.955L168.555 126H169.851ZM176.119 126.096C177.591 126.096 178.519 125.536 179.143 124.672C179.127 125.072 179.191 125.728 179.287 126H180.471C180.343 125.504 180.295 124.96 180.295 124.464V120.88C180.295 118.896 179.431 117.968 177.191 117.968C175.319 117.968 174.087 118.736 173.799 120.176L174.951 120.304C175.207 119.296 175.879 118.944 177.159 118.944C178.487 118.944 178.999 119.408 179.095 120.272C179.127 120.464 179.127 120.736 179.127 121.008C178.503 121.024 177.975 121.024 177.335 121.104C175.175 121.36 173.607 122.208 173.607 123.92C173.607 125.36 174.727 126.096 176.119 126.096ZM176.487 125.184C175.431 125.184 174.903 124.704 174.903 123.792C174.903 122.8 175.783 122.112 177.495 121.888C177.991 121.824 178.567 121.824 179.127 121.824V123.456C178.791 124.272 177.991 125.184 176.487 125.184ZM183.949 126V115.328H182.701V126H183.949ZM188.772 126.128C189.828 126.128 190.788 125.664 191.412 124.656V126H192.564V118.112H191.332V123.712C190.804 124.672 190.036 125.184 189.156 125.184C188.052 125.184 187.588 124.688 187.588 123.44V118.112H186.34V123.408C186.34 125.392 187.348 126.128 188.772 126.128ZM197.974 126.128C199.542 126.128 200.758 125.312 201.302 123.792L200.214 123.632C199.766 124.8 198.95 125.184 198.086 125.184C196.55 125.184 195.654 124.176 195.622 122.192H201.446C201.43 122.016 201.446 121.84 201.43 121.664C201.27 119.472 200.07 117.968 198.006 117.968C195.974 117.968 194.358 119.52 194.358 122.192C194.358 124.544 195.814 126.128 197.974 126.128ZM195.67 121.344C195.766 119.856 196.742 118.912 198.006 118.912C199.27 118.912 200.054 119.824 200.182 121.344H195.67Z" fill="#111111"/>
<path d="M445 114C445 102.954 453.954 94 465 94V94C476.046 94 485 102.954 485 114V114C485 125.046 476.046 134 465 134V134C453.954 134 445 125.046 445 114V114Z" fill="white"/>
<path d="M459.7 109.24L460.7 110.42C459.581 111.256 458.682 112.35 458.08 113.61L457.91 114L458.08 114.39C458.16 114.58 460.11 119 465 119C465.854 119.002 466.7 118.849 467.5 118.55L468.82 120.12L469.58 119.48L460.47 108.6L459.7 109.24ZM463.13 113.33L465.34 116C465.227 116.01 465.113 116.01 465 116C464.469 116 463.961 115.789 463.586 115.414C463.211 115.039 463 114.53 463 114C463.002 113.771 463.046 113.543 463.13 113.33ZM462.43 112.5C462.157 112.953 462.008 113.471 462 114C462 114.796 462.316 115.559 462.879 116.121C463.441 116.684 464.204 117 465 117C465.342 116.994 465.68 116.93 466 116.81L466.77 117.73C466.196 117.904 465.6 117.995 465 118C460.71 118 459 114 459 114C459.54 112.89 460.339 111.926 461.33 111.19L462.43 112.5Z" fill="#666666"/>
<path d="M467.56 115.55C467.878 115.015 468.022 114.395 467.972 113.774C467.922 113.154 467.68 112.565 467.28 112.088C466.881 111.611 466.342 111.27 465.74 111.113C465.138 110.956 464.502 110.99 463.92 111.21L464.61 112C464.739 111.985 464.87 111.985 465 112C465.53 112 466.039 112.211 466.414 112.586C466.789 112.961 467 113.47 467 114C467 114.247 466.952 114.491 466.86 114.72L467.56 115.55Z" fill="#666666"/>
<path d="M471.92 113.61C471.84 113.42 469.89 109 465 109C464.13 108.999 463.267 109.151 462.45 109.45L463.14 110.28C463.742 110.094 464.369 110 465 110C469.29 110 471 114 471 114C470.454 115.126 469.64 116.101 468.63 116.84L469.28 117.61C470.413 116.772 471.32 115.665 471.92 114.39L472.09 114L471.92 113.61Z" fill="#666666"/>
<rect x="89.5" y="90.5" width="399" height="47" rx="1.5" stroke="#E9E9E9"/>
<rect x="89.5" y="148.5" width="399" height="47" rx="1.5" fill="white"/>
<path d="M98.992 168V164.544H100.936C102.472 164.544 103.432 163.656 103.432 162.276C103.432 160.86 102.568 159.996 100.828 159.996H97.996V168H98.992ZM98.992 160.848H100.912C101.824 160.848 102.424 161.412 102.424 162.312C102.424 163.2 101.824 163.728 100.84 163.728H98.992V160.848ZM105.902 168.072C107.006 168.072 107.702 167.652 108.17 167.004C108.158 167.304 108.206 167.796 108.278 168H109.166C109.07 167.628 109.034 167.22 109.034 166.848V164.16C109.034 162.672 108.386 161.976 106.706 161.976C105.302 161.976 104.378 162.552 104.162 163.632L105.026 163.728C105.218 162.972 105.722 162.708 106.682 162.708C107.678 162.708 108.062 163.056 108.134 163.704C108.158 163.848 108.158 164.052 108.158 164.256C107.69 164.268 107.294 164.268 106.814 164.328C105.194 164.52 104.018 165.156 104.018 166.44C104.018 167.52 104.858 168.072 105.902 168.072ZM106.178 167.388C105.386 167.388 104.99 167.028 104.99 166.344C104.99 165.6 105.65 165.084 106.934 164.916C107.306 164.868 107.738 164.868 108.158 164.868V166.092C107.906 166.704 107.306 167.388 106.178 167.388ZM112.686 168.096C114.126 168.096 115.062 167.364 115.062 166.272C115.062 165.096 114.03 164.76 112.818 164.52C111.87 164.316 111.162 164.196 111.162 163.548C111.162 163.008 111.702 162.684 112.494 162.684C113.298 162.684 113.838 163.044 114.066 163.668L114.894 163.488C114.594 162.564 113.826 161.976 112.494 161.976C111.174 161.976 110.298 162.636 110.298 163.608C110.298 164.772 111.318 165.084 112.53 165.312C113.406 165.504 114.198 165.648 114.198 166.356C114.198 166.98 113.622 167.4 112.686 167.4C111.666 167.4 111.006 166.932 110.814 166.236L109.974 166.404C110.262 167.484 111.186 168.096 112.686 168.096ZM118.194 168.096C119.634 168.096 120.57 167.364 120.57 166.272C120.57 165.096 119.538 164.76 118.326 164.52C117.378 164.316 116.67 164.196 116.67 163.548C116.67 163.008 117.21 162.684 118.002 162.684C118.806 162.684 119.346 163.044 119.574 163.668L120.402 163.488C120.102 162.564 119.334 161.976 118.002 161.976C116.682 161.976 115.806 162.636 115.806 163.608C115.806 164.772 116.826 165.084 118.038 165.312C118.914 165.504 119.706 165.648 119.706 166.356C119.706 166.98 119.13 167.4 118.194 167.4C117.174 167.4 116.514 166.932 116.322 166.236L115.482 166.404C115.77 167.484 116.694 168.096 118.194 168.096ZM123.347 168L124.499 163.968L124.619 163.452L124.763 163.992L125.963 168H126.755L128.519 162.084H127.715L126.563 166.188L126.407 166.692L126.275 166.164L125.063 162.084H124.295L123.167 166.128L123.023 166.668L122.891 166.128L121.715 162.084H120.767L122.555 168H123.347ZM131.666 168.096C133.13 168.096 134.342 166.884 134.342 165.024C134.342 163.2 133.286 161.976 131.666 161.976C130.214 161.976 129.014 163.164 129.014 165.012C129.014 166.884 130.142 168.096 131.666 168.096ZM131.654 167.4C130.658 167.4 129.998 166.512 129.998 165.024C129.998 163.5 130.718 162.708 131.654 162.708C132.638 162.708 133.358 163.476 133.358 165.012C133.358 166.608 132.626 167.4 131.654 167.4ZM136.617 168V164.136C137.109 163.308 137.805 162.828 138.501 162.828C138.573 162.828 138.693 162.828 138.765 162.84V161.988C138.669 161.976 138.597 161.976 138.489 161.976C137.649 161.976 136.953 162.66 136.569 163.356V162.084H135.681V168H136.617ZM141.396 168.096C142.26 168.096 142.86 167.748 143.328 167.1V168H144.204V159.996H143.304V162.888C143.028 162.492 142.464 161.976 141.564 161.976C140.052 161.976 139.14 163.308 139.14 165.06C139.14 166.992 139.968 168.096 141.396 168.096ZM141.648 167.388C140.664 167.388 140.112 166.704 140.112 165.06C140.112 163.548 140.64 162.708 141.708 162.708C142.584 162.708 142.992 163.212 143.292 163.776V166.188C143.04 166.848 142.536 167.388 141.648 167.388Z" fill="#666666"/>
<path d="M101.016 180.8C102.216 180.8 103.208 179.792 103.208 178.56C103.208 177.328 102.2 176.32 101 176.32C99.784 176.32 98.792 177.328 98.792 178.56C98.792 179.792 99.8 180.8 101.016 180.8ZM109.016 180.8C110.216 180.8 111.208 179.792 111.208 178.56C111.208 177.328 110.2 176.32 109 176.32C107.784 176.32 106.792 177.328 106.792 178.56C106.792 179.792 107.8 180.8 109.016 180.8ZM117.016 180.8C118.216 180.8 119.208 179.792 119.208 178.56C119.208 177.328 118.2 176.32 117 176.32C115.784 176.32 114.792 177.328 114.792 178.56C114.792 179.792 115.8 180.8 117.016 180.8ZM125.016 180.8C126.216 180.8 127.208 179.792 127.208 178.56C127.208 177.328 126.2 176.32 125 176.32C123.784 176.32 122.792 177.328 122.792 178.56C122.792 179.792 123.8 180.8 125.016 180.8ZM133.016 180.8C134.216 180.8 135.208 179.792 135.208 178.56C135.208 177.328 134.2 176.32 133 176.32C131.784 176.32 130.792 177.328 130.792 178.56C130.792 179.792 131.8 180.8 133.016 180.8ZM141.016 180.8C142.216 180.8 143.208 179.792 143.208 178.56C143.208 177.328 142.2 176.32 141 176.32C139.784 176.32 138.792 177.328 138.792 178.56C138.792 179.792 139.8 180.8 141.016 180.8ZM149.016 180.8C150.216 180.8 151.208 179.792 151.208 178.56C151.208 177.328 150.2 176.32 149 176.32C147.784 176.32 146.792 177.328 146.792 178.56C146.792 179.792 147.8 180.8 149.016 180.8ZM157.016 180.8C158.216 180.8 159.208 179.792 159.208 178.56C159.208 177.328 158.2 176.32 157 176.32C155.784 176.32 154.792 177.328 154.792 178.56C154.792 179.792 155.8 180.8 157.016 180.8ZM165.016 180.8C166.216 180.8 167.208 179.792 167.208 178.56C167.208 177.328 166.2 176.32 165 176.32C163.784 176.32 162.792 177.328 162.792 178.56C162.792 179.792 163.8 180.8 165.016 180.8ZM173.016 180.8C174.216 180.8 175.208 179.792 175.208 178.56C175.208 177.328 174.2 176.32 173 176.32C171.784 176.32 170.792 177.328 170.792 178.56C170.792 179.792 171.8 180.8 173.016 180.8Z" fill="#111111"/>
<path d="M445 172C445 160.954 453.954 152 465 152V152C476.046 152 485 160.954 485 172V172C485 183.046 476.046 192 465 192V192C453.954 192 445 183.046 445 172V172Z" fill="white"/>
<path d="M471.92 171.61C471.84 171.42 469.89 167 465 167C460.11 167 458.16 171.42 458.08 171.61L457.91 172L458.08 172.39C458.16 172.58 460.11 177 465 177C469.89 177 471.84 172.58 471.92 172.39L472.09 172L471.92 171.61ZM465 176C460.71 176 459 172 459 172C459 172 460.71 168 465 168C469.29 168 471 172 471 172C471 172 469.29 176 465 176Z" fill="#666666"/>
<path d="M465 169C464.407 169 463.827 169.176 463.333 169.506C462.84 169.835 462.455 170.304 462.228 170.852C462.001 171.4 461.942 172.003 462.058 172.585C462.173 173.167 462.459 173.702 462.879 174.121C463.298 174.541 463.833 174.827 464.415 174.942C464.997 175.058 465.6 174.999 466.148 174.772C466.696 174.545 467.165 174.16 467.494 173.667C467.824 173.173 468 172.593 468 172C468 171.204 467.684 170.441 467.121 169.879C466.559 169.316 465.796 169 465 169ZM465 174C464.604 174 464.218 173.883 463.889 173.663C463.56 173.443 463.304 173.131 463.152 172.765C463.001 172.4 462.961 171.998 463.038 171.61C463.116 171.222 463.306 170.865 463.586 170.586C463.865 170.306 464.222 170.116 464.61 170.038C464.998 169.961 465.4 170.001 465.765 170.152C466.131 170.304 466.443 170.56 466.663 170.889C466.883 171.218 467 171.604 467 172C467 172.53 466.789 173.039 466.414 173.414C466.039 173.789 465.53 174 465 174Z" fill="#666666"/>
<rect x="89.5" y="148.5" width="399" height="47" rx="1.5" stroke="#E9E9E9"/>
<rect y="90" width="28" height="28" rx="14" fill="#94538C"/>
<path d="M17.8319 110V108.88H11.7519C15.7199 106.176 17.5919 104.432 17.5919 102.416C17.5919 100.448 16.2479 99.152 13.9919 99.152C11.7999 99.152 10.4879 100.4 10.1359 102.336L11.3679 102.576C11.5599 101.056 12.5519 100.24 13.9439 100.24C15.5279 100.24 16.2479 101.168 16.2479 102.336C16.2479 104.144 15.1119 105.28 10.1359 108.96V110H17.8319Z" fill="#FCFCFC"/>
<line x1="32" y1="103.5" x2="89" y2="103.5" stroke="#94538C" stroke-dasharray="2 2"/>
<rect y="164" width="28" height="28" rx="14" fill="#94538C"/>
<path d="M17.2926 184V182.944H14.9406V173.12H13.9806C13.2926 174.256 12.5406 175.088 11.3726 175.728V177.104C12.8926 176.24 13.2766 175.552 13.6606 175.104V182.944H11.2606V184H17.2926Z" fill="#FCFCFC"/>
<line x1="32" y1="177.5" x2="89" y2="177.5" stroke="#94538C" stroke-dasharray="2 2"/>
<rect x="451" y="14" width="28" height="28" rx="14" fill="#94538C"/>
<path d="M467.376 34V31.504H469.088V30.4H467.376V23.12H465.968L460.8 30.48V31.504H466.128V34H467.376ZM466.128 24.576V30.4H461.984L466.128 24.576Z" fill="#FCFCFC"/>
<line x1="465.5" y1="42" x2="465.5" y2="104" stroke="#94538C" stroke-dasharray="2 2"/>
<rect x="314" width="28" height="28" rx="14" fill="#94538C"/>
<path d="M327.944 20.192C330.472 20.192 331.864 18.832 331.864 17.056C331.864 15.648 330.92 14.688 329.416 14.384C330.728 14.064 331.464 13.136 331.464 11.888C331.464 10.288 330.232 9.136 327.88 9.136C326.12 9.136 324.744 10.016 324.184 11.68L325.384 11.92C325.688 10.88 326.584 10.224 327.912 10.224C329.288 10.224 330.136 10.88 330.136 12.016C330.136 13.248 329.288 13.904 327.64 13.904H326.408V14.992H327.64C329.512 14.992 330.52 15.824 330.52 17.04C330.52 18.208 329.688 19.136 327.912 19.136C326.248 19.136 325.416 18.544 325.048 17.216L323.8 17.456C324.296 19.344 325.72 20.192 327.944 20.192Z" fill="#FCFCFC"/>
<line x1="328.5" y1="28" x2="328.5" y2="90" stroke="#94538C" stroke-dasharray="2 2"/>
<line x1="479" y1="171.5" x2="523" y2="171.5" stroke="#94538C" stroke-dasharray="2 2"/>
<rect x="527" y="158" width="28" height="28" rx="14" fill="#94538C"/>
<path d="M543.376 178V175.504H545.088V174.4H543.376V167.12H541.968L536.8 174.48V175.504H542.128V178H543.376ZM542.128 168.576V174.4H537.984L542.128 168.576Z" fill="#FCFCFC"/>
</svg>
