<svg width="506" height="186" viewBox="0 0 506 186" fill="none" xmlns="http://www.w3.org/2000/svg">
<rect x="6" y="75.9999" width="500" height="45.0417" fill="white"/>
<rect x="6" y="121" width="500" height="1" fill="#E9E9E9"/>
<rect width="61" height="44" transform="translate(6 76)" fill="white"/>
<g clip-path="url(#clip0_2515_49860)">
<path d="M14 91C12.3827 91.0116 10.8193 91.5829 9.57559 92.6168C8.33186 93.6507 7.4845 95.0833 7.17754 96.6712C6.87058 98.2592 7.12295 99.9044 7.89176 101.327C8.66058 102.75 9.89839 103.863 11.3948 104.477C12.8913 105.09 14.554 105.167 16.1004 104.693C17.6468 104.219 18.9815 103.225 19.8776 101.878C20.7737 100.532 21.176 98.9167 21.016 97.3073C20.856 95.698 20.1436 94.1936 19 93.05C18.344 92.394 17.5641 91.875 16.7058 91.5231C15.8474 91.1711 14.9277 90.9933 14 91ZM14 104C12.6118 104.001 11.2661 103.521 10.1923 102.641C9.11844 101.762 8.38288 100.537 8.11094 99.1753C7.83901 97.814 8.04752 96.4006 8.70096 95.1758C9.35439 93.951 10.4123 92.9907 11.6944 92.4585C12.9766 91.9262 14.4036 91.8551 15.7323 92.2571C17.061 92.6591 18.2092 93.5094 18.9812 94.6632C19.7533 95.8169 20.1014 97.2026 19.9662 98.5842C19.831 99.9658 19.221 101.258 18.24 102.24C17.1158 103.366 15.5907 103.999 14 104Z" fill="#111111"/>
<path d="M14.5 94.5H13.5V95.5H14.5V94.5Z" fill="#111111"/>
<path d="M14.5 96.5H12.5V97.5H13.5V101H12.5V102H15.5V101H14.5V96.5Z" fill="#111111"/>
</g>
<path d="M34.128 104V101.984H29.696V93.328H27.056V104H34.128ZM37.3171 104.096C38.7251 104.096 39.5571 103.68 40.2451 102.976C40.2451 103.424 40.2771 103.84 40.3731 104H42.7411C42.5971 103.696 42.5651 102.912 42.5651 102.448V98.784C42.5651 97.072 41.7971 95.92 39.1251 95.92C36.7891 95.92 35.4611 96.736 35.0771 98.32L37.3491 98.528C37.5091 97.856 37.9571 97.536 38.8851 97.536C39.7491 97.536 40.1171 97.92 40.1651 98.544C40.1651 98.608 40.1811 98.848 40.1811 98.928C39.8451 98.944 39.5251 98.976 39.2211 99.008C36.4531 99.28 34.8691 100.16 34.8691 101.92C34.8691 103.264 35.8451 104.096 37.3171 104.096ZM38.4371 102.56C37.8131 102.56 37.4291 102.288 37.4291 101.696C37.4291 100.944 38.1171 100.48 39.3331 100.272C39.5891 100.224 39.8771 100.192 40.1811 100.176V101.568C39.8451 102.08 39.2531 102.56 38.4371 102.56ZM48.94 104.112C50.828 104.112 52.14 102.736 52.14 100.016C52.14 97.312 51.148 95.92 49.324 95.92C48.092 95.92 47.356 96.592 46.908 97.28V93.328H44.46V104H45.964L46.316 102.832C46.924 103.632 47.644 104.112 48.94 104.112ZM48.252 102.592C47.42 102.592 46.924 102.032 46.924 100.88V98.656C47.18 98.096 47.58 97.616 48.3 97.616C49.228 97.616 49.58 98.416 49.58 100.096C49.58 101.888 49.228 102.592 48.252 102.592ZM57.2326 104.128C59.2806 104.128 60.5926 103.136 61.1206 101.632L59.0566 101.36C58.7686 102.144 58.2566 102.544 57.4566 102.544C56.4806 102.544 55.7446 101.92 55.7126 100.496H61.2006C61.2166 100.32 61.2166 100.192 61.2166 100.016C61.1526 97.552 59.6966 95.92 57.2166 95.92C55.0086 95.92 53.1206 97.584 53.1206 100.144C53.1206 102.56 54.8486 104.128 57.2326 104.128ZM55.7446 99.2C55.8086 98.112 56.4486 97.472 57.2486 97.472C58.1766 97.472 58.6406 98.128 58.7206 99.2H55.7446ZM65.1123 104V93.328H62.6163V104H65.1123Z" fill="#111111"/>
<rect x="6" y="120" width="61" height="2" fill="#111111"/>
<rect width="37" height="45" transform="translate(79 76)" fill="white"/>
<path d="M86.6 104V102.848H81.656V93.328H80.328V104H86.6ZM89.9161 104.096C91.3881 104.096 92.3161 103.536 92.9401 102.672C92.9241 103.072 92.9881 103.728 93.0841 104H94.2681C94.1401 103.504 94.0921 102.96 94.0921 102.464V98.88C94.0921 96.896 93.2281 95.968 90.9881 95.968C89.1161 95.968 87.8841 96.736 87.5961 98.176L88.7481 98.304C89.0041 97.296 89.6761 96.944 90.9561 96.944C92.2841 96.944 92.7961 97.408 92.8921 98.272C92.9241 98.464 92.9241 98.736 92.9241 99.008C92.3001 99.024 91.7721 99.024 91.1321 99.104C88.9721 99.36 87.4041 100.208 87.4041 101.92C87.4041 103.36 88.5241 104.096 89.9161 104.096ZM90.2841 103.184C89.2281 103.184 88.7001 102.704 88.7001 101.792C88.7001 100.8 89.5801 100.112 91.2921 99.888C91.7881 99.824 92.3641 99.824 92.9241 99.824V101.456C92.5881 102.272 91.7881 103.184 90.2841 103.184ZM100.098 104.112C101.89 104.112 103.186 102.752 103.186 100.032C103.186 97.392 102.082 95.968 100.194 95.968C99.0576 95.968 98.0496 96.752 97.6496 97.616V93.328H96.4656V104H97.1536L97.5536 102.688C98.0656 103.584 98.9136 104.112 100.098 104.112ZM99.8576 103.216C98.5936 103.216 97.6656 102.272 97.6656 100.624V98.72C98.0976 97.808 98.7536 96.96 99.9056 96.96C101.234 96.96 101.906 98 101.906 100.064C101.906 102.272 101.202 103.216 99.8576 103.216ZM108.021 104.128C109.589 104.128 110.805 103.312 111.349 101.792L110.261 101.632C109.813 102.8 108.997 103.184 108.133 103.184C106.597 103.184 105.701 102.176 105.669 100.192H111.493C111.477 100.016 111.493 99.84 111.477 99.664C111.317 97.472 110.117 95.968 108.053 95.968C106.021 95.968 104.405 97.52 104.405 100.192C104.405 102.544 105.861 104.128 108.021 104.128ZM105.717 99.344C105.813 97.856 106.789 96.912 108.053 96.912C109.317 96.912 110.101 97.824 110.229 99.344H105.717ZM114.496 104V93.328H113.248V104H114.496Z" fill="#111111"/>
<rect x="79" y="121" width="37" height="1" fill="#E9E9E9"/>
<rect width="37" height="45" transform="translate(128 76)" fill="white"/>
<path d="M135.6 104V102.848H130.656V93.328H129.328V104H135.6ZM138.916 104.096C140.388 104.096 141.316 103.536 141.94 102.672C141.924 103.072 141.988 103.728 142.084 104H143.268C143.14 103.504 143.092 102.96 143.092 102.464V98.88C143.092 96.896 142.228 95.968 139.988 95.968C138.116 95.968 136.884 96.736 136.596 98.176L137.748 98.304C138.004 97.296 138.676 96.944 139.956 96.944C141.284 96.944 141.796 97.408 141.892 98.272C141.924 98.464 141.924 98.736 141.924 99.008C141.3 99.024 140.772 99.024 140.132 99.104C137.972 99.36 136.404 100.208 136.404 101.92C136.404 103.36 137.524 104.096 138.916 104.096ZM139.284 103.184C138.228 103.184 137.7 102.704 137.7 101.792C137.7 100.8 138.58 100.112 140.292 99.888C140.788 99.824 141.364 99.824 141.924 99.824V101.456C141.588 102.272 140.788 103.184 139.284 103.184ZM149.098 104.112C150.89 104.112 152.186 102.752 152.186 100.032C152.186 97.392 151.082 95.968 149.194 95.968C148.058 95.968 147.05 96.752 146.65 97.616V93.328H145.466V104H146.154L146.554 102.688C147.066 103.584 147.914 104.112 149.098 104.112ZM148.858 103.216C147.594 103.216 146.666 102.272 146.666 100.624V98.72C147.098 97.808 147.754 96.96 148.906 96.96C150.234 96.96 150.906 98 150.906 100.064C150.906 102.272 150.202 103.216 148.858 103.216ZM157.021 104.128C158.589 104.128 159.805 103.312 160.349 101.792L159.261 101.632C158.813 102.8 157.997 103.184 157.133 103.184C155.597 103.184 154.701 102.176 154.669 100.192H160.493C160.477 100.016 160.493 99.84 160.477 99.664C160.317 97.472 159.117 95.968 157.053 95.968C155.021 95.968 153.405 97.52 153.405 100.192C153.405 102.544 154.861 104.128 157.021 104.128ZM154.717 99.344C154.813 97.856 155.789 96.912 157.053 96.912C158.317 96.912 159.101 97.824 159.229 99.344H154.717ZM163.496 104V93.328H162.248V104H163.496Z" fill="#111111"/>
<rect x="128" y="121" width="37" height="1" fill="#E9E9E9"/>
<rect x="469" y="28" width="28" height="28" rx="14" fill="#94538C"/>
<path d="M485.376 48V45.504H487.088V44.4H485.376V37.12H483.968L478.8 44.48V45.504H484.128V48H485.376ZM484.128 38.576V44.4H479.984L484.128 38.576Z" fill="white"/>
<line x1="483.5" y1="56" x2="483.5" y2="100" stroke="#94538C" stroke-dasharray="2 2"/>
<rect y="18" width="28" height="28" rx="14" fill="#94538C"/>
<path d="M13.9439 38.192C16.4719 38.192 17.8639 36.832 17.8639 35.056C17.8639 33.648 16.9199 32.688 15.4159 32.384C16.7279 32.064 17.4639 31.136 17.4639 29.888C17.4639 28.288 16.2319 27.136 13.8799 27.136C12.1199 27.136 10.7439 28.016 10.1839 29.68L11.3839 29.92C11.6879 28.88 12.5839 28.224 13.9119 28.224C15.2879 28.224 16.1359 28.88 16.1359 30.016C16.1359 31.248 15.2879 31.904 13.6399 31.904H12.4079V32.992H13.6399C15.5119 32.992 16.5199 33.824 16.5199 35.04C16.5199 36.208 15.6879 37.136 13.9119 37.136C12.2479 37.136 11.4159 36.544 11.0479 35.216L9.79994 35.456C10.2959 37.344 11.7199 38.192 13.9439 38.192Z" fill="white"/>
<line x1="14.5" y1="46" x2="14.5" y2="90" stroke="#94538C" stroke-dasharray="2 2"/>
<rect x="38" width="28" height="28" rx="14" fill="#94538C"/>
<path d="M55.2926 20V18.944H52.9406V9.12H51.9806C51.2926 10.256 50.5406 11.088 49.3726 11.728V13.104C50.8926 12.24 51.2766 11.552 51.6606 11.104V18.944H49.2606V20H55.2926Z" fill="white"/>
<line x1="52.5" y1="28" x2="52.5" y2="92" stroke="#94538C" stroke-dasharray="2 2"/>
<rect x="63" y="186" width="28" height="28" rx="14" transform="rotate(-180 63 186)" fill="#94538C"/>
<path d="M52.8319 178V176.88H46.7519C50.7199 174.176 52.5919 172.432 52.5919 170.416C52.5919 168.448 51.2479 167.152 48.9919 167.152C46.7999 167.152 45.4879 168.4 45.1359 170.336L46.3679 170.576C46.5599 169.056 47.5519 168.24 48.9439 168.24C50.5279 168.24 51.2479 169.168 51.2479 170.336C51.2479 172.144 50.1119 173.28 45.1359 176.96V178H52.8319Z" fill="white"/>
<line x1="48.5" y1="158" x2="48.5" y2="123" stroke="#94538C" stroke-dasharray="2 2"/>
<defs>
<clipPath id="clip0_2515_49860">
<rect width="16" height="16" fill="white" transform="translate(6 90)"/>
</clipPath>
</defs>
</svg>
