<svg width="406" height="466" viewBox="0 0 406 466" fill="none" xmlns="http://www.w3.org/2000/svg">
<rect x="53.5" y="72.5" width="299" height="47" fill="white"/>
<path d="M68.444 92.132C66.704 92.132 65.672 91.436 65.144 90.104L65.996 89.768C66.368 90.74 67.052 91.316 68.456 91.316C69.632 91.316 70.364 90.824 70.364 89.912C70.364 88.916 69.44 88.628 68.12 88.28C66.644 87.908 65.528 87.38 65.528 85.964C65.528 84.668 66.656 83.84 68.204 83.84C69.704 83.84 70.748 84.56 71.132 85.808L70.208 86.096C69.968 85.196 69.2 84.668 68.192 84.668C67.184 84.668 66.524 85.172 66.524 85.856C66.524 86.744 67.112 87.044 68.756 87.476C70.436 87.92 71.348 88.484 71.348 89.828C71.348 91.244 70.268 92.132 68.444 92.132ZM75.0352 92.096C73.4152 92.096 72.3232 90.908 72.3232 89.144C72.3232 87.14 73.5352 85.976 75.0592 85.976C76.6072 85.976 77.5072 87.104 77.6272 88.748C77.6392 88.88 77.6272 89.012 77.6392 89.144H73.2712C73.2952 90.632 73.9672 91.388 75.1192 91.388C75.7672 91.388 76.3792 91.1 76.7152 90.224L77.5312 90.344C77.1232 91.484 76.2112 92.096 75.0352 92.096ZM73.3072 88.508H76.6912C76.5952 87.368 76.0072 86.684 75.0592 86.684C74.1112 86.684 73.3792 87.392 73.3072 88.508ZM80.3473 92.072C79.3033 92.072 78.4633 91.52 78.4633 90.44C78.4633 89.156 79.6393 88.52 81.2593 88.328C81.7393 88.268 82.1353 88.268 82.6033 88.256C82.6033 88.052 82.6033 87.848 82.5793 87.704C82.5073 87.056 82.1233 86.708 81.1273 86.708C80.1673 86.708 79.6633 86.972 79.4713 87.728L78.6073 87.632C78.8232 86.552 79.7473 85.976 81.1513 85.976C82.8313 85.976 83.4793 86.672 83.4793 88.16V90.848C83.4793 91.22 83.5153 91.628 83.6113 92H82.7233C82.6513 91.796 82.6033 91.304 82.6153 91.004C82.1473 91.652 81.4513 92.072 80.3473 92.072ZM80.6233 91.388C81.7513 91.388 82.3513 90.704 82.6033 90.092V88.868C82.1833 88.868 81.7513 88.868 81.3793 88.916C80.0953 89.084 79.4353 89.6 79.4353 90.344C79.4353 91.028 79.8313 91.388 80.6233 91.388ZM86.1954 92H85.2594V86.084H86.1474V87.356C86.5314 86.66 87.2274 85.976 88.0674 85.976C88.1754 85.976 88.2474 85.976 88.3434 85.988V86.84C88.2714 86.828 88.1514 86.828 88.0794 86.828C87.3834 86.828 86.6874 87.308 86.1954 88.136V92ZM91.3669 92.096C89.9149 92.096 88.8229 90.992 88.8229 89.012C88.8229 87.296 89.8189 85.976 91.3189 85.976C92.5789 85.976 93.3709 86.66 93.6349 88.112L92.7589 88.22C92.6149 87.248 92.1469 86.72 91.3309 86.72C90.3829 86.72 89.8069 87.56 89.8069 89.036C89.8069 90.668 90.5029 91.4 91.3909 91.4C92.1709 91.4 92.6269 90.98 92.8069 89.996L93.6229 90.08C93.4189 91.412 92.5429 92.096 91.3669 92.096ZM95.8048 92H94.8688V83.996H95.7688V87.248C96.1528 86.636 96.8728 85.976 97.9768 85.976C99.1768 85.976 99.6088 86.768 99.6088 87.74V92H98.6728V87.812C98.6728 87.092 98.3128 86.756 97.7128 86.756C96.8848 86.756 96.2968 87.248 95.8048 87.956V92Z" fill="#666666"/>
<path d="M67.608 108H66.328V97.328H70.52C72.648 97.328 73.848 98.576 73.848 100.208C73.848 101.472 73.144 102.528 71.832 102.832L73.992 108H72.648L70.616 103.056C70.024 103.088 69.672 103.088 69.304 103.088H67.608V108ZM67.608 98.512V102H70.344C71.784 102 72.504 101.344 72.504 100.192C72.504 99.12 71.784 98.512 70.52 98.512H67.608ZM78.6302 108.128C76.4703 108.128 75.0143 106.544 75.0143 104.192C75.0143 101.52 76.6303 99.968 78.6623 99.968C80.7263 99.968 81.9263 101.472 82.0863 103.664C82.1023 103.84 82.0863 104.016 82.1023 104.192H76.2783C76.3103 106.176 77.2063 107.184 78.7423 107.184C79.6063 107.184 80.4223 106.8 80.8703 105.632L81.9583 105.792C81.4143 107.312 80.1983 108.128 78.6302 108.128ZM76.3263 103.344H80.8383C80.7103 101.824 79.9263 100.912 78.6623 100.912C77.3983 100.912 76.4223 101.856 76.3263 103.344ZM86.321 108.128C84.321 108.128 83.089 107.312 82.705 105.872L83.825 105.648C84.081 106.576 84.961 107.2 86.321 107.2C87.569 107.2 88.337 106.64 88.337 105.808C88.337 104.864 87.281 104.672 86.113 104.416C84.497 104.112 83.137 103.696 83.137 102.144C83.137 100.848 84.305 99.968 86.065 99.968C87.841 99.968 88.865 100.752 89.265 101.984L88.161 102.224C87.857 101.392 87.137 100.912 86.065 100.912C85.009 100.912 84.289 101.344 84.289 102.064C84.289 102.928 85.233 103.088 86.497 103.36C88.113 103.68 89.489 104.128 89.489 105.696C89.489 107.152 88.241 108.128 86.321 108.128Z" fill="#111111"/>
<rect x="276" y="80" width="32" height="32" rx="16" fill="white"/>
<g clip-path="url(#clip0_2731_12396)">
<path d="M297 91.65L296.35 91L292 95.34L287.65 91L287 91.65L291.34 96L287 100.35L287.65 101L292 96.66L296.35 101L297 100.35L292.66 96L297 91.65Z" fill="#666666"/>
</g>
<rect x="312" y="84" width="1" height="24" fill="#E9E9E9"/>
<rect x="317" y="80" width="32" height="32" rx="16" fill="white"/>
<g clip-path="url(#clip1_2731_12396)">
<path fill-rule="evenodd" clip-rule="evenodd" d="M329.507 98.7533C330.244 99.2493 331.112 99.5161 332 99.52C332.594 99.5213 333.182 99.4053 333.731 99.1786C334.126 99.0158 334.494 98.7981 334.826 98.5327L338.648 102.355L339.355 101.648L335.533 97.8255C335.798 97.4937 336.016 97.1254 336.179 96.7313C336.405 96.1823 336.521 95.594 336.52 95C336.516 94.1117 336.249 93.2444 335.753 92.5075C335.257 91.7706 334.554 91.1969 333.733 90.8588C332.911 90.5207 332.008 90.4332 331.137 90.6075C330.266 90.7818 329.466 91.2099 328.838 91.8381C328.21 92.4662 327.782 93.2662 327.607 94.1372C327.433 95.0083 327.521 95.9114 327.859 96.7329C328.197 97.5543 328.771 98.2573 329.507 98.7533ZM330.059 92.121C330.632 91.7331 331.308 91.524 332 91.52C332.46 91.5174 332.915 91.6053 333.341 91.7788C333.767 91.9522 334.154 92.2078 334.481 92.531C334.808 92.8541 335.068 93.2385 335.246 93.6621C335.424 94.0858 335.517 94.5404 335.52 95C335.524 95.6922 335.323 96.3701 334.941 96.9478C334.56 97.5256 334.016 97.9773 333.378 98.2458C332.74 98.5144 332.037 98.5877 331.357 98.4565C330.677 98.3254 330.052 97.9956 329.559 97.5089C329.067 97.0222 328.73 96.4005 328.591 95.7224C328.452 95.0442 328.518 94.3401 328.779 93.6991C329.04 93.058 329.486 92.5089 330.059 92.121Z" fill="#666666"/>
</g>
<rect x="53.5" y="72.5" width="299" height="47" stroke="#5784C5"/>
<g filter="url(#filter0_d_2731_12396)">
<g clip-path="url(#clip2_2731_12396)">
<rect x="53" y="124" width="300" height="336" rx="2" fill="white"/>
<rect width="300" height="32" transform="translate(53 132)" fill="#E9E9E9"/>
<path d="M68.68 154H66.056V143.328H71.176C73.512 143.328 74.872 144.56 74.872 146.416C74.872 147.808 74.248 148.688 72.952 149.168L74.952 154H72.152L70.44 149.648H68.68V154ZM68.68 145.28V147.792H70.52C71.576 147.792 72.136 147.328 72.136 146.512C72.136 145.76 71.608 145.28 70.648 145.28H68.68ZM79.8733 154.128C77.4893 154.128 75.7613 152.56 75.7613 150.144C75.7613 147.584 77.6493 145.92 79.8573 145.92C82.3373 145.92 83.7933 147.552 83.8573 150.016C83.8573 150.192 83.8573 150.32 83.8413 150.496H78.3533C78.3853 151.92 79.1213 152.544 80.0973 152.544C80.8973 152.544 81.4093 152.144 81.6973 151.36L83.7613 151.632C83.2333 153.136 81.9213 154.128 79.8733 154.128ZM78.3853 149.2H81.3613C81.2813 148.128 80.8173 147.472 79.8893 147.472C79.0893 147.472 78.4493 148.112 78.3853 149.2ZM88.3925 154.128C86.2005 154.128 84.8405 153.376 84.4405 151.824L86.4405 151.456C86.6165 152.176 87.2565 152.544 88.4405 152.544C89.3205 152.544 89.9445 152.272 89.9445 151.728C89.9445 151.136 89.3045 151.024 88.3445 150.896C85.9605 150.608 84.8085 150.16 84.8085 148.496C84.8085 146.928 86.1525 145.92 88.2485 145.92C90.1045 145.92 91.4005 146.672 91.7685 147.968L89.8325 148.352C89.6405 147.744 89.0965 147.456 88.2645 147.456C87.4645 147.456 86.9685 147.68 86.9685 148.192C86.9685 148.72 87.5125 148.816 88.7285 148.992C90.9525 149.264 92.0725 149.84 92.0725 151.504C92.0725 153.056 90.6965 154.128 88.3925 154.128ZM96.0375 154.128C94.6135 154.128 93.6055 153.392 93.6055 151.408V146.112H94.8535V151.44C94.8535 152.688 95.3175 153.184 96.4215 153.184C97.3015 153.184 98.0695 152.672 98.5975 151.712V146.112H99.8295V154H98.6775V152.656C98.0535 153.664 97.0935 154.128 96.0375 154.128ZM103.496 154H102.248V143.328H103.496V154ZM108.127 154.112C106.799 154.112 106.031 153.456 106.031 151.824V147.104H104.751V146.112H106.047L106.111 144.048H107.247V146.112H109.023V147.104H107.247V151.888C107.247 152.72 107.679 153.088 108.351 153.104C108.719 153.104 109.183 153.056 109.471 153.008V153.984C109.039 154.064 108.559 154.112 108.127 154.112Z" fill="black"/>
<path d="M68.68 186H66.056V175.328H71.176C73.512 175.328 74.872 176.56 74.872 178.416C74.872 179.808 74.248 180.688 72.952 181.168L74.952 186H72.152L70.44 181.648H68.68V186ZM68.68 177.28V179.792H70.52C71.576 179.792 72.136 179.328 72.136 178.512C72.136 177.76 71.608 177.28 70.648 177.28H68.68ZM79.8733 186.128C77.4893 186.128 75.7613 184.56 75.7613 182.144C75.7613 179.584 77.6493 177.92 79.8573 177.92C82.3373 177.92 83.7933 179.552 83.8573 182.016C83.8573 182.192 83.8573 182.32 83.8413 182.496H78.3533C78.3853 183.92 79.1213 184.544 80.0973 184.544C80.8973 184.544 81.4093 184.144 81.6973 183.36L83.7613 183.632C83.2333 185.136 81.9213 186.128 79.8733 186.128ZM78.3853 181.2H81.3613C81.2813 180.128 80.8173 179.472 79.8893 179.472C79.0893 179.472 78.4493 180.112 78.3853 181.2ZM88.3925 186.128C86.2005 186.128 84.8405 185.376 84.4405 183.824L86.4405 183.456C86.6165 184.176 87.2565 184.544 88.4405 184.544C89.3205 184.544 89.9445 184.272 89.9445 183.728C89.9445 183.136 89.3045 183.024 88.3445 182.896C85.9605 182.608 84.8085 182.16 84.8085 180.496C84.8085 178.928 86.1525 177.92 88.2485 177.92C90.1045 177.92 91.4005 178.672 91.7685 179.968L89.8325 180.352C89.6405 179.744 89.0965 179.456 88.2645 179.456C87.4645 179.456 86.9685 179.68 86.9685 180.192C86.9685 180.72 87.5125 180.816 88.7285 180.992C90.9525 181.264 92.0725 181.84 92.0725 183.504C92.0725 185.056 90.6965 186.128 88.3925 186.128ZM96.0375 186.128C94.6135 186.128 93.6055 185.392 93.6055 183.408V178.112H94.8535V183.44C94.8535 184.688 95.3175 185.184 96.4215 185.184C97.3015 185.184 98.0695 184.672 98.5975 183.712V178.112H99.8295V186H98.6775V184.656C98.0535 185.664 97.0935 186.128 96.0375 186.128ZM103.496 186H102.248V175.328H103.496V186ZM108.127 186.112C106.799 186.112 106.031 185.456 106.031 183.824V179.104H104.751V178.112H106.047L106.111 176.048H107.247V178.112H109.023V179.104H107.247V183.888C107.247 184.72 107.679 185.088 108.351 185.104C108.719 185.104 109.183 185.056 109.471 185.008V185.984C109.039 186.064 108.559 186.112 108.127 186.112Z" fill="black"/>
<path d="M68.68 218H66.056V207.328H71.176C73.512 207.328 74.872 208.56 74.872 210.416C74.872 211.808 74.248 212.688 72.952 213.168L74.952 218H72.152L70.44 213.648H68.68V218ZM68.68 209.28V211.792H70.52C71.576 211.792 72.136 211.328 72.136 210.512C72.136 209.76 71.608 209.28 70.648 209.28H68.68ZM79.8733 218.128C77.4893 218.128 75.7613 216.56 75.7613 214.144C75.7613 211.584 77.6493 209.92 79.8573 209.92C82.3373 209.92 83.7933 211.552 83.8573 214.016C83.8573 214.192 83.8573 214.32 83.8413 214.496H78.3533C78.3853 215.92 79.1213 216.544 80.0973 216.544C80.8973 216.544 81.4093 216.144 81.6973 215.36L83.7613 215.632C83.2333 217.136 81.9213 218.128 79.8733 218.128ZM78.3853 213.2H81.3613C81.2813 212.128 80.8173 211.472 79.8893 211.472C79.0893 211.472 78.4493 212.112 78.3853 213.2ZM88.3925 218.128C86.2005 218.128 84.8405 217.376 84.4405 215.824L86.4405 215.456C86.6165 216.176 87.2565 216.544 88.4405 216.544C89.3205 216.544 89.9445 216.272 89.9445 215.728C89.9445 215.136 89.3045 215.024 88.3445 214.896C85.9605 214.608 84.8085 214.16 84.8085 212.496C84.8085 210.928 86.1525 209.92 88.2485 209.92C90.1045 209.92 91.4005 210.672 91.7685 211.968L89.8325 212.352C89.6405 211.744 89.0965 211.456 88.2645 211.456C87.4645 211.456 86.9685 211.68 86.9685 212.192C86.9685 212.72 87.5125 212.816 88.7285 212.992C90.9525 213.264 92.0725 213.84 92.0725 215.504C92.0725 217.056 90.6965 218.128 88.3925 218.128ZM96.0375 218.128C94.6135 218.128 93.6055 217.392 93.6055 215.408V210.112H94.8535V215.44C94.8535 216.688 95.3175 217.184 96.4215 217.184C97.3015 217.184 98.0695 216.672 98.5975 215.712V210.112H99.8295V218H98.6775V216.656C98.0535 217.664 97.0935 218.128 96.0375 218.128ZM103.496 218H102.248V207.328H103.496V218ZM108.127 218.112C106.799 218.112 106.031 217.456 106.031 215.824V211.104H104.751V210.112H106.047L106.111 208.048H107.247V210.112H109.023V211.104H107.247V215.888C107.247 216.72 107.679 217.088 108.351 217.104C108.719 217.104 109.183 217.056 109.471 217.008V217.984C109.039 218.064 108.559 218.112 108.127 218.112Z" fill="black"/>
<path d="M68.68 250H66.056V239.328H71.176C73.512 239.328 74.872 240.56 74.872 242.416C74.872 243.808 74.248 244.688 72.952 245.168L74.952 250H72.152L70.44 245.648H68.68V250ZM68.68 241.28V243.792H70.52C71.576 243.792 72.136 243.328 72.136 242.512C72.136 241.76 71.608 241.28 70.648 241.28H68.68ZM79.8733 250.128C77.4893 250.128 75.7613 248.56 75.7613 246.144C75.7613 243.584 77.6493 241.92 79.8573 241.92C82.3373 241.92 83.7933 243.552 83.8573 246.016C83.8573 246.192 83.8573 246.32 83.8413 246.496H78.3533C78.3853 247.92 79.1213 248.544 80.0973 248.544C80.8973 248.544 81.4093 248.144 81.6973 247.36L83.7613 247.632C83.2333 249.136 81.9213 250.128 79.8733 250.128ZM78.3853 245.2H81.3613C81.2813 244.128 80.8173 243.472 79.8893 243.472C79.0893 243.472 78.4493 244.112 78.3853 245.2ZM88.3925 250.128C86.2005 250.128 84.8405 249.376 84.4405 247.824L86.4405 247.456C86.6165 248.176 87.2565 248.544 88.4405 248.544C89.3205 248.544 89.9445 248.272 89.9445 247.728C89.9445 247.136 89.3045 247.024 88.3445 246.896C85.9605 246.608 84.8085 246.16 84.8085 244.496C84.8085 242.928 86.1525 241.92 88.2485 241.92C90.1045 241.92 91.4005 242.672 91.7685 243.968L89.8325 244.352C89.6405 243.744 89.0965 243.456 88.2645 243.456C87.4645 243.456 86.9685 243.68 86.9685 244.192C86.9685 244.72 87.5125 244.816 88.7285 244.992C90.9525 245.264 92.0725 245.84 92.0725 247.504C92.0725 249.056 90.6965 250.128 88.3925 250.128ZM96.0375 250.128C94.6135 250.128 93.6055 249.392 93.6055 247.408V242.112H94.8535V247.44C94.8535 248.688 95.3175 249.184 96.4215 249.184C97.3015 249.184 98.0695 248.672 98.5975 247.712V242.112H99.8295V250H98.6775V248.656C98.0535 249.664 97.0935 250.128 96.0375 250.128ZM103.496 250H102.248V239.328H103.496V250ZM108.127 250.112C106.799 250.112 106.031 249.456 106.031 247.824V243.104H104.751V242.112H106.047L106.111 240.048H107.247V242.112H109.023V243.104H107.247V247.888C107.247 248.72 107.679 249.088 108.351 249.104C108.719 249.104 109.183 249.056 109.471 249.008V249.984C109.039 250.064 108.559 250.112 108.127 250.112Z" fill="black"/>
<path d="M68.68 282H66.056V271.328H71.176C73.512 271.328 74.872 272.56 74.872 274.416C74.872 275.808 74.248 276.688 72.952 277.168L74.952 282H72.152L70.44 277.648H68.68V282ZM68.68 273.28V275.792H70.52C71.576 275.792 72.136 275.328 72.136 274.512C72.136 273.76 71.608 273.28 70.648 273.28H68.68ZM79.8733 282.128C77.4893 282.128 75.7613 280.56 75.7613 278.144C75.7613 275.584 77.6493 273.92 79.8573 273.92C82.3373 273.92 83.7933 275.552 83.8573 278.016C83.8573 278.192 83.8573 278.32 83.8413 278.496H78.3533C78.3853 279.92 79.1213 280.544 80.0973 280.544C80.8973 280.544 81.4093 280.144 81.6973 279.36L83.7613 279.632C83.2333 281.136 81.9213 282.128 79.8733 282.128ZM78.3853 277.2H81.3613C81.2813 276.128 80.8173 275.472 79.8893 275.472C79.0893 275.472 78.4493 276.112 78.3853 277.2ZM88.3925 282.128C86.2005 282.128 84.8405 281.376 84.4405 279.824L86.4405 279.456C86.6165 280.176 87.2565 280.544 88.4405 280.544C89.3205 280.544 89.9445 280.272 89.9445 279.728C89.9445 279.136 89.3045 279.024 88.3445 278.896C85.9605 278.608 84.8085 278.16 84.8085 276.496C84.8085 274.928 86.1525 273.92 88.2485 273.92C90.1045 273.92 91.4005 274.672 91.7685 275.968L89.8325 276.352C89.6405 275.744 89.0965 275.456 88.2645 275.456C87.4645 275.456 86.9685 275.68 86.9685 276.192C86.9685 276.72 87.5125 276.816 88.7285 276.992C90.9525 277.264 92.0725 277.84 92.0725 279.504C92.0725 281.056 90.6965 282.128 88.3925 282.128ZM96.0375 282.128C94.6135 282.128 93.6055 281.392 93.6055 279.408V274.112H94.8535V279.44C94.8535 280.688 95.3175 281.184 96.4215 281.184C97.3015 281.184 98.0695 280.672 98.5975 279.712V274.112H99.8295V282H98.6775V280.656C98.0535 281.664 97.0935 282.128 96.0375 282.128ZM103.496 282H102.248V271.328H103.496V282ZM108.127 282.112C106.799 282.112 106.031 281.456 106.031 279.824V275.104H104.751V274.112H106.047L106.111 272.048H107.247V274.112H109.023V275.104H107.247V279.888C107.247 280.72 107.679 281.088 108.351 281.104C108.719 281.104 109.183 281.056 109.471 281.008V281.984C109.039 282.064 108.559 282.112 108.127 282.112Z" fill="black"/>
<path d="M68.68 314H66.056V303.328H71.176C73.512 303.328 74.872 304.56 74.872 306.416C74.872 307.808 74.248 308.688 72.952 309.168L74.952 314H72.152L70.44 309.648H68.68V314ZM68.68 305.28V307.792H70.52C71.576 307.792 72.136 307.328 72.136 306.512C72.136 305.76 71.608 305.28 70.648 305.28H68.68ZM79.8733 314.128C77.4893 314.128 75.7613 312.56 75.7613 310.144C75.7613 307.584 77.6493 305.92 79.8573 305.92C82.3373 305.92 83.7933 307.552 83.8573 310.016C83.8573 310.192 83.8573 310.32 83.8413 310.496H78.3533C78.3853 311.92 79.1213 312.544 80.0973 312.544C80.8973 312.544 81.4093 312.144 81.6973 311.36L83.7613 311.632C83.2333 313.136 81.9213 314.128 79.8733 314.128ZM78.3853 309.2H81.3613C81.2813 308.128 80.8173 307.472 79.8893 307.472C79.0893 307.472 78.4493 308.112 78.3853 309.2ZM88.3925 314.128C86.2005 314.128 84.8405 313.376 84.4405 311.824L86.4405 311.456C86.6165 312.176 87.2565 312.544 88.4405 312.544C89.3205 312.544 89.9445 312.272 89.9445 311.728C89.9445 311.136 89.3045 311.024 88.3445 310.896C85.9605 310.608 84.8085 310.16 84.8085 308.496C84.8085 306.928 86.1525 305.92 88.2485 305.92C90.1045 305.92 91.4005 306.672 91.7685 307.968L89.8325 308.352C89.6405 307.744 89.0965 307.456 88.2645 307.456C87.4645 307.456 86.9685 307.68 86.9685 308.192C86.9685 308.72 87.5125 308.816 88.7285 308.992C90.9525 309.264 92.0725 309.84 92.0725 311.504C92.0725 313.056 90.6965 314.128 88.3925 314.128ZM96.0375 314.128C94.6135 314.128 93.6055 313.392 93.6055 311.408V306.112H94.8535V311.44C94.8535 312.688 95.3175 313.184 96.4215 313.184C97.3015 313.184 98.0695 312.672 98.5975 311.712V306.112H99.8295V314H98.6775V312.656C98.0535 313.664 97.0935 314.128 96.0375 314.128ZM103.496 314H102.248V303.328H103.496V314ZM108.127 314.112C106.799 314.112 106.031 313.456 106.031 311.824V307.104H104.751V306.112H106.047L106.111 304.048H107.247V306.112H109.023V307.104H107.247V311.888C107.247 312.72 107.679 313.088 108.351 313.104C108.719 313.104 109.183 313.056 109.471 313.008V313.984C109.039 314.064 108.559 314.112 108.127 314.112Z" fill="black"/>
<path d="M68.68 346H66.056V335.328H71.176C73.512 335.328 74.872 336.56 74.872 338.416C74.872 339.808 74.248 340.688 72.952 341.168L74.952 346H72.152L70.44 341.648H68.68V346ZM68.68 337.28V339.792H70.52C71.576 339.792 72.136 339.328 72.136 338.512C72.136 337.76 71.608 337.28 70.648 337.28H68.68ZM79.8733 346.128C77.4893 346.128 75.7613 344.56 75.7613 342.144C75.7613 339.584 77.6493 337.92 79.8573 337.92C82.3373 337.92 83.7933 339.552 83.8573 342.016C83.8573 342.192 83.8573 342.32 83.8413 342.496H78.3533C78.3853 343.92 79.1213 344.544 80.0973 344.544C80.8973 344.544 81.4093 344.144 81.6973 343.36L83.7613 343.632C83.2333 345.136 81.9213 346.128 79.8733 346.128ZM78.3853 341.2H81.3613C81.2813 340.128 80.8173 339.472 79.8893 339.472C79.0893 339.472 78.4493 340.112 78.3853 341.2ZM88.3925 346.128C86.2005 346.128 84.8405 345.376 84.4405 343.824L86.4405 343.456C86.6165 344.176 87.2565 344.544 88.4405 344.544C89.3205 344.544 89.9445 344.272 89.9445 343.728C89.9445 343.136 89.3045 343.024 88.3445 342.896C85.9605 342.608 84.8085 342.16 84.8085 340.496C84.8085 338.928 86.1525 337.92 88.2485 337.92C90.1045 337.92 91.4005 338.672 91.7685 339.968L89.8325 340.352C89.6405 339.744 89.0965 339.456 88.2645 339.456C87.4645 339.456 86.9685 339.68 86.9685 340.192C86.9685 340.72 87.5125 340.816 88.7285 340.992C90.9525 341.264 92.0725 341.84 92.0725 343.504C92.0725 345.056 90.6965 346.128 88.3925 346.128ZM96.0375 346.128C94.6135 346.128 93.6055 345.392 93.6055 343.408V338.112H94.8535V343.44C94.8535 344.688 95.3175 345.184 96.4215 345.184C97.3015 345.184 98.0695 344.672 98.5975 343.712V338.112H99.8295V346H98.6775V344.656C98.0535 345.664 97.0935 346.128 96.0375 346.128ZM103.496 346H102.248V335.328H103.496V346ZM108.127 346.112C106.799 346.112 106.031 345.456 106.031 343.824V339.104H104.751V338.112H106.047L106.111 336.048H107.247V338.112H109.023V339.104H107.247V343.888C107.247 344.72 107.679 345.088 108.351 345.104C108.719 345.104 109.183 345.056 109.471 345.008V345.984C109.039 346.064 108.559 346.112 108.127 346.112Z" fill="black"/>
<path d="M68.68 378H66.056V367.328H71.176C73.512 367.328 74.872 368.56 74.872 370.416C74.872 371.808 74.248 372.688 72.952 373.168L74.952 378H72.152L70.44 373.648H68.68V378ZM68.68 369.28V371.792H70.52C71.576 371.792 72.136 371.328 72.136 370.512C72.136 369.76 71.608 369.28 70.648 369.28H68.68ZM79.8733 378.128C77.4893 378.128 75.7613 376.56 75.7613 374.144C75.7613 371.584 77.6493 369.92 79.8573 369.92C82.3373 369.92 83.7933 371.552 83.8573 374.016C83.8573 374.192 83.8573 374.32 83.8413 374.496H78.3533C78.3853 375.92 79.1213 376.544 80.0973 376.544C80.8973 376.544 81.4093 376.144 81.6973 375.36L83.7613 375.632C83.2333 377.136 81.9213 378.128 79.8733 378.128ZM78.3853 373.2H81.3613C81.2813 372.128 80.8173 371.472 79.8893 371.472C79.0893 371.472 78.4493 372.112 78.3853 373.2ZM88.3925 378.128C86.2005 378.128 84.8405 377.376 84.4405 375.824L86.4405 375.456C86.6165 376.176 87.2565 376.544 88.4405 376.544C89.3205 376.544 89.9445 376.272 89.9445 375.728C89.9445 375.136 89.3045 375.024 88.3445 374.896C85.9605 374.608 84.8085 374.16 84.8085 372.496C84.8085 370.928 86.1525 369.92 88.2485 369.92C90.1045 369.92 91.4005 370.672 91.7685 371.968L89.8325 372.352C89.6405 371.744 89.0965 371.456 88.2645 371.456C87.4645 371.456 86.9685 371.68 86.9685 372.192C86.9685 372.72 87.5125 372.816 88.7285 372.992C90.9525 373.264 92.0725 373.84 92.0725 375.504C92.0725 377.056 90.6965 378.128 88.3925 378.128ZM96.0375 378.128C94.6135 378.128 93.6055 377.392 93.6055 375.408V370.112H94.8535V375.44C94.8535 376.688 95.3175 377.184 96.4215 377.184C97.3015 377.184 98.0695 376.672 98.5975 375.712V370.112H99.8295V378H98.6775V376.656C98.0535 377.664 97.0935 378.128 96.0375 378.128ZM103.496 378H102.248V367.328H103.496V378ZM108.127 378.112C106.799 378.112 106.031 377.456 106.031 375.824V371.104H104.751V370.112H106.047L106.111 368.048H107.247V370.112H109.023V371.104H107.247V375.888C107.247 376.72 107.679 377.088 108.351 377.104C108.719 377.104 109.183 377.056 109.471 377.008V377.984C109.039 378.064 108.559 378.112 108.127 378.112Z" fill="black"/>
<path d="M68.68 410H66.056V399.328H71.176C73.512 399.328 74.872 400.56 74.872 402.416C74.872 403.808 74.248 404.688 72.952 405.168L74.952 410H72.152L70.44 405.648H68.68V410ZM68.68 401.28V403.792H70.52C71.576 403.792 72.136 403.328 72.136 402.512C72.136 401.76 71.608 401.28 70.648 401.28H68.68ZM79.8733 410.128C77.4893 410.128 75.7613 408.56 75.7613 406.144C75.7613 403.584 77.6493 401.92 79.8573 401.92C82.3373 401.92 83.7933 403.552 83.8573 406.016C83.8573 406.192 83.8573 406.32 83.8413 406.496H78.3533C78.3853 407.92 79.1213 408.544 80.0973 408.544C80.8973 408.544 81.4093 408.144 81.6973 407.36L83.7613 407.632C83.2333 409.136 81.9213 410.128 79.8733 410.128ZM78.3853 405.2H81.3613C81.2813 404.128 80.8173 403.472 79.8893 403.472C79.0893 403.472 78.4493 404.112 78.3853 405.2ZM88.3925 410.128C86.2005 410.128 84.8405 409.376 84.4405 407.824L86.4405 407.456C86.6165 408.176 87.2565 408.544 88.4405 408.544C89.3205 408.544 89.9445 408.272 89.9445 407.728C89.9445 407.136 89.3045 407.024 88.3445 406.896C85.9605 406.608 84.8085 406.16 84.8085 404.496C84.8085 402.928 86.1525 401.92 88.2485 401.92C90.1045 401.92 91.4005 402.672 91.7685 403.968L89.8325 404.352C89.6405 403.744 89.0965 403.456 88.2645 403.456C87.4645 403.456 86.9685 403.68 86.9685 404.192C86.9685 404.72 87.5125 404.816 88.7285 404.992C90.9525 405.264 92.0725 405.84 92.0725 407.504C92.0725 409.056 90.6965 410.128 88.3925 410.128ZM96.0375 410.128C94.6135 410.128 93.6055 409.392 93.6055 407.408V402.112H94.8535V407.44C94.8535 408.688 95.3175 409.184 96.4215 409.184C97.3015 409.184 98.0695 408.672 98.5975 407.712V402.112H99.8295V410H98.6775V408.656C98.0535 409.664 97.0935 410.128 96.0375 410.128ZM103.496 410H102.248V399.328H103.496V410ZM108.127 410.112C106.799 410.112 106.031 409.456 106.031 407.824V403.104H104.751V402.112H106.047L106.111 400.048H107.247V402.112H109.023V403.104H107.247V407.888C107.247 408.72 107.679 409.088 108.351 409.104C108.719 409.104 109.183 409.056 109.471 409.008V409.984C109.039 410.064 108.559 410.112 108.127 410.112Z" fill="black"/>
<path d="M68.68 442H66.056V431.328H71.176C73.512 431.328 74.872 432.56 74.872 434.416C74.872 435.808 74.248 436.688 72.952 437.168L74.952 442H72.152L70.44 437.648H68.68V442ZM68.68 433.28V435.792H70.52C71.576 435.792 72.136 435.328 72.136 434.512C72.136 433.76 71.608 433.28 70.648 433.28H68.68ZM79.8733 442.128C77.4893 442.128 75.7613 440.56 75.7613 438.144C75.7613 435.584 77.6493 433.92 79.8573 433.92C82.3373 433.92 83.7933 435.552 83.8573 438.016C83.8573 438.192 83.8573 438.32 83.8413 438.496H78.3533C78.3853 439.92 79.1213 440.544 80.0973 440.544C80.8973 440.544 81.4093 440.144 81.6973 439.36L83.7613 439.632C83.2333 441.136 81.9213 442.128 79.8733 442.128ZM78.3853 437.2H81.3613C81.2813 436.128 80.8173 435.472 79.8893 435.472C79.0893 435.472 78.4493 436.112 78.3853 437.2ZM88.3925 442.128C86.2005 442.128 84.8405 441.376 84.4405 439.824L86.4405 439.456C86.6165 440.176 87.2565 440.544 88.4405 440.544C89.3205 440.544 89.9445 440.272 89.9445 439.728C89.9445 439.136 89.3045 439.024 88.3445 438.896C85.9605 438.608 84.8085 438.16 84.8085 436.496C84.8085 434.928 86.1525 433.92 88.2485 433.92C90.1045 433.92 91.4005 434.672 91.7685 435.968L89.8325 436.352C89.6405 435.744 89.0965 435.456 88.2645 435.456C87.4645 435.456 86.9685 435.68 86.9685 436.192C86.9685 436.72 87.5125 436.816 88.7285 436.992C90.9525 437.264 92.0725 437.84 92.0725 439.504C92.0725 441.056 90.6965 442.128 88.3925 442.128ZM96.0375 442.128C94.6135 442.128 93.6055 441.392 93.6055 439.408V434.112H94.8535V439.44C94.8535 440.688 95.3175 441.184 96.4215 441.184C97.3015 441.184 98.0695 440.672 98.5975 439.712V434.112H99.8295V442H98.6775V440.656C98.0535 441.664 97.0935 442.128 96.0375 442.128ZM103.496 442H102.248V431.328H103.496V442ZM108.127 442.112C106.799 442.112 106.031 441.456 106.031 439.824V435.104H104.751V434.112H106.047L106.111 432.048H107.247V434.112H109.023V435.104H107.247V439.888C107.247 440.72 107.679 441.088 108.351 441.104C108.719 441.104 109.183 441.056 109.471 441.008V441.984C109.039 442.064 108.559 442.112 108.127 442.112Z" fill="black"/>
</g>
<rect x="53.5" y="124.5" width="299" height="335" rx="1.5" stroke="#D4D4D4"/>
</g>
<rect x="189" width="28" height="28" rx="14" fill="#94538C"/>
<path d="M206.496 20H198.8V18.96C203.776 15.28 204.912 14.144 204.912 12.336C204.912 11.168 204.192 10.24 202.608 10.24C201.216 10.24 200.224 11.056 200.032 12.576L198.8 12.336C199.152 10.4 200.464 9.152 202.656 9.152C204.912 9.152 206.256 10.448 206.256 12.416C206.256 14.432 204.384 16.176 200.416 18.88H206.496V20Z" fill="#FCFCFC"/>
<line x1="203.5" y1="28" x2="203.5" y2="72" stroke="#94538C" stroke-dasharray="2 2"/>
<rect y="69" width="28" height="28" rx="14" fill="#94538C"/>
<path d="M17.152 89H11.12V87.944H13.52V80.104C13.136 80.552 12.752 81.24 11.232 82.104V80.728C12.4 80.088 13.152 79.256 13.84 78.12H14.8V87.944H17.152V89Z" fill="#FCFCFC"/>
<line x1="32" y1="82.5" x2="53" y2="82.5" stroke="#94538C" stroke-dasharray="2 2"/>
<line x1="89" y1="104.5" x2="110" y2="104.5" stroke="#94538C" stroke-dasharray="2 2"/>
<rect x="114" y="91" width="28" height="28" rx="14" fill="#94538C"/>
<path d="M127.624 111.192C125.656 111.192 124.2 110.264 123.656 108.664L124.728 108.28C125.224 109.544 126.152 110.152 127.576 110.152C129.144 110.152 130.216 109.08 130.216 107.432C130.216 106.024 129.368 104.824 127.736 104.824C126.472 104.824 125.72 105.48 125.176 106.344L124.12 106.104L124.472 100.328H130.792L130.68 101.48H125.464L125.224 105.064C125.672 104.44 126.728 103.784 127.912 103.784C130.136 103.784 131.496 105.288 131.496 107.416C131.496 109.816 129.64 111.192 127.624 111.192Z" fill="#FCFCFC"/>
<rect x="289" y="16" width="28" height="28" rx="14" fill="#94538C"/>
<path d="M302.608 36.192C300.384 36.192 298.96 35.344 298.464 33.456L299.712 33.216C300.08 34.544 300.912 35.136 302.576 35.136C304.352 35.136 305.184 34.208 305.184 33.04C305.184 31.824 304.176 30.992 302.304 30.992H301.072V29.904H302.304C303.952 29.904 304.8 29.248 304.8 28.016C304.8 26.88 303.952 26.224 302.576 26.224C301.248 26.224 300.352 26.88 300.048 27.92L298.848 27.68C299.408 26.016 300.784 25.136 302.544 25.136C304.896 25.136 306.128 26.288 306.128 27.888C306.128 29.136 305.392 30.064 304.08 30.384C305.584 30.688 306.528 31.648 306.528 33.056C306.528 34.832 305.136 36.192 302.608 36.192Z" fill="#FCFCFC"/>
<line x1="303.5" y1="44" x2="303.5" y2="88" stroke="#94538C" stroke-dasharray="2 2"/>
<line x1="108" y1="182.5" x2="129" y2="182.5" stroke="#94538C" stroke-dasharray="2 2"/>
<rect x="133" y="169" width="28" height="28" rx="14" fill="#94538C"/>
<path d="M150.132 178.328V179.208C147.252 182.68 146.308 186.152 146.308 188.6C146.308 188.76 146.308 188.936 146.324 189H144.804C144.804 188.888 144.804 188.776 144.82 188.648C144.932 186.328 146.308 182.488 148.82 179.48H142.948L143.092 178.328H150.132Z" fill="#FCFCFC"/>
<line x1="353" y1="210.5" x2="374" y2="210.5" stroke="#94538C" stroke-dasharray="2 2"/>
<rect x="378" y="197" width="28" height="28" rx="14" fill="#94538C"/>
<path d="M391.948 217.192C389.58 217.192 388.06 216.024 388.06 214.28C388.06 212.824 389.148 212.008 390.524 211.464C389.196 210.888 388.476 210.12 388.476 208.872C388.476 207.384 389.772 206.136 391.884 206.136C394.012 206.136 395.324 207.192 395.324 208.776C395.324 210.04 394.428 210.776 393.196 211.272C394.7 211.848 395.788 212.584 395.788 214.2C395.788 215.928 394.412 217.192 391.948 217.192ZM392.06 210.856C393.34 210.376 394.172 209.752 394.172 208.824C394.172 207.768 393.388 207.16 391.884 207.16C390.636 207.16 389.724 207.784 389.724 208.84C389.724 209.72 390.364 210.2 391.548 210.648L392.06 210.856ZM391.948 216.2C393.58 216.2 394.54 215.512 394.54 214.264C394.54 213.24 393.788 212.728 392.188 212.168L391.596 211.944C390.236 212.44 389.244 212.984 389.244 214.264C389.244 215.432 390.22 216.2 391.948 216.2Z" fill="#FCFCFC"/>
<rect x="322" y="16" width="28" height="28" rx="14" fill="#94538C"/>
<path d="M338.04 36H336.792V33.504H331.464V32.48L336.632 25.12H338.04V32.4H339.752V33.504H338.04V36ZM336.792 26.576L332.648 32.4H336.792V26.576Z" fill="#FCFCFC"/>
<line x1="336.5" y1="44" x2="336.5" y2="88" stroke="#94538C" stroke-dasharray="2 2"/>
<line x1="320.5" y1="105" x2="320.5" y2="134" stroke="#94538C" stroke-dasharray="2 2"/>
<rect x="306" y="134" width="28" height="28" rx="14" fill="#94538C"/>
<path d="M320.38 154.208C317.932 154.208 316.14 152.368 316.14 148.848V148.72C316.14 145.568 317.612 143.12 320.492 143.12C322.156 143.12 323.34 144.032 323.804 145.664L322.62 145.872C322.236 144.8 321.516 144.208 320.364 144.208C318.636 144.208 317.404 145.584 317.404 148.96C317.404 149.008 317.42 149.248 317.42 149.312C317.884 147.824 319.26 147.04 320.588 147.04C322.78 147.04 324.076 148.528 324.076 150.544C324.076 152.592 322.556 154.208 320.38 154.208ZM320.38 153.168C321.788 153.168 322.828 152.208 322.828 150.688V150.608C322.828 149.168 321.964 148.08 320.38 148.08C318.924 148.08 317.948 149.184 317.628 150.352C317.612 150.4 317.612 150.448 317.612 150.496C317.788 152.096 318.828 153.168 320.38 153.168Z" fill="#FCFCFC"/>
<defs>
<filter id="filter0_d_2731_12396" x="49" y="122" width="308" height="344" filterUnits="userSpaceOnUse" color-interpolation-filters="sRGB">
<feFlood flood-opacity="0" result="BackgroundImageFix"/>
<feColorMatrix in="SourceAlpha" type="matrix" values="0 0 0 0 0 0 0 0 0 0 0 0 0 0 0 0 0 0 127 0" result="hardAlpha"/>
<feOffset dy="2"/>
<feGaussianBlur stdDeviation="2"/>
<feComposite in2="hardAlpha" operator="out"/>
<feColorMatrix type="matrix" values="0 0 0 0 0.4 0 0 0 0 0.4 0 0 0 0 0.4 0 0 0 0.25 0"/>
<feBlend mode="normal" in2="BackgroundImageFix" result="effect1_dropShadow_2731_12396"/>
<feBlend mode="normal" in="SourceGraphic" in2="effect1_dropShadow_2731_12396" result="shape"/>
</filter>
<clipPath id="clip0_2731_12396">
<rect width="16" height="16" fill="white" transform="translate(284 88)"/>
</clipPath>
<clipPath id="clip1_2731_12396">
<rect width="16" height="16" fill="white" transform="translate(325 88)"/>
</clipPath>
<clipPath id="clip2_2731_12396">
<rect x="53" y="124" width="300" height="336" rx="2" fill="white"/>
</clipPath>
</defs>
</svg>
