<svg width="213" height="119" viewBox="0 0 213 119" fill="none" xmlns="http://www.w3.org/2000/svg">
<rect y="51" width="28" height="28" rx="14" fill="#94538C"/>
<path d="M17.2926 71V69.944H14.9406V60.12H13.9806C13.2926 61.256 12.5406 62.088 11.3726 62.728V64.104C12.8926 63.24 13.2766 62.552 13.6606 62.104V69.944H11.2606V71H17.2926Z" fill="#FCFCFC"/>
<line x1="32" y1="64.5" x2="89" y2="64.5" stroke="#94538C" stroke-dasharray="2 2"/>
<g filter="url(#filter0_d_2_31423)">
<rect x="97" y="4" width="112" height="109.001" rx="2" fill="white" shape-rendering="crispEdges"/>
<rect width="96" height="93.001" transform="translate(105 12)" fill="#F0F0F0"/>
<path d="M145.648 56.6205C147.796 56.6205 148.84 55.6005 148.84 54.1845C148.84 52.5165 147.592 52.0245 146.26 51.7125C145.156 51.4485 144.376 51.3165 144.376 50.6085C144.376 50.1405 144.82 49.8645 145.48 49.8645C146.212 49.8645 146.74 50.1645 146.968 50.8245L148.636 50.3205C148.18 49.0965 147.196 48.3525 145.504 48.3525C143.572 48.3525 142.408 49.3125 142.408 50.6685C142.408 52.4325 143.824 52.8525 145.06 53.1525C146.032 53.3925 146.908 53.5605 146.908 54.2925C146.908 54.8205 146.404 55.1445 145.612 55.1445C144.52 55.1445 144.004 54.6765 143.68 53.8965L142.12 54.4965C142.588 55.7085 143.524 56.6205 145.648 56.6205ZM151.682 56.5005V48.4965H149.81V56.5005H151.682ZM155.802 56.5965C157.662 56.5965 158.91 55.2765 158.91 53.5365C158.91 51.6885 157.686 50.4405 155.838 50.4405C154.074 50.4405 152.778 51.7245 152.778 53.5725C152.778 55.3125 154.026 56.5965 155.802 56.5965ZM155.862 55.3965C155.118 55.3965 154.758 54.8085 154.758 53.5125C154.758 52.2525 155.142 51.6765 155.85 51.6765C156.582 51.6765 156.918 52.2645 156.918 53.5125C156.918 54.8205 156.546 55.3965 155.862 55.3965ZM162.369 56.5845C162.741 56.5845 163.161 56.5485 163.449 56.5125V55.1805C163.197 55.2045 162.969 55.2045 162.741 55.1805C162.297 55.1205 162.105 54.8565 162.105 54.3885V51.8085H163.329V50.5485H162.105V48.7245H160.425L160.305 50.5485H159.345V51.8085H160.293V54.6885C160.293 55.9485 161.013 56.5845 162.369 56.5845Z" fill="#111111"/>
<path d="M106.464 62.1645C105.696 63.2125 105.312 64.3485 105.312 65.4925C105.312 66.6925 105.704 67.8285 106.472 68.8365H106.88C106.224 67.7725 105.896 66.6845 105.896 65.5005C105.896 64.2685 106.208 63.1965 106.872 62.1645H106.464ZM109.437 67.5885C110.653 67.5885 111.373 66.9965 111.373 66.0525C111.373 65.1565 110.765 64.7805 109.645 64.4845C108.549 64.1965 108.157 63.9965 108.157 63.4045C108.157 62.9485 108.597 62.6125 109.269 62.6125C109.941 62.6125 110.453 62.9645 110.613 63.5645L111.229 63.3725C110.973 62.5405 110.277 62.0605 109.277 62.0605C108.245 62.0605 107.493 62.6125 107.493 63.4765C107.493 64.4205 108.237 64.7725 109.221 65.0205C110.101 65.2525 110.717 65.4445 110.717 66.1085C110.717 66.7165 110.229 67.0445 109.445 67.0445C108.509 67.0445 108.053 66.6605 107.805 66.0125L107.237 66.2365C107.589 67.1245 108.277 67.5885 109.437 67.5885ZM113.448 67.5005L114.216 64.8125L114.296 64.4685L114.392 64.8285L115.192 67.5005H115.72L116.896 63.5565H116.36L115.592 66.2925L115.488 66.6285L115.4 66.2765L114.592 63.5565H114.08L113.328 66.2525L113.232 66.6125L113.144 66.2525L112.36 63.5565H111.728L112.92 67.5005H113.448ZM118.419 67.5485C119.155 67.5485 119.619 67.2685 119.931 66.8365C119.923 67.0365 119.955 67.3645 120.003 67.5005H120.595C120.531 67.2525 120.507 66.9805 120.507 66.7325V64.9405C120.507 63.9485 120.075 63.4845 118.955 63.4845C118.019 63.4845 117.403 63.8685 117.259 64.5885L117.835 64.6525C117.963 64.1485 118.299 63.9725 118.939 63.9725C119.603 63.9725 119.859 64.2045 119.907 64.6365C119.923 64.7325 119.923 64.8685 119.923 65.0045C119.611 65.0125 119.347 65.0125 119.027 65.0525C117.947 65.1805 117.163 65.6045 117.163 66.4605C117.163 67.1805 117.723 67.5485 118.419 67.5485ZM118.603 67.0925C118.075 67.0925 117.811 66.8525 117.811 66.3965C117.811 65.9005 118.251 65.5565 119.107 65.4445C119.355 65.4125 119.643 65.4125 119.923 65.4125V66.2285C119.755 66.6365 119.355 67.0925 118.603 67.0925ZM123.542 67.5565C124.334 67.5565 125.046 66.8605 125.046 65.5245C125.046 64.1005 124.438 63.4845 123.558 63.4845C122.926 63.4845 122.526 63.8685 122.286 64.2525V63.5565H121.694V68.8365H122.31V66.9805C122.55 67.2685 122.966 67.5565 123.542 67.5565ZM123.374 67.1005C122.806 67.1005 122.518 66.7485 122.31 66.4525V64.7885C122.59 64.2365 122.958 63.9965 123.414 63.9965C124.094 63.9965 124.398 64.4845 124.398 65.5405C124.398 66.6765 123.998 67.1005 123.374 67.1005ZM128.963 67.5005L129.731 64.8125L129.811 64.4685L129.907 64.8285L130.707 67.5005H131.235L132.411 63.5565H131.875L131.107 66.2925L131.003 66.6285L130.915 66.2765L130.107 63.5565H129.595L128.843 66.2525L128.747 66.6125L128.659 66.2525L127.875 63.5565H127.243L128.435 67.5005H128.963ZM133.709 62.8605V62.1565H133.029V62.8605H133.709ZM133.685 67.5005V63.5565H133.061V67.5005H133.685ZM136.001 67.5565C136.217 67.5565 136.457 67.5325 136.673 67.4925V67.0045C136.529 67.0285 136.297 67.0525 136.113 67.0525C135.777 67.0445 135.561 66.8605 135.561 66.4445V64.0525H136.449V63.5565H135.561V62.5245H134.993L134.961 63.5565H134.313V64.0525H134.953V66.4125C134.953 67.2285 135.337 67.5565 136.001 67.5565ZM137.982 67.5005V64.8045C138.31 64.3325 138.702 64.0045 139.254 64.0045C139.654 64.0045 139.894 64.2285 139.894 64.7085V67.5005H140.518V64.6605C140.518 64.0125 140.23 63.4845 139.43 63.4845C138.694 63.4845 138.214 63.9245 137.958 64.3325V62.1645H137.358V67.5005H137.982ZM144.185 67.5005V62.1645H143.561V67.5005H144.185ZM146.861 67.5645C147.837 67.5645 148.645 66.7565 148.645 65.5165C148.645 64.3005 147.941 63.4845 146.861 63.4845C145.893 63.4845 145.093 64.2765 145.093 65.5085C145.093 66.7565 145.845 67.5645 146.861 67.5645ZM146.853 67.1005C146.189 67.1005 145.749 66.5085 145.749 65.5165C145.749 64.5005 146.229 63.9725 146.853 63.9725C147.509 63.9725 147.989 64.4845 147.989 65.5085C147.989 66.5725 147.501 67.1005 146.853 67.1005ZM150.93 67.5645C151.714 67.5645 152.298 67.1085 152.434 66.2205L151.89 66.1645C151.77 66.8205 151.466 67.1005 150.946 67.1005C150.354 67.1005 149.89 66.6125 149.89 65.5245C149.89 64.5405 150.274 63.9805 150.906 63.9805C151.45 63.9805 151.762 64.3325 151.858 64.9805L152.442 64.9085C152.266 63.9405 151.738 63.4845 150.898 63.4845C149.898 63.4845 149.234 64.3645 149.234 65.5085C149.234 66.8285 149.962 67.5645 150.93 67.5645ZM154.208 67.5485C154.944 67.5485 155.408 67.2685 155.72 66.8365C155.712 67.0365 155.744 67.3645 155.792 67.5005H156.384C156.32 67.2525 156.296 66.9805 156.296 66.7325V64.9405C156.296 63.9485 155.864 63.4845 154.744 63.4845C153.808 63.4845 153.192 63.8685 153.048 64.5885L153.624 64.6525C153.752 64.1485 154.088 63.9725 154.728 63.9725C155.392 63.9725 155.648 64.2045 155.696 64.6365C155.712 64.7325 155.712 64.8685 155.712 65.0045C155.4 65.0125 155.136 65.0125 154.816 65.0525C153.736 65.1805 152.952 65.6045 152.952 66.4605C152.952 67.1805 153.512 67.5485 154.208 67.5485ZM154.392 67.0925C153.864 67.0925 153.6 66.8525 153.6 66.3965C153.6 65.9005 154.04 65.5565 154.896 65.4445C155.144 65.4125 155.432 65.4125 155.712 65.4125V66.2285C155.544 66.6365 155.144 67.0925 154.392 67.0925ZM158.123 67.5005V62.1645H157.499V67.5005H158.123ZM162.57 67.5645C163.354 67.5645 163.938 67.1085 164.074 66.2205L163.53 66.1645C163.41 66.8205 163.106 67.1005 162.586 67.1005C161.994 67.1005 161.53 66.6125 161.53 65.5245C161.53 64.5405 161.914 63.9805 162.546 63.9805C163.09 63.9805 163.402 64.3325 163.498 64.9805L164.082 64.9085C163.906 63.9405 163.378 63.4845 162.538 63.4845C161.538 63.4845 160.874 64.3645 160.874 65.5085C160.874 66.8285 161.602 67.5645 162.57 67.5645ZM166.369 67.5645C167.345 67.5645 168.153 66.7565 168.153 65.5165C168.153 64.3005 167.449 63.4845 166.369 63.4845C165.401 63.4845 164.601 64.2765 164.601 65.5085C164.601 66.7565 165.353 67.5645 166.369 67.5645ZM166.361 67.1005C165.697 67.1005 165.257 66.5085 165.257 65.5165C165.257 64.5005 165.737 63.9725 166.361 63.9725C167.017 63.9725 167.497 64.4845 167.497 65.5085C167.497 66.5725 167.009 67.1005 166.361 67.1005ZM169.661 67.5005V64.7965C170.021 64.2925 170.349 63.9965 170.805 63.9965C171.189 63.9965 171.389 64.2605 171.389 64.7325V67.5005H171.997V64.8045C172.245 64.4125 172.653 64.0125 173.141 64.0125C173.525 64.0125 173.741 64.2285 173.741 64.7405V67.5005H174.357V64.7005C174.357 64.3805 174.277 64.1245 174.157 63.9405C173.997 63.6445 173.725 63.4925 173.317 63.4925C172.693 63.4925 172.229 63.9405 171.957 64.3725C171.909 63.8125 171.541 63.4845 170.965 63.4845C170.397 63.4845 169.877 63.9565 169.645 64.3485V63.5565H169.045V67.5005H169.661ZM177.378 67.5565C178.17 67.5565 178.882 66.8605 178.882 65.5245C178.882 64.1005 178.274 63.4845 177.394 63.4845C176.762 63.4845 176.362 63.8685 176.122 64.2525V63.5565H175.53V68.8365H176.146V66.9805C176.386 67.2685 176.802 67.5565 177.378 67.5565ZM177.21 67.1005C176.642 67.1005 176.354 66.7485 176.146 66.4525V64.7885C176.426 64.2365 176.794 63.9965 177.25 63.9965C177.93 63.9965 178.234 64.4845 178.234 65.5405C178.234 66.6765 177.834 67.1005 177.21 67.1005ZM181.252 67.5645C182.228 67.5645 183.036 66.7565 183.036 65.5165C183.036 64.3005 182.332 63.4845 181.252 63.4845C180.284 63.4845 179.484 64.2765 179.484 65.5085C179.484 66.7565 180.236 67.5645 181.252 67.5645ZM181.243 67.1005C180.58 67.1005 180.14 66.5085 180.14 65.5165C180.14 64.5005 180.62 63.9725 181.243 63.9725C181.9 63.9725 182.38 64.4845 182.38 65.5085C182.38 66.5725 181.892 67.1005 181.243 67.1005ZM184.552 67.5005V64.7965C184.88 64.3245 185.296 64.0045 185.8 64.0045C186.248 64.0045 186.456 64.2285 186.456 64.7005V67.5005H187.08V64.7085C187.08 63.9005 186.72 63.4845 185.984 63.4845C185.28 63.4845 184.792 63.9485 184.52 64.3405V63.5565H183.928V67.5005H184.552ZM189.776 67.5645C190.56 67.5645 191.168 67.1565 191.44 66.3965L190.896 66.3165C190.672 66.9005 190.264 67.0925 189.832 67.0925C189.064 67.0925 188.616 66.5885 188.6 65.5965H191.512C191.504 65.5085 191.512 65.4205 191.504 65.3325C191.424 64.2365 190.824 63.4845 189.792 63.4845C188.776 63.4845 187.968 64.2605 187.968 65.5965C187.968 66.7725 188.696 67.5645 189.776 67.5645ZM188.624 65.1725C188.672 64.4285 189.16 63.9565 189.792 63.9565C190.424 63.9565 190.816 64.4125 190.88 65.1725H188.624ZM192.997 67.5005V64.7965C193.325 64.3245 193.741 64.0045 194.245 64.0045C194.693 64.0045 194.901 64.2285 194.901 64.7005V67.5005H195.525V64.7085C195.525 63.9005 195.165 63.4845 194.429 63.4845C193.725 63.4845 193.237 63.9485 192.965 64.3405V63.5565H192.373V67.5005H192.997ZM197.813 67.5565C198.029 67.5565 198.269 67.5325 198.485 67.4925V67.0045C198.341 67.0285 198.109 67.0525 197.925 67.0525C197.589 67.0445 197.373 66.8605 197.373 66.4445V64.0525H198.261V63.5565H197.373V62.5245H196.805L196.773 63.5565H196.125V64.0525H196.765V66.4125C196.765 67.2285 197.149 67.5565 197.813 67.5565ZM198.826 62.1645C199.49 63.2285 199.81 64.3165 199.81 65.5005C199.81 66.7325 199.506 67.8045 198.834 68.8365H199.242C200.01 67.7885 200.394 66.6525 200.394 65.5085C200.394 64.3005 200.002 63.1725 199.234 62.1645H198.826Z" fill="#666666"/>
<rect x="97.5" y="4.5" width="111" height="108.001" rx="1.5" stroke="#D4D4D4" shape-rendering="crispEdges"/>
</g>
<defs>
<filter id="filter0_d_2_31423" x="93" y="2" width="120" height="117.001" filterUnits="userSpaceOnUse" color-interpolation-filters="sRGB">
<feFlood flood-opacity="0" result="BackgroundImageFix"/>
<feColorMatrix in="SourceAlpha" type="matrix" values="0 0 0 0 0 0 0 0 0 0 0 0 0 0 0 0 0 0 127 0" result="hardAlpha"/>
<feOffset dy="2"/>
<feGaussianBlur stdDeviation="2"/>
<feComposite in2="hardAlpha" operator="out"/>
<feColorMatrix type="matrix" values="0 0 0 0 0.4 0 0 0 0 0.4 0 0 0 0 0.4 0 0 0 0.25 0"/>
<feBlend mode="normal" in2="BackgroundImageFix" result="effect1_dropShadow_2_31423"/>
<feBlend mode="normal" in="SourceGraphic" in2="effect1_dropShadow_2_31423" result="shape"/>
</filter>
</defs>
</svg>
