<svg width="573" height="212" viewBox="0 0 573 212" fill="none" xmlns="http://www.w3.org/2000/svg">
<rect x="163" y="29" width="40" height="40" rx="20" fill="#494949"/>
<g clip-path="url(#clip0_2_31425)">
<path d="M189 48.5H183.5V43H182.5V48.5H177V49.5H182.5V55H183.5V49.5H189V48.5Z" fill="white"/>
</g>
<rect x="453" y="121" width="40" height="40" rx="20" fill="#494949"/>
<g clip-path="url(#clip1_2_31425)">
<path d="M479 140.5H473.5V135H472.5V140.5H467V141.5H472.5V147H473.5V141.5H479V140.5Z" fill="white"/>
</g>
<g filter="url(#filter0_d_2_31425)">
<path d="M187.27 64.28C186.99 63.92 186.64 63.19 186.03 62.28C185.68 61.78 184.82 60.83 184.56 60.34C184.373 60.0423 184.318 59.6797 184.41 59.34C184.567 58.6943 185.18 58.2659 185.84 58.34C186.351 58.4427 186.82 58.693 187.19 59.06C187.448 59.3032 187.686 59.5675 187.9 59.85C188.06 60.05 188.1 60.13 188.28 60.36C188.46 60.59 188.58 60.82 188.49 60.48C188.42 59.98 188.3 59.14 188.13 58.39C188 57.82 187.97 57.73 187.85 57.3C187.73 56.87 187.66 56.51 187.53 56.02C187.411 55.5386 187.318 55.0513 187.25 54.56C187.124 53.9318 187.216 53.2793 187.51 52.71C187.859 52.3814 188.372 52.2947 188.81 52.49C189.251 52.8154 189.579 53.2697 189.75 53.79C190.012 54.4304 190.187 55.1031 190.27 55.79C190.43 56.79 190.74 58.25 190.75 58.55C190.75 58.18 190.68 57.4 190.75 57.05C190.819 56.6852 191.073 56.3824 191.42 56.25C191.718 56.1587 192.033 56.1381 192.34 56.19C192.65 56.2549 192.925 56.4332 193.11 56.69C193.342 57.2734 193.47 57.8926 193.49 58.52C193.517 57.9706 193.611 57.4266 193.77 56.9C193.937 56.6646 194.181 56.4948 194.46 56.42C194.791 56.3596 195.129 56.3596 195.46 56.42C195.731 56.5107 195.968 56.6816 196.14 56.91C196.352 57.4404 196.48 58.0004 196.52 58.57C196.52 58.71 196.59 58.18 196.81 57.83C196.924 57.4906 197.211 57.238 197.562 57.1673C197.913 57.0966 198.275 57.2186 198.512 57.4873C198.749 57.756 198.824 58.1306 198.71 58.47C198.71 59.12 198.71 59.09 198.71 59.53C198.71 59.97 198.71 60.36 198.71 60.73C198.674 61.3152 198.593 61.8969 198.47 62.47C198.296 62.9772 198.054 63.4582 197.75 63.9C197.264 64.44 196.863 65.0502 196.56 65.71C196.485 66.0379 196.451 66.3738 196.46 66.71C196.459 67.0207 196.499 67.3301 196.58 67.63C196.171 67.6733 195.759 67.6733 195.35 67.63C194.96 67.57 194.48 66.79 194.35 66.55C194.286 66.4212 194.154 66.3398 194.01 66.3398C193.866 66.3398 193.734 66.4212 193.67 66.55C193.45 66.93 192.96 67.62 192.62 67.66C191.95 67.74 190.57 67.66 189.48 67.66C189.48 67.66 189.66 66.66 189.25 66.3C188.84 65.9401 188.42 65.52 188.11 65.24L187.27 64.28Z" fill="white"/>
<path fill-rule="evenodd" clip-rule="evenodd" d="M187.27 64.28C186.99 63.92 186.64 63.19 186.03 62.28C185.68 61.78 184.82 60.83 184.56 60.34C184.373 60.0423 184.318 59.6797 184.41 59.34C184.567 58.6943 185.18 58.2659 185.84 58.34C186.351 58.4427 186.82 58.693 187.19 59.06C187.448 59.3032 187.686 59.5675 187.9 59.85C188.06 60.05 188.1 60.13 188.28 60.36C188.46 60.59 188.58 60.82 188.49 60.48C188.42 59.98 188.3 59.14 188.13 58.39C188 57.82 187.97 57.73 187.85 57.3C187.73 56.87 187.66 56.51 187.53 56.02C187.411 55.5386 187.318 55.0513 187.25 54.56C187.124 53.9318 187.216 53.2793 187.51 52.71C187.859 52.3814 188.372 52.2947 188.81 52.49C189.251 52.8154 189.579 53.2697 189.75 53.79C190.012 54.4304 190.187 55.1031 190.27 55.79C190.43 56.79 190.74 58.25 190.75 58.55C190.75 58.18 190.68 57.4 190.75 57.05C190.819 56.6852 191.073 56.3824 191.42 56.25C191.718 56.1587 192.033 56.1381 192.34 56.19C192.65 56.2549 192.925 56.4332 193.11 56.69C193.342 57.2734 193.47 57.8926 193.49 58.52C193.517 57.9706 193.611 57.4266 193.77 56.9C193.937 56.6646 194.181 56.4948 194.46 56.42C194.791 56.3596 195.129 56.3596 195.46 56.42C195.731 56.5107 195.968 56.6816 196.14 56.91C196.352 57.4404 196.48 58.0004 196.52 58.57C196.52 58.71 196.59 58.18 196.81 57.83C196.924 57.4906 197.211 57.238 197.562 57.1673C197.913 57.0966 198.275 57.2186 198.512 57.4873C198.749 57.756 198.824 58.1306 198.71 58.47C198.71 59.12 198.71 59.09 198.71 59.53C198.71 59.97 198.71 60.36 198.71 60.73C198.674 61.3152 198.593 61.8969 198.47 62.47C198.296 62.9772 198.054 63.4582 197.75 63.9C197.264 64.44 196.863 65.0502 196.56 65.71C196.485 66.0379 196.451 66.3738 196.46 66.71C196.459 67.0207 196.499 67.3301 196.58 67.63C196.171 67.6733 195.759 67.6733 195.35 67.63C194.96 67.57 194.48 66.79 194.35 66.55C194.286 66.4212 194.154 66.3398 194.01 66.3398C193.866 66.3398 193.734 66.4212 193.67 66.55C193.45 66.93 192.96 67.62 192.62 67.66C191.95 67.74 190.57 67.66 189.48 67.66C189.48 67.66 189.66 66.66 189.25 66.3C188.84 65.94 188.42 65.52 188.11 65.24L187.27 64.28Z" stroke="black" stroke-width="0.75" stroke-linecap="round" stroke-linejoin="round"/>
<path d="M195.75 64.8259V61.3741C195.75 61.1675 195.582 61 195.375 61C195.168 61 195 61.1675 195 61.3741V64.8259C195 65.0325 195.168 65.2 195.375 65.2C195.582 65.2 195.75 65.0325 195.75 64.8259Z" fill="black"/>
<path d="M193.77 64.8246L193.75 61.3711C193.749 61.1649 193.58 60.9988 193.373 61C193.166 61.0012 192.999 61.1693 193 61.3754L193.02 64.8289C193.021 65.035 193.19 65.2012 193.397 65.2C193.604 65.1988 193.771 65.0307 193.77 64.8246Z" fill="black"/>
<path d="M191 61.379L191.02 64.8254C191.021 65.0335 191.19 65.2012 191.397 65.2C191.604 65.1988 191.771 65.0291 191.77 64.821L191.75 61.3746C191.749 61.1665 191.58 60.9988 191.373 61C191.166 61.0012 190.999 61.1709 191 61.379Z" fill="black"/>
</g>
<g filter="url(#filter1_d_2_31425)">
<path d="M469.27 161.28C468.99 160.92 468.64 160.19 468.03 159.28C467.68 158.78 466.82 157.83 466.56 157.34C466.373 157.042 466.318 156.68 466.41 156.34C466.567 155.694 467.18 155.266 467.84 155.34C468.351 155.443 468.82 155.693 469.19 156.06C469.448 156.303 469.686 156.567 469.9 156.85C470.06 157.05 470.1 157.13 470.28 157.36C470.46 157.59 470.58 157.82 470.49 157.48C470.42 156.98 470.3 156.14 470.13 155.39C470 154.82 469.97 154.73 469.85 154.3C469.73 153.87 469.66 153.51 469.53 153.02C469.411 152.539 469.318 152.051 469.25 151.56C469.124 150.932 469.216 150.279 469.51 149.71C469.859 149.381 470.372 149.295 470.81 149.49C471.251 149.815 471.579 150.27 471.75 150.79C472.012 151.43 472.187 152.103 472.27 152.79C472.43 153.79 472.74 155.25 472.75 155.55C472.75 155.18 472.68 154.4 472.75 154.05C472.819 153.685 473.073 153.382 473.42 153.25C473.718 153.159 474.033 153.138 474.34 153.19C474.65 153.255 474.925 153.433 475.11 153.69C475.342 154.273 475.47 154.893 475.49 155.52C475.517 154.971 475.611 154.427 475.77 153.9C475.937 153.665 476.181 153.495 476.46 153.42C476.791 153.36 477.129 153.36 477.46 153.42C477.731 153.511 477.968 153.682 478.14 153.91C478.352 154.44 478.48 155 478.52 155.57C478.52 155.71 478.59 155.18 478.81 154.83C478.924 154.491 479.211 154.238 479.562 154.167C479.913 154.097 480.275 154.219 480.512 154.487C480.749 154.756 480.824 155.131 480.71 155.47C480.71 156.12 480.71 156.09 480.71 156.53C480.71 156.97 480.71 157.36 480.71 157.73C480.674 158.315 480.593 158.897 480.47 159.47C480.296 159.977 480.054 160.458 479.75 160.9C479.264 161.44 478.863 162.05 478.56 162.71C478.485 163.038 478.451 163.374 478.46 163.71C478.459 164.021 478.499 164.33 478.58 164.63C478.171 164.673 477.759 164.673 477.35 164.63C476.96 164.57 476.48 163.79 476.35 163.55C476.286 163.421 476.154 163.34 476.01 163.34C475.866 163.34 475.734 163.421 475.67 163.55C475.45 163.93 474.96 164.62 474.62 164.66C473.95 164.74 472.57 164.66 471.48 164.66C471.48 164.66 471.66 163.66 471.25 163.3C470.84 162.94 470.42 162.52 470.11 162.24L469.27 161.28Z" fill="white"/>
<path fill-rule="evenodd" clip-rule="evenodd" d="M469.27 161.28C468.99 160.92 468.64 160.19 468.03 159.28C467.68 158.78 466.82 157.83 466.56 157.34C466.373 157.042 466.318 156.68 466.41 156.34C466.567 155.694 467.18 155.266 467.84 155.34C468.351 155.443 468.82 155.693 469.19 156.06C469.448 156.303 469.686 156.567 469.9 156.85C470.06 157.05 470.1 157.13 470.28 157.36C470.46 157.59 470.58 157.82 470.49 157.48C470.42 156.98 470.3 156.14 470.13 155.39C470 154.82 469.97 154.73 469.85 154.3C469.73 153.87 469.66 153.51 469.53 153.02C469.411 152.539 469.318 152.051 469.25 151.56C469.124 150.932 469.216 150.279 469.51 149.71C469.859 149.381 470.372 149.295 470.81 149.49C471.251 149.815 471.579 150.27 471.75 150.79C472.012 151.43 472.187 152.103 472.27 152.79C472.43 153.79 472.74 155.25 472.75 155.55C472.75 155.18 472.68 154.4 472.75 154.05C472.819 153.685 473.073 153.382 473.42 153.25C473.718 153.159 474.033 153.138 474.34 153.19C474.65 153.255 474.925 153.433 475.11 153.69C475.342 154.273 475.47 154.893 475.49 155.52C475.517 154.971 475.611 154.427 475.77 153.9C475.937 153.665 476.181 153.495 476.46 153.42C476.791 153.36 477.129 153.36 477.46 153.42C477.731 153.511 477.968 153.682 478.14 153.91C478.352 154.44 478.48 155 478.52 155.57C478.52 155.71 478.59 155.18 478.81 154.83C478.924 154.491 479.211 154.238 479.562 154.167C479.913 154.097 480.275 154.219 480.512 154.487C480.749 154.756 480.824 155.131 480.71 155.47C480.71 156.12 480.71 156.09 480.71 156.53C480.71 156.97 480.71 157.36 480.71 157.73C480.674 158.315 480.593 158.897 480.47 159.47C480.296 159.977 480.054 160.458 479.75 160.9C479.264 161.44 478.863 162.05 478.56 162.71C478.485 163.038 478.451 163.374 478.46 163.71C478.459 164.021 478.499 164.33 478.58 164.63C478.171 164.673 477.759 164.673 477.35 164.63C476.96 164.57 476.48 163.79 476.35 163.55C476.286 163.421 476.154 163.34 476.01 163.34C475.866 163.34 475.734 163.421 475.67 163.55C475.45 163.93 474.96 164.62 474.62 164.66C473.95 164.74 472.57 164.66 471.48 164.66C471.48 164.66 471.66 163.66 471.25 163.3C470.84 162.94 470.42 162.52 470.11 162.24L469.27 161.28Z" stroke="black" stroke-width="0.75" stroke-linecap="round" stroke-linejoin="round"/>
<path d="M477.75 161.826V158.374C477.75 158.167 477.582 158 477.375 158C477.168 158 477 158.167 477 158.374V161.826C477 162.033 477.168 162.2 477.375 162.2C477.582 162.2 477.75 162.033 477.75 161.826Z" fill="black"/>
<path d="M475.77 161.825L475.75 158.371C475.749 158.165 475.58 157.999 475.373 158C475.166 158.001 474.999 158.169 475 158.375L475.02 161.829C475.021 162.035 475.19 162.201 475.397 162.2C475.604 162.199 475.771 162.031 475.77 161.825Z" fill="black"/>
<path d="M473 158.379L473.02 161.825C473.021 162.033 473.19 162.201 473.397 162.2C473.604 162.199 473.771 162.029 473.77 161.821L473.75 158.375C473.749 158.167 473.58 157.999 473.373 158C473.166 158.001 472.999 158.171 473 158.379Z" fill="black"/>
</g>
<g filter="url(#filter2_d_2_31425)">
<rect x="132" y="78" width="112" height="109.001" rx="2" fill="white" shape-rendering="crispEdges"/>
<rect width="96" height="93.001" transform="translate(140 86)" fill="#F0F0F0"/>
<path d="M180.648 130.62C182.796 130.62 183.84 129.6 183.84 128.184C183.84 126.516 182.592 126.024 181.26 125.712C180.156 125.448 179.376 125.316 179.376 124.608C179.376 124.14 179.82 123.864 180.48 123.864C181.212 123.864 181.74 124.164 181.968 124.824L183.636 124.32C183.18 123.096 182.196 122.352 180.504 122.352C178.572 122.352 177.408 123.312 177.408 124.668C177.408 126.432 178.824 126.852 180.06 127.152C181.032 127.392 181.908 127.56 181.908 128.292C181.908 128.82 181.404 129.144 180.612 129.144C179.52 129.144 179.004 128.676 178.68 127.896L177.12 128.496C177.588 129.708 178.524 130.62 180.648 130.62ZM186.682 130.5V122.496H184.81V130.5H186.682ZM190.802 130.596C192.662 130.596 193.91 129.276 193.91 127.536C193.91 125.688 192.686 124.44 190.838 124.44C189.074 124.44 187.778 125.724 187.778 127.572C187.778 129.312 189.026 130.596 190.802 130.596ZM190.862 129.396C190.118 129.396 189.758 128.808 189.758 127.512C189.758 126.252 190.142 125.676 190.85 125.676C191.582 125.676 191.918 126.264 191.918 127.512C191.918 128.82 191.546 129.396 190.862 129.396ZM197.369 130.584C197.741 130.584 198.161 130.548 198.449 130.512V129.18C198.197 129.204 197.969 129.204 197.741 129.18C197.297 129.12 197.105 128.856 197.105 128.388V125.808H198.329V124.548H197.105V122.724H195.425L195.305 124.548H194.345V125.808H195.293V128.688C195.293 129.948 196.013 130.584 197.369 130.584Z" fill="#111111"/>
<path d="M141.464 136.164C140.696 137.212 140.312 138.348 140.312 139.492C140.312 140.692 140.704 141.828 141.472 142.836H141.88C141.224 141.772 140.896 140.684 140.896 139.5C140.896 138.268 141.208 137.196 141.872 136.164H141.464ZM144.437 141.588C145.653 141.588 146.373 140.996 146.373 140.052C146.373 139.156 145.765 138.78 144.645 138.484C143.549 138.196 143.157 137.996 143.157 137.404C143.157 136.948 143.597 136.612 144.269 136.612C144.941 136.612 145.453 136.964 145.613 137.564L146.229 137.372C145.973 136.54 145.277 136.06 144.277 136.06C143.245 136.06 142.493 136.612 142.493 137.476C142.493 138.42 143.237 138.772 144.221 139.02C145.101 139.252 145.717 139.444 145.717 140.108C145.717 140.716 145.229 141.044 144.445 141.044C143.509 141.044 143.053 140.66 142.805 140.012L142.237 140.236C142.589 141.124 143.277 141.588 144.437 141.588ZM148.448 141.5L149.216 138.812L149.296 138.468L149.392 138.828L150.192 141.5H150.72L151.896 137.556H151.36L150.592 140.292L150.488 140.628L150.4 140.276L149.592 137.556H149.08L148.328 140.252L148.232 140.612L148.144 140.252L147.36 137.556H146.728L147.92 141.5H148.448ZM153.419 141.548C154.155 141.548 154.619 141.268 154.931 140.836C154.923 141.036 154.955 141.364 155.003 141.5H155.595C155.531 141.252 155.507 140.98 155.507 140.732V138.94C155.507 137.948 155.075 137.484 153.955 137.484C153.019 137.484 152.403 137.868 152.259 138.588L152.835 138.652C152.963 138.148 153.299 137.972 153.939 137.972C154.603 137.972 154.859 138.204 154.907 138.636C154.923 138.732 154.923 138.868 154.923 139.004C154.611 139.012 154.347 139.012 154.027 139.052C152.947 139.18 152.163 139.604 152.163 140.46C152.163 141.18 152.723 141.548 153.419 141.548ZM153.603 141.092C153.075 141.092 152.811 140.852 152.811 140.396C152.811 139.9 153.251 139.556 154.107 139.444C154.355 139.412 154.643 139.412 154.923 139.412V140.228C154.755 140.636 154.355 141.092 153.603 141.092ZM158.542 141.556C159.334 141.556 160.046 140.86 160.046 139.524C160.046 138.1 159.438 137.484 158.558 137.484C157.926 137.484 157.526 137.868 157.286 138.252V137.556H156.694V142.836H157.31V140.98C157.55 141.268 157.966 141.556 158.542 141.556ZM158.374 141.1C157.806 141.1 157.518 140.748 157.31 140.452V138.788C157.59 138.236 157.958 137.996 158.414 137.996C159.094 137.996 159.398 138.484 159.398 139.54C159.398 140.676 158.998 141.1 158.374 141.1ZM163.963 141.5L164.731 138.812L164.811 138.468L164.907 138.828L165.707 141.5H166.235L167.411 137.556H166.875L166.107 140.292L166.003 140.628L165.915 140.276L165.107 137.556H164.595L163.843 140.252L163.747 140.612L163.659 140.252L162.875 137.556H162.243L163.435 141.5H163.963ZM168.709 136.86V136.156H168.029V136.86H168.709ZM168.685 141.5V137.556H168.061V141.5H168.685ZM171.001 141.556C171.217 141.556 171.457 141.532 171.673 141.492V141.004C171.529 141.028 171.297 141.052 171.113 141.052C170.777 141.044 170.561 140.86 170.561 140.444V138.052H171.449V137.556H170.561V136.524H169.993L169.961 137.556H169.313V138.052H169.953V140.412C169.953 141.228 170.337 141.556 171.001 141.556ZM172.982 141.5V138.804C173.31 138.332 173.702 138.004 174.254 138.004C174.654 138.004 174.894 138.228 174.894 138.708V141.5H175.518V138.66C175.518 138.012 175.23 137.484 174.43 137.484C173.694 137.484 173.214 137.924 172.958 138.332V136.164H172.358V141.5H172.982ZM179.185 141.5V136.164H178.561V141.5H179.185ZM181.861 141.564C182.837 141.564 183.645 140.756 183.645 139.516C183.645 138.3 182.941 137.484 181.861 137.484C180.893 137.484 180.093 138.276 180.093 139.508C180.093 140.756 180.845 141.564 181.861 141.564ZM181.853 141.1C181.189 141.1 180.749 140.508 180.749 139.516C180.749 138.5 181.229 137.972 181.853 137.972C182.509 137.972 182.989 138.484 182.989 139.508C182.989 140.572 182.501 141.1 181.853 141.1ZM185.93 141.564C186.714 141.564 187.298 141.108 187.434 140.22L186.89 140.164C186.77 140.82 186.466 141.1 185.946 141.1C185.354 141.1 184.89 140.612 184.89 139.524C184.89 138.54 185.274 137.98 185.906 137.98C186.45 137.98 186.762 138.332 186.858 138.98L187.442 138.908C187.266 137.94 186.738 137.484 185.898 137.484C184.898 137.484 184.234 138.364 184.234 139.508C184.234 140.828 184.962 141.564 185.93 141.564ZM189.208 141.548C189.944 141.548 190.408 141.268 190.72 140.836C190.712 141.036 190.744 141.364 190.792 141.5H191.384C191.32 141.252 191.296 140.98 191.296 140.732V138.94C191.296 137.948 190.864 137.484 189.744 137.484C188.808 137.484 188.192 137.868 188.048 138.588L188.624 138.652C188.752 138.148 189.088 137.972 189.728 137.972C190.392 137.972 190.648 138.204 190.696 138.636C190.712 138.732 190.712 138.868 190.712 139.004C190.4 139.012 190.136 139.012 189.816 139.052C188.736 139.18 187.952 139.604 187.952 140.46C187.952 141.18 188.512 141.548 189.208 141.548ZM189.392 141.092C188.864 141.092 188.6 140.852 188.6 140.396C188.6 139.9 189.04 139.556 189.896 139.444C190.144 139.412 190.432 139.412 190.712 139.412V140.228C190.544 140.636 190.144 141.092 189.392 141.092ZM193.123 141.5V136.164H192.499V141.5H193.123ZM197.57 141.564C198.354 141.564 198.938 141.108 199.074 140.22L198.53 140.164C198.41 140.82 198.106 141.1 197.586 141.1C196.994 141.1 196.53 140.612 196.53 139.524C196.53 138.54 196.914 137.98 197.546 137.98C198.09 137.98 198.402 138.332 198.498 138.98L199.082 138.908C198.906 137.94 198.378 137.484 197.538 137.484C196.538 137.484 195.874 138.364 195.874 139.508C195.874 140.828 196.602 141.564 197.57 141.564ZM201.369 141.564C202.345 141.564 203.153 140.756 203.153 139.516C203.153 138.3 202.449 137.484 201.369 137.484C200.401 137.484 199.601 138.276 199.601 139.508C199.601 140.756 200.353 141.564 201.369 141.564ZM201.361 141.1C200.697 141.1 200.257 140.508 200.257 139.516C200.257 138.5 200.737 137.972 201.361 137.972C202.017 137.972 202.497 138.484 202.497 139.508C202.497 140.572 202.009 141.1 201.361 141.1ZM204.661 141.5V138.796C205.021 138.292 205.349 137.996 205.805 137.996C206.189 137.996 206.389 138.26 206.389 138.732V141.5H206.997V138.804C207.245 138.412 207.653 138.012 208.141 138.012C208.525 138.012 208.741 138.228 208.741 138.74V141.5H209.357V138.7C209.357 138.38 209.277 138.124 209.157 137.94C208.997 137.644 208.725 137.492 208.317 137.492C207.693 137.492 207.229 137.94 206.957 138.372C206.909 137.812 206.541 137.484 205.965 137.484C205.397 137.484 204.877 137.956 204.645 138.348V137.556H204.045V141.5H204.661ZM212.378 141.556C213.17 141.556 213.882 140.86 213.882 139.524C213.882 138.1 213.274 137.484 212.394 137.484C211.762 137.484 211.362 137.868 211.122 138.252V137.556H210.53V142.836H211.146V140.98C211.386 141.268 211.802 141.556 212.378 141.556ZM212.21 141.1C211.642 141.1 211.354 140.748 211.146 140.452V138.788C211.426 138.236 211.794 137.996 212.25 137.996C212.93 137.996 213.234 138.484 213.234 139.54C213.234 140.676 212.834 141.1 212.21 141.1ZM216.252 141.564C217.228 141.564 218.036 140.756 218.036 139.516C218.036 138.3 217.332 137.484 216.252 137.484C215.284 137.484 214.484 138.276 214.484 139.508C214.484 140.756 215.236 141.564 216.252 141.564ZM216.243 141.1C215.58 141.1 215.14 140.508 215.14 139.516C215.14 138.5 215.62 137.972 216.243 137.972C216.9 137.972 217.38 138.484 217.38 139.508C217.38 140.572 216.892 141.1 216.243 141.1ZM219.552 141.5V138.796C219.88 138.324 220.296 138.004 220.8 138.004C221.248 138.004 221.456 138.228 221.456 138.7V141.5H222.08V138.708C222.08 137.9 221.72 137.484 220.984 137.484C220.28 137.484 219.792 137.948 219.52 138.34V137.556H218.928V141.5H219.552ZM224.776 141.564C225.56 141.564 226.168 141.156 226.44 140.396L225.896 140.316C225.672 140.9 225.264 141.092 224.832 141.092C224.064 141.092 223.616 140.588 223.6 139.596H226.512C226.504 139.508 226.512 139.42 226.504 139.332C226.424 138.236 225.824 137.484 224.792 137.484C223.776 137.484 222.968 138.26 222.968 139.596C222.968 140.772 223.696 141.564 224.776 141.564ZM223.624 139.172C223.672 138.428 224.16 137.956 224.792 137.956C225.424 137.956 225.816 138.412 225.88 139.172H223.624ZM227.997 141.5V138.796C228.325 138.324 228.741 138.004 229.245 138.004C229.693 138.004 229.901 138.228 229.901 138.7V141.5H230.525V138.708C230.525 137.9 230.165 137.484 229.429 137.484C228.725 137.484 228.237 137.948 227.965 138.34V137.556H227.373V141.5H227.997ZM232.813 141.556C233.029 141.556 233.269 141.532 233.485 141.492V141.004C233.341 141.028 233.109 141.052 232.925 141.052C232.589 141.044 232.373 140.86 232.373 140.444V138.052H233.261V137.556H232.373V136.524H231.805L231.773 137.556H231.125V138.052H231.765V140.412C231.765 141.228 232.149 141.556 232.813 141.556ZM233.826 136.164C234.49 137.228 234.81 138.316 234.81 139.5C234.81 140.732 234.506 141.804 233.834 142.836H234.242C235.01 141.788 235.394 140.652 235.394 139.508C235.394 138.3 235.002 137.172 234.234 136.164H233.826Z" fill="#666666"/>
<rect x="132.5" y="78.5" width="111" height="108.001" rx="1.5" stroke="#D4D4D4" shape-rendering="crispEdges"/>
</g>
<g filter="url(#filter3_d_2_31425)">
<rect x="417" y="2" width="112" height="109.001" rx="2" fill="white" shape-rendering="crispEdges"/>
<rect width="96" height="93.001" transform="translate(425 10)" fill="#F0F0F0"/>
<path d="M465.648 54.6205C467.796 54.6205 468.84 53.6005 468.84 52.1845C468.84 50.5165 467.592 50.0245 466.26 49.7125C465.156 49.4485 464.376 49.3165 464.376 48.6085C464.376 48.1405 464.82 47.8645 465.48 47.8645C466.212 47.8645 466.74 48.1645 466.968 48.8245L468.636 48.3205C468.18 47.0965 467.196 46.3525 465.504 46.3525C463.572 46.3525 462.408 47.3125 462.408 48.6685C462.408 50.4325 463.824 50.8525 465.06 51.1525C466.032 51.3925 466.908 51.5605 466.908 52.2925C466.908 52.8205 466.404 53.1445 465.612 53.1445C464.52 53.1445 464.004 52.6765 463.68 51.8965L462.12 52.4965C462.588 53.7085 463.524 54.6205 465.648 54.6205ZM471.682 54.5005V46.4965H469.81V54.5005H471.682ZM475.802 54.5965C477.662 54.5965 478.91 53.2765 478.91 51.5365C478.91 49.6885 477.686 48.4405 475.838 48.4405C474.074 48.4405 472.778 49.7245 472.778 51.5725C472.778 53.3125 474.026 54.5965 475.802 54.5965ZM475.862 53.3965C475.118 53.3965 474.758 52.8085 474.758 51.5125C474.758 50.2525 475.142 49.6765 475.85 49.6765C476.582 49.6765 476.918 50.2645 476.918 51.5125C476.918 52.8205 476.546 53.3965 475.862 53.3965ZM482.369 54.5845C482.741 54.5845 483.161 54.5485 483.449 54.5125V53.1805C483.197 53.2045 482.969 53.2045 482.741 53.1805C482.297 53.1205 482.105 52.8565 482.105 52.3885V49.8085H483.329V48.5485H482.105V46.7245H480.425L480.305 48.5485H479.345V49.8085H480.293V52.6885C480.293 53.9485 481.013 54.5845 482.369 54.5845Z" fill="#111111"/>
<path d="M426.464 60.1645C425.696 61.2125 425.312 62.3485 425.312 63.4925C425.312 64.6925 425.704 65.8285 426.472 66.8365H426.88C426.224 65.7725 425.896 64.6845 425.896 63.5005C425.896 62.2685 426.208 61.1965 426.872 60.1645H426.464ZM429.437 65.5885C430.653 65.5885 431.373 64.9965 431.373 64.0525C431.373 63.1565 430.765 62.7805 429.645 62.4845C428.549 62.1965 428.157 61.9965 428.157 61.4045C428.157 60.9485 428.597 60.6125 429.269 60.6125C429.941 60.6125 430.453 60.9645 430.613 61.5645L431.229 61.3725C430.973 60.5405 430.277 60.0605 429.277 60.0605C428.245 60.0605 427.493 60.6125 427.493 61.4765C427.493 62.4205 428.237 62.7725 429.221 63.0205C430.101 63.2525 430.717 63.4445 430.717 64.1085C430.717 64.7165 430.229 65.0445 429.445 65.0445C428.509 65.0445 428.053 64.6605 427.805 64.0125L427.237 64.2365C427.589 65.1245 428.277 65.5885 429.437 65.5885ZM433.448 65.5005L434.216 62.8125L434.296 62.4685L434.392 62.8285L435.192 65.5005H435.72L436.896 61.5565H436.36L435.592 64.2925L435.488 64.6285L435.4 64.2765L434.592 61.5565H434.08L433.328 64.2525L433.232 64.6125L433.144 64.2525L432.36 61.5565H431.728L432.92 65.5005H433.448ZM438.419 65.5485C439.155 65.5485 439.619 65.2685 439.931 64.8365C439.923 65.0365 439.955 65.3645 440.003 65.5005H440.595C440.531 65.2525 440.507 64.9805 440.507 64.7325V62.9405C440.507 61.9485 440.075 61.4845 438.955 61.4845C438.019 61.4845 437.403 61.8685 437.259 62.5885L437.835 62.6525C437.963 62.1485 438.299 61.9725 438.939 61.9725C439.603 61.9725 439.859 62.2045 439.907 62.6365C439.923 62.7325 439.923 62.8685 439.923 63.0045C439.611 63.0125 439.347 63.0125 439.027 63.0525C437.947 63.1805 437.163 63.6045 437.163 64.4605C437.163 65.1805 437.723 65.5485 438.419 65.5485ZM438.603 65.0925C438.075 65.0925 437.811 64.8525 437.811 64.3965C437.811 63.9005 438.251 63.5565 439.107 63.4445C439.355 63.4125 439.643 63.4125 439.923 63.4125V64.2285C439.755 64.6365 439.355 65.0925 438.603 65.0925ZM443.542 65.5565C444.334 65.5565 445.046 64.8605 445.046 63.5245C445.046 62.1005 444.438 61.4845 443.558 61.4845C442.926 61.4845 442.526 61.8685 442.286 62.2525V61.5565H441.694V66.8365H442.31V64.9805C442.55 65.2685 442.966 65.5565 443.542 65.5565ZM443.374 65.1005C442.806 65.1005 442.518 64.7485 442.31 64.4525V62.7885C442.59 62.2365 442.958 61.9965 443.414 61.9965C444.094 61.9965 444.398 62.4845 444.398 63.5405C444.398 64.6765 443.998 65.1005 443.374 65.1005ZM448.963 65.5005L449.731 62.8125L449.811 62.4685L449.907 62.8285L450.707 65.5005H451.235L452.411 61.5565H451.875L451.107 64.2925L451.003 64.6285L450.915 64.2765L450.107 61.5565H449.595L448.843 64.2525L448.747 64.6125L448.659 64.2525L447.875 61.5565H447.243L448.435 65.5005H448.963ZM453.709 60.8605V60.1565H453.029V60.8605H453.709ZM453.685 65.5005V61.5565H453.061V65.5005H453.685ZM456.001 65.5565C456.217 65.5565 456.457 65.5325 456.673 65.4925V65.0045C456.529 65.0285 456.297 65.0525 456.113 65.0525C455.777 65.0445 455.561 64.8605 455.561 64.4445V62.0525H456.449V61.5565H455.561V60.5245H454.993L454.961 61.5565H454.313V62.0525H454.953V64.4125C454.953 65.2285 455.337 65.5565 456.001 65.5565ZM457.982 65.5005V62.8045C458.31 62.3325 458.702 62.0045 459.254 62.0045C459.654 62.0045 459.894 62.2285 459.894 62.7085V65.5005H460.518V62.6605C460.518 62.0125 460.23 61.4845 459.43 61.4845C458.694 61.4845 458.214 61.9245 457.958 62.3325V60.1645H457.358V65.5005H457.982ZM464.185 65.5005V60.1645H463.561V65.5005H464.185ZM466.861 65.5645C467.837 65.5645 468.645 64.7565 468.645 63.5165C468.645 62.3005 467.941 61.4845 466.861 61.4845C465.893 61.4845 465.093 62.2765 465.093 63.5085C465.093 64.7565 465.845 65.5645 466.861 65.5645ZM466.853 65.1005C466.189 65.1005 465.749 64.5085 465.749 63.5165C465.749 62.5005 466.229 61.9725 466.853 61.9725C467.509 61.9725 467.989 62.4845 467.989 63.5085C467.989 64.5725 467.501 65.1005 466.853 65.1005ZM470.93 65.5645C471.714 65.5645 472.298 65.1085 472.434 64.2205L471.89 64.1645C471.77 64.8205 471.466 65.1005 470.946 65.1005C470.354 65.1005 469.89 64.6125 469.89 63.5245C469.89 62.5405 470.274 61.9805 470.906 61.9805C471.45 61.9805 471.762 62.3325 471.858 62.9805L472.442 62.9085C472.266 61.9405 471.738 61.4845 470.898 61.4845C469.898 61.4845 469.234 62.3645 469.234 63.5085C469.234 64.8285 469.962 65.5645 470.93 65.5645ZM474.208 65.5485C474.944 65.5485 475.408 65.2685 475.72 64.8365C475.712 65.0365 475.744 65.3645 475.792 65.5005H476.384C476.32 65.2525 476.296 64.9805 476.296 64.7325V62.9405C476.296 61.9485 475.864 61.4845 474.744 61.4845C473.808 61.4845 473.192 61.8685 473.048 62.5885L473.624 62.6525C473.752 62.1485 474.088 61.9725 474.728 61.9725C475.392 61.9725 475.648 62.2045 475.696 62.6365C475.712 62.7325 475.712 62.8685 475.712 63.0045C475.4 63.0125 475.136 63.0125 474.816 63.0525C473.736 63.1805 472.952 63.6045 472.952 64.4605C472.952 65.1805 473.512 65.5485 474.208 65.5485ZM474.392 65.0925C473.864 65.0925 473.6 64.8525 473.6 64.3965C473.6 63.9005 474.04 63.5565 474.896 63.4445C475.144 63.4125 475.432 63.4125 475.712 63.4125V64.2285C475.544 64.6365 475.144 65.0925 474.392 65.0925ZM478.123 65.5005V60.1645H477.499V65.5005H478.123ZM482.57 65.5645C483.354 65.5645 483.938 65.1085 484.074 64.2205L483.53 64.1645C483.41 64.8205 483.106 65.1005 482.586 65.1005C481.994 65.1005 481.53 64.6125 481.53 63.5245C481.53 62.5405 481.914 61.9805 482.546 61.9805C483.09 61.9805 483.402 62.3325 483.498 62.9805L484.082 62.9085C483.906 61.9405 483.378 61.4845 482.538 61.4845C481.538 61.4845 480.874 62.3645 480.874 63.5085C480.874 64.8285 481.602 65.5645 482.57 65.5645ZM486.369 65.5645C487.345 65.5645 488.153 64.7565 488.153 63.5165C488.153 62.3005 487.449 61.4845 486.369 61.4845C485.401 61.4845 484.601 62.2765 484.601 63.5085C484.601 64.7565 485.353 65.5645 486.369 65.5645ZM486.361 65.1005C485.697 65.1005 485.257 64.5085 485.257 63.5165C485.257 62.5005 485.737 61.9725 486.361 61.9725C487.017 61.9725 487.497 62.4845 487.497 63.5085C487.497 64.5725 487.009 65.1005 486.361 65.1005ZM489.661 65.5005V62.7965C490.021 62.2925 490.349 61.9965 490.805 61.9965C491.189 61.9965 491.389 62.2605 491.389 62.7325V65.5005H491.997V62.8045C492.245 62.4125 492.653 62.0125 493.141 62.0125C493.525 62.0125 493.741 62.2285 493.741 62.7405V65.5005H494.357V62.7005C494.357 62.3805 494.277 62.1245 494.157 61.9405C493.997 61.6445 493.725 61.4925 493.317 61.4925C492.693 61.4925 492.229 61.9405 491.957 62.3725C491.909 61.8125 491.541 61.4845 490.965 61.4845C490.397 61.4845 489.877 61.9565 489.645 62.3485V61.5565H489.045V65.5005H489.661ZM497.378 65.5565C498.17 65.5565 498.882 64.8605 498.882 63.5245C498.882 62.1005 498.274 61.4845 497.394 61.4845C496.762 61.4845 496.362 61.8685 496.122 62.2525V61.5565H495.53V66.8365H496.146V64.9805C496.386 65.2685 496.802 65.5565 497.378 65.5565ZM497.21 65.1005C496.642 65.1005 496.354 64.7485 496.146 64.4525V62.7885C496.426 62.2365 496.794 61.9965 497.25 61.9965C497.93 61.9965 498.234 62.4845 498.234 63.5405C498.234 64.6765 497.834 65.1005 497.21 65.1005ZM501.252 65.5645C502.228 65.5645 503.036 64.7565 503.036 63.5165C503.036 62.3005 502.332 61.4845 501.252 61.4845C500.284 61.4845 499.484 62.2765 499.484 63.5085C499.484 64.7565 500.236 65.5645 501.252 65.5645ZM501.243 65.1005C500.58 65.1005 500.14 64.5085 500.14 63.5165C500.14 62.5005 500.62 61.9725 501.243 61.9725C501.9 61.9725 502.38 62.4845 502.38 63.5085C502.38 64.5725 501.892 65.1005 501.243 65.1005ZM504.552 65.5005V62.7965C504.88 62.3245 505.296 62.0045 505.8 62.0045C506.248 62.0045 506.456 62.2285 506.456 62.7005V65.5005H507.08V62.7085C507.08 61.9005 506.72 61.4845 505.984 61.4845C505.28 61.4845 504.792 61.9485 504.52 62.3405V61.5565H503.928V65.5005H504.552ZM509.776 65.5645C510.56 65.5645 511.168 65.1565 511.44 64.3965L510.896 64.3165C510.672 64.9005 510.264 65.0925 509.832 65.0925C509.064 65.0925 508.616 64.5885 508.6 63.5965H511.512C511.504 63.5085 511.512 63.4205 511.504 63.3325C511.424 62.2365 510.824 61.4845 509.792 61.4845C508.776 61.4845 507.968 62.2605 507.968 63.5965C507.968 64.7725 508.696 65.5645 509.776 65.5645ZM508.624 63.1725C508.672 62.4285 509.16 61.9565 509.792 61.9565C510.424 61.9565 510.816 62.4125 510.88 63.1725H508.624ZM512.997 65.5005V62.7965C513.325 62.3245 513.741 62.0045 514.245 62.0045C514.693 62.0045 514.901 62.2285 514.901 62.7005V65.5005H515.525V62.7085C515.525 61.9005 515.165 61.4845 514.429 61.4845C513.725 61.4845 513.237 61.9485 512.965 62.3405V61.5565H512.373V65.5005H512.997ZM517.813 65.5565C518.029 65.5565 518.269 65.5325 518.485 65.4925V65.0045C518.341 65.0285 518.109 65.0525 517.925 65.0525C517.589 65.0445 517.373 64.8605 517.373 64.4445V62.0525H518.261V61.5565H517.373V60.5245H516.805L516.773 61.5565H516.125V62.0525H516.765V64.4125C516.765 65.2285 517.149 65.5565 517.813 65.5565ZM518.826 60.1645C519.49 61.2285 519.81 62.3165 519.81 63.5005C519.81 64.7325 519.506 65.8045 518.834 66.8365H519.242C520.01 65.7885 520.394 64.6525 520.394 63.5085C520.394 62.3005 520.002 61.1725 519.234 60.1645H518.826Z" fill="#666666"/>
<rect x="417.5" y="2.5" width="111" height="108.001" rx="1.5" stroke="#D4D4D4" shape-rendering="crispEdges"/>
</g>
<path d="M8.59119 208V206.896H3.02319V202.992H7.07119V201.904H3.02319V198.48H8.44719V197.328H1.69519V208H8.59119ZM12.2644 208.128C13.4164 208.128 14.2164 207.664 14.8404 206.8V208H16.0084V197.328H14.8084V201.184C14.4404 200.656 13.6884 199.968 12.4884 199.968C10.4724 199.968 9.25644 201.744 9.25644 204.08C9.25644 206.656 10.3604 208.128 12.2644 208.128ZM12.6004 207.184C11.2884 207.184 10.5524 206.272 10.5524 204.08C10.5524 202.064 11.2564 200.944 12.6804 200.944C13.8484 200.944 14.3924 201.616 14.7924 202.368V205.584C14.4564 206.464 13.7844 207.184 12.6004 207.184ZM21.3702 210.976C23.9302 210.976 25.2262 210.016 25.2262 208.64C25.2262 207.344 24.3302 206.816 21.8182 206.768C20.2182 206.72 19.2262 206.72 19.2262 206.016C19.2262 205.536 19.6742 205.232 20.0902 205.232C20.2182 205.264 20.7302 205.376 21.2422 205.376C23.0342 205.376 24.1222 204.24 24.1222 202.672C24.1222 201.856 23.8182 201.232 23.4022 200.864C23.5302 200.288 23.8662 199.952 24.6662 199.968C24.7622 199.968 24.8422 199.984 24.9382 200L24.9222 198.96C24.8742 198.96 24.7782 198.96 24.7302 198.96C23.3862 198.944 22.9542 199.488 22.7622 200.352C22.2822 200.096 21.7062 199.968 21.1142 199.968C19.5302 199.968 18.1702 201.056 18.1702 202.672C18.1702 203.632 18.5542 204.448 19.3222 204.848C18.6182 205.04 18.0742 205.52 18.0742 206.192C18.0742 206.8 18.3942 207.248 19.1942 207.472C18.2342 207.712 17.6582 208.304 17.6582 209.088C17.6582 210.304 18.9382 210.976 21.3702 210.976ZM21.1782 204.544C20.1062 204.544 19.4022 203.904 19.4022 202.672C19.4022 201.68 20.0102 200.864 21.1782 200.864C22.3622 200.864 22.9542 201.728 22.9542 202.688C22.9542 203.872 22.2982 204.544 21.1782 204.544ZM21.2742 210.144C19.5142 210.144 18.7942 209.696 18.7942 208.944C18.7942 208.24 19.2742 207.92 19.8982 207.744C23.4502 207.824 24.0422 208 24.0422 208.8C24.0422 209.6 23.0342 210.144 21.2742 210.144ZM29.3256 208.128C30.8936 208.128 32.1096 207.312 32.6536 205.792L31.5656 205.632C31.1176 206.8 30.3016 207.184 29.4376 207.184C27.9016 207.184 27.0056 206.176 26.9736 204.192H32.7976C32.7816 204.016 32.7976 203.84 32.7816 203.664C32.6216 201.472 31.4216 199.968 29.3576 199.968C27.3256 199.968 25.7096 201.52 25.7096 204.192C25.7096 206.544 27.1656 208.128 29.3256 208.128ZM27.0216 203.344C27.1176 201.856 28.0936 200.912 29.3576 200.912C30.6216 200.912 31.4056 201.824 31.5336 203.344H27.0216ZM41.1358 208.128C43.0878 208.128 44.7038 206.512 44.7038 204.032C44.7038 201.6 43.2958 199.968 41.1358 199.968C39.1998 199.968 37.5998 201.552 37.5998 204.016C37.5998 206.512 39.1038 208.128 41.1358 208.128ZM41.1198 207.2C39.7918 207.2 38.9118 206.016 38.9118 204.032C38.9118 202 39.8718 200.944 41.1198 200.944C42.4318 200.944 43.3918 201.968 43.3918 204.016C43.3918 206.144 42.4158 207.2 41.1198 207.2ZM47.8491 208V201.056H49.7691V200.112H47.8491C47.8491 200.064 47.8491 199.728 47.8491 199.36C47.8491 198.48 48.2331 198.032 49.1931 198.032C49.4011 198.032 49.8971 198.064 50.2331 198.112V197.12C49.9291 197.072 49.4011 197.024 49.0971 197.024C47.4491 197.024 46.6171 197.776 46.6171 199.328C46.6171 199.44 46.6171 200 46.6171 200.112H45.2251V201.056H46.6171V208H47.8491ZM56.9188 208L58.4548 202.624L58.6148 201.936L58.8068 202.656L60.4068 208H61.4628L63.8148 200.112H62.7428L61.2068 205.584L60.9988 206.256L60.8228 205.552L59.2068 200.112H58.1828L56.6788 205.504L56.4868 206.224L56.3108 205.504L54.7428 200.112H53.4788L55.8628 208H56.9188ZM66.4108 198.72V197.312H65.0508V198.72H66.4108ZM66.3628 208V200.112H65.1148V208H66.3628ZM70.0339 208V202.592C70.6899 201.648 71.5219 201.008 72.5299 201.008C73.4259 201.008 73.8419 201.456 73.8419 202.4V208H75.0899V202.416C75.0899 200.8 74.3699 199.968 72.8979 199.968C71.4899 199.968 70.5139 200.896 69.9699 201.68V200.112H68.7859V208H70.0339ZM79.8738 208.128C81.0258 208.128 81.8258 207.664 82.4498 206.8V208H83.6178V197.328H82.4178V201.184C82.0498 200.656 81.2978 199.968 80.0978 199.968C78.0818 199.968 76.8658 201.744 76.8658 204.08C76.8658 206.656 77.9698 208.128 79.8738 208.128ZM80.2098 207.184C78.8978 207.184 78.1618 206.272 78.1618 204.08C78.1618 202.064 78.8658 200.944 80.2898 200.944C81.4578 200.944 82.0018 201.616 82.4018 202.368V205.584C82.0658 206.464 81.3938 207.184 80.2098 207.184ZM88.9796 208.128C90.9316 208.128 92.5476 206.512 92.5476 204.032C92.5476 201.6 91.1396 199.968 88.9796 199.968C87.0436 199.968 85.4436 201.552 85.4436 204.016C85.4436 206.512 86.9476 208.128 88.9796 208.128ZM88.9636 207.2C87.6356 207.2 86.7556 206.016 86.7556 204.032C86.7556 202 87.7156 200.944 88.9636 200.944C90.2756 200.944 91.2356 201.968 91.2356 204.016C91.2356 206.144 90.2596 207.2 88.9636 207.2ZM96.6688 208L98.2048 202.624L98.3648 201.936L98.5568 202.656L100.157 208H101.213L103.565 200.112H102.493L100.957 205.584L100.749 206.256L100.573 205.552L98.9568 200.112H97.9328L96.4288 205.504L96.2368 206.224L96.0608 205.504L94.4928 200.112H93.2288L95.6128 208H96.6688Z" fill="#94538C"/>
<line x1="108" y1="201.5" x2="573" y2="201.5" stroke="#94538C" stroke-dasharray="2 2"/>
<defs>
<filter id="filter0_d_2_31425" x="183.191" y="52.0118" width="16.7461" height="17.8588" filterUnits="userSpaceOnUse" color-interpolation-filters="sRGB">
<feFlood flood-opacity="0" result="BackgroundImageFix"/>
<feColorMatrix in="SourceAlpha" type="matrix" values="0 0 0 0 0 0 0 0 0 0 0 0 0 0 0 0 0 0 127 0" result="hardAlpha"/>
<feOffset dy="1"/>
<feGaussianBlur stdDeviation="0.4"/>
<feColorMatrix type="matrix" values="0 0 0 0 0 0 0 0 0 0 0 0 0 0 0 0 0 0 0.5 0"/>
<feBlend mode="normal" in2="BackgroundImageFix" result="effect1_dropShadow_2_31425"/>
<feBlend mode="normal" in="SourceGraphic" in2="effect1_dropShadow_2_31425" result="shape"/>
</filter>
<filter id="filter1_d_2_31425" x="465.191" y="149.012" width="16.7461" height="17.8588" filterUnits="userSpaceOnUse" color-interpolation-filters="sRGB">
<feFlood flood-opacity="0" result="BackgroundImageFix"/>
<feColorMatrix in="SourceAlpha" type="matrix" values="0 0 0 0 0 0 0 0 0 0 0 0 0 0 0 0 0 0 127 0" result="hardAlpha"/>
<feOffset dy="1"/>
<feGaussianBlur stdDeviation="0.4"/>
<feColorMatrix type="matrix" values="0 0 0 0 0 0 0 0 0 0 0 0 0 0 0 0 0 0 0.5 0"/>
<feBlend mode="normal" in2="BackgroundImageFix" result="effect1_dropShadow_2_31425"/>
<feBlend mode="normal" in="SourceGraphic" in2="effect1_dropShadow_2_31425" result="shape"/>
</filter>
<filter id="filter2_d_2_31425" x="128" y="76" width="120" height="117.001" filterUnits="userSpaceOnUse" color-interpolation-filters="sRGB">
<feFlood flood-opacity="0" result="BackgroundImageFix"/>
<feColorMatrix in="SourceAlpha" type="matrix" values="0 0 0 0 0 0 0 0 0 0 0 0 0 0 0 0 0 0 127 0" result="hardAlpha"/>
<feOffset dy="2"/>
<feGaussianBlur stdDeviation="2"/>
<feComposite in2="hardAlpha" operator="out"/>
<feColorMatrix type="matrix" values="0 0 0 0 0.4 0 0 0 0 0.4 0 0 0 0 0.4 0 0 0 0.25 0"/>
<feBlend mode="normal" in2="BackgroundImageFix" result="effect1_dropShadow_2_31425"/>
<feBlend mode="normal" in="SourceGraphic" in2="effect1_dropShadow_2_31425" result="shape"/>
</filter>
<filter id="filter3_d_2_31425" x="413" y="0" width="120" height="117.001" filterUnits="userSpaceOnUse" color-interpolation-filters="sRGB">
<feFlood flood-opacity="0" result="BackgroundImageFix"/>
<feColorMatrix in="SourceAlpha" type="matrix" values="0 0 0 0 0 0 0 0 0 0 0 0 0 0 0 0 0 0 127 0" result="hardAlpha"/>
<feOffset dy="2"/>
<feGaussianBlur stdDeviation="2"/>
<feComposite in2="hardAlpha" operator="out"/>
<feColorMatrix type="matrix" values="0 0 0 0 0.4 0 0 0 0 0.4 0 0 0 0 0.4 0 0 0 0.25 0"/>
<feBlend mode="normal" in2="BackgroundImageFix" result="effect1_dropShadow_2_31425"/>
<feBlend mode="normal" in="SourceGraphic" in2="effect1_dropShadow_2_31425" result="shape"/>
</filter>
<clipPath id="clip0_2_31425">
<rect width="16" height="16" fill="white" transform="translate(175 41)"/>
</clipPath>
<clipPath id="clip1_2_31425">
<rect width="16" height="16" fill="white" transform="translate(465 133)"/>
</clipPath>
</defs>
</svg>
