<svg width="216" height="16" viewBox="0 0 216 16" fill="none" xmlns="http://www.w3.org/2000/svg">
<path d="M12 3V11.92L8.62 9.22L8 8.72L7.38 9.22L4 11.92V3H12ZM13 2H3V14L8 10L13 14V2Z" fill="#111111"/>
<path d="M53 7.99994L43 13.5599V2.43994L53 7.99994Z" fill="#111111"/>
<path d="M81 3V13H95V3H81ZM93.19 4L88 8.32L82.81 4H93.19ZM82 12V4.63L88 9.63L94 4.63V12H82Z" fill="#111111"/>
<path d="M131 7H124V8H131V7Z" fill="#111111"/>
<path d="M131 5H124V6H131V5Z" fill="#111111"/>
<path d="M128 9H124V10H128V9Z" fill="#111111"/>
<path d="M129 9V11.5C129 12 128.64 12.23 128.4 12.5L128.12 12.74C127.886 12.8984 127.612 12.9885 127.33 13H123V3H133V8H134V2H122V14H127.33C127.652 14.0005 127.971 13.9351 128.267 13.8079C128.562 13.6806 128.829 13.4942 129.05 13.26L134 9H129ZM130 10H131.32L130 11.35V10Z" fill="#111111"/>
<path d="M168 2C166.612 1.99878 165.266 2.47896 164.192 3.35871C163.118 4.23846 162.383 5.46335 162.111 6.82466C161.839 8.18596 162.048 9.59944 162.701 10.8242C163.354 12.049 164.412 13.0093 165.694 13.5415C166.977 14.0738 168.404 14.1449 169.732 13.7429C171.061 13.3409 172.209 12.4906 172.981 11.3368C173.753 10.1831 174.101 8.79741 173.966 7.41581C173.831 6.03421 173.221 4.74222 172.24 3.76C171.116 2.63446 169.591 2.0014 168 2ZM173.14 8.45C172.66 8.3 171.77 7.96 171.59 7.21C171.52 6.75937 171.52 6.30063 171.59 5.85L172.45 5.42C172.902 6.20455 173.14 7.09435 173.14 8C173.15 8.14984 173.15 8.30017 173.14 8.45ZM164.81 4C164.978 4.23748 165.21 4.42151 165.48 4.53C166.207 4.72845 166.981 4.64635 167.65 4.3C167.779 4.81622 167.722 5.36128 167.49 5.84L167.4 6L167.62 6.76L166.62 6.32L165.51 6.74L165.46 6.9C165.341 7.20352 165.317 7.53575 165.39 7.8533C165.463 8.17085 165.631 8.45896 165.87 8.68C165.215 8.52117 164.622 8.17262 164.165 7.67806C163.708 7.1835 163.407 6.56495 163.3 5.9C163.646 5.15603 164.163 4.50482 164.81 4ZM168.36 11.78C168.209 11.2303 167.85 10.7606 167.36 10.47V9.59L169.36 9.17C169.457 9.22054 169.544 9.28987 169.614 9.37397C169.684 9.45808 169.737 9.55529 169.77 9.66C169.793 9.85151 169.775 10.0457 169.718 10.23C169.662 10.4143 169.567 10.5846 169.44 10.73L168.44 13.14H168.13C168.378 12.7219 168.46 12.2258 168.36 11.75V11.78ZM162.86 8C162.861 7.76583 162.878 7.53199 162.91 7.3C163.239 7.98615 163.753 8.56681 164.395 8.97667C165.036 9.38653 165.779 9.60933 166.54 9.62V11L166.78 11.12C166.955 11.207 167.112 11.3278 167.241 11.4754C167.369 11.6229 167.468 11.7944 167.53 11.98C167.549 12.1868 167.524 12.3953 167.457 12.5918C167.39 12.7883 167.282 12.9683 167.14 13.12C165.934 12.9154 164.841 12.2875 164.056 11.349C163.272 10.4106 162.848 9.2231 162.86 8ZM169.43 12.94L170.17 11.14C170.364 10.893 170.5 10.6061 170.569 10.3C170.638 9.99387 170.638 9.67625 170.57 9.37C170.488 9.12774 170.357 8.90502 170.185 8.71575C170.013 8.52648 169.803 8.37474 169.57 8.27H169.45L167.06 8.78C166.602 8.44602 166.254 7.98294 166.06 7.45L166.52 7.28L167.99 7.89L168.58 7L168.32 6.08C168.502 5.67355 168.59 5.23101 168.576 4.78579C168.562 4.34058 168.447 3.90433 168.24 3.51L168 3.09L167.62 3.31C167.08 3.66429 166.428 3.80674 165.79 3.71C165.681 3.66805 165.585 3.59924 165.51 3.51C166.562 2.91753 167.788 2.71409 168.975 2.93532C170.162 3.15656 171.232 3.78836 172 4.72L170.86 5.28V5.49C170.75 6.13198 170.75 6.78802 170.86 7.43C171.036 7.89244 171.323 8.30425 171.696 8.62877C172.07 8.95329 172.518 9.18044 173 9.29C172.774 10.1562 172.325 10.9485 171.699 11.5885C171.073 12.2286 170.291 12.6944 169.43 12.94Z" fill="#111111"/>
<path d="M214 2V8L213 7V3H203V10L202 11V2H214Z" fill="#111111"/>
<path d="M205.5 7C206.328 7 207 6.32843 207 5.5C207 4.67157 206.328 4 205.5 4C204.672 4 204 4.67157 204 5.5C204 6.32843 204.672 7 205.5 7Z" fill="#111111"/>
<path d="M211.11 8.52L213 10.4V13H204.08L206.08 10.5L207.29 11.71L208.11 12.52L208.8 11.6L211.11 8.52ZM211 7L208 11L206 9L202 14H214V10L211 7Z" fill="#111111"/>
</svg>
