<svg width="330" height="361" viewBox="0 0 330 361" fill="none" xmlns="http://www.w3.org/2000/svg">
<g clip-path="url(#clip0_448_6689)">
<rect width="137.5" height="137.5" transform="translate(0 30.4464)" fill="white"/>
<rect width="8.71652" height="139.464" transform="translate(0 30.4464)" fill="#F2DEDE"/>
<rect width="8.71652" height="121.595" transform="translate(8.71652 39.1629) rotate(-90)" fill="#F2DEDE"/>
<rect width="8.71652" height="121.595" transform="translate(8.71652 168.446) rotate(-90)" fill="#F2DEDE"/>
<rect width="8.71652" height="139.464" transform="translate(128.848 30.4464)" fill="#F2DEDE"/>
<g clip-path="url(#clip1_448_6689)">
<rect width="0.435826" height="137.5" transform="translate(7.54855 30.4464)" fill="#E9E9E9"/>
</g>
<g clip-path="url(#clip2_448_6689)">
<rect width="0.435826" height="137.5" transform="translate(16.2651 30.4464)" fill="#E9E9E9"/>
</g>
<g clip-path="url(#clip3_448_6689)">
<rect width="0.435826" height="137.5" transform="translate(24.9816 30.4464)" fill="#E9E9E9"/>
</g>
<g clip-path="url(#clip4_448_6689)">
<rect width="0.435826" height="137.5" transform="translate(33.6981 30.4464)" fill="#E9E9E9"/>
</g>
<g clip-path="url(#clip5_448_6689)">
<rect width="0.435826" height="137.5" transform="translate(42.4146 30.4464)" fill="#E9E9E9"/>
</g>
<g clip-path="url(#clip6_448_6689)">
<rect width="0.435826" height="137.5" transform="translate(51.1311 30.4464)" fill="#E9E9E9"/>
</g>
<g clip-path="url(#clip7_448_6689)">
<rect width="0.435826" height="137.5" transform="translate(59.8476 30.4464)" fill="#E9E9E9"/>
</g>
<g clip-path="url(#clip8_448_6689)">
<rect width="0.435826" height="137.5" transform="translate(68.5642 30.4464)" fill="#E9E9E9"/>
</g>
<g clip-path="url(#clip9_448_6689)">
<rect width="0.435826" height="137.5" transform="translate(77.2807 30.4464)" fill="#E9E9E9"/>
</g>
<g clip-path="url(#clip10_448_6689)">
<rect width="0.435826" height="137.5" transform="translate(85.9972 30.4464)" fill="#E9E9E9"/>
</g>
<g clip-path="url(#clip11_448_6689)">
<rect width="0.435826" height="137.5" transform="translate(94.7137 30.4464)" fill="#E9E9E9"/>
</g>
<g clip-path="url(#clip12_448_6689)">
<rect width="0.435826" height="137.5" transform="translate(103.43 30.4464)" fill="#E9E9E9"/>
</g>
<g clip-path="url(#clip13_448_6689)">
<rect width="0.435826" height="137.5" transform="translate(112.147 30.4464)" fill="#E9E9E9"/>
</g>
<g clip-path="url(#clip14_448_6689)">
<rect width="0.435826" height="137.5" transform="translate(120.863 30.4464)" fill="#E9E9E9"/>
</g>
<g clip-path="url(#clip15_448_6689)">
<rect width="0.435826" height="137.5" transform="translate(129.58 30.4464)" fill="#E9E9E9"/>
</g>
<g clip-path="url(#clip16_448_6689)">
<rect width="0.435826" height="139.464" transform="translate(-0.732147 159.788) rotate(-90)" fill="#E9E9E9"/>
</g>
<g clip-path="url(#clip17_448_6689)">
<rect width="0.435826" height="139.464" transform="translate(-0.732147 151.195) rotate(-90)" fill="#E9E9E9"/>
</g>
<g clip-path="url(#clip18_448_6689)">
<rect width="0.435826" height="139.464" transform="translate(-0.732147 142.601) rotate(-90)" fill="#E9E9E9"/>
</g>
<g clip-path="url(#clip19_448_6689)">
<rect width="0.435826" height="139.464" transform="translate(-0.732147 134.007) rotate(-90)" fill="#E9E9E9"/>
</g>
<g clip-path="url(#clip20_448_6689)">
<rect width="0.435826" height="139.464" transform="translate(-0.732147 125.413) rotate(-90)" fill="#E9E9E9"/>
</g>
<g clip-path="url(#clip21_448_6689)">
<rect width="0.435826" height="139.464" transform="translate(-0.732147 116.82) rotate(-90)" fill="#E9E9E9"/>
</g>
<g clip-path="url(#clip22_448_6689)">
<rect width="0.435826" height="139.464" transform="translate(-0.732147 108.226) rotate(-90)" fill="#E9E9E9"/>
</g>
<g clip-path="url(#clip23_448_6689)">
<rect width="0.435826" height="139.464" transform="translate(-0.732147 99.6322) rotate(-90)" fill="#E9E9E9"/>
</g>
<g clip-path="url(#clip24_448_6689)">
<rect width="0.435826" height="139.464" transform="translate(-0.732147 91.0385) rotate(-90)" fill="#E9E9E9"/>
</g>
<g clip-path="url(#clip25_448_6689)">
<rect width="0.435826" height="139.464" transform="translate(-0.732147 82.4447) rotate(-90)" fill="#E9E9E9"/>
</g>
<g clip-path="url(#clip26_448_6689)">
<rect width="0.435826" height="139.464" transform="translate(-0.732147 73.851) rotate(-90)" fill="#E9E9E9"/>
</g>
<g clip-path="url(#clip27_448_6689)">
<rect width="0.435826" height="139.464" transform="translate(-0.732147 65.2572) rotate(-90)" fill="#E9E9E9"/>
</g>
<g clip-path="url(#clip28_448_6689)">
<rect width="0.435826" height="139.464" transform="translate(-0.732147 56.6635) rotate(-90)" fill="#E9E9E9"/>
</g>
<g clip-path="url(#clip29_448_6689)">
<rect width="0.435826" height="139.464" transform="translate(-0.732147 48.0697) rotate(-90)" fill="#E9E9E9"/>
</g>
<g clip-path="url(#clip30_448_6689)">
<rect width="0.435826" height="139.464" transform="translate(-0.732147 39.476) rotate(-90)" fill="#E9E9E9"/>
</g>
<g clip-path="url(#clip31_448_6689)">
<rect width="0.435826" height="139.464" transform="translate(-0.732147 30.8823) rotate(-90)" fill="#E9E9E9"/>
</g>
<rect x="17.4054" y="47.8518" width="102.259" height="103.119" stroke="#F27B81" stroke-width="0.435826"/>
<line x1="138.578" y1="169.333" x2="-0.886239" y2="29.8683" stroke="#F27B81" stroke-width="0.435826" stroke-dasharray="0.87 0.87"/>
<line x1="137.654" y1="30.6005" x2="0.154093" y2="168.1" stroke="#F27B81" stroke-width="0.435826" stroke-dasharray="0.87 0.87"/>
</g>
<g clip-path="url(#clip32_448_6689)">
<rect width="137.5" height="137.5" transform="translate(0 222.946)" fill="white"/>
<rect width="8.71652" height="139.464" transform="translate(0 222.946)" fill="#F2DEDE"/>
<rect width="8.71652" height="121.595" transform="translate(8.71652 231.663) rotate(-90)" fill="#F2DEDE"/>
<rect width="8.71652" height="121.595" transform="translate(8.71652 362.411) rotate(-90)" fill="#F2DEDE"/>
<rect width="8.71652" height="139.464" transform="translate(130.312 222.946)" fill="#F2DEDE"/>
<g clip-path="url(#clip33_448_6689)">
<rect width="0.435826" height="139.464" transform="translate(8.28069 222.946)" fill="#E9E9E9"/>
</g>
<g clip-path="url(#clip34_448_6689)">
<rect width="0.435826" height="139.464" transform="translate(16.9972 222.946)" fill="#E9E9E9"/>
</g>
<g clip-path="url(#clip35_448_6689)">
<rect width="0.435826" height="139.464" transform="translate(25.7137 222.946)" fill="#E9E9E9"/>
</g>
<g clip-path="url(#clip36_448_6689)">
<rect width="0.435826" height="139.464" transform="translate(34.4302 222.946)" fill="#E9E9E9"/>
</g>
<g clip-path="url(#clip37_448_6689)">
<rect width="0.435826" height="139.464" transform="translate(43.1468 222.946)" fill="#E9E9E9"/>
</g>
<g clip-path="url(#clip38_448_6689)">
<rect width="0.435826" height="139.464" transform="translate(51.8633 222.946)" fill="#E9E9E9"/>
</g>
<g clip-path="url(#clip39_448_6689)">
<rect width="0.435826" height="139.464" transform="translate(60.5798 222.946)" fill="#E9E9E9"/>
</g>
<g clip-path="url(#clip40_448_6689)">
<rect width="0.435826" height="139.464" transform="translate(69.2963 222.946)" fill="#E9E9E9"/>
</g>
<g clip-path="url(#clip41_448_6689)">
<rect width="0.435826" height="139.464" transform="translate(78.0128 222.946)" fill="#E9E9E9"/>
</g>
<g clip-path="url(#clip42_448_6689)">
<rect width="0.435826" height="139.464" transform="translate(86.7294 222.946)" fill="#E9E9E9"/>
</g>
<g clip-path="url(#clip43_448_6689)">
<rect width="0.435826" height="139.464" transform="translate(95.4459 222.946)" fill="#E9E9E9"/>
</g>
<g clip-path="url(#clip44_448_6689)">
<rect width="0.435826" height="139.464" transform="translate(104.162 222.946)" fill="#E9E9E9"/>
</g>
<g clip-path="url(#clip45_448_6689)">
<rect width="0.435826" height="139.464" transform="translate(112.879 222.946)" fill="#E9E9E9"/>
</g>
<g clip-path="url(#clip46_448_6689)">
<rect width="0.435826" height="139.464" transform="translate(121.595 222.946)" fill="#E9E9E9"/>
</g>
<g clip-path="url(#clip47_448_6689)">
<rect width="0.435826" height="139.464" transform="translate(130.312 222.946)" fill="#E9E9E9"/>
</g>
<g clip-path="url(#clip48_448_6689)">
<rect width="0.435826" height="139.464" transform="translate(0 354.13) rotate(-90)" fill="#E9E9E9"/>
</g>
<g clip-path="url(#clip49_448_6689)">
<rect width="0.435826" height="139.464" transform="translate(0 345.413) rotate(-90)" fill="#E9E9E9"/>
</g>
<g clip-path="url(#clip50_448_6689)">
<rect width="0.435826" height="139.464" transform="translate(0 336.697) rotate(-90)" fill="#E9E9E9"/>
</g>
<g clip-path="url(#clip51_448_6689)">
<rect width="0.435826" height="139.464" transform="translate(0 327.98) rotate(-90)" fill="#E9E9E9"/>
</g>
<g clip-path="url(#clip52_448_6689)">
<rect width="0.435826" height="139.464" transform="translate(0 319.264) rotate(-90)" fill="#E9E9E9"/>
</g>
<g clip-path="url(#clip53_448_6689)">
<rect width="0.435826" height="139.464" transform="translate(0 310.547) rotate(-90)" fill="#E9E9E9"/>
</g>
<g clip-path="url(#clip54_448_6689)">
<rect width="0.435826" height="139.464" transform="translate(0 301.831) rotate(-90)" fill="#E9E9E9"/>
</g>
<g clip-path="url(#clip55_448_6689)">
<rect width="0.435826" height="139.464" transform="translate(0 293.114) rotate(-90)" fill="#E9E9E9"/>
</g>
<g clip-path="url(#clip56_448_6689)">
<rect width="0.435826" height="139.464" transform="translate(0 284.398) rotate(-90)" fill="#E9E9E9"/>
</g>
<g clip-path="url(#clip57_448_6689)">
<rect width="0.435826" height="139.464" transform="translate(0 275.681) rotate(-90)" fill="#E9E9E9"/>
</g>
<g clip-path="url(#clip58_448_6689)">
<rect width="0.435826" height="139.464" transform="translate(0 266.965) rotate(-90)" fill="#E9E9E9"/>
</g>
<g clip-path="url(#clip59_448_6689)">
<rect width="0.435826" height="139.464" transform="translate(0 258.248) rotate(-90)" fill="#E9E9E9"/>
</g>
<g clip-path="url(#clip60_448_6689)">
<rect width="0.435826" height="139.464" transform="translate(0 249.532) rotate(-90)" fill="#E9E9E9"/>
</g>
<g clip-path="url(#clip61_448_6689)">
<rect width="0.435826" height="139.464" transform="translate(0 240.815) rotate(-90)" fill="#E9E9E9"/>
</g>
<g clip-path="url(#clip62_448_6689)">
<rect width="0.435826" height="139.464" transform="translate(0 232.099) rotate(-90)" fill="#E9E9E9"/>
</g>
<g clip-path="url(#clip63_448_6689)">
<rect width="0.435826" height="139.464" transform="translate(0 223.382) rotate(-90)" fill="#E9E9E9"/>
</g>
<rect x="17.6509" y="232.317" width="103.727" height="121.16" stroke="#F27B81" stroke-width="0.435826"/>
<line x1="139.31" y1="362.565" x2="-0.154092" y2="223.1" stroke="#F27B81" stroke-width="0.435826" stroke-dasharray="0.87 0.87"/>
<line x1="139.618" y1="223.1" x2="0.154083" y2="362.565" stroke="#F27B81" stroke-width="0.435826" stroke-dasharray="0.87 0.87"/>
</g>
<g clip-path="url(#clip64_448_6689)">
<rect width="137.5" height="137.5" transform="translate(192.5 30.4464)" fill="white"/>
<rect width="8.71652" height="139.464" transform="translate(192.5 30.4464)" fill="#F2DEDE"/>
<rect width="8.71652" height="121.595" transform="translate(201.217 39.1629) rotate(-90)" fill="#F2DEDE"/>
<rect width="8.71652" height="121.595" transform="translate(201.217 169.911) rotate(-90)" fill="#F2DEDE"/>
<rect width="8.71652" height="139.464" transform="translate(322.812 30.4464)" fill="#F2DEDE"/>
<g clip-path="url(#clip65_448_6689)">
<rect width="0.435826" height="139.464" transform="translate(200.781 30.4464)" fill="#E9E9E9"/>
</g>
<g clip-path="url(#clip66_448_6689)">
<rect width="0.435826" height="139.464" transform="translate(209.497 30.4464)" fill="#E9E9E9"/>
</g>
<g clip-path="url(#clip67_448_6689)">
<rect width="0.435826" height="139.464" transform="translate(218.214 30.4464)" fill="#E9E9E9"/>
</g>
<g clip-path="url(#clip68_448_6689)">
<rect width="0.435826" height="139.464" transform="translate(226.93 30.4464)" fill="#E9E9E9"/>
</g>
<g clip-path="url(#clip69_448_6689)">
<rect width="0.435826" height="139.464" transform="translate(235.647 30.4464)" fill="#E9E9E9"/>
</g>
<g clip-path="url(#clip70_448_6689)">
<rect width="0.435826" height="139.464" transform="translate(244.363 30.4464)" fill="#E9E9E9"/>
</g>
<g clip-path="url(#clip71_448_6689)">
<rect width="0.435826" height="139.464" transform="translate(253.08 30.4464)" fill="#E9E9E9"/>
</g>
<g clip-path="url(#clip72_448_6689)">
<rect width="0.435826" height="139.464" transform="translate(261.796 30.4464)" fill="#E9E9E9"/>
</g>
<g clip-path="url(#clip73_448_6689)">
<rect width="0.435826" height="139.464" transform="translate(270.513 30.4464)" fill="#E9E9E9"/>
</g>
<g clip-path="url(#clip74_448_6689)">
<rect width="0.435826" height="139.464" transform="translate(279.229 30.4464)" fill="#E9E9E9"/>
</g>
<g clip-path="url(#clip75_448_6689)">
<rect width="0.435826" height="139.464" transform="translate(287.946 30.4464)" fill="#E9E9E9"/>
</g>
<g clip-path="url(#clip76_448_6689)">
<rect width="0.435826" height="139.464" transform="translate(296.662 30.4464)" fill="#E9E9E9"/>
</g>
<g clip-path="url(#clip77_448_6689)">
<rect width="0.435826" height="139.464" transform="translate(305.379 30.4464)" fill="#E9E9E9"/>
</g>
<g clip-path="url(#clip78_448_6689)">
<rect width="0.435826" height="139.464" transform="translate(314.095 30.4464)" fill="#E9E9E9"/>
</g>
<g clip-path="url(#clip79_448_6689)">
<rect width="0.435826" height="139.464" transform="translate(322.812 30.4464)" fill="#E9E9E9"/>
</g>
<g clip-path="url(#clip80_448_6689)">
<rect width="0.435826" height="139.464" transform="translate(192.5 161.63) rotate(-90)" fill="#E9E9E9"/>
</g>
<g clip-path="url(#clip81_448_6689)">
<rect width="0.435826" height="139.464" transform="translate(192.5 152.913) rotate(-90)" fill="#E9E9E9"/>
</g>
<g clip-path="url(#clip82_448_6689)">
<rect width="0.435826" height="139.464" transform="translate(192.5 144.197) rotate(-90)" fill="#E9E9E9"/>
</g>
<g clip-path="url(#clip83_448_6689)">
<rect width="0.435826" height="139.464" transform="translate(192.5 135.48) rotate(-90)" fill="#E9E9E9"/>
</g>
<g clip-path="url(#clip84_448_6689)">
<rect width="0.435826" height="139.464" transform="translate(192.5 126.764) rotate(-90)" fill="#E9E9E9"/>
</g>
<g clip-path="url(#clip85_448_6689)">
<rect width="0.435826" height="139.464" transform="translate(192.5 118.047) rotate(-90)" fill="#E9E9E9"/>
</g>
<g clip-path="url(#clip86_448_6689)">
<rect width="0.435826" height="139.464" transform="translate(192.5 109.331) rotate(-90)" fill="#E9E9E9"/>
</g>
<g clip-path="url(#clip87_448_6689)">
<rect width="0.435826" height="139.464" transform="translate(192.5 100.614) rotate(-90)" fill="#E9E9E9"/>
</g>
<g clip-path="url(#clip88_448_6689)">
<rect width="0.435826" height="139.464" transform="translate(192.5 91.8979) rotate(-90)" fill="#E9E9E9"/>
</g>
<g clip-path="url(#clip89_448_6689)">
<rect width="0.435826" height="139.464" transform="translate(192.5 83.1813) rotate(-90)" fill="#E9E9E9"/>
</g>
<g clip-path="url(#clip90_448_6689)">
<rect width="0.435826" height="139.464" transform="translate(192.5 74.4648) rotate(-90)" fill="#E9E9E9"/>
</g>
<g clip-path="url(#clip91_448_6689)">
<rect width="0.435826" height="139.464" transform="translate(192.5 65.7483) rotate(-90)" fill="#E9E9E9"/>
</g>
<g clip-path="url(#clip92_448_6689)">
<rect width="0.435826" height="139.464" transform="translate(192.5 57.0318) rotate(-90)" fill="#E9E9E9"/>
</g>
<g clip-path="url(#clip93_448_6689)">
<rect width="0.435826" height="139.464" transform="translate(192.5 48.3153) rotate(-90)" fill="#E9E9E9"/>
</g>
<g clip-path="url(#clip94_448_6689)">
<rect width="0.435826" height="139.464" transform="translate(192.5 39.5988) rotate(-90)" fill="#E9E9E9"/>
</g>
<g clip-path="url(#clip95_448_6689)">
<rect width="0.435826" height="139.464" transform="translate(192.5 30.8823) rotate(-90)" fill="#E9E9E9"/>
</g>
<rect x="201.87" y="39.8167" width="120.288" height="121.16" rx="60.144" stroke="#F27B81" stroke-width="0.435826"/>
<line x1="331.81" y1="170.065" x2="192.346" y2="30.6005" stroke="#F27B81" stroke-width="0.435826" stroke-dasharray="0.87 0.87"/>
<line x1="332.118" y1="30.6005" x2="192.654" y2="170.065" stroke="#F27B81" stroke-width="0.435826" stroke-dasharray="0.87 0.87"/>
</g>
<g clip-path="url(#clip96_448_6689)">
<rect width="137.5" height="137.5" transform="translate(192.5 222.946)" fill="white"/>
<rect width="8.71652" height="139.464" transform="translate(192.5 222.946)" fill="#F2DEDE"/>
<rect width="8.71652" height="121.595" transform="translate(201.217 231.663) rotate(-90)" fill="#F2DEDE"/>
<rect width="8.71652" height="121.595" transform="translate(201.217 362.411) rotate(-90)" fill="#F2DEDE"/>
<rect width="8.71652" height="139.464" transform="translate(322.812 222.946)" fill="#F2DEDE"/>
<g clip-path="url(#clip97_448_6689)">
<rect width="0.435826" height="139.464" transform="translate(200.781 222.946)" fill="#E9E9E9"/>
</g>
<g clip-path="url(#clip98_448_6689)">
<rect width="0.435826" height="139.464" transform="translate(209.497 222.946)" fill="#E9E9E9"/>
</g>
<g clip-path="url(#clip99_448_6689)">
<rect width="0.435826" height="139.464" transform="translate(218.214 222.946)" fill="#E9E9E9"/>
</g>
<g clip-path="url(#clip100_448_6689)">
<rect width="0.435826" height="139.464" transform="translate(226.93 222.946)" fill="#E9E9E9"/>
</g>
<g clip-path="url(#clip101_448_6689)">
<rect width="0.435826" height="139.464" transform="translate(235.647 222.946)" fill="#E9E9E9"/>
</g>
<g clip-path="url(#clip102_448_6689)">
<rect width="0.435826" height="139.464" transform="translate(244.363 222.946)" fill="#E9E9E9"/>
</g>
<g clip-path="url(#clip103_448_6689)">
<rect width="0.435826" height="139.464" transform="translate(253.08 222.946)" fill="#E9E9E9"/>
</g>
<g clip-path="url(#clip104_448_6689)">
<rect width="0.435826" height="139.464" transform="translate(261.796 222.946)" fill="#E9E9E9"/>
</g>
<g clip-path="url(#clip105_448_6689)">
<rect width="0.435826" height="139.464" transform="translate(270.513 222.946)" fill="#E9E9E9"/>
</g>
<g clip-path="url(#clip106_448_6689)">
<rect width="0.435826" height="139.464" transform="translate(279.229 222.946)" fill="#E9E9E9"/>
</g>
<g clip-path="url(#clip107_448_6689)">
<rect width="0.435826" height="139.464" transform="translate(287.946 222.946)" fill="#E9E9E9"/>
</g>
<g clip-path="url(#clip108_448_6689)">
<rect width="0.435826" height="139.464" transform="translate(296.662 222.946)" fill="#E9E9E9"/>
</g>
<g clip-path="url(#clip109_448_6689)">
<rect width="0.435826" height="139.464" transform="translate(305.379 222.946)" fill="#E9E9E9"/>
</g>
<g clip-path="url(#clip110_448_6689)">
<rect width="0.435826" height="139.464" transform="translate(314.095 222.946)" fill="#E9E9E9"/>
</g>
<g clip-path="url(#clip111_448_6689)">
<rect width="0.435826" height="139.464" transform="translate(322.812 222.946)" fill="#E9E9E9"/>
</g>
<g clip-path="url(#clip112_448_6689)">
<rect width="0.435826" height="139.464" transform="translate(192.5 354.13) rotate(-90)" fill="#E9E9E9"/>
</g>
<g clip-path="url(#clip113_448_6689)">
<rect width="0.435826" height="139.464" transform="translate(192.5 345.413) rotate(-90)" fill="#E9E9E9"/>
</g>
<g clip-path="url(#clip114_448_6689)">
<rect width="0.435826" height="139.464" transform="translate(192.5 336.697) rotate(-90)" fill="#E9E9E9"/>
</g>
<g clip-path="url(#clip115_448_6689)">
<rect width="0.435826" height="139.464" transform="translate(192.5 327.98) rotate(-90)" fill="#E9E9E9"/>
</g>
<g clip-path="url(#clip116_448_6689)">
<rect width="0.435826" height="139.464" transform="translate(192.5 319.264) rotate(-90)" fill="#E9E9E9"/>
</g>
<g clip-path="url(#clip117_448_6689)">
<rect width="0.435826" height="139.464" transform="translate(192.5 310.547) rotate(-90)" fill="#E9E9E9"/>
</g>
<g clip-path="url(#clip118_448_6689)">
<rect width="0.435826" height="139.464" transform="translate(192.5 301.831) rotate(-90)" fill="#E9E9E9"/>
</g>
<g clip-path="url(#clip119_448_6689)">
<rect width="0.435826" height="139.464" transform="translate(192.5 293.114) rotate(-90)" fill="#E9E9E9"/>
</g>
<g clip-path="url(#clip120_448_6689)">
<rect width="0.435826" height="139.464" transform="translate(192.5 284.398) rotate(-90)" fill="#E9E9E9"/>
</g>
<g clip-path="url(#clip121_448_6689)">
<rect width="0.435826" height="139.464" transform="translate(192.5 275.681) rotate(-90)" fill="#E9E9E9"/>
</g>
<g clip-path="url(#clip122_448_6689)">
<rect width="0.435826" height="139.464" transform="translate(192.5 266.965) rotate(-90)" fill="#E9E9E9"/>
</g>
<g clip-path="url(#clip123_448_6689)">
<rect width="0.435826" height="139.464" transform="translate(192.5 258.248) rotate(-90)" fill="#E9E9E9"/>
</g>
<g clip-path="url(#clip124_448_6689)">
<rect width="0.435826" height="139.464" transform="translate(192.5 249.532) rotate(-90)" fill="#E9E9E9"/>
</g>
<g clip-path="url(#clip125_448_6689)">
<rect width="0.435826" height="139.464" transform="translate(192.5 240.815) rotate(-90)" fill="#E9E9E9"/>
</g>
<g clip-path="url(#clip126_448_6689)">
<rect width="0.435826" height="139.464" transform="translate(192.5 232.099) rotate(-90)" fill="#E9E9E9"/>
</g>
<g clip-path="url(#clip127_448_6689)">
<rect width="0.435826" height="139.464" transform="translate(192.5 223.382) rotate(-90)" fill="#E9E9E9"/>
</g>
<rect x="201.434" y="344.76" width="103.727" height="121.16" transform="rotate(-90 201.434 344.76)" stroke="#F27B81" stroke-width="0.435826"/>
<line x1="331.81" y1="362.565" x2="192.346" y2="223.1" stroke="#F27B81" stroke-width="0.435826" stroke-dasharray="0.87 0.87"/>
<line x1="332.118" y1="223.1" x2="192.654" y2="362.565" stroke="#F27B81" stroke-width="0.435826" stroke-dasharray="0.87 0.87"/>
</g>
<rect width="27.5" height="27.5" rx="13.75" fill="#3D73D5"/>
<path d="M16.9838 18.75V17.7129H14.6738V8.06429H13.731C13.0553 9.18 12.3167 9.99714 11.1695 10.6257V11.9771C12.6624 11.1286 13.0395 10.4529 13.4167 10.0129V17.7129H11.0595V18.75H16.9838Z" fill="white"/>
<rect x="192.5" width="27.5" height="27.5" rx="13.75" fill="#3D73D5"/>
<path d="M210.014 18.75V17.65H204.042C207.939 14.9943 209.778 13.2814 209.778 11.3014C209.778 9.36857 208.458 8.09571 206.242 8.09571C204.089 8.09571 202.801 9.32143 202.455 11.2229L203.665 11.4586C203.854 9.96571 204.828 9.16429 206.195 9.16429C207.751 9.16429 208.458 10.0757 208.458 11.2229C208.458 12.9986 207.342 14.1143 202.455 17.7286V18.75H210.014Z" fill="white"/>
<rect x="192.5" y="195.446" width="27.5" height="27.5" rx="13.75" fill="#3D73D5"/>
<path d="M208.584 214.196V211.745H210.265V210.661H208.584V203.511H207.201L202.125 210.739V211.745H207.358V214.196H208.584ZM207.358 204.941V210.661H203.288L207.358 204.941Z" fill="white"/>
<rect y="195.446" width="27.5" height="27.5" rx="13.75" fill="#3D73D5"/>
<path d="M13.6949 214.385C16.1778 214.385 17.5449 213.049 17.5449 211.305C17.5449 209.922 16.6178 208.979 15.1407 208.681C16.4292 208.366 17.1521 207.455 17.1521 206.229C17.1521 204.658 15.9421 203.526 13.6321 203.526C11.9035 203.526 10.5521 204.391 10.0021 206.025L11.1807 206.261C11.4792 205.239 12.3592 204.595 13.6635 204.595C15.0149 204.595 15.8478 205.239 15.8478 206.355C15.8478 207.565 15.0149 208.209 13.3964 208.209H12.1864V209.278H13.3964C15.2349 209.278 16.2249 210.095 16.2249 211.289C16.2249 212.436 15.4078 213.348 13.6635 213.348C12.0292 213.348 11.2121 212.766 10.8507 211.462L9.62494 211.698C10.1121 213.552 11.5107 214.385 13.6949 214.385Z" fill="white"/>
<defs>
<clipPath id="clip0_448_6689">
<rect width="137.5" height="137.5" fill="white" transform="translate(0 30.4464)"/>
</clipPath>
<clipPath id="clip1_448_6689">
<rect width="8.71652" height="137.5" fill="white" transform="translate(-0.732147 30.4464)"/>
</clipPath>
<clipPath id="clip2_448_6689">
<rect width="8.71652" height="137.5" fill="white" transform="translate(7.98438 30.4464)"/>
</clipPath>
<clipPath id="clip3_448_6689">
<rect width="8.71652" height="137.5" fill="white" transform="translate(16.7009 30.4464)"/>
</clipPath>
<clipPath id="clip4_448_6689">
<rect width="8.71652" height="137.5" fill="white" transform="translate(25.4174 30.4464)"/>
</clipPath>
<clipPath id="clip5_448_6689">
<rect width="8.71652" height="137.5" fill="white" transform="translate(34.1339 30.4464)"/>
</clipPath>
<clipPath id="clip6_448_6689">
<rect width="8.71652" height="137.5" fill="white" transform="translate(42.8504 30.4464)"/>
</clipPath>
<clipPath id="clip7_448_6689">
<rect width="8.71652" height="137.5" fill="white" transform="translate(51.567 30.4464)"/>
</clipPath>
<clipPath id="clip8_448_6689">
<rect width="8.71652" height="137.5" fill="white" transform="translate(60.2835 30.4464)"/>
</clipPath>
<clipPath id="clip9_448_6689">
<rect width="8.71652" height="137.5" fill="white" transform="translate(69 30.4464)"/>
</clipPath>
<clipPath id="clip10_448_6689">
<rect width="8.71652" height="137.5" fill="white" transform="translate(77.7165 30.4464)"/>
</clipPath>
<clipPath id="clip11_448_6689">
<rect width="8.71652" height="137.5" fill="white" transform="translate(86.433 30.4464)"/>
</clipPath>
<clipPath id="clip12_448_6689">
<rect width="8.71652" height="137.5" fill="white" transform="translate(95.1495 30.4464)"/>
</clipPath>
<clipPath id="clip13_448_6689">
<rect width="8.71652" height="137.5" fill="white" transform="translate(103.866 30.4464)"/>
</clipPath>
<clipPath id="clip14_448_6689">
<rect width="8.71652" height="137.5" fill="white" transform="translate(112.583 30.4464)"/>
</clipPath>
<clipPath id="clip15_448_6689">
<rect width="8.71652" height="137.5" fill="white" transform="translate(121.299 30.4464)"/>
</clipPath>
<clipPath id="clip16_448_6689">
<rect width="8.59375" height="139.464" fill="white" transform="translate(-0.732147 167.946) rotate(-90)"/>
</clipPath>
<clipPath id="clip17_448_6689">
<rect width="8.59375" height="139.464" fill="white" transform="translate(-0.732147 159.353) rotate(-90)"/>
</clipPath>
<clipPath id="clip18_448_6689">
<rect width="8.59375" height="139.464" fill="white" transform="translate(-0.732147 150.759) rotate(-90)"/>
</clipPath>
<clipPath id="clip19_448_6689">
<rect width="8.59375" height="139.464" fill="white" transform="translate(-0.732147 142.165) rotate(-90)"/>
</clipPath>
<clipPath id="clip20_448_6689">
<rect width="8.59375" height="139.464" fill="white" transform="translate(-0.732147 133.571) rotate(-90)"/>
</clipPath>
<clipPath id="clip21_448_6689">
<rect width="8.59375" height="139.464" fill="white" transform="translate(-0.732147 124.978) rotate(-90)"/>
</clipPath>
<clipPath id="clip22_448_6689">
<rect width="8.59375" height="139.464" fill="white" transform="translate(-0.732147 116.384) rotate(-90)"/>
</clipPath>
<clipPath id="clip23_448_6689">
<rect width="8.59375" height="139.464" fill="white" transform="translate(-0.732147 107.79) rotate(-90)"/>
</clipPath>
<clipPath id="clip24_448_6689">
<rect width="8.59375" height="139.464" fill="white" transform="translate(-0.732147 99.1964) rotate(-90)"/>
</clipPath>
<clipPath id="clip25_448_6689">
<rect width="8.59375" height="139.464" fill="white" transform="translate(-0.732147 90.6027) rotate(-90)"/>
</clipPath>
<clipPath id="clip26_448_6689">
<rect width="8.59375" height="139.464" fill="white" transform="translate(-0.732147 82.0089) rotate(-90)"/>
</clipPath>
<clipPath id="clip27_448_6689">
<rect width="8.59375" height="139.464" fill="white" transform="translate(-0.732147 73.4152) rotate(-90)"/>
</clipPath>
<clipPath id="clip28_448_6689">
<rect width="8.59375" height="139.464" fill="white" transform="translate(-0.732147 64.8214) rotate(-90)"/>
</clipPath>
<clipPath id="clip29_448_6689">
<rect width="8.59375" height="139.464" fill="white" transform="translate(-0.732147 56.2277) rotate(-90)"/>
</clipPath>
<clipPath id="clip30_448_6689">
<rect width="8.59375" height="139.464" fill="white" transform="translate(-0.732147 47.6339) rotate(-90)"/>
</clipPath>
<clipPath id="clip31_448_6689">
<rect width="8.59375" height="139.464" fill="white" transform="translate(-0.732147 39.0402) rotate(-90)"/>
</clipPath>
<clipPath id="clip32_448_6689">
<rect width="137.5" height="137.5" fill="white" transform="translate(0 222.946)"/>
</clipPath>
<clipPath id="clip33_448_6689">
<rect width="8.71652" height="139.464" fill="white" transform="translate(0 222.946)"/>
</clipPath>
<clipPath id="clip34_448_6689">
<rect width="8.71652" height="139.464" fill="white" transform="translate(8.71652 222.946)"/>
</clipPath>
<clipPath id="clip35_448_6689">
<rect width="8.71652" height="139.464" fill="white" transform="translate(17.433 222.946)"/>
</clipPath>
<clipPath id="clip36_448_6689">
<rect width="8.71652" height="139.464" fill="white" transform="translate(26.1496 222.946)"/>
</clipPath>
<clipPath id="clip37_448_6689">
<rect width="8.71652" height="139.464" fill="white" transform="translate(34.8661 222.946)"/>
</clipPath>
<clipPath id="clip38_448_6689">
<rect width="8.71652" height="139.464" fill="white" transform="translate(43.5826 222.946)"/>
</clipPath>
<clipPath id="clip39_448_6689">
<rect width="8.71652" height="139.464" fill="white" transform="translate(52.2991 222.946)"/>
</clipPath>
<clipPath id="clip40_448_6689">
<rect width="8.71652" height="139.464" fill="white" transform="translate(61.0156 222.946)"/>
</clipPath>
<clipPath id="clip41_448_6689">
<rect width="8.71652" height="139.464" fill="white" transform="translate(69.7321 222.946)"/>
</clipPath>
<clipPath id="clip42_448_6689">
<rect width="8.71652" height="139.464" fill="white" transform="translate(78.4487 222.946)"/>
</clipPath>
<clipPath id="clip43_448_6689">
<rect width="8.71652" height="139.464" fill="white" transform="translate(87.1652 222.946)"/>
</clipPath>
<clipPath id="clip44_448_6689">
<rect width="8.71652" height="139.464" fill="white" transform="translate(95.8817 222.946)"/>
</clipPath>
<clipPath id="clip45_448_6689">
<rect width="8.71652" height="139.464" fill="white" transform="translate(104.598 222.946)"/>
</clipPath>
<clipPath id="clip46_448_6689">
<rect width="8.71652" height="139.464" fill="white" transform="translate(113.315 222.946)"/>
</clipPath>
<clipPath id="clip47_448_6689">
<rect width="8.71652" height="139.464" fill="white" transform="translate(122.031 222.946)"/>
</clipPath>
<clipPath id="clip48_448_6689">
<rect width="8.71652" height="139.464" fill="white" transform="translate(0 362.411) rotate(-90)"/>
</clipPath>
<clipPath id="clip49_448_6689">
<rect width="8.71652" height="139.464" fill="white" transform="translate(0 353.694) rotate(-90)"/>
</clipPath>
<clipPath id="clip50_448_6689">
<rect width="8.71652" height="139.464" fill="white" transform="translate(0 344.978) rotate(-90)"/>
</clipPath>
<clipPath id="clip51_448_6689">
<rect width="8.71652" height="139.464" fill="white" transform="translate(0 336.261) rotate(-90)"/>
</clipPath>
<clipPath id="clip52_448_6689">
<rect width="8.71652" height="139.464" fill="white" transform="translate(0 327.545) rotate(-90)"/>
</clipPath>
<clipPath id="clip53_448_6689">
<rect width="8.71652" height="139.464" fill="white" transform="translate(0 318.828) rotate(-90)"/>
</clipPath>
<clipPath id="clip54_448_6689">
<rect width="8.71652" height="139.464" fill="white" transform="translate(0 310.112) rotate(-90)"/>
</clipPath>
<clipPath id="clip55_448_6689">
<rect width="8.71652" height="139.464" fill="white" transform="translate(0 301.395) rotate(-90)"/>
</clipPath>
<clipPath id="clip56_448_6689">
<rect width="8.71652" height="139.464" fill="white" transform="translate(0 292.679) rotate(-90)"/>
</clipPath>
<clipPath id="clip57_448_6689">
<rect width="8.71652" height="139.464" fill="white" transform="translate(0 283.962) rotate(-90)"/>
</clipPath>
<clipPath id="clip58_448_6689">
<rect width="8.71652" height="139.464" fill="white" transform="translate(0 275.246) rotate(-90)"/>
</clipPath>
<clipPath id="clip59_448_6689">
<rect width="8.71652" height="139.464" fill="white" transform="translate(0 266.529) rotate(-90)"/>
</clipPath>
<clipPath id="clip60_448_6689">
<rect width="8.71652" height="139.464" fill="white" transform="translate(0 257.812) rotate(-90)"/>
</clipPath>
<clipPath id="clip61_448_6689">
<rect width="8.71652" height="139.464" fill="white" transform="translate(0 249.096) rotate(-90)"/>
</clipPath>
<clipPath id="clip62_448_6689">
<rect width="8.71652" height="139.464" fill="white" transform="translate(0 240.379) rotate(-90)"/>
</clipPath>
<clipPath id="clip63_448_6689">
<rect width="8.71652" height="139.464" fill="white" transform="translate(0 231.663) rotate(-90)"/>
</clipPath>
<clipPath id="clip64_448_6689">
<rect width="137.5" height="137.5" fill="white" transform="translate(192.5 30.4464)"/>
</clipPath>
<clipPath id="clip65_448_6689">
<rect width="8.71652" height="139.464" fill="white" transform="translate(192.5 30.4464)"/>
</clipPath>
<clipPath id="clip66_448_6689">
<rect width="8.71652" height="139.464" fill="white" transform="translate(201.217 30.4464)"/>
</clipPath>
<clipPath id="clip67_448_6689">
<rect width="8.71652" height="139.464" fill="white" transform="translate(209.933 30.4464)"/>
</clipPath>
<clipPath id="clip68_448_6689">
<rect width="8.71652" height="139.464" fill="white" transform="translate(218.65 30.4464)"/>
</clipPath>
<clipPath id="clip69_448_6689">
<rect width="8.71652" height="139.464" fill="white" transform="translate(227.366 30.4464)"/>
</clipPath>
<clipPath id="clip70_448_6689">
<rect width="8.71652" height="139.464" fill="white" transform="translate(236.083 30.4464)"/>
</clipPath>
<clipPath id="clip71_448_6689">
<rect width="8.71652" height="139.464" fill="white" transform="translate(244.799 30.4464)"/>
</clipPath>
<clipPath id="clip72_448_6689">
<rect width="8.71652" height="139.464" fill="white" transform="translate(253.516 30.4464)"/>
</clipPath>
<clipPath id="clip73_448_6689">
<rect width="8.71652" height="139.464" fill="white" transform="translate(262.232 30.4464)"/>
</clipPath>
<clipPath id="clip74_448_6689">
<rect width="8.71652" height="139.464" fill="white" transform="translate(270.949 30.4464)"/>
</clipPath>
<clipPath id="clip75_448_6689">
<rect width="8.71652" height="139.464" fill="white" transform="translate(279.665 30.4464)"/>
</clipPath>
<clipPath id="clip76_448_6689">
<rect width="8.71652" height="139.464" fill="white" transform="translate(288.382 30.4464)"/>
</clipPath>
<clipPath id="clip77_448_6689">
<rect width="8.71652" height="139.464" fill="white" transform="translate(297.098 30.4464)"/>
</clipPath>
<clipPath id="clip78_448_6689">
<rect width="8.71652" height="139.464" fill="white" transform="translate(305.815 30.4464)"/>
</clipPath>
<clipPath id="clip79_448_6689">
<rect width="8.71652" height="139.464" fill="white" transform="translate(314.531 30.4464)"/>
</clipPath>
<clipPath id="clip80_448_6689">
<rect width="8.71652" height="139.464" fill="white" transform="translate(192.5 169.911) rotate(-90)"/>
</clipPath>
<clipPath id="clip81_448_6689">
<rect width="8.71652" height="139.464" fill="white" transform="translate(192.5 161.194) rotate(-90)"/>
</clipPath>
<clipPath id="clip82_448_6689">
<rect width="8.71652" height="139.464" fill="white" transform="translate(192.5 152.478) rotate(-90)"/>
</clipPath>
<clipPath id="clip83_448_6689">
<rect width="8.71652" height="139.464" fill="white" transform="translate(192.5 143.761) rotate(-90)"/>
</clipPath>
<clipPath id="clip84_448_6689">
<rect width="8.71652" height="139.464" fill="white" transform="translate(192.5 135.045) rotate(-90)"/>
</clipPath>
<clipPath id="clip85_448_6689">
<rect width="8.71652" height="139.464" fill="white" transform="translate(192.5 126.328) rotate(-90)"/>
</clipPath>
<clipPath id="clip86_448_6689">
<rect width="8.71652" height="139.464" fill="white" transform="translate(192.5 117.612) rotate(-90)"/>
</clipPath>
<clipPath id="clip87_448_6689">
<rect width="8.71652" height="139.464" fill="white" transform="translate(192.5 108.895) rotate(-90)"/>
</clipPath>
<clipPath id="clip88_448_6689">
<rect width="8.71652" height="139.464" fill="white" transform="translate(192.5 100.179) rotate(-90)"/>
</clipPath>
<clipPath id="clip89_448_6689">
<rect width="8.71652" height="139.464" fill="white" transform="translate(192.5 91.462) rotate(-90)"/>
</clipPath>
<clipPath id="clip90_448_6689">
<rect width="8.71652" height="139.464" fill="white" transform="translate(192.5 82.7455) rotate(-90)"/>
</clipPath>
<clipPath id="clip91_448_6689">
<rect width="8.71652" height="139.464" fill="white" transform="translate(192.5 74.029) rotate(-90)"/>
</clipPath>
<clipPath id="clip92_448_6689">
<rect width="8.71652" height="139.464" fill="white" transform="translate(192.5 65.3125) rotate(-90)"/>
</clipPath>
<clipPath id="clip93_448_6689">
<rect width="8.71652" height="139.464" fill="white" transform="translate(192.5 56.5959) rotate(-90)"/>
</clipPath>
<clipPath id="clip94_448_6689">
<rect width="8.71652" height="139.464" fill="white" transform="translate(192.5 47.8795) rotate(-90)"/>
</clipPath>
<clipPath id="clip95_448_6689">
<rect width="8.71652" height="139.464" fill="white" transform="translate(192.5 39.163) rotate(-90)"/>
</clipPath>
<clipPath id="clip96_448_6689">
<rect width="137.5" height="137.5" fill="white" transform="translate(192.5 222.946)"/>
</clipPath>
<clipPath id="clip97_448_6689">
<rect width="8.71652" height="139.464" fill="white" transform="translate(192.5 222.946)"/>
</clipPath>
<clipPath id="clip98_448_6689">
<rect width="8.71652" height="139.464" fill="white" transform="translate(201.217 222.946)"/>
</clipPath>
<clipPath id="clip99_448_6689">
<rect width="8.71652" height="139.464" fill="white" transform="translate(209.933 222.946)"/>
</clipPath>
<clipPath id="clip100_448_6689">
<rect width="8.71652" height="139.464" fill="white" transform="translate(218.65 222.946)"/>
</clipPath>
<clipPath id="clip101_448_6689">
<rect width="8.71652" height="139.464" fill="white" transform="translate(227.366 222.946)"/>
</clipPath>
<clipPath id="clip102_448_6689">
<rect width="8.71652" height="139.464" fill="white" transform="translate(236.083 222.946)"/>
</clipPath>
<clipPath id="clip103_448_6689">
<rect width="8.71652" height="139.464" fill="white" transform="translate(244.799 222.946)"/>
</clipPath>
<clipPath id="clip104_448_6689">
<rect width="8.71652" height="139.464" fill="white" transform="translate(253.516 222.946)"/>
</clipPath>
<clipPath id="clip105_448_6689">
<rect width="8.71652" height="139.464" fill="white" transform="translate(262.232 222.946)"/>
</clipPath>
<clipPath id="clip106_448_6689">
<rect width="8.71652" height="139.464" fill="white" transform="translate(270.949 222.946)"/>
</clipPath>
<clipPath id="clip107_448_6689">
<rect width="8.71652" height="139.464" fill="white" transform="translate(279.665 222.946)"/>
</clipPath>
<clipPath id="clip108_448_6689">
<rect width="8.71652" height="139.464" fill="white" transform="translate(288.382 222.946)"/>
</clipPath>
<clipPath id="clip109_448_6689">
<rect width="8.71652" height="139.464" fill="white" transform="translate(297.098 222.946)"/>
</clipPath>
<clipPath id="clip110_448_6689">
<rect width="8.71652" height="139.464" fill="white" transform="translate(305.815 222.946)"/>
</clipPath>
<clipPath id="clip111_448_6689">
<rect width="8.71652" height="139.464" fill="white" transform="translate(314.531 222.946)"/>
</clipPath>
<clipPath id="clip112_448_6689">
<rect width="8.71652" height="139.464" fill="white" transform="translate(192.5 362.411) rotate(-90)"/>
</clipPath>
<clipPath id="clip113_448_6689">
<rect width="8.71652" height="139.464" fill="white" transform="translate(192.5 353.694) rotate(-90)"/>
</clipPath>
<clipPath id="clip114_448_6689">
<rect width="8.71652" height="139.464" fill="white" transform="translate(192.5 344.978) rotate(-90)"/>
</clipPath>
<clipPath id="clip115_448_6689">
<rect width="8.71652" height="139.464" fill="white" transform="translate(192.5 336.261) rotate(-90)"/>
</clipPath>
<clipPath id="clip116_448_6689">
<rect width="8.71652" height="139.464" fill="white" transform="translate(192.5 327.545) rotate(-90)"/>
</clipPath>
<clipPath id="clip117_448_6689">
<rect width="8.71652" height="139.464" fill="white" transform="translate(192.5 318.828) rotate(-90)"/>
</clipPath>
<clipPath id="clip118_448_6689">
<rect width="8.71652" height="139.464" fill="white" transform="translate(192.5 310.112) rotate(-90)"/>
</clipPath>
<clipPath id="clip119_448_6689">
<rect width="8.71652" height="139.464" fill="white" transform="translate(192.5 301.395) rotate(-90)"/>
</clipPath>
<clipPath id="clip120_448_6689">
<rect width="8.71652" height="139.464" fill="white" transform="translate(192.5 292.679) rotate(-90)"/>
</clipPath>
<clipPath id="clip121_448_6689">
<rect width="8.71652" height="139.464" fill="white" transform="translate(192.5 283.962) rotate(-90)"/>
</clipPath>
<clipPath id="clip122_448_6689">
<rect width="8.71652" height="139.464" fill="white" transform="translate(192.5 275.246) rotate(-90)"/>
</clipPath>
<clipPath id="clip123_448_6689">
<rect width="8.71652" height="139.464" fill="white" transform="translate(192.5 266.529) rotate(-90)"/>
</clipPath>
<clipPath id="clip124_448_6689">
<rect width="8.71652" height="139.464" fill="white" transform="translate(192.5 257.812) rotate(-90)"/>
</clipPath>
<clipPath id="clip125_448_6689">
<rect width="8.71652" height="139.464" fill="white" transform="translate(192.5 249.096) rotate(-90)"/>
</clipPath>
<clipPath id="clip126_448_6689">
<rect width="8.71652" height="139.464" fill="white" transform="translate(192.5 240.379) rotate(-90)"/>
</clipPath>
<clipPath id="clip127_448_6689">
<rect width="8.71652" height="139.464" fill="white" transform="translate(192.5 231.663) rotate(-90)"/>
</clipPath>
</defs>
</svg>
