<svg width="400" height="240" viewBox="0 0 400 240" fill="none" xmlns="http://www.w3.org/2000/svg">
<g clip-path="url(#clip0_3124_16203)">
<path d="M399.9 0H-0.0999985V240H399.9V0Z" fill="white"/>
<path d="M400 0H0V240H400V0Z" fill="white"/>
<g opacity="0.4">
<mask id="mask0_3124_16203" style="mask-type:luminance" maskUnits="userSpaceOnUse" x="0" y="-1" width="400" height="242">
<path d="M400 -0.100098H0V240.1H400V-0.100098Z" fill="white"/>
</mask>
<g mask="url(#mask0_3124_16203)">
<path d="M16.65 -150V390" stroke="#ACC5E7" stroke-width="0.3" stroke-miterlimit="10"/>
<path d="M49.95 -150V390" stroke="#ACC5E7" stroke-width="0.3" stroke-miterlimit="10"/>
<path d="M83.25 -150V390" stroke="#ACC5E7" stroke-width="0.3" stroke-miterlimit="10"/>
<path d="M116.55 -150V390" stroke="#ACC5E7" stroke-width="0.3" stroke-miterlimit="10"/>
<path d="M149.85 -150V390" stroke="#ACC5E7" stroke-width="0.3" stroke-miterlimit="10"/>
<path d="M183.15 -150V390" stroke="#ACC5E7" stroke-width="0.3" stroke-miterlimit="10"/>
<path d="M216.45 -150V390" stroke="#ACC5E7" stroke-width="0.3" stroke-miterlimit="10"/>
<path d="M249.75 -150V390" stroke="#ACC5E7" stroke-width="0.3" stroke-miterlimit="10"/>
<path d="M283.05 -150V390" stroke="#ACC5E7" stroke-width="0.3" stroke-miterlimit="10"/>
<path d="M316.35 -150V390" stroke="#ACC5E7" stroke-width="0.3" stroke-miterlimit="10"/>
<path d="M349.65 -150V390" stroke="#ACC5E7" stroke-width="0.3" stroke-miterlimit="10"/>
<path d="M382.95 -150V390" stroke="#ACC5E7" stroke-width="0.3" stroke-miterlimit="10"/>
<path d="M-249.85 210.02H649.25" stroke="#ACC5E7" stroke-width="0.3" stroke-miterlimit="10"/>
<path d="M-249.85 176.72H649.25" stroke="#ACC5E7" stroke-width="0.3" stroke-miterlimit="10"/>
<path d="M-249.85 143.42H649.25" stroke="#ACC5E7" stroke-width="0.3" stroke-miterlimit="10"/>
<path d="M-249.85 110.12H649.25" stroke="#ACC5E7" stroke-width="0.3" stroke-miterlimit="10"/>
<path d="M-249.85 76.8201H649.25" stroke="#ACC5E7" stroke-width="0.3" stroke-miterlimit="10"/>
<path d="M-249.85 43.52H649.25" stroke="#ACC5E7" stroke-width="0.3" stroke-miterlimit="10"/>
<path d="M-249.85 10.22H649.25" stroke="#ACC5E7" stroke-width="0.3" stroke-miterlimit="10"/>
</g>
<path d="M400 -0.100098H0V240.1H400V-0.100098Z" stroke="#ACC5E7" stroke-width="0.3" stroke-miterlimit="10"/>
</g>
<g opacity="0.4">
<mask id="mask1_3124_16203" style="mask-type:luminance" maskUnits="userSpaceOnUse" x="0" y="-1" width="400" height="242">
<path d="M400 -0.100098H0V240.1H400V-0.100098Z" fill="white"/>
</mask>
<g mask="url(#mask1_3124_16203)">
<path d="M16.65 -150V390" stroke="#ACC5E7" stroke-width="0.3" stroke-miterlimit="10"/>
<path d="M49.95 -150V390" stroke="#ACC5E7" stroke-width="0.3" stroke-miterlimit="10"/>
<path d="M83.25 -150V390" stroke="#ACC5E7" stroke-width="0.3" stroke-miterlimit="10"/>
<path d="M116.55 -150V390" stroke="#ACC5E7" stroke-width="0.3" stroke-miterlimit="10"/>
<path d="M149.85 -150V390" stroke="#ACC5E7" stroke-width="0.3" stroke-miterlimit="10"/>
<path d="M183.15 -150V390" stroke="#ACC5E7" stroke-width="0.3" stroke-miterlimit="10"/>
<path d="M216.45 -150V390" stroke="#ACC5E7" stroke-width="0.3" stroke-miterlimit="10"/>
<path d="M249.75 -150V390" stroke="#ACC5E7" stroke-width="0.3" stroke-miterlimit="10"/>
<path d="M283.05 -150V390" stroke="#ACC5E7" stroke-width="0.3" stroke-miterlimit="10"/>
<path d="M316.35 -150V390" stroke="#ACC5E7" stroke-width="0.3" stroke-miterlimit="10"/>
<path d="M349.65 -150V390" stroke="#ACC5E7" stroke-width="0.3" stroke-miterlimit="10"/>
<path d="M382.95 -150V390" stroke="#ACC5E7" stroke-width="0.3" stroke-miterlimit="10"/>
<path d="M-249.85 210.02H649.25" stroke="#ACC5E7" stroke-width="0.3" stroke-miterlimit="10"/>
<path d="M-249.85 176.72H649.25" stroke="#ACC5E7" stroke-width="0.3" stroke-miterlimit="10"/>
<path d="M-249.85 143.42H649.25" stroke="#ACC5E7" stroke-width="0.3" stroke-miterlimit="10"/>
<path d="M-249.85 110.12H649.25" stroke="#ACC5E7" stroke-width="0.3" stroke-miterlimit="10"/>
<path d="M-249.85 76.8201H649.25" stroke="#ACC5E7" stroke-width="0.3" stroke-miterlimit="10"/>
<path d="M-249.85 43.52H649.25" stroke="#ACC5E7" stroke-width="0.3" stroke-miterlimit="10"/>
<path d="M-249.85 10.22H649.25" stroke="#ACC5E7" stroke-width="0.3" stroke-miterlimit="10"/>
</g>
<path d="M400 -0.100098H0V240.1H400V-0.100098Z" stroke="#ACC5E7" stroke-width="0.3" stroke-miterlimit="10"/>
</g>
<path d="M241.476 124.452H161.374C159.761 124.452 158.454 125.759 158.454 127.372V193.242C158.454 194.855 159.761 196.162 161.374 196.162H241.476C243.089 196.162 244.396 194.855 244.396 193.242V127.372C244.396 125.759 243.089 124.452 241.476 124.452Z" fill="#166DFC"/>
<path d="M240.05 122.534H159.948C158.335 122.534 157.028 123.841 157.028 125.454V191.324C157.028 192.937 158.335 194.244 159.948 194.244H240.05C241.663 194.244 242.97 192.937 242.97 191.324V125.454C242.97 123.841 241.663 122.534 240.05 122.534Z" fill="#E7F0FE" stroke="#111111" stroke-width="0.4" stroke-miterlimit="10"/>
<path d="M233.668 149.582H166.28C164.802 149.582 163.604 150.78 163.604 152.258V164.514C163.604 165.992 164.802 167.19 166.28 167.19H233.668C235.146 167.19 236.344 165.992 236.344 164.514V152.258C236.344 150.78 235.146 149.582 233.668 149.582Z" fill="white" stroke="#111111" stroke-width="0.4" stroke-miterlimit="10"/>
<path d="M215.746 129.644H184.254C183.226 129.644 182.392 130.478 182.392 131.506V145.39C182.392 146.418 183.226 147.252 184.254 147.252H215.746C216.774 147.252 217.608 146.418 217.608 145.39V131.506C217.608 130.478 216.774 129.644 215.746 129.644Z" fill="#166DFC" stroke="#111111" stroke-width="0.4" stroke-miterlimit="10"/>
<path d="M233.73 169.564H166.27C164.791 169.564 163.592 170.763 163.592 172.242V184.494C163.592 185.973 164.791 187.172 166.27 187.172H233.73C235.209 187.172 236.408 185.973 236.408 184.494V172.242C236.408 170.763 235.209 169.564 233.73 169.564Z" fill="white" stroke="#111111" stroke-width="0.4" stroke-miterlimit="10"/>
<path d="M144.876 124.452H64.774C63.1613 124.452 61.854 125.759 61.854 127.372V193.242C61.854 194.855 63.1613 196.162 64.774 196.162H144.876C146.489 196.162 147.796 194.855 147.796 193.242V127.372C147.796 125.759 146.489 124.452 144.876 124.452Z" fill="#166DFC"/>
<path d="M143.022 122.534H62.92C61.3073 122.534 60 123.841 60 125.454V191.324C60 192.937 61.3073 194.244 62.92 194.244H143.022C144.635 194.244 145.942 192.937 145.942 191.324V125.454C145.942 123.841 144.635 122.534 143.022 122.534Z" fill="#E7F0FE" stroke="#111111" stroke-width="0.4" stroke-miterlimit="10"/>
<path d="M99.928 149.582H68.436C67.4077 149.582 66.574 150.416 66.574 151.444V165.328C66.574 166.356 67.4077 167.19 68.436 167.19H99.928C100.956 167.19 101.79 166.356 101.79 165.328V151.444C101.79 150.416 100.956 149.582 99.928 149.582Z" fill="white" stroke="#111111" stroke-width="0.4" stroke-miterlimit="10"/>
<path d="M137.516 149.582H106.024C104.996 149.582 104.162 150.416 104.162 151.444V165.328C104.162 166.356 104.996 167.19 106.024 167.19H137.516C138.544 167.19 139.378 166.356 139.378 165.328V151.444C139.378 150.416 138.544 149.582 137.516 149.582Z" fill="#166DFC" stroke="#111111" stroke-width="0.4" stroke-miterlimit="10"/>
<path d="M136.702 129.604H69.242C67.763 129.604 66.564 130.803 66.564 132.282V144.534C66.564 146.013 67.763 147.212 69.242 147.212H136.702C138.181 147.212 139.38 146.013 139.38 144.534V132.282C139.38 130.803 138.181 129.604 136.702 129.604Z" fill="white" stroke="#111111" stroke-width="0.4" stroke-miterlimit="10"/>
<path d="M136.702 169.564H69.242C67.763 169.564 66.564 170.763 66.564 172.242V184.494C66.564 185.973 67.763 187.172 69.242 187.172H136.702C138.181 187.172 139.38 185.973 139.38 184.494V172.242C139.38 170.763 138.181 169.564 136.702 169.564Z" fill="white" stroke="#111111" stroke-width="0.4" stroke-miterlimit="10"/>
<path d="M338.676 124.452H258.574C256.961 124.452 255.654 125.759 255.654 127.372V193.242C255.654 194.855 256.961 196.162 258.574 196.162H338.676C340.289 196.162 341.596 194.855 341.596 193.242V127.372C341.596 125.759 340.289 124.452 338.676 124.452Z" fill="#166DFC"/>
<path d="M337.08 122.534H256.978C255.365 122.534 254.058 123.841 254.058 125.454V191.324C254.058 192.937 255.365 194.244 256.978 194.244H337.08C338.693 194.244 340 192.937 340 191.324V125.454C340 123.841 338.693 122.534 337.08 122.534Z" fill="#E7F0FE" stroke="#111111" stroke-width="0.4" stroke-miterlimit="10"/>
<path d="M330.76 129.604H263.3C261.821 129.604 260.622 130.803 260.622 132.282V144.534C260.622 146.013 261.821 147.212 263.3 147.212H330.76C332.239 147.212 333.438 146.013 333.438 144.534V132.282C333.438 130.803 332.239 129.604 330.76 129.604Z" fill="white" stroke="#111111" stroke-width="0.4" stroke-miterlimit="10"/>
<path d="M329.528 149.632H264.574C262.416 149.632 260.666 151.382 260.666 153.54V183.264C260.666 185.422 262.416 187.172 264.574 187.172H329.528C331.686 187.172 333.436 185.422 333.436 183.264V153.54C333.436 151.382 331.686 149.632 329.528 149.632Z" fill="white" stroke="#111111" stroke-width="0.4" stroke-miterlimit="10"/>
<path d="M297.32 164.524H265.828C264.8 164.524 263.966 165.358 263.966 166.386V180.27C263.966 181.298 264.8 182.132 265.828 182.132H297.32C298.348 182.132 299.182 181.298 299.182 180.27V166.386C299.182 165.358 298.348 164.524 297.32 164.524Z" fill="#166DFC" stroke="#111111" stroke-width="0.4" stroke-miterlimit="10"/>
<path d="M297.868 153.07H265.28C264.554 153.07 263.966 153.658 263.966 154.384V160.536C263.966 161.262 264.554 161.85 265.28 161.85H297.868C298.594 161.85 299.182 161.262 299.182 160.536V154.384C299.182 153.658 298.594 153.07 297.868 153.07Z" fill="white" stroke="#111111" stroke-width="0.4" stroke-miterlimit="10"/>
<path d="M328.798 153.07H304.124C302.926 153.07 301.954 154.042 301.954 155.24V179.948C301.954 181.147 302.926 182.118 304.124 182.118H328.798C329.996 182.118 330.968 181.147 330.968 179.948V155.24C330.968 154.042 329.996 153.07 328.798 153.07Z" fill="white" stroke="#111111" stroke-width="0.4" stroke-miterlimit="10"/>
<path d="M122.352 141.526H121.452V143.15H122.352V141.526Z" fill="#111111"/>
<path d="M122.352 144.44H121.452V146.064H122.352V144.44Z" fill="#111111"/>
<path d="M122.352 147.344H121.452V148.968H122.352V147.344Z" fill="#111111"/>
<path d="M122.352 132.772H121.452V134.396H122.352V132.772Z" fill="#111111"/>
<path d="M122.352 135.686H121.452V137.31H122.352V135.686Z" fill="#111111"/>
<path d="M122.352 138.592H121.452V140.216H122.352V138.592Z" fill="#111111"/>
<path d="M122.352 124.02H121.452V125.644H122.352V124.02Z" fill="#111111"/>
<path d="M122.352 126.934H121.452V128.558H122.352V126.934Z" fill="#111111"/>
<path d="M122.352 129.838H121.452V131.462H122.352V129.838Z" fill="#111111"/>
<path d="M122.352 115.266H121.452V116.89H122.352V115.266Z" fill="#111111"/>
<path d="M122.352 118.18H121.452V119.804H122.352V118.18Z" fill="#111111"/>
<path d="M122.352 121.084H121.452V122.708H122.352V121.084Z" fill="#111111"/>
<path d="M133.724 109.802H132.23V110.702H133.724V109.802Z" fill="#111111"/>
<path d="M131.044 109.802H129.55V110.702H131.044V109.802Z" fill="#111111"/>
<path d="M128.374 109.802H126.88V110.702H128.374V109.802Z" fill="#111111"/>
<path d="M141.77 109.802H140.276V110.702H141.77V109.802Z" fill="#111111"/>
<path d="M139.092 109.802H137.598V110.702H139.092V109.802Z" fill="#111111"/>
<path d="M136.422 109.802H134.928V110.702H136.422V109.802Z" fill="#111111"/>
<path d="M149.818 109.802H148.324V110.702H149.818V109.802Z" fill="#111111"/>
<path d="M147.138 109.802H145.644V110.702H147.138V109.802Z" fill="#111111"/>
<path d="M144.468 109.802H142.974V110.702H144.468V109.802Z" fill="#111111"/>
<path d="M157.864 109.802H156.37V110.702H157.864V109.802Z" fill="#111111"/>
<path d="M155.186 109.802H153.692V110.702H155.186V109.802Z" fill="#111111"/>
<path d="M152.516 109.802H151.022V110.702H152.516V109.802Z" fill="#111111"/>
<path d="M165.912 109.802H164.418V110.702H165.912V109.802Z" fill="#111111"/>
<path d="M163.232 109.802H161.738V110.702H163.232V109.802Z" fill="#111111"/>
<path d="M160.562 109.802H159.068V110.702H160.562V109.802Z" fill="#111111"/>
<path d="M173.96 109.802H172.466V110.702H173.96V109.802Z" fill="#111111"/>
<path d="M171.28 109.802H169.786V110.702H171.28V109.802Z" fill="#111111"/>
<path d="M168.61 109.802H167.116V110.702H168.61V109.802Z" fill="#111111"/>
<path d="M182.006 109.802H180.512V110.702H182.006V109.802Z" fill="#111111"/>
<path d="M179.328 109.802H177.834V110.702H179.328V109.802Z" fill="#111111"/>
<path d="M176.658 109.802H175.164V110.702H176.658V109.802Z" fill="#111111"/>
<path d="M187.682 99.498H186.782V100.724H187.682V99.498Z" fill="#111111"/>
<path d="M187.682 101.7H186.782V102.926H187.682V101.7Z" fill="#111111"/>
<path d="M187.682 103.892H186.782V105.118H187.682V103.892Z" fill="#111111"/>
<path d="M187.682 92.8879H186.782V94.1139H187.682V92.8879Z" fill="#111111"/>
<path d="M187.682 95.0879H186.782V96.3139H187.682V95.0879Z" fill="#111111"/>
<path d="M187.682 97.282H186.782V98.508H187.682V97.282Z" fill="#111111"/>
<path d="M122.292 112.5H121.388V114H122.292V112.5Z" fill="#111111"/>
<path fill-rule="evenodd" clip-rule="evenodd" d="M121.388 109.8V111.3H122.292V110.7H122.888V109.8H121.388Z" fill="#111111"/>
<path d="M125.588 109.8H124.088V110.7H125.588V109.8Z" fill="#111111"/>
<path d="M184.718 109.598H183.218V110.502H184.718V109.598Z" fill="#111111"/>
<path fill-rule="evenodd" clip-rule="evenodd" d="M187.42 110.502H185.92V109.598H186.52V109.002H187.42V110.502Z" fill="#111111"/>
<path d="M187.42 106.302H186.52V107.802H187.42V106.302Z" fill="#111111"/>
<path d="M282.136 156.82H281.236V158.364H282.136V156.82Z" fill="#111111"/>
<path d="M282.136 159.59H281.236V161.134H282.136V159.59Z" fill="#111111"/>
<path d="M282.136 162.35H281.236V163.894H282.136V162.35Z" fill="#111111"/>
<path d="M282.136 148.504H281.236V150.048H282.136V148.504Z" fill="#111111"/>
<path d="M282.136 151.272H281.236V152.816H282.136V151.272Z" fill="#111111"/>
<path d="M282.136 154.032H281.236V155.576H282.136V154.032Z" fill="#111111"/>
<path d="M282.136 140.186H281.236V141.73H282.136V140.186Z" fill="#111111"/>
<path d="M282.136 142.954H281.236V144.498H282.136V142.954Z" fill="#111111"/>
<path d="M282.136 145.714H281.236V147.258H282.136V145.714Z" fill="#111111"/>
<path d="M282.136 131.868H281.236V133.412H282.136V131.868Z" fill="#111111"/>
<path d="M282.136 134.638H281.236V136.182H282.136V134.638Z" fill="#111111"/>
<path d="M282.136 137.398H281.236V138.942H282.136V137.398Z" fill="#111111"/>
<path d="M282.136 123.552H281.236V125.096H282.136V123.552Z" fill="#111111"/>
<path d="M282.136 126.32H281.236V127.864H282.136V126.32Z" fill="#111111"/>
<path d="M282.136 129.08H281.236V130.624H282.136V129.08Z" fill="#111111"/>
<path d="M282.136 115.234H281.236V116.778H282.136V115.234Z" fill="#111111"/>
<path d="M282.136 118.002H281.236V119.546H282.136V118.002Z" fill="#111111"/>
<path d="M282.136 120.762H281.236V122.306H282.136V120.762Z" fill="#111111"/>
<path d="M270.85 109.538H269.294V110.438H270.85V109.538Z" fill="#111111"/>
<path d="M273.64 109.538H272.084V110.438H273.64V109.538Z" fill="#111111"/>
<path d="M276.42 109.538H274.864V110.438H276.42V109.538Z" fill="#111111"/>
<path d="M262.47 109.538H260.914V110.438H262.47V109.538Z" fill="#111111"/>
<path d="M265.26 109.538H263.704V110.438H265.26V109.538Z" fill="#111111"/>
<path d="M268.04 109.538H266.484V110.438H268.04V109.538Z" fill="#111111"/>
<path d="M254.092 109.538H252.536V110.438H254.092V109.538Z" fill="#111111"/>
<path d="M256.882 109.538H255.326V110.438H256.882V109.538Z" fill="#111111"/>
<path d="M259.662 109.538H258.106V110.438H259.662V109.538Z" fill="#111111"/>
<path d="M245.712 109.538H244.156V110.438H245.712V109.538Z" fill="#111111"/>
<path d="M248.502 109.538H246.946V110.438H248.502V109.538Z" fill="#111111"/>
<path d="M251.282 109.538H249.726V110.438H251.282V109.538Z" fill="#111111"/>
<path d="M237.334 109.538H235.778V110.438H237.334V109.538Z" fill="#111111"/>
<path d="M240.122 109.538H238.566V110.438H240.122V109.538Z" fill="#111111"/>
<path d="M242.904 109.538H241.348V110.438H242.904V109.538Z" fill="#111111"/>
<path d="M228.954 109.538H227.398V110.438H228.954V109.538Z" fill="#111111"/>
<path d="M231.744 109.538H230.188V110.438H231.744V109.538Z" fill="#111111"/>
<path d="M234.524 109.538H232.968V110.438H234.524V109.538Z" fill="#111111"/>
<path d="M220.574 109.538H219.018V110.438H220.574V109.538Z" fill="#111111"/>
<path d="M223.364 109.538H221.808V110.438H223.364V109.538Z" fill="#111111"/>
<path d="M226.144 109.538H224.588V110.438H226.144V109.538Z" fill="#111111"/>
<path d="M214.482 99.4858H213.582V100.716H214.482V99.4858Z" fill="#111111"/>
<path d="M214.482 101.692H213.582V102.922H214.482V101.692Z" fill="#111111"/>
<path d="M214.482 103.89H213.582V105.12H214.482V103.89Z" fill="#111111"/>
<path d="M214.482 92.864H213.582V94.094H214.482V92.864Z" fill="#111111"/>
<path d="M214.482 95.0701H213.582V96.3001H214.482V95.0701Z" fill="#111111"/>
<path d="M214.482 97.2659H213.582V98.4959H214.482V97.2659Z" fill="#111111"/>
<path d="M281.936 112.5H281.032V114H281.936V112.5Z" fill="#111111"/>
<path fill-rule="evenodd" clip-rule="evenodd" d="M281.936 109.8V111.3H281.032V110.7H280.436V109.8H281.936Z" fill="#111111"/>
<path d="M279.236 109.8H277.736V110.7H279.236V109.8Z" fill="#111111"/>
<path d="M217.78 109.598H216.28V110.502H217.78V109.598Z" fill="#111111"/>
<path fill-rule="evenodd" clip-rule="evenodd" d="M213.58 110.502H215.08V109.598H214.48V109.002H213.58V110.502Z" fill="#111111"/>
<path d="M214.48 106.302H213.58V107.802H214.48V106.302Z" fill="#111111"/>
<path d="M200.318 97.8879H199.418V99.2699H200.318V97.8879Z" fill="#111111"/>
<path d="M200.318 95.4099H199.418V96.7919H200.318V95.4099Z" fill="#111111"/>
<path d="M200.318 92.9399H199.418V94.3219H200.318V92.9399Z" fill="#111111"/>
<path d="M200.318 105.334H199.418V106.716H200.318V105.334Z" fill="#111111"/>
<path d="M200.318 102.856H199.418V104.238H200.318V102.856Z" fill="#111111"/>
<path d="M200.318 100.384H199.418V101.766H200.318V100.384Z" fill="#111111"/>
<path d="M200.318 112.78H199.418V114.162H200.318V112.78Z" fill="#111111"/>
<path d="M200.318 110.302H199.418V111.684H200.318V110.302Z" fill="#111111"/>
<path d="M200.318 107.83H199.418V109.212H200.318V107.83Z" fill="#111111"/>
<path d="M200.318 120.226H199.418V121.608H200.318V120.226Z" fill="#111111"/>
<path d="M200.318 117.748H199.418V119.13H200.318V117.748Z" fill="#111111"/>
<path d="M200.318 115.276H199.418V116.658H200.318V115.276Z" fill="#111111"/>
<path d="M200.318 127.672H199.418V129.054H200.318V127.672Z" fill="#111111"/>
<path d="M200.318 125.192H199.418V126.574H200.318V125.192Z" fill="#111111"/>
<path d="M200.318 122.722H199.418V124.104H200.318V122.722Z" fill="#111111"/>
<path d="M259.46 33H147.14C143.473 33 140.5 35.9728 140.5 39.64V89.16C140.5 92.8272 143.473 95.8 147.14 95.8H259.46C263.127 95.8 266.1 92.8272 266.1 89.16V39.64C266.1 35.9728 263.127 33 259.46 33Z" fill="#ACC5E7"/>
<path d="M256.16 29.5759H143.84C140.173 29.5759 137.2 32.5488 137.2 36.2159V85.7359C137.2 89.4031 140.173 92.3759 143.84 92.3759H256.16C259.827 92.3759 262.8 89.4031 262.8 85.7359V36.2159C262.8 32.5488 259.827 29.5759 256.16 29.5759Z" fill="#166DFC" stroke="#111111" stroke-width="0.4" stroke-miterlimit="10"/>
<path d="M222.8 41.676H184V80.476H222.8V41.676Z" fill="white" stroke="#111111" stroke-width="0.4" stroke-miterlimit="10"/>
<path d="M177.2 41.4761V61.2761H200.762L177.2 41.4761Z" fill="#ACC5E7" stroke="#111111" stroke-width="0.4" stroke-miterlimit="10"/>
<path d="M212.1 77.676C216.794 77.676 220.6 73.8704 220.6 69.176C220.6 64.4816 216.794 60.676 212.1 60.676C207.406 60.676 203.6 64.4816 203.6 69.176C203.6 73.8704 207.406 77.676 212.1 77.676Z" fill="#ACC5E7" stroke="#111111" stroke-width="0.4" stroke-miterlimit="10"/>
</g>
<defs>
<clipPath id="clip0_3124_16203">
<rect width="400" height="240" fill="white"/>
</clipPath>
</defs>
</svg>
