<svg width="400" height="240" viewBox="0 0 400 240" fill="none" xmlns="http://www.w3.org/2000/svg">
<g clip-path="url(#clip0_3124_17138)">
<path d="M399.9 0H-0.0999985V240H399.9V0Z" fill="#166DFC"/>
<g opacity="0.4">
<mask id="mask0_3124_17138" style="mask-type:luminance" maskUnits="userSpaceOnUse" x="0" y="-1" width="400" height="242">
<path d="M400 -0.100098H0V240.1H400V-0.100098Z" fill="white"/>
</mask>
<g mask="url(#mask0_3124_17138)">
<path d="M16.65 -150V390" stroke="#ACC5E7" stroke-width="0.3" stroke-miterlimit="10"/>
<path d="M49.95 -150V390" stroke="#ACC5E7" stroke-width="0.3" stroke-miterlimit="10"/>
<path d="M83.25 -150V390" stroke="#ACC5E7" stroke-width="0.3" stroke-miterlimit="10"/>
<path d="M116.55 -150V390" stroke="#ACC5E7" stroke-width="0.3" stroke-miterlimit="10"/>
<path d="M149.85 -150V390" stroke="#ACC5E7" stroke-width="0.3" stroke-miterlimit="10"/>
<path d="M183.15 -150V390" stroke="#ACC5E7" stroke-width="0.3" stroke-miterlimit="10"/>
<path d="M216.45 -150V390" stroke="#ACC5E7" stroke-width="0.3" stroke-miterlimit="10"/>
<path d="M249.75 -150V390" stroke="#ACC5E7" stroke-width="0.3" stroke-miterlimit="10"/>
<path d="M283.05 -150V390" stroke="#ACC5E7" stroke-width="0.3" stroke-miterlimit="10"/>
<path d="M316.35 -150V390" stroke="#ACC5E7" stroke-width="0.3" stroke-miterlimit="10"/>
<path d="M349.65 -150V390" stroke="#ACC5E7" stroke-width="0.3" stroke-miterlimit="10"/>
<path d="M382.95 -150V390" stroke="#ACC5E7" stroke-width="0.3" stroke-miterlimit="10"/>
<path d="M-249.85 210.02H649.25" stroke="#ACC5E7" stroke-width="0.3" stroke-miterlimit="10"/>
<path d="M-249.85 176.72H649.25" stroke="#ACC5E7" stroke-width="0.3" stroke-miterlimit="10"/>
<path d="M-249.85 143.42H649.25" stroke="#ACC5E7" stroke-width="0.3" stroke-miterlimit="10"/>
<path d="M-249.85 110.12H649.25" stroke="#ACC5E7" stroke-width="0.3" stroke-miterlimit="10"/>
<path d="M-249.85 76.8201H649.25" stroke="#ACC5E7" stroke-width="0.3" stroke-miterlimit="10"/>
<path d="M-249.85 43.52H649.25" stroke="#ACC5E7" stroke-width="0.3" stroke-miterlimit="10"/>
<path d="M-249.85 10.22H649.25" stroke="#ACC5E7" stroke-width="0.3" stroke-miterlimit="10"/>
</g>
<path d="M400 -0.100098H0V240.1H400V-0.100098Z" stroke="#ACC5E7" stroke-width="0.3" stroke-miterlimit="10"/>
</g>
<g opacity="0.4">
<mask id="mask1_3124_17138" style="mask-type:luminance" maskUnits="userSpaceOnUse" x="0" y="-1" width="400" height="242">
<path d="M400 -0.100098H0V240.1H400V-0.100098Z" fill="white"/>
</mask>
<g mask="url(#mask1_3124_17138)">
<path d="M16.65 -150V390" stroke="#ACC5E7" stroke-width="0.3" stroke-miterlimit="10"/>
<path d="M49.95 -150V390" stroke="#ACC5E7" stroke-width="0.3" stroke-miterlimit="10"/>
<path d="M83.25 -150V390" stroke="#ACC5E7" stroke-width="0.3" stroke-miterlimit="10"/>
<path d="M116.55 -150V390" stroke="#ACC5E7" stroke-width="0.3" stroke-miterlimit="10"/>
<path d="M149.85 -150V390" stroke="#ACC5E7" stroke-width="0.3" stroke-miterlimit="10"/>
<path d="M183.15 -150V390" stroke="#ACC5E7" stroke-width="0.3" stroke-miterlimit="10"/>
<path d="M216.45 -150V390" stroke="#ACC5E7" stroke-width="0.3" stroke-miterlimit="10"/>
<path d="M249.75 -150V390" stroke="#ACC5E7" stroke-width="0.3" stroke-miterlimit="10"/>
<path d="M283.05 -150V390" stroke="#ACC5E7" stroke-width="0.3" stroke-miterlimit="10"/>
<path d="M316.35 -150V390" stroke="#ACC5E7" stroke-width="0.3" stroke-miterlimit="10"/>
<path d="M349.65 -150V390" stroke="#ACC5E7" stroke-width="0.3" stroke-miterlimit="10"/>
<path d="M382.95 -150V390" stroke="#ACC5E7" stroke-width="0.3" stroke-miterlimit="10"/>
<path d="M-249.85 210.02H649.25" stroke="#ACC5E7" stroke-width="0.3" stroke-miterlimit="10"/>
<path d="M-249.85 176.72H649.25" stroke="#ACC5E7" stroke-width="0.3" stroke-miterlimit="10"/>
<path d="M-249.85 143.42H649.25" stroke="#ACC5E7" stroke-width="0.3" stroke-miterlimit="10"/>
<path d="M-249.85 110.12H649.25" stroke="#ACC5E7" stroke-width="0.3" stroke-miterlimit="10"/>
<path d="M-249.85 76.8201H649.25" stroke="#ACC5E7" stroke-width="0.3" stroke-miterlimit="10"/>
<path d="M-249.85 43.52H649.25" stroke="#ACC5E7" stroke-width="0.3" stroke-miterlimit="10"/>
<path d="M-249.85 10.22H649.25" stroke="#ACC5E7" stroke-width="0.3" stroke-miterlimit="10"/>
</g>
<path d="M400 -0.100098H0V240.1H400V-0.100098Z" stroke="#ACC5E7" stroke-width="0.3" stroke-miterlimit="10"/>
</g>
<mask id="mask2_3124_17138" style="mask-type:luminance" maskUnits="userSpaceOnUse" x="-1" y="0" width="401" height="240">
<path d="M399.9 0H-0.0999985V240H399.9V0Z" fill="white"/>
</mask>
<g mask="url(#mask2_3124_17138)">
<path d="M435.508 56.04H395.04C393.701 56.04 392.616 57.1253 392.616 58.464V76.804C392.616 78.1428 393.701 79.228 395.04 79.228H435.508C436.847 79.228 437.932 78.1428 437.932 76.804V58.464C437.932 57.1253 436.847 56.04 435.508 56.04Z" fill="#ACC5E7"/>
<path d="M434.316 54.7739H393.848C392.509 54.7739 391.424 55.8592 391.424 57.1979V75.5379C391.424 76.8767 392.509 77.9619 393.848 77.9619H434.316C435.655 77.9619 436.74 76.8767 436.74 75.5379V57.1979C436.74 55.8592 435.655 54.7739 434.316 54.7739Z" fill="white" stroke="#111111" stroke-width="0.4" stroke-miterlimit="10"/>
<path d="M404.684 71.9541H395.828C395.582 71.9541 395.382 72.1538 395.382 72.4001V75.1461C395.382 75.3924 395.582 75.5921 395.828 75.5921H404.684C404.93 75.5921 405.13 75.3924 405.13 75.1461V72.4001C405.13 72.1538 404.93 71.9541 404.684 71.9541Z" fill="#166DFC"/>
<path d="M404.428 71.7539H395.572C395.326 71.7539 395.126 71.9536 395.126 72.1999V74.9459C395.126 75.1922 395.326 75.3919 395.572 75.3919H404.428C404.674 75.3919 404.874 75.1922 404.874 74.9459V72.1999C404.874 71.9536 404.674 71.7539 404.428 71.7539Z" fill="#166DFC" stroke="#111111" stroke-width="0.4" stroke-miterlimit="10"/>
<path d="M433.024 57.22H396.176C395.614 57.22 395.158 57.6757 395.158 58.238V60.962C395.158 61.5242 395.614 61.98 396.176 61.98H433.024C433.586 61.98 434.042 61.5242 434.042 60.962V58.238C434.042 57.6757 433.586 57.22 433.024 57.22Z" fill="white" stroke="#111111" stroke-width="0.4" stroke-miterlimit="10"/>
<path d="M433.024 63.208H396.176C395.614 63.208 395.158 63.6638 395.158 64.226V66.95C395.158 67.5122 395.614 67.968 396.176 67.968H433.024C433.586 67.968 434.042 67.5122 434.042 66.95V64.226C434.042 63.6638 433.586 63.208 433.024 63.208Z" fill="white" stroke="#111111" stroke-width="0.4" stroke-miterlimit="10"/>
<path d="M376.908 10.564H336.44C335.101 10.564 334.016 11.6492 334.016 12.988V31.328C334.016 32.6667 335.101 33.752 336.44 33.752H376.908C378.247 33.752 379.332 32.6667 379.332 31.328V12.988C379.332 11.6492 378.247 10.564 376.908 10.564Z" fill="#ACC5E7"/>
<path d="M375.716 9.30005H335.248C333.909 9.30005 332.824 10.3853 332.824 11.724V30.0641C332.824 31.4028 333.909 32.4881 335.248 32.4881H375.716C377.055 32.4881 378.14 31.4028 378.14 30.0641V11.724C378.14 10.3853 377.055 9.30005 375.716 9.30005Z" fill="white" stroke="#111111" stroke-width="0.4" stroke-miterlimit="10"/>
<path d="M346.084 26.478H337.228C336.982 26.478 336.782 26.6777 336.782 26.924V29.67C336.782 29.9163 336.982 30.116 337.228 30.116H346.084C346.33 30.116 346.53 29.9163 346.53 29.67V26.924C346.53 26.6777 346.33 26.478 346.084 26.478Z" fill="#166DFC"/>
<path d="M345.828 26.28H336.972C336.726 26.28 336.526 26.4797 336.526 26.726V29.472C336.526 29.7183 336.726 29.918 336.972 29.918H345.828C346.074 29.918 346.274 29.7183 346.274 29.472V26.726C346.274 26.4797 346.074 26.28 345.828 26.28Z" fill="#166DFC" stroke="#111111" stroke-width="0.4" stroke-miterlimit="10"/>
<path d="M374.424 11.7439H337.576C337.014 11.7439 336.558 12.1997 336.558 12.7619V15.4859C336.558 16.0481 337.014 16.5039 337.576 16.5039H374.424C374.986 16.5039 375.442 16.0481 375.442 15.4859V12.7619C375.442 12.1997 374.986 11.7439 374.424 11.7439Z" fill="white" stroke="#111111" stroke-width="0.4" stroke-miterlimit="10"/>
<path d="M374.424 17.7319H337.576C337.014 17.7319 336.558 18.1877 336.558 18.7499V21.4739C336.558 22.0362 337.014 22.4919 337.576 22.4919H374.424C374.986 22.4919 375.442 22.0362 375.442 21.4739V18.7499C375.442 18.1877 374.986 17.7319 374.424 17.7319Z" fill="white" stroke="#111111" stroke-width="0.4" stroke-miterlimit="10"/>
<path d="M12.154 102.356H-28.578C-29.8438 102.356 -30.87 103.382 -30.87 104.648V120.818C-30.87 122.084 -29.8438 123.11 -28.578 123.11H12.154C13.4198 123.11 14.446 122.084 14.446 120.818V104.648C14.446 103.382 13.4198 102.356 12.154 102.356Z" fill="#ACC5E7"/>
<path d="M10.964 101.226H-29.768C-31.0338 101.226 -32.06 102.252 -32.06 103.518V119.688C-32.06 120.954 -31.0338 121.98 -29.768 121.98H10.964C12.2298 121.98 13.256 120.954 13.256 119.688V103.518C13.256 102.252 12.2298 101.226 10.964 101.226Z" fill="white" stroke="#111111" stroke-width="0.4" stroke-miterlimit="10"/>
<path d="M10.184 112.444H-6.236C-6.69219 112.444 -7.062 112.814 -7.062 113.27V118.364C-7.062 118.82 -6.69219 119.19 -6.236 119.19H10.184C10.6402 119.19 11.01 118.82 11.01 118.364V113.27C11.01 112.814 10.6402 112.444 10.184 112.444Z" fill="#166DFC"/>
<path d="M9.71 112.076H-6.71C-7.16618 112.076 -7.536 112.446 -7.536 112.902V117.996C-7.536 118.452 -7.16618 118.822 -6.71 118.822H9.71C10.1662 118.822 10.536 118.452 10.536 117.996V112.902C10.536 112.446 10.1662 112.076 9.71 112.076Z" fill="#166DFC" stroke="#111111" stroke-width="0.4" stroke-miterlimit="10"/>
<path d="M9.962 103.67H-27.304C-27.8684 103.67 -28.326 104.127 -28.326 104.692V107.408C-28.326 107.972 -27.8684 108.43 -27.304 108.43H9.962C10.5264 108.43 10.984 107.972 10.984 107.408V104.692C10.984 104.127 10.5264 103.67 9.962 103.67Z" fill="white" stroke="#111111" stroke-width="0.4" stroke-miterlimit="10"/>
<path d="M71.154 148.832H30.422C29.1562 148.832 28.13 149.858 28.13 151.124V167.294C28.13 168.56 29.1562 169.586 30.422 169.586H71.154C72.4198 169.586 73.446 168.56 73.446 167.294V151.124C73.446 149.858 72.4198 148.832 71.154 148.832Z" fill="#ACC5E7"/>
<path d="M69.964 147.7H29.232C27.9662 147.7 26.94 148.726 26.94 149.992V166.162C26.94 167.428 27.9662 168.454 29.232 168.454H69.964C71.2298 168.454 72.256 167.428 72.256 166.162V149.992C72.256 148.726 71.2298 147.7 69.964 147.7Z" fill="white" stroke="#111111" stroke-width="0.4" stroke-miterlimit="10"/>
<path d="M69.184 158.918H52.764C52.3078 158.918 51.938 159.288 51.938 159.744V164.838C51.938 165.294 52.3078 165.664 52.764 165.664H69.184C69.6402 165.664 70.01 165.294 70.01 164.838V159.744C70.01 159.288 69.6402 158.918 69.184 158.918Z" fill="#166DFC"/>
<path d="M68.71 158.55H52.29C51.8338 158.55 51.464 158.92 51.464 159.376V164.47C51.464 164.926 51.8338 165.296 52.29 165.296H68.71C69.1662 165.296 69.536 164.926 69.536 164.47V159.376C69.536 158.92 69.1662 158.55 68.71 158.55Z" fill="#166DFC" stroke="#111111" stroke-width="0.4" stroke-miterlimit="10"/>
<path d="M68.962 150.144H31.696C31.1316 150.144 30.674 150.602 30.674 151.166V153.882C30.674 154.446 31.1316 154.904 31.696 154.904H68.962C69.5264 154.904 69.984 154.446 69.984 153.882V151.166C69.984 150.602 69.5264 150.144 68.962 150.144Z" fill="white" stroke="#111111" stroke-width="0.4" stroke-miterlimit="10"/>
<path d="M131.354 196.032H90.622C89.3562 196.032 88.33 197.058 88.33 198.324V214.494C88.33 215.76 89.3562 216.786 90.622 216.786H131.354C132.62 216.786 133.646 215.76 133.646 214.494V198.324C133.646 197.058 132.62 196.032 131.354 196.032Z" fill="#ACC5E7"/>
<path d="M130.164 194.9H89.432C88.1662 194.9 87.14 195.926 87.14 197.192V213.362C87.14 214.628 88.1662 215.654 89.432 215.654H130.164C131.43 215.654 132.456 214.628 132.456 213.362V197.192C132.456 195.926 131.43 194.9 130.164 194.9Z" fill="white" stroke="#111111" stroke-width="0.4" stroke-miterlimit="10"/>
<path d="M129.384 206.118H112.964C112.508 206.118 112.138 206.488 112.138 206.944V212.038C112.138 212.494 112.508 212.864 112.964 212.864H129.384C129.84 212.864 130.21 212.494 130.21 212.038V206.944C130.21 206.488 129.84 206.118 129.384 206.118Z" fill="#166DFC"/>
<path d="M128.91 205.75H112.49C112.034 205.75 111.664 206.12 111.664 206.576V211.67C111.664 212.126 112.034 212.496 112.49 212.496H128.91C129.366 212.496 129.736 212.126 129.736 211.67V206.576C129.736 206.12 129.366 205.75 128.91 205.75Z" fill="#166DFC" stroke="#111111" stroke-width="0.4" stroke-miterlimit="10"/>
<path d="M129.162 197.344H91.896C91.3316 197.344 90.874 197.802 90.874 198.366V201.082C90.874 201.646 91.3316 202.104 91.896 202.104H129.162C129.726 202.104 130.184 201.646 130.184 201.082V198.366C130.184 197.802 129.726 197.344 129.162 197.344Z" fill="white" stroke="#111111" stroke-width="0.4" stroke-miterlimit="10"/>
<path d="M215.492 11.116H175.984C174.38 11.116 173.08 12.4161 173.08 14.02V41.496C173.08 43.0998 174.38 44.4 175.984 44.4H215.492C217.096 44.4 218.396 43.0998 218.396 41.496V14.02C218.396 12.4161 217.096 11.116 215.492 11.116Z" fill="#ACC5E7"/>
<path d="M214.302 9.30005H174.794C173.19 9.30005 171.89 10.6002 171.89 12.204V39.68C171.89 41.2839 173.19 42.584 174.794 42.584H214.302C215.906 42.584 217.206 41.2839 217.206 39.68V12.204C217.206 10.6002 215.906 9.30005 214.302 9.30005Z" fill="white" stroke="#111111" stroke-width="0.4" stroke-miterlimit="10"/>
<path d="M214.134 32.4099H197.714C197.258 32.4099 196.888 32.7797 196.888 33.2359V38.3299C196.888 38.7861 197.258 39.1559 197.714 39.1559H214.134C214.59 39.1559 214.96 38.7861 214.96 38.3299V33.2359C214.96 32.7797 214.59 32.4099 214.134 32.4099Z" fill="#166DFC"/>
<path d="M213.66 32.042H197.24C196.784 32.042 196.414 32.4118 196.414 32.868V37.962C196.414 38.4182 196.784 38.788 197.24 38.788H213.66C214.116 38.788 214.486 38.4182 214.486 37.962V32.868C214.486 32.4118 214.116 32.042 213.66 32.042Z" fill="#166DFC" stroke="#111111" stroke-width="0.4" stroke-miterlimit="10"/>
<path d="M213.038 12.9441H176.54C176.034 12.9441 175.624 13.3542 175.624 13.8601V15.9421C175.624 16.448 176.034 16.8581 176.54 16.8581H213.038C213.544 16.8581 213.954 16.448 213.954 15.9421V13.8601C213.954 13.3542 213.544 12.9441 213.038 12.9441Z" fill="white" stroke="#111111" stroke-width="0.4" stroke-miterlimit="10"/>
<path d="M213.038 19.7881H176.54C176.034 19.7881 175.624 20.1982 175.624 20.7041V22.7861C175.624 23.292 176.034 23.7021 176.54 23.7021H213.038C213.544 23.7021 213.954 23.292 213.954 22.7861V20.7041C213.954 20.1982 213.544 19.7881 213.038 19.7881Z" fill="white" stroke="#111111" stroke-width="0.4" stroke-miterlimit="10"/>
<path d="M213.038 25.6721H176.54C176.034 25.6721 175.624 26.0822 175.624 26.5881V28.6701C175.624 29.176 176.034 29.5861 176.54 29.5861H213.038C213.544 29.5861 213.954 29.176 213.954 28.6701V26.5881C213.954 26.0822 213.544 25.6721 213.038 25.6721Z" fill="white" stroke="#111111" stroke-width="0.4" stroke-miterlimit="10"/>
<path d="M273.892 56.5901H234.384C232.78 56.5901 231.48 57.8903 231.48 59.4941V86.9701C231.48 88.5739 232.78 89.8741 234.384 89.8741H273.892C275.496 89.8741 276.796 88.5739 276.796 86.9701V59.4941C276.796 57.8903 275.496 56.5901 273.892 56.5901Z" fill="#ACC5E7"/>
<path d="M272.702 54.7739H233.194C231.59 54.7739 230.29 56.0741 230.29 57.6779V85.1539C230.29 86.7578 231.59 88.0579 233.194 88.0579H272.702C274.306 88.0579 275.606 86.7578 275.606 85.1539V57.6779C275.606 56.0741 274.306 54.7739 272.702 54.7739Z" fill="white" stroke="#111111" stroke-width="0.4" stroke-miterlimit="10"/>
<path d="M272.534 77.884H256.114C255.658 77.884 255.288 78.2538 255.288 78.71V83.804C255.288 84.2602 255.658 84.63 256.114 84.63H272.534C272.99 84.63 273.36 84.2602 273.36 83.804V78.71C273.36 78.2538 272.99 77.884 272.534 77.884Z" fill="#166DFC"/>
<path d="M272.06 77.5161H255.64C255.184 77.5161 254.814 77.8859 254.814 78.3421V83.4361C254.814 83.8923 255.184 84.2621 255.64 84.2621H272.06C272.516 84.2621 272.886 83.8923 272.886 83.4361V78.3421C272.886 77.8859 272.516 77.5161 272.06 77.5161Z" fill="#166DFC" stroke="#111111" stroke-width="0.4" stroke-miterlimit="10"/>
<path d="M271.438 58.4199H234.94C234.434 58.4199 234.024 58.83 234.024 59.3359V61.4179C234.024 61.9238 234.434 62.3339 234.94 62.3339H271.438C271.944 62.3339 272.354 61.9238 272.354 61.4179V59.3359C272.354 58.83 271.944 58.4199 271.438 58.4199Z" fill="white" stroke="#111111" stroke-width="0.4" stroke-miterlimit="10"/>
<path d="M271.438 65.262H234.94C234.434 65.262 234.024 65.6721 234.024 66.178V68.26C234.024 68.7659 234.434 69.176 234.94 69.176H271.438C271.944 69.176 272.354 68.7659 272.354 68.26V66.178C272.354 65.6721 271.944 65.262 271.438 65.262Z" fill="white" stroke="#111111" stroke-width="0.4" stroke-miterlimit="10"/>
<path d="M271.438 71.146H234.94C234.434 71.146 234.024 71.5561 234.024 72.062V74.144C234.024 74.6499 234.434 75.06 234.94 75.06H271.438C271.944 75.06 272.354 74.6499 272.354 74.144V72.062C272.354 71.5561 271.944 71.146 271.438 71.146Z" fill="white" stroke="#111111" stroke-width="0.4" stroke-miterlimit="10"/>
<path d="M331.492 103.116H291.984C290.38 103.116 289.08 104.416 289.08 106.02V133.496C289.08 135.1 290.38 136.4 291.984 136.4H331.492C333.096 136.4 334.396 135.1 334.396 133.496V106.02C334.396 104.416 333.096 103.116 331.492 103.116Z" fill="#ACC5E7"/>
<path d="M330.302 101.3H290.794C289.19 101.3 287.89 102.6 287.89 104.204V131.68C287.89 133.284 289.19 134.584 290.794 134.584H330.302C331.906 134.584 333.206 133.284 333.206 131.68V104.204C333.206 102.6 331.906 101.3 330.302 101.3Z" fill="white" stroke="#111111" stroke-width="0.4" stroke-miterlimit="10"/>
<path d="M330.134 124.41H313.714C313.258 124.41 312.888 124.78 312.888 125.236V130.33C312.888 130.786 313.258 131.156 313.714 131.156H330.134C330.59 131.156 330.96 130.786 330.96 130.33V125.236C330.96 124.78 330.59 124.41 330.134 124.41Z" fill="#166DFC"/>
<path d="M329.66 124.042H313.24C312.784 124.042 312.414 124.412 312.414 124.868V129.962C312.414 130.418 312.784 130.788 313.24 130.788H329.66C330.116 130.788 330.486 130.418 330.486 129.962V124.868C330.486 124.412 330.116 124.042 329.66 124.042Z" fill="#166DFC" stroke="#111111" stroke-width="0.4" stroke-miterlimit="10"/>
<path d="M329.038 104.944H292.54C292.034 104.944 291.624 105.354 291.624 105.86V107.942C291.624 108.448 292.034 108.858 292.54 108.858H329.038C329.544 108.858 329.954 108.448 329.954 107.942V105.86C329.954 105.354 329.544 104.944 329.038 104.944Z" fill="white" stroke="#111111" stroke-width="0.4" stroke-miterlimit="10"/>
<path d="M329.038 111.788H292.54C292.034 111.788 291.624 112.198 291.624 112.704V114.786C291.624 115.292 292.034 115.702 292.54 115.702H329.038C329.544 115.702 329.954 115.292 329.954 114.786V112.704C329.954 112.198 329.544 111.788 329.038 111.788Z" fill="white" stroke="#111111" stroke-width="0.4" stroke-miterlimit="10"/>
<path d="M329.038 117.672H292.54C292.034 117.672 291.624 118.082 291.624 118.588V120.67C291.624 121.176 292.034 121.586 292.54 121.586H329.038C329.544 121.586 329.954 121.176 329.954 120.67V118.588C329.954 118.082 329.544 117.672 329.038 117.672Z" fill="white" stroke="#111111" stroke-width="0.4" stroke-miterlimit="10"/>
<path d="M389.492 149.59H349.984C348.38 149.59 347.08 150.89 347.08 152.494V179.97C347.08 181.574 348.38 182.874 349.984 182.874H389.492C391.096 182.874 392.396 181.574 392.396 179.97V152.494C392.396 150.89 391.096 149.59 389.492 149.59Z" fill="#ACC5E7"/>
<path d="M388.302 147.774H348.794C347.19 147.774 345.89 149.074 345.89 150.678V178.154C345.89 179.758 347.19 181.058 348.794 181.058H388.302C389.906 181.058 391.206 179.758 391.206 178.154V150.678C391.206 149.074 389.906 147.774 388.302 147.774Z" fill="white" stroke="#111111" stroke-width="0.4" stroke-miterlimit="10"/>
<path d="M388.134 170.884H371.714C371.258 170.884 370.888 171.254 370.888 171.71V176.804C370.888 177.26 371.258 177.63 371.714 177.63H388.134C388.59 177.63 388.96 177.26 388.96 176.804V171.71C388.96 171.254 388.59 170.884 388.134 170.884Z" fill="#166DFC"/>
<path d="M387.66 170.516H371.24C370.784 170.516 370.414 170.886 370.414 171.342V176.436C370.414 176.892 370.784 177.262 371.24 177.262H387.66C388.116 177.262 388.486 176.892 388.486 176.436V171.342C388.486 170.886 388.116 170.516 387.66 170.516Z" fill="#166DFC" stroke="#111111" stroke-width="0.4" stroke-miterlimit="10"/>
<path d="M387.038 151.42H350.54C350.034 151.42 349.624 151.83 349.624 152.336V154.418C349.624 154.924 350.034 155.334 350.54 155.334H387.038C387.544 155.334 387.954 154.924 387.954 154.418V152.336C387.954 151.83 387.544 151.42 387.038 151.42Z" fill="white" stroke="#111111" stroke-width="0.4" stroke-miterlimit="10"/>
<path d="M387.038 158.262H350.54C350.034 158.262 349.624 158.672 349.624 159.178V161.26C349.624 161.766 350.034 162.176 350.54 162.176H387.038C387.544 162.176 387.954 161.766 387.954 161.26V159.178C387.954 158.672 387.544 158.262 387.038 158.262Z" fill="white" stroke="#111111" stroke-width="0.4" stroke-miterlimit="10"/>
<path d="M387.038 164.146H350.54C350.034 164.146 349.624 164.556 349.624 165.062V167.144C349.624 167.65 350.034 168.06 350.54 168.06H387.038C387.544 168.06 387.954 167.65 387.954 167.144V165.062C387.954 164.556 387.544 164.146 387.038 164.146Z" fill="white" stroke="#111111" stroke-width="0.4" stroke-miterlimit="10"/>
<path d="M54.446 10.1201H14.738C13.1286 10.1201 11.824 11.4248 11.824 13.0341V40.5621C11.824 42.1715 13.1286 43.4761 14.738 43.4761H54.446C56.0554 43.4761 57.36 42.1715 57.36 40.5621V13.0341C57.36 11.4248 56.0554 10.1201 54.446 10.1201Z" fill="#ACC5E7"/>
<path d="M53.25 8.30005H13.542C11.9326 8.30005 10.628 9.60469 10.628 11.214V38.742C10.628 40.3514 11.9326 41.656 13.542 41.656H53.25C54.8594 41.656 56.164 40.3514 56.164 38.742V11.214C56.164 9.60469 54.8594 8.30005 53.25 8.30005Z" fill="white" stroke="#111111" stroke-width="0.4" stroke-miterlimit="10"/>
<path d="M53.044 32.22H36.612C36.1348 32.22 35.748 32.6068 35.748 33.084V38.722C35.748 39.1991 36.1348 39.586 36.612 39.586H53.044C53.5212 39.586 53.908 39.1991 53.908 38.722V33.084C53.908 32.6068 53.5212 32.22 53.044 32.22Z" fill="#166DFC"/>
<path d="M52.566 31.8181H36.134C35.6568 31.8181 35.27 32.2049 35.27 32.6821V38.3201C35.27 38.7973 35.6568 39.1841 36.134 39.1841H52.566C53.0432 39.1841 53.43 38.7973 53.43 38.3201V32.6821C53.43 32.2049 53.0432 31.8181 52.566 31.8181Z" fill="#166DFC" stroke="#111111" stroke-width="0.4" stroke-miterlimit="10"/>
<path d="M32.178 32.22H15.746C15.2688 32.22 14.882 32.6068 14.882 33.084V38.722C14.882 39.1991 15.2688 39.586 15.746 39.586H32.178C32.6552 39.586 33.042 39.1991 33.042 38.722V33.084C33.042 32.6068 32.6552 32.22 32.178 32.22Z" fill="#166DFC"/>
<path d="M31.7 31.8181H15.268C14.7908 31.8181 14.404 32.2049 14.404 32.6821V38.3201C14.404 38.7973 14.7908 39.1841 15.268 39.1841H31.7C32.1772 39.1841 32.564 38.7973 32.564 38.3201V32.6821C32.564 32.2049 32.1772 31.8181 31.7 31.8181Z" fill="white" stroke="#111111" stroke-width="0.4" stroke-miterlimit="10"/>
<path d="M50.912 10.97H16.364C15.2683 10.97 14.38 11.8582 14.38 12.954V27.274C14.38 28.3697 15.2683 29.258 16.364 29.258H50.912C52.0077 29.258 52.896 28.3697 52.896 27.274V12.954C52.896 11.8582 52.0077 10.97 50.912 10.97Z" fill="white" stroke="#111111" stroke-width="0.4" stroke-miterlimit="10"/>
<path d="M113.162 56.52H73.454C71.8446 56.52 70.54 57.8247 70.54 59.434V86.962C70.54 88.5714 71.8446 89.876 73.454 89.876H113.162C114.771 89.876 116.076 88.5714 116.076 86.962V59.434C116.076 57.8247 114.771 56.52 113.162 56.52Z" fill="#ACC5E7"/>
<path d="M111.966 54.7H72.258C70.6487 54.7 69.344 56.0046 69.344 57.614V85.1419C69.344 86.7513 70.6487 88.056 72.258 88.056H111.966C113.575 88.056 114.88 86.7513 114.88 85.1419V57.614C114.88 56.0046 113.575 54.7 111.966 54.7Z" fill="white" stroke="#111111" stroke-width="0.4" stroke-miterlimit="10"/>
<path d="M111.76 78.6201H95.328C94.8508 78.6201 94.464 79.0069 94.464 79.4841V85.1221C94.464 85.5993 94.8508 85.9861 95.328 85.9861H111.76C112.237 85.9861 112.624 85.5993 112.624 85.1221V79.4841C112.624 79.0069 112.237 78.6201 111.76 78.6201Z" fill="#166DFC"/>
<path d="M111.282 78.218H94.85C94.3728 78.218 93.986 78.6048 93.986 79.082V84.72C93.986 85.1972 94.3728 85.584 94.85 85.584H111.282C111.759 85.584 112.146 85.1972 112.146 84.72V79.082C112.146 78.6048 111.759 78.218 111.282 78.218Z" fill="#166DFC" stroke="#111111" stroke-width="0.4" stroke-miterlimit="10"/>
<path d="M90.894 78.6201H74.462C73.9848 78.6201 73.598 79.0069 73.598 79.4841V85.1221C73.598 85.5993 73.9848 85.9861 74.462 85.9861H90.894C91.3712 85.9861 91.758 85.5993 91.758 85.1221V79.4841C91.758 79.0069 91.3712 78.6201 90.894 78.6201Z" fill="#166DFC"/>
<path d="M90.418 78.218H73.986C73.5088 78.218 73.122 78.6048 73.122 79.082V84.72C73.122 85.1972 73.5088 85.584 73.986 85.584H90.418C90.8952 85.584 91.282 85.1972 91.282 84.72V79.082C91.282 78.6048 90.8952 78.218 90.418 78.218Z" fill="white" stroke="#111111" stroke-width="0.4" stroke-miterlimit="10"/>
<path d="M109.628 57.3701H75.08C73.9843 57.3701 73.096 58.2584 73.096 59.3541V73.6741C73.096 74.7698 73.9843 75.6581 75.08 75.6581H109.628C110.724 75.6581 111.612 74.7698 111.612 73.6741V59.3541C111.612 58.2584 110.724 57.3701 109.628 57.3701Z" fill="white" stroke="#111111" stroke-width="0.4" stroke-miterlimit="10"/>
<path d="M171.878 103.044H132.17C130.561 103.044 129.256 104.349 129.256 105.958V133.486C129.256 135.095 130.561 136.4 132.17 136.4H171.878C173.487 136.4 174.792 135.095 174.792 133.486V105.958C174.792 104.349 173.487 103.044 171.878 103.044Z" fill="#ACC5E7"/>
<path d="M170.682 101.226H130.974C129.365 101.226 128.06 102.531 128.06 104.14V131.668C128.06 133.277 129.365 134.582 130.974 134.582H170.682C172.291 134.582 173.596 133.277 173.596 131.668V104.14C173.596 102.531 172.291 101.226 170.682 101.226Z" fill="white" stroke="#111111" stroke-width="0.4" stroke-miterlimit="10"/>
<path d="M170.476 125.146H154.044C153.567 125.146 153.18 125.533 153.18 126.01V131.648C153.18 132.125 153.567 132.512 154.044 132.512H170.476C170.953 132.512 171.34 132.125 171.34 131.648V126.01C171.34 125.533 170.953 125.146 170.476 125.146Z" fill="#166DFC"/>
<path d="M169.998 124.744H153.566C153.089 124.744 152.702 125.131 152.702 125.608V131.246C152.702 131.723 153.089 132.11 153.566 132.11H169.998C170.475 132.11 170.862 131.723 170.862 131.246V125.608C170.862 125.131 170.475 124.744 169.998 124.744Z" fill="#166DFC" stroke="#111111" stroke-width="0.4" stroke-miterlimit="10"/>
<path d="M149.61 125.146H133.178C132.701 125.146 132.314 125.533 132.314 126.01V131.648C132.314 132.125 132.701 132.512 133.178 132.512H149.61C150.087 132.512 150.474 132.125 150.474 131.648V126.01C150.474 125.533 150.087 125.146 149.61 125.146Z" fill="#166DFC"/>
<path d="M149.134 124.744H132.702C132.225 124.744 131.838 125.131 131.838 125.608V131.246C131.838 131.723 132.225 132.11 132.702 132.11H149.134C149.611 132.11 149.998 131.723 149.998 131.246V125.608C149.998 125.131 149.611 124.744 149.134 124.744Z" fill="white" stroke="#111111" stroke-width="0.4" stroke-miterlimit="10"/>
<path d="M168.344 103.894H133.796C132.7 103.894 131.812 104.782 131.812 105.878V120.198C131.812 121.294 132.7 122.182 133.796 122.182H168.344C169.44 122.182 170.328 121.294 170.328 120.198V105.878C170.328 104.782 169.44 103.894 168.344 103.894Z" fill="white" stroke="#111111" stroke-width="0.4" stroke-miterlimit="10"/>
<path d="M230.596 149.52H190.888C189.279 149.52 187.974 150.825 187.974 152.434V179.962C187.974 181.571 189.279 182.876 190.888 182.876H230.596C232.205 182.876 233.51 181.571 233.51 179.962V152.434C233.51 150.825 232.205 149.52 230.596 149.52Z" fill="#ACC5E7"/>
<path d="M229.398 147.7H189.69C188.081 147.7 186.776 149.005 186.776 150.614V178.142C186.776 179.751 188.081 181.056 189.69 181.056H229.398C231.007 181.056 232.312 179.751 232.312 178.142V150.614C232.312 149.005 231.007 147.7 229.398 147.7Z" fill="white" stroke="#111111" stroke-width="0.4" stroke-miterlimit="10"/>
<path d="M229.192 171.62H212.76C212.283 171.62 211.896 172.007 211.896 172.484V178.122C211.896 178.599 212.283 178.986 212.76 178.986H229.192C229.669 178.986 230.056 178.599 230.056 178.122V172.484C230.056 172.007 229.669 171.62 229.192 171.62Z" fill="#166DFC"/>
<path d="M228.716 171.218H212.284C211.807 171.218 211.42 171.605 211.42 172.082V177.72C211.42 178.197 211.807 178.584 212.284 178.584H228.716C229.193 178.584 229.58 178.197 229.58 177.72V172.082C229.58 171.605 229.193 171.218 228.716 171.218Z" fill="#166DFC" stroke="#111111" stroke-width="0.4" stroke-miterlimit="10"/>
<path d="M208.326 171.62H191.894C191.417 171.62 191.03 172.007 191.03 172.484V178.122C191.03 178.599 191.417 178.986 191.894 178.986H208.326C208.803 178.986 209.19 178.599 209.19 178.122V172.484C209.19 172.007 208.803 171.62 208.326 171.62Z" fill="#166DFC"/>
<path d="M207.85 171.218H191.418C190.941 171.218 190.554 171.605 190.554 172.082V177.72C190.554 178.197 190.941 178.584 191.418 178.584H207.85C208.327 178.584 208.714 178.197 208.714 177.72V172.082C208.714 171.605 208.327 171.218 207.85 171.218Z" fill="white" stroke="#111111" stroke-width="0.4" stroke-miterlimit="10"/>
<path d="M227.06 150.37H192.512C191.416 150.37 190.528 151.258 190.528 152.354V166.674C190.528 167.77 191.416 168.658 192.512 168.658H227.06C228.156 168.658 229.044 167.77 229.044 166.674V152.354C229.044 151.258 228.156 150.37 227.06 150.37Z" fill="white" stroke="#111111" stroke-width="0.4" stroke-miterlimit="10"/>
<path d="M287.996 196.72H248.288C246.679 196.72 245.374 198.025 245.374 199.634V227.162C245.374 228.771 246.679 230.076 248.288 230.076H287.996C289.605 230.076 290.91 228.771 290.91 227.162V199.634C290.91 198.025 289.605 196.72 287.996 196.72Z" fill="#ACC5E7"/>
<path d="M286.798 194.9H247.09C245.481 194.9 244.176 196.205 244.176 197.814V225.342C244.176 226.951 245.481 228.256 247.09 228.256H286.798C288.407 228.256 289.712 226.951 289.712 225.342V197.814C289.712 196.205 288.407 194.9 286.798 194.9Z" fill="white" stroke="#111111" stroke-width="0.4" stroke-miterlimit="10"/>
<path d="M286.592 218.82H270.16C269.683 218.82 269.296 219.207 269.296 219.684V225.322C269.296 225.799 269.683 226.186 270.16 226.186H286.592C287.069 226.186 287.456 225.799 287.456 225.322V219.684C287.456 219.207 287.069 218.82 286.592 218.82Z" fill="#166DFC"/>
<path d="M286.116 218.418H269.684C269.207 218.418 268.82 218.805 268.82 219.282V224.92C268.82 225.397 269.207 225.784 269.684 225.784H286.116C286.593 225.784 286.98 225.397 286.98 224.92V219.282C286.98 218.805 286.593 218.418 286.116 218.418Z" fill="#166DFC" stroke="#111111" stroke-width="0.4" stroke-miterlimit="10"/>
<path d="M265.726 218.82H249.294C248.817 218.82 248.43 219.207 248.43 219.684V225.322C248.43 225.799 248.817 226.186 249.294 226.186H265.726C266.203 226.186 266.59 225.799 266.59 225.322V219.684C266.59 219.207 266.203 218.82 265.726 218.82Z" fill="#166DFC"/>
<path d="M265.25 218.418H248.818C248.341 218.418 247.954 218.805 247.954 219.282V224.92C247.954 225.397 248.341 225.784 248.818 225.784H265.25C265.727 225.784 266.114 225.397 266.114 224.92V219.282C266.114 218.805 265.727 218.418 265.25 218.418Z" fill="white" stroke="#111111" stroke-width="0.4" stroke-miterlimit="10"/>
<path d="M284.46 197.57H249.912C248.816 197.57 247.928 198.458 247.928 199.554V213.874C247.928 214.97 248.816 215.858 249.912 215.858H284.46C285.556 215.858 286.444 214.97 286.444 213.874V199.554C286.444 198.458 285.556 197.57 284.46 197.57Z" fill="white" stroke="#111111" stroke-width="0.4" stroke-miterlimit="10"/>
</g>
</g>
<defs>
<clipPath id="clip0_3124_17138">
<rect width="400" height="240" fill="white"/>
</clipPath>
</defs>
</svg>
