<svg width="400" height="240" viewBox="0 0 400 240" fill="none" xmlns="http://www.w3.org/2000/svg">
<g clip-path="url(#clip0_3124_16826)">
<path d="M399.9 0H-0.0999985V240H399.9V0Z" fill="white"/>
<g opacity="0.4">
<mask id="mask0_3124_16826" style="mask-type:luminance" maskUnits="userSpaceOnUse" x="0" y="-1" width="400" height="242">
<path d="M400 -0.100098H0V240.1H400V-0.100098Z" fill="white"/>
</mask>
<g mask="url(#mask0_3124_16826)">
<path d="M16.65 -150V390" stroke="#ACC5E7" stroke-width="0.3" stroke-miterlimit="10"/>
<path d="M49.95 -150V390" stroke="#ACC5E7" stroke-width="0.3" stroke-miterlimit="10"/>
<path d="M83.25 -150V390" stroke="#ACC5E7" stroke-width="0.3" stroke-miterlimit="10"/>
<path d="M116.55 -150V390" stroke="#ACC5E7" stroke-width="0.3" stroke-miterlimit="10"/>
<path d="M149.85 -150V390" stroke="#ACC5E7" stroke-width="0.3" stroke-miterlimit="10"/>
<path d="M183.15 -150V390" stroke="#ACC5E7" stroke-width="0.3" stroke-miterlimit="10"/>
<path d="M216.45 -150V390" stroke="#ACC5E7" stroke-width="0.3" stroke-miterlimit="10"/>
<path d="M249.75 -150V390" stroke="#ACC5E7" stroke-width="0.3" stroke-miterlimit="10"/>
<path d="M283.05 -150V390" stroke="#ACC5E7" stroke-width="0.3" stroke-miterlimit="10"/>
<path d="M316.35 -150V390" stroke="#ACC5E7" stroke-width="0.3" stroke-miterlimit="10"/>
<path d="M349.65 -150V390" stroke="#ACC5E7" stroke-width="0.3" stroke-miterlimit="10"/>
<path d="M382.95 -150V390" stroke="#ACC5E7" stroke-width="0.3" stroke-miterlimit="10"/>
<path d="M-249.85 210.02H649.25" stroke="#ACC5E7" stroke-width="0.3" stroke-miterlimit="10"/>
<path d="M-249.85 176.72H649.25" stroke="#ACC5E7" stroke-width="0.3" stroke-miterlimit="10"/>
<path d="M-249.85 143.42H649.25" stroke="#ACC5E7" stroke-width="0.3" stroke-miterlimit="10"/>
<path d="M-249.85 110.12H649.25" stroke="#ACC5E7" stroke-width="0.3" stroke-miterlimit="10"/>
<path d="M-249.85 76.8201H649.25" stroke="#ACC5E7" stroke-width="0.3" stroke-miterlimit="10"/>
<path d="M-249.85 43.52H649.25" stroke="#ACC5E7" stroke-width="0.3" stroke-miterlimit="10"/>
<path d="M-249.85 10.22H649.25" stroke="#ACC5E7" stroke-width="0.3" stroke-miterlimit="10"/>
</g>
<path d="M400 -0.100098H0V240.1H400V-0.100098Z" stroke="#ACC5E7" stroke-width="0.3" stroke-miterlimit="10"/>
</g>
<g opacity="0.4">
<mask id="mask1_3124_16826" style="mask-type:luminance" maskUnits="userSpaceOnUse" x="0" y="-1" width="400" height="242">
<path d="M400 -0.100098H0V240.1H400V-0.100098Z" fill="white"/>
</mask>
<g mask="url(#mask1_3124_16826)">
<path d="M16.65 -150V390" stroke="#ACC5E7" stroke-width="0.3" stroke-miterlimit="10"/>
<path d="M49.95 -150V390" stroke="#ACC5E7" stroke-width="0.3" stroke-miterlimit="10"/>
<path d="M83.25 -150V390" stroke="#ACC5E7" stroke-width="0.3" stroke-miterlimit="10"/>
<path d="M116.55 -150V390" stroke="#ACC5E7" stroke-width="0.3" stroke-miterlimit="10"/>
<path d="M149.85 -150V390" stroke="#ACC5E7" stroke-width="0.3" stroke-miterlimit="10"/>
<path d="M183.15 -150V390" stroke="#ACC5E7" stroke-width="0.3" stroke-miterlimit="10"/>
<path d="M216.45 -150V390" stroke="#ACC5E7" stroke-width="0.3" stroke-miterlimit="10"/>
<path d="M249.75 -150V390" stroke="#ACC5E7" stroke-width="0.3" stroke-miterlimit="10"/>
<path d="M283.05 -150V390" stroke="#ACC5E7" stroke-width="0.3" stroke-miterlimit="10"/>
<path d="M316.35 -150V390" stroke="#ACC5E7" stroke-width="0.3" stroke-miterlimit="10"/>
<path d="M349.65 -150V390" stroke="#ACC5E7" stroke-width="0.3" stroke-miterlimit="10"/>
<path d="M382.95 -150V390" stroke="#ACC5E7" stroke-width="0.3" stroke-miterlimit="10"/>
<path d="M-249.85 210.02H649.25" stroke="#ACC5E7" stroke-width="0.3" stroke-miterlimit="10"/>
<path d="M-249.85 176.72H649.25" stroke="#ACC5E7" stroke-width="0.3" stroke-miterlimit="10"/>
<path d="M-249.85 143.42H649.25" stroke="#ACC5E7" stroke-width="0.3" stroke-miterlimit="10"/>
<path d="M-249.85 110.12H649.25" stroke="#ACC5E7" stroke-width="0.3" stroke-miterlimit="10"/>
<path d="M-249.85 76.8201H649.25" stroke="#ACC5E7" stroke-width="0.3" stroke-miterlimit="10"/>
<path d="M-249.85 43.52H649.25" stroke="#ACC5E7" stroke-width="0.3" stroke-miterlimit="10"/>
<path d="M-249.85 10.22H649.25" stroke="#ACC5E7" stroke-width="0.3" stroke-miterlimit="10"/>
</g>
<path d="M400 -0.100098H0V240.1H400V-0.100098Z" stroke="#ACC5E7" stroke-width="0.3" stroke-miterlimit="10"/>
</g>
<path d="M331.324 61.7339H154.788C151.795 61.7339 149.368 64.1605 149.368 67.1539V169.68C149.368 172.673 151.795 175.1 154.788 175.1H331.324C334.317 175.1 336.744 172.673 336.744 169.68V67.1539C336.744 64.1605 334.317 61.7339 331.324 61.7339Z" fill="#ACC5E7"/>
<path d="M327.28 58.7H150.744C147.751 58.7 145.324 61.1266 145.324 64.12V166.646C145.324 169.639 147.751 172.066 150.744 172.066H327.28C330.273 172.066 332.7 169.639 332.7 166.646V64.12C332.7 61.1266 330.273 58.7 327.28 58.7Z" fill="#E7F0FE" stroke="#111111" stroke-width="0.4" stroke-miterlimit="10"/>
<path d="M191.87 124.016H156.09C154.737 124.016 153.64 125.113 153.64 126.466V147.978C153.64 149.331 154.737 150.428 156.09 150.428H191.87C193.223 150.428 194.32 149.331 194.32 147.978V126.466C194.32 125.113 193.223 124.016 191.87 124.016Z" fill="white" stroke="#111111" stroke-width="0.4" stroke-miterlimit="10"/>
<path d="M235.29 124.016H199.51C198.157 124.016 197.06 125.113 197.06 126.466V147.978C197.06 149.331 198.157 150.428 199.51 150.428H235.29C236.643 150.428 237.74 149.331 237.74 147.978V126.466C237.74 125.113 236.643 124.016 235.29 124.016Z" fill="white" stroke="#111111" stroke-width="0.4" stroke-miterlimit="10"/>
<path d="M279.316 124.016H243.536C242.183 124.016 241.086 125.113 241.086 126.466V147.978C241.086 149.331 242.183 150.428 243.536 150.428H279.316C280.669 150.428 281.766 149.331 281.766 147.978V126.466C281.766 125.113 280.669 124.016 279.316 124.016Z" fill="white" stroke="#111111" stroke-width="0.4" stroke-miterlimit="10"/>
<path d="M157.236 153.75H321.496C323.532 153.75 325.186 155.404 325.186 157.44V167.94H153.546V157.44C153.546 155.404 155.2 153.75 157.236 153.75Z" fill="white" stroke="#111111" stroke-width="0.4" stroke-miterlimit="10"/>
<path d="M322.734 124.016H286.954C285.601 124.016 284.504 125.113 284.504 126.466V147.978C284.504 149.331 285.601 150.428 286.954 150.428H322.734C324.087 150.428 325.184 149.331 325.184 147.978V126.466C325.184 125.113 324.087 124.016 322.734 124.016Z" fill="white" stroke="#111111" stroke-width="0.4" stroke-miterlimit="10"/>
<path d="M318.424 66.8999H160.398C156.438 66.8999 153.228 70.11 153.228 74.0699V113.1C153.228 117.06 156.438 120.27 160.398 120.27H318.424C322.384 120.27 325.594 117.06 325.594 113.1V74.0699C325.594 70.11 322.384 66.8999 318.424 66.8999Z" fill="#166DFC" stroke="#111111" stroke-width="0.4" stroke-miterlimit="10"/>
<path d="M262.21 74.3H223.41V113.1H262.21V74.3Z" fill="white" stroke="#111111" stroke-width="0.4" stroke-miterlimit="10"/>
<path d="M216.61 74.1001V93.9001H240.172L216.61 74.1001Z" fill="#ACC5E7" stroke="#111111" stroke-width="0.4" stroke-miterlimit="10"/>
<path d="M251.51 110.3C256.204 110.3 260.01 106.494 260.01 101.8C260.01 97.1056 256.204 93.3 251.51 93.3C246.816 93.3 243.01 97.1056 243.01 101.8C243.01 106.494 246.816 110.3 251.51 110.3Z" fill="#ACC5E7" stroke="#111111" stroke-width="0.4" stroke-miterlimit="10"/>
<path d="M154.882 92.1799H89.736C88.1266 92.1799 86.822 93.4846 86.822 95.0939V175.786C86.822 177.395 88.1266 178.7 89.736 178.7H154.882C156.491 178.7 157.796 177.395 157.796 175.786V95.0939C157.796 93.4846 156.491 92.1799 154.882 92.1799Z" fill="#ACC5E7"/>
<path d="M153.552 90.0581H88.406C86.7966 90.0581 85.492 91.3627 85.492 92.9721V173.664C85.492 175.273 86.7966 176.578 88.406 176.578H153.552C155.161 176.578 156.466 175.273 156.466 173.664V92.9721C156.466 91.3627 155.161 90.0581 153.552 90.0581Z" fill="#E7F0FE" stroke="#111111" stroke-width="0.4" stroke-miterlimit="10"/>
<path d="M104.632 130.234H92.692C92.1706 130.234 91.748 130.657 91.748 131.178V140.804C91.748 141.325 92.1706 141.748 92.692 141.748H104.632C105.153 141.748 105.576 141.325 105.576 140.804V131.178C105.576 130.657 105.153 130.234 104.632 130.234Z" fill="white" stroke="#111111" stroke-width="0.4" stroke-miterlimit="10"/>
<path d="M119.392 130.234H107.452C106.931 130.234 106.508 130.657 106.508 131.178V140.804C106.508 141.325 106.931 141.748 107.452 141.748H119.392C119.913 141.748 120.336 141.325 120.336 140.804V131.178C120.336 130.657 119.913 130.234 119.392 130.234Z" fill="white" stroke="#111111" stroke-width="0.4" stroke-miterlimit="10"/>
<path d="M134.358 130.234H122.418C121.897 130.234 121.474 130.657 121.474 131.178V140.804C121.474 141.325 121.897 141.748 122.418 141.748H134.358C134.879 141.748 135.302 141.325 135.302 140.804V131.178C135.302 130.657 134.879 130.234 134.358 130.234Z" fill="white" stroke="#111111" stroke-width="0.4" stroke-miterlimit="10"/>
<path d="M147.222 143.414H94.742C93.0885 143.414 91.748 144.755 91.748 146.408V167.846C91.748 169.5 93.0885 170.84 94.742 170.84H147.222C148.876 170.84 150.216 169.5 150.216 167.846V146.408C150.216 144.755 148.876 143.414 147.222 143.414Z" fill="white" stroke="#111111" stroke-width="0.4" stroke-miterlimit="10"/>
<path d="M149.118 130.234H137.178C136.657 130.234 136.234 130.657 136.234 131.178V140.804C136.234 141.325 136.657 141.748 137.178 141.748H149.118C149.639 141.748 150.062 141.325 150.062 140.804V131.178C150.062 130.657 149.639 130.234 149.118 130.234Z" fill="white" stroke="#111111" stroke-width="0.4" stroke-miterlimit="10"/>
<path d="M146.912 95.7959H95.034C93.217 95.7959 91.744 97.2689 91.744 99.0859V125.636C91.744 127.453 93.217 128.926 95.034 128.926H146.912C148.729 128.926 150.202 127.453 150.202 125.636V99.0859C150.202 97.2689 148.729 95.7959 146.912 95.7959Z" fill="#166DFC" stroke="#111111" stroke-width="0.4" stroke-miterlimit="10"/>
<path d="M131.028 102.424H111.152V122.3H131.028V102.424Z" fill="white" stroke="#111111" stroke-width="0.4" stroke-miterlimit="10"/>
<path d="M107.668 102.322V112.464H119.738L107.668 102.322Z" fill="#ACC5E7" stroke="#111111" stroke-width="0.4" stroke-miterlimit="10"/>
<path d="M125.546 120.866C127.951 120.866 129.9 118.917 129.9 116.512C129.9 114.107 127.951 112.158 125.546 112.158C123.141 112.158 121.192 114.107 121.192 116.512C121.192 118.917 123.141 120.866 125.546 120.866Z" fill="#ACC5E7" stroke="#111111" stroke-width="0.4" stroke-miterlimit="10"/>
<path d="M97.89 121.116H66.356C65.4138 121.116 64.65 121.88 64.65 122.822V179.594C64.65 180.536 65.4138 181.3 66.356 181.3H97.89C98.8322 181.3 99.596 180.536 99.596 179.594V122.822C99.596 121.88 98.8322 121.116 97.89 121.116Z" fill="#ACC5E7"/>
<path d="M96.496 119.662H64.962C64.0198 119.662 63.256 120.426 63.256 121.368V178.14C63.256 179.082 64.0198 179.846 64.962 179.846H96.496C97.4382 179.846 98.202 179.082 98.202 178.14V121.368C98.202 120.426 97.4382 119.662 96.496 119.662Z" fill="#E7F0FE" stroke="#111111" stroke-width="0.4" stroke-miterlimit="10"/>
<path d="M79.208 140.548H67.902C67.4083 140.548 67.008 140.948 67.008 141.442V150.556C67.008 151.05 67.4083 151.45 67.902 151.45H79.208C79.7017 151.45 80.102 151.05 80.102 150.556V141.442C80.102 140.948 79.7017 140.548 79.208 140.548Z" fill="white" stroke="#111111" stroke-width="0.4" stroke-miterlimit="10"/>
<path d="M93.184 140.548H81.878C81.3843 140.548 80.984 140.948 80.984 141.442V150.556C80.984 151.05 81.3843 151.45 81.878 151.45H93.184C93.6778 151.45 94.078 151.05 94.078 150.556V141.442C94.078 140.948 93.6778 140.548 93.184 140.548Z" fill="white" stroke="#111111" stroke-width="0.4" stroke-miterlimit="10"/>
<path d="M79.208 152.504H67.902C67.4083 152.504 67.008 152.904 67.008 153.398V162.512C67.008 163.006 67.4083 163.406 67.902 163.406H79.208C79.7017 163.406 80.102 163.006 80.102 162.512V153.398C80.102 152.904 79.7017 152.504 79.208 152.504Z" fill="white" stroke="#111111" stroke-width="0.4" stroke-miterlimit="10"/>
<path d="M93.162 164.46H68.302C67.5873 164.46 67.008 165.039 67.008 165.754V174.068C67.008 174.783 67.5873 175.362 68.302 175.362H93.162C93.8766 175.362 94.456 174.783 94.456 174.068V165.754C94.456 165.039 93.8766 164.46 93.162 164.46Z" fill="white" stroke="#111111" stroke-width="0.4" stroke-miterlimit="10"/>
<path d="M93.184 152.504H81.878C81.3843 152.504 80.984 152.904 80.984 153.398V162.512C80.984 163.006 81.3843 163.406 81.878 163.406H93.184C93.6778 163.406 94.078 163.006 94.078 162.512V153.398C94.078 152.904 93.6778 152.504 93.184 152.504Z" fill="white" stroke="#111111" stroke-width="0.4" stroke-miterlimit="10"/>
<path d="M92.554 124.144H68.528C67.6863 124.144 67.004 124.826 67.004 125.668V137.962C67.004 138.804 67.6863 139.486 68.528 139.486H92.554C93.3957 139.486 94.078 138.804 94.078 137.962V125.668C94.078 124.826 93.3957 124.144 92.554 124.144Z" fill="#166DFC" stroke="#111111" stroke-width="0.4" stroke-miterlimit="10"/>
<path d="M84.22 128.358H77.284V135.294H84.22V128.358Z" fill="white" stroke="#111111" stroke-width="0.4" stroke-miterlimit="10"/>
<path d="M76.068 128.322V131.862H80.28L76.068 128.322Z" fill="#ACC5E7" stroke="#111111" stroke-width="0.4" stroke-miterlimit="10"/>
<path d="M82.306 134.794C83.1455 134.794 83.826 134.113 83.826 133.274C83.826 132.434 83.1455 131.754 82.306 131.754C81.4665 131.754 80.786 132.434 80.786 133.274C80.786 134.113 81.4665 134.794 82.306 134.794Z" fill="#ACC5E7" stroke="#111111" stroke-width="0.4" stroke-miterlimit="10"/>
</g>
<defs>
<clipPath id="clip0_3124_16826">
<rect width="400" height="240" fill="white"/>
</clipPath>
</defs>
</svg>
