<svg width="400" height="240" viewBox="0 0 400 240" fill="none" xmlns="http://www.w3.org/2000/svg">
<g clip-path="url(#clip0_3124_16514)">
<path d="M400 0H0V240H400V0Z" fill="#ACC5E7"/>
<g opacity="0.4">
<mask id="mask0_3124_16514" style="mask-type:luminance" maskUnits="userSpaceOnUse" x="0" y="-1" width="400" height="242">
<path d="M400 -0.100098H0V240.1H400V-0.100098Z" fill="white"/>
</mask>
<g mask="url(#mask0_3124_16514)">
<path d="M16.65 -150V390" stroke="#166DFC" stroke-width="0.3" stroke-miterlimit="10"/>
<path d="M49.95 -150V390" stroke="#166DFC" stroke-width="0.3" stroke-miterlimit="10"/>
<path d="M83.25 -150V390" stroke="#166DFC" stroke-width="0.3" stroke-miterlimit="10"/>
<path d="M116.55 -150V390" stroke="#166DFC" stroke-width="0.3" stroke-miterlimit="10"/>
<path d="M149.85 -150V390" stroke="#166DFC" stroke-width="0.3" stroke-miterlimit="10"/>
<path d="M183.15 -150V390" stroke="#166DFC" stroke-width="0.3" stroke-miterlimit="10"/>
<path d="M216.45 -150V390" stroke="#166DFC" stroke-width="0.3" stroke-miterlimit="10"/>
<path d="M249.75 -150V390" stroke="#166DFC" stroke-width="0.3" stroke-miterlimit="10"/>
<path d="M283.05 -150V390" stroke="#166DFC" stroke-width="0.3" stroke-miterlimit="10"/>
<path d="M316.35 -150V390" stroke="#166DFC" stroke-width="0.3" stroke-miterlimit="10"/>
<path d="M349.65 -150V390" stroke="#166DFC" stroke-width="0.3" stroke-miterlimit="10"/>
<path d="M382.95 -150V390" stroke="#166DFC" stroke-width="0.3" stroke-miterlimit="10"/>
<path d="M-249.85 210.02H649.25" stroke="#166DFC" stroke-width="0.3" stroke-miterlimit="10"/>
<path d="M-249.85 176.72H649.25" stroke="#166DFC" stroke-width="0.3" stroke-miterlimit="10"/>
<path d="M-249.85 143.42H649.25" stroke="#166DFC" stroke-width="0.3" stroke-miterlimit="10"/>
<path d="M-249.85 110.12H649.25" stroke="#166DFC" stroke-width="0.3" stroke-miterlimit="10"/>
<path d="M-249.85 76.8201H649.25" stroke="#166DFC" stroke-width="0.3" stroke-miterlimit="10"/>
<path d="M-249.85 43.52H649.25" stroke="#166DFC" stroke-width="0.3" stroke-miterlimit="10"/>
<path d="M-249.85 10.22H649.25" stroke="#166DFC" stroke-width="0.3" stroke-miterlimit="10"/>
</g>
<path d="M400 -0.100098H0V240.1H400V-0.100098Z" stroke="#ACC5E7" stroke-width="0.3" stroke-miterlimit="10"/>
</g>
<path d="M235.416 21.7781H169.714C167.569 21.7781 165.83 23.517 165.83 25.6621V54.6281C165.83 56.7732 167.569 58.5121 169.714 58.5121H235.416C237.561 58.5121 239.3 56.7732 239.3 54.6281V25.6621C239.3 23.517 237.561 21.7781 235.416 21.7781Z" fill="#ACC5E7"/>
<path d="M233.486 19.7759H167.784C165.639 19.7759 163.9 21.5148 163.9 23.6599V52.6259C163.9 54.771 165.639 56.5099 167.784 56.5099H233.486C235.631 56.5099 237.37 54.771 237.37 52.6259V23.6599C237.37 21.5148 235.631 19.7759 233.486 19.7759Z" fill="#166DFC" stroke="#111111" stroke-width="0.4" stroke-miterlimit="10"/>
<path d="M223.08 48.9259C229.036 48.9259 233.864 44.0978 233.864 38.1419C233.864 32.1861 229.036 27.3579 223.08 27.3579C217.124 27.3579 212.296 32.1861 212.296 38.1419C212.296 44.0978 217.124 48.9259 223.08 48.9259Z" fill="white" stroke="#111111" stroke-width="0.4" stroke-miterlimit="10"/>
<path d="M206.318 33.1841H170.994C170.188 33.1841 169.534 33.8377 169.534 34.6441V41.6921C169.534 42.4984 170.188 43.1521 170.994 43.1521H206.318C207.124 43.1521 207.778 42.4984 207.778 41.6921V34.6441C207.778 33.8377 207.124 33.1841 206.318 33.1841Z" fill="white" stroke="#111111" stroke-width="0.4" stroke-miterlimit="10"/>
<path d="M353.304 131.28H292.412C290.726 131.28 289.36 132.646 289.36 134.332V153.092C289.36 154.778 290.726 156.144 292.412 156.144H353.304C354.99 156.144 356.356 154.778 356.356 153.092V134.332C356.356 132.646 354.99 131.28 353.304 131.28Z" fill="#ACC5E7"/>
<path d="M351.76 129.924H291.1C289.418 129.924 288.054 131.288 288.054 132.97V151.742C288.054 153.424 289.418 154.788 291.1 154.788H351.76C353.442 154.788 354.806 153.424 354.806 151.742V132.97C354.806 131.288 353.442 129.924 351.76 129.924Z" fill="#166DFC" stroke="#111111" stroke-width="0.4" stroke-miterlimit="10"/>
<path d="M343.1 149.49C347.132 149.49 350.4 146.222 350.4 142.19C350.4 138.158 347.132 134.89 343.1 134.89C339.068 134.89 335.8 138.158 335.8 142.19C335.8 146.222 339.068 149.49 343.1 149.49Z" fill="white" stroke="#111111" stroke-width="0.4" stroke-miterlimit="10"/>
<path d="M330.554 139H293.094C292.417 139 291.868 139.549 291.868 140.226V144.52C291.868 145.197 292.417 145.746 293.094 145.746H330.554C331.231 145.746 331.78 145.197 331.78 144.52V140.226C331.78 139.549 331.231 139 330.554 139Z" fill="white" stroke="#111111" stroke-width="0.4" stroke-miterlimit="10"/>
<path d="M295.432 220.8C299.003 220.8 301.898 217.905 301.898 214.334C301.898 210.763 299.003 207.868 295.432 207.868C291.861 207.868 288.966 210.763 288.966 214.334C288.966 217.905 291.861 220.8 295.432 220.8Z" fill="#ACC5E7"/>
<path d="M294.444 219.812C298.015 219.812 300.91 216.917 300.91 213.346C300.91 209.775 298.015 206.88 294.444 206.88C290.873 206.88 287.978 209.775 287.978 213.346C287.978 216.917 290.873 219.812 294.444 219.812Z" fill="#166DFC" stroke="#111111" stroke-width="0.4" stroke-miterlimit="10"/>
<path d="M322.382 220.8C325.953 220.8 328.848 217.905 328.848 214.334C328.848 210.763 325.953 207.868 322.382 207.868C318.811 207.868 315.916 210.763 315.916 214.334C315.916 217.905 318.811 220.8 322.382 220.8Z" fill="#ACC5E7"/>
<path d="M321.392 219.812C324.963 219.812 327.858 216.917 327.858 213.346C327.858 209.775 324.963 206.88 321.392 206.88C317.821 206.88 314.926 209.775 314.926 213.346C314.926 216.917 317.821 219.812 321.392 219.812Z" fill="#ACC5E7" stroke="#111111" stroke-width="0.4" stroke-miterlimit="10"/>
<path d="M348.776 220.8C352.347 220.8 355.242 217.905 355.242 214.334C355.242 210.763 352.347 207.868 348.776 207.868C345.205 207.868 342.31 210.763 342.31 214.334C342.31 217.905 345.205 220.8 348.776 220.8Z" fill="#ACC5E7"/>
<path d="M347.788 219.812C351.359 219.812 354.254 216.917 354.254 213.346C354.254 209.775 351.359 206.88 347.788 206.88C344.217 206.88 341.322 209.775 341.322 213.346C341.322 216.917 344.217 219.812 347.788 219.812Z" fill="white" stroke="#111111" stroke-width="0.4" stroke-miterlimit="10"/>
<path d="M117.878 201.2C119.878 201.2 121.5 199.578 121.5 197.578C121.5 195.578 119.878 193.956 117.878 193.956C115.878 193.956 114.256 195.578 114.256 197.578C114.256 199.578 115.878 201.2 117.878 201.2Z" fill="#ACC5E7"/>
<path d="M117.322 200.644C119.322 200.644 120.944 199.022 120.944 197.022C120.944 195.022 119.322 193.4 117.322 193.4C115.322 193.4 113.7 195.022 113.7 197.022C113.7 199.022 115.322 200.644 117.322 200.644Z" fill="white" stroke="#111111" stroke-width="0.4" stroke-miterlimit="10"/>
<path d="M117.878 212.634C119.878 212.634 121.5 211.013 121.5 209.012C121.5 207.012 119.878 205.39 117.878 205.39C115.878 205.39 114.256 207.012 114.256 209.012C114.256 211.013 115.878 212.634 117.878 212.634Z" fill="#ACC5E7"/>
<path d="M117.322 212.08C119.322 212.08 120.944 210.458 120.944 208.458C120.944 206.458 119.322 204.836 117.322 204.836C115.322 204.836 113.7 206.458 113.7 208.458C113.7 210.458 115.322 212.08 117.322 212.08Z" fill="#166DFC" stroke="#111111" stroke-width="0.4" stroke-miterlimit="10"/>
<path d="M95.286 39.072C98.6196 39.072 101.322 36.3696 101.322 33.036C101.322 29.7024 98.6196 27 95.286 27C91.9524 27 89.25 29.7024 89.25 33.036C89.25 36.3696 91.9524 39.072 95.286 39.072Z" fill="#ACC5E7"/>
<path d="M94.362 39.9941C97.6956 39.9941 100.398 37.2917 100.398 33.9581C100.398 30.6245 97.6956 27.9221 94.362 27.9221C91.0284 27.9221 88.326 30.6245 88.326 33.9581C88.326 37.2917 91.0284 39.9941 94.362 39.9941Z" fill="white" stroke="#111111" stroke-width="0.4" stroke-miterlimit="10"/>
<path d="M114.334 39.072C117.668 39.072 120.37 36.3696 120.37 33.036C120.37 29.7024 117.668 27 114.334 27C111 27 108.298 29.7024 108.298 33.036C108.298 36.3696 111 39.072 114.334 39.072Z" fill="#ACC5E7"/>
<path d="M113.412 39.9941C116.746 39.9941 119.448 37.2917 119.448 33.9581C119.448 30.6245 116.746 27.9221 113.412 27.9221C110.078 27.9221 107.376 30.6245 107.376 33.9581C107.376 37.2917 110.078 39.9941 113.412 39.9941Z" fill="#166DFC" stroke="#111111" stroke-width="0.4" stroke-miterlimit="10"/>
<path d="M253.566 176.26H158.188C155.573 176.26 153.454 178.379 153.454 180.994V209.754C153.454 212.369 155.573 214.488 158.188 214.488H253.566C256.181 214.488 258.3 212.369 258.3 209.754V180.994C258.3 178.379 256.181 176.26 253.566 176.26Z" fill="#ACC5E7"/>
<path d="M250.812 174.176H155.434C152.819 174.176 150.7 176.296 150.7 178.91V207.67C150.7 210.285 152.819 212.404 155.434 212.404H250.812C253.427 212.404 255.546 210.285 255.546 207.67V178.91C255.546 176.296 253.427 174.176 250.812 174.176Z" fill="#ACC5E7" stroke="#111111" stroke-width="0.4" stroke-miterlimit="10"/>
<path d="M247.998 197.17H208.34C207.4 197.17 206.638 197.932 206.638 198.872V207.512C206.638 208.452 207.4 209.214 208.34 209.214H247.998C248.938 209.214 249.7 208.452 249.7 207.512V198.872C249.7 197.932 248.938 197.17 247.998 197.17Z" fill="#ACC5E7"/>
<path d="M246.866 196.514H207.208C206.268 196.514 205.506 197.276 205.506 198.216V206.856C205.506 207.796 206.268 208.558 207.208 208.558H246.866C247.806 208.558 248.568 207.796 248.568 206.856V198.216C248.568 197.276 247.806 196.514 246.866 196.514Z" fill="#166DFC" stroke="#111111" stroke-width="0.4" stroke-miterlimit="10"/>
<path d="M244.82 178.54H158.446C157.076 178.54 155.966 179.65 155.966 181.02V188.104C155.966 189.474 157.076 190.584 158.446 190.584H244.82C246.19 190.584 247.3 189.474 247.3 188.104V181.02C247.3 179.65 246.19 178.54 244.82 178.54Z" fill="white" stroke="#111111" stroke-width="0.4" stroke-miterlimit="10"/>
<path d="M116.696 81.374H56C54.3641 81.374 53.038 82.7002 53.038 84.336V101.978C53.038 103.614 54.3641 104.94 56 104.94H116.696C118.332 104.94 119.658 103.614 119.658 101.978V84.336C119.658 82.7002 118.332 81.374 116.696 81.374Z" fill="#ACC5E7"/>
<path d="M114.972 80.196H54.224C52.6025 80.196 51.288 81.5105 51.288 83.132V100.408C51.288 102.03 52.6025 103.344 54.224 103.344H114.972C116.593 103.344 117.908 102.03 117.908 100.408V83.132C117.908 81.5105 116.593 80.196 114.972 80.196Z" fill="#166DFC" stroke="#111111" stroke-width="0.4" stroke-miterlimit="10"/>
<path d="M112.146 93.1741H87.356C86.7982 93.1741 86.346 93.6263 86.346 94.1841V98.9601C86.346 99.5179 86.7982 99.9701 87.356 99.9701H112.146C112.704 99.9701 113.156 99.5179 113.156 98.9601V94.1841C113.156 93.6263 112.704 93.1741 112.146 93.1741Z" fill="#166DFC"/>
<path d="M111.44 92.802H86.65C86.0922 92.802 85.64 93.2542 85.64 93.812V98.588C85.64 99.1458 86.0922 99.598 86.65 99.598H111.44C111.998 99.598 112.45 99.1458 112.45 98.588V93.812C112.45 93.2542 111.998 92.802 111.44 92.802Z" fill="white" stroke="#111111" stroke-width="0.4" stroke-miterlimit="10"/>
<path d="M111.686 83.656H57.762C56.9501 83.656 56.292 84.3141 56.292 85.126V88.982C56.292 89.7939 56.9501 90.452 57.762 90.452H111.686C112.498 90.452 113.156 89.7939 113.156 88.982V85.126C113.156 84.3141 112.498 83.656 111.686 83.656Z" fill="#ACC5E7" stroke="#111111" stroke-width="0.4" stroke-miterlimit="10"/>
<path d="M115.594 122.942H57.494C55.2484 122.942 53.428 124.762 53.428 127.008V163.528C53.428 165.773 55.2484 167.594 57.494 167.594H115.594C117.84 167.594 119.66 165.773 119.66 163.528V127.008C119.66 124.762 117.84 122.942 115.594 122.942Z" fill="#ACC5E7"/>
<path d="M113.854 120.508H55.754C53.5084 120.508 51.688 122.328 51.688 124.574V161.094C51.688 163.34 53.5084 165.16 55.754 165.16H113.854C116.1 165.16 117.92 163.34 117.92 161.094V124.574C117.92 122.328 116.1 120.508 113.854 120.508Z" fill="white" stroke="#111111" stroke-width="0.4" stroke-miterlimit="10"/>
<path d="M113.428 152.528H89.428C88.762 152.528 88.222 153.068 88.222 153.734V161.182C88.222 161.848 88.762 162.388 89.428 162.388H113.428C114.094 162.388 114.634 161.848 114.634 161.182V153.734C114.634 153.068 114.094 152.528 113.428 152.528Z" fill="#166DFC"/>
<path d="M112.736 151.99H88.736C88.0699 151.99 87.53 152.53 87.53 153.196V160.644C87.53 161.31 88.0699 161.85 88.736 161.85H112.736C113.402 161.85 113.942 161.31 113.942 160.644V153.196C113.942 152.53 113.402 151.99 112.736 151.99Z" fill="#166DFC" stroke="#111111" stroke-width="0.4" stroke-miterlimit="10"/>
<path d="M110.396 124.08H59.912C58.3833 124.08 57.144 125.319 57.144 126.848V145.794C57.144 147.323 58.3833 148.562 59.912 148.562H110.396C111.925 148.562 113.164 147.323 113.164 145.794V126.848C113.164 125.319 111.925 124.08 110.396 124.08Z" fill="#ACC5E7" stroke="#111111" stroke-width="0.4" stroke-miterlimit="10"/>
<path d="M352.098 70.0559H294.06C291.708 70.0559 289.802 71.9623 289.802 74.3139V114.548C289.802 116.9 291.708 118.806 294.06 118.806H352.098C354.45 118.806 356.356 116.9 356.356 114.548V74.3139C356.356 71.9623 354.45 70.0559 352.098 70.0559Z" fill="#ACC5E7"/>
<path d="M350.35 67.3979H292.312C289.96 67.3979 288.054 69.3043 288.054 71.656V111.89C288.054 114.242 289.96 116.148 292.312 116.148H350.35C352.702 116.148 354.608 114.242 354.608 111.89V71.656C354.608 69.3043 352.702 67.3979 350.35 67.3979Z" fill="white" stroke="#111111" stroke-width="0.4" stroke-miterlimit="10"/>
<path d="M350.042 102.358H326.03C325.332 102.358 324.766 102.924 324.766 103.622V111.858C324.766 112.556 325.332 113.122 326.03 113.122H350.042C350.74 113.122 351.306 112.556 351.306 111.858V103.622C351.306 102.924 350.74 102.358 350.042 102.358Z" fill="#166DFC"/>
<path d="M349.346 101.77H325.334C324.636 101.77 324.07 102.336 324.07 103.034V111.27C324.07 111.968 324.636 112.534 325.334 112.534H349.346C350.044 112.534 350.61 111.968 350.61 111.27V103.034C350.61 102.336 350.044 101.77 349.346 101.77Z" fill="#166DFC" stroke="#111111" stroke-width="0.4" stroke-miterlimit="10"/>
<path d="M319.548 102.358H295.536C294.838 102.358 294.272 102.924 294.272 103.622V111.858C294.272 112.556 294.838 113.122 295.536 113.122H319.548C320.246 113.122 320.812 112.556 320.812 111.858V103.622C320.812 102.924 320.246 102.358 319.548 102.358Z" fill="#166DFC"/>
<path d="M318.85 101.77H294.838C294.14 101.77 293.574 102.336 293.574 103.034V111.27C293.574 111.968 294.14 112.534 294.838 112.534H318.85C319.548 112.534 320.114 111.968 320.114 111.27V103.034C320.114 102.336 319.548 101.77 318.85 101.77Z" fill="#ACC5E7" stroke="#111111" stroke-width="0.4" stroke-miterlimit="10"/>
<path d="M346.928 71.2979H296.438C294.836 71.2979 293.538 72.5962 293.538 74.1979V95.1279C293.538 96.7295 294.836 98.0279 296.438 98.0279H346.928C348.53 98.0279 349.828 96.7295 349.828 95.1279V74.1979C349.828 72.5962 348.53 71.2979 346.928 71.2979Z" fill="white" stroke="#111111" stroke-width="0.4" stroke-miterlimit="10"/>
<path d="M98.638 193.724H43.768C42.2978 193.724 41.106 194.916 41.106 196.386V212.114C41.106 213.584 42.2978 214.776 43.768 214.776H98.638C100.108 214.776 101.3 213.584 101.3 212.114V196.386C101.3 194.916 100.108 193.724 98.638 193.724Z" fill="#ACC5E7"/>
<path d="M97.058 192.576H42.188C40.7178 192.576 39.526 193.768 39.526 195.238V210.966C39.526 212.436 40.7178 213.628 42.188 213.628H97.058C98.5282 213.628 99.72 212.436 99.72 210.966V195.238C99.72 193.768 98.5282 192.576 97.058 192.576Z" fill="white" stroke="#111111" stroke-width="0.4" stroke-miterlimit="10"/>
<path d="M94.504 197.128H60.872C60.3661 197.128 59.956 197.538 59.956 198.044V200.444C59.956 200.95 60.3661 201.36 60.872 201.36H94.504C95.0099 201.36 95.42 200.95 95.42 200.444V198.044C95.42 197.538 95.0099 197.128 94.504 197.128Z" fill="white" stroke="#111111" stroke-width="0.4" stroke-miterlimit="10"/>
<path d="M94.504 203.034H60.872C60.3661 203.034 59.956 203.444 59.956 203.95V206.35C59.956 206.856 60.3661 207.266 60.872 207.266H94.504C95.0099 207.266 95.42 206.856 95.42 206.35V203.95C95.42 203.444 95.0099 203.034 94.504 203.034Z" fill="white" stroke="#111111" stroke-width="0.4" stroke-miterlimit="10"/>
<path d="M50.544 208.208C53.8886 208.208 56.6 205.497 56.6 202.152C56.6 198.807 53.8886 196.096 50.544 196.096C47.1994 196.096 44.488 198.807 44.488 202.152C44.488 205.497 47.1994 208.208 50.544 208.208Z" fill="white" stroke="#111111" stroke-width="0.4" stroke-miterlimit="10"/>
<path d="M353.162 32.0359H293.512C291.748 32.0359 290.318 33.4659 290.318 35.2299V56.4939C290.318 58.2579 291.748 59.6879 293.512 59.6879H353.162C354.926 59.6879 356.356 58.2579 356.356 56.4939V35.2299C356.356 33.4659 354.926 32.0359 353.162 32.0359Z" fill="#ACC5E7"/>
<path d="M351.426 30.5259H291.776C290.012 30.5259 288.582 31.9559 288.582 33.7199V54.9839C288.582 56.7479 290.012 58.1779 291.776 58.1779H351.426C353.19 58.1779 354.62 56.7479 354.62 54.9839V33.7199C354.62 31.9559 353.19 30.5259 351.426 30.5259Z" fill="white" stroke="#111111" stroke-width="0.4" stroke-miterlimit="10"/>
<path d="M348.978 35.522H317.62C317.107 35.522 316.692 35.9375 316.692 36.45V39.236C316.692 39.7485 317.107 40.164 317.62 40.164H348.978C349.491 40.164 349.906 39.7485 349.906 39.236V36.45C349.906 35.9375 349.491 35.522 348.978 35.522Z" fill="white" stroke="#111111" stroke-width="0.4" stroke-miterlimit="10"/>
<path d="M348.978 42H317.62C317.107 42 316.692 42.4155 316.692 42.928V45.714C316.692 46.2265 317.107 46.642 317.62 46.642H348.978C349.491 46.642 349.906 46.2265 349.906 45.714V42.928C349.906 42.4155 349.491 42 348.978 42Z" fill="white" stroke="#111111" stroke-width="0.4" stroke-miterlimit="10"/>
<path d="M348.978 48.48H317.62C317.107 48.48 316.692 48.8955 316.692 49.408V52.194C316.692 52.7065 317.107 53.122 317.62 53.122H348.978C349.491 53.122 349.906 52.7065 349.906 52.194V49.408C349.906 48.8955 349.491 48.48 348.978 48.48Z" fill="white" stroke="#111111" stroke-width="0.4" stroke-miterlimit="10"/>
<path d="M303.392 53.1219C308.565 53.1219 312.758 48.9286 312.758 43.7559C312.758 38.5832 308.565 34.3899 303.392 34.3899C298.219 34.3899 294.026 38.5832 294.026 43.7559C294.026 48.9286 298.219 53.1219 303.392 53.1219Z" fill="white" stroke="#111111" stroke-width="0.4" stroke-miterlimit="10"/>
<path d="M201.668 162.53C224.149 162.53 242.374 144.305 242.374 121.824C242.374 99.3426 224.149 81.1179 201.668 81.1179C179.187 81.1179 160.962 99.3426 160.962 121.824C160.962 144.305 179.187 162.53 201.668 162.53Z" fill="#ACC5E7"/>
<path d="M198.332 158.882C220.813 158.882 239.038 140.657 239.038 118.176C239.038 95.6947 220.813 77.47 198.332 77.47C175.851 77.47 157.626 95.6947 157.626 118.176C157.626 140.657 175.851 158.882 198.332 158.882Z" fill="white" stroke="#111111" stroke-width="0.4" stroke-miterlimit="10"/>
<mask id="mask1_3124_16514" style="mask-type:luminance" maskUnits="userSpaceOnUse" x="157" y="77" width="83" height="82">
<path d="M198.488 158.942C220.969 158.942 239.194 140.717 239.194 118.236C239.194 95.7547 220.969 77.53 198.488 77.53C176.007 77.53 157.782 95.7547 157.782 118.236C157.782 140.717 176.007 158.942 198.488 158.942Z" fill="white"/>
</mask>
<g mask="url(#mask1_3124_16514)">
<path d="M198.116 130.9C207.728 130.9 215.52 123.108 215.52 113.496C215.52 103.884 207.728 96.092 198.116 96.092C188.504 96.092 180.712 103.884 180.712 113.496C180.712 123.108 188.504 130.9 198.116 130.9Z" fill="#166DFC"/>
<path d="M198.188 209.252C215.536 209.252 229.6 190.532 229.6 167.44C229.6 144.348 215.536 125.628 198.188 125.628C180.84 125.628 166.776 144.348 166.776 167.44C166.776 190.532 180.84 209.252 198.188 209.252Z" fill="#166DFC"/>
</g>
<path d="M359.226 171.638H292.028C290.929 171.638 290.038 172.529 290.038 173.628V179.598C290.038 180.697 290.929 181.588 292.028 181.588H359.226C360.325 181.588 361.216 180.697 361.216 179.598V173.628C361.216 172.529 360.325 171.638 359.226 171.638Z" fill="#ACC5E7"/>
<path d="M358.032 170.064H290.834C289.735 170.064 288.844 170.955 288.844 172.054V178.024C288.844 179.123 289.735 180.014 290.834 180.014H358.032C359.131 180.014 360.022 179.123 360.022 178.024V172.054C360.022 170.955 359.131 170.064 358.032 170.064Z" fill="#ACC5E7" stroke="#111111" stroke-width="0.4" stroke-miterlimit="10"/>
<path d="M359.226 185.05H292.028C290.929 185.05 290.038 185.941 290.038 187.04V193.01C290.038 194.109 290.929 195 292.028 195H359.226C360.325 195 361.216 194.109 361.216 193.01V187.04C361.216 185.941 360.325 185.05 359.226 185.05Z" fill="#ACC5E7"/>
<path d="M357.654 183.948H290.456C289.357 183.948 288.466 184.839 288.466 185.938V191.908C288.466 193.007 289.357 193.898 290.456 193.898H357.654C358.753 193.898 359.644 193.007 359.644 191.908V185.938C359.644 184.839 358.753 183.948 357.654 183.948Z" fill="white" stroke="#111111" stroke-width="0.4" stroke-miterlimit="10"/>
<path d="M119.392 50.71H54.218C53.4304 50.71 52.792 51.3484 52.792 52.136V54.636C52.792 55.4235 53.4304 56.062 54.218 56.062H119.392C120.18 56.062 120.818 55.4235 120.818 54.636V52.136C120.818 51.3484 120.18 50.71 119.392 50.71Z" fill="#ACC5E7"/>
<path d="M118.25 49.864H53.076C52.2884 49.864 51.65 50.5025 51.65 51.29V53.79C51.65 54.5776 52.2884 55.216 53.076 55.216H118.25C119.038 55.216 119.676 54.5776 119.676 53.79V51.29C119.676 50.5025 119.038 49.864 118.25 49.864Z" fill="#166DFC" stroke="#111111" stroke-width="0.4" stroke-miterlimit="10"/>
<path d="M119.392 57.926H54.218C53.4304 57.926 52.792 58.5645 52.792 59.352V61.852C52.792 62.6396 53.4304 63.278 54.218 63.278H119.392C120.18 63.278 120.818 62.6396 120.818 61.852V59.352C120.818 58.5645 120.18 57.926 119.392 57.926Z" fill="#ACC5E7"/>
<path d="M117.888 57.334H52.714C51.9264 57.334 51.288 57.9724 51.288 58.76V61.26C51.288 62.0475 51.9264 62.686 52.714 62.686H117.888C118.676 62.686 119.314 62.0475 119.314 61.26V58.76C119.314 57.9724 118.676 57.334 117.888 57.334Z" fill="white" stroke="#111111" stroke-width="0.4" stroke-miterlimit="10"/>
<path d="M119.392 65.302H54.218C53.4304 65.302 52.792 65.9404 52.792 66.728V69.228C52.792 70.0156 53.4304 70.654 54.218 70.654H119.392C120.18 70.654 120.818 70.0156 120.818 69.228V66.728C120.818 65.9404 120.18 65.302 119.392 65.302Z" fill="#ACC5E7"/>
<path d="M117.888 64.708H52.714C51.9264 64.708 51.288 65.3465 51.288 66.134V68.634C51.288 69.4216 51.9264 70.06 52.714 70.06H117.888C118.676 70.06 119.314 69.4216 119.314 68.634V66.134C119.314 65.3465 118.676 64.708 117.888 64.708Z" fill="white" stroke="#111111" stroke-width="0.4" stroke-miterlimit="10"/>
<mask id="mask2_3124_16514" style="mask-type:luminance" maskUnits="userSpaceOnUse" x="-1" y="0" width="402" height="240">
<path d="M400.1 0H-0.0999985V240H400.1V0Z" fill="white"/>
</mask>
<g mask="url(#mask2_3124_16514)">
<path d="M-39.992 287.404C-40.084 287.392 -49.33 286.052 -58.372 276.766C-65.15 269.804 -67.23 263.09 -66.952 259.456C-66.866 258.336 -66.55 257.514 -66.06 257.146C-65.492 256.718 -60.56 253.368 -53.732 248.732C-38.926 238.678 -14.146 221.85 -11.312 219.436C-9.684 218.05 -8.728 215.418 -7.622 212.37C-5.946 207.752 -3.858 202.004 1.558 197.394C4.322 195.04 8.142 191.262 12.186 187.26C21.454 178.09 31.96 167.694 36.294 167.694C36.36 167.694 36.424 167.696 36.486 167.702C38.812 167.878 40.4 168.55 41.208 169.7C41.802 170.546 41.832 171.466 41.762 172.064C43.024 170.528 47.582 168.228 50.988 168.228C51.462 168.228 51.906 168.272 52.306 168.36C56.478 169.278 56.266 171.178 56.15 172.2C56.118 172.482 56.092 172.726 56.172 172.816C56.206 172.854 56.266 172.872 56.354 172.872C56.672 172.872 57.34 172.632 58.516 172.096C61.422 170.77 63.304 169.958 65.262 169.958C66.908 169.958 68.572 170.566 70.656 171.93C73.32 173.674 73.8 175.698 74.058 176.784C74.178 177.292 74.248 177.556 74.406 177.556C74.53 177.556 74.744 177.426 75.056 177.16C75.94 176.408 77.142 175.36 78.536 174.15C87.288 166.534 103.58 152.356 107.95 152.356C108.104 152.356 108.244 152.374 108.368 152.408C109.906 152.836 110.914 153.854 111.282 155.354C111.764 157.322 111.138 159.976 109.466 163.026C107.634 166.372 104.572 170.1 100.612 173.812C71.044 201.508 54.542 219.202 55.338 222.354C55.442 222.768 56.046 222.97 57.182 222.968C58.964 222.968 61.952 222.474 65.734 221.848C67.742 221.516 70.016 221.14 72.484 220.774C73.664 220.6 74.76 220.426 75.726 220.274C78.688 219.806 80.828 219.466 82.788 219.466C85.972 219.466 88.494 220.374 92.426 222.94C96.732 225.748 96.822 228.03 96.492 229.142C95.86 231.266 92.822 232.586 88.564 232.586H88.296C84.006 232.586 70.96 236.526 58.344 240.336C46.128 244.026 34.59 247.51 30.336 247.714C29.898 247.736 29.452 247.746 29.01 247.746C25.988 247.746 23.444 247.268 20.984 246.806C18.928 246.42 16.986 246.056 15.054 246.056C13.122 246.056 11.372 246.426 9.63 247.218C7.126 248.358 -39.45 286.994 -39.92 287.384L-39.954 287.412L-39.998 287.406L-39.992 287.404Z" fill="white"/>
<path d="M107.952 152.458C108.096 152.458 108.226 152.474 108.342 152.506C113.696 153.996 112.33 162.7 100.544 173.74C92.918 180.882 53.984 217.402 55.242 222.38C55.366 222.87 56.036 223.07 57.184 223.07C59.918 223.07 65.35 221.932 72.502 220.874C77.164 220.184 80.178 219.568 82.792 219.568C85.87 219.568 88.388 220.424 92.376 223.024C99.69 227.794 96.614 232.484 88.568 232.484C88.502 232.484 88.434 232.484 88.366 232.484C88.344 232.484 88.322 232.484 88.3 232.484C79.95 232.484 39.092 247.196 30.334 247.614C29.884 247.636 29.446 247.646 29.014 247.646C23.398 247.646 19.246 245.956 15.058 245.956C13.282 245.956 11.498 246.26 9.594 247.126C7.05 248.284 -39.978 287.306 -39.978 287.306C-39.978 287.306 -49.178 286.066 -58.298 276.696C-67.418 267.326 -67.842 258.616 -65.996 257.224C-64.15 255.832 -15.34 222.998 -11.244 219.51C-7.148 216.024 -7.404 205.156 1.626 197.468C10.566 189.858 30.08 167.792 36.296 167.792C36.358 167.792 36.42 167.794 36.48 167.798C42.268 168.236 41.818 171.654 41.564 172.572C41.5 172.728 41.48 172.798 41.484 172.798C41.49 172.798 41.524 172.716 41.564 172.572C41.57 172.558 41.576 172.542 41.584 172.524C42.18 171.118 47.234 168.322 50.99 168.322C51.444 168.322 51.88 168.364 52.288 168.452C58.228 169.758 55.102 172.966 56.36 172.966C56.696 172.966 57.344 172.736 58.562 172.182C61.364 170.904 63.306 170.054 65.266 170.054C66.874 170.054 68.492 170.628 70.604 172.01C74.494 174.556 73.656 177.654 74.408 177.654C74.562 177.654 74.782 177.524 75.122 177.234C81.38 171.906 102.904 152.454 107.952 152.454M107.952 152.254C103.544 152.254 87.234 166.446 78.472 174.07C77.08 175.282 75.876 176.328 74.992 177.082C74.612 177.406 74.462 177.454 74.408 177.454C74.322 177.454 74.232 177.068 74.158 176.758C73.898 175.658 73.412 173.608 70.714 171.842C68.612 170.466 66.932 169.852 65.266 169.852C63.288 169.852 61.398 170.668 58.48 171.998C57.318 172.528 56.664 172.764 56.36 172.764C56.294 172.764 56.262 172.752 56.252 172.742C56.2 172.684 56.23 172.418 56.252 172.202C56.37 171.15 56.59 169.19 52.33 168.254C51.922 168.164 51.472 168.118 50.99 168.118C47.724 168.118 43.402 170.226 41.888 171.774C41.914 171.174 41.816 170.376 41.294 169.632C40.468 168.458 38.854 167.772 36.498 167.592C36.434 167.588 36.366 167.584 36.298 167.584C31.924 167.584 21.402 177.994 12.12 187.178C8.078 191.178 4.26 194.956 1.498 197.306C-3.938 201.934 -6.03 207.696 -7.712 212.324C-8.814 215.358 -9.764 217.978 -11.374 219.348C-14.204 221.756 -38.976 238.58 -53.778 248.632C-60.61 253.272 -65.548 256.624 -66.118 257.054C-66.63 257.44 -66.962 258.286 -67.05 259.436C-67.33 263.09 -65.244 269.838 -58.442 276.824C-53.708 281.688 -48.952 284.328 -45.798 285.686C-42.372 287.162 -40.1 287.478 -40.006 287.492L-39.92 287.504L-39.852 287.448C-39.382 287.058 7.184 248.432 9.674 247.296C11.402 246.51 13.112 246.144 15.056 246.144C17 246.144 18.916 246.508 20.968 246.892C23.318 247.332 25.98 247.832 29.012 247.832C29.454 247.832 29.902 247.822 30.342 247.8C34.61 247.596 46.152 244.11 58.374 240.418C70.984 236.61 84.024 232.67 88.298 232.67H88.362C88.43 232.67 88.498 232.67 88.566 232.67C92.87 232.67 95.946 231.324 96.59 229.156C97.174 227.192 95.716 224.95 92.484 222.842C88.534 220.266 85.998 219.352 82.792 219.352C80.824 219.352 78.682 219.69 75.716 220.16C74.748 220.312 73.652 220.486 72.474 220.66C70.004 221.026 67.728 221.402 65.72 221.734C61.942 222.36 58.958 222.854 57.184 222.854C56.114 222.854 55.526 222.672 55.436 222.314C55.084 220.92 58.14 215.742 74.704 198.996C81.8 191.822 90.54 183.368 100.68 173.87C104.65 170.152 107.718 166.414 109.554 163.06C111.236 159.986 111.868 157.308 111.378 155.316C111.002 153.78 109.97 152.736 108.394 152.298C108.262 152.262 108.112 152.242 107.95 152.242L107.952 152.254Z" fill="#111111"/>
<path d="M49.73 180.77C52.47 179.126 55.908 175.01 57.814 172.56C56.49 173.118 56.126 173.102 56.062 172.762C55.392 174.046 54.34 175.17 52.738 177.202C52.738 177.202 47.642 182.022 49.73 180.77Z" fill="#ACC5E7"/>
<path d="M62.278 188.23C62.974 188.746 72.81 179.264 75.152 177.272C74.11 178.158 74.19 177.538 73.858 176.314C73.58 177.018 73.206 177.732 72.31 178.684C67.546 183.748 61.508 187.658 62.28 188.23H62.278Z" fill="#ACC5E7"/>
<path d="M61.788 208.804C59.866 212.456 52.678 220.59 50.338 222.582C47.998 224.574 40.22 226.154 44.486 227.562C44.486 227.562 55.442 227.308 59.454 224.9C60.884 224.042 63.306 222.982 65.826 221.974C59.52 223.018 55.588 223.672 55.27 222.414C54.012 217.436 92.948 180.918 100.572 173.774C104.688 169.918 107.75 165.852 109.77 162.126C105.964 166.206 99.164 172.958 88.01 182.452C84.94 185.066 63.708 205.154 61.786 208.804H61.788Z" fill="#ACC5E7"/>
<path d="M36.264 178.122C36.224 178.628 40.986 173.756 44.186 170.43C42.848 171.182 41.858 171.988 41.614 172.562C41.604 172.584 41.6 172.598 41.592 172.618C41.466 172.926 41.518 172.882 41.592 172.618C41.682 172.3 41.796 171.67 41.656 170.962C41.352 171.402 40.98 171.906 40.528 172.48C38.104 175.55 36.348 177.046 36.266 178.124L36.264 178.122Z" fill="#ACC5E7"/>
<path d="M41.59 172.616C41.464 172.924 41.516 172.88 41.59 172.616V172.616Z" fill="#ACC5E7"/>
<path d="M88.058 229.78C84.212 230.03 52.27 240.086 47.838 240.834C43.406 241.582 29.358 246.484 25.594 245.658C21.83 244.83 12.128 243.01 9.788 245.002C7.698 246.78 -35.094 279.19 -44.252 286.124C-41.63 287.108 -39.95 287.34 -39.95 287.34C-39.95 287.34 7.076 248.32 9.622 247.16C16.358 244.094 21.582 248.066 30.362 247.648C39.142 247.228 80.198 232.44 88.394 232.518C91.2 232.544 93.42 232.008 94.828 231.098C92.876 230.494 90.406 229.628 88.058 229.782V229.78Z" fill="#ACC5E7"/>
<path d="M296.162 62.3421C296.134 62.3421 296.106 62.3421 296.076 62.3401C293.126 62.1401 273.674 38.6621 272.59 32.6461C271.592 27.1101 276.246 13.4621 276.968 11.3941C274.482 12.8881 253.436 25.5321 248.622 28.0341C243.946 30.4661 239.626 31.8041 236.458 31.8041C234.898 31.8041 233.634 31.4781 232.702 30.8321C232.412 30.6321 232.264 30.3541 232.262 30.0081C232.24 27.1621 242.408 19.8901 248.484 15.5461C249.55 14.7841 250.472 14.1241 251.16 13.6161C255.214 10.6181 267.726 0.842136 271.804 -2.34786C267.528 0.220139 254.746 7.78214 250.406 9.12014C249.848 9.29214 249.268 9.47614 248.676 9.66414C245.166 10.7761 241.188 12.0361 238.118 12.0361C236.66 12.0361 235.548 11.7581 234.72 11.1861C233.86 10.5921 233.454 9.95814 233.48 9.25014C233.53 7.86813 235.19 6.31413 239.028 4.05413C242 2.30413 252.608 -3.40187 261.516 -8.16387C260.858 -7.94187 260.27 -7.78387 259.756 -7.69387C258.49 -7.46986 256.802 -7.10387 255.016 -6.71987C250.95 -5.84187 246.34 -4.84587 243.862 -4.84587C243.804 -4.84587 243.746 -4.84587 243.69 -4.84587C241.402 -4.89187 239.652 -6.49987 239.282 -8.02587C239.08 -8.86386 239.336 -9.54586 239.99 -9.89786C240.66 -10.2599 244.926 -11.4959 250.834 -13.2059C261.55 -16.3099 277.742 -20.9999 284.008 -23.9059C288.994 -26.2199 294.462 -28.2239 300.25 -30.3459C305.452 -32.2539 310.832 -34.2259 315.786 -36.4319C322.076 -39.2319 324.118 -41.0159 326.482 -43.0819C327.944 -44.3599 329.6 -45.8079 332.502 -47.6579C339.908 -52.3839 393.198 -62.5559 393.736 -62.6579L393.76 -62.6619L393.784 -62.6559C393.966 -62.6019 398.29 -61.1759 403.158 -45.6379C407.904 -30.4839 406.836 -29.7079 404.498 -28.0059C404.41 -27.9419 404.322 -27.8779 404.23 -27.8099C403.018 -26.9139 391.912 -25.7359 380.152 -24.4879C367.71 -23.1679 354.846 -21.8039 352.084 -20.6379C352.08 -19.8319 351.95 -11.9059 348.232 -3.44587C347.122 -0.917866 345.74 1.08814 343.992 3.62814C341.458 7.31013 338.304 11.8941 334.462 20.3561C328.57 33.3321 321.298 44.0981 318.202 46.0141C317.81 46.2561 317.408 46.3781 317.004 46.3781C316.298 46.3781 315.598 45.9981 314.978 45.2801C313.35 43.3961 312.094 38.8801 312.952 33.0381C313.34 30.3981 314.146 27.1861 315 23.7841C316.826 16.5081 318.896 8.26213 316.772 4.89214C316.214 4.00613 315.206 3.55614 313.776 3.55614C310.428 3.55614 305.8 5.93613 303.338 7.35613C299.79 9.40214 296.448 11.9061 295.022 13.5901C291.438 17.8181 285.932 28.3141 288.19 33.3021C290.45 38.2961 292.672 42.8161 296.998 47.5581C298.768 49.4981 299.27 52.0901 299.382 53.9241C299.516 56.1241 299.146 58.4541 298.394 60.1561C297.772 61.5681 296.98 62.3441 296.164 62.3441L296.162 62.3421Z" fill="white"/>
<path d="M393.752 -62.566C393.752 -62.566 398.152 -61.28 403.058 -45.614C407.964 -29.948 406.618 -29.71 404.168 -27.896C401.716 -26.084 357.126 -22.998 351.982 -20.708C351.982 -20.708 352.08 -12.458 348.14 -3.49003C345.408 2.72797 340.834 6.07397 334.37 20.31C328.582 33.06 321.274 43.992 318.15 45.924C317.766 46.162 317.382 46.274 317.004 46.274C314.302 46.274 311.956 40.496 313.05 33.048C314.298 24.558 319.968 9.77197 316.856 4.83398C316.242 3.86198 315.154 3.45197 313.776 3.45197C308.154 3.45197 297.706 10.264 294.946 13.52C291.51 17.574 285.79 28.234 288.098 33.338C290.406 38.44 292.594 42.876 296.922 47.62C301.21 52.32 298.94 62.24 296.162 62.24C296.136 62.24 296.11 62.24 296.084 62.238C293.272 62.048 273.772 38.634 272.69 32.626C271.608 26.618 277.158 11.164 277.158 11.164C277.158 11.164 253.728 25.268 248.58 27.944C244.366 30.134 239.872 31.704 236.462 31.704C234.99 31.704 233.72 31.412 232.762 30.75C229.588 28.556 246.318 17.322 251.22 13.696C256.124 10.07 273.164 -3.28603 273.164 -3.28603C273.164 -3.28603 255.642 7.39997 250.378 9.02197C246.54 10.204 241.694 11.932 238.12 11.932C236.792 11.932 235.638 11.694 234.778 11.098C231.974 9.15997 234.376 6.90398 239.08 4.13397C242.276 2.25198 254.474 -4.29403 262.924 -8.80803C266.874 -10.44 271.36 -13.304 271.36 -13.304C271.36 -13.304 267.754 -11.388 262.924 -8.80803C261.776 -8.33403 260.674 -7.96403 259.74 -7.79803C255.66 -7.07403 247.446 -4.95003 243.864 -4.95003C243.806 -4.95003 243.75 -4.95003 243.694 -4.95003C240.208 -5.02003 238.14 -8.78803 240.04 -9.81403C241.938 -10.84 274.436 -19.358 284.052 -23.82C293.666 -28.28 305.54 -31.764 315.828 -36.346C326.116 -40.928 325.082 -42.81 332.556 -47.58C340.03 -52.35 393.754 -62.566 393.754 -62.566M393.764 -62.772L393.716 -62.764C393.582 -62.738 380.118 -60.174 365.914 -57.058C346.826 -52.872 335.566 -49.74 332.446 -47.748C329.538 -45.892 327.878 -44.442 326.414 -43.162C324.056 -41.102 322.02 -39.322 315.744 -36.528C310.794 -34.324 305.416 -32.352 300.214 -30.446C294.424 -28.324 288.954 -26.318 283.964 -24.002C277.706 -21.098 261.518 -16.41 250.806 -13.308C244.894 -11.596 240.622 -10.358 239.942 -9.99203C239.246 -9.61603 238.972 -8.89403 239.186 -8.00803C239.564 -6.44403 241.352 -4.80003 243.688 -4.75203C243.744 -4.75203 243.804 -4.75203 243.862 -4.75203C246.352 -4.75203 250.966 -5.74803 255.036 -6.62803C256.822 -7.01403 258.508 -7.37803 259.772 -7.60203C260.022 -7.64603 260.29 -7.70603 260.574 -7.78203C251.862 -3.12403 241.85 2.26797 238.976 3.95997C235.104 6.23997 233.432 7.81797 233.38 9.23797C233.354 9.97397 233.784 10.654 234.662 11.26C235.508 11.844 236.638 12.128 238.118 12.128C241.204 12.128 245.19 10.866 248.706 9.75198C249.308 9.56197 249.878 9.37997 250.436 9.20797C254.442 7.97397 265.29 1.64997 270.468 -1.43603C265.51 2.43997 254.794 10.798 251.102 13.53C250.414 14.038 249.494 14.696 248.428 15.458C240.548 21.094 232.144 27.328 232.166 30.002C232.17 30.382 232.332 30.688 232.65 30.906C233.6 31.562 234.884 31.896 236.464 31.896C239.646 31.896 243.982 30.552 248.674 28.114C253.36 25.678 273.426 13.634 276.786 11.614C275.812 14.412 271.516 27.216 272.496 32.654C273.072 35.85 278.602 43.572 283.586 49.732C288.472 55.772 294.464 62.32 296.074 62.43C296.104 62.432 296.136 62.434 296.166 62.434C297.024 62.434 297.848 61.636 298.488 60.186C299.246 58.47 299.618 56.122 299.484 53.908C299.372 52.058 298.864 49.442 297.074 47.48C292.758 42.748 290.54 38.236 288.284 33.25C287.026 30.468 288.28 26.198 289.556 23.106C291.176 19.178 293.508 15.524 295.102 13.644C296.522 11.968 299.854 9.47197 303.392 7.43197C305.844 6.01797 310.456 3.64597 313.78 3.64597C315.172 3.64597 316.152 4.07997 316.69 4.93398C318.792 8.26598 316.726 16.492 314.906 23.748C314.052 27.152 313.246 30.366 312.856 33.012C312.108 38.098 312.932 43.05 314.906 45.334C315.546 46.074 316.272 46.466 317.008 46.466C317.43 46.466 317.852 46.338 318.258 46.086C321.366 44.164 328.658 33.378 334.556 20.384C338.394 11.93 341.546 7.35197 344.078 3.67197C345.83 1.12797 347.212 -0.88203 348.326 -3.41803C351.966 -11.7 352.174 -19.472 352.186 -20.584C355.056 -21.738 367.818 -23.092 380.166 -24.402C392.45 -25.706 403.058 -26.83 404.292 -27.742C404.382 -27.808 404.472 -27.874 404.558 -27.938C405.708 -28.774 406.616 -29.436 406.576 -31.828C406.536 -34.23 405.542 -38.374 403.254 -45.682C398.372 -61.27 393.998 -62.714 393.814 -62.766L393.768 -62.78L393.764 -62.772Z" fill="#111111"/>
<path d="M274.702 -6.31396C274.702 -6.31396 253.936 5.63604 250.69 6.90204C248.248 7.85404 240.606 10.508 236.686 11.814C240.302 12.428 245.994 10.376 250.378 9.02404C255.642 7.40204 273.164 -3.28396 273.164 -3.28396C274.942 -4.97796 274.702 -6.31196 274.702 -6.31196V-6.31396Z" fill="#ACC5E7"/>
<path d="M320.21 11.1081C320.162 6.98212 319.342 -5.27388 318.548 -5.82188C317.958 -6.22988 317.17 1.03212 316.806 4.77012C316.822 4.79412 316.842 4.81212 316.856 4.83412C319.97 9.77212 314.298 24.5581 313.05 33.0481C312.34 37.8821 313.08 42.0101 314.424 44.3141C314.008 41.4181 313.8 38.0321 314.756 34.8121C316.054 30.4481 320.258 15.2341 320.208 11.1081H320.21Z" fill="#ACC5E7"/>
<path d="M278.096 8.24194C277.618 9.01594 247.88 26.0019 245.982 27.0279C244.462 27.8479 237.502 30.5159 234.778 31.5499C238.288 32.2319 243.626 30.5219 248.58 27.9459C253.25 25.5179 272.966 13.6859 276.584 11.5099C277.502 9.60994 278.328 7.86794 278.098 8.24194H278.096Z" fill="#ACC5E7"/>
<path d="M306.29 3.24214C303.598 3.72014 294.224 9.51614 291.22 12.1161C288.216 14.7161 284.276 23.6821 284.614 33.2681C284.902 41.4161 295.03 51.2961 299.262 55.9841C299.484 53.0781 298.906 49.7921 296.924 47.6221C292.596 42.8781 290.408 38.4421 288.1 33.3401C285.792 28.2381 291.51 17.5781 294.948 13.5221C298.008 9.91014 310.522 1.93414 315.422 3.71814C315.416 3.71014 315.41 3.70014 315.402 3.69214C314.268 2.51614 308.984 2.76414 306.292 3.24014L306.29 3.24214Z" fill="#ACC5E7"/>
<path d="M302.114 52.4119C307.856 52.4119 312.51 47.7942 312.51 42.0979C312.51 36.4017 307.856 31.7839 302.114 31.7839C296.372 31.7839 291.718 36.4017 291.718 42.0979C291.718 47.7942 296.372 52.4119 302.114 52.4119Z" fill="#ACC5E7"/>
<path d="M303.282 54.3179C309.024 54.3179 313.678 49.7002 313.678 44.0039C313.678 38.3077 309.024 33.6899 303.282 33.6899C297.54 33.6899 292.886 38.3077 292.886 44.0039C292.886 49.7002 297.54 54.3179 303.282 54.3179Z" fill="#166DFC" stroke="#111111" stroke-width="0.4" stroke-miterlimit="10"/>
</g>
</g>
<defs>
<clipPath id="clip0_3124_16514">
<rect width="400" height="240" fill="white"/>
</clipPath>
</defs>
</svg>
