<svg width="512" height="422" viewBox="0 0 512 422" fill="none" xmlns="http://www.w3.org/2000/svg">
    <path stroke="#94538C" stroke-dasharray="2 2" d="M296 311.5h133"/>
    <rect x="429" y="298" width="28" height="28" rx="14" fill="#94538C"/>
    <path d="M446.832 318v-1.12h-6.08c3.968-2.704 5.84-4.448 5.84-6.464 0-1.968-1.344-3.264-3.6-3.264-2.192 0-3.504 1.248-3.856 3.184l1.232.24c.192-1.52 1.184-2.336 2.576-2.336 1.584 0 2.304.928 2.304 2.096 0 1.808-1.136 2.944-6.112 6.624V318h7.696z" fill="#fff"/>
    <g clip-path="url(#8h95vx514a)">
        <rect x="57.5" y="36.5" width="399" height="47" rx="1.5" fill="#fff"/>
        <path d="M70.7 54v-.864h-3.708v-7.14h-.996V54H70.7zm2.487.072c1.104 0 1.8-.42 2.268-1.068-.012.3.036.792.108.996h.888a4.717 4.717 0 0 1-.132-1.152V50.16c0-1.488-.648-2.184-2.328-2.184-1.404 0-2.328.576-2.544 1.656l.864.096c.192-.756.696-1.02 1.656-1.02.996 0 1.38.348 1.452.996.024.144.024.348.024.552-.468.012-.864.012-1.344.072-1.62.192-2.796.828-2.796 2.112 0 1.08.84 1.632 1.884 1.632zm.276-.684c-.792 0-1.188-.36-1.188-1.044 0-.744.66-1.26 1.944-1.428.372-.048.804-.048 1.224-.048v1.224c-.252.612-.852 1.296-1.98 1.296zm7.36.696c1.344 0 2.316-1.02 2.316-3.06 0-1.98-.828-3.048-2.244-3.048-.852 0-1.608.588-1.908 1.236v-3.216H78.1V54h.516l.3-.984c.384.672 1.02 1.068 1.908 1.068zm-.18-.672c-.948 0-1.644-.708-1.644-1.944V50.04c.324-.684.816-1.32 1.68-1.32.996 0 1.5.78 1.5 2.328 0 1.656-.528 2.364-1.536 2.364zm6.123.684c1.176 0 2.088-.612 2.496-1.752l-.816-.12c-.336.876-.948 1.164-1.596 1.164-1.152 0-1.824-.756-1.848-2.244h4.368c-.012-.132 0-.264-.012-.396-.12-1.644-1.02-2.772-2.568-2.772-1.524 0-2.736 1.164-2.736 3.168 0 1.764 1.092 2.952 2.712 2.952zm-1.728-3.588c.072-1.116.804-1.824 1.752-1.824s1.536.684 1.632 1.824h-3.384zM91.622 54v-8.004h-.936V54h.936zm1.05 2.004 4.835-10.008h-.792l-4.824 10.008h.78zM99.745 54v-3.456h1.944c1.536 0 2.496-.888 2.496-2.268 0-1.416-.864-2.28-2.604-2.28H98.75V54h.996zm0-7.152h1.92c.912 0 1.512.564 1.512 1.464 0 .888-.6 1.416-1.584 1.416h-1.848v-2.88zM106.317 54v-8.004h-.936V54h.936zm3.233.072c1.104 0 1.8-.42 2.268-1.068-.012.3.036.792.108.996h.888a4.717 4.717 0 0 1-.132-1.152V50.16c0-1.488-.648-2.184-2.328-2.184-1.404 0-2.328.576-2.544 1.656l.864.096c.192-.756.696-1.02 1.656-1.02.996 0 1.38.348 1.452.996.024.144.024.348.024.552-.468.012-.864.012-1.344.072-1.62.192-2.796.828-2.796 2.112 0 1.08.84 1.632 1.884 1.632zm.276-.684c-.792 0-1.188-.36-1.188-1.044 0-.744.66-1.26 1.944-1.428.372-.048.804-.048 1.224-.048v1.224c-.252.612-.852 1.296-1.98 1.296zm6.725.708c1.176 0 2.052-.684 2.256-2.016l-.816-.084c-.18.984-.636 1.404-1.416 1.404-.888 0-1.584-.732-1.584-2.364 0-1.476.576-2.316 1.524-2.316.816 0 1.284.528 1.428 1.5l.876-.108c-.264-1.452-1.056-2.136-2.316-2.136-1.5 0-2.496 1.32-2.496 3.036 0 1.98 1.092 3.084 2.544 3.084zm5.769 0c1.176 0 2.088-.612 2.496-1.752l-.816-.12c-.336.876-.948 1.164-1.596 1.164-1.152 0-1.824-.756-1.848-2.244h4.368c-.012-.132 0-.264-.012-.396-.12-1.644-1.02-2.772-2.568-2.772-1.524 0-2.736 1.164-2.736 3.168 0 1.764 1.092 2.952 2.712 2.952zm-1.728-3.588c.072-1.116.804-1.824 1.752-1.824s1.536.684 1.632 1.824h-3.384zm6.56 3.492v-4.044c.492-.708 1.08-1.2 1.908-1.2.6 0 .96.336.96 1.056V54h.936v-4.26c0-.972-.432-1.764-1.632-1.764-1.104 0-1.824.66-2.208 1.272v-3.252h-.9V54h.936zm7.776.096c1.464 0 2.676-1.212 2.676-3.072 0-1.824-1.056-3.048-2.676-3.048-1.452 0-2.652 1.188-2.652 3.036 0 1.872 1.128 3.084 2.652 3.084zm-.012-.696c-.996 0-1.656-.888-1.656-2.376 0-1.524.72-2.316 1.656-2.316.984 0 1.704.768 1.704 2.304 0 1.596-.732 2.388-1.704 2.388zm4.987.6v-8.004h-.936V54h.936zm3.629.096c.864 0 1.464-.348 1.932-.996v.9h.876v-8.004h-.9v2.892a2.094 2.094 0 0 0-1.74-.912c-1.512 0-2.424 1.332-2.424 3.084 0 1.932.828 3.036 2.256 3.036zm.252-.708c-.984 0-1.536-.684-1.536-2.328 0-1.512.528-2.352 1.596-2.352.876 0 1.284.504 1.584 1.068v2.412c-.252.66-.756 1.2-1.644 1.2zm6.65.708c1.176 0 2.088-.612 2.496-1.752l-.816-.12c-.336.876-.948 1.164-1.596 1.164-1.152 0-1.824-.756-1.848-2.244h4.368c-.012-.132 0-.264-.012-.396-.12-1.644-1.02-2.772-2.568-2.772-1.524 0-2.736 1.164-2.736 3.168 0 1.764 1.092 2.952 2.712 2.952zm-1.728-3.588c.072-1.116.804-1.824 1.752-1.824s1.536.684 1.632 1.824h-3.384zm6.56 3.492v-3.864c.492-.828 1.188-1.308 1.884-1.308.072 0 .192 0 .264.012v-.852c-.096-.012-.168-.012-.276-.012-.84 0-1.536.684-1.92 1.38v-1.272h-.888V54h.936z" fill="#666"/>
        <path d="m69.992 72 3.6-10.672h-1.216L69.8 69.104c-.064.16-.304.944-.352 1.152-.032-.208-.288-1.04-.32-1.152l-2.624-7.776h-1.408L68.696 72h1.296zm6.268.096c1.472 0 2.4-.56 3.024-1.424-.016.4.048 1.056.144 1.328h1.184a6.289 6.289 0 0 1-.176-1.536V66.88c0-1.984-.864-2.912-3.104-2.912-1.872 0-3.104.768-3.392 2.208l1.152.128c.256-1.008.928-1.36 2.208-1.36 1.328 0 1.84.464 1.936 1.328.032.192.032.464.032.736-.624.016-1.152.016-1.792.096-2.16.256-3.728 1.104-3.728 2.816 0 1.44 1.12 2.176 2.512 2.176zm.368-.912c-1.056 0-1.584-.48-1.584-1.392 0-.992.88-1.68 2.592-1.904.496-.064 1.072-.064 1.632-.064v1.632c-.336.816-1.136 1.728-2.64 1.728zm7.461.816V61.328h-1.248V72h1.248zm4.823.128c1.056 0 2.016-.464 2.64-1.472V72h1.152v-7.888h-1.231v5.6c-.528.96-1.296 1.472-2.177 1.472-1.104 0-1.568-.496-1.568-1.744v-5.328h-1.247v5.296c0 1.984 1.008 2.72 2.431 2.72zm9.203 0c1.568 0 2.784-.816 3.328-2.336l-1.088-.16c-.448 1.168-1.264 1.552-2.128 1.552-1.536 0-2.432-1.008-2.464-2.992h5.824c-.016-.176 0-.352-.016-.528-.16-2.192-1.36-3.696-3.424-3.696-2.032 0-3.648 1.552-3.648 4.224 0 2.352 1.456 3.936 3.616 3.936zm-2.304-4.784c.096-1.488 1.072-2.432 2.336-2.432 1.264 0 2.048.912 2.176 2.432h-4.512z" fill="#111"/>
        <g clip-path="url(#vql7r9ek8b)">
            <path d="m428.38 58 .71-.71 3.91 3.96 3.91-3.92.71.71-4.62 4.63-4.62-4.67z" fill="#666"/>
        </g>
        <rect x="57.5" y="36.5" width="399" height="47" rx="1.5" stroke="#D4D4D4"/>
        <path d="M58.992 100v-3.804h3.72V100h.996v-8.004h-.996v3.312h-3.72v-3.312h-.996V100h.996zm8.875.096c1.176 0 2.088-.612 2.496-1.752l-.816-.12c-.336.876-.948 1.164-1.596 1.164-1.152 0-1.824-.756-1.848-2.244h4.368c-.012-.132 0-.264-.012-.396-.12-1.644-1.02-2.772-2.568-2.772-1.524 0-2.736 1.164-2.736 3.168 0 1.764 1.092 2.952 2.712 2.952zm-1.728-3.588c.072-1.116.804-1.824 1.752-1.824s1.536.684 1.632 1.824H66.14zM72.723 100v-8.004h-.936V100h.936zm4.59.084c1.188 0 2.256-1.044 2.256-3.048 0-2.136-.912-3.06-2.232-3.06-.948 0-1.548.576-1.908 1.152v-1.044h-.888v7.92h.924V99.22c.36.432.984.864 1.848.864zm-.252-.684c-.852 0-1.284-.528-1.596-.972v-2.496c.42-.828.972-1.188 1.656-1.188 1.02 0 1.476.732 1.476 2.316 0 1.704-.6 2.34-1.536 2.34zm6.134.696c1.176 0 2.088-.612 2.496-1.752l-.816-.12c-.336.876-.948 1.164-1.596 1.164-1.152 0-1.824-.756-1.848-2.244H85.8c-.012-.132 0-.264-.012-.396-.12-1.644-1.02-2.772-2.568-2.772-1.524 0-2.736 1.164-2.736 3.168 0 1.764 1.092 2.952 2.712 2.952zm-1.728-3.588c.072-1.116.804-1.824 1.752-1.824s1.536.684 1.632 1.824h-3.384zm6.56 3.492v-3.864c.492-.828 1.188-1.308 1.884-1.308.072 0 .192 0 .264.012v-.852c-.096-.012-.168-.012-.276-.012-.84 0-1.536.684-1.92 1.38v-1.272h-.888V100h.936zm7.506.084c.324 0 .684-.036 1.008-.096v-.732a5.773 5.773 0 0 1-.84.072c-.504-.012-.828-.288-.828-.912v-3.588h1.332v-.744h-1.332v-1.548h-.852l-.048 1.548H93v.744h.96v3.54c0 1.224.576 1.716 1.572 1.716zm4.303.012c1.176 0 2.088-.612 2.496-1.752l-.816-.12c-.336.876-.948 1.164-1.596 1.164-1.152 0-1.824-.756-1.848-2.244h4.368c-.012-.132 0-.264-.012-.396-.12-1.644-1.02-2.772-2.568-2.772-1.524 0-2.736 1.164-2.736 3.168 0 1.764 1.092 2.952 2.712 2.952zm-1.728-3.588c.072-1.116.804-1.824 1.752-1.824s1.536.684 1.632 1.824h-3.384zm5.675 3.492 1.5-2.208.12-.216.132.216 1.548 2.208h1.032l-2.196-3.192 1.836-2.724h-.9l-1.236 1.812-.156.24-.156-.24-1.236-1.812h-1.056l1.932 2.82-2.076 3.096h.912zm6.878.084c.324 0 .684-.036 1.008-.096v-.732a5.773 5.773 0 0 1-.84.072c-.504-.012-.828-.288-.828-.912v-3.588h1.332v-.744h-1.332v-1.548h-.852l-.048 1.548h-.972v.744h.96v3.54c0 1.224.576 1.716 1.572 1.716z" fill="#666"/>
    </g>
    <g clip-path="url(#91ls2hr1fc)">
        <path d="M59 182.5h396a1.5 1.5 0 0 1 1.5 1.5v45.5h-399V184a1.5 1.5 0 0 1 1.5-1.5z" fill="#fff"/>
        <path d="M70.7 200v-.864h-3.708v-7.14h-.996V200H70.7zm2.487.072c1.104 0 1.8-.42 2.268-1.068-.012.3.036.792.108.996h.888a4.717 4.717 0 0 1-.132-1.152v-2.688c0-1.488-.648-2.184-2.328-2.184-1.404 0-2.328.576-2.544 1.656l.864.096c.192-.756.696-1.02 1.656-1.02.996 0 1.38.348 1.452.996.024.144.024.348.024.552-.468.012-.864.012-1.344.072-1.62.192-2.796.828-2.796 2.112 0 1.08.84 1.632 1.884 1.632zm.276-.684c-.792 0-1.188-.36-1.188-1.044 0-.744.66-1.26 1.944-1.428.372-.048.804-.048 1.224-.048v1.224c-.252.612-.852 1.296-1.98 1.296zm7.36.696c1.344 0 2.316-1.02 2.316-3.06 0-1.98-.828-3.048-2.244-3.048-.852 0-1.608.588-1.908 1.236v-3.216H78.1V200h.516l.3-.984c.384.672 1.02 1.068 1.908 1.068zm-.18-.672c-.948 0-1.644-.708-1.644-1.944v-1.428c.324-.684.816-1.32 1.68-1.32.996 0 1.5.78 1.5 2.328 0 1.656-.528 2.364-1.536 2.364zm6.123.684c1.176 0 2.088-.612 2.496-1.752l-.816-.12c-.336.876-.948 1.164-1.596 1.164-1.152 0-1.824-.756-1.848-2.244h4.368c-.012-.132 0-.264-.012-.396-.12-1.644-1.02-2.772-2.568-2.772-1.524 0-2.736 1.164-2.736 3.168 0 1.764 1.092 2.952 2.712 2.952zm-1.728-3.588c.072-1.116.804-1.824 1.752-1.824s1.536.684 1.632 1.824h-3.384zM91.622 200v-8.004h-.936V200h.936zm1.05 2.004 4.835-10.008h-.792l-4.824 10.008h.78zM99.745 200v-3.456h1.944c1.536 0 2.496-.888 2.496-2.268 0-1.416-.864-2.28-2.604-2.28H98.75V200h.996zm0-7.152h1.92c.912 0 1.512.564 1.512 1.464 0 .888-.6 1.416-1.584 1.416h-1.848v-2.88zm6.571 7.152v-8.004h-.936V200h.936zm3.233.072c1.104 0 1.8-.42 2.268-1.068-.012.3.036.792.108.996h.888a4.717 4.717 0 0 1-.132-1.152v-2.688c0-1.488-.648-2.184-2.328-2.184-1.404 0-2.328.576-2.544 1.656l.864.096c.192-.756.696-1.02 1.656-1.02.996 0 1.38.348 1.452.996.024.144.024.348.024.552-.468.012-.864.012-1.344.072-1.62.192-2.796.828-2.796 2.112 0 1.08.84 1.632 1.884 1.632zm.276-.684c-.792 0-1.188-.36-1.188-1.044 0-.744.66-1.26 1.944-1.428.372-.048.804-.048 1.224-.048v1.224c-.252.612-.852 1.296-1.98 1.296zm6.725.708c1.176 0 2.052-.684 2.256-2.016l-.816-.084c-.18.984-.636 1.404-1.416 1.404-.888 0-1.584-.732-1.584-2.364 0-1.476.576-2.316 1.524-2.316.816 0 1.284.528 1.428 1.5l.876-.108c-.264-1.452-1.056-2.136-2.316-2.136-1.5 0-2.496 1.32-2.496 3.036 0 1.98 1.092 3.084 2.544 3.084zm5.769 0c1.176 0 2.088-.612 2.496-1.752l-.816-.12c-.336.876-.948 1.164-1.596 1.164-1.152 0-1.824-.756-1.848-2.244h4.368c-.012-.132 0-.264-.012-.396-.12-1.644-1.02-2.772-2.568-2.772-1.524 0-2.736 1.164-2.736 3.168 0 1.764 1.092 2.952 2.712 2.952zm-1.728-3.588c.072-1.116.804-1.824 1.752-1.824s1.536.684 1.632 1.824h-3.384zm6.56 3.492v-4.044c.492-.708 1.08-1.2 1.908-1.2.6 0 .96.336.96 1.056V200h.936v-4.26c0-.972-.432-1.764-1.632-1.764-1.104 0-1.824.66-2.208 1.272v-3.252h-.9V200h.936zm7.776.096c1.464 0 2.676-1.212 2.676-3.072 0-1.824-1.056-3.048-2.676-3.048-1.452 0-2.652 1.188-2.652 3.036 0 1.872 1.128 3.084 2.652 3.084zm-.012-.696c-.996 0-1.656-.888-1.656-2.376 0-1.524.72-2.316 1.656-2.316.984 0 1.704.768 1.704 2.304 0 1.596-.732 2.388-1.704 2.388zm4.987.6v-8.004h-.936V200h.936zm3.629.096c.864 0 1.464-.348 1.932-.996v.9h.876v-8.004h-.9v2.892a2.094 2.094 0 0 0-1.74-.912c-1.512 0-2.424 1.332-2.424 3.084 0 1.932.828 3.036 2.256 3.036zm.252-.708c-.984 0-1.536-.684-1.536-2.328 0-1.512.528-2.352 1.596-2.352.876 0 1.284.504 1.584 1.068v2.412c-.252.66-.756 1.2-1.644 1.2zm6.65.708c1.176 0 2.088-.612 2.496-1.752l-.816-.12c-.336.876-.948 1.164-1.596 1.164-1.152 0-1.824-.756-1.848-2.244h4.368c-.012-.132 0-.264-.012-.396-.12-1.644-1.02-2.772-2.568-2.772-1.524 0-2.736 1.164-2.736 3.168 0 1.764 1.092 2.952 2.712 2.952zm-1.728-3.588c.072-1.116.804-1.824 1.752-1.824s1.536.684 1.632 1.824h-3.384zm6.56 3.492v-3.864c.492-.828 1.188-1.308 1.884-1.308.072 0 .192 0 .264.012v-.852c-.096-.012-.168-.012-.276-.012-.84 0-1.536.684-1.92 1.38v-1.272h-.888V200h.936z" fill="#666"/>
        <path d="m69.992 218 3.6-10.672h-1.216l-2.576 7.776c-.064.16-.304.944-.352 1.152-.032-.208-.288-1.04-.32-1.152l-2.624-7.776h-1.408l3.6 10.672h1.296zm6.268.096c1.472 0 2.4-.56 3.024-1.424-.016.4.048 1.056.144 1.328h1.184a6.289 6.289 0 0 1-.176-1.536v-3.584c0-1.984-.864-2.912-3.104-2.912-1.872 0-3.104.768-3.392 2.208l1.152.128c.256-1.008.928-1.36 2.208-1.36 1.328 0 1.84.464 1.936 1.328.032.192.032.464.032.736-.624.016-1.152.016-1.792.096-2.16.256-3.728 1.104-3.728 2.816 0 1.44 1.12 2.176 2.512 2.176zm.368-.912c-1.056 0-1.584-.48-1.584-1.392 0-.992.88-1.68 2.592-1.904.496-.064 1.072-.064 1.632-.064v1.632c-.336.816-1.136 1.728-2.64 1.728zm7.461.816v-10.672h-1.248V218h1.248zm4.823.128c1.056 0 2.016-.464 2.64-1.472V218h1.152v-7.888h-1.231v5.6c-.528.96-1.296 1.472-2.177 1.472-1.104 0-1.568-.496-1.568-1.744v-5.328h-1.247v5.296c0 1.984 1.008 2.72 2.431 2.72zm9.203 0c1.568 0 2.784-.816 3.328-2.336l-1.088-.16c-.448 1.168-1.264 1.552-2.128 1.552-1.536 0-2.432-1.008-2.464-2.992h5.824c-.016-.176 0-.352-.016-.528-.16-2.192-1.36-3.696-3.424-3.696-2.032 0-3.648 1.552-3.648 4.224 0 2.352 1.456 3.936 3.616 3.936zm-2.304-4.784c.096-1.488 1.072-2.432 2.336-2.432 1.264 0 2.048.912 2.176 2.432h-4.512z" fill="#111"/>
        <g clip-path="url(#a3mg3jvykd)">
            <path d="m437.62 208-.71.71-3.91-3.96-3.91 3.92-.71-.67 4.62-4.67 4.62 4.67z" fill="#666"/>
        </g>
        <path d="M59 182.5h396a1.5 1.5 0 0 1 1.5 1.5v45.5h-399V184a1.5 1.5 0 0 1 1.5-1.5z" stroke="#D4D4D4"/>
        <mask id="qv0b2q4qjf" fill="#fff">
            <path d="M57 230h400v190a2 2 0 0 1-2 2H59a2 2 0 0 1-2-2V230z"/>
        </mask>
        <path d="M57 230h400v190a2 2 0 0 1-2 2H59a2 2 0 0 1-2-2V230z" fill="#fff"/>
        <path fill="#E9E9E9" d="M58 230h398v32H58z"/>
        <g clip-path="url(#4y3hk32q0e)">
            <path d="m71.85 249.56-3.35-3.35.71-.71 2.64 2.65 6.65-6.65.71.71-7.36 7.35z" fill="#111"/>
        </g>
        <path d="M91.04 252.208c2.56 0 4.384-2.256 4.384-5.536 0-3.472-1.792-5.552-4.384-5.552-2.528 0-4.368 2.096-4.368 5.552 0 3.456 1.776 5.536 4.368 5.536zm0-1.088c-1.648 0-2.976-1.472-2.976-4.448 0-2.688 1.008-4.432 2.976-4.432 2 0 2.992 1.664 2.992 4.432 0 2.752-1.136 4.448-2.992 4.448zm9.95.992c1.584 0 3.008-1.392 3.008-4.064 0-2.848-1.216-4.08-2.976-4.08-1.264 0-2.064.768-2.544 1.536v-1.392h-1.184v10.56h1.232v-3.712a3.182 3.182 0 0 0 2.464 1.152zm-.336-.912c-1.136 0-1.712-.704-2.128-1.296v-3.328c.56-1.104 1.296-1.584 2.208-1.584 1.36 0 1.968.976 1.968 3.088 0 2.272-.8 3.12-2.048 3.12zm7.363.912c.432 0 .912-.048 1.344-.128v-.976a7.697 7.697 0 0 1-1.12.096c-.672-.016-1.104-.384-1.104-1.216v-4.784h1.776v-.992h-1.776v-2.064h-1.136l-.064 2.064h-1.296v.992h1.28v4.72c0 1.632.768 2.288 2.096 2.288zm4.042-9.392v-1.408h-1.36v1.408h1.36zm-.048 9.28v-7.888h-1.248V252h1.248zm5.351.128c1.952 0 3.568-1.616 3.568-4.096 0-2.432-1.408-4.064-3.568-4.064-1.936 0-3.536 1.584-3.536 4.048 0 2.496 1.504 4.112 3.536 4.112zm-.016-.928c-1.328 0-2.208-1.184-2.208-3.168 0-2.032.96-3.088 2.208-3.088 1.312 0 2.272 1.024 2.272 3.072 0 2.128-.976 3.184-2.272 3.184zm6.618.8v-5.408c.656-.944 1.488-1.584 2.496-1.584.896 0 1.312.448 1.312 1.392v5.6h1.248v-5.584c0-1.616-.72-2.448-2.192-2.448-1.408 0-2.384.928-2.928 1.712v-1.568h-1.184V252h1.248zm17.063 0v-1.056h-2.352v-9.824h-.96c-.688 1.136-1.44 1.968-2.608 2.608v1.376c1.52-.864 1.904-1.552 2.288-2v7.84h-2.4V252h6.032zm9.246 0 3.6-10.672h-1.216l-2.576 7.776c-.064.16-.304.944-.352 1.152-.032-.208-.288-1.04-.32-1.152l-2.624-7.776h-1.408l3.6 10.672h1.296zm6.268.096c1.472 0 2.4-.56 3.024-1.424-.016.4.048 1.056.144 1.328h1.184a6.289 6.289 0 0 1-.176-1.536v-3.584c0-1.984-.864-2.912-3.104-2.912-1.872 0-3.104.768-3.392 2.208l1.152.128c.256-1.008.928-1.36 2.208-1.36 1.328 0 1.84.464 1.936 1.328.032.192.032.464.032.736-.624.016-1.152.016-1.792.096-2.16.256-3.728 1.104-3.728 2.816 0 1.44 1.12 2.176 2.512 2.176zm.368-.912c-1.056 0-1.584-.48-1.584-1.392 0-.992.88-1.68 2.592-1.904.496-.064 1.072-.064 1.632-.064v1.632c-.336.816-1.136 1.728-2.64 1.728zm7.462.816v-10.672h-1.248V252h1.248zm4.823.128c1.056 0 2.016-.464 2.64-1.472V252h1.152v-7.888h-1.232v5.6c-.528.96-1.296 1.472-2.176 1.472-1.104 0-1.568-.496-1.568-1.744v-5.328h-1.248v5.296c0 1.984 1.008 2.72 2.432 2.72zm9.202 0c1.568 0 2.784-.816 3.328-2.336l-1.088-.16c-.448 1.168-1.264 1.552-2.128 1.552-1.536 0-2.432-1.008-2.464-2.992h5.824c-.016-.176 0-.352-.016-.528-.16-2.192-1.36-3.696-3.424-3.696-2.032 0-3.648 1.552-3.648 4.224 0 2.352 1.456 3.936 3.616 3.936zm-2.304-4.784c.096-1.488 1.072-2.432 2.336-2.432 1.264 0 2.048.912 2.176 2.432h-4.512zM91.04 284.208c2.56 0 4.384-2.256 4.384-5.536 0-3.472-1.792-5.552-4.384-5.552-2.528 0-4.368 2.096-4.368 5.552 0 3.456 1.776 5.536 4.368 5.536zm0-1.088c-1.648 0-2.976-1.472-2.976-4.448 0-2.688 1.008-4.432 2.976-4.432 2 0 2.992 1.664 2.992 4.432 0 2.752-1.136 4.448-2.992 4.448zm9.95.992c1.584 0 3.008-1.392 3.008-4.064 0-2.848-1.216-4.08-2.976-4.08-1.264 0-2.064.768-2.544 1.536v-1.392h-1.184v10.56h1.232v-3.712a3.182 3.182 0 0 0 2.464 1.152zm-.336-.912c-1.136 0-1.712-.704-2.128-1.296v-3.328c.56-1.104 1.296-1.584 2.208-1.584 1.36 0 1.968.976 1.968 3.088 0 2.272-.8 3.12-2.048 3.12zm7.363.912c.432 0 .912-.048 1.344-.128v-.976a7.697 7.697 0 0 1-1.12.096c-.672-.016-1.104-.384-1.104-1.216v-4.784h1.776v-.992h-1.776v-2.064h-1.136l-.064 2.064h-1.296v.992h1.28v4.72c0 1.632.768 2.288 2.096 2.288zm4.042-9.392v-1.408h-1.36v1.408h1.36zm-.048 9.28v-7.888h-1.248V284h1.248zm5.351.128c1.952 0 3.568-1.616 3.568-4.096 0-2.432-1.408-4.064-3.568-4.064-1.936 0-3.536 1.584-3.536 4.048 0 2.496 1.504 4.112 3.536 4.112zm-.016-.928c-1.328 0-2.208-1.184-2.208-3.168 0-2.032.96-3.088 2.208-3.088 1.312 0 2.272 1.024 2.272 3.072 0 2.128-.976 3.184-2.272 3.184zm6.618.8v-5.408c.656-.944 1.488-1.584 2.496-1.584.896 0 1.312.448 1.312 1.392v5.6h1.248v-5.584c0-1.616-.72-2.448-2.192-2.448-1.408 0-2.384.928-2.928 1.712v-1.568h-1.184V284h1.248zm18.407 0v-1.12h-6.08c3.968-2.704 5.84-4.448 5.84-6.464 0-1.968-1.344-3.264-3.6-3.264-2.192 0-3.504 1.248-3.856 3.184l1.232.24c.192-1.52 1.184-2.336 2.576-2.336 1.584 0 2.304.928 2.304 2.096 0 1.808-1.136 2.944-6.112 6.624V284h7.696zm9.512 0 3.6-10.672h-1.216l-2.576 7.776c-.064.16-.304.944-.352 1.152-.032-.208-.288-1.04-.32-1.152l-2.624-7.776h-1.408l3.6 10.672h1.296zm6.268.096c1.472 0 2.4-.56 3.024-1.424-.016.4.048 1.056.144 1.328h1.184a6.289 6.289 0 0 1-.176-1.536v-3.584c0-1.984-.864-2.912-3.104-2.912-1.872 0-3.105.768-3.392 2.208l1.152.128c.256-1.008.928-1.36 2.208-1.36 1.328 0 1.84.464 1.936 1.328.032.192.032.464.032.736-.624.016-1.152.016-1.792.096-2.16.256-3.728 1.104-3.728 2.816 0 1.44 1.12 2.176 2.512 2.176zm.368-.912c-1.056 0-1.584-.48-1.584-1.392 0-.992.88-1.68 2.592-1.904.496-.064 1.072-.064 1.632-.064v1.632c-.336.816-1.136 1.728-2.64 1.728zm7.461.816v-10.672h-1.248V284h1.248zm4.823.128c1.056 0 2.016-.464 2.64-1.472V284h1.152v-7.888h-1.232v5.6c-.528.96-1.296 1.472-2.176 1.472-1.104 0-1.568-.496-1.568-1.744v-5.328h-1.248v5.296c0 1.984 1.008 2.72 2.432 2.72zm9.202 0c1.568 0 2.784-.816 3.328-2.336l-1.088-.16c-.448 1.168-1.264 1.552-2.128 1.552-1.536 0-2.432-1.008-2.464-2.992h5.824c-.016-.176 0-.352-.016-.528-.16-2.192-1.36-3.696-3.424-3.696-2.032 0-3.648 1.552-3.648 4.224 0 2.352 1.456 3.936 3.616 3.936zm-2.304-4.784c.096-1.488 1.072-2.432 2.336-2.432 1.264 0 2.048.912 2.176 2.432h-4.512zM91.04 316.208c2.56 0 4.384-2.256 4.384-5.536 0-3.472-1.792-5.552-4.384-5.552-2.528 0-4.368 2.096-4.368 5.552 0 3.456 1.776 5.536 4.368 5.536zm0-1.088c-1.648 0-2.976-1.472-2.976-4.448 0-2.688 1.008-4.432 2.976-4.432 2 0 2.992 1.664 2.992 4.432 0 2.752-1.136 4.448-2.992 4.448zm9.95.992c1.584 0 3.008-1.392 3.008-4.064 0-2.848-1.216-4.08-2.976-4.08-1.264 0-2.064.768-2.544 1.536v-1.392h-1.184v10.56h1.232v-3.712a3.182 3.182 0 0 0 2.464 1.152zm-.336-.912c-1.136 0-1.712-.704-2.128-1.296v-3.328c.56-1.104 1.296-1.584 2.208-1.584 1.36 0 1.968.976 1.968 3.088 0 2.272-.8 3.12-2.048 3.12zm7.363.912c.432 0 .912-.048 1.344-.128v-.976a7.697 7.697 0 0 1-1.12.096c-.672-.016-1.104-.384-1.104-1.216v-4.784h1.776v-.992h-1.776v-2.064h-1.136l-.064 2.064h-1.296v.992h1.28v4.72c0 1.632.768 2.288 2.096 2.288zm4.042-9.392v-1.408h-1.36v1.408h1.36zm-.048 9.28v-7.888h-1.248V316h1.248zm5.351.128c1.952 0 3.568-1.616 3.568-4.096 0-2.432-1.408-4.064-3.568-4.064-1.936 0-3.536 1.584-3.536 4.048 0 2.496 1.504 4.112 3.536 4.112zm-.016-.928c-1.328 0-2.208-1.184-2.208-3.168 0-2.032.96-3.088 2.208-3.088 1.312 0 2.272 1.024 2.272 3.072 0 2.128-.976 3.184-2.272 3.184zm6.618.8v-5.408c.656-.944 1.488-1.584 2.496-1.584.896 0 1.312.448 1.312 1.392v5.6h1.248v-5.584c0-1.616-.72-2.448-2.192-2.448-1.408 0-2.384.928-2.928 1.712v-1.568h-1.184V316h1.248zm14.519.192c2.528 0 3.92-1.36 3.92-3.136 0-1.408-.944-2.368-2.448-2.672 1.312-.32 2.048-1.248 2.048-2.496 0-1.6-1.232-2.752-3.584-2.752-1.76 0-3.136.88-3.696 2.544l1.2.24c.304-1.04 1.2-1.696 2.528-1.696 1.376 0 2.224.656 2.224 1.792 0 1.232-.848 1.888-2.496 1.888h-1.232v1.088h1.232c1.872 0 2.88.832 2.88 2.048 0 1.168-.832 2.096-2.608 2.096-1.664 0-2.496-.592-2.864-1.92l-1.248.24c.496 1.888 1.92 2.736 4.144 2.736zm13.4-.192 3.6-10.672h-1.216l-2.576 7.776c-.064.16-.304.944-.352 1.152-.032-.208-.288-1.04-.32-1.152l-2.624-7.776h-1.408l3.6 10.672h1.296zm6.268.096c1.472 0 2.4-.56 3.024-1.424-.016.4.048 1.056.144 1.328h1.184a6.289 6.289 0 0 1-.176-1.536v-3.584c0-1.984-.864-2.912-3.104-2.912-1.872 0-3.105.768-3.392 2.208l1.152.128c.256-1.008.928-1.36 2.208-1.36 1.328 0 1.84.464 1.936 1.328.032.192.032.464.032.736-.624.016-1.152.016-1.792.096-2.16.256-3.728 1.104-3.728 2.816 0 1.44 1.12 2.176 2.512 2.176zm.368-.912c-1.056 0-1.584-.48-1.584-1.392 0-.992.88-1.68 2.592-1.904.496-.064 1.072-.064 1.632-.064v1.632c-.336.816-1.136 1.728-2.64 1.728zm7.461.816v-10.672h-1.248V316h1.248zm4.823.128c1.056 0 2.016-.464 2.64-1.472V316h1.152v-7.888h-1.232v5.6c-.528.96-1.296 1.472-2.176 1.472-1.104 0-1.568-.496-1.568-1.744v-5.328h-1.248v5.296c0 1.984 1.008 2.72 2.432 2.72zm9.202 0c1.568 0 2.784-.816 3.328-2.336l-1.088-.16c-.448 1.168-1.264 1.552-2.128 1.552-1.536 0-2.432-1.008-2.464-2.992h5.824c-.016-.176 0-.352-.016-.528-.16-2.192-1.36-3.696-3.424-3.696-2.032 0-3.648 1.552-3.648 4.224 0 2.352 1.456 3.936 3.616 3.936zm-2.304-4.784c.096-1.488 1.072-2.432 2.336-2.432 1.264 0 2.048.912 2.176 2.432h-4.512zM91.04 348.208c2.56 0 4.384-2.256 4.384-5.536 0-3.472-1.792-5.552-4.384-5.552-2.528 0-4.368 2.096-4.368 5.552 0 3.456 1.776 5.536 4.368 5.536zm0-1.088c-1.648 0-2.976-1.472-2.976-4.448 0-2.688 1.008-4.432 2.976-4.432 2 0 2.992 1.664 2.992 4.432 0 2.752-1.136 4.448-2.992 4.448zm9.95.992c1.584 0 3.008-1.392 3.008-4.064 0-2.848-1.216-4.08-2.976-4.08-1.264 0-2.064.768-2.544 1.536v-1.392h-1.184v10.56h1.232v-3.712a3.182 3.182 0 0 0 2.464 1.152zm-.336-.912c-1.136 0-1.712-.704-2.128-1.296v-3.328c.56-1.104 1.296-1.584 2.208-1.584 1.36 0 1.968.976 1.968 3.088 0 2.272-.8 3.12-2.048 3.12zm7.363.912c.432 0 .912-.048 1.344-.128v-.976a7.697 7.697 0 0 1-1.12.096c-.672-.016-1.104-.384-1.104-1.216v-4.784h1.776v-.992h-1.776v-2.064h-1.136l-.064 2.064h-1.296v.992h1.28v4.72c0 1.632.768 2.288 2.096 2.288zm4.042-9.392v-1.408h-1.36v1.408h1.36zm-.048 9.28v-7.888h-1.248V348h1.248zm5.351.128c1.952 0 3.568-1.616 3.568-4.096 0-2.432-1.408-4.064-3.568-4.064-1.936 0-3.536 1.584-3.536 4.048 0 2.496 1.504 4.112 3.536 4.112zm-.016-.928c-1.328 0-2.208-1.184-2.208-3.168 0-2.032.96-3.088 2.208-3.088 1.312 0 2.272 1.024 2.272 3.072 0 2.128-.976 3.184-2.272 3.184zm6.618.8v-5.408c.656-.944 1.488-1.584 2.496-1.584.896 0 1.312.448 1.312 1.392v5.6h1.248v-5.584c0-1.616-.72-2.448-2.192-2.448-1.408 0-2.384.928-2.928 1.712v-1.568h-1.184V348h1.248zm16.951 0v-2.496h1.712V344.4h-1.712v-7.28h-1.408l-5.168 7.36v1.024h5.328V348h1.248zm-1.248-9.424v5.824h-4.144l4.144-5.824zM151.883 348l3.6-10.672h-1.216l-2.576 7.776c-.064.16-.304.944-.352 1.152-.032-.208-.288-1.04-.32-1.152l-2.624-7.776h-1.408l3.6 10.672h1.296zm6.268.096c1.472 0 2.4-.56 3.024-1.424-.016.4.048 1.056.144 1.328h1.184a6.289 6.289 0 0 1-.176-1.536v-3.584c0-1.984-.864-2.912-3.104-2.912-1.872 0-3.105.768-3.392 2.208l1.152.128c.256-1.008.928-1.36 2.208-1.36 1.328 0 1.84.464 1.936 1.328.032.192.032.464.032.736-.624.016-1.152.016-1.792.096-2.16.256-3.728 1.104-3.728 2.816 0 1.44 1.12 2.176 2.512 2.176zm.368-.912c-1.056 0-1.584-.48-1.584-1.392 0-.992.88-1.68 2.592-1.904.496-.064 1.072-.064 1.632-.064v1.632c-.336.816-1.136 1.728-2.64 1.728zm7.461.816v-10.672h-1.248V348h1.248zm4.823.128c1.056 0 2.016-.464 2.64-1.472V348h1.152v-7.888h-1.232v5.6c-.528.96-1.296 1.472-2.176 1.472-1.104 0-1.568-.496-1.568-1.744v-5.328h-1.248v5.296c0 1.984 1.008 2.72 2.432 2.72zm9.202 0c1.568 0 2.784-.816 3.328-2.336l-1.088-.16c-.448 1.168-1.264 1.552-2.128 1.552-1.536 0-2.432-1.008-2.464-2.992h5.824c-.016-.176 0-.352-.016-.528-.16-2.192-1.36-3.696-3.424-3.696-2.032 0-3.648 1.552-3.648 4.224 0 2.352 1.456 3.936 3.616 3.936zm-2.304-4.784c.096-1.488 1.072-2.432 2.336-2.432 1.264 0 2.048.912 2.176 2.432h-4.512zM91.04 380.208c2.56 0 4.384-2.256 4.384-5.536 0-3.472-1.792-5.552-4.384-5.552-2.528 0-4.368 2.096-4.368 5.552 0 3.456 1.776 5.536 4.368 5.536zm0-1.088c-1.648 0-2.976-1.472-2.976-4.448 0-2.688 1.008-4.432 2.976-4.432 2 0 2.992 1.664 2.992 4.432 0 2.752-1.136 4.448-2.992 4.448zm9.95.992c1.584 0 3.008-1.392 3.008-4.064 0-2.848-1.216-4.08-2.976-4.08-1.264 0-2.064.768-2.544 1.536v-1.392h-1.184v10.56h1.232v-3.712a3.182 3.182 0 0 0 2.464 1.152zm-.336-.912c-1.136 0-1.712-.704-2.128-1.296v-3.328c.56-1.104 1.296-1.584 2.208-1.584 1.36 0 1.968.976 1.968 3.088 0 2.272-.8 3.12-2.048 3.12zm7.363.912c.432 0 .912-.048 1.344-.128v-.976a7.697 7.697 0 0 1-1.12.096c-.672-.016-1.104-.384-1.104-1.216v-4.784h1.776v-.992h-1.776v-2.064h-1.136l-.064 2.064h-1.296v.992h1.28v4.72c0 1.632.768 2.288 2.096 2.288zm4.042-9.392v-1.408h-1.36v1.408h1.36zm-.048 9.28v-7.888h-1.248V380h1.248zm5.351.128c1.952 0 3.568-1.616 3.568-4.096 0-2.432-1.408-4.064-3.568-4.064-1.936 0-3.536 1.584-3.536 4.048 0 2.496 1.504 4.112 3.536 4.112zm-.016-.928c-1.328 0-2.208-1.184-2.208-3.168 0-2.032.96-3.088 2.208-3.088 1.312 0 2.272 1.024 2.272 3.072 0 2.128-.976 3.184-2.272 3.184zm6.618.8v-5.408c.656-.944 1.488-1.584 2.496-1.584.896 0 1.312.448 1.312 1.392v5.6h1.248v-5.584c0-1.616-.72-2.448-2.192-2.448-1.408 0-2.384.928-2.928 1.712v-1.568h-1.184V380h1.248zm14.535.192c2.016 0 3.872-1.376 3.872-3.776 0-2.128-1.36-3.632-3.584-3.632-1.184 0-2.24.656-2.688 1.28l.24-3.584h5.216l.112-1.152h-6.32l-.352 5.776 1.056.24c.544-.864 1.296-1.52 2.56-1.52 1.632 0 2.48 1.2 2.48 2.608 0 1.648-1.072 2.72-2.64 2.72-1.424 0-2.352-.608-2.848-1.872l-1.072.384c.544 1.6 2 2.528 3.968 2.528zm13.384-.192 3.6-10.672h-1.216l-2.576 7.776c-.064.16-.304.944-.352 1.152-.032-.208-.288-1.04-.32-1.152l-2.624-7.776h-1.408l3.6 10.672h1.296zm6.268.096c1.472 0 2.4-.56 3.024-1.424-.016.4.048 1.056.144 1.328h1.184a6.289 6.289 0 0 1-.176-1.536v-3.584c0-1.984-.864-2.912-3.104-2.912-1.872 0-3.105.768-3.392 2.208l1.152.128c.256-1.008.928-1.36 2.208-1.36 1.328 0 1.84.464 1.936 1.328.032.192.032.464.032.736-.624.016-1.152.016-1.792.096-2.16.256-3.728 1.104-3.728 2.816 0 1.44 1.12 2.176 2.512 2.176zm.368-.912c-1.056 0-1.584-.48-1.584-1.392 0-.992.88-1.68 2.592-1.904.496-.064 1.072-.064 1.632-.064v1.632c-.336.816-1.136 1.728-2.64 1.728zm7.461.816v-10.672h-1.248V380h1.248zm4.823.128c1.056 0 2.016-.464 2.64-1.472V380h1.152v-7.888h-1.232v5.6c-.528.96-1.296 1.472-2.176 1.472-1.104 0-1.568-.496-1.568-1.744v-5.328h-1.248v5.296c0 1.984 1.008 2.72 2.432 2.72zm9.202 0c1.568 0 2.784-.816 3.328-2.336l-1.088-.16c-.448 1.168-1.264 1.552-2.128 1.552-1.536 0-2.432-1.008-2.464-2.992h5.824c-.016-.176 0-.352-.016-.528-.16-2.192-1.36-3.696-3.424-3.696-2.032 0-3.648 1.552-3.648 4.224 0 2.352 1.456 3.936 3.616 3.936zm-2.304-4.784c.096-1.488 1.072-2.432 2.336-2.432 1.264 0 2.048.912 2.176 2.432h-4.512zM91.04 412.208c2.56 0 4.384-2.256 4.384-5.536 0-3.472-1.792-5.552-4.384-5.552-2.528 0-4.368 2.096-4.368 5.552 0 3.456 1.776 5.536 4.368 5.536zm0-1.088c-1.648 0-2.976-1.472-2.976-4.448 0-2.688 1.008-4.432 2.976-4.432 2 0 2.992 1.664 2.992 4.432 0 2.752-1.136 4.448-2.992 4.448zm9.95.992c1.584 0 3.008-1.392 3.008-4.064 0-2.848-1.216-4.08-2.976-4.08-1.264 0-2.064.768-2.544 1.536v-1.392h-1.184v10.56h1.232v-3.712a3.182 3.182 0 0 0 2.464 1.152zm-.336-.912c-1.136 0-1.712-.704-2.128-1.296v-3.328c.56-1.104 1.296-1.584 2.208-1.584 1.36 0 1.968.976 1.968 3.088 0 2.272-.8 3.12-2.048 3.12zm7.363.912c.432 0 .912-.048 1.344-.128v-.976a7.697 7.697 0 0 1-1.12.096c-.672-.016-1.104-.384-1.104-1.216v-4.784h1.776v-.992h-1.776v-2.064h-1.136l-.064 2.064h-1.296v.992h1.28v4.72c0 1.632.768 2.288 2.096 2.288zm4.042-9.392v-1.408h-1.36v1.408h1.36zm-.048 9.28v-7.888h-1.248V412h1.248zm5.351.128c1.952 0 3.568-1.616 3.568-4.096 0-2.432-1.408-4.064-3.568-4.064-1.936 0-3.536 1.584-3.536 4.048 0 2.496 1.504 4.112 3.536 4.112zm-.016-.928c-1.328 0-2.208-1.184-2.208-3.168 0-2.032.96-3.088 2.208-3.088 1.312 0 2.272 1.024 2.272 3.072 0 2.128-.976 3.184-2.272 3.184zm6.618.8v-5.408c.656-.944 1.488-1.584 2.496-1.584.896 0 1.312.448 1.312 1.392v5.6h1.248v-5.584c0-1.616-.72-2.448-2.192-2.448-1.408 0-2.384.928-2.928 1.712v-1.568h-1.184V412h1.248zm14.791.208c2.176 0 3.696-1.616 3.696-3.664 0-2.016-1.296-3.504-3.488-3.504-1.328 0-2.704.784-3.168 2.272 0-.064-.016-.304-.016-.352 0-3.376 1.232-4.752 2.96-4.752 1.152 0 1.872.592 2.256 1.664l1.184-.208c-.464-1.632-1.648-2.544-3.312-2.544-2.88 0-4.352 2.448-4.352 5.6v.128c0 3.52 1.792 5.36 4.24 5.36zm0-1.04c-1.552 0-2.592-1.072-2.768-2.672 0-.048 0-.096.016-.144.32-1.168 1.296-2.272 2.752-2.272 1.584 0 2.448 1.088 2.448 2.528v.08c0 1.52-1.04 2.48-2.448 2.48zm12.768.832 3.6-10.672h-1.216l-2.576 7.776c-.064.16-.304.944-.352 1.152-.032-.208-.288-1.04-.32-1.152l-2.624-7.776h-1.408l3.6 10.672h1.296zm6.268.096c1.472 0 2.4-.56 3.024-1.424-.016.4.048 1.056.144 1.328h1.184a6.289 6.289 0 0 1-.176-1.536v-3.584c0-1.984-.864-2.912-3.104-2.912-1.872 0-3.104.768-3.392 2.208l1.152.128c.256-1.008.928-1.36 2.208-1.36 1.328 0 1.84.464 1.936 1.328.032.192.032.464.032.736-.624.016-1.152.016-1.792.096-2.16.256-3.728 1.104-3.728 2.816 0 1.44 1.12 2.176 2.512 2.176zm.368-.912c-1.056 0-1.584-.48-1.584-1.392 0-.992.88-1.68 2.592-1.904.496-.064 1.072-.064 1.632-.064v1.632c-.336.816-1.136 1.728-2.64 1.728zm7.462.816v-10.672h-1.248V412h1.248zm4.823.128c1.056 0 2.016-.464 2.64-1.472V412h1.152v-7.888h-1.232v5.6c-.528.96-1.296 1.472-2.176 1.472-1.104 0-1.568-.496-1.568-1.744v-5.328h-1.248v5.296c0 1.984 1.008 2.72 2.432 2.72zm9.202 0c1.568 0 2.784-.816 3.328-2.336l-1.088-.16c-.448 1.168-1.264 1.552-2.128 1.552-1.536 0-2.432-1.008-2.464-2.992h5.824c-.016-.176 0-.352-.016-.528-.16-2.192-1.36-3.696-3.424-3.696-2.032 0-3.648 1.552-3.648 4.224 0 2.352 1.456 3.936 3.616 3.936zm-2.304-4.784c.096-1.488 1.072-2.432 2.336-2.432 1.264 0 2.048.912 2.176 2.432h-4.512z" fill="#111"/>
        <path d="M57 230h400H57zm401 190a3 3 0 0 1-3 3H59a3 3 0 0 1-3-3h2a1 1 0 0 0 1 1h396a1 1 0 0 0 1-1h2zm-399 3a3 3 0 0 1-3-3V230h2v190a1 1 0 0 0 1 1v2zm399-193v190a3 3 0 0 1-3 3v-2a1 1 0 0 0 1-1V230h2z" fill="#D4D4D4" mask="url(#qv0b2q4qjf)"/>
    </g>
    <rect x="79" width="28" height="28" rx="14" fill="#94538C"/>
    <path d="M96.832 20v-1.12h-6.08c3.968-2.704 5.84-4.448 5.84-6.464 0-1.968-1.344-3.264-3.6-3.264-2.192 0-3.504 1.248-3.856 3.184l1.232.24c.192-1.52 1.184-2.336 2.576-2.336 1.584 0 2.304.928 2.304 2.096 0 1.808-1.136 2.944-6.112 6.624V20h7.696z" fill="#fff"/>
    <path stroke="#94538C" stroke-dasharray="2 2" d="M93.5 28v16M72.5 104v10"/>
    <rect x="58" y="114" width="28" height="28" rx="14" fill="#94538C"/>
    <path d="M71.944 134.192c2.528 0 3.92-1.36 3.92-3.136 0-1.408-.944-2.368-2.448-2.672 1.312-.32 2.048-1.248 2.048-2.496 0-1.6-1.232-2.752-3.584-2.752-1.76 0-3.136.88-3.696 2.544l1.2.24c.304-1.04 1.2-1.696 2.528-1.696 1.376 0 2.224.656 2.224 1.792 0 1.232-.848 1.888-2.496 1.888h-1.232v1.088h1.232c1.872 0 2.88.832 2.88 2.048 0 1.168-.832 2.096-2.608 2.096-1.664 0-2.496-.592-2.864-1.92l-1.248.24c.496 1.888 1.92 2.736 4.144 2.736z" fill="#fff"/>
    <rect y="278" width="28" height="28" rx="14" fill="#94538C"/>
    <path d="M17.57 287.328h-7.04l-.144 1.152h5.872c-2.512 3.008-3.888 6.848-4 9.168-.016.128-.016.24-.016.352h1.52c-.017-.064-.017-.24-.017-.4 0-2.448.945-5.92 3.825-9.392v-.88z" fill="#fff"/>
    <path stroke="#94538C" stroke-dasharray="2 2" d="M28 291.5h42"/>
    <rect x="418" width="28" height="28" rx="14" fill="#94538C"/>
    <path d="M434.376 20v-2.496h1.712V16.4h-1.712V9.12h-1.408l-5.168 7.36v1.024h5.328V20h1.248zm-1.248-9.424V16.4h-4.144l4.144-5.824z" fill="#fff"/>
    <path stroke="#94538C" stroke-dasharray="2 2" d="M432.5 28v24"/>
    <rect y="54" width="28" height="28" rx="14" fill="#94538C"/>
    <path d="M17.293 74v-1.056H14.94V63.12h-.96c-.688 1.136-1.44 1.968-2.608 2.608v1.376c1.52-.864 1.904-1.552 2.288-2v7.84h-2.4V74h6.032z" fill="#fff"/>
    <path stroke="#94538C" stroke-dasharray="2 2" d="M28 67.5h37M457 62.5h27"/>
    <rect x="484" y="49" width="28" height="28" rx="14" fill="#94538C"/>
    <path d="M497.96 69.192c2.016 0 3.872-1.376 3.872-3.776 0-2.128-1.36-3.632-3.584-3.632-1.184 0-2.24.656-2.688 1.28l.24-3.584h5.216l.112-1.152h-6.32l-.352 5.776 1.056.24c.544-.864 1.296-1.52 2.56-1.52 1.632 0 2.48 1.2 2.48 2.608 0 1.648-1.072 2.72-2.64 2.72-1.424 0-2.352-.608-2.848-1.872l-1.072.384c.544 1.6 2 2.528 3.968 2.528z" fill="#fff"/>
    <rect y="230" width="28" height="28" rx="14" fill="#94538C"/>
    <path d="M14.396 250.208c2.176 0 3.696-1.616 3.696-3.664 0-2.016-1.296-3.504-3.488-3.504-1.328 0-2.704.784-3.168 2.272 0-.064-.016-.304-.016-.352 0-3.376 1.232-4.752 2.96-4.752 1.152 0 1.872.592 2.256 1.664l1.184-.208c-.464-1.632-1.648-2.544-3.312-2.544-2.88 0-4.352 2.448-4.352 5.6v.128c0 3.52 1.792 5.36 4.24 5.36zm0-1.04c-1.552 0-2.592-1.072-2.768-2.672 0-.048 0-.096.016-.144.32-1.168 1.296-2.272 2.752-2.272 1.584 0 2.448 1.088 2.448 2.528v.08c0 1.52-1.04 2.48-2.448 2.48z" fill="#fff"/>
    <path stroke="#94538C" stroke-dasharray="2 2" d="M28 243.5h37M190 278.5h294"/>
    <rect x="484" y="265" width="28" height="28" rx="14" fill="#94538C"/>
    <path d="M497.523 281.304c1.12 0 2.384-.704 2.928-1.68v.416c-.064 2.592-1.168 4.096-2.736 4.096-1.328 0-1.968-.448-2.336-1.408l-1.184.208c.512 1.536 1.68 2.256 3.472 2.256 2.544 0 4.08-2.304 4.08-5.92v-.048c0-2.896-1.36-5.088-4.032-5.088-2.416 0-3.712 1.84-3.712 3.68 0 2.352 1.536 3.488 3.52 3.488zm.128-1.056c-1.536 0-2.368-.8-2.368-2.4v-.112c0-1.28.752-2.544 2.448-2.544 1.52 0 2.496 1.056 2.608 3.072v.256c-.592 1.088-1.712 1.728-2.688 1.728z" fill="#fff"/>
    <path stroke="#94538C" stroke-dasharray="2 2" d="M441 243.5h43"/>
    <rect x="484" y="230" width="28" height="28" rx="14" fill="#94538C"/>
    <path d="M498.026 250.192c2.464 0 3.84-1.264 3.84-2.992 0-1.616-1.088-2.352-2.592-2.928 1.232-.496 2.128-1.232 2.128-2.496 0-1.584-1.312-2.64-3.44-2.64-2.112 0-3.408 1.248-3.408 2.736 0 1.248.72 2.016 2.048 2.592-1.376.544-2.464 1.36-2.464 2.816 0 1.744 1.52 2.912 3.888 2.912zm.112-6.336-.512-.208c-1.184-.448-1.824-.928-1.824-1.808 0-1.056.912-1.68 2.16-1.68 1.504 0 2.288.608 2.288 1.664 0 .928-.832 1.552-2.112 2.032zm-.112 5.344c-1.728 0-2.704-.768-2.704-1.936 0-1.28.992-1.824 2.352-2.32l.592.224c1.6.56 2.352 1.072 2.352 2.096 0 1.248-.96 1.936-2.592 1.936z" fill="#fff"/>
    <defs>
        <clipPath id="8h95vx514a">
            <rect x="57" y="36" width="400" height="68" rx="2" fill="#fff"/>
        </clipPath>
        <clipPath id="vql7r9ek8b">
            <path fill="#fff" transform="translate(425 52)" d="M0 0h16v16H0z"/>
        </clipPath>
        <clipPath id="91ls2hr1fc">
            <rect x="57" y="182" width="400" height="240" rx="2" fill="#fff"/>
        </clipPath>
        <clipPath id="a3mg3jvykd">
            <path fill="#fff" transform="translate(425 198)" d="M0 0h16v16H0z"/>
        </clipPath>
        <clipPath id="4y3hk32q0e">
            <path fill="#fff" transform="translate(66 238)" d="M0 0h16v16H0z"/>
        </clipPath>
    </defs>
</svg>
