<svg width="589" height="360" viewBox="0 0 589 360" fill="none" xmlns="http://www.w3.org/2000/svg">
<g clip-path="url(#clip0)">
<rect width="589" height="360" fill="white"/>
<rect opacity="0.25" width="1440" height="1024" fill="#2A2A2A"/>
<g filter="url(#filter0_d)">
<rect y="177" width="589" height="183" fill="white"/>
</g>
<circle cx="557" cy="209" r="15.5" fill="white" stroke="#D5D5D5"/>
<path d="M557 207.586L561.293 203.293L562.707 204.707L558.414 209L562.707 213.293L561.293 214.707L557 210.414L552.707 214.707L551.293 213.293L555.586 209L551.293 204.707L552.707 203.293L557 207.586Z" fill="#111111"/>
<rect x="234" y="125" width="29" height="28" rx="14" fill="#94538C"/>
<path d="M252.374 145.5V143.304H249.836V133.296H247.73C246.992 134.214 245.894 135.204 244.688 135.6V137.904C245.696 137.49 246.542 136.968 247.064 136.59V143.304H244.418V145.5H252.374Z" fill="white"/>
<line x1="249" y1="153" x2="249" y2="177" stroke="#94538C"/>
<rect x="544" y="141" width="29" height="28" rx="14" fill="#94538C"/>
<path d="M562.684 161.5V159.286H557.122C560.488 156.982 562.558 155.47 562.558 153.058C562.558 150.736 560.884 149.278 558.364 149.278C555.952 149.278 554.062 150.502 553.612 153.31L556.096 153.76C556.258 152.266 556.96 151.528 558.058 151.528C559.12 151.528 559.696 152.212 559.696 153.166C559.696 154.894 558.4 156.01 553.63 159.592V161.5H562.684Z" fill="white"/>
<line x1="559" y1="169" x2="559" y2="193" stroke="#94538C"/>
<rect x="486" y="73" width="29" height="28" rx="14" fill="#94538C"/>
<path d="M500.364 93.716C503.424 93.716 505.134 92.276 505.134 90.098C505.134 88.604 504.306 87.596 502.776 87.218C504.018 86.858 504.738 85.868 504.738 84.482C504.738 82.7 503.118 81.278 500.454 81.278C498.186 81.278 496.278 82.286 495.702 84.482L497.988 84.95C498.24 83.924 499.068 83.42 500.184 83.42C501.39 83.42 501.984 83.978 501.984 84.842C501.984 85.76 501.318 86.282 500.004 86.282H498.726V88.37H500.04C501.444 88.37 502.29 88.856 502.29 89.99C502.29 90.926 501.642 91.574 500.202 91.574C498.942 91.574 498.132 91.016 497.88 89.792L495.342 90.314C495.738 92.546 497.646 93.716 500.364 93.716Z" fill="white"/>
<line x1="501" y1="101" x2="501" y2="125" stroke="#94538C"/>
</g>
<defs>
<filter id="filter0_d" x="-8" y="173" width="605" height="199" filterUnits="userSpaceOnUse" color-interpolation-filters="sRGB">
<feFlood flood-opacity="0" result="BackgroundImageFix"/>
<feColorMatrix in="SourceAlpha" type="matrix" values="0 0 0 0 0 0 0 0 0 0 0 0 0 0 0 0 0 0 127 0" result="hardAlpha"/>
<feOffset dy="4"/>
<feGaussianBlur stdDeviation="4"/>
<feColorMatrix type="matrix" values="0 0 0 0 0.25098 0 0 0 0 0.25098 0 0 0 0 0.25098 0 0 0 0.25 0"/>
<feBlend mode="normal" in2="BackgroundImageFix" result="effect1_dropShadow"/>
<feBlend mode="normal" in="SourceGraphic" in2="effect1_dropShadow" result="shape"/>
</filter>
<clipPath id="clip0">
<rect width="589" height="360" fill="white"/>
</clipPath>
</defs>
</svg>
