<svg width="72" height="115" viewBox="0 0 72 115" fill="none" xmlns="http://www.w3.org/2000/svg">
<path d="M12 70.24L10.58 68.82L18.5 61L10.66 53.18L12 51.76L21.34 61L12 70.24Z" fill="#111111"/>
<path d="M0 45V44.5H-0.5V45H0ZM32 45H32.5V44.5H32V45ZM32 77V77.5H32.5V77H32ZM0 77H-0.5V77.5H0V77ZM-0.5 45V46H0.5V45H-0.5ZM-0.5 48V50H0.5V48H-0.5ZM-0.5 52V54H0.5V52H-0.5ZM-0.5 56V58H0.5V56H-0.5ZM-0.5 60V62H0.5V60H-0.5ZM-0.5 64V66H0.5V64H-0.5ZM-0.5 68V70H0.5V68H-0.5ZM-0.5 72V74H0.5V72H-0.5ZM-0.5 76V77H0.5V76H-0.5ZM0 77.5H1V76.5H0V77.5ZM3 77.5H5V76.5H3V77.5ZM7 77.5H9V76.5H7V77.5ZM11 77.5H13V76.5H11V77.5ZM15 77.5H17V76.5H15V77.5ZM19 77.5H21V76.5H19V77.5ZM23 77.5H25V76.5H23V77.5ZM27 77.5H29V76.5H27V77.5ZM31 77.5H32V76.5H31V77.5ZM32.5 77V76H31.5V77H32.5ZM32.5 74V72H31.5V74H32.5ZM32.5 70V68H31.5V70H32.5ZM32.5 66V64H31.5V66H32.5ZM32.5 62V60H31.5V62H32.5ZM32.5 58V56H31.5V58H32.5ZM32.5 54V52H31.5V54H32.5ZM32.5 50V48H31.5V50H32.5ZM32.5 46V45H31.5V46H32.5ZM32 44.5H31V45.5H32V44.5ZM29 44.5H27V45.5H29V44.5ZM25 44.5H23V45.5H25V44.5ZM21 44.5H19V45.5H21V44.5ZM17 44.5H15V45.5H17V44.5ZM13 44.5H11V45.5H13V44.5ZM9 44.5H7V45.5H9V44.5ZM5 44.5H3V45.5H5V44.5ZM1 44.5H0V45.5H1V44.5ZM0 45V44H-1V45H0ZM32 45H33V44H32V45ZM32 77V78H33V77H32ZM0 77H-1V78H0V77ZM-1 45V46H1V45H-1ZM-1 48V50H1V48H-1ZM-1 52V54H1V52H-1ZM-1 56V58H1V56H-1ZM-1 60V62H1V60H-1ZM-1 64V66H1V64H-1ZM-1 68V70H1V68H-1ZM-1 72V74H1V72H-1ZM-1 76V77H1V76H-1ZM0 78H1V76H0V78ZM3 78H5V76H3V78ZM7 78H9V76H7V78ZM11 78H13V76H11V78ZM15 78H17V76H15V78ZM19 78H21V76H19V78ZM23 78H25V76H23V78ZM27 78H29V76H27V78ZM31 78H32V76H31V78ZM33 77V76H31V77H33ZM33 74V72H31V74H33ZM33 70V68H31V70H33ZM33 66V64H31V66H33ZM33 62V60H31V62H33ZM33 58V56H31V58H33ZM33 54V52H31V54H33ZM33 50V48H31V50H33ZM33 46V45H31V46H33ZM32 44H31V46H32V44ZM29 44H27V46H29V44ZM25 44H23V46H25V44ZM21 44H19V46H21V44ZM17 44H15V46H17V44ZM13 44H11V46H13V44ZM9 44H7V46H9V44ZM5 44H3V46H5V44ZM1 44H0V46H1V44Z" fill="#94538C"/>
<rect width="28" height="28" rx="14" fill="#94538C"/>
<path d="M17.2926 20V18.944H14.9406V9.12H13.9806C13.2926 10.256 12.5406 11.088 11.3726 11.728V13.104C12.8926 12.24 13.2766 11.552 13.6606 11.104V18.944H11.2606V20H17.2926Z" fill="#FCFCFC"/>
<line x1="14.5" y1="28" x2="14.5" y2="45" stroke="#94538C" stroke-dasharray="2 2"/>
<line x1="24" y1="61.5" x2="40" y2="61.5" stroke="#94538C"/>
<rect x="44" y="48" width="28" height="28" rx="14" fill="#94538C"/>
<path d="M61.8319 68V66.88H55.7519C59.7199 64.176 61.5919 62.432 61.5919 60.416C61.5919 58.448 60.2479 57.152 57.9919 57.152C55.7999 57.152 54.4879 58.4 54.1359 60.336L55.3679 60.576C55.5599 59.056 56.5519 58.24 57.9439 58.24C59.5279 58.24 60.2479 59.168 60.2479 60.336C60.2479 62.144 59.1119 63.28 54.1359 66.96V68H61.8319Z" fill="#FCFCFC"/>
<rect y="87" width="28" height="28" rx="14" fill="#94538C"/>
<path d="M13.9439 107.192C16.4719 107.192 17.8639 105.832 17.8639 104.056C17.8639 102.648 16.9199 101.688 15.4159 101.384C16.7279 101.064 17.4639 100.136 17.4639 98.888C17.4639 97.288 16.2319 96.136 13.8799 96.136C12.1199 96.136 10.7439 97.016 10.1839 98.68L11.3839 98.92C11.6879 97.88 12.5839 97.224 13.9119 97.224C15.2879 97.224 16.1359 97.88 16.1359 99.016C16.1359 100.248 15.2879 100.904 13.6399 100.904H12.4079V101.992H13.6399C15.5119 101.992 16.5199 102.824 16.5199 104.04C16.5199 105.208 15.6879 106.136 13.9119 106.136C12.2479 106.136 11.4159 105.544 11.0479 104.216L9.79994 104.456C10.2959 106.344 11.7199 107.192 13.9439 107.192Z" fill="#FCFCFC"/>
</svg>
