<svg width="474" height="163" viewBox="0 0 474 163" fill="none" xmlns="http://www.w3.org/2000/svg">
<rect x="166" width="40" height="40" rx="20" fill="#494949"/>
<g clip-path="url(#clip0_2_31424)">
<path d="M192 19.5H186.5V14H185.5V19.5H180V20.5H185.5V26H186.5V20.5H192V19.5Z" fill="white"/>
</g>
<rect x="304" width="40" height="40" rx="20" fill="#494949"/>
<g clip-path="url(#clip1_2_31424)">
<path d="M330 19.5H324.5V14H323.5V19.5H318V20.5H323.5V26H324.5V20.5H330V19.5Z" fill="white"/>
</g>
<line x1="332" y1="44.5" x2="396" y2="44.5" stroke="#94538C" stroke-dasharray="2 2"/>
<path d="M404.597 51.128C406.549 51.128 408.165 49.512 408.165 47.032C408.165 44.6 406.757 42.968 404.597 42.968C402.661 42.968 401.061 44.552 401.061 47.016C401.061 49.512 402.565 51.128 404.597 51.128ZM404.581 50.2C403.253 50.2 402.373 49.016 402.373 47.032C402.373 45 403.333 43.944 404.581 43.944C405.893 43.944 406.853 44.968 406.853 47.016C406.853 49.144 405.877 50.2 404.581 50.2ZM415.55 44.056H417.47V43.112H415.55C415.55 43.064 415.55 42.712 415.55 42.344C415.55 41.464 415.934 41.016 416.894 41.016C417.102 41.016 417.598 41.048 417.934 41.096V40.104C417.63 40.056 417.102 40.008 416.798 40.008C415.15 40.008 414.318 40.76 414.318 42.312C414.318 42.424 414.318 43 414.318 43.112H411.326C411.326 43.064 411.326 42.712 411.326 42.344C411.326 41.464 411.71 41.016 412.654 41.016C412.878 41.016 413.358 41.048 413.71 41.096V40.104C413.406 40.056 412.878 40.008 412.574 40.008C410.91 40.008 410.078 40.76 410.078 42.312C410.078 42.424 410.078 43 410.078 43.112H408.686V44.056H410.078V51H411.326V44.056H414.318V51H415.55V44.056ZM421.102 51.128C423.022 51.128 424.27 50.152 424.27 48.696C424.27 47.128 422.894 46.68 421.278 46.36C420.014 46.088 419.07 45.928 419.07 45.064C419.07 44.344 419.79 43.912 420.846 43.912C421.918 43.912 422.638 44.392 422.942 45.224L424.046 44.984C423.646 43.752 422.622 42.968 420.846 42.968C419.086 42.968 417.918 43.848 417.918 45.144C417.918 46.696 419.278 47.112 420.894 47.416C422.062 47.672 423.118 47.864 423.118 48.808C423.118 49.64 422.35 50.2 421.102 50.2C419.742 50.2 418.862 49.576 418.606 48.648L417.486 48.872C417.87 50.312 419.102 51.128 421.102 51.128ZM428.974 51.128C430.542 51.128 431.758 50.312 432.302 48.792L431.214 48.632C430.766 49.8 429.95 50.184 429.086 50.184C427.55 50.184 426.654 49.176 426.622 47.192H432.446C432.43 47.016 432.446 46.84 432.43 46.664C432.27 44.472 431.07 42.968 429.006 42.968C426.974 42.968 425.358 44.52 425.358 47.192C425.358 49.544 426.814 51.128 428.974 51.128ZM426.67 46.344C426.766 44.856 427.742 43.912 429.006 43.912C430.27 43.912 431.054 44.824 431.182 46.344H426.67ZM436.377 51.112C436.809 51.112 437.289 51.064 437.721 50.984V50.008C437.433 50.056 436.969 50.104 436.601 50.104C435.929 50.088 435.497 49.72 435.497 48.888V44.104H437.273V43.112H435.497V41.048H434.361L434.297 43.112H433.001V44.104H434.281V48.824C434.281 50.456 435.049 51.112 436.377 51.112ZM440.739 44.856V43.112H438.995V44.856H440.739ZM440.739 51V49.24H438.995V51H440.739ZM450.251 51.192C452.699 51.192 454.235 49.032 454.235 45.72C454.235 42.296 452.699 40.136 450.235 40.136C447.675 40.136 446.187 42.28 446.187 45.672C446.187 49.016 447.691 51.192 450.251 51.192ZM450.251 50.152C448.539 50.152 447.531 48.488 447.531 45.672C447.531 42.728 448.395 41.208 450.235 41.208C451.963 41.208 452.891 42.872 452.891 45.688C452.891 48.584 451.915 50.152 450.251 50.152ZM459.499 51.192C461.515 51.192 463.371 49.816 463.371 47.416C463.371 45.288 462.011 43.784 459.787 43.784C458.603 43.784 457.547 44.44 457.099 45.064L457.339 41.48H462.555L462.667 40.328H456.347L455.995 46.104L457.051 46.344C457.595 45.48 458.347 44.824 459.611 44.824C461.243 44.824 462.091 46.024 462.091 47.432C462.091 49.08 461.019 50.152 459.451 50.152C458.027 50.152 457.099 49.544 456.603 48.28L455.531 48.664C456.075 50.264 457.531 51.192 459.499 51.192ZM468.907 51.192C471.355 51.192 472.891 49.032 472.891 45.72C472.891 42.296 471.355 40.136 468.891 40.136C466.331 40.136 464.843 42.28 464.843 45.672C464.843 49.016 466.347 51.192 468.907 51.192ZM468.907 50.152C467.195 50.152 466.187 48.488 466.187 45.672C466.187 42.728 467.051 41.208 468.891 41.208C470.619 41.208 471.547 42.872 471.547 45.688C471.547 48.584 470.571 50.152 468.907 50.152Z" fill="#94538C"/>
<path d="M4.15925 48.128C6.11125 48.128 7.72725 46.512 7.72725 44.032C7.72725 41.6 6.31925 39.968 4.15925 39.968C2.22325 39.968 0.62325 41.552 0.62325 44.016C0.62325 46.512 2.12725 48.128 4.15925 48.128ZM4.14325 47.2C2.81525 47.2 1.93525 46.016 1.93525 44.032C1.93525 42 2.89525 40.944 4.14325 40.944C5.45525 40.944 6.41525 41.968 6.41525 44.016C6.41525 46.144 5.43925 47.2 4.14325 47.2ZM15.1125 41.056H17.0325V40.112H15.1125C15.1125 40.064 15.1125 39.712 15.1125 39.344C15.1125 38.464 15.4965 38.016 16.4565 38.016C16.6645 38.016 17.1605 38.048 17.4965 38.096V37.104C17.1925 37.056 16.6645 37.008 16.3605 37.008C14.7125 37.008 13.8805 37.76 13.8805 39.312C13.8805 39.424 13.8805 40 13.8805 40.112H10.8885C10.8885 40.064 10.8885 39.712 10.8885 39.344C10.8885 38.464 11.2725 38.016 12.2165 38.016C12.4405 38.016 12.9205 38.048 13.2725 38.096V37.104C12.9685 37.056 12.4405 37.008 12.1365 37.008C10.4725 37.008 9.6405 37.76 9.6405 39.312C9.6405 39.424 9.6405 40 9.6405 40.112H8.2485V41.056H9.6405V48H10.8885V41.056H13.8805V48H15.1125V41.056ZM20.6648 48.128C22.5848 48.128 23.8328 47.152 23.8328 45.696C23.8328 44.128 22.4568 43.68 20.8408 43.36C19.5768 43.088 18.6328 42.928 18.6328 42.064C18.6328 41.344 19.3528 40.912 20.4088 40.912C21.4808 40.912 22.2008 41.392 22.5048 42.224L23.6088 41.984C23.2088 40.752 22.1848 39.968 20.4088 39.968C18.6488 39.968 17.4808 40.848 17.4808 42.144C17.4808 43.696 18.8408 44.112 20.4568 44.416C21.6248 44.672 22.6808 44.864 22.6808 45.808C22.6808 46.64 21.9128 47.2 20.6648 47.2C19.3048 47.2 18.4248 46.576 18.1688 45.648L17.0488 45.872C17.4328 47.312 18.6648 48.128 20.6648 48.128ZM28.5365 48.128C30.1045 48.128 31.3205 47.312 31.8645 45.792L30.7765 45.632C30.3285 46.8 29.5125 47.184 28.6485 47.184C27.1125 47.184 26.2165 46.176 26.1845 44.192H32.0085C31.9925 44.016 32.0085 43.84 31.9925 43.664C31.8325 41.472 30.6325 39.968 28.5685 39.968C26.5365 39.968 24.9205 41.52 24.9205 44.192C24.9205 46.544 26.3765 48.128 28.5365 48.128ZM26.2325 43.344C26.3285 41.856 27.3045 40.912 28.5685 40.912C29.8325 40.912 30.6165 41.824 30.7445 43.344H26.2325ZM35.9393 48.112C36.3713 48.112 36.8513 48.064 37.2833 47.984V47.008C36.9953 47.056 36.5312 47.104 36.1633 47.104C35.4913 47.088 35.0593 46.72 35.0593 45.888V41.104H36.8353V40.112H35.0593V38.048H33.9233L33.8593 40.112H32.5633V41.104H33.8433V45.824C33.8433 47.456 34.6113 48.112 35.9393 48.112ZM40.3011 41.856V40.112H38.5571V41.856H40.3011ZM40.3011 48V46.24H38.5571V48H40.3011ZM48.7254 48.128C49.8774 48.128 50.6774 47.664 51.3014 46.8V48H52.4694V37.328H51.2694V41.184C50.9014 40.656 50.1494 39.968 48.9494 39.968C46.9334 39.968 45.7174 41.744 45.7174 44.08C45.7174 46.656 46.8214 48.128 48.7254 48.128ZM49.0614 47.184C47.7494 47.184 47.0134 46.272 47.0134 44.08C47.0134 42.064 47.7174 40.944 49.1414 40.944C50.3094 40.944 50.8534 41.616 51.2534 42.368V45.584C50.9174 46.464 50.2454 47.184 49.0614 47.184ZM57.9271 48.128C59.4951 48.128 60.7111 47.312 61.2551 45.792L60.1671 45.632C59.7191 46.8 58.9031 47.184 58.0391 47.184C56.5031 47.184 55.6071 46.176 55.5751 44.192H61.3991C61.3831 44.016 61.3991 43.84 61.3831 43.664C61.2231 41.472 60.0231 39.968 57.9591 39.968C55.9271 39.968 54.3111 41.52 54.3111 44.192C54.3111 46.544 55.7671 48.128 57.9271 48.128ZM55.6231 43.344C55.7191 41.856 56.6951 40.912 57.9591 40.912C59.2231 40.912 60.0071 41.824 60.1351 43.344H55.6231ZM64.4819 48V41.056H66.4019V40.112H64.4819C64.4819 40.064 64.4819 39.728 64.4819 39.36C64.4819 38.48 64.8659 38.032 65.8259 38.032C66.0339 38.032 66.5299 38.064 66.8659 38.112V37.12C66.5619 37.072 66.0339 37.024 65.7299 37.024C64.0819 37.024 63.2499 37.776 63.2499 39.328C63.2499 39.44 63.2499 40 63.2499 40.112H61.8579V41.056H63.2499V48H64.4819ZM69.4161 48.096C70.8881 48.096 71.8161 47.536 72.4401 46.672C72.4241 47.072 72.4881 47.728 72.5841 48H73.7681C73.6401 47.504 73.5921 46.96 73.5921 46.464V42.88C73.5921 40.896 72.7281 39.968 70.4881 39.968C68.6161 39.968 67.3841 40.736 67.0961 42.176L68.2481 42.304C68.5041 41.296 69.1761 40.944 70.4561 40.944C71.7841 40.944 72.2961 41.408 72.3921 42.272C72.4241 42.464 72.4241 42.736 72.4241 43.008C71.8001 43.024 71.2721 43.024 70.6321 43.104C68.4721 43.36 66.9041 44.208 66.9041 45.92C66.9041 47.36 68.0241 48.096 69.4161 48.096ZM69.7841 47.184C68.7281 47.184 68.2001 46.704 68.2001 45.792C68.2001 44.8 69.0801 44.112 70.7921 43.888C71.2881 43.824 71.8641 43.824 72.4241 43.824V45.456C72.0881 46.272 71.2881 47.184 69.7841 47.184ZM78.3656 48.128C79.4216 48.128 80.3816 47.664 81.0056 46.656V48H82.1576V40.112H80.9256V45.712C80.3976 46.672 79.6296 47.184 78.7496 47.184C77.6456 47.184 77.1816 46.688 77.1816 45.44V40.112H75.9336V45.408C75.9336 47.392 76.9416 48.128 78.3656 48.128ZM85.8238 48V37.328H84.5758V48H85.8238ZM90.4549 48.112C90.8869 48.112 91.3669 48.064 91.7989 47.984V47.008C91.5109 47.056 91.0469 47.104 90.6789 47.104C90.0069 47.088 89.5749 46.72 89.5749 45.888V41.104H91.3509V40.112H89.5749V38.048H88.4389L88.3749 40.112H87.0789V41.104H88.3589V45.824C88.3589 47.456 89.1269 48.112 90.4549 48.112Z" fill="#94538C"/>
<line x1="96" y1="41.5" x2="180" y2="41.5" stroke="#94538C" stroke-dasharray="2 2"/>
<g filter="url(#filter0_d_2_31424)">
<path d="M194.27 30.28C193.99 29.92 193.64 29.19 193.03 28.28C192.68 27.78 191.82 26.83 191.56 26.34C191.373 26.0422 191.318 25.6796 191.41 25.34C191.567 24.6942 192.18 24.2658 192.84 24.34C193.351 24.4426 193.82 24.693 194.19 25.06C194.448 25.3032 194.686 25.5674 194.9 25.85C195.06 26.05 195.1 26.13 195.28 26.36C195.46 26.59 195.58 26.82 195.49 26.48C195.42 25.98 195.3 25.14 195.13 24.39C195 23.82 194.97 23.73 194.85 23.3C194.73 22.87 194.66 22.51 194.53 22.02C194.411 21.5386 194.318 21.0512 194.25 20.56C194.124 19.9317 194.216 19.2792 194.51 18.71C194.859 18.3814 195.372 18.2946 195.81 18.49C196.251 18.8153 196.579 19.2696 196.75 19.79C197.012 20.4304 197.187 21.1031 197.27 21.79C197.43 22.79 197.74 24.25 197.75 24.55C197.75 24.18 197.68 23.4 197.75 23.05C197.819 22.6851 198.073 22.3823 198.42 22.25C198.718 22.1586 199.033 22.1381 199.34 22.19C199.65 22.2548 199.925 22.4331 200.11 22.69C200.342 23.2734 200.47 23.8926 200.49 24.52C200.517 23.9706 200.611 23.4265 200.77 22.9C200.937 22.6645 201.181 22.4948 201.46 22.42C201.791 22.3595 202.129 22.3595 202.46 22.42C202.731 22.5106 202.968 22.6815 203.14 22.91C203.352 23.4403 203.48 24.0003 203.52 24.57C203.52 24.71 203.59 24.18 203.81 23.83C203.924 23.4906 204.211 23.238 204.562 23.1673C204.913 23.0966 205.275 23.2186 205.512 23.4873C205.749 23.756 205.824 24.1306 205.71 24.47C205.71 25.12 205.71 25.09 205.71 25.53C205.71 25.97 205.71 26.36 205.71 26.73C205.674 27.3152 205.593 27.8968 205.47 28.47C205.296 28.9771 205.054 29.4582 204.75 29.9C204.264 30.44 203.863 31.0502 203.56 31.71C203.485 32.0378 203.451 32.3738 203.46 32.71C203.459 33.0206 203.499 33.33 203.58 33.63C203.171 33.6732 202.759 33.6732 202.35 33.63C201.96 33.57 201.48 32.79 201.35 32.55C201.286 32.4211 201.154 32.3397 201.01 32.3397C200.866 32.3397 200.734 32.4211 200.67 32.55C200.45 32.93 199.96 33.62 199.62 33.66C198.95 33.74 197.57 33.66 196.48 33.66C196.48 33.66 196.66 32.66 196.25 32.3C195.84 31.94 195.42 31.52 195.11 31.24L194.27 30.28Z" fill="white"/>
<path fill-rule="evenodd" clip-rule="evenodd" d="M194.27 30.28C193.99 29.92 193.64 29.19 193.03 28.28C192.68 27.78 191.82 26.83 191.56 26.34C191.373 26.0422 191.318 25.6796 191.41 25.34C191.567 24.6942 192.18 24.2658 192.84 24.34C193.351 24.4426 193.82 24.693 194.19 25.06C194.448 25.3032 194.686 25.5674 194.9 25.85C195.06 26.05 195.1 26.13 195.28 26.36C195.46 26.59 195.58 26.82 195.49 26.48C195.42 25.98 195.3 25.14 195.13 24.39C195 23.82 194.97 23.73 194.85 23.3C194.73 22.87 194.66 22.51 194.53 22.02C194.411 21.5386 194.318 21.0512 194.25 20.56C194.124 19.9317 194.216 19.2792 194.51 18.71C194.859 18.3814 195.372 18.2946 195.81 18.49C196.251 18.8153 196.579 19.2696 196.75 19.79C197.012 20.4304 197.187 21.1031 197.27 21.79C197.43 22.79 197.74 24.25 197.75 24.55C197.75 24.18 197.68 23.4 197.75 23.05C197.819 22.6851 198.073 22.3823 198.42 22.25C198.718 22.1586 199.033 22.1381 199.34 22.19C199.65 22.2548 199.925 22.4331 200.11 22.69C200.342 23.2734 200.47 23.8926 200.49 24.52C200.517 23.9706 200.611 23.4265 200.77 22.9C200.937 22.6645 201.181 22.4948 201.46 22.42C201.791 22.3595 202.129 22.3595 202.46 22.42C202.731 22.5106 202.968 22.6815 203.14 22.91C203.352 23.4403 203.48 24.0003 203.52 24.57C203.52 24.71 203.59 24.18 203.81 23.83C203.924 23.4906 204.211 23.238 204.562 23.1673C204.913 23.0966 205.275 23.2186 205.512 23.4873C205.749 23.756 205.824 24.1306 205.71 24.47C205.71 25.12 205.71 25.09 205.71 25.53C205.71 25.97 205.71 26.36 205.71 26.73C205.674 27.3152 205.593 27.8968 205.47 28.47C205.296 28.9771 205.054 29.4582 204.75 29.9C204.264 30.44 203.863 31.0502 203.56 31.71C203.485 32.0378 203.451 32.3738 203.46 32.71C203.459 33.0206 203.499 33.33 203.58 33.63C203.171 33.6732 202.759 33.6732 202.35 33.63C201.96 33.57 201.48 32.79 201.35 32.55C201.286 32.4211 201.154 32.3397 201.01 32.3397C200.866 32.3397 200.734 32.4211 200.67 32.55C200.45 32.93 199.96 33.62 199.62 33.66C198.95 33.74 197.57 33.66 196.48 33.66C196.48 33.66 196.66 32.66 196.25 32.3C195.84 31.94 195.42 31.52 195.11 31.24L194.27 30.28Z" stroke="black" stroke-width="0.75" stroke-linecap="round" stroke-linejoin="round"/>
<path d="M202.75 30.8259V27.3741C202.75 27.1675 202.582 27 202.375 27C202.168 27 202 27.1675 202 27.3741V30.8259C202 31.0325 202.168 31.2 202.375 31.2C202.582 31.2 202.75 31.0325 202.75 30.8259Z" fill="black"/>
<path d="M200.77 30.8246L200.75 27.3711C200.749 27.1649 200.58 26.9988 200.373 27C200.166 27.0012 199.999 27.1693 200 27.3754L200.02 30.8289C200.021 31.035 200.19 31.2012 200.397 31.2C200.604 31.1988 200.771 31.0307 200.77 30.8246Z" fill="black"/>
<path d="M198 27.379L198.02 30.8254C198.021 31.0335 198.19 31.2012 198.397 31.2C198.604 31.1988 198.771 31.0291 198.77 30.821L198.75 27.3746C198.749 27.1665 198.58 26.9988 198.373 27C198.166 27.0012 197.999 27.1709 198 27.379Z" fill="black"/>
</g>
<g filter="url(#filter1_d_2_31424)">
<path d="M333.27 30.28C332.99 29.92 332.64 29.19 332.03 28.28C331.68 27.78 330.82 26.83 330.56 26.34C330.373 26.0422 330.318 25.6796 330.41 25.34C330.567 24.6942 331.18 24.2658 331.84 24.34C332.351 24.4426 332.82 24.693 333.19 25.06C333.448 25.3032 333.686 25.5674 333.9 25.85C334.06 26.05 334.1 26.13 334.28 26.36C334.46 26.59 334.58 26.82 334.49 26.48C334.42 25.98 334.3 25.14 334.13 24.39C334 23.82 333.97 23.73 333.85 23.3C333.73 22.87 333.66 22.51 333.53 22.02C333.411 21.5386 333.318 21.0512 333.25 20.56C333.124 19.9317 333.216 19.2792 333.51 18.71C333.859 18.3814 334.372 18.2946 334.81 18.49C335.251 18.8153 335.579 19.2696 335.75 19.79C336.012 20.4304 336.187 21.1031 336.27 21.79C336.43 22.79 336.74 24.25 336.75 24.55C336.75 24.18 336.68 23.4 336.75 23.05C336.819 22.6851 337.073 22.3823 337.42 22.25C337.718 22.1586 338.033 22.1381 338.34 22.19C338.65 22.2548 338.925 22.4331 339.11 22.69C339.342 23.2734 339.47 23.8926 339.49 24.52C339.517 23.9706 339.611 23.4265 339.77 22.9C339.937 22.6645 340.181 22.4948 340.46 22.42C340.791 22.3595 341.129 22.3595 341.46 22.42C341.731 22.5106 341.968 22.6815 342.14 22.91C342.352 23.4403 342.48 24.0003 342.52 24.57C342.52 24.71 342.59 24.18 342.81 23.83C342.924 23.4906 343.211 23.238 343.562 23.1673C343.913 23.0966 344.275 23.2186 344.512 23.4873C344.749 23.756 344.824 24.1306 344.71 24.47C344.71 25.12 344.71 25.09 344.71 25.53C344.71 25.97 344.71 26.36 344.71 26.73C344.674 27.3152 344.593 27.8968 344.47 28.47C344.296 28.9771 344.054 29.4582 343.75 29.9C343.264 30.44 342.863 31.0502 342.56 31.71C342.485 32.0378 342.451 32.3738 342.46 32.71C342.459 33.0206 342.499 33.33 342.58 33.63C342.171 33.6732 341.759 33.6732 341.35 33.63C340.96 33.57 340.48 32.79 340.35 32.55C340.286 32.4211 340.154 32.3397 340.01 32.3397C339.866 32.3397 339.734 32.4211 339.67 32.55C339.45 32.93 338.96 33.62 338.62 33.66C337.95 33.74 336.57 33.66 335.48 33.66C335.48 33.66 335.66 32.66 335.25 32.3C334.84 31.94 334.42 31.52 334.11 31.24L333.27 30.28Z" fill="white"/>
<path fill-rule="evenodd" clip-rule="evenodd" d="M333.27 30.28C332.99 29.92 332.64 29.19 332.03 28.28C331.68 27.78 330.82 26.83 330.56 26.34C330.373 26.0422 330.318 25.6796 330.41 25.34C330.567 24.6942 331.18 24.2658 331.84 24.34C332.351 24.4426 332.82 24.693 333.19 25.06C333.448 25.3032 333.686 25.5674 333.9 25.85C334.06 26.05 334.1 26.13 334.28 26.36C334.46 26.59 334.58 26.82 334.49 26.48C334.42 25.98 334.3 25.14 334.13 24.39C334 23.82 333.97 23.73 333.85 23.3C333.73 22.87 333.66 22.51 333.53 22.02C333.411 21.5386 333.318 21.0512 333.25 20.56C333.124 19.9317 333.216 19.2792 333.51 18.71C333.859 18.3814 334.372 18.2946 334.81 18.49C335.251 18.8153 335.579 19.2696 335.75 19.79C336.012 20.4304 336.187 21.1031 336.27 21.79C336.43 22.79 336.74 24.25 336.75 24.55C336.75 24.18 336.68 23.4 336.75 23.05C336.819 22.6851 337.073 22.3823 337.42 22.25C337.718 22.1586 338.033 22.1381 338.34 22.19C338.65 22.2548 338.925 22.4331 339.11 22.69C339.342 23.2734 339.47 23.8926 339.49 24.52C339.517 23.9706 339.611 23.4265 339.77 22.9C339.937 22.6645 340.181 22.4948 340.46 22.42C340.791 22.3595 341.129 22.3595 341.46 22.42C341.731 22.5106 341.968 22.6815 342.14 22.91C342.352 23.4403 342.48 24.0003 342.52 24.57C342.52 24.71 342.59 24.18 342.81 23.83C342.924 23.4906 343.211 23.238 343.562 23.1673C343.913 23.0966 344.275 23.2186 344.512 23.4873C344.749 23.756 344.824 24.1306 344.71 24.47C344.71 25.12 344.71 25.09 344.71 25.53C344.71 25.97 344.71 26.36 344.71 26.73C344.674 27.3152 344.593 27.8968 344.47 28.47C344.296 28.9771 344.054 29.4582 343.75 29.9C343.264 30.44 342.863 31.0502 342.56 31.71C342.485 32.0378 342.451 32.3738 342.46 32.71C342.459 33.0206 342.499 33.33 342.58 33.63C342.171 33.6732 341.759 33.6732 341.35 33.63C340.96 33.57 340.48 32.79 340.35 32.55C340.286 32.4211 340.154 32.3397 340.01 32.3397C339.866 32.3397 339.734 32.4211 339.67 32.55C339.45 32.93 338.96 33.62 338.62 33.66C337.95 33.74 336.57 33.66 335.48 33.66C335.48 33.66 335.66 32.66 335.25 32.3C334.84 31.94 334.42 31.52 334.11 31.24L333.27 30.28Z" stroke="black" stroke-width="0.75" stroke-linecap="round" stroke-linejoin="round"/>
<path d="M341.75 30.8259V27.3741C341.75 27.1675 341.582 27 341.375 27C341.168 27 341 27.1675 341 27.3741V30.8259C341 31.0325 341.168 31.2 341.375 31.2C341.582 31.2 341.75 31.0325 341.75 30.8259Z" fill="black"/>
<path d="M339.77 30.8246L339.75 27.3711C339.749 27.1649 339.58 26.9988 339.373 27C339.166 27.0012 338.999 27.1693 339 27.3754L339.02 30.8289C339.021 31.035 339.19 31.2012 339.397 31.2C339.604 31.1988 339.771 31.0307 339.77 30.8246Z" fill="black"/>
<path d="M337 27.379L337.02 30.8254C337.021 31.0335 337.19 31.2012 337.397 31.2C337.604 31.1988 337.771 31.0291 337.77 30.821L337.75 27.3746C337.749 27.1665 337.58 26.9988 337.373 27C337.166 27.0012 336.999 27.1709 337 27.379Z" fill="black"/>
</g>
<g filter="url(#filter2_d_2_31424)">
<rect x="130" y="44" width="112" height="109.001" rx="2" fill="white" shape-rendering="crispEdges"/>
<rect width="96" height="93.001" transform="translate(138 52)" fill="#F0F0F0"/>
<path d="M178.648 96.6205C180.796 96.6205 181.84 95.6005 181.84 94.1845C181.84 92.5165 180.592 92.0245 179.26 91.7125C178.156 91.4485 177.376 91.3165 177.376 90.6085C177.376 90.1405 177.82 89.8645 178.48 89.8645C179.212 89.8645 179.74 90.1645 179.968 90.8245L181.636 90.3205C181.18 89.0965 180.196 88.3525 178.504 88.3525C176.572 88.3525 175.408 89.3125 175.408 90.6685C175.408 92.4325 176.824 92.8525 178.06 93.1525C179.032 93.3925 179.908 93.5605 179.908 94.2925C179.908 94.8205 179.404 95.1445 178.612 95.1445C177.52 95.1445 177.004 94.6765 176.68 93.8965L175.12 94.4965C175.588 95.7085 176.524 96.6205 178.648 96.6205ZM184.682 96.5005V88.4965H182.81V96.5005H184.682ZM188.802 96.5965C190.662 96.5965 191.91 95.2765 191.91 93.5365C191.91 91.6885 190.686 90.4405 188.838 90.4405C187.074 90.4405 185.778 91.7245 185.778 93.5725C185.778 95.3125 187.026 96.5965 188.802 96.5965ZM188.862 95.3965C188.118 95.3965 187.758 94.8085 187.758 93.5125C187.758 92.2525 188.142 91.6765 188.85 91.6765C189.582 91.6765 189.918 92.2645 189.918 93.5125C189.918 94.8205 189.546 95.3965 188.862 95.3965ZM195.369 96.5845C195.741 96.5845 196.161 96.5485 196.449 96.5125V95.1805C196.197 95.2045 195.969 95.2045 195.741 95.1805C195.297 95.1205 195.105 94.8565 195.105 94.3885V91.8085H196.329V90.5485H195.105V88.7245H193.425L193.305 90.5485H192.345V91.8085H193.293V94.6885C193.293 95.9485 194.013 96.5845 195.369 96.5845Z" fill="#111111"/>
<path d="M139.464 102.164C138.696 103.212 138.312 104.348 138.312 105.492C138.312 106.692 138.704 107.828 139.472 108.836H139.88C139.224 107.772 138.896 106.684 138.896 105.5C138.896 104.268 139.208 103.196 139.872 102.164H139.464ZM142.437 107.588C143.653 107.588 144.373 106.996 144.373 106.052C144.373 105.156 143.765 104.78 142.645 104.484C141.549 104.196 141.157 103.996 141.157 103.404C141.157 102.948 141.597 102.612 142.269 102.612C142.941 102.612 143.453 102.964 143.613 103.564L144.229 103.372C143.973 102.54 143.277 102.06 142.277 102.06C141.245 102.06 140.493 102.612 140.493 103.476C140.493 104.42 141.237 104.772 142.221 105.02C143.101 105.252 143.717 105.444 143.717 106.108C143.717 106.716 143.229 107.044 142.445 107.044C141.509 107.044 141.053 106.66 140.805 106.012L140.237 106.236C140.589 107.124 141.277 107.588 142.437 107.588ZM146.448 107.5L147.216 104.812L147.296 104.468L147.392 104.828L148.192 107.5H148.72L149.896 103.556H149.36L148.592 106.292L148.488 106.628L148.4 106.276L147.592 103.556H147.08L146.328 106.252L146.232 106.612L146.144 106.252L145.36 103.556H144.728L145.92 107.5H146.448ZM151.419 107.548C152.155 107.548 152.619 107.268 152.931 106.836C152.923 107.036 152.955 107.364 153.003 107.5H153.595C153.531 107.252 153.507 106.98 153.507 106.732V104.94C153.507 103.948 153.075 103.484 151.955 103.484C151.019 103.484 150.403 103.868 150.259 104.588L150.835 104.652C150.963 104.148 151.299 103.972 151.939 103.972C152.603 103.972 152.859 104.204 152.907 104.636C152.923 104.732 152.923 104.868 152.923 105.004C152.611 105.012 152.347 105.012 152.027 105.052C150.947 105.18 150.163 105.604 150.163 106.46C150.163 107.18 150.723 107.548 151.419 107.548ZM151.603 107.092C151.075 107.092 150.811 106.852 150.811 106.396C150.811 105.9 151.251 105.556 152.107 105.444C152.355 105.412 152.643 105.412 152.923 105.412V106.228C152.755 106.636 152.355 107.092 151.603 107.092ZM156.542 107.556C157.334 107.556 158.046 106.86 158.046 105.524C158.046 104.1 157.438 103.484 156.558 103.484C155.926 103.484 155.526 103.868 155.286 104.252V103.556H154.694V108.836H155.31V106.98C155.55 107.268 155.966 107.556 156.542 107.556ZM156.374 107.1C155.806 107.1 155.518 106.748 155.31 106.452V104.788C155.59 104.236 155.958 103.996 156.414 103.996C157.094 103.996 157.398 104.484 157.398 105.54C157.398 106.676 156.998 107.1 156.374 107.1ZM161.963 107.5L162.731 104.812L162.811 104.468L162.907 104.828L163.707 107.5H164.235L165.411 103.556H164.875L164.107 106.292L164.003 106.628L163.915 106.276L163.107 103.556H162.595L161.843 106.252L161.747 106.612L161.659 106.252L160.875 103.556H160.243L161.435 107.5H161.963ZM166.709 102.86V102.156H166.029V102.86H166.709ZM166.685 107.5V103.556H166.061V107.5H166.685ZM169.001 107.556C169.217 107.556 169.457 107.532 169.673 107.492V107.004C169.529 107.028 169.297 107.052 169.113 107.052C168.777 107.044 168.561 106.86 168.561 106.444V104.052H169.449V103.556H168.561V102.524H167.993L167.961 103.556H167.313V104.052H167.953V106.412C167.953 107.228 168.337 107.556 169.001 107.556ZM170.982 107.5V104.804C171.31 104.332 171.702 104.004 172.254 104.004C172.654 104.004 172.894 104.228 172.894 104.708V107.5H173.518V104.66C173.518 104.012 173.23 103.484 172.43 103.484C171.694 103.484 171.214 103.924 170.958 104.332V102.164H170.358V107.5H170.982ZM177.185 107.5V102.164H176.561V107.5H177.185ZM179.861 107.564C180.837 107.564 181.645 106.756 181.645 105.516C181.645 104.3 180.941 103.484 179.861 103.484C178.893 103.484 178.093 104.276 178.093 105.508C178.093 106.756 178.845 107.564 179.861 107.564ZM179.853 107.1C179.189 107.1 178.749 106.508 178.749 105.516C178.749 104.5 179.229 103.972 179.853 103.972C180.509 103.972 180.989 104.484 180.989 105.508C180.989 106.572 180.501 107.1 179.853 107.1ZM183.93 107.564C184.714 107.564 185.298 107.108 185.434 106.22L184.89 106.164C184.77 106.82 184.466 107.1 183.946 107.1C183.354 107.1 182.89 106.612 182.89 105.524C182.89 104.54 183.274 103.98 183.906 103.98C184.45 103.98 184.762 104.332 184.858 104.98L185.442 104.908C185.266 103.94 184.738 103.484 183.898 103.484C182.898 103.484 182.234 104.364 182.234 105.508C182.234 106.828 182.962 107.564 183.93 107.564ZM187.208 107.548C187.944 107.548 188.408 107.268 188.72 106.836C188.712 107.036 188.744 107.364 188.792 107.5H189.384C189.32 107.252 189.296 106.98 189.296 106.732V104.94C189.296 103.948 188.864 103.484 187.744 103.484C186.808 103.484 186.192 103.868 186.048 104.588L186.624 104.652C186.752 104.148 187.088 103.972 187.728 103.972C188.392 103.972 188.648 104.204 188.696 104.636C188.712 104.732 188.712 104.868 188.712 105.004C188.4 105.012 188.136 105.012 187.816 105.052C186.736 105.18 185.952 105.604 185.952 106.46C185.952 107.18 186.512 107.548 187.208 107.548ZM187.392 107.092C186.864 107.092 186.6 106.852 186.6 106.396C186.6 105.9 187.04 105.556 187.896 105.444C188.144 105.412 188.432 105.412 188.712 105.412V106.228C188.544 106.636 188.144 107.092 187.392 107.092ZM191.123 107.5V102.164H190.499V107.5H191.123ZM195.57 107.564C196.354 107.564 196.938 107.108 197.074 106.22L196.53 106.164C196.41 106.82 196.106 107.1 195.586 107.1C194.994 107.1 194.53 106.612 194.53 105.524C194.53 104.54 194.914 103.98 195.546 103.98C196.09 103.98 196.402 104.332 196.498 104.98L197.082 104.908C196.906 103.94 196.378 103.484 195.538 103.484C194.538 103.484 193.874 104.364 193.874 105.508C193.874 106.828 194.602 107.564 195.57 107.564ZM199.369 107.564C200.345 107.564 201.153 106.756 201.153 105.516C201.153 104.3 200.449 103.484 199.369 103.484C198.401 103.484 197.601 104.276 197.601 105.508C197.601 106.756 198.353 107.564 199.369 107.564ZM199.361 107.1C198.697 107.1 198.257 106.508 198.257 105.516C198.257 104.5 198.737 103.972 199.361 103.972C200.017 103.972 200.497 104.484 200.497 105.508C200.497 106.572 200.009 107.1 199.361 107.1ZM202.661 107.5V104.796C203.021 104.292 203.349 103.996 203.805 103.996C204.189 103.996 204.389 104.26 204.389 104.732V107.5H204.997V104.804C205.245 104.412 205.653 104.012 206.141 104.012C206.525 104.012 206.741 104.228 206.741 104.74V107.5H207.357V104.7C207.357 104.38 207.277 104.124 207.157 103.94C206.997 103.644 206.725 103.492 206.317 103.492C205.693 103.492 205.229 103.94 204.957 104.372C204.909 103.812 204.541 103.484 203.965 103.484C203.397 103.484 202.877 103.956 202.645 104.348V103.556H202.045V107.5H202.661ZM210.378 107.556C211.17 107.556 211.882 106.86 211.882 105.524C211.882 104.1 211.274 103.484 210.394 103.484C209.762 103.484 209.362 103.868 209.122 104.252V103.556H208.53V108.836H209.146V106.98C209.386 107.268 209.802 107.556 210.378 107.556ZM210.21 107.1C209.642 107.1 209.354 106.748 209.146 106.452V104.788C209.426 104.236 209.794 103.996 210.25 103.996C210.93 103.996 211.234 104.484 211.234 105.54C211.234 106.676 210.834 107.1 210.21 107.1ZM214.252 107.564C215.228 107.564 216.036 106.756 216.036 105.516C216.036 104.3 215.332 103.484 214.252 103.484C213.284 103.484 212.484 104.276 212.484 105.508C212.484 106.756 213.236 107.564 214.252 107.564ZM214.243 107.1C213.58 107.1 213.14 106.508 213.14 105.516C213.14 104.5 213.62 103.972 214.243 103.972C214.9 103.972 215.38 104.484 215.38 105.508C215.38 106.572 214.892 107.1 214.243 107.1ZM217.552 107.5V104.796C217.88 104.324 218.296 104.004 218.8 104.004C219.248 104.004 219.456 104.228 219.456 104.7V107.5H220.08V104.708C220.08 103.9 219.72 103.484 218.984 103.484C218.28 103.484 217.792 103.948 217.52 104.34V103.556H216.928V107.5H217.552ZM222.776 107.564C223.56 107.564 224.168 107.156 224.44 106.396L223.896 106.316C223.672 106.9 223.264 107.092 222.832 107.092C222.064 107.092 221.616 106.588 221.6 105.596H224.512C224.504 105.508 224.512 105.42 224.504 105.332C224.424 104.236 223.824 103.484 222.792 103.484C221.776 103.484 220.968 104.26 220.968 105.596C220.968 106.772 221.696 107.564 222.776 107.564ZM221.624 105.172C221.672 104.428 222.16 103.956 222.792 103.956C223.424 103.956 223.816 104.412 223.88 105.172H221.624ZM225.997 107.5V104.796C226.325 104.324 226.741 104.004 227.245 104.004C227.693 104.004 227.901 104.228 227.901 104.7V107.5H228.525V104.708C228.525 103.9 228.165 103.484 227.429 103.484C226.725 103.484 226.237 103.948 225.965 104.34V103.556H225.373V107.5H225.997ZM230.813 107.556C231.029 107.556 231.269 107.532 231.485 107.492V107.004C231.341 107.028 231.109 107.052 230.925 107.052C230.589 107.044 230.373 106.86 230.373 106.444V104.052H231.261V103.556H230.373V102.524H229.805L229.773 103.556H229.125V104.052H229.765V106.412C229.765 107.228 230.149 107.556 230.813 107.556ZM231.826 102.164C232.49 103.228 232.81 104.316 232.81 105.5C232.81 106.732 232.506 107.804 231.834 108.836H232.242C233.01 107.788 233.394 106.652 233.394 105.508C233.394 104.3 233.002 103.172 232.234 102.164H231.826Z" fill="#666666"/>
<rect x="130.5" y="44.5" width="111" height="108.001" rx="1.5" stroke="#D4D4D4" shape-rendering="crispEdges"/>
</g>
<g filter="url(#filter3_d_2_31424)">
<rect x="268" y="48" width="112" height="109.001" rx="2" fill="white" shape-rendering="crispEdges"/>
<rect width="96" height="93.001" transform="translate(276 56)" fill="#F0F0F0"/>
<path d="M316.648 100.62C318.796 100.62 319.84 99.6005 319.84 98.1845C319.84 96.5165 318.592 96.0245 317.26 95.7125C316.156 95.4485 315.376 95.3165 315.376 94.6085C315.376 94.1405 315.82 93.8645 316.48 93.8645C317.212 93.8645 317.74 94.1645 317.968 94.8245L319.636 94.3205C319.18 93.0965 318.196 92.3525 316.504 92.3525C314.572 92.3525 313.408 93.3125 313.408 94.6685C313.408 96.4325 314.824 96.8525 316.06 97.1525C317.032 97.3925 317.908 97.5605 317.908 98.2925C317.908 98.8205 317.404 99.1445 316.612 99.1445C315.52 99.1445 315.004 98.6765 314.68 97.8965L313.12 98.4965C313.588 99.7085 314.524 100.62 316.648 100.62ZM322.682 100.5V92.4965H320.81V100.5H322.682ZM326.802 100.596C328.662 100.596 329.91 99.2765 329.91 97.5365C329.91 95.6885 328.686 94.4405 326.838 94.4405C325.074 94.4405 323.778 95.7245 323.778 97.5725C323.778 99.3125 325.026 100.596 326.802 100.596ZM326.862 99.3965C326.118 99.3965 325.758 98.8085 325.758 97.5125C325.758 96.2525 326.142 95.6765 326.85 95.6765C327.582 95.6765 327.918 96.2645 327.918 97.5125C327.918 98.8205 327.546 99.3965 326.862 99.3965ZM333.369 100.584C333.741 100.584 334.161 100.548 334.449 100.512V99.1805C334.197 99.2045 333.969 99.2045 333.741 99.1805C333.297 99.1205 333.105 98.8565 333.105 98.3885V95.8085H334.329V94.5485H333.105V92.7245H331.425L331.305 94.5485H330.345V95.8085H331.293V98.6885C331.293 99.9485 332.013 100.584 333.369 100.584Z" fill="#111111"/>
<path d="M277.464 106.164C276.696 107.212 276.312 108.348 276.312 109.492C276.312 110.692 276.704 111.828 277.472 112.836H277.88C277.224 111.772 276.896 110.684 276.896 109.5C276.896 108.268 277.208 107.196 277.872 106.164H277.464ZM280.437 111.588C281.653 111.588 282.373 110.996 282.373 110.052C282.373 109.156 281.765 108.78 280.645 108.484C279.549 108.196 279.157 107.996 279.157 107.404C279.157 106.948 279.597 106.612 280.269 106.612C280.941 106.612 281.453 106.964 281.613 107.564L282.229 107.372C281.973 106.54 281.277 106.06 280.277 106.06C279.245 106.06 278.493 106.612 278.493 107.476C278.493 108.42 279.237 108.772 280.221 109.02C281.101 109.252 281.717 109.444 281.717 110.108C281.717 110.716 281.229 111.044 280.445 111.044C279.509 111.044 279.053 110.66 278.805 110.012L278.237 110.236C278.589 111.124 279.277 111.588 280.437 111.588ZM284.448 111.5L285.216 108.812L285.296 108.468L285.392 108.828L286.192 111.5H286.72L287.896 107.556H287.36L286.592 110.292L286.488 110.628L286.4 110.276L285.592 107.556H285.08L284.328 110.252L284.232 110.612L284.144 110.252L283.36 107.556H282.728L283.92 111.5H284.448ZM289.419 111.548C290.155 111.548 290.619 111.268 290.931 110.836C290.923 111.036 290.955 111.364 291.003 111.5H291.595C291.531 111.252 291.507 110.98 291.507 110.732V108.94C291.507 107.948 291.075 107.484 289.955 107.484C289.019 107.484 288.403 107.868 288.259 108.588L288.835 108.652C288.963 108.148 289.299 107.972 289.939 107.972C290.603 107.972 290.859 108.204 290.907 108.636C290.923 108.732 290.923 108.868 290.923 109.004C290.611 109.012 290.347 109.012 290.027 109.052C288.947 109.18 288.163 109.604 288.163 110.46C288.163 111.18 288.723 111.548 289.419 111.548ZM289.603 111.092C289.075 111.092 288.811 110.852 288.811 110.396C288.811 109.9 289.251 109.556 290.107 109.444C290.355 109.412 290.643 109.412 290.923 109.412V110.228C290.755 110.636 290.355 111.092 289.603 111.092ZM294.542 111.556C295.334 111.556 296.046 110.86 296.046 109.524C296.046 108.1 295.438 107.484 294.558 107.484C293.926 107.484 293.526 107.868 293.286 108.252V107.556H292.694V112.836H293.31V110.98C293.55 111.268 293.966 111.556 294.542 111.556ZM294.374 111.1C293.806 111.1 293.518 110.748 293.31 110.452V108.788C293.59 108.236 293.958 107.996 294.414 107.996C295.094 107.996 295.398 108.484 295.398 109.54C295.398 110.676 294.998 111.1 294.374 111.1ZM299.963 111.5L300.731 108.812L300.811 108.468L300.907 108.828L301.707 111.5H302.235L303.411 107.556H302.875L302.107 110.292L302.003 110.628L301.915 110.276L301.107 107.556H300.595L299.843 110.252L299.747 110.612L299.659 110.252L298.875 107.556H298.243L299.435 111.5H299.963ZM304.709 106.86V106.156H304.029V106.86H304.709ZM304.685 111.5V107.556H304.061V111.5H304.685ZM307.001 111.556C307.217 111.556 307.457 111.532 307.673 111.492V111.004C307.529 111.028 307.297 111.052 307.113 111.052C306.777 111.044 306.561 110.86 306.561 110.444V108.052H307.449V107.556H306.561V106.524H305.993L305.961 107.556H305.313V108.052H305.953V110.412C305.953 111.228 306.337 111.556 307.001 111.556ZM308.982 111.5V108.804C309.31 108.332 309.702 108.004 310.254 108.004C310.654 108.004 310.894 108.228 310.894 108.708V111.5H311.518V108.66C311.518 108.012 311.23 107.484 310.43 107.484C309.694 107.484 309.214 107.924 308.958 108.332V106.164H308.358V111.5H308.982ZM315.185 111.5V106.164H314.561V111.5H315.185ZM317.861 111.564C318.837 111.564 319.645 110.756 319.645 109.516C319.645 108.3 318.941 107.484 317.861 107.484C316.893 107.484 316.093 108.276 316.093 109.508C316.093 110.756 316.845 111.564 317.861 111.564ZM317.853 111.1C317.189 111.1 316.749 110.508 316.749 109.516C316.749 108.5 317.229 107.972 317.853 107.972C318.509 107.972 318.989 108.484 318.989 109.508C318.989 110.572 318.501 111.1 317.853 111.1ZM321.93 111.564C322.714 111.564 323.298 111.108 323.434 110.22L322.89 110.164C322.77 110.82 322.466 111.1 321.946 111.1C321.354 111.1 320.89 110.612 320.89 109.524C320.89 108.54 321.274 107.98 321.906 107.98C322.45 107.98 322.762 108.332 322.858 108.98L323.442 108.908C323.266 107.94 322.738 107.484 321.898 107.484C320.898 107.484 320.234 108.364 320.234 109.508C320.234 110.828 320.962 111.564 321.93 111.564ZM325.208 111.548C325.944 111.548 326.408 111.268 326.72 110.836C326.712 111.036 326.744 111.364 326.792 111.5H327.384C327.32 111.252 327.296 110.98 327.296 110.732V108.94C327.296 107.948 326.864 107.484 325.744 107.484C324.808 107.484 324.192 107.868 324.048 108.588L324.624 108.652C324.752 108.148 325.088 107.972 325.728 107.972C326.392 107.972 326.648 108.204 326.696 108.636C326.712 108.732 326.712 108.868 326.712 109.004C326.4 109.012 326.136 109.012 325.816 109.052C324.736 109.18 323.952 109.604 323.952 110.46C323.952 111.18 324.512 111.548 325.208 111.548ZM325.392 111.092C324.864 111.092 324.6 110.852 324.6 110.396C324.6 109.9 325.04 109.556 325.896 109.444C326.144 109.412 326.432 109.412 326.712 109.412V110.228C326.544 110.636 326.144 111.092 325.392 111.092ZM329.123 111.5V106.164H328.499V111.5H329.123ZM333.57 111.564C334.354 111.564 334.938 111.108 335.074 110.22L334.53 110.164C334.41 110.82 334.106 111.1 333.586 111.1C332.994 111.1 332.53 110.612 332.53 109.524C332.53 108.54 332.914 107.98 333.546 107.98C334.09 107.98 334.402 108.332 334.498 108.98L335.082 108.908C334.906 107.94 334.378 107.484 333.538 107.484C332.538 107.484 331.874 108.364 331.874 109.508C331.874 110.828 332.602 111.564 333.57 111.564ZM337.369 111.564C338.345 111.564 339.153 110.756 339.153 109.516C339.153 108.3 338.449 107.484 337.369 107.484C336.401 107.484 335.601 108.276 335.601 109.508C335.601 110.756 336.353 111.564 337.369 111.564ZM337.361 111.1C336.697 111.1 336.257 110.508 336.257 109.516C336.257 108.5 336.737 107.972 337.361 107.972C338.017 107.972 338.497 108.484 338.497 109.508C338.497 110.572 338.009 111.1 337.361 111.1ZM340.661 111.5V108.796C341.021 108.292 341.349 107.996 341.805 107.996C342.189 107.996 342.389 108.26 342.389 108.732V111.5H342.997V108.804C343.245 108.412 343.653 108.012 344.141 108.012C344.525 108.012 344.741 108.228 344.741 108.74V111.5H345.357V108.7C345.357 108.38 345.277 108.124 345.157 107.94C344.997 107.644 344.725 107.492 344.317 107.492C343.693 107.492 343.229 107.94 342.957 108.372C342.909 107.812 342.541 107.484 341.965 107.484C341.397 107.484 340.877 107.956 340.645 108.348V107.556H340.045V111.5H340.661ZM348.378 111.556C349.17 111.556 349.882 110.86 349.882 109.524C349.882 108.1 349.274 107.484 348.394 107.484C347.762 107.484 347.362 107.868 347.122 108.252V107.556H346.53V112.836H347.146V110.98C347.386 111.268 347.802 111.556 348.378 111.556ZM348.21 111.1C347.642 111.1 347.354 110.748 347.146 110.452V108.788C347.426 108.236 347.794 107.996 348.25 107.996C348.93 107.996 349.234 108.484 349.234 109.54C349.234 110.676 348.834 111.1 348.21 111.1ZM352.252 111.564C353.228 111.564 354.036 110.756 354.036 109.516C354.036 108.3 353.332 107.484 352.252 107.484C351.284 107.484 350.484 108.276 350.484 109.508C350.484 110.756 351.236 111.564 352.252 111.564ZM352.243 111.1C351.58 111.1 351.14 110.508 351.14 109.516C351.14 108.5 351.62 107.972 352.243 107.972C352.9 107.972 353.38 108.484 353.38 109.508C353.38 110.572 352.892 111.1 352.243 111.1ZM355.552 111.5V108.796C355.88 108.324 356.296 108.004 356.8 108.004C357.248 108.004 357.456 108.228 357.456 108.7V111.5H358.08V108.708C358.08 107.9 357.72 107.484 356.984 107.484C356.28 107.484 355.792 107.948 355.52 108.34V107.556H354.928V111.5H355.552ZM360.776 111.564C361.56 111.564 362.168 111.156 362.44 110.396L361.896 110.316C361.672 110.9 361.264 111.092 360.832 111.092C360.064 111.092 359.616 110.588 359.6 109.596H362.512C362.504 109.508 362.512 109.42 362.504 109.332C362.424 108.236 361.824 107.484 360.792 107.484C359.776 107.484 358.968 108.26 358.968 109.596C358.968 110.772 359.696 111.564 360.776 111.564ZM359.624 109.172C359.672 108.428 360.16 107.956 360.792 107.956C361.424 107.956 361.816 108.412 361.88 109.172H359.624ZM363.997 111.5V108.796C364.325 108.324 364.741 108.004 365.245 108.004C365.693 108.004 365.901 108.228 365.901 108.7V111.5H366.525V108.708C366.525 107.9 366.165 107.484 365.429 107.484C364.725 107.484 364.237 107.948 363.965 108.34V107.556H363.373V111.5H363.997ZM368.813 111.556C369.029 111.556 369.269 111.532 369.485 111.492V111.004C369.341 111.028 369.109 111.052 368.925 111.052C368.589 111.044 368.373 110.86 368.373 110.444V108.052H369.261V107.556H368.373V106.524H367.805L367.773 107.556H367.125V108.052H367.765V110.412C367.765 111.228 368.149 111.556 368.813 111.556ZM369.826 106.164C370.49 107.228 370.81 108.316 370.81 109.5C370.81 110.732 370.506 111.804 369.834 112.836H370.242C371.01 111.788 371.394 110.652 371.394 109.508C371.394 108.3 371.002 107.172 370.234 106.164H369.826Z" fill="#666666"/>
<rect x="268.5" y="48.5" width="111" height="108.001" rx="1.5" stroke="#D4D4D4" shape-rendering="crispEdges"/>
</g>
<defs>
<filter id="filter0_d_2_31424" x="190.191" y="18.0118" width="16.7461" height="17.8588" filterUnits="userSpaceOnUse" color-interpolation-filters="sRGB">
<feFlood flood-opacity="0" result="BackgroundImageFix"/>
<feColorMatrix in="SourceAlpha" type="matrix" values="0 0 0 0 0 0 0 0 0 0 0 0 0 0 0 0 0 0 127 0" result="hardAlpha"/>
<feOffset dy="1"/>
<feGaussianBlur stdDeviation="0.4"/>
<feColorMatrix type="matrix" values="0 0 0 0 0 0 0 0 0 0 0 0 0 0 0 0 0 0 0.5 0"/>
<feBlend mode="normal" in2="BackgroundImageFix" result="effect1_dropShadow_2_31424"/>
<feBlend mode="normal" in="SourceGraphic" in2="effect1_dropShadow_2_31424" result="shape"/>
</filter>
<filter id="filter1_d_2_31424" x="329.191" y="18.0118" width="16.7461" height="17.8588" filterUnits="userSpaceOnUse" color-interpolation-filters="sRGB">
<feFlood flood-opacity="0" result="BackgroundImageFix"/>
<feColorMatrix in="SourceAlpha" type="matrix" values="0 0 0 0 0 0 0 0 0 0 0 0 0 0 0 0 0 0 127 0" result="hardAlpha"/>
<feOffset dy="1"/>
<feGaussianBlur stdDeviation="0.4"/>
<feColorMatrix type="matrix" values="0 0 0 0 0 0 0 0 0 0 0 0 0 0 0 0 0 0 0.5 0"/>
<feBlend mode="normal" in2="BackgroundImageFix" result="effect1_dropShadow_2_31424"/>
<feBlend mode="normal" in="SourceGraphic" in2="effect1_dropShadow_2_31424" result="shape"/>
</filter>
<filter id="filter2_d_2_31424" x="126" y="42" width="120" height="117.001" filterUnits="userSpaceOnUse" color-interpolation-filters="sRGB">
<feFlood flood-opacity="0" result="BackgroundImageFix"/>
<feColorMatrix in="SourceAlpha" type="matrix" values="0 0 0 0 0 0 0 0 0 0 0 0 0 0 0 0 0 0 127 0" result="hardAlpha"/>
<feOffset dy="2"/>
<feGaussianBlur stdDeviation="2"/>
<feComposite in2="hardAlpha" operator="out"/>
<feColorMatrix type="matrix" values="0 0 0 0 0.4 0 0 0 0 0.4 0 0 0 0 0.4 0 0 0 0.25 0"/>
<feBlend mode="normal" in2="BackgroundImageFix" result="effect1_dropShadow_2_31424"/>
<feBlend mode="normal" in="SourceGraphic" in2="effect1_dropShadow_2_31424" result="shape"/>
</filter>
<filter id="filter3_d_2_31424" x="264" y="46" width="120" height="117.001" filterUnits="userSpaceOnUse" color-interpolation-filters="sRGB">
<feFlood flood-opacity="0" result="BackgroundImageFix"/>
<feColorMatrix in="SourceAlpha" type="matrix" values="0 0 0 0 0 0 0 0 0 0 0 0 0 0 0 0 0 0 127 0" result="hardAlpha"/>
<feOffset dy="2"/>
<feGaussianBlur stdDeviation="2"/>
<feComposite in2="hardAlpha" operator="out"/>
<feColorMatrix type="matrix" values="0 0 0 0 0.4 0 0 0 0 0.4 0 0 0 0 0.4 0 0 0 0.25 0"/>
<feBlend mode="normal" in2="BackgroundImageFix" result="effect1_dropShadow_2_31424"/>
<feBlend mode="normal" in="SourceGraphic" in2="effect1_dropShadow_2_31424" result="shape"/>
</filter>
<clipPath id="clip0_2_31424">
<rect width="16" height="16" fill="white" transform="translate(178 12)"/>
</clipPath>
<clipPath id="clip1_2_31424">
<rect width="16" height="16" fill="white" transform="translate(316 12)"/>
</clipPath>
</defs>
</svg>
