<svg width="380" height="56" viewBox="0 0 380 56" fill="none" xmlns="http://www.w3.org/2000/svg">
    <path fill="#E7F0FE" d="M0 0h380v56H0z"/>
    <path fill="#E7F0FE" d="M0 4h380v48H0z"/>
    <path d="M16 11A7.001 7.001 0 1 0 16.101 25 7.001 7.001 0 0 0 16 11zm0 13a6 6 0 1 1-.011-11.998A6 6 0 0 1 16 24z" fill="#5784C5"/>
    <path d="M16.5 14.5h-1v1h1v-1zM16.5 16.5h-2v1h1V21h-1v1h3v-1h-1v-4.5z" fill="#5784C5"/>
    <path d="M37.088 24.144c1.376 0 2.336-.448 2.992-1.296L40.496 24h1.344v-5.456h-4.544v1.872h2.064c-.016.08-.032.224-.064.384-.144.848-.864 1.36-1.84 1.36-1.44 0-2.144-1.184-2.144-3.52 0-2.288.672-3.52 2.096-3.52 1.12 0 1.664.912 1.856 1.968l2.512-.544c-.512-2.064-1.808-3.424-4.304-3.424-3.168 0-4.944 2.144-4.944 5.728 0 3.328 1.84 5.296 4.56 5.296zm10.254-.016c2.048 0 3.36-.992 3.888-2.496l-2.064-.272c-.288.784-.8 1.184-1.6 1.184-.976 0-1.712-.624-1.744-2.048h5.488c.016-.176.016-.304.016-.48-.064-2.464-1.52-4.096-4-4.096-2.208 0-4.096 1.664-4.096 4.224 0 2.416 1.728 3.984 4.112 3.984zM45.854 19.2c.064-1.088.704-1.728 1.504-1.728.928 0 1.392.656 1.472 1.728h-2.976zm10.04 4.912c.496 0 1.056-.048 1.44-.096V22.24a4.65 4.65 0 0 1-.944 0c-.592-.08-.848-.432-.848-1.056v-3.44h1.632v-1.68h-1.632v-2.432h-2.24l-.16 2.432h-1.28v1.68h1.264v3.84c0 1.68.96 2.528 2.768 2.528zm6.352 2.64c.16 0 .304.016.448.016 2.544 0 3.376-.912 3.824-2.144l3.136-8.56h-2.016l-1.36 3.984-.272.864-.272-.88-1.36-3.968h-2.656l2.592 6.672c.144.384.224.72.224 1.008 0 .768-.56 1.216-1.824 1.216-.144 0-.288 0-.464-.016v1.808zm11.657-2.624c2.48 0 4.144-1.76 4.144-4.08 0-2.464-1.632-4.128-4.096-4.128-2.352 0-4.08 1.712-4.08 4.176 0 2.32 1.664 4.032 4.032 4.032zm.08-1.6c-.992 0-1.472-.784-1.472-2.512 0-1.68.512-2.448 1.456-2.448.976 0 1.424.784 1.424 2.448 0 1.744-.496 2.512-1.408 2.512zm7.796 1.6c1.136 0 2-.416 2.544-1.264L84.307 24h2.4v-7.936h-2.496v5.52c-.256.528-.688.928-1.28.928-.656 0-.976-.288-.976-1.04v-5.408H79.46V21.6c0 1.76.96 2.528 2.32 2.528zM91.13 24v-4.752c.447-.848 1.247-1.328 2.191-1.328.208 0 .56.016.72.048v-2a2.658 2.658 0 0 0-.576-.048c-1.168 0-2.112.864-2.48 1.808v-1.664h-2.368V24h2.512zm11.086 0v-6.256h1.872v-1.68h-1.888v-.512c0-.656.272-.944 1.072-.944.288 0 .672.016.992.048V13.04a8.732 8.732 0 0 0-1.712-.144c-2.112 0-2.88.864-2.88 2.416v.752h-1.248v1.68h1.248V24h2.544zm5.32 0v-4.752c.448-.848 1.248-1.328 2.192-1.328.208 0 .56.016.72.048v-2a2.658 2.658 0 0 0-.576-.048c-1.168 0-2.112.864-2.48 1.808v-1.664h-2.368V24h2.512zm7.588.128c2.048 0 3.36-.992 3.888-2.496l-2.064-.272c-.288.784-.8 1.184-1.6 1.184-.976 0-1.712-.624-1.744-2.048h5.488c.016-.176.016-.304.016-.48-.064-2.464-1.52-4.096-4-4.096-2.208 0-4.096 1.664-4.096 4.224 0 2.416 1.728 3.984 4.112 3.984zm-1.488-4.928c.064-1.088.704-1.728 1.504-1.728.928 0 1.392.656 1.472 1.728h-2.976zm10.504 4.928c2.048 0 3.36-.992 3.888-2.496l-2.064-.272c-.288.784-.8 1.184-1.6 1.184-.976 0-1.712-.624-1.744-2.048h5.488c.016-.176.016-.304.016-.48-.064-2.464-1.52-4.096-4-4.096-2.208 0-4.096 1.664-4.096 4.224 0 2.416 1.728 3.984 4.112 3.984zm-1.488-4.928c.064-1.088.704-1.728 1.504-1.728.928 0 1.392.656 1.472 1.728h-2.976zm14.195 4.928c2.304 0 3.68-1.072 3.68-2.624 0-1.664-1.12-2.24-3.344-2.512-1.216-.176-1.76-.272-1.76-.8 0-.512.496-.736 1.296-.736.832 0 1.376.288 1.568.896l1.936-.384c-.368-1.296-1.664-2.048-3.52-2.048-2.096 0-3.44 1.008-3.44 2.576 0 1.664 1.152 2.112 3.536 2.4.96.128 1.6.24 1.6.832 0 .544-.624.816-1.504.816-1.184 0-1.824-.368-2-1.088l-2 .368c.4 1.552 1.76 2.304 3.952 2.304zm7.293 0c1.136 0 2-.416 2.544-1.264L146.667 24h2.4v-7.936h-2.496v5.52c-.256.528-.688.928-1.28.928-.656 0-.976-.288-.976-1.04v-5.408h-2.496V21.6c0 1.76.96 2.528 2.32 2.528zm11.317-.016c1.888 0 3.2-1.376 3.2-4.096 0-2.704-.992-4.096-2.816-4.096-1.232 0-1.968.672-2.416 1.36v-3.952h-2.448V24h1.504l.352-1.168c.608.8 1.328 1.28 2.624 1.28zm-.688-1.52c-.832 0-1.328-.56-1.328-1.712v-2.224c.256-.56.656-1.04 1.376-1.04.928 0 1.28.8 1.28 2.48 0 1.792-.352 2.496-1.328 2.496zm8.468 1.536c2.304 0 3.68-1.072 3.68-2.624 0-1.664-1.12-2.24-3.344-2.512-1.216-.176-1.76-.272-1.76-.8 0-.512.496-.736 1.296-.736.832 0 1.376.288 1.568.896l1.936-.384c-.368-1.296-1.664-2.048-3.52-2.048-2.096 0-3.44 1.008-3.44 2.576 0 1.664 1.152 2.112 3.536 2.4.96.128 1.6.24 1.6.832 0 .544-.624.816-1.504.816-1.184 0-1.824-.368-2-1.088l-2 .368c.4 1.552 1.76 2.304 3.952 2.304zm8.413.016c2.064 0 3.328-1.008 3.568-2.816l-2.144-.192c-.144.896-.496 1.424-1.28 1.424-.864 0-1.392-.768-1.392-2.528 0-1.616.464-2.464 1.36-2.464.784 0 1.12.624 1.232 1.536l2.208-.208c-.32-1.952-1.6-2.976-3.52-2.976-2.4 0-3.92 1.84-3.92 4.096 0 2.608 1.6 4.128 3.888 4.128zm7.386-.144v-4.752c.448-.848 1.248-1.328 2.192-1.328.208 0 .56.016.72.048v-2a2.658 2.658 0 0 0-.576-.048c-1.168 0-2.112.864-2.48 1.808v-1.664h-2.368V24h2.512zm6.515-8.784V13.12h-2.528v2.096h2.528zM185.534 24v-7.936h-2.496V24h2.496zm6.582.112c1.728 0 3.024-1.456 3.024-4.096 0-2.848-1.104-4.096-2.816-4.096-1.344 0-2 .768-2.496 1.472v-1.328h-2.352V26.56h2.48V23.2c.544.48 1.12.912 2.16.912zm-.832-1.504c-.704 0-1.056-.464-1.344-.8v-3.152c.304-.624.736-1.008 1.36-1.008.88 0 1.264.592 1.264 2.48 0 1.968-.448 2.48-1.28 2.48zm8.485 1.504c.496 0 1.056-.048 1.44-.096V22.24a4.65 4.65 0 0 1-.944 0c-.592-.08-.848-.432-.848-1.056v-3.44h1.632v-1.68h-1.632v-2.432h-2.24l-.16 2.432h-1.28v1.68h1.264v3.84c0 1.68.96 2.528 2.768 2.528zm5.109-8.896V13.12h-2.528v2.096h2.528zM204.862 24v-7.936h-2.496V24h2.496zm5.494.128c2.48 0 4.144-1.76 4.144-4.08 0-2.464-1.632-4.128-4.096-4.128-2.352 0-4.08 1.712-4.08 4.176 0 2.32 1.664 4.032 4.032 4.032zm.08-1.6c-.992 0-1.472-.784-1.472-2.512 0-1.68.512-2.448 1.456-2.448.976 0 1.424.784 1.424 2.448 0 1.744-.496 2.512-1.408 2.512zM218.408 24v-5.44c.32-.48.752-.928 1.408-.928.608 0 .864.368.864.864V24h2.48v-5.584c0-1.52-.656-2.496-2.288-2.496-1.344 0-2.096.8-2.56 1.456v-1.312h-2.384V24h2.48zm8.838-3.296.784-7.376h-3.072l.752 7.376h1.536zm.512 3.296v-2.448h-2.544V24h2.544zm10.264.176c2.08 0 3.456-1.104 3.968-3.504l-1.216-.24c-.32 1.68-1.184 2.656-2.704 2.656-1.664 0-2.896-1.456-2.896-4.352 0-2.896 1.168-4.432 2.928-4.432 1.36 0 2.224.704 2.64 2.512l1.28-.272c-.512-2.352-1.904-3.424-3.936-3.424-2.416 0-4.336 1.984-4.336 5.616 0 3.472 1.712 5.44 4.272 5.44zm8.45-.048c1.952 0 3.568-1.616 3.568-4.096 0-2.432-1.408-4.064-3.568-4.064-1.936 0-3.536 1.584-3.536 4.048 0 2.496 1.504 4.112 3.536 4.112zm-.016-.928c-1.328 0-2.208-1.184-2.208-3.168 0-2.032.96-3.088 2.208-3.088 1.312 0 2.272 1.024 2.272 3.072 0 2.128-.976 3.184-2.272 3.184zm6.617.8v-5.408c.656-.944 1.488-1.584 2.496-1.584.896 0 1.312.448 1.312 1.392V24h1.248v-5.584c0-1.616-.72-2.448-2.192-2.448-1.408 0-2.384.928-2.928 1.712v-1.568h-1.184V24h1.248zm10.274 2.976c2.56 0 3.856-.96 3.856-2.336 0-1.296-.896-1.824-3.408-1.872-1.6-.048-2.592-.048-2.592-.752 0-.48.448-.784.864-.784.128.032.64.144 1.152.144 1.792 0 2.88-1.136 2.88-2.704 0-.816-.304-1.44-.72-1.808.128-.576.464-.912 1.264-.896.096 0 .176.016.272.032l-.016-1.04h-.192c-1.344-.016-1.776.528-1.968 1.392-.48-.256-1.056-.384-1.648-.384-1.584 0-2.944 1.088-2.944 2.704 0 .96.384 1.776 1.152 2.176-.704.192-1.248.672-1.248 1.344 0 .608.32 1.056 1.12 1.28-.96.24-1.536.832-1.536 1.616 0 1.216 1.28 1.888 3.712 1.888zm-.192-6.432c-1.072 0-1.776-.64-1.776-1.872 0-.992.608-1.808 1.776-1.808 1.184 0 1.776.864 1.776 1.824 0 1.184-.656 1.856-1.776 1.856zm.096 5.6c-1.76 0-2.48-.448-2.48-1.2 0-.704.48-1.024 1.104-1.2 3.552.08 4.144.256 4.144 1.056s-1.008 1.344-2.768 1.344zM269.526 24v-5.152c.656-1.104 1.584-1.744 2.512-1.744.096 0 .256 0 .352.016v-1.136c-.128-.016-.224-.016-.368-.016-1.12 0-2.048.912-2.56 1.84v-1.696h-1.184V24h1.248zm6 .096c1.472 0 2.4-.56 3.024-1.424-.016.4.048 1.056.144 1.328h1.184a6.289 6.289 0 0 1-.176-1.536V18.88c0-1.984-.864-2.912-3.104-2.912-1.872 0-3.105.768-3.392 2.208l1.152.128c.256-1.008.928-1.36 2.208-1.36 1.328 0 1.84.464 1.936 1.328.032.192.032.464.032.736-.624.016-1.152.016-1.792.096-2.16.256-3.728 1.104-3.728 2.816 0 1.44 1.12 2.176 2.512 2.176zm.368-.912c-1.056 0-1.584-.48-1.584-1.392 0-.992.88-1.68 2.592-1.904.496-.064 1.072-.064 1.632-.064v1.632c-.336.816-1.136 1.728-2.64 1.728zm8.389.928c.432 0 .912-.048 1.344-.128v-.976a7.697 7.697 0 0 1-1.12.096c-.672-.016-1.104-.384-1.104-1.216v-4.784h1.776v-.992h-1.776v-2.064h-1.136l-.064 2.064h-1.296v.992h1.28v4.72c0 1.632.768 2.288 2.096 2.288zm5.21.016c1.92 0 3.168-.976 3.168-2.432 0-1.568-1.376-2.016-2.992-2.336-1.264-.272-2.208-.432-2.208-1.296 0-.72.72-1.152 1.776-1.152 1.072 0 1.792.48 2.096 1.312l1.104-.24c-.4-1.232-1.424-2.016-3.2-2.016-1.76 0-2.928.88-2.928 2.176 0 1.552 1.36 1.968 2.976 2.272 1.168.256 2.224.448 2.224 1.392 0 .832-.768 1.392-2.016 1.392-1.36 0-2.24-.624-2.496-1.552l-1.12.224c.384 1.44 1.616 2.256 3.616 2.256zm7.895 2.64c1.936 0 2.848-.816 3.328-2.208l3.008-8.448h-1.104l-1.824 5.152-.32 1.008-.32-1.008-1.952-5.152h-1.344l2.592 6.736c.672 1.76-.336 2.912-2.096 2.912l.032 1.008zm10.443-2.64c1.952 0 3.568-1.616 3.568-4.096 0-2.432-1.408-4.064-3.568-4.064-1.936 0-3.536 1.584-3.536 4.048 0 2.496 1.504 4.112 3.536 4.112zm-.016-.928c-1.328 0-2.208-1.184-2.208-3.168 0-2.032.96-3.088 2.208-3.088 1.312 0 2.272 1.024 2.272 3.072 0 2.128-.976 3.184-2.272 3.184zm7.769.928c1.056 0 2.016-.464 2.64-1.472V24h1.152v-7.888h-1.232v5.6c-.528.96-1.296 1.472-2.176 1.472-1.104 0-1.568-.496-1.568-1.744v-5.328h-1.248v5.296c0 1.984 1.008 2.72 2.432 2.72zm12.794 2.848c2.56 0 3.856-.96 3.856-2.336 0-1.296-.896-1.824-3.408-1.872-1.6-.048-2.592-.048-2.592-.752 0-.48.448-.784.864-.784.128.032.64.144 1.152.144 1.792 0 2.88-1.136 2.88-2.704 0-.816-.304-1.44-.72-1.808.128-.576.464-.912 1.264-.896.096 0 .176.016.272.032l-.016-1.04h-.192c-1.344-.016-1.776.528-1.968 1.392-.48-.256-1.056-.384-1.648-.384-1.584 0-2.944 1.088-2.944 2.704 0 .96.384 1.776 1.152 2.176-.704.192-1.248.672-1.248 1.344 0 .608.32 1.056 1.12 1.28-.96.24-1.536.832-1.536 1.616 0 1.216 1.28 1.888 3.712 1.888zm-.192-6.432c-1.072 0-1.776-.64-1.776-1.872 0-.992.608-1.808 1.776-1.808 1.184 0 1.776.864 1.776 1.824 0 1.184-.656 1.856-1.776 1.856zm.096 5.6c-1.76 0-2.48-.448-2.48-1.2 0-.704.48-1.024 1.104-1.2 3.552.08 4.144.256 4.144 1.056s-1.008 1.344-2.768 1.344zm8.051-2.016c1.568 0 2.784-.816 3.328-2.336l-1.088-.16c-.448 1.168-1.264 1.552-2.128 1.552-1.536 0-2.432-1.008-2.464-2.992h5.824c-.016-.176 0-.352-.016-.528-.16-2.192-1.36-3.696-3.424-3.696-2.032 0-3.648 1.552-3.648 4.224 0 2.352 1.456 3.936 3.616 3.936zm-2.304-4.784c.096-1.488 1.072-2.432 2.336-2.432 1.264 0 2.048.912 2.176 2.432h-4.512zm9.707 4.768c.432 0 .912-.048 1.344-.128v-.976a7.697 7.697 0 0 1-1.12.096c-.672-.016-1.104-.384-1.104-1.216v-4.784h1.776v-.992h-1.776v-2.064h-1.136l-.064 2.064h-1.296v.992h1.28v4.72c0 1.632.768 2.288 2.096 2.288zm8.29-.016c1.472 0 2.4-.56 3.024-1.424-.016.4.048 1.056.144 1.328h1.184a6.289 6.289 0 0 1-.176-1.536V18.88c0-1.984-.864-2.912-3.104-2.912-1.872 0-3.105.768-3.392 2.208l1.152.128c.256-1.008.928-1.36 2.208-1.36 1.328 0 1.84.464 1.936 1.328.032.192.032.464.032.736-.624.016-1.152.016-1.792.096-2.16.256-3.728 1.104-3.728 2.816 0 1.44 1.12 2.176 2.512 2.176zm.368-.912c-1.056 0-1.584-.48-1.584-1.392 0-.992.88-1.68 2.592-1.904.496-.064 1.072-.064 1.632-.064v1.632c-.336.816-1.136 1.728-2.64 1.728zM34.448 44v-5.408c.656-.944 1.488-1.584 2.496-1.584.896 0 1.312.448 1.312 1.392V44h1.248v-5.584c0-1.616-.72-2.448-2.192-2.448-1.408 0-2.384.928-2.928 1.712v-1.568H33.2V44h1.248zm10.448.128c1.568 0 2.784-.816 3.328-2.336l-1.088-.16c-.448 1.168-1.264 1.552-2.128 1.552-1.536 0-2.432-1.008-2.464-2.992h5.824c-.016-.176 0-.352-.016-.528-.16-2.192-1.36-3.696-3.424-3.696-2.032 0-3.648 1.552-3.648 4.224 0 2.352 1.456 3.936 3.616 3.936zm-2.304-4.784c.096-1.488 1.072-2.432 2.336-2.432 1.264 0 2.048.912 2.176 2.432h-4.512zM52.427 44l1.536-5.376.16-.688.192.72 1.6 5.344h1.056l2.352-7.888H58.25l-1.536 5.472-.208.672-.176-.704-1.616-5.44H53.69l-1.504 5.392-.192.72-.176-.72-1.568-5.392h-1.264L51.37 44h1.056zm14.347.128c1.92 0 3.168-.976 3.168-2.432 0-1.568-1.376-2.016-2.992-2.336-1.264-.272-2.208-.432-2.208-1.296 0-.72.72-1.152 1.776-1.152 1.072 0 1.792.48 2.096 1.312l1.104-.24c-.4-1.232-1.424-2.016-3.2-2.016-1.76 0-2.928.88-2.928 2.176 0 1.552 1.36 1.968 2.976 2.272 1.168.256 2.224.448 2.224 1.392 0 .832-.768 1.392-2.016 1.392-1.36 0-2.24-.624-2.496-1.552l-1.12.224c.384 1.44 1.616 2.256 3.616 2.256zm7.248 0c1.056 0 2.016-.464 2.64-1.472V44h1.152v-7.888h-1.232v5.6c-.528.96-1.296 1.472-2.176 1.472-1.104 0-1.568-.496-1.568-1.744v-5.328H71.59v5.296c0 1.984 1.008 2.72 2.432 2.72zm9.81-.016c1.792 0 3.088-1.36 3.088-4.08 0-2.64-1.104-4.064-2.992-4.064-1.136 0-2.144.784-2.544 1.648v-4.288H80.2V44h.688l.4-1.312c.512.896 1.36 1.424 2.544 1.424zm-.24-.896c-1.264 0-2.192-.944-2.192-2.592V38.72c.432-.912 1.088-1.76 2.24-1.76 1.328 0 2 1.04 2 3.104 0 2.208-.704 3.152-2.048 3.152zm7.635.912c1.92 0 3.168-.976 3.168-2.432 0-1.568-1.376-2.016-2.992-2.336-1.264-.272-2.208-.432-2.208-1.296 0-.72.72-1.152 1.776-1.152 1.072 0 1.792.48 2.096 1.312l1.104-.24c-.4-1.232-1.424-2.016-3.2-2.016-1.76 0-2.928.88-2.928 2.176 0 1.552 1.36 1.968 2.976 2.272 1.168.256 2.224.448 2.224 1.392 0 .832-.768 1.392-2.016 1.392-1.36 0-2.24-.624-2.496-1.552l-1.12.224c.384 1.44 1.616 2.256 3.616 2.256zm7.632 0c1.568 0 2.736-.912 3.008-2.688l-1.088-.112c-.24 1.312-.848 1.872-1.888 1.872-1.184 0-2.112-.976-2.112-3.152 0-1.968.768-3.088 2.032-3.088 1.088 0 1.712.704 1.904 2l1.168-.144c-.352-1.936-1.408-2.848-3.088-2.848-2 0-3.328 1.76-3.328 4.048 0 2.64 1.456 4.112 3.392 4.112zm5.917-.128v-5.152c.656-1.104 1.584-1.744 2.512-1.744.096 0 .256 0 .352.016v-1.136c-.128-.016-.224-.016-.368-.016-1.12 0-2.048.912-2.56 1.84v-1.696h-1.184V44h1.248zm5.44-9.28v-1.408h-1.36v1.408h1.36zm-.048 9.28v-7.888h-1.248V44h1.248zm6.119.112c1.584 0 3.008-1.392 3.008-4.064 0-2.848-1.216-4.08-2.976-4.08-1.264 0-2.064.768-2.544 1.536v-1.392h-1.184v10.56h1.232V42.96a3.181 3.181 0 0 0 2.464 1.152zm-.336-.912c-1.136 0-1.712-.704-2.128-1.296v-3.328c.56-1.104 1.296-1.584 2.208-1.584 1.36 0 1.968.976 1.968 3.088 0 2.272-.8 3.12-2.048 3.12zm7.363.912c.432 0 .912-.048 1.344-.128v-.976a7.697 7.697 0 0 1-1.12.096c-.672-.016-1.104-.384-1.104-1.216v-4.784h1.776v-.992h-1.776v-2.064h-1.136l-.064 2.064h-1.296v.992h1.28v4.72c0 1.632.768 2.288 2.096 2.288zm4.042-9.392v-1.408h-1.36v1.408h1.36zm-.048 9.28v-7.888h-1.248V44h1.248zm5.351.128c1.952 0 3.568-1.616 3.568-4.096 0-2.432-1.408-4.064-3.568-4.064-1.936 0-3.536 1.584-3.536 4.048 0 2.496 1.504 4.112 3.536 4.112zm-.016-.928c-1.328 0-2.208-1.184-2.208-3.168 0-2.032.96-3.088 2.208-3.088 1.312 0 2.272 1.024 2.272 3.072 0 2.128-.976 3.184-2.272 3.184zm6.618.8v-5.408c.656-.944 1.488-1.584 2.496-1.584.896 0 1.312.448 1.312 1.392V44h1.248v-5.584c0-1.616-.72-2.448-2.192-2.448-1.408 0-2.384.928-2.928 1.712v-1.568h-1.184V44h1.248zm12.359 0v-5.152c.656-1.104 1.584-1.744 2.512-1.744.096 0 .256 0 .352.016v-1.136c-.128-.016-.224-.016-.368-.016-1.12 0-2.048.912-2.56 1.84v-1.696h-1.184V44h1.248zm6.979.128c1.568 0 2.784-.816 3.328-2.336l-1.088-.16c-.448 1.168-1.264 1.552-2.128 1.552-1.536 0-2.432-1.008-2.464-2.992h5.824c-.016-.176 0-.352-.016-.528-.16-2.192-1.36-3.696-3.424-3.696-2.032 0-3.648 1.552-3.648 4.224 0 2.352 1.456 3.936 3.616 3.936zm-2.304-4.784c.096-1.488 1.072-2.432 2.336-2.432 1.264 0 2.048.912 2.176 2.432h-4.512zm9.915 4.784c1.152 0 1.952-.464 2.576-1.328V44h1.168V33.328h-1.2v3.856c-.368-.528-1.12-1.216-2.32-1.216-2.016 0-3.232 1.776-3.232 4.112 0 2.576 1.104 4.048 3.008 4.048zm.336-.944c-1.312 0-2.048-.912-2.048-3.104 0-2.016.704-3.136 2.128-3.136 1.168 0 1.712.672 2.112 1.424v3.216c-.336.88-1.008 1.6-2.192 1.6zm8.865.944c1.569 0 2.785-.816 3.329-2.336l-1.088-.16c-.448 1.168-1.264 1.552-2.128 1.552-1.536 0-2.432-1.008-2.464-2.992h5.824c-.016-.176 0-.352-.016-.528-.16-2.192-1.36-3.696-3.424-3.696-2.032 0-3.648 1.552-3.648 4.224 0 2.352 1.456 3.936 3.615 3.936zm-2.303-4.784c.096-1.488 1.072-2.432 2.336-2.432 1.264 0 2.048.912 2.176 2.432h-4.512zm10.522 4.784c1.568 0 2.784-.816 3.328-2.336l-1.088-.16c-.448 1.168-1.264 1.552-2.128 1.552-1.536 0-2.432-1.008-2.464-2.992h5.824c-.016-.176 0-.352-.016-.528-.16-2.192-1.36-3.696-3.424-3.696-2.032 0-3.648 1.552-3.648 4.224 0 2.352 1.456 3.936 3.616 3.936zm-2.304-4.784c.096-1.488 1.072-2.432 2.336-2.432 1.264 0 2.048.912 2.176 2.432h-4.512zM190.057 44v-5.408c.72-1.008 1.376-1.6 2.288-1.6.768 0 1.168.528 1.168 1.472V44h1.216v-5.392c.496-.784 1.312-1.584 2.288-1.584.768 0 1.2.432 1.2 1.456V44h1.232v-5.6c0-.64-.16-1.152-.4-1.52-.32-.592-.864-.896-1.68-.896-1.248 0-2.176.896-2.72 1.76-.096-1.12-.832-1.776-1.984-1.776-1.136 0-2.176.944-2.64 1.728v-1.584h-1.2V44h1.232zm16.672 0v-5.408c.656-.944 1.488-1.584 2.496-1.584.896 0 1.312.448 1.312 1.392V44h1.248v-5.584c0-1.616-.72-2.448-2.192-2.448-1.408 0-2.384.928-2.928 1.712v-1.568h-1.184V44h1.248zm10.352.128c1.952 0 3.568-1.616 3.568-4.096 0-2.432-1.408-4.064-3.568-4.064-1.936 0-3.536 1.584-3.536 4.048 0 2.496 1.504 4.112 3.536 4.112zm-.016-.928c-1.328 0-2.208-1.184-2.208-3.168 0-2.032.96-3.088 2.208-3.088 1.312 0 2.272 1.024 2.272 3.072 0 2.128-.976 3.184-2.272 3.184zm7.705.8 1.536-5.376.16-.688.192.72 1.6 5.344h1.056l2.352-7.888h-1.072l-1.536 5.472-.208.672-.176-.704-1.616-5.44h-1.024l-1.504 5.392-.192.72-.176-.72-1.568-5.392h-1.264L223.714 44h1.056zM149.172 45.6h82.558v.8h-82.558v-.8z" fill="#111"/>
</svg>
