<svg width="404" height="207" viewBox="0 0 404 207" fill="none" xmlns="http://www.w3.org/2000/svg">
<rect x="101" width="28" height="28" rx="14" fill="#94538C"/>
<path d="M118.832 20V18.88H112.752C116.72 16.176 118.592 14.432 118.592 12.416C118.592 10.448 117.248 9.152 114.992 9.152C112.8 9.152 111.488 10.4 111.136 12.336L112.368 12.576C112.56 11.056 113.552 10.24 114.944 10.24C116.528 10.24 117.248 11.168 117.248 12.336C117.248 14.144 116.112 15.28 111.136 18.96V20H118.832Z" fill="#FCFCFC"/>
<line x1="115.5" y1="28" x2="115.5" y2="58" stroke="#94538C" stroke-dasharray="2 2"/>
<rect x="90.5" y="52.5" width="311" height="153.999" rx="1.5" fill="white"/>
<path d="M99.992 70V66.544H101.936C103.472 66.544 104.432 65.656 104.432 64.276C104.432 62.86 103.568 61.996 101.828 61.996H98.996V70H99.992ZM99.992 62.848H101.912C102.824 62.848 103.424 63.412 103.424 64.312C103.424 65.2 102.824 65.728 101.84 65.728H99.992V62.848ZM106.563 70V61.996H105.627V70H106.563ZM109.796 70.072C110.9 70.072 111.596 69.652 112.064 69.004C112.052 69.304 112.1 69.796 112.172 70H113.06C112.964 69.628 112.928 69.22 112.928 68.848V66.16C112.928 64.672 112.28 63.976 110.6 63.976C109.196 63.976 108.272 64.552 108.056 65.632L108.92 65.728C109.112 64.972 109.616 64.708 110.576 64.708C111.572 64.708 111.956 65.056 112.028 65.704C112.052 65.848 112.052 66.052 112.052 66.256C111.584 66.268 111.188 66.268 110.708 66.328C109.088 66.52 107.912 67.156 107.912 68.44C107.912 69.52 108.752 70.072 109.796 70.072ZM110.072 69.388C109.28 69.388 108.884 69.028 108.884 68.344C108.884 67.6 109.544 67.084 110.828 66.916C111.2 66.868 111.632 66.868 112.052 66.868V68.092C111.8 68.704 111.2 69.388 110.072 69.388ZM116.797 70.096C117.973 70.096 118.849 69.412 119.053 68.08L118.237 67.996C118.057 68.98 117.601 69.4 116.821 69.4C115.933 69.4 115.237 68.668 115.237 67.036C115.237 65.56 115.813 64.72 116.761 64.72C117.577 64.72 118.045 65.248 118.189 66.22L119.065 66.112C118.801 64.66 118.009 63.976 116.749 63.976C115.249 63.976 114.253 65.296 114.253 67.012C114.253 68.992 115.345 70.096 116.797 70.096ZM122.566 70.096C123.742 70.096 124.654 69.484 125.062 68.344L124.246 68.224C123.91 69.1 123.298 69.388 122.65 69.388C121.498 69.388 120.826 68.632 120.802 67.144H125.17C125.158 67.012 125.17 66.88 125.158 66.748C125.038 65.104 124.138 63.976 122.59 63.976C121.066 63.976 119.854 65.14 119.854 67.144C119.854 68.908 120.946 70.096 122.566 70.096ZM120.838 66.508C120.91 65.392 121.642 64.684 122.59 64.684C123.538 64.684 124.126 65.368 124.222 66.508H120.838ZM127.399 70V65.956C127.891 65.248 128.479 64.756 129.307 64.756C129.907 64.756 130.267 65.092 130.267 65.812V70H131.203V65.74C131.203 64.768 130.771 63.976 129.571 63.976C128.467 63.976 127.747 64.636 127.363 65.248V61.996H126.463V70H127.399ZM135.174 70.096C136.638 70.096 137.85 68.884 137.85 67.024C137.85 65.2 136.794 63.976 135.174 63.976C133.722 63.976 132.522 65.164 132.522 67.012C132.522 68.884 133.65 70.096 135.174 70.096ZM135.162 69.4C134.166 69.4 133.506 68.512 133.506 67.024C133.506 65.5 134.226 64.708 135.162 64.708C136.146 64.708 136.866 65.476 136.866 67.012C136.866 68.608 136.134 69.4 135.162 69.4ZM140.149 70V61.996H139.213V70H140.149ZM143.778 70.096C144.642 70.096 145.242 69.748 145.71 69.1V70H146.586V61.996H145.686V64.888C145.41 64.492 144.846 63.976 143.946 63.976C142.434 63.976 141.522 65.308 141.522 67.06C141.522 68.992 142.35 70.096 143.778 70.096ZM144.03 69.388C143.046 69.388 142.494 68.704 142.494 67.06C142.494 65.548 143.022 64.708 144.09 64.708C144.966 64.708 145.374 65.212 145.674 65.776V68.188C145.422 68.848 144.918 69.388 144.03 69.388ZM150.68 70.096C151.856 70.096 152.768 69.484 153.176 68.344L152.36 68.224C152.024 69.1 151.412 69.388 150.764 69.388C149.612 69.388 148.94 68.632 148.916 67.144H153.284C153.272 67.012 153.284 66.88 153.272 66.748C153.152 65.104 152.252 63.976 150.704 63.976C149.18 63.976 147.968 65.14 147.968 67.144C147.968 68.908 149.06 70.096 150.68 70.096ZM148.952 66.508C149.024 65.392 149.756 64.684 150.704 64.684C151.652 64.684 152.24 65.368 152.336 66.508H148.952ZM155.512 70V66.136C156.004 65.308 156.7 64.828 157.396 64.828C157.468 64.828 157.588 64.828 157.66 64.84V63.988C157.564 63.976 157.492 63.976 157.384 63.976C156.544 63.976 155.848 64.66 155.464 65.356V64.084H154.576V70H155.512ZM157.827 72.004L162.663 61.996H161.871L157.047 72.004H157.827ZM168.845 70V69.136H165.137V61.996H164.141V70H168.845ZM171.332 70.072C172.436 70.072 173.132 69.652 173.6 69.004C173.588 69.304 173.636 69.796 173.708 70H174.596C174.5 69.628 174.464 69.22 174.464 68.848V66.16C174.464 64.672 173.816 63.976 172.136 63.976C170.732 63.976 169.808 64.552 169.592 65.632L170.456 65.728C170.648 64.972 171.152 64.708 172.112 64.708C173.108 64.708 173.492 65.056 173.564 65.704C173.588 65.848 173.588 66.052 173.588 66.256C173.12 66.268 172.724 66.268 172.244 66.328C170.624 66.52 169.448 67.156 169.448 68.44C169.448 69.52 170.288 70.072 171.332 70.072ZM171.608 69.388C170.816 69.388 170.42 69.028 170.42 68.344C170.42 67.6 171.08 67.084 172.364 66.916C172.736 66.868 173.168 66.868 173.588 66.868V68.092C173.336 68.704 172.736 69.388 171.608 69.388ZM178.968 70.084C180.312 70.084 181.284 69.064 181.284 67.024C181.284 65.044 180.456 63.976 179.04 63.976C178.188 63.976 177.432 64.564 177.132 65.212V61.996H176.244V70H176.76L177.06 69.016C177.444 69.688 178.08 70.084 178.968 70.084ZM178.788 69.412C177.84 69.412 177.144 68.704 177.144 67.468V66.04C177.468 65.356 177.96 64.72 178.824 64.72C179.82 64.72 180.324 65.5 180.324 67.048C180.324 68.704 179.796 69.412 178.788 69.412ZM184.91 70.096C186.086 70.096 186.998 69.484 187.406 68.344L186.59 68.224C186.254 69.1 185.642 69.388 184.994 69.388C183.842 69.388 183.17 68.632 183.146 67.144H187.514C187.502 67.012 187.514 66.88 187.502 66.748C187.382 65.104 186.482 63.976 184.934 63.976C183.41 63.976 182.198 65.14 182.198 67.144C182.198 68.908 183.29 70.096 184.91 70.096ZM183.182 66.508C183.254 65.392 183.986 64.684 184.934 64.684C185.882 64.684 186.47 65.368 186.566 66.508H183.182ZM189.766 70V61.996H188.83V70H189.766Z" fill="#666666"/>
<path d="M102.992 88L106.592 77.328H105.376L102.8 85.104C102.736 85.264 102.496 86.048 102.448 86.256C102.416 86.048 102.16 85.216 102.128 85.104L99.504 77.328H98.096L101.696 88H102.992ZM109.26 88.096C110.732 88.096 111.66 87.536 112.284 86.672C112.268 87.072 112.332 87.728 112.428 88H113.612C113.484 87.504 113.436 86.96 113.436 86.464V82.88C113.436 80.896 112.572 79.968 110.332 79.968C108.46 79.968 107.228 80.736 106.94 82.176L108.092 82.304C108.348 81.296 109.02 80.944 110.3 80.944C111.628 80.944 112.14 81.408 112.236 82.272C112.268 82.464 112.268 82.736 112.268 83.008C111.644 83.024 111.116 83.024 110.476 83.104C108.316 83.36 106.748 84.208 106.748 85.92C106.748 87.36 107.868 88.096 109.26 88.096ZM109.628 87.184C108.572 87.184 108.044 86.704 108.044 85.792C108.044 84.8 108.924 84.112 110.636 83.888C111.132 83.824 111.708 83.824 112.268 83.824V85.456C111.932 86.272 111.132 87.184 109.628 87.184ZM117.089 88V77.328H115.841V88H117.089ZM121.913 88.128C122.969 88.128 123.929 87.664 124.553 86.656V88H125.705V80.112H124.473V85.712C123.945 86.672 123.177 87.184 122.297 87.184C121.193 87.184 120.729 86.688 120.729 85.44V80.112H119.481V85.408C119.481 87.392 120.489 88.128 121.913 88.128ZM131.115 88.128C132.683 88.128 133.899 87.312 134.443 85.792L133.355 85.632C132.907 86.8 132.091 87.184 131.227 87.184C129.691 87.184 128.795 86.176 128.763 84.192H134.587C134.571 84.016 134.587 83.84 134.571 83.664C134.411 81.472 133.211 79.968 131.147 79.968C129.115 79.968 127.499 81.52 127.499 84.192C127.499 86.544 128.955 88.128 131.115 88.128ZM128.811 83.344C128.907 81.856 129.883 80.912 131.147 80.912C132.411 80.912 133.195 81.824 133.323 83.344H128.811Z" fill="#111111"/>
<rect x="90.5" y="52.5" width="311" height="153.999" rx="1.5" stroke="#E9E9E9"/>
<rect width="312" height="0.001" transform="translate(90 206.999)" fill="white"/>
<rect width="400" height="0.001" transform="translate(0 206.999)" fill="white"/>
<rect width="16.0065" height="16.0065" transform="translate(382 189.014)" fill="white"/>
<rect x="387.165" y="204.134" width="14.332" height="1" transform="rotate(-45 387.165 204.134)" fill="#D5D5D5"/>
<rect x="391.922" y="204.212" width="7.5065" height="1" transform="rotate(-45 391.922 204.212)" fill="#D5D5D5"/>
<rect x="382" y="204.314" width="21.6367" height="1" transform="rotate(-45 382 204.314)" fill="#D5D5D5"/>
<rect x="51" y="52" width="28" height="28" rx="14" fill="#94538C"/>
<path d="M68.2926 72V70.944H65.9406V61.12H64.9806C64.2926 62.256 63.5406 63.088 62.3726 63.728V65.104C63.8926 64.24 64.2766 63.552 64.6606 63.104V70.944H62.2606V72H68.2926Z" fill="#FCFCFC"/>
<line x1="83" y1="65.5" x2="98" y2="65.5" stroke="#94538C" stroke-dasharray="2 2"/>
<line x1="117.5" y1="88" x2="117.5" y2="128" stroke="#94538C" stroke-dasharray="2 2"/>
<rect x="103" y="128" width="28" height="28" rx="14" fill="#94538C"/>
<path d="M116.944 148.192C119.472 148.192 120.864 146.832 120.864 145.056C120.864 143.648 119.92 142.688 118.416 142.384C119.728 142.064 120.464 141.136 120.464 139.888C120.464 138.288 119.232 137.136 116.88 137.136C115.12 137.136 113.744 138.016 113.184 139.68L114.384 139.92C114.688 138.88 115.584 138.224 116.912 138.224C118.288 138.224 119.136 138.88 119.136 140.016C119.136 141.248 118.288 141.904 116.64 141.904H115.408V142.992H116.64C118.512 142.992 119.52 143.824 119.52 145.04C119.52 146.208 118.688 147.136 116.912 147.136C115.248 147.136 114.416 146.544 114.048 145.216L112.8 145.456C113.296 147.344 114.72 148.192 116.944 148.192Z" fill="#FCFCFC"/>
<rect x="376" y="122" width="28" height="28" rx="14" fill="#94538C"/>
<path d="M392.376 142V139.504H394.088V138.4H392.376V131.12H390.968L385.8 138.48V139.504H391.128V142H392.376ZM391.128 132.576V138.4H386.984L391.128 132.576Z" fill="#FCFCFC"/>
<line x1="390.5" y1="150" x2="390.5" y2="190" stroke="#94538C" stroke-dasharray="2 2"/>
</svg>
