<svg width="600" height="225" viewBox="0 0 600 225" fill="none" xmlns="http://www.w3.org/2000/svg">
<rect width="150" height="150" fill="#EA0017"/>
<path d="M12.8866 27V21.9919H15.7037C17.9295 21.9919 19.3207 20.7051 19.3207 18.7053C19.3207 16.6534 18.0686 15.4013 15.5472 15.4013H11.4433V27H12.8866ZM12.8866 16.636H15.6689C16.9905 16.636 17.86 17.4533 17.86 18.7575C17.86 20.0443 16.9905 20.8094 15.5646 20.8094H12.8866V16.636ZM21.8477 27V21.4006C22.5607 20.2008 23.5692 19.5052 24.5778 19.5052C24.6821 19.5052 24.856 19.5052 24.9604 19.5226V18.288C24.8213 18.2706 24.7169 18.2706 24.5604 18.2706C23.3432 18.2706 22.3346 19.2618 21.7781 20.2703V18.4271H20.4913V27H21.8477ZM27.7594 16.9142V15.3839H26.2813V16.9142H27.7594ZM27.7072 27V18.4271H26.3508V27H27.7072ZM31.6797 27V21.1224C32.4622 20.0269 33.1752 19.3835 34.1664 19.3835C35.0011 19.3835 35.4358 19.9573 35.4358 20.9833V27H36.7574V21.1398C37.2965 20.2877 38.1833 19.4183 39.2441 19.4183C40.0788 19.4183 40.5483 19.8878 40.5483 21.0007V27H41.8872V20.9137C41.8872 20.2182 41.7133 19.6617 41.4525 19.2618C41.1047 18.6184 40.5135 18.288 39.6266 18.288C38.2703 18.288 37.2617 19.2618 36.6704 20.2008C36.5661 18.9835 35.7662 18.2706 34.5142 18.2706C33.2795 18.2706 32.1492 19.2965 31.6449 20.1486V18.4271H30.3407V27H31.6797ZM46.4875 27.1043C48.0873 27.1043 49.0959 26.4957 49.7741 25.5567C49.7567 25.9914 49.8263 26.7044 49.9306 27H51.2174C51.0783 26.4609 51.0261 25.8697 51.0261 25.3306V21.4354C51.0261 19.2791 50.0871 18.2706 47.6526 18.2706C45.6181 18.2706 44.2791 19.1053 43.9661 20.6703L45.2181 20.8094C45.4963 19.7139 46.2267 19.3313 47.6178 19.3313C49.0611 19.3313 49.6176 19.8356 49.7219 20.7746C49.7567 20.9833 49.7567 21.2789 49.7567 21.5745C49.0785 21.5919 48.5047 21.5919 47.8091 21.6789C45.4616 21.9571 43.7574 22.8787 43.7574 24.7394C43.7574 26.3044 44.9747 27.1043 46.4875 27.1043ZM46.8875 26.1131C45.7398 26.1131 45.1659 25.5915 45.1659 24.6003C45.1659 23.5221 46.1224 22.7744 47.983 22.5309C48.5221 22.4614 49.1481 22.4614 49.7567 22.4614V24.2351C49.3915 25.122 48.5221 26.1131 46.8875 26.1131ZM54.9621 27V21.4006C55.6751 20.2008 56.6836 19.5052 57.6922 19.5052C57.7966 19.5052 57.9705 19.5052 58.0748 19.5226V18.288C57.9357 18.2706 57.8313 18.2706 57.6748 18.2706C56.4576 18.2706 55.449 19.2618 54.8925 20.2703V18.4271H53.6057V27H54.9621ZM58.8877 30.0084C60.9918 30.0084 61.983 29.1215 62.5047 27.6086L65.7739 18.4271H64.574L62.5917 24.0264L62.2439 25.122L61.8961 24.0264L59.7746 18.4271H58.3139L61.131 25.748C61.8613 27.6608 60.7658 28.9128 58.853 28.9128L58.8877 30.0084Z" fill="white"/>
<rect width="150" height="150" transform="translate(300)" fill="#61A125"/>
<path d="M315.373 27.1913C317.634 27.1913 319.129 25.9914 319.686 23.383L318.364 23.1222C318.016 24.9481 317.077 26.0088 315.425 26.0088C313.617 26.0088 312.278 24.4264 312.278 21.2789C312.278 18.1315 313.547 16.4621 315.46 16.4621C316.938 16.4621 317.877 17.2272 318.329 19.1922L319.721 18.8966C319.164 16.3404 317.651 15.1753 315.443 15.1753C312.817 15.1753 310.73 17.3315 310.73 21.2789C310.73 25.0524 312.591 27.1913 315.373 27.1913ZM324.097 27.1217C324.566 27.1217 325.088 27.0696 325.557 26.9826V25.9219C325.244 25.974 324.74 26.0262 324.34 26.0262C323.61 26.0088 323.14 25.6089 323.14 24.7046V19.5052H325.071V18.4271H323.14V16.1838H321.906L321.836 18.4271H320.428V19.5052H321.819V24.6351C321.819 26.4088 322.653 27.1217 324.097 27.1217ZM329.098 27.1043C330.698 27.1043 331.707 26.4957 332.385 25.5567C332.367 25.9914 332.437 26.7044 332.541 27H333.828C333.689 26.4609 333.637 25.8697 333.637 25.3306V21.4354C333.637 19.2791 332.698 18.2706 330.263 18.2706C328.229 18.2706 326.89 19.1053 326.577 20.6703L327.829 20.8094C328.107 19.7139 328.837 19.3313 330.229 19.3313C331.672 19.3313 332.228 19.8356 332.333 20.7746C332.367 20.9833 332.367 21.2789 332.367 21.5745C331.689 21.5919 331.115 21.5919 330.42 21.6789C328.072 21.9571 326.368 22.8787 326.368 24.7394C326.368 26.3044 327.585 27.1043 329.098 27.1043ZM329.498 26.1131C328.35 26.1131 327.777 25.5915 327.777 24.6003C327.777 23.5221 328.733 22.7744 330.594 22.5309C331.133 22.4614 331.759 22.4614 332.367 22.4614V24.2351C332.002 25.122 331.133 26.1131 329.498 26.1131Z" fill="white"/>
<rect width="150" height="150" transform="translate(450)" fill="#3D73D5"/>
<path d="M464.991 27.1913C467.634 27.1913 469.199 25.9045 469.199 23.8525C469.199 21.9049 467.877 21.0876 465.443 20.4442C463.061 19.8182 462.208 19.3835 462.208 18.0967C462.208 17.1055 463.165 16.3751 464.626 16.3751C466.086 16.3751 467.199 17.1403 467.547 18.4445L468.886 18.0271C468.329 16.2186 466.817 15.1753 464.643 15.1753C462.4 15.1753 460.765 16.3751 460.765 18.2532C460.765 20.3051 462.382 21.0702 464.521 21.6093C466.434 22.1136 467.773 22.5309 467.773 23.9743C467.773 25.2958 466.712 26.0088 465.008 26.0088C462.974 26.0088 461.982 25.1741 461.443 23.7656L460.209 24.2525C460.974 26.1827 462.469 27.1913 464.991 27.1913ZM472.444 16.9142V15.3839H470.966V16.9142H472.444ZM472.392 27V18.4271H471.036V27H472.392ZM478.208 30.2344C480.99 30.2344 482.399 29.1911 482.399 27.6956C482.399 26.287 481.425 25.7132 478.695 25.661C476.956 25.6089 475.878 25.6089 475.878 24.8437C475.878 24.322 476.364 23.9916 476.817 23.9916C476.956 24.0264 477.512 24.1482 478.069 24.1482C480.016 24.1482 481.199 22.9135 481.199 21.2094C481.199 20.3225 480.868 19.6443 480.416 19.2444C480.555 18.6184 480.92 18.2532 481.79 18.2706C481.894 18.2706 481.981 18.288 482.086 18.3053L482.068 17.175C482.016 17.175 481.912 17.175 481.859 17.175C480.399 17.1576 479.929 17.7489 479.721 18.6879C479.199 18.4097 478.573 18.2706 477.929 18.2706C476.208 18.2706 474.73 19.453 474.73 21.2094C474.73 22.2527 475.147 23.1396 475.982 23.5743C475.217 23.783 474.625 24.3047 474.625 25.035C474.625 25.6958 474.973 26.1827 475.843 26.4262C474.799 26.687 474.173 27.3304 474.173 28.1825C474.173 29.5041 475.565 30.2344 478.208 30.2344ZM477.999 23.2439C476.834 23.2439 476.069 22.5483 476.069 21.2094C476.069 20.1312 476.73 19.2444 477.999 19.2444C479.286 19.2444 479.929 20.1834 479.929 21.2267C479.929 22.5136 479.216 23.2439 477.999 23.2439ZM478.103 29.3302C476.191 29.3302 475.408 28.8433 475.408 28.026C475.408 27.2608 475.93 26.9131 476.608 26.7218C480.468 26.8087 481.112 27 481.112 27.8695C481.112 28.7389 480.016 29.3302 478.103 29.3302ZM484.924 27V21.1224C485.637 20.0964 486.541 19.4009 487.636 19.4009C488.61 19.4009 489.062 19.8878 489.062 20.9137V27H490.419V20.9311C490.419 19.1748 489.636 18.2706 488.036 18.2706C486.506 18.2706 485.445 19.2791 484.854 20.1312V18.4271H483.567V27H484.924ZM495.044 27.1043C496.644 27.1043 497.652 26.4957 498.331 25.5567C498.313 25.9914 498.383 26.7044 498.487 27H499.774C499.635 26.4609 499.583 25.8697 499.583 25.3306V21.4354C499.583 19.2791 498.644 18.2706 496.209 18.2706C494.175 18.2706 492.836 19.1053 492.523 20.6703L493.775 20.8094C494.053 19.7139 494.783 19.3313 496.174 19.3313C497.618 19.3313 498.174 19.8356 498.278 20.7746C498.313 20.9833 498.313 21.2789 498.313 21.5745C497.635 21.5919 497.061 21.5919 496.366 21.6789C494.018 21.9571 492.314 22.8787 492.314 24.7394C492.314 26.3044 493.531 27.1043 495.044 27.1043ZM495.444 26.1131C494.296 26.1131 493.722 25.5915 493.722 24.6003C493.722 23.5221 494.679 22.7744 496.54 22.5309C497.079 22.4614 497.705 22.4614 498.313 22.4614V24.2351C497.948 25.122 497.079 26.1131 495.444 26.1131ZM503.553 27V15.4013H502.197V27H503.553Z" fill="white"/>
<rect width="600" height="75" transform="translate(0 150)" fill="white"/>
<path d="M14.4864 177.139C16.6079 177.139 18.3643 175.383 18.3643 172.687C18.3643 170.044 16.834 168.271 14.4864 168.271C12.3823 168.271 10.6434 169.992 10.6434 172.67C10.6434 175.383 12.278 177.139 14.4864 177.139ZM14.4691 176.131C13.0257 176.131 12.0693 174.844 12.0693 172.687C12.0693 170.479 13.1127 169.331 14.4691 169.331C15.895 169.331 16.9383 170.444 16.9383 172.67C16.9383 174.983 15.8776 176.131 14.4691 176.131ZM21.6609 177V171.122C22.3739 170.096 23.2781 169.401 24.3736 169.401C25.3474 169.401 25.7995 169.888 25.7995 170.914V177H27.1559V170.931C27.1559 169.175 26.3734 168.271 24.7736 168.271C23.2433 168.271 22.1826 169.279 21.5913 170.131V168.427H20.3045V177H21.6609ZM31.1379 177V166.775L34.894 177H35.9026L39.6761 166.775V177H41.0498V165.401H38.9283L35.5026 174.618L32.0248 165.401H29.8685V177H31.1379ZM47.0769 177.139C48.781 177.139 50.1026 176.252 50.6938 174.6L49.5114 174.426C49.0245 175.696 48.1376 176.113 47.1986 176.113C45.5292 176.113 44.5554 175.018 44.5206 172.861H50.8503C50.833 172.67 50.8503 172.479 50.833 172.287C50.6591 169.905 49.3549 168.271 47.1116 168.271C44.9032 168.271 43.1469 169.957 43.1469 172.861C43.1469 175.418 44.7293 177.139 47.0769 177.139ZM44.5728 171.94C44.6771 170.323 45.7379 169.297 47.1116 169.297C48.4854 169.297 49.3375 170.288 49.4766 171.94H44.5728ZM55.4354 177.139C57.5221 177.139 58.8785 176.078 58.8785 174.496C58.8785 172.792 57.383 172.305 55.6267 171.957C54.2529 171.661 53.227 171.488 53.227 170.549C53.227 169.766 54.0095 169.297 55.1572 169.297C56.3223 169.297 57.1048 169.818 57.4352 170.722L58.6351 170.462C58.2003 169.123 57.0874 168.271 55.1572 168.271C53.2444 168.271 51.9749 169.227 51.9749 170.636C51.9749 172.322 53.453 172.774 55.2094 173.105C56.4788 173.383 57.6265 173.592 57.6265 174.618C57.6265 175.522 56.7918 176.131 55.4354 176.131C53.9573 176.131 53.0009 175.452 52.7227 174.444L51.5054 174.687C51.9228 176.252 53.2618 177.139 55.4354 177.139ZM63.4168 177.139C65.5036 177.139 66.8599 176.078 66.8599 174.496C66.8599 172.792 65.3644 172.305 63.6081 171.957C62.2344 171.661 61.2084 171.488 61.2084 170.549C61.2084 169.766 61.9909 169.297 63.1386 169.297C64.3037 169.297 65.0862 169.818 65.4166 170.722L66.6165 170.462C66.1817 169.123 65.0688 168.271 63.1386 168.271C61.2258 168.271 59.9564 169.227 59.9564 170.636C59.9564 172.322 61.4345 172.774 63.1908 173.105C64.4602 173.383 65.6079 173.592 65.6079 174.618C65.6079 175.522 64.7732 176.131 63.4168 176.131C61.9387 176.131 60.9823 175.452 60.7041 174.444L59.4869 174.687C59.9042 176.252 61.2432 177.139 63.4168 177.139ZM70.7375 177.104C72.3373 177.104 73.3459 176.496 74.024 175.557C74.0067 175.991 74.0762 176.704 74.1805 177H75.4674C75.3282 176.461 75.2761 175.87 75.2761 175.331V171.435C75.2761 169.279 74.3371 168.271 71.9025 168.271C69.868 168.271 68.529 169.105 68.216 170.67L69.468 170.809C69.7463 169.714 70.4766 169.331 71.8678 169.331C73.3111 169.331 73.8675 169.836 73.9719 170.775C74.0067 170.983 74.0067 171.279 74.0067 171.575C73.3285 171.592 72.7546 171.592 72.0591 171.679C69.7115 171.957 68.0073 172.879 68.0073 174.739C68.0073 176.304 69.2246 177.104 70.7375 177.104ZM71.1374 176.113C69.9897 176.113 69.4159 175.591 69.4159 174.6C69.4159 173.522 70.3723 172.774 72.2329 172.531C72.772 172.461 73.398 172.461 74.0067 172.461V174.235C73.6415 175.122 72.772 176.113 71.1374 176.113ZM81.0379 180.234C83.8202 180.234 85.2287 179.191 85.2287 177.696C85.2287 176.287 84.2549 175.713 81.5248 175.661C79.7859 175.609 78.7078 175.609 78.7078 174.844C78.7078 174.322 79.1947 173.992 79.6468 173.992C79.7859 174.026 80.3423 174.148 80.8988 174.148C82.8464 174.148 84.0289 172.914 84.0289 171.209C84.0289 170.323 83.6985 169.644 83.2464 169.244C83.3855 168.618 83.7507 168.253 84.6201 168.271C84.7245 168.271 84.8114 168.288 84.9157 168.305L84.8983 167.175C84.8462 167.175 84.7418 167.175 84.6897 167.175C83.229 167.158 82.7595 167.749 82.5508 168.688C82.0291 168.41 81.4031 168.271 80.7597 168.271C79.0381 168.271 77.5601 169.453 77.5601 171.209C77.5601 172.253 77.9774 173.14 78.8121 173.574C78.047 173.783 77.4557 174.305 77.4557 175.035C77.4557 175.696 77.8035 176.183 78.673 176.426C77.6296 176.687 77.0036 177.33 77.0036 178.182C77.0036 179.504 78.3947 180.234 81.0379 180.234ZM80.8292 173.244C79.6642 173.244 78.899 172.548 78.899 171.209C78.899 170.131 79.5598 169.244 80.8292 169.244C82.1161 169.244 82.7595 170.183 82.7595 171.227C82.7595 172.514 82.0465 173.244 80.8292 173.244ZM80.9336 179.33C79.0208 179.33 78.2382 178.843 78.2382 178.026C78.2382 177.261 78.7599 176.913 79.4381 176.722C83.2985 176.809 83.9419 177 83.9419 177.869C83.9419 178.739 82.8464 179.33 80.9336 179.33ZM89.6841 177.139C91.3882 177.139 92.7098 176.252 93.301 174.6L92.1186 174.426C91.6317 175.696 90.7448 176.113 89.8058 176.113C88.1364 176.113 87.1626 175.018 87.1278 172.861H93.4576C93.4402 172.67 93.4576 172.479 93.4402 172.287C93.2663 169.905 91.9621 168.271 89.7188 168.271C87.5104 168.271 85.7541 169.957 85.7541 172.861C85.7541 175.418 87.3365 177.139 89.6841 177.139ZM87.18 171.94C87.2843 170.323 88.3451 169.297 89.7188 169.297C91.0926 169.297 91.9447 170.288 92.0838 171.94H87.18Z" fill="black"/>
<rect width="150" height="150" transform="translate(150)" fill="#F29F18"/>
<path d="M163.991 27.1913C166.634 27.1913 168.199 25.9045 168.199 23.8525C168.199 21.9049 166.877 21.0876 164.443 20.4442C162.061 19.8182 161.208 19.3835 161.208 18.0967C161.208 17.1055 162.165 16.3751 163.626 16.3751C165.086 16.3751 166.199 17.1403 166.547 18.4445L167.886 18.0271C167.329 16.2186 165.817 15.1753 163.643 15.1753C161.4 15.1753 159.765 16.3751 159.765 18.2532C159.765 20.3051 161.382 21.0702 163.521 21.6093C165.434 22.1136 166.773 22.5309 166.773 23.9743C166.773 25.2958 165.712 26.0088 164.008 26.0088C161.974 26.0088 160.982 25.1741 160.443 23.7656L159.209 24.2525C159.974 26.1827 161.469 27.1913 163.991 27.1913ZM173.542 27.1391C175.246 27.1391 176.568 26.2523 177.159 24.6003L175.977 24.4264C175.49 25.6958 174.603 26.1131 173.664 26.1131C171.994 26.1131 171.021 25.0176 170.986 22.8613H177.316C177.298 22.6701 177.316 22.4788 177.298 22.2875C177.124 19.9052 175.82 18.2706 173.577 18.2706C171.368 18.2706 169.612 19.9573 169.612 22.8613C169.612 25.4176 171.195 27.1391 173.542 27.1391ZM171.038 21.9397C171.142 20.3225 172.203 19.2965 173.577 19.2965C174.951 19.2965 175.803 20.2877 175.942 21.9397H171.038ZM182.214 27.1391C183.918 27.1391 185.187 26.1479 185.483 24.2177L184.3 24.096C184.04 25.5219 183.379 26.1305 182.248 26.1305C180.962 26.1305 179.953 25.0698 179.953 22.7048C179.953 20.566 180.788 19.3487 182.161 19.3487C183.344 19.3487 184.022 20.1138 184.231 21.5224L185.5 21.3659C185.118 19.2618 183.97 18.2706 182.144 18.2706C179.97 18.2706 178.527 20.1834 178.527 22.6701C178.527 25.5393 180.11 27.1391 182.214 27.1391ZM190.47 27.1391C192.592 27.1391 194.348 25.3828 194.348 22.6875C194.348 20.0443 192.818 18.2706 190.47 18.2706C188.366 18.2706 186.627 19.9921 186.627 22.6701C186.627 25.3828 188.262 27.1391 190.47 27.1391ZM190.453 26.1305C189.01 26.1305 188.053 24.8437 188.053 22.6875C188.053 20.479 189.097 19.3313 190.453 19.3313C191.879 19.3313 192.922 20.4442 192.922 22.6701C192.922 24.9828 191.862 26.1305 190.453 26.1305ZM197.645 27V21.1224C198.358 20.0964 199.262 19.4009 200.358 19.4009C201.331 19.4009 201.784 19.8878 201.784 20.9137V27H203.14V20.9311C203.14 19.1748 202.357 18.2706 200.758 18.2706C199.227 18.2706 198.167 19.2791 197.575 20.1312V18.4271H196.289V27H197.645ZM208.339 27.1391C209.591 27.1391 210.461 26.6348 211.139 25.6958V27H212.408V15.4013H211.104V19.5922C210.704 19.0183 209.887 18.2706 208.583 18.2706C206.392 18.2706 205.07 20.2008 205.07 22.7396C205.07 25.5393 206.27 27.1391 208.339 27.1391ZM208.704 26.1131C207.278 26.1131 206.479 25.122 206.479 22.7396C206.479 20.5486 207.244 19.3313 208.791 19.3313C210.061 19.3313 210.652 20.0617 211.087 20.879V24.3742C210.722 25.3306 209.991 26.1131 208.704 26.1131ZM217.105 27.1043C218.705 27.1043 219.714 26.4957 220.392 25.5567C220.374 25.9914 220.444 26.7044 220.548 27H221.835C221.696 26.4609 221.644 25.8697 221.644 25.3306V21.4354C221.644 19.2791 220.705 18.2706 218.27 18.2706C216.236 18.2706 214.897 19.1053 214.584 20.6703L215.836 20.8094C216.114 19.7139 216.844 19.3313 218.236 19.3313C219.679 19.3313 220.235 19.8356 220.34 20.7746C220.374 20.9833 220.374 21.2789 220.374 21.5745C219.696 21.5919 219.122 21.5919 218.427 21.6789C216.079 21.9571 214.375 22.8787 214.375 24.7394C214.375 26.3044 215.592 27.1043 217.105 27.1043ZM217.505 26.1131C216.358 26.1131 215.784 25.5915 215.784 24.6003C215.784 23.5221 216.74 22.7744 218.601 22.5309C219.14 22.4614 219.766 22.4614 220.374 22.4614V24.2351C220.009 25.122 219.14 26.1131 217.505 26.1131ZM225.58 27V21.4006C226.293 20.2008 227.301 19.5052 228.31 19.5052C228.414 19.5052 228.588 19.5052 228.693 19.5226V18.288C228.553 18.2706 228.449 18.2706 228.293 18.2706C227.075 18.2706 226.067 19.2618 225.51 20.2703V18.4271H224.224V27H225.58ZM229.506 30.0084C231.61 30.0084 232.601 29.1215 233.122 27.6086L236.392 18.4271H235.192L233.209 24.0264L232.862 25.122L232.514 24.0264L230.392 18.4271H228.932L231.749 25.748C232.479 27.6608 231.384 28.9128 229.471 28.9128L229.506 30.0084Z" fill="white"/>
</svg>
