<svg width="693" height="150" viewBox="0 0 693 150" fill="none" xmlns="http://www.w3.org/2000/svg">
<rect width="319" height="150" fill="#EA0017"/>
<path d="M90.4864 81.1391C92.6079 81.1391 94.3643 79.3828 94.3643 76.6875C94.3643 74.0443 92.834 72.2706 90.4864 72.2706C88.3823 72.2706 86.6434 73.9921 86.6434 76.6701C86.6434 79.3828 88.278 81.1391 90.4864 81.1391ZM90.4691 80.1305C89.0257 80.1305 88.0693 78.8437 88.0693 76.6875C88.0693 74.479 89.1127 73.3313 90.4691 73.3313C91.895 73.3313 92.9383 74.4442 92.9383 76.6701C92.9383 78.9828 91.8776 80.1305 90.4691 80.1305ZM97.6609 81V75.1224C98.3739 74.0964 99.2781 73.4009 100.374 73.4009C101.347 73.4009 101.8 73.8878 101.8 74.9137V81H103.156V74.9311C103.156 73.1748 102.373 72.2706 100.774 72.2706C99.2433 72.2706 98.1826 73.2791 97.5913 74.1312V72.4271H96.3045V81H97.6609ZM107.138 81V70.7751L110.894 81H111.903L115.676 70.7751V81H117.05V69.4013H114.928L111.503 78.6177L108.025 69.4013H105.869V81H107.138ZM123.077 81.1391C124.781 81.1391 126.103 80.2523 126.694 78.6003L125.511 78.4264C125.024 79.6958 124.138 80.1131 123.199 80.1131C121.529 80.1131 120.555 79.0176 120.521 76.8613H126.85C126.833 76.6701 126.85 76.4788 126.833 76.2875C126.659 73.9052 125.355 72.2706 123.112 72.2706C120.903 72.2706 119.147 73.9573 119.147 76.8613C119.147 79.4176 120.729 81.1391 123.077 81.1391ZM120.573 75.9397C120.677 74.3225 121.738 73.2965 123.112 73.2965C124.485 73.2965 125.337 74.2877 125.477 75.9397H120.573ZM131.435 81.1391C133.522 81.1391 134.879 80.0784 134.879 78.4959C134.879 76.7918 133.383 76.3049 131.627 75.9571C130.253 75.6615 129.227 75.4876 129.227 74.5486C129.227 73.766 130.009 73.2965 131.157 73.2965C132.322 73.2965 133.105 73.8182 133.435 74.7225L134.635 74.4616C134.2 73.1226 133.087 72.2706 131.157 72.2706C129.244 72.2706 127.975 73.227 127.975 74.6355C127.975 76.3223 129.453 76.7744 131.209 77.1048C132.479 77.383 133.626 77.5917 133.626 78.6177C133.626 79.5219 132.792 80.1305 131.435 80.1305C129.957 80.1305 129.001 79.4524 128.723 78.4438L127.505 78.6872C127.923 80.2523 129.262 81.1391 131.435 81.1391ZM139.417 81.1391C141.504 81.1391 142.86 80.0784 142.86 78.4959C142.86 76.7918 141.364 76.3049 139.608 75.9571C138.234 75.6615 137.208 75.4876 137.208 74.5486C137.208 73.766 137.991 73.2965 139.139 73.2965C140.304 73.2965 141.086 73.8182 141.417 74.7225L142.616 74.4616C142.182 73.1226 141.069 72.2706 139.139 72.2706C137.226 72.2706 135.956 73.227 135.956 74.6355C135.956 76.3223 137.434 76.7744 139.191 77.1048C140.46 77.383 141.608 77.5917 141.608 78.6177C141.608 79.5219 140.773 80.1305 139.417 80.1305C137.939 80.1305 136.982 79.4524 136.704 78.4438L135.487 78.6872C135.904 80.2523 137.243 81.1391 139.417 81.1391ZM146.737 81.1043C148.337 81.1043 149.346 80.4957 150.024 79.5567C150.007 79.9914 150.076 80.7044 150.181 81H151.467C151.328 80.4609 151.276 79.8697 151.276 79.3306V75.4354C151.276 73.2791 150.337 72.2706 147.903 72.2706C145.868 72.2706 144.529 73.1053 144.216 74.6703L145.468 74.8094C145.746 73.7139 146.477 73.3313 147.868 73.3313C149.311 73.3313 149.868 73.8356 149.972 74.7746C150.007 74.9833 150.007 75.2789 150.007 75.5745C149.328 75.5919 148.755 75.5919 148.059 75.6789C145.711 75.9571 144.007 76.8787 144.007 78.7394C144.007 80.3044 145.225 81.1043 146.737 81.1043ZM147.137 80.1131C145.99 80.1131 145.416 79.5915 145.416 78.6003C145.416 77.5221 146.372 76.7744 148.233 76.5309C148.772 76.4614 149.398 76.4614 150.007 76.4614V78.2351C149.641 79.122 148.772 80.1131 147.137 80.1131ZM157.038 84.2344C159.82 84.2344 161.229 83.1911 161.229 81.6956C161.229 80.287 160.255 79.7132 157.525 79.661C155.786 79.6089 154.708 79.6089 154.708 78.8437C154.708 78.322 155.195 77.9916 155.647 77.9916C155.786 78.0264 156.342 78.1482 156.899 78.1482C158.846 78.1482 160.029 76.9135 160.029 75.2094C160.029 74.3225 159.698 73.6443 159.246 73.2444C159.385 72.6184 159.751 72.2532 160.62 72.2706C160.724 72.2706 160.811 72.288 160.916 72.3053L160.898 71.175C160.846 71.175 160.742 71.175 160.69 71.175C159.229 71.1576 158.759 71.7489 158.551 72.6879C158.029 72.4097 157.403 72.2706 156.76 72.2706C155.038 72.2706 153.56 73.453 153.56 75.2094C153.56 76.2527 153.977 77.1396 154.812 77.5743C154.047 77.783 153.456 78.3047 153.456 79.035C153.456 79.6958 153.804 80.1827 154.673 80.4262C153.63 80.687 153.004 81.3304 153.004 82.1825C153.004 83.5041 154.395 84.2344 157.038 84.2344ZM156.829 77.2439C155.664 77.2439 154.899 76.5483 154.899 75.2094C154.899 74.1312 155.56 73.2444 156.829 73.2444C158.116 73.2444 158.759 74.1834 158.759 75.2267C158.759 76.5136 158.046 77.2439 156.829 77.2439ZM156.934 83.3302C155.021 83.3302 154.238 82.8433 154.238 82.026C154.238 81.2608 154.76 80.9131 155.438 80.7218C159.299 80.8087 159.942 81 159.942 81.8695C159.942 82.7389 158.846 83.3302 156.934 83.3302ZM165.684 81.1391C167.388 81.1391 168.71 80.2523 169.301 78.6003L168.119 78.4264C167.632 79.6958 166.745 80.1131 165.806 80.1131C164.136 80.1131 163.163 79.0176 163.128 76.8613H169.458C169.44 76.6701 169.458 76.4788 169.44 76.2875C169.266 73.9052 167.962 72.2706 165.719 72.2706C163.51 72.2706 161.754 73.9573 161.754 76.8613C161.754 79.4176 163.337 81.1391 165.684 81.1391ZM163.18 75.9397C163.284 74.3225 164.345 73.2965 165.719 73.2965C167.093 73.2965 167.945 74.2877 168.084 75.9397H163.18ZM178.52 81.1391C180.641 81.1391 182.398 79.3828 182.398 76.6875C182.398 74.0443 180.867 72.2706 178.52 72.2706C176.416 72.2706 174.677 73.9921 174.677 76.6701C174.677 79.3828 176.311 81.1391 178.52 81.1391ZM178.502 80.1305C177.059 80.1305 176.103 78.8437 176.103 76.6875C176.103 74.479 177.146 73.3313 178.502 73.3313C179.928 73.3313 180.972 74.4442 180.972 76.6701C180.972 78.9828 179.911 80.1305 178.502 80.1305ZM185.694 81V75.1224C186.407 74.0964 187.311 73.4009 188.407 73.4009C189.381 73.4009 189.833 73.8878 189.833 74.9137V81H191.189V74.9311C191.189 73.1748 190.407 72.2706 188.807 72.2706C187.277 72.2706 186.216 73.2791 185.625 74.1312V72.4271H184.338V81H185.694ZM201.057 81.1391C202.761 81.1391 204.083 80.2523 204.674 78.6003L203.492 78.4264C203.005 79.6958 202.118 80.1131 201.179 80.1131C199.509 80.1131 198.536 79.0176 198.501 76.8613H204.831C204.813 76.6701 204.831 76.4788 204.813 76.2875C204.639 73.9052 203.335 72.2706 201.092 72.2706C198.883 72.2706 197.127 73.9573 197.127 76.8613C197.127 79.4176 198.709 81.1391 201.057 81.1391ZM198.553 75.9397C198.657 74.3225 199.718 73.2965 201.092 73.2965C202.466 73.2965 203.318 74.2877 203.457 75.9397H198.553ZM208.059 81V75.4006C208.772 74.2008 209.781 73.5052 210.789 73.5052C210.894 73.5052 211.068 73.5052 211.172 73.5226V72.288C211.033 72.2706 210.928 72.2706 210.772 72.2706C209.555 72.2706 208.546 73.2618 207.99 74.2703V72.4271H206.703V81H208.059ZM213.884 81V75.4006C214.597 74.2008 215.606 73.5052 216.614 73.5052C216.718 73.5052 216.892 73.5052 216.997 73.5226V72.288C216.858 72.2706 216.753 72.2706 216.597 72.2706C215.379 72.2706 214.371 73.2618 213.814 74.2703V72.4271H212.528V81H213.884ZM221.535 81.1391C223.656 81.1391 225.412 79.3828 225.412 76.6875C225.412 74.0443 223.882 72.2706 221.535 72.2706C219.43 72.2706 217.692 73.9921 217.692 76.6701C217.692 79.3828 219.326 81.1391 221.535 81.1391ZM221.517 80.1305C220.074 80.1305 219.117 78.8437 219.117 76.6875C219.117 74.479 220.161 73.3313 221.517 73.3313C222.943 73.3313 223.986 74.4442 223.986 76.6701C223.986 78.9828 222.926 80.1305 221.517 80.1305ZM228.709 81V75.4006C229.422 74.2008 230.431 73.5052 231.439 73.5052C231.543 73.5052 231.717 73.5052 231.822 73.5226V72.288C231.683 72.2706 231.578 72.2706 231.422 72.2706C230.205 72.2706 229.196 73.2618 228.639 74.2703V72.4271H227.353V81H228.709Z" fill="white"/>
<rect width="319" height="150" transform="translate(374)" fill="#166DFC"/>
<path d="M491.486 81.1391C493.608 81.1391 495.364 79.3828 495.364 76.6875C495.364 74.0443 493.834 72.2706 491.486 72.2706C489.382 72.2706 487.643 73.9921 487.643 76.6701C487.643 79.3828 489.278 81.1391 491.486 81.1391ZM491.469 80.1305C490.026 80.1305 489.069 78.8437 489.069 76.6875C489.069 74.479 490.113 73.3313 491.469 73.3313C492.895 73.3313 493.938 74.4442 493.938 76.6701C493.938 78.9828 492.878 80.1305 491.469 80.1305ZM498.661 81V75.1224C499.374 74.0964 500.278 73.4009 501.374 73.4009C502.347 73.4009 502.8 73.8878 502.8 74.9137V81H504.156V74.9311C504.156 73.1748 503.373 72.2706 501.774 72.2706C500.243 72.2706 499.183 73.2791 498.591 74.1312V72.4271H497.305V81H498.661ZM510.798 81.1913C513.059 81.1913 514.555 79.9914 515.111 77.383L513.789 77.1222C513.442 78.9481 512.503 80.0088 510.851 80.0088C509.042 80.0088 507.703 78.4264 507.703 75.2789C507.703 72.1315 508.973 70.4621 510.885 70.4621C512.364 70.4621 513.303 71.2272 513.755 73.1922L515.146 72.8966C514.589 70.3404 513.076 69.1753 510.868 69.1753C508.242 69.1753 506.156 71.3315 506.156 75.2789C506.156 79.0524 508.016 81.1913 510.798 81.1913ZM519.522 81.1217C519.991 81.1217 520.513 81.0696 520.983 80.9826V79.9219C520.67 79.974 520.165 80.0262 519.765 80.0262C519.035 80.0088 518.566 79.6089 518.566 78.7046V73.5052H520.496V72.4271H518.566V70.1838H517.331L517.261 72.4271H515.853V73.5052H517.244V78.6351C517.244 80.4088 518.079 81.1217 519.522 81.1217ZM524.523 81.1043C526.123 81.1043 527.132 80.4957 527.81 79.5567C527.793 79.9914 527.862 80.7044 527.966 81H529.253C529.114 80.4609 529.062 79.8697 529.062 79.3306V75.4354C529.062 73.2791 528.123 72.2706 525.688 72.2706C523.654 72.2706 522.315 73.1053 522.002 74.6703L523.254 74.8094C523.532 73.7139 524.263 73.3313 525.654 73.3313C527.097 73.3313 527.653 73.8356 527.758 74.7746C527.793 74.9833 527.793 75.2789 527.793 75.5745C527.114 75.5919 526.541 75.5919 525.845 75.6789C523.497 75.9571 521.793 76.8787 521.793 78.7394C521.793 80.3044 523.011 81.1043 524.523 81.1043ZM524.923 80.1131C523.776 80.1131 523.202 79.5915 523.202 78.6003C523.202 77.5221 524.158 76.7744 526.019 76.5309C526.558 76.4614 527.184 76.4614 527.793 76.4614V78.2351C527.427 79.122 526.558 80.1131 524.923 80.1131ZM538.832 81.1391C540.953 81.1391 542.709 79.3828 542.709 76.6875C542.709 74.0443 541.179 72.2706 538.832 72.2706C536.727 72.2706 534.989 73.9921 534.989 76.6701C534.989 79.3828 536.623 81.1391 538.832 81.1391ZM538.814 80.1305C537.371 80.1305 536.414 78.8437 536.414 76.6875C536.414 74.479 537.458 73.3313 538.814 73.3313C540.24 73.3313 541.283 74.4442 541.283 76.6701C541.283 78.9828 540.223 80.1305 538.814 80.1305ZM546.006 81V75.1224C546.719 74.0964 547.623 73.4009 548.719 73.4009C549.693 73.4009 550.145 73.8878 550.145 74.9137V81H551.501V74.9311C551.501 73.1748 550.719 72.2706 549.119 72.2706C547.588 72.2706 546.528 73.2791 545.936 74.1312V72.4271H544.65V81H546.006ZM561.108 81.1391C562.812 81.1391 564.082 80.1479 564.377 78.2177L563.195 78.096C562.934 79.5219 562.273 80.1305 561.143 80.1305C559.856 80.1305 558.847 79.0698 558.847 76.7048C558.847 74.566 559.682 73.3487 561.056 73.3487C562.238 73.3487 562.916 74.1138 563.125 75.5224L564.395 75.3659C564.012 73.2618 562.864 72.2706 561.038 72.2706C558.865 72.2706 557.421 74.1834 557.421 76.6701C557.421 79.5393 559.004 81.1391 561.108 81.1391ZM568.582 81.1217C569.052 81.1217 569.573 81.0696 570.043 80.9826V79.9219C569.73 79.974 569.226 80.0262 568.826 80.0262C568.095 80.0088 567.626 79.6089 567.626 78.7046V73.5052H569.556V72.4271H567.626V70.1838H566.391L566.322 72.4271H564.913V73.5052H566.304V78.6351C566.304 80.4088 567.139 81.1217 568.582 81.1217ZM573.584 81.1043C575.184 81.1043 576.192 80.4957 576.87 79.5567C576.853 79.9914 576.922 80.7044 577.027 81H578.314C578.174 80.4609 578.122 79.8697 578.122 79.3306V75.4354C578.122 73.2791 577.183 72.2706 574.749 72.2706C572.714 72.2706 571.375 73.1053 571.062 74.6703L572.314 74.8094C572.593 73.7139 573.323 73.3313 574.714 73.3313C576.157 73.3313 576.714 73.8356 576.818 74.7746C576.853 74.9833 576.853 75.2789 576.853 75.5745C576.175 75.5919 575.601 75.5919 574.905 75.6789C572.558 75.9571 570.854 76.8787 570.854 78.7394C570.854 80.3044 572.071 81.1043 573.584 81.1043ZM573.984 80.1131C572.836 80.1131 572.262 79.5915 572.262 78.6003C572.262 77.5221 573.219 76.7744 575.079 76.5309C575.618 76.4614 576.244 76.4614 576.853 76.4614V78.2351C576.488 79.122 575.618 80.1131 573.984 80.1131Z" fill="white"/>
</svg>
