<svg width="458" height="212" viewBox="0 0 458 212" fill="none" xmlns="http://www.w3.org/2000/svg">
<path d="M144 86H20C8.9543 86 0 94.9543 0 106C0 117.046 8.9543 126 20 126H144C155.046 126 164 117.046 164 106C164 94.9543 155.046 86 144 86Z" fill="#111111"/>
<path d="M25.2278 112H30.2518C32.8438 112 33.8518 110.784 33.8518 109.008C33.8518 107.584 32.9078 106.624 31.6118 106.432C32.9238 106.112 33.5318 105.2 33.5318 103.936C33.5318 102.464 32.4758 101.328 30.3478 101.328H25.2278V112ZM27.7878 103.264H29.5638C30.4918 103.264 30.9238 103.68 30.9238 104.416C30.9238 105.216 30.4598 105.584 29.5318 105.584H27.7878V103.264ZM27.7878 107.456H29.6118C30.6998 107.456 31.1798 107.984 31.1798 108.752C31.1798 109.52 30.7798 110.048 29.7398 110.048H27.7878V107.456ZM37.576 112.128C38.712 112.128 39.576 111.712 40.12 110.864L40.104 112H42.504V104.064H40.008V109.584C39.752 110.112 39.32 110.512 38.728 110.512C38.072 110.512 37.752 110.224 37.752 109.472V104.064H35.256V109.6C35.256 111.36 36.216 112.128 37.576 112.128ZM47.581 112.112C48.077 112.112 48.637 112.064 49.021 112.016V110.24C48.685 110.272 48.381 110.272 48.077 110.24C47.485 110.16 47.229 109.808 47.229 109.184V105.744H48.861V104.064H47.229V101.632H44.989L44.829 104.064H43.549V105.744H44.813V109.584C44.813 111.264 45.773 112.112 47.581 112.112ZM53.3467 112.112C53.8427 112.112 54.4027 112.064 54.7867 112.016V110.24C54.4507 110.272 54.1467 110.272 53.8427 110.24C53.2507 110.16 52.9947 109.808 52.9947 109.184V105.744H54.6267V104.064H52.9947V101.632H50.7547L50.5947 104.064H49.3147V105.744H50.5787V109.584C50.5787 111.264 51.5387 112.112 53.3467 112.112ZM59.4963 112.128C61.9763 112.128 63.6403 110.368 63.6403 108.048C63.6403 105.584 62.0083 103.92 59.5443 103.92C57.1923 103.92 55.4643 105.632 55.4643 108.096C55.4643 110.416 57.1283 112.128 59.4963 112.128ZM59.5763 110.528C58.5843 110.528 58.1043 109.744 58.1043 108.016C58.1043 106.336 58.6163 105.568 59.5603 105.568C60.5363 105.568 60.9843 106.352 60.9843 108.016C60.9843 109.76 60.4883 110.528 59.5763 110.528ZM67.5489 112V106.56C67.8689 106.08 68.3009 105.632 68.9569 105.632C69.5649 105.632 69.8209 106 69.8209 106.496V112H72.3009V106.416C72.3009 104.896 71.6449 103.92 70.0129 103.92C68.6689 103.92 67.9169 104.72 67.4529 105.376V104.064H65.0689V112H67.5489ZM86.0778 112V109.984H81.0698V107.488H84.6538V105.584H81.0698V103.36H86.0298V101.328H78.4778V112H86.0778ZM88.7875 112L90.1315 110L90.4195 109.584L90.6755 110L92.0035 112H94.7395L91.8915 107.648L94.3395 104.064H92.1635L91.0915 105.696L90.8515 106.064L90.6275 105.696L89.5395 104.064H86.8035L89.3795 108L86.6115 112H88.7875ZM97.5983 112.096C99.0063 112.096 99.8383 111.68 100.526 110.976C100.526 111.424 100.558 111.84 100.654 112H103.022C102.878 111.696 102.846 110.912 102.846 110.448V106.784C102.846 105.072 102.078 103.92 99.4063 103.92C97.0703 103.92 95.7423 104.736 95.3583 106.32L97.6303 106.528C97.7903 105.856 98.2383 105.536 99.1663 105.536C100.03 105.536 100.398 105.92 100.446 106.544C100.446 106.608 100.462 106.848 100.462 106.928C100.126 106.944 99.8063 106.976 99.5023 107.008C96.7343 107.28 95.1503 108.16 95.1503 109.92C95.1503 111.264 96.1263 112.096 97.5983 112.096ZM98.7183 110.56C98.0943 110.56 97.7103 110.288 97.7103 109.696C97.7103 108.944 98.3983 108.48 99.6143 108.272C99.8703 108.224 100.158 108.192 100.462 108.176V109.568C100.126 110.08 99.5343 110.56 98.7183 110.56ZM107.221 112V106.592C107.557 106.048 107.909 105.648 108.517 105.648C109.077 105.648 109.285 106.032 109.285 106.768V112H111.781V106.592C112.037 106.16 112.437 105.648 113.061 105.648C113.637 105.648 113.845 106.016 113.845 106.768V112H116.325V106.4C116.325 105.92 116.277 105.472 116.133 105.12C115.845 104.336 115.205 103.92 114.133 103.92C112.837 103.92 112.117 104.752 111.637 105.44C111.365 104.4 110.645 103.92 109.573 103.92C108.309 103.92 107.573 104.72 107.125 105.392V104.064H104.741V112H107.221ZM122.85 112.112C124.578 112.112 125.874 110.656 125.874 108.016C125.874 105.168 124.77 103.92 123.058 103.92C121.714 103.92 121.058 104.688 120.562 105.392V104.064H118.21V114.56H120.69V111.2C121.234 111.68 121.81 112.112 122.85 112.112ZM122.018 110.608C121.314 110.608 120.962 110.144 120.674 109.808V106.656C120.978 106.032 121.41 105.648 122.034 105.648C122.914 105.648 123.298 106.24 123.298 108.128C123.298 110.096 122.85 110.608 122.018 110.608ZM129.831 112V101.328H127.335V112H129.831ZM135.405 112.128C137.453 112.128 138.765 111.136 139.293 109.632L137.229 109.36C136.941 110.144 136.429 110.544 135.629 110.544C134.653 110.544 133.917 109.92 133.885 108.496H139.373C139.389 108.32 139.389 108.192 139.389 108.016C139.325 105.552 137.869 103.92 135.389 103.92C133.181 103.92 131.293 105.584 131.293 108.144C131.293 110.56 133.021 112.128 135.405 112.128ZM133.917 107.2C133.981 106.112 134.621 105.472 135.421 105.472C136.349 105.472 136.813 106.128 136.893 107.2H133.917Z" fill="white"/>
<path d="M412 86.5H288C277.23 86.5 268.5 95.2304 268.5 106C268.5 116.77 277.23 125.5 288 125.5H412C422.77 125.5 431.5 116.77 431.5 106C431.5 95.2304 422.77 86.5 412 86.5Z" fill="white"/>
<path d="M293.228 112H298.252C300.844 112 301.852 110.784 301.852 109.008C301.852 107.584 300.908 106.624 299.612 106.432C300.924 106.112 301.532 105.2 301.532 103.936C301.532 102.464 300.476 101.328 298.348 101.328H293.228V112ZM295.788 103.264H297.564C298.492 103.264 298.924 103.68 298.924 104.416C298.924 105.216 298.46 105.584 297.532 105.584H295.788V103.264ZM295.788 107.456H297.612C298.7 107.456 299.18 107.984 299.18 108.752C299.18 109.52 298.78 110.048 297.74 110.048H295.788V107.456ZM305.576 112.128C306.712 112.128 307.576 111.712 308.12 110.864L308.104 112H310.504V104.064H308.008V109.584C307.752 110.112 307.32 110.512 306.728 110.512C306.072 110.512 305.752 110.224 305.752 109.472V104.064H303.256V109.6C303.256 111.36 304.216 112.128 305.576 112.128ZM315.581 112.112C316.077 112.112 316.637 112.064 317.021 112.016V110.24C316.685 110.272 316.381 110.272 316.077 110.24C315.485 110.16 315.229 109.808 315.229 109.184V105.744H316.861V104.064H315.229V101.632H312.989L312.829 104.064H311.549V105.744H312.813V109.584C312.813 111.264 313.773 112.112 315.581 112.112ZM321.347 112.112C321.843 112.112 322.403 112.064 322.787 112.016V110.24C322.451 110.272 322.147 110.272 321.843 110.24C321.251 110.16 320.995 109.808 320.995 109.184V105.744H322.627V104.064H320.995V101.632H318.755L318.595 104.064H317.315V105.744H318.579V109.584C318.579 111.264 319.539 112.112 321.347 112.112ZM327.496 112.128C329.976 112.128 331.64 110.368 331.64 108.048C331.64 105.584 330.008 103.92 327.544 103.92C325.192 103.92 323.464 105.632 323.464 108.096C323.464 110.416 325.128 112.128 327.496 112.128ZM327.576 110.528C326.584 110.528 326.104 109.744 326.104 108.016C326.104 106.336 326.616 105.568 327.56 105.568C328.536 105.568 328.984 106.352 328.984 108.016C328.984 109.76 328.488 110.528 327.576 110.528ZM335.549 112V106.56C335.869 106.08 336.301 105.632 336.957 105.632C337.565 105.632 337.821 106 337.821 106.496V112H340.301V106.416C340.301 104.896 339.645 103.92 338.013 103.92C336.669 103.92 335.917 104.72 335.453 105.376V104.064H333.069V112H335.549ZM354.078 112V109.984H349.07V107.488H352.654V105.584H349.07V103.36H354.03V101.328H346.478V112H354.078ZM356.788 112L358.132 110L358.42 109.584L358.676 110L360.004 112H362.74L359.892 107.648L362.34 104.064H360.164L359.092 105.696L358.852 106.064L358.628 105.696L357.54 104.064H354.804L357.38 108L354.612 112H356.788ZM365.598 112.096C367.006 112.096 367.838 111.68 368.526 110.976C368.526 111.424 368.558 111.84 368.654 112H371.022C370.878 111.696 370.846 110.912 370.846 110.448V106.784C370.846 105.072 370.078 103.92 367.406 103.92C365.07 103.92 363.742 104.736 363.358 106.32L365.63 106.528C365.79 105.856 366.238 105.536 367.166 105.536C368.03 105.536 368.398 105.92 368.446 106.544C368.446 106.608 368.462 106.848 368.462 106.928C368.126 106.944 367.806 106.976 367.502 107.008C364.734 107.28 363.15 108.16 363.15 109.92C363.15 111.264 364.126 112.096 365.598 112.096ZM366.718 110.56C366.094 110.56 365.71 110.288 365.71 109.696C365.71 108.944 366.398 108.48 367.614 108.272C367.87 108.224 368.158 108.192 368.462 108.176V109.568C368.126 110.08 367.534 110.56 366.718 110.56ZM375.221 112V106.592C375.557 106.048 375.909 105.648 376.517 105.648C377.077 105.648 377.285 106.032 377.285 106.768V112H379.781V106.592C380.037 106.16 380.437 105.648 381.061 105.648C381.637 105.648 381.845 106.016 381.845 106.768V112H384.325V106.4C384.325 105.92 384.277 105.472 384.133 105.12C383.845 104.336 383.205 103.92 382.133 103.92C380.837 103.92 380.117 104.752 379.637 105.44C379.365 104.4 378.645 103.92 377.573 103.92C376.309 103.92 375.573 104.72 375.125 105.392V104.064H372.741V112H375.221ZM390.85 112.112C392.578 112.112 393.874 110.656 393.874 108.016C393.874 105.168 392.77 103.92 391.058 103.92C389.714 103.92 389.058 104.688 388.562 105.392V104.064H386.21V114.56H388.69V111.2C389.234 111.68 389.81 112.112 390.85 112.112ZM390.018 110.608C389.314 110.608 388.962 110.144 388.674 109.808V106.656C388.978 106.032 389.41 105.648 390.034 105.648C390.914 105.648 391.298 106.24 391.298 108.128C391.298 110.096 390.85 110.608 390.018 110.608ZM397.831 112V101.328H395.335V112H397.831ZM403.405 112.128C405.453 112.128 406.765 111.136 407.293 109.632L405.229 109.36C404.941 110.144 404.429 110.544 403.629 110.544C402.653 110.544 401.917 109.92 401.885 108.496H407.373C407.389 108.32 407.389 108.192 407.389 108.016C407.325 105.552 405.869 103.92 403.389 103.92C401.181 103.92 399.293 105.584 399.293 108.144C399.293 110.56 401.021 112.128 403.405 112.128ZM401.917 107.2C401.981 106.112 402.621 105.472 403.421 105.472C404.349 105.472 404.813 106.128 404.893 107.2H401.917Z" fill="#111111"/>
<path d="M412 86.5H288C277.23 86.5 268.5 95.2304 268.5 106C268.5 116.77 277.23 125.5 288 125.5H412C422.77 125.5 431.5 116.77 431.5 106C431.5 95.2304 422.77 86.5 412 86.5Z" stroke="#E9E9E9"/>
<path d="M32.0077 23V18.392H34.5997C36.6477 18.392 37.9277 17.208 37.9277 15.368C37.9277 13.48 36.7757 12.328 34.4557 12.328H30.6797V23H32.0077ZM32.0077 13.464H34.5677C35.7837 13.464 36.5837 14.216 36.5837 15.416C36.5837 16.6 35.7837 17.304 34.4717 17.304H32.0077V13.464ZM40.2528 23V17.848C40.9088 16.744 41.8368 16.104 42.7648 16.104C42.8608 16.104 43.0208 16.104 43.1168 16.12V14.984C42.9888 14.968 42.8928 14.968 42.7488 14.968C41.6288 14.968 40.7008 15.88 40.1888 16.808V15.112H39.0048V23H40.2528ZM45.6922 13.72V12.312H44.3322V13.72H45.6922ZM45.6442 23V15.112H44.3962V23H45.6442ZM49.2993 23V17.592C50.0193 16.584 50.6753 15.992 51.5873 15.992C52.3553 15.992 52.7553 16.52 52.7553 17.464V23H53.9713V17.608C54.4673 16.824 55.2833 16.024 56.2593 16.024C57.0273 16.024 57.4593 16.456 57.4593 17.48V23H58.6913V17.4C58.6913 16.76 58.5313 16.248 58.2913 15.88C57.9713 15.288 57.4273 14.984 56.6113 14.984C55.3633 14.984 54.4353 15.88 53.8913 16.744C53.7953 15.624 53.0593 14.968 51.9073 14.968C50.7713 14.968 49.7313 15.912 49.2673 16.696V15.112H48.0673V23H49.2993ZM62.924 23.096C64.396 23.096 65.324 22.536 65.948 21.672C65.932 22.072 65.996 22.728 66.092 23H67.276C67.148 22.504 67.1 21.96 67.1 21.464V17.88C67.1 15.896 66.236 14.968 63.996 14.968C62.124 14.968 60.892 15.736 60.604 17.176L61.756 17.304C62.012 16.296 62.684 15.944 63.964 15.944C65.292 15.944 65.804 16.408 65.9 17.272C65.932 17.464 65.932 17.736 65.932 18.008C65.308 18.024 64.78 18.024 64.14 18.104C61.98 18.36 60.412 19.208 60.412 20.92C60.412 22.36 61.532 23.096 62.924 23.096ZM63.292 22.184C62.236 22.184 61.708 21.704 61.708 20.792C61.708 19.8 62.588 19.112 64.3 18.888C64.796 18.824 65.372 18.824 65.932 18.824V20.456C65.596 21.272 64.796 22.184 63.292 22.184ZM70.7215 23V17.848C71.3775 16.744 72.3055 16.104 73.2335 16.104C73.3295 16.104 73.4895 16.104 73.5855 16.12V14.984C73.4575 14.968 73.3615 14.968 73.2175 14.968C72.0975 14.968 71.1695 15.88 70.6575 16.808V15.112H69.4735V23H70.7215ZM74.3335 25.768C76.2695 25.768 77.1815 24.952 77.6615 23.56L80.6695 15.112H79.5655L77.7415 20.264L77.4215 21.272L77.1015 20.264L75.1495 15.112H73.8055L76.3975 21.848C77.0695 23.608 76.0615 24.76 74.3015 24.76L74.3335 25.768Z" fill="#3D73D5"/>
<path d="M29.5 27V93" stroke="#3D73D5" stroke-dasharray="2 2"/>
<path d="M295.998 16.176C298.43 16.176 299.87 14.992 299.87 13.104C299.87 11.312 298.654 10.56 296.414 9.968C294.222 9.392 293.438 8.992 293.438 7.808C293.438 6.896 294.318 6.224 295.662 6.224C297.006 6.224 298.03 6.928 298.35 8.128L299.582 7.744C299.07 6.08 297.678 5.12 295.678 5.12C293.614 5.12 292.11 6.224 292.11 7.952C292.11 9.84 293.598 10.544 295.566 11.04C297.326 11.504 298.558 11.888 298.558 13.216C298.558 14.432 297.582 15.088 296.014 15.088C294.142 15.088 293.23 14.32 292.734 13.024L291.598 13.472C292.302 15.248 293.678 16.176 295.998 16.176ZM304.786 16.128C306.355 16.128 307.571 15.312 308.115 13.792L307.027 13.632C306.579 14.8 305.763 15.184 304.899 15.184C303.363 15.184 302.467 14.176 302.435 12.192H308.259C308.243 12.016 308.259 11.84 308.243 11.664C308.083 9.47199 306.883 7.968 304.819 7.968C302.787 7.968 301.171 9.52 301.171 12.192C301.171 14.544 302.627 16.128 304.786 16.128ZM302.483 11.344C302.579 9.856 303.555 8.91199 304.819 8.91199C306.083 8.91199 306.867 9.824 306.995 11.344H302.483ZM312.765 16.128C314.333 16.128 315.501 15.216 315.773 13.44L314.685 13.328C314.445 14.64 313.837 15.2 312.797 15.2C311.613 15.2 310.685 14.224 310.685 12.048C310.685 10.08 311.453 8.96 312.717 8.96C313.805 8.96 314.429 9.664 314.621 10.96L315.789 10.816C315.437 8.88 314.381 7.968 312.701 7.968C310.701 7.968 309.373 9.72799 309.373 12.016C309.373 14.656 310.829 16.128 312.765 16.128ZM320.362 16.128C322.314 16.128 323.93 14.512 323.93 12.032C323.93 9.59999 322.522 7.968 320.362 7.968C318.426 7.968 316.826 9.552 316.826 12.016C316.826 14.512 318.33 16.128 320.362 16.128ZM320.346 15.2C319.018 15.2 318.138 14.016 318.138 12.032C318.138 9.99999 319.098 8.944 320.346 8.944C321.658 8.944 322.618 9.96799 322.618 12.016C322.618 14.144 321.642 15.2 320.346 15.2ZM326.964 16V10.592C327.62 9.648 328.452 9.008 329.46 9.008C330.356 9.008 330.772 9.45599 330.772 10.4V16H332.02V10.416C332.02 8.8 331.3 7.968 329.828 7.968C328.42 7.968 327.444 8.896 326.9 9.68V8.112H325.716V16H326.964ZM336.804 16.128C337.956 16.128 338.756 15.664 339.38 14.8V16H340.548V5.328H339.348V9.184C338.98 8.656 338.228 7.968 337.028 7.968C335.012 7.968 333.796 9.744 333.796 12.08C333.796 14.656 334.9 16.128 336.804 16.128ZM337.14 15.184C335.828 15.184 335.092 14.272 335.092 12.08C335.092 10.064 335.796 8.944 337.22 8.944C338.388 8.944 338.932 9.616 339.332 10.368V13.584C338.996 14.464 338.324 15.184 337.14 15.184ZM344.869 16.096C346.341 16.096 347.269 15.536 347.893 14.672C347.877 15.072 347.941 15.728 348.037 16H349.221C349.093 15.504 349.045 14.96 349.045 14.464V10.88C349.045 8.896 348.181 7.968 345.941 7.968C344.069 7.968 342.837 8.73599 342.549 10.176L343.701 10.304C343.957 9.296 344.629 8.944 345.909 8.944C347.237 8.944 347.749 9.408 347.845 10.272C347.877 10.464 347.877 10.736 347.877 11.008C347.253 11.024 346.725 11.024 346.085 11.104C343.925 11.36 342.357 12.208 342.357 13.92C342.357 15.36 343.477 16.096 344.869 16.096ZM345.237 15.184C344.181 15.184 343.653 14.704 343.653 13.792C343.653 12.8 344.533 12.112 346.245 11.888C346.741 11.824 347.317 11.824 347.877 11.824V13.456C347.541 14.272 346.741 15.184 345.237 15.184ZM352.667 16V10.848C353.323 9.74399 354.251 9.104 355.179 9.104C355.275 9.104 355.435 9.104 355.531 9.12V7.984C355.403 7.968 355.307 7.968 355.163 7.968C354.043 7.968 353.115 8.87999 352.603 9.80799V8.112H351.419V16H352.667ZM356.279 18.768C358.215 18.768 359.127 17.952 359.607 16.56L362.615 8.112H361.511L359.687 13.264L359.367 14.272L359.047 13.264L357.095 8.112H355.751L358.343 14.848C359.015 16.608 358.007 17.76 356.247 17.76L356.279 18.768Z" fill="#3D73D5"/>
<path d="M291.5 20V86" stroke="#3D73D5" stroke-dasharray="2 2"/>
<path d="M291.5 126V192" stroke="#3D73D5" stroke-dasharray="2 2"/>
<path d="M296.03 208.176C298.462 208.176 299.902 206.992 299.902 205.104C299.902 203.312 298.686 202.56 296.446 201.968C294.254 201.392 293.47 200.992 293.47 199.808C293.47 198.896 294.35 198.224 295.694 198.224C297.038 198.224 298.062 198.928 298.382 200.128L299.614 199.744C299.102 198.08 297.71 197.12 295.71 197.12C293.646 197.12 292.142 198.224 292.142 199.952C292.142 201.84 293.63 202.544 295.598 203.04C297.358 203.504 298.59 203.888 298.59 205.216C298.59 206.432 297.614 207.088 296.046 207.088C294.174 207.088 293.262 206.32 292.766 205.024L291.63 205.472C292.334 207.248 293.71 208.176 296.03 208.176ZM304.209 208.128C305.265 208.128 306.225 207.664 306.849 206.656V208H308.001V200.112H306.769V205.712C306.241 206.672 305.473 207.184 304.593 207.184C303.489 207.184 303.025 206.688 303.025 205.44V200.112H301.777V205.408C301.777 207.392 302.785 208.128 304.209 208.128ZM314.02 208.112C315.812 208.112 317.108 206.752 317.108 204.032C317.108 201.392 316.004 199.968 314.116 199.968C312.98 199.968 311.972 200.752 311.572 201.616V197.328H310.388V208H311.076L311.476 206.688C311.988 207.584 312.836 208.112 314.02 208.112ZM313.78 207.216C312.516 207.216 311.588 206.272 311.588 204.624V202.72C312.02 201.808 312.676 200.96 313.828 200.96C315.156 200.96 315.828 202 315.828 204.064C315.828 206.272 315.124 207.216 313.78 207.216ZM321.127 208.112C321.559 208.112 322.039 208.064 322.471 207.984V207.008C322.183 207.056 321.719 207.104 321.351 207.104C320.679 207.088 320.247 206.72 320.247 205.888V201.104H322.023V200.112H320.247V198.048H319.111L319.047 200.112H317.751V201.104H319.031V205.824C319.031 207.456 319.799 208.112 321.127 208.112ZM325.121 208V197.328H323.873V208H325.121ZM330.568 208.128C332.136 208.128 333.352 207.312 333.896 205.792L332.808 205.632C332.36 206.8 331.544 207.184 330.68 207.184C329.144 207.184 328.248 206.176 328.216 204.192H334.04C334.024 204.016 334.04 203.84 334.024 203.664C333.864 201.472 332.664 199.968 330.6 199.968C328.568 199.968 326.952 201.52 326.952 204.192C326.952 206.544 328.408 208.128 330.568 208.128ZM328.264 203.344C328.36 201.856 329.336 200.912 330.6 200.912C331.864 200.912 332.648 201.824 332.776 203.344H328.264Z" fill="#3D73D5"/>
<path d="M101.503 32.128C103.455 32.128 105.071 30.512 105.071 28.032C105.071 25.6 103.663 23.968 101.503 23.968C99.567 23.968 97.967 25.552 97.967 28.016C97.967 30.512 99.471 32.128 101.503 32.128ZM101.487 31.2C100.159 31.2 99.279 30.016 99.279 28.032C99.279 26 100.239 24.944 101.487 24.944C102.799 24.944 103.759 25.968 103.759 28.016C103.759 30.144 102.783 31.2 101.487 31.2ZM108.104 32V26.592C108.76 25.648 109.592 25.008 110.6 25.008C111.496 25.008 111.912 25.456 111.912 26.4V32H113.16V26.416C113.16 24.8 112.44 23.968 110.968 23.968C109.56 23.968 108.584 24.896 108.04 25.68V24.112H106.856V32H108.104ZM116.984 32V27.392H119.576C121.624 27.392 122.904 26.208 122.904 24.368C122.904 22.48 121.752 21.328 119.432 21.328H115.656V32H116.984ZM116.984 22.464H119.544C120.76 22.464 121.56 23.216 121.56 24.416C121.56 25.6 120.76 26.304 119.448 26.304H116.984V22.464ZM125.229 32V26.848C125.885 25.744 126.813 25.104 127.741 25.104C127.837 25.104 127.997 25.104 128.093 25.12V23.984C127.965 23.968 127.869 23.968 127.725 23.968C126.605 23.968 125.677 24.88 125.165 25.808V24.112H123.981V32H125.229ZM130.669 22.72V21.312H129.309V22.72H130.669ZM130.621 32V24.112H129.373V32H130.621ZM134.276 32V26.592C134.996 25.584 135.652 24.992 136.564 24.992C137.332 24.992 137.732 25.52 137.732 26.464V32H138.948V26.608C139.444 25.824 140.26 25.024 141.236 25.024C142.004 25.024 142.436 25.456 142.436 26.48V32H143.668V26.4C143.668 25.76 143.508 25.248 143.268 24.88C142.948 24.288 142.404 23.984 141.588 23.984C140.34 23.984 139.412 24.88 138.868 25.744C138.772 24.624 138.036 23.968 136.884 23.968C135.748 23.968 134.708 24.912 134.244 25.696V24.112H133.044V32H134.276ZM147.901 32.096C149.373 32.096 150.301 31.536 150.925 30.672C150.909 31.072 150.973 31.728 151.069 32H152.253C152.125 31.504 152.077 30.96 152.077 30.464V26.88C152.077 24.896 151.213 23.968 148.973 23.968C147.101 23.968 145.868 24.736 145.581 26.176L146.733 26.304C146.989 25.296 147.661 24.944 148.941 24.944C150.269 24.944 150.781 25.408 150.877 26.272C150.909 26.464 150.909 26.736 150.909 27.008C150.285 27.024 149.757 27.024 149.117 27.104C146.957 27.36 145.389 28.208 145.389 29.92C145.389 31.36 146.509 32.096 147.901 32.096ZM148.269 31.184C147.213 31.184 146.685 30.704 146.685 29.792C146.685 28.8 147.565 28.112 149.277 27.888C149.773 27.824 150.349 27.824 150.909 27.824V29.456C150.573 30.272 149.773 31.184 148.269 31.184ZM155.698 32V26.848C156.354 25.744 157.282 25.104 158.21 25.104C158.306 25.104 158.466 25.104 158.562 25.12V23.984C158.434 23.968 158.338 23.968 158.194 23.968C157.074 23.968 156.146 24.88 155.634 25.808V24.112H154.45V32H155.698ZM159.31 34.768C161.246 34.768 162.158 33.952 162.638 32.56L165.646 24.112H164.542L162.718 29.264L162.398 30.272L162.078 29.264L160.126 24.112H158.782L161.374 30.848C162.046 32.608 161.038 33.76 159.278 33.76L159.31 34.768Z" fill="#3D73D5"/>
<path d="M97.5 36V102" stroke="#3D73D5" stroke-dasharray="2 2"/>
<path d="M363.558 32.128C365.51 32.128 367.126 30.512 367.126 28.032C367.126 25.6 365.718 23.968 363.558 23.968C361.622 23.968 360.022 25.552 360.022 28.016C360.022 30.512 361.526 32.128 363.558 32.128ZM363.542 31.2C362.214 31.2 361.334 30.016 361.334 28.032C361.334 26 362.294 24.944 363.542 24.944C364.854 24.944 365.814 25.968 365.814 28.016C365.814 30.144 364.838 31.2 363.542 31.2ZM370.159 32V26.592C370.815 25.648 371.647 25.008 372.655 25.008C373.551 25.008 373.967 25.456 373.967 26.4V32H375.215V26.416C375.215 24.8 374.495 23.968 373.023 23.968C371.615 23.968 370.639 24.896 370.095 25.68V24.112H368.911V32H370.159ZM380.975 32.176C383.407 32.176 384.847 30.992 384.847 29.104C384.847 27.312 383.631 26.56 381.391 25.968C379.199 25.392 378.415 24.992 378.415 23.808C378.415 22.896 379.295 22.224 380.639 22.224C381.983 22.224 383.007 22.928 383.327 24.128L384.559 23.744C384.047 22.08 382.655 21.12 380.655 21.12C378.591 21.12 377.087 22.224 377.087 23.952C377.087 25.84 378.575 26.544 380.543 27.04C382.303 27.504 383.535 27.888 383.535 29.216C383.535 30.432 382.559 31.088 380.991 31.088C379.119 31.088 378.207 30.32 377.711 29.024L376.575 29.472C377.279 31.248 378.655 32.176 380.975 32.176ZM389.763 32.128C391.331 32.128 392.547 31.312 393.091 29.792L392.003 29.632C391.555 30.8 390.739 31.184 389.875 31.184C388.339 31.184 387.443 30.176 387.411 28.192H393.235C393.219 28.016 393.235 27.84 393.219 27.664C393.059 25.472 391.859 23.968 389.795 23.968C387.763 23.968 386.147 25.52 386.147 28.192C386.147 30.544 387.603 32.128 389.763 32.128ZM387.459 27.344C387.555 25.856 388.531 24.912 389.795 24.912C391.059 24.912 391.843 25.824 391.971 27.344H387.459ZM397.742 32.128C399.31 32.128 400.478 31.216 400.75 29.44L399.662 29.328C399.422 30.64 398.814 31.2 397.774 31.2C396.59 31.2 395.662 30.224 395.662 28.048C395.662 26.08 396.43 24.96 397.694 24.96C398.782 24.96 399.406 25.664 399.598 26.96L400.766 26.816C400.414 24.88 399.358 23.968 397.678 23.968C395.678 23.968 394.35 25.728 394.35 28.016C394.35 30.656 395.806 32.128 397.742 32.128ZM405.339 32.128C407.291 32.128 408.907 30.512 408.907 28.032C408.907 25.6 407.499 23.968 405.339 23.968C403.403 23.968 401.803 25.552 401.803 28.016C401.803 30.512 403.307 32.128 405.339 32.128ZM405.323 31.2C403.995 31.2 403.115 30.016 403.115 28.032C403.115 26 404.075 24.944 405.323 24.944C406.635 24.944 407.595 25.968 407.595 28.016C407.595 30.144 406.619 31.2 405.323 31.2ZM411.94 32V26.592C412.596 25.648 413.428 25.008 414.436 25.008C415.332 25.008 415.748 25.456 415.748 26.4V32H416.996V26.416C416.996 24.8 416.276 23.968 414.804 23.968C413.396 23.968 412.42 24.896 411.876 25.68V24.112H410.692V32H411.94ZM421.78 32.128C422.932 32.128 423.732 31.664 424.356 30.8V32H425.524V21.328H424.324V25.184C423.956 24.656 423.204 23.968 422.004 23.968C419.988 23.968 418.772 25.744 418.772 28.08C418.772 30.656 419.876 32.128 421.78 32.128ZM422.116 31.184C420.804 31.184 420.068 30.272 420.068 28.08C420.068 26.064 420.772 24.944 422.196 24.944C423.364 24.944 423.908 25.616 424.308 26.368V29.584C423.972 30.464 423.3 31.184 422.116 31.184ZM429.846 32.096C431.318 32.096 432.246 31.536 432.87 30.672C432.854 31.072 432.918 31.728 433.014 32H434.198C434.07 31.504 434.022 30.96 434.022 30.464V26.88C434.022 24.896 433.158 23.968 430.918 23.968C429.046 23.968 427.814 24.736 427.526 26.176L428.678 26.304C428.934 25.296 429.606 24.944 430.886 24.944C432.214 24.944 432.726 25.408 432.822 26.272C432.854 26.464 432.854 26.736 432.854 27.008C432.23 27.024 431.702 27.024 431.062 27.104C428.902 27.36 427.334 28.208 427.334 29.92C427.334 31.36 428.454 32.096 429.846 32.096ZM430.214 31.184C429.158 31.184 428.63 30.704 428.63 29.792C428.63 28.8 429.51 28.112 431.222 27.888C431.718 27.824 432.294 27.824 432.854 27.824V29.456C432.518 30.272 431.718 31.184 430.214 31.184ZM437.643 32V26.848C438.299 25.744 439.227 25.104 440.155 25.104C440.251 25.104 440.411 25.104 440.507 25.12V23.984C440.379 23.968 440.283 23.968 440.139 23.968C439.019 23.968 438.091 24.88 437.579 25.808V24.112H436.395V32H437.643ZM441.255 34.768C443.191 34.768 444.103 33.952 444.583 32.56L447.591 24.112H446.487L444.663 29.264L444.343 30.272L444.023 29.264L442.071 24.112H440.727L443.319 30.848C443.991 32.608 442.983 33.76 441.223 33.76L441.255 34.768Z" fill="#3D73D5"/>
<path d="M359.5 36V102" stroke="#3D73D5" stroke-dasharray="2 2"/>
</svg>
